<?xml version="1.0" standalone="no"?>
<!DOCTYPE svg PUBLIC "-//W3C//DTD SVG 1.1//EN" "http://www.w3.org/Graphics/SVG/1.1/DTD/svg11.dtd" >
<svg xmlns="http://www.w3.org/2000/svg">
<metadata></metadata>
<defs>
<font id="tt_firsextralight_italic" horiz-adv-x="1126" >
<font-face units-per-em="2048" ascent="1638" descent="-410" />
<missing-glyph horiz-adv-x="317" />
<glyph horiz-adv-x="0" />
<glyph horiz-adv-x="0" />
<glyph horiz-adv-x="682" />
<glyph unicode="&#xd;" horiz-adv-x="0" />
<glyph unicode=" "  horiz-adv-x="317" />
<glyph unicode="&#x09;" horiz-adv-x="317" />
<glyph unicode="&#xa0;" horiz-adv-x="317" />
<glyph unicode="!" horiz-adv-x="512" d="M369 1393l-105 -738l-47 -276h-20l26 276l105 738h41zM117 31q2 15 16 28t29 13t26.5 -13t10.5 -28q-3 -15 -17.5 -28t-29.5 -13t-26.5 13t-8.5 28z" />
<glyph unicode="&#x22;" horiz-adv-x="624" d="M297 1393l-41 -287l-35 -184h-20l14 184l41 287h41zM553 1393l-41 -287l-35 -184h-20l14 184l41 287h41z" />
<glyph unicode="#" horiz-adv-x="1280" d="M133 0h-41l180 420h-276l6 41h287l198 471h-286l6 41h297l182 420h41l-182 -420h409l183 420h41l-183 -420h277l-6 -41h-287l-199 -471h287l-6 -41h-297l-180 -420h-41l180 420h-410zM528 932l-198 -471h409l199 471h-410z" />
<glyph unicode="$" horiz-adv-x="1075" d="M420 -61l29 204q-164 0 -260.5 78t-131.5 199h41q86 -236 367 -236q190 0 301 76.5t125 190.5q9 60 -18.5 103.5t-78.5 66t-118.5 41t-138.5 30t-138 32t-118 47t-77.5 75.5t-17.5 117q16 121 132.5 209t287.5 88l31 215h41l-31 -215q144 0 231 -74.5t121 -192.5h-41 q-38 105 -116.5 165.5t-220.5 60.5q-169 0 -274.5 -75t-119.5 -181q-9 -60 18.5 -103.5t78.5 -66t118.5 -41t138.5 -30t138 -32t118 -47t77.5 -75.5t17.5 -117q-18 -129 -138 -218.5t-305 -89.5l-28 -204h-41z" />
<glyph unicode="%" horiz-adv-x="1464" d="M1280 1393l-1055 -1393h-51l1055 1393h51zM725 1085q-20 -143 -116.5 -235t-215.5 -92q-118 0 -189.5 92t-51.5 235t116.5 235.5t214.5 92.5q119 0 190.5 -92.5t51.5 -235.5zM684 1085q18 127 -42 207t-163 80t-185.5 -80t-100.5 -207t41.5 -206.5t162.5 -79.5t186 79.5 t101 206.5zM1303 307q-21 -143 -118.5 -235t-215.5 -92q-119 0 -190 92t-50 235q20 143 117 235.5t215 92.5q119 0 190.5 -92.5t51.5 -235.5zM1262 307q18 127 -43 207t-164 80q-102 0 -184.5 -79.5t-100.5 -207.5q-18 -127 42 -207t163 -80t186 80t101 207z" />
<glyph unicode="&#x26;" horiz-adv-x="1187" d="M563 860l-241 481l6 52h768l-6 -41h-717v-11l671 -1341h-51l-78 154q-8 -9 -22 -23.5t-61 -51.5t-96.5 -65.5t-125 -51.5t-149.5 -23q-196 0 -306.5 118.5t-86.5 290.5q10 73 43 141t77.5 117.5t95.5 93t100 72t89.5 49t64.5 29.5zM467 -20q50 0 101 12t92 31t79 41.5 t66 45.5t49.5 42t31.5 31l11 12l-315 626q-9 -3 -24.5 -8.5t-60.5 -26t-86.5 -45t-94 -65.5t-93 -86.5t-72.5 -109t-42 -132.5q-22 -156 78 -262t280 -106z" />
<glyph unicode="'" horiz-adv-x="368" d="M297 1393l-41 -287l-35 -184h-20l14 184l41 287h41z" />
<glyph unicode="(" horiz-adv-x="737" d="M164 594q17 121 58.5 238.5t94 208.5t112.5 172.5t116 139t101.5 100t73.5 63.5l28 20l16 -31q-10 -7 -27 -19.5t-68 -57t-99 -95t-109 -131.5t-109 -167.5t-89 -203t-58 -237.5q-16 -127 -9 -237.5t33 -203t61 -167.5t73 -131.5t70.5 -94.5t53.5 -58l21 -19l-25 -31 q-16 14 -42.5 41t-91.5 119t-110 194t-71.5 262t-3.5 326z" />
<glyph unicode=")" horiz-adv-x="737" d="M532 594q-17 -121 -58 -238.5t-93.5 -208.5t-111.5 -172.5t-115 -139t-102 -100t-74 -63.5l-27 -20l-17 31q10 7 27.5 19.5t68.5 57t98.5 95t108.5 131.5t109 167.5t88.5 203t57.5 237.5q22 178 1 322.5t-71 254.5t-101.5 184.5t-90.5 112.5l-40 37l25 31 q16 -14 42.5 -41t91.5 -119t109.5 -194t71 -262t2.5 -326z" />
<glyph unicode="*" horiz-adv-x="737" d="M481 1393l-32 -236h245l-6 -41h-235l122 -225l-34 -21l-121 226l-187 -226l-26 21l184 225h-235l6 41h246l32 236h41z" />
<glyph unicode="+" horiz-adv-x="921" d="M430 666l53 378h41l-53 -378h358l-6 -41h-358l-53 -379h-41l53 379h-358l6 41h358z" />
<glyph unicode="," horiz-adv-x="337" d="M35 41q3 15 17.5 28t29.5 13t26.5 -13t8.5 -28q-1 -9 -4.5 -19t-6.5 -16l-4 -6l-106 -174h-21l86 174q-3 1 -8 3.5t-12.5 13t-5.5 24.5z" />
<glyph unicode="-" horiz-adv-x="870" d="M772 625h-706l6 41h706z" />
<glyph unicode="." horiz-adv-x="327" d="M25 41q3 15 17.5 28t29.5 13t26 -13t8 -28q-2 -15 -16 -28t-29 -13t-26.5 13t-9.5 28z" />
<glyph unicode="/" horiz-adv-x="737" d="M-41 0l768 1393h41l-768 -1393h-41z" />
<glyph unicode="0" horiz-adv-x="1454" d="M1284 696q22 155 -9.5 292.5t-99.5 228.5t-161 143.5t-193 52.5q-80 0 -165 -32.5t-166 -96.5t-149 -149.5t-116.5 -199.5t-66.5 -239q-16 -130 0 -240t60.5 -198t107.5 -150t139 -95t156 -33q100 0 207.5 52.5t201.5 143.5t163.5 228t90.5 292zM117 696q23 163 97 307.5 t174 241.5t215.5 153t223.5 56t207.5 -56t172.5 -153t107 -241.5t11 -307.5q-18 -131 -70 -251t-125 -210.5t-159.5 -158t-178.5 -102.5t-178 -35t-168 35.5t-149 101t-115 159t-65 209.5t0 252z" />
<glyph unicode="1" horiz-adv-x="614" d="M256 0l180 1290q-35 -76 -117 -135t-176 -59l7 41q99 0 181 70t120 186h41l-195 -1393h-41z" />
<glyph unicode="2" horiz-adv-x="1187" d="M1059 1055q22 156 -73 257t-277 101q-195 0 -313.5 -77.5t-188.5 -219.5h-41q70 156 207 247t342 91q196 0 302.5 -113.5t82.5 -285.5q-10 -71 -44 -133.5t-84 -109t-114 -91t-133.5 -79.5t-144 -74.5t-144.5 -76.5t-134.5 -84.5t-115 -98.5t-85.5 -120t-46 -147h922 l-4 -41h-963l4 41q13 93 55 173t102.5 139t135.5 110t156 93t161.5 82.5t154 83.5t132.5 90t98.5 109t49.5 134z" />
<glyph unicode="3" horiz-adv-x="1177" d="M477 -20q190 0 326.5 116t161.5 293t-79 293.5t-294 116.5h-174l6 41l614 512h-788l6 41h850l-6 -41l-615 -512h113q207 0 321.5 -128.5t86.5 -322.5q-17 -127 -91 -229.5t-190.5 -161.5t-253.5 -59q-108 0 -193 28.5t-141 80.5t-89 119t-46 150h41q28 -157 133 -247 t301 -90z" />
<glyph unicode="4" horiz-adv-x="1177" d="M829 0h-41l50 358h-809l6 41l641 994h51l-641 -994h758l61 441h41l-61 -441h205l-7 -41h-204z" />
<glyph unicode="5" horiz-adv-x="1146" d="M584 809h-328l184 584h645l-6 -41h-604l-162 -502h277q135 0 237.5 -61.5t149.5 -167t29 -232.5q-27 -187 -183.5 -318.5t-361.5 -131.5t-319 103t-140 275h41q28 -156 131 -246.5t293 -90.5t332 119t166 290q25 179 -83 299.5t-298 120.5z" />
<glyph unicode="6" horiz-adv-x="1208" d="M59 430q9 63 31 124t47.5 103.5t50 76t40.5 49.5l16 16l565 594h51l-528 -553h10q4 4 12 10t36.5 22t60.5 28t83.5 22t106.5 10q222 0 347.5 -143t94.5 -359q-19 -137 -100.5 -249t-208 -177t-272.5 -65q-221 0 -346.5 141t-96.5 350zM100 430q-28 -193 87 -321.5 t321 -128.5q205 0 355.5 128t178.5 322q28 200 -85.5 330.5t-319.5 130.5t-357.5 -130.5t-179.5 -330.5z" />
<glyph unicode="7" horiz-adv-x="972" d="M215 0h-41l803 1352h-850l6 41h891l-6 -52z" />
<glyph unicode="8" horiz-adv-x="1269" d="M528 -20q222 0 367 108t168 264q10 76 -13 143.5t-76 119.5t-141 82t-200 30q-222 0 -367 -108.5t-166 -266.5q-11 -75 12 -142t75.5 -118.5t140.5 -81.5t200 -30zM639 768q184 0 315.5 99t151.5 229q18 130 -84 223.5t-293 93.5t-318 -93.5t-145 -223.5 q-9 -62 12.5 -120.5t68 -105t123 -74.5t169.5 -28zM735 1454q104 0 188.5 -30t135.5 -80t74 -114.5t14 -133.5q-11 -74 -51.5 -136.5t-90.5 -98t-98.5 -60.5t-80.5 -34l-33 -9l-2 -10q8 -1 20.5 -4t49 -16t69 -30.5t70.5 -49.5t63 -71t38 -98t3 -127q-24 -171 -184.5 -292 t-397.5 -121q-120 0 -214.5 33.5t-152 91t-83 132t-13.5 156.5q10 68 38.5 127t66.5 98t81.5 71t85.5 50t76 30t55 16l21 4l2 10q-6 2 -17 5t-41 15.5t-57 28.5t-58.5 44.5t-52.5 61t-31.5 81t-2.5 102.5q20 145 161.5 251.5t348.5 106.5z" />
<glyph unicode="9" horiz-adv-x="1208" d="M1139 963q-9 -63 -32 -124t-48.5 -103.5t-50 -76t-40.5 -49.5l-16 -16l-563 -594h-51l526 553h-10q-4 -4 -12 -10t-36.5 -22t-60.5 -28t-83.5 -22t-106.5 -10q-222 0 -346.5 143t-93.5 359q30 209 194 350t385 141t347.5 -141.5t97.5 -349.5zM1098 963q26 193 -89 321.5 t-321 128.5t-356 -128.5t-176 -321.5q-29 -200 85 -330.5t320 -130.5t357 130.5t180 330.5z" />
<glyph unicode=":" horiz-adv-x="327" d="M143 881q1 15 16.5 28t30.5 13t26 -13t9 -28q-1 -15 -16.5 -28t-30.5 -13t-26 13t-9 28zM25 41q3 15 17.5 28t29.5 13t26 -13t8 -28q-2 -15 -16 -28t-29 -13t-26.5 13t-9.5 28z" />
<glyph unicode=";" horiz-adv-x="337" d="M35 41q3 15 17.5 28t29.5 13t26.5 -13t8.5 -28q-1 -9 -4.5 -19t-6.5 -16l-4 -6l-106 -174h-21l86 174q-3 1 -8 3.5t-12.5 13t-5.5 24.5zM154 881q1 15 16.5 28t30.5 13t26 -13t9 -28q-1 -15 -17 -28t-31 -13t-25.5 13t-8.5 28z" />
<glyph unicode="&#x3c;" horiz-adv-x="931" d="M47 492l821 378l-6 -41l-776 -358l-2 -10l678 -359l-6 -41l-715 377z" />
<glyph unicode="=" horiz-adv-x="870" d="M793 768h-707l6 41h707zM741 399h-706l6 41h707z" />
<glyph unicode="&#x3e;" horiz-adv-x="931" d="M100 870l715 -378l-6 -54l-821 -377l6 41l776 359l2 10l-678 358z" />
<glyph unicode="?" horiz-adv-x="1054" d="M616 1413q-332 0 -481 -297h-41q71 152 205 245t324 93q187 0 293 -109t85 -260q-11 -81 -44 -139.5t-77.5 -93.5t-96.5 -63.5t-104.5 -60t-97.5 -72.5t-80 -111.5t-48 -165.5h-41q14 100 49 173.5t80.5 116t98 75t104.5 60.5t96.5 61t77 88t43.5 132q19 135 -77 231.5 t-268 96.5zM342 41q3 15 17.5 28t29.5 13t26.5 -13t8.5 -28q-2 -15 -16 -28t-29 -13t-26.5 13t-10.5 28z" />
<glyph unicode="@" horiz-adv-x="1699" d="M1040 338l15 113h-11q-4 -5 -11.5 -13.5t-32 -29.5t-51 -37t-66.5 -29.5t-80 -13.5q-124 0 -207 98.5t-66 228.5q19 130 130 229t235 99q40 0 76.5 -12.5t59.5 -30.5t40.5 -36.5t24.5 -31.5l8 -12h10l14 103h41l-82 -584q189 0 325 114t161 285q11 76 -2 150.5t-46.5 140 t-89.5 121.5t-127 96.5t-163 63t-195 22.5q-197 0 -372 -93t-291.5 -257.5t-145.5 -366.5q-28 -202 42 -366t219 -257t346 -93q105 0 210.5 26t159.5 52l53 26l-4 -43l-22 -11t-59.5 -24.5t-93 -31t-116.5 -24.5t-135 -11q-155 0 -285 58.5t-215.5 158.5t-124 240.5 t-16.5 299.5t100 299.5t192 241t260.5 159t301.5 58.5q129 0 242 -34.5t194.5 -95t137.5 -140t77.5 -173.5t8.5 -192q-28 -197 -180.5 -318.5t-393.5 -121.5zM571 655q-15 -115 57.5 -200.5t180.5 -85.5q46 0 89 16t72 38.5t51.5 44.5t32.5 38l11 16l39 266q-2 6 -6.5 16.5 t-22 37t-39.5 47t-61.5 37t-85.5 16.5q-108 0 -204.5 -86t-113.5 -201z" />
<glyph unicode="A" horiz-adv-x="1392" d="M1055 1393l143 -1393h-41l-41 399h-934l-151 -399h-41l532 1393h533zM547 1352l-348 -912h913l-94 912h-471z" />
<glyph unicode="B" horiz-adv-x="1423" d="M307 1393h574q165 0 253.5 -93.5t69.5 -234.5q-10 -66 -38 -121t-61 -86t-64.5 -53t-52.5 -29l-21 -8v-10q7 -1 19.5 -3t48.5 -13t67.5 -26t68.5 -44.5t61.5 -66t37 -93t2.5 -123.5q-24 -164 -159.5 -276.5t-324.5 -112.5h-675zM158 41h635q174 0 295.5 99.5t142.5 248.5 q21 142 -74 240t-268 98h-635zM874 1352h-532l-82 -584h533q151 0 251 82t119 215q18 126 -60 206.5t-229 80.5z" />
<glyph unicode="C" horiz-adv-x="1556" d="M707 -61q-132 0 -252.5 61.5t-204 163t-124.5 242t-20 290.5q17 120 72 235.5t136.5 208.5t180 164.5t209 110.5t216.5 39q122 0 222.5 -34.5t166 -92.5t105.5 -127t54 -145h-41q-15 68 -52.5 129.5t-98.5 114t-155 83.5t-208 31q-167 0 -334 -97t-286 -264t-146 -356 q-19 -142 19 -275.5t117 -229t192 -153.5t238 -58q123 0 229 31.5t186.5 88t141 126t104.5 153.5h41q-40 -87 -105 -164t-152.5 -140t-204.5 -99.5t-246 -36.5z" />
<glyph unicode="D" horiz-adv-x="1433" d="M1274 696q41 293 -118.5 474.5t-465.5 181.5h-348l-184 -1311h348q306 0 517 181t251 474zM1315 696q-43 -309 -267.5 -502.5t-545.5 -193.5h-389l194 1393h389q212 0 363 -88.5t217.5 -247t38.5 -361.5z" />
<glyph unicode="E" horiz-adv-x="1239" d="M158 41h901l-4 -41h-942l194 1393h942l-6 -41h-901l-88 -625h717l-4 -41h-717z" />
<glyph unicode="F" horiz-adv-x="1177" d="M244 645l-90 -645h-41l194 1393h901l-6 -41h-860l-92 -666h696l-6 -41h-696z" />
<glyph unicode="G" horiz-adv-x="1597" d="M707 -61q-132 0 -252.5 61.5t-204 163t-124.5 242t-20 290.5q17 120 72 235.5t136.5 208.5t180 164.5t209 110.5t216.5 39q122 0 222.5 -34.5t166 -92.5t105.5 -127t54 -145h-41q-15 68 -52.5 129.5t-98.5 114t-155 83.5t-208 31q-167 0 -334 -97t-286 -264t-146 -356 q-19 -142 19 -275.5t117 -229t192 -153.5t238 -58q171 0 326.5 83t258.5 226.5t127 314.5h-512l7 41h553l-7 -41q-25 -181 -135.5 -334.5t-276 -242t-347.5 -88.5z" />
<glyph unicode="H" horiz-adv-x="1433" d="M113 0l194 1393h41l-94 -666h922l94 666h41l-195 -1393h-41l96 686h-921l-96 -686h-41z" />
<glyph unicode="I" horiz-adv-x="471" d="M348 1393l-194 -1393h-41l194 1393h41z" />
<glyph unicode="J" horiz-adv-x="1075" d="M952 1393l-135 -963q-32 -226 -173 -358.5t-337 -132.5q-146 0 -230.5 76t-109.5 200h41q58 -235 305 -235q180 0 306.5 119t156.5 331l135 963h41z" />
<glyph unicode="K" horiz-adv-x="1239" d="M1022 0l-406 819l-399 -358l-63 -461h-41l194 1393h41l-123 -871l963 871h61l-598 -543l424 -850h-53z" />
<glyph unicode="L" horiz-adv-x="1157" d="M348 1393l-190 -1352h860l-4 -41h-901l194 1393h41z" />
<glyph unicode="M" horiz-adv-x="1761" d="M1591 1341l-733 -768l-516 768l-188 -1341h-41l194 1393h51l508 -758l721 758h51l-194 -1393h-41z" />
<glyph unicode="N" horiz-adv-x="1474" d="M358 1393l766 -1332l187 1332h41l-195 -1393h-51l-766 1331l-186 -1331h-41l194 1393h51z" />
<glyph unicode="O" horiz-adv-x="1679" d="M106 696q29 205 154 380.5t306.5 276.5t373.5 101q144 0 269 -60t210 -161t124.5 -242t17.5 -295q-29 -205 -154 -380.5t-306.5 -276t-373.5 -100.5q-144 0 -269 60t-210 160.5t-124.5 241.5t-17.5 295zM147 696q-27 -195 44 -360.5t215.5 -260.5t326.5 -95t353.5 95 t289 260.5t144.5 360.5q21 146 -16 279.5t-117 229t-198.5 152t-254.5 56.5q-182 0 -353 -95t-288.5 -261t-145.5 -361z" />
<glyph unicode="P" horiz-adv-x="1372" d="M1266 922q27 187 -86.5 308.5t-325.5 121.5h-512l-121 -871h512q213 0 359 123.5t174 317.5zM1307 922q-30 -209 -191 -345.5t-389 -136.5h-512l-61 -440h-41l194 1393h553q227 0 351 -134.5t96 -336.5z" />
<glyph unicode="Q" horiz-adv-x="1679" d="M106 696q29 205 154 380.5t306.5 276.5t373.5 101q144 0 269 -60t210 -161t124.5 -242t17.5 -295q-14 -97 -49 -189t-75 -153t-78.5 -108.5t-63.5 -69.5l-25 -22l184 -215l-35 -31l-184 215q-9 -7 -25 -19.5t-68 -44.5t-108 -56t-140 -44t-167 -20q-144 0 -269 60 t-210 160.5t-124.5 241.5t-17.5 295zM147 696q-27 -195 44 -360.5t215.5 -260.5t326.5 -95q77 0 154.5 18t132.5 43.5t99.5 51t66.5 43.5l22 18l-149 174l35 30l149 -174q9 8 25 22t58.5 63.5t77.5 104.5t69 142.5t47 179.5q21 146 -16 279.5t-117 229t-198.5 152 t-254.5 56.5q-182 0 -353 -95t-288.5 -261t-145.5 -361z" />
<glyph unicode="R" horiz-adv-x="1413" d="M870 522h-645l-71 -522h-41l194 1393h594q212 0 324.5 -121t87.5 -309q-11 -75 -38.5 -139t-63.5 -106t-77 -75.5t-79.5 -52t-70 -30.5t-50.5 -16l-19 -3l232 -541h-51zM231 563h553q197 0 329 110.5t159 289.5q24 172 -78 280.5t-299 108.5h-553z" />
<glyph unicode="S" horiz-adv-x="1249" d="M1030 348q11 74 -12.5 130t-72 91.5t-113.5 62.5t-138.5 48t-147 42.5t-138.5 51t-112.5 68.5t-70.5 101t-12 142q21 153 162.5 261t349.5 108q108 0 192.5 -26.5t138 -74t84 -107t40.5 -130.5h-41q-24 135 -125 216t-295 81q-192 0 -318.5 -95.5t-146.5 -232.5 q-10 -67 8.5 -119.5t58 -86t94.5 -62t119 -46.5t131 -39t130.5 -40.5t118 -50t93.5 -68t56.5 -95t7.5 -130.5q-23 -167 -179.5 -288t-379.5 -121q-218 0 -336 102t-153 276h40q37 -159 144.5 -248t310.5 -89q208 0 349.5 108t162.5 260z" />
<glyph unicode="T" horiz-adv-x="1187" d="M659 1352h-532l6 41h1106l-6 -41h-533l-188 -1352h-41z" />
<glyph unicode="U" horiz-adv-x="1474" d="M631 -20q218 0 369 139.5t186 382.5l125 891h41l-125 -891q-36 -258 -202.5 -410.5t-399.5 -152.5t-356 152.5t-87 410.5l125 891h41l-125 -891q-35 -243 77.5 -382.5t330.5 -139.5z" />
<glyph unicode="V" horiz-adv-x="1392" d="M362 41h472l518 1352h41l-533 -1393h-532l-144 1393h41z" />
<glyph unicode="W" horiz-adv-x="1904" d="M465 41l518 1352h123l137 -1352h100l500 1352h41l-512 -1393h-164l-139 1352h-61l-516 -1352h-164l-123 1393h41l119 -1352h100z" />
<glyph unicode="X" horiz-adv-x="1269" d="M1188 1393h51l-584 -656l441 -737h-52l-415 696l-609 -696h-51l645 737l-399 656h51l375 -615z" />
<glyph unicode="Y" horiz-adv-x="1290" d="M1331 1393l-702 -922l-66 -471h-41l66 471l-445 922h52l419 -881l666 881h51z" />
<glyph unicode="Z" horiz-adv-x="1198" d="M-20 0l6 49l1175 1303h-952l6 41h993l-6 -52l-1173 -1300h989l-4 -41h-1034z" />
<glyph unicode="[" horiz-adv-x="665" d="M702 1434h-348l-235 -1680h348l-6 -41h-389l247 1762h390z" />
<glyph unicode="\" horiz-adv-x="737" d="M195 1393l378 -1393h-41l-378 1393h41z" />
<glyph unicode="]" horiz-adv-x="665" d="M508 1434h-348l6 41h389l-248 -1762h-389l6 41h348z" />
<glyph unicode="^" horiz-adv-x="819" d="M496 1352l-369 -584h-41l395 625h41l219 -625h-41z" />
<glyph unicode="_" horiz-adv-x="706" d="M555 -338h-705l7 41h704z" />
<glyph unicode="`" horiz-adv-x="450" d="M176 1403l283 -174l-25 -31l-284 164z" />
<glyph unicode="a" d="M819 0l25 184h-10q-7 -9 -19.5 -24t-53 -54t-83.5 -68.5t-107 -54t-127 -24.5q-84 0 -158.5 38.5t-126.5 104.5t-76 160t-9 199q20 139 100 256t190 181.5t222 64.5q63 0 119.5 -23.5t92.5 -56.5t63 -66t39 -57l11 -23h11l26 185h41l-129 -922h-41zM856 266l53 389 q-3 11 -10.5 29t-35 64t-61.5 81t-93.5 64t-128.5 29q-158 0 -298 -133.5t-167 -327.5t75.5 -327.5t260.5 -133.5q69 0 136 27.5t113.5 66.5t83 78t54.5 66z" />
<glyph unicode="b" horiz-adv-x="1136" d="M137 184l-24 -184h-41l194 1393h41l-92 -656h10q7 9 19.5 24.5t53 54.5t83.5 68.5t107.5 54t127.5 24.5q84 0 158.5 -38.5t126 -104.5t75.5 -160t9 -199t-65.5 -199t-120.5 -160t-155 -104.5t-169 -38.5q-46 0 -89 12.5t-74.5 32.5t-59.5 43.5t-47 47.5t-32.5 44 t-19.5 33l-6 12h-10zM203 655l-53 -389q2 -6 5.5 -15.5t17 -37t30 -52.5t45 -56t60.5 -53t77.5 -37t95.5 -15q102 0 201.5 59t171.5 166t90 236t-24 236t-125 166t-185 59q-50 0 -99.5 -14.5t-89 -38.5t-75 -52.5t-61 -56.5t-44.5 -52t-29 -38z" />
<glyph unicode="c" horiz-adv-x="1075" d="M455 -41q-117 0 -211.5 64.5t-142 181.5t-27.5 256q20 140 100 256.5t192.5 181t229.5 64.5q158 0 245.5 -73t106.5 -183h-41q-21 95 -97.5 155t-219.5 60q-107 0 -209.5 -59t-175 -166t-90.5 -236q-27 -195 77 -328t269 -133q143 0 254 76.5t159 179.5h41 q-50 -118 -176 -207.5t-284 -89.5z" />
<glyph unicode="d" horiz-adv-x="1136" d="M819 0l25 184h-10q-7 -9 -19.5 -24t-53 -54t-83.5 -68.5t-107 -54t-127 -24.5q-84 0 -158.5 38.5t-126.5 104.5t-76 160t-9 199q20 139 100 256t190 181.5t222 64.5q63 0 119.5 -23.5t92.5 -56.5t63 -66t39 -57l11 -23h11l92 656h41l-195 -1393h-41zM856 266l53 389 q-3 11 -10.5 29t-35 64t-61.5 81t-93.5 64t-128.5 29q-158 0 -298 -133.5t-167 -327.5t75.5 -327.5t260.5 -133.5q69 0 136 27.5t113.5 66.5t83 78t54.5 66z" />
<glyph unicode="e" horiz-adv-x="1095" d="M586 963q83 0 158 -38.5t126.5 -103.5t75.5 -157t10 -193l-34 -31h-809q-13 -90 9.5 -172t70.5 -140.5t118 -93t150 -34.5q143 0 254 76.5t159 179.5h41q-50 -118 -176 -207.5t-284 -89.5q-117 0 -211.5 64.5t-142 181.5t-27.5 256q20 140 100 257t190 181t222 64z M580 922q-102 0 -202 -58t-171.5 -161t-87.5 -222h799q12 90 -10.5 172.5t-69 141t-114.5 93t-144 34.5z" />
<glyph unicode="f" horiz-adv-x="563" d="M59 870l7 41h163l35 246q17 122 89.5 189t181.5 67q36 0 71 -10.5t52 -20.5l16 -10l-6 -41q-56 41 -138 41q-92 0 -151 -54.5t-74 -160.5l-35 -246h287l-6 -41h-287l-121 -870h-41l121 870h-164z" />
<glyph unicode="g" d="M922 737l26 185h41l-129 -912q-26 -188 -159 -314t-291 -126t-247.5 73t-105.5 183h41q21 -95 98 -155t220 -60q142 0 260.5 113t142.5 286l31 215h-10q-7 -9 -19 -24t-52.5 -54t-83.5 -68.5t-107 -54t-127 -24.5q-112 0 -204.5 64t-140 176t-28.5 241q14 97 63.5 187 t119.5 154t156 102.5t169 38.5q63 0 119.5 -23.5t92.5 -56.5t63 -66t39 -57l11 -23h11zM862 307l47 348q-3 11 -10.5 29t-35 64t-61.5 81t-93.5 64t-128.5 29q-102 0 -202 -58t-171.5 -161t-87.5 -222q-13 -90 9 -172t69 -140.5t114.5 -93t143.5 -34.5q69 0 136 27.5 t114 66.5t84 78t55 67z" />
<glyph unicode="h" d="M946 553l-76 -553h-41l76 553q25 167 -57.5 268t-237.5 101q-50 0 -99.5 -14.5t-89 -38.5t-75 -52.5t-61 -56.5t-44.5 -52t-29 -38l-9 -15l-90 -655h-41l194 1393h41l-92 -656h10q7 9 19.5 24.5t53 54.5t83.5 68.5t107.5 54t127.5 24.5q170 0 263 -113.5t67 -296.5z" />
<glyph unicode="i" horiz-adv-x="389" d="M72 0l129 922h41l-129 -922h-41zM233 1311q3 15 18 28t30 13t26 -13t8 -28q-2 -15 -16 -28t-29 -13t-26.5 13t-10.5 28z" />
<glyph unicode="j" horiz-adv-x="389" d="M242 922l-154 -1096q-17 -114 -93.5 -185t-176.5 -71q-41 0 -78 10t-54 20l-16 11l6 41q6 -5 18 -11.5t50.5 -18t79.5 -11.5q85 0 146.5 58.5t76.5 156.5l154 1096h41zM233 1311q3 15 18 28t30 13t26 -13t8 -28q-2 -15 -16 -28t-29 -13t-26.5 13t-10.5 28z" />
<glyph unicode="k" horiz-adv-x="962" d="M150 276l-37 -276h-41l194 1393h41l-149 -1065l678 594h51l-398 -349l330 -573h-51l-313 543z" />
<glyph unicode="l" horiz-adv-x="419" d="M102 0l189 1352h-185l7 41h225l-195 -1393h-41z" />
<glyph unicode="m" horiz-adv-x="1628" d="M696 0l80 573q22 163 -49 256t-199 93q-60 0 -116.5 -28.5t-94.5 -69t-67.5 -81.5t-43.5 -69l-13 -29l-91 -645h-41l129 922h41l-26 -185h10q4 9 12.5 24.5t38 54.5t64 68.5t90 54t115.5 24.5q52 0 95.5 -13.5t71.5 -35.5t49.5 -48t32.5 -52t18 -48t9 -36l2 -13h8 q4 10 11.5 26.5t37.5 59t66 75t98.5 59t134.5 26.5q150 0 229.5 -104.5t53.5 -285.5l-80 -573h-41l80 573q23 165 -45.5 257t-202.5 92t-228.5 -92t-117.5 -257l-80 -573h-41z" />
<glyph unicode="n" horiz-adv-x="1116" d="M936 553l-76 -553h-41l76 553q25 167 -57.5 268t-237.5 101q-50 0 -99.5 -14.5t-89 -38.5t-75 -52.5t-61 -56.5t-44.5 -52t-29 -38l-9 -15l-91 -655h-41l129 922h41l-26 -185h10q7 9 19.5 24.5t53 54.5t83.5 68.5t107.5 54t127.5 24.5q170 0 263 -113.5t67 -296.5z" />
<glyph unicode="o" horiz-adv-x="1167" d="M1016 461q-20 -140 -100.5 -256t-197 -181t-243.5 -65q-194 0 -312.5 144.5t-88.5 357.5q20 140 100.5 256t197.5 181t244 65q194 0 312 -144.5t88 -357.5zM975 461q27 197 -79.5 329t-285.5 132q-117 0 -224 -59t-180 -165.5t-91 -236.5q-27 -197 80 -329t286 -132 q117 0 223.5 59t179.5 165.5t91 236.5z" />
<glyph unicode="p" d="M231 922l-26 -185h10q7 9 19.5 24.5t53 54.5t83.5 68.5t107.5 54t127.5 24.5q84 0 158.5 -38.5t126 -104.5t75.5 -160t9 -199t-65.5 -199t-120.5 -160t-155 -104.5t-169 -38.5q-46 0 -89 12.5t-74.5 32.5t-59.5 43.5t-47 47.5t-32.5 44t-19.5 33l-6 12h-10l-84 -594h-41 l188 1332h41zM193 655l-54 -389q2 -6 5.5 -15.5t17.5 -37t30.5 -52.5t44.5 -56t60.5 -53t78 -37t95.5 -15q102 0 201.5 59t171.5 166t90 236t-24 236t-125 166t-185 59q-50 0 -99.5 -14.5t-89 -38.5t-75 -52.5t-61 -56.5t-44.5 -52t-29 -38z" />
<glyph unicode="q" d="M922 737l26 185h41l-188 -1332h-41l84 594h-10q-7 -9 -19.5 -24t-53 -54t-83.5 -68.5t-107 -54t-127 -24.5q-84 0 -158.5 38.5t-126.5 104.5t-76 160t-9 199q20 139 100 256t190 181.5t222 64.5q63 0 119.5 -23.5t92.5 -56.5t63 -66t39 -57l11 -23h11zM856 266l53 389 q-3 11 -10.5 29t-35 64t-61.5 81t-93.5 64t-128.5 29q-158 0 -298 -133.5t-167 -327.5t75.5 -327.5t260.5 -133.5q69 0 136 27.5t113.5 66.5t83 78t54.5 66z" />
<glyph unicode="r" horiz-adv-x="614" d="M627 963l-6 -41h-31q-50 0 -99 -14.5t-87.5 -38.5t-73 -52.5t-59 -56.5t-42.5 -52t-27 -38l-9 -15l-91 -655h-41l129 922h41l-26 -185h10q6 9 18 24.5t51 54.5t81 68.5t105 54t126 24.5h31z" />
<glyph unicode="s" horiz-adv-x="942" d="M129 707q14 106 119 181t266 75q127 0 205.5 -63.5t101.5 -151.5h-41q-28 73 -94 123.5t-178 50.5q-146 0 -235.5 -62.5t-102.5 -152.5q-10 -68 20.5 -113.5t86.5 -67.5t125 -36.5l138 -29t124.5 -37.5t85.5 -70t20 -117q-16 -114 -129 -195.5t-289 -81.5 q-77 0 -143 24.5t-109.5 64.5t-71 88t-36.5 100h41q10 -44 34.5 -84.5t63.5 -75.5t98 -55.5t129 -20.5q160 0 258.5 68.5t112.5 167.5q6 44 -8 77.5t-43 53t-69.5 35t-87.5 24t-96 19t-95.5 21t-86 30.5t-68 46t-41.5 68t-5 97z" />
<glyph unicode="t" horiz-adv-x="645" d="M59 870l7 41h163l39 277h41l-39 -277h287l-6 -41h-287l-92 -655q-15 -105 29 -160t137 -55q36 0 73 10t55 20l19 11l-4 -41q-67 -41 -149 -41q-109 0 -163.5 67.5t-37.5 188.5l92 655h-164z" />
<glyph unicode="u" d="M113 369l77 553h41l-77 -553q-25 -167 58.5 -268t238.5 -101q69 0 136 27.5t113.5 66.5t83 78t54.5 66l18 28l92 656h41l-129 -922h-41l25 184h-10q-7 -9 -19.5 -24t-53 -54t-83.5 -68.5t-107 -54t-127 -24.5q-170 0 -263.5 113.5t-67.5 296.5z" />
<glyph unicode="v" horiz-adv-x="1003" d="M184 0l-75 922h41l69 -881h369l319 881h41l-334 -922h-430z" />
<glyph unicode="w" horiz-adv-x="1382" d="M737 881h-51l-328 -881h-153l-86 922h41l80 -881h92l330 881h112l80 -881h92l330 881h41l-344 -922h-154z" />
<glyph unicode="x" horiz-adv-x="921" d="M707 0l-287 440l-410 -440h-51l447 481l-287 441h51l260 -400l375 400h51l-410 -441l312 -481h-51z" />
<glyph unicode="y" horiz-adv-x="983" d="M887 922h41l-371 -1024q-62 -173 -140.5 -250.5t-180.5 -77.5q-41 0 -78 10t-54 20l-16 11l6 41q6 -5 18 -11.5t50.5 -18t79.5 -11.5q87 0 155 68.5t119 218.5l37 102h-369l-75 922h41l69 -881h348z" />
<glyph unicode="z" horiz-adv-x="890" d="M827 870l-813 -829h717l-4 -41h-768l6 49l813 832h-676l7 41h727z" />
<glyph unicode="{" horiz-adv-x="593" d="M207 598l-2 -8q4 -1 10.5 -3.5t22.5 -14t27.5 -26.5t18.5 -43.5t3 -62.5q-7 -46 -95.5 -271t-95.5 -271q-8 -63 31.5 -103.5t114.5 -40.5h153l-6 -41h-153q-89 0 -139.5 56.5t-41.5 128.5q7 46 95.5 271t95.5 271q7 54 -27 93.5t-88 39.5h-51l6 41h51q54 0 99 40t53 94 q6 46 -18.5 271t-18.5 271q9 72 75.5 128.5t155.5 56.5h154l-6 -41h-154q-75 0 -125 -40.5t-59 -103.5q-6 -46 18.5 -271t18.5 -271q-5 -34 -19.5 -62.5t-31.5 -44t-33.5 -26t-27.5 -13.5z" />
<glyph unicode="|" horiz-adv-x="491" d="M379 1536l-246 -1741h-41l246 1741h41z" />
<glyph unicode="}" horiz-adv-x="593" d="M348 590l2 8q-4 1 -10.5 3.5t-23 14t-28 26.5t-18.5 43.5t-2 62.5q6 46 94.5 271t94.5 271q9 63 -30 103.5t-114 40.5h-153l6 41h153q89 0 138.5 -56t40.5 -129q-6 -46 -94.5 -271t-94.5 -271q-8 -54 26.5 -94t88.5 -40h51l-6 -41h-51q-54 0 -99.5 -39.5t-52.5 -93.5 q-7 -46 17.5 -271t17.5 -271q-9 -72 -74.5 -128.5t-154.5 -56.5h-154l6 41h154q75 0 124.5 40.5t57.5 103.5q7 46 -17.5 271t-17.5 271q4 34 18.5 62.5t32 44t34 26t27.5 13.5z" />
<glyph unicode="~" horiz-adv-x="829" d="M252 707q-48 0 -89.5 -41t-66.5 -123l-39 20q27 84 83 134.5t118 50.5q39 0 73 -17t58 -41t47.5 -48t53 -41t63.5 -17q48 0 88.5 41t67.5 123l36 -21q-26 -84 -81 -134t-117 -50q-39 0 -73 17t-58 41t-47.5 48t-53 41t-63.5 17z" />
<glyph unicode="&#xa1;" horiz-adv-x="512" d="M74 -410l96 686l49 277h21l-29 -277l-96 -686h-41zM319 901q-2 -15 -16 -28t-29 -13t-26.5 13t-9.5 28q3 15 17.5 28t29.5 13t26 -13t8 -28z" />
<glyph unicode="&#xa2;" horiz-adv-x="1075" d="M641 1147l-25 -184q147 -6 230 -78t102 -178h-41q-21 95 -97.5 155t-219.5 60q-107 0 -209.5 -59t-175 -166t-90.5 -236q-27 -195 77 -328t269 -133q143 0 254 76.5t159 179.5h41q-48 -113 -168.5 -201.5t-271.5 -95.5l-26 -184h-41l26 184q-112 6 -201 72t-133.5 180 t-25.5 250q29 205 177 349t324 153l25 184h41z" />
<glyph unicode="&#xa3;" horiz-adv-x="993" d="M311 256q-6 -43 -20.5 -80t-31 -59t-32.5 -38t-27 -22l-10 -6l-2 -10h686l-4 -41h-911l4 41h82q86 0 149 58.5t76 156.5l70 492h-154l4 38h154l53 371q15 114 94 185t187 71q36 0 71 -10.5t51 -20.5l17 -10l-6 -41q-6 5 -17.5 11.5t-47.5 18t-72 11.5q-93 0 -158 -58 t-78 -157l-53 -371h287l-4 -38h-287z" />
<glyph unicode="&#xa4;" horiz-adv-x="1249" d="M338 1393h420q227 0 346.5 -129.5t89.5 -331.5q-28 -202 -183 -331.5t-382 -129.5h-379l-29 -205h553l-6 -41h-553l-31 -225h-41l31 225h-164l6 41h164l29 205h-164l6 41h164zM752 1352h-379l-117 -840h379q212 0 352.5 117t165.5 303q27 187 -81 303.5t-320 116.5z" />
<glyph unicode="&#xa5;" horiz-adv-x="1218" d="M1260 1393l-642 -891h332l-6 -41h-348l-29 -205h348l-6 -41h-348l-29 -215h-40l28 215h-348l6 41h348l29 205h-348l6 41h330l-400 891h52l389 -881l624 881h52z" />
<glyph unicode="&#xa6;" horiz-adv-x="491" d="M379 1536l-105 -737h-41l105 737h41zM238 532l-105 -737h-41l105 737h41z" />
<glyph unicode="&#xa7;" horiz-adv-x="1024" d="M823 696q7 46 -5 84t-37 61.5t-56 41.5t-64 27t-60 14.5t-45 6.5l-17 1q-6 -1 -17 -2.5t-43 -8.5t-61.5 -17t-66 -29t-64.5 -42.5t-50 -59t-28 -77.5q-6 -44 6.5 -81t37.5 -60.5t56 -42.5t63.5 -29t59.5 -16t44 -8l18 -2q6 1 17 2.5t42.5 9t61 18t66.5 29.5t64.5 42.5 t49.5 59.5t28 78zM797 205q-16 -114 -125.5 -190t-292.5 -76q-151 0 -246.5 82t-114.5 194h41q21 -101 103.5 -168t222.5 -67q168 0 262.5 63t108.5 162q7 51 -16 88.5t-66.5 57.5t-100 38t-116 30.5t-115.5 34.5t-98 50t-63.5 77t-12.5 115q9 61 43 109.5t77 74.5t85 43.5 t70 22.5l28 6l2 11q-10 1 -26 4.5t-56.5 20t-69.5 39t-50 65.5t-13 96q16 113 119.5 189.5t265.5 76.5q135 0 216 -63.5t104 -151.5h-41q-27 71 -99.5 122.5t-185.5 51.5q-148 0 -236.5 -64t-101.5 -161q-7 -46 10 -80t51 -55.5t79 -37.5t96 -29t101.5 -27t95.5 -35.5 t77.5 -49.5t47.5 -73.5t7 -104.5q-9 -61 -43 -109.5t-76.5 -74.5t-84 -43.5t-69.5 -22.5l-28 -6l-2 -10q5 -1 14.5 -2.5t36.5 -8.5t51 -16.5t52 -27.5t47.5 -40t30 -56t4.5 -74z" />
<glyph unicode="&#xa8;" horiz-adv-x="512" d="M147 1352q3 15 18 28t30 13t26 -13t8 -28q-1 -15 -16.5 -28t-30.5 -13t-26 13t-9 28zM455 1352q3 15 17.5 28t29.5 13t26.5 -13t8.5 -28q-1 -15 -17 -28t-31 -13t-25.5 13t-8.5 28z" />
<glyph unicode="&#xa9;" horiz-adv-x="1863" d="M862 246q-131 0 -210.5 95t-59.5 232q20 138 125.5 233t236.5 95q109 0 173 -55.5t77 -138.5h-41q-15 68 -67.5 110.5t-145.5 42.5q-116 0 -208 -82.5t-109 -204.5t51 -204t184 -82q194 0 271 174h41q-37 -97 -118.5 -156t-199.5 -59zM1739 573q-32 -231 -172.5 -424.5 t-346.5 -304t-429 -110.5q-167 0 -310.5 65.5t-239.5 177t-140.5 267.5t-20.5 329t112.5 329.5t216 268t289 177t328.5 65.5t310.5 -65.5t240 -177t141.5 -268t21 -329.5zM1698 573q23 166 -19 314.5t-133.5 254.5t-228 168t-295.5 62t-313 -62t-275.5 -168t-205.5 -254.5 t-107 -314.5t19 -314.5t133.5 -254t228 -167.5t295.5 -62q213 0 408.5 104.5t328.5 288.5t164 405z" />
<glyph unicode="&#xaa;" horiz-adv-x="655" d="M283 778q46 0 91.5 16t77 38.5t57 45t37.5 38.5l13 16l21 143h-205q-226 0 -246 -153q-8 -56 36 -100t118 -44zM430 1393q110 0 163.5 -71t33.5 -206l-49 -358h-41l14 112q-5 -5 -13 -14t-36 -32t-58.5 -40.5t-76 -32t-91.5 -14.5q-90 0 -144.5 57t-43.5 128 q11 88 85.5 141t207.5 53h205q33 236 -162 236q-158 0 -211 -123h-41q27 74 91.5 119t166.5 45z" />
<glyph unicode="&#xab;" horiz-adv-x="798" d="M233 72l-170 389l281 389h41l-281 -389l170 -389h-41zM561 72l-170 389l281 389h41l-281 -389l170 -389h-41z" />
<glyph unicode="&#xac;" horiz-adv-x="839" d="M653 430l37 256h-614l4 41h655l-41 -297h-41z" />
<glyph unicode="&#xad;" horiz-adv-x="870" d="M772 625h-706l6 41h706z" />
<glyph unicode="&#xae;" horiz-adv-x="1863" d="M719 891h317q90 0 144 -58.5t43 -136.5q-6 -46 -29 -82t-51 -54t-55 -30t-46 -15l-18 -3l127 -256h-51l-119 246h-276l-35 -246h-41zM1030 850h-276l-43 -307h276q75 0 131 45t64 108q9 63 -34 108.5t-118 45.5zM1739 573q-32 -231 -172.5 -424.5t-346.5 -304 t-429 -110.5q-167 0 -310.5 65.5t-239.5 177t-140.5 267.5t-20.5 329t112.5 329.5t216 268t289 177t328.5 65.5t310.5 -65.5t240 -177t141.5 -268t21 -329.5zM1698 573q23 166 -19 314.5t-133.5 254.5t-228 168t-295.5 62t-313 -62t-275.5 -168t-205.5 -254.5t-107 -314.5 t19 -314.5t133.5 -254t228 -167.5t295.5 -62q213 0 408.5 104.5t328.5 288.5t164 405z" />
<glyph unicode="&#xaf;" horiz-adv-x="583" d="M147 1352l7 41h460l-6 -41h-461z" />
<glyph unicode="&#xb0;" horiz-adv-x="675" d="M180 1147q-12 -92 40.5 -153.5t144.5 -61.5t162.5 61.5t82.5 153.5q13 92 -39.5 153.5t-144.5 61.5t-162 -61.5t-84 -153.5zM651 1147q-15 -107 -99.5 -181.5t-191.5 -74.5t-171.5 74.5t-49.5 181.5t100.5 181.5t192.5 74.5t170.5 -74.5t48.5 -181.5z" />
<glyph unicode="&#xb1;" horiz-adv-x="921" d="M432 676l53 381h41l-53 -381h358l-6 -41h-358l-59 -420h358l-6 -41h-758l6 41h359l59 420h-358l6 41h358z" />
<glyph unicode="&#xb2;" horiz-adv-x="593" d="M557 1208q9 64 -37 109t-135 45q-80 0 -134 -37t-79 -96h-41q23 73 93.5 123.5t166.5 50.5q104 0 161 -57.5t46 -137.5q-6 -46 -34.5 -85t-69.5 -67t-89 -53.5t-96 -49.5t-88.5 -48.5t-68.5 -57t-33 -69.5h420l-7 -41h-460l6 41q7 53 44.5 97.5t88 73.5t109 59.5t109 56 t86.5 63t42 80.5z" />
<glyph unicode="&#xb3;" horiz-adv-x="593" d="M301 768q90 0 149 46.5t68 117.5q11 71 -34.5 117.5t-135.5 46.5h-102l6 41l295 215h-379l6 41h440l-6 -41l-295 -215h41q105 0 161 -59t44 -146q-11 -87 -85 -146t-179 -59q-96 0 -150 51.5t-59 132.5h41q6 -65 49.5 -104t124.5 -39z" />
<glyph unicode="&#xb4;" horiz-adv-x="450" d="M131 1229l332 174l14 -41l-330 -164z" />
<glyph unicode="&#xb5;" d="M2 -410l188 1332h41l-77 -553q-24 -174 58 -271.5t239 -97.5q69 0 136 27.5t113.5 66.5t83 78t54.5 66l18 28l92 656h41l-129 -922h-41l25 184h-10q-7 -9 -19.5 -24t-53 -54t-83.5 -68.5t-107 -54t-127 -24.5q-54 0 -100.5 12t-77.5 31t-55.5 41.5t-38 45.5t-22.5 42 t-12 31l-3 12h-10l-82 -584h-41z" />
<glyph unicode="&#xb6;" horiz-adv-x="696" d="M150 1075q19 130 128.5 224t253.5 94h216l-7 -41h-194l-248 -1762h-41l166 1168q-131 0 -212 93.5t-62 223.5z" />
<glyph unicode="&#xb7;" horiz-adv-x="327" d="M121 717q1 15 16.5 28t30.5 13t26 -13t9 -28q-3 -15 -17.5 -28t-29.5 -13t-26.5 13t-8.5 28z" />
<glyph unicode="&#xb8;" horiz-adv-x="430" d="M158 0l-70 -113q68 -8 107 -56t30 -118q-11 -71 -69.5 -122.5t-128.5 -51.5q-36 0 -67.5 15.5t-44.5 31.5l-13 15l32 28q3 -5 9.5 -13.5t32 -22t57.5 -13.5q54 0 98.5 39.5t52.5 93.5t-26 93.5t-88 39.5h-52l95 154h45z" />
<glyph unicode="&#xb9;" horiz-adv-x="327" d="M184 737l78 551l-4 -4q-3 -4 -7.5 -9t-11.5 -12t-16 -14t-20 -14.5t-24 -14t-27 -11.5t-31 -8t-35 -3l6 41q61 0 118.5 49.5t65.5 104.5h41l-92 -656h-41z" />
<glyph unicode="&#xba;" horiz-adv-x="737" d="M702 1065q-21 -143 -118 -235.5t-215 -92.5q-119 0 -190 92.5t-50 235.5q20 143 117 235.5t215 92.5q119 0 190 -92t51 -236zM662 1065q18 127 -43 207t-164 80q-102 0 -184.5 -79.5t-100.5 -207.5q-18 -127 42 -207t163 -80t186 80t101 207z" />
<glyph unicode="&#xbb;" horiz-adv-x="798" d="M657 461l-280 -389h-41l280 389l-170 389h41zM330 461l-281 -389h-41l281 389l-170 389h41z" />
<glyph unicode="&#xbc;" horiz-adv-x="1331" d="M1157 1393l-1055 -1393h-51l1055 1393h51zM266 737l78 551l-4 -4q-3 -4 -7.5 -9t-11.5 -12t-16 -14t-20 -14.5t-24 -14t-27 -11.5t-31 -8t-35 -3l6 41q61 0 118.5 49.5t65.5 104.5h41l-92 -656h-41zM1042 0h-41l25 174h-348l6 41l287 440h41l-285 -440h305l21 154h41 l-21 -154h82l-6 -41h-82z" />
<glyph unicode="&#xbd;" horiz-adv-x="1361" d="M1157 1393l-1055 -1393h-51l1055 1393h51zM266 737l78 551l-4 -4q-3 -4 -7.5 -9t-11.5 -12t-16 -14t-20 -14.5t-24 -14t-27 -11.5t-31 -8t-35 -3l6 41q61 0 118.5 49.5t65.5 104.5h41l-92 -656h-41zM1180 471q9 64 -37 109t-135 45q-80 0 -134 -37t-79 -96h-41 q23 73 93.5 123.5t166.5 50.5q104 0 161 -57.5t46 -137.5q-6 -46 -34.5 -85t-69.5 -67t-89.5 -53.5t-96.5 -49.5t-88.5 -48.5t-68.5 -57t-33 -69.5h420l-6 -41h-461l6 41q6 46 34.5 85t70 67t89.5 53.5t96.5 49.5t89 48.5t68 57t32.5 69.5z" />
<glyph unicode="&#xbe;" horiz-adv-x="1413" d="M1239 1393l-1055 -1393h-51l1055 1393h51zM1124 0h-41l25 174h-348l6 41l287 440h41l-285 -440h305l21 154h41l-21 -154h82l-6 -41h-82zM322 768q90 0 149 46.5t68 117.5q11 71 -34.5 117.5t-135.5 46.5h-103l6 41l295 215h-379l7 41h440l-6 -41l-295 -215h41 q105 0 161 -59t44 -146q-11 -86 -85.5 -145.5t-179.5 -59.5q-96 0 -150 51.5t-59 132.5h41q6 -65 50 -104t125 -39z" />
<glyph unicode="&#xbf;" horiz-adv-x="1054" d="M371 -420q333 0 481 297h41q-71 -152 -204.5 -245t-323.5 -93q-187 0 -293.5 109t-85.5 260q12 81 44.5 136t76 84.5t95 52t102.5 47.5t95.5 60.5t79 102.5t47.5 162h41q-12 -88 -40.5 -153.5t-65 -101.5t-81 -65t-89 -45t-88 -39t-79 -49.5t-62 -75t-35.5 -116.5 q-19 -135 76.5 -231.5t267.5 -96.5zM637 891q-3 -15 -17.5 -28t-29.5 -13t-26.5 13t-8.5 28q2 15 16 28t29 13t26.5 -13t10.5 -28z" />
<glyph unicode="&#xc0;" horiz-adv-x="1392" d="M1055 1393l143 -1393h-41l-41 399h-934l-151 -399h-41l532 1393h533zM547 1352l-348 -912h913l-94 912h-471zM696 1835l283 -174l-25 -31l-284 164z" />
<glyph unicode="&#xc1;" horiz-adv-x="1392" d="M1055 1393l143 -1393h-41l-41 399h-934l-151 -399h-41l532 1393h533zM547 1352l-348 -912h913l-94 912h-471zM702 1661l332 174l15 -41l-330 -164z" />
<glyph unicode="&#xc2;" horiz-adv-x="1392" d="M1055 1393l143 -1393h-41l-41 399h-934l-151 -399h-41l532 1393h533zM547 1352l-348 -912h913l-94 912h-471zM831 1853h41l187 -276h-51l-162 235l-228 -235h-51z" />
<glyph unicode="&#xc3;" horiz-adv-x="1392" d="M1055 1393l143 -1393h-41l-41 399h-934l-151 -399h-41l532 1393h533zM547 1352l-348 -912h913l-94 912h-471zM729 1782q-81 0 -98 -113l-6 -41h-41l6 41q10 74 49.5 114t95.5 40q34 0 59 -17t39.5 -41t28 -48t32.5 -41t44 -17q82 0 96 113l6 40h41l-6 -40 q-10 -75 -48.5 -114.5t-94.5 -39.5q-34 0 -59 17t-39.5 41t-28 48t-32.5 41t-44 17z" />
<glyph unicode="&#xc4;" horiz-adv-x="1392" d="M1055 1393l143 -1393h-41l-41 399h-934l-151 -399h-41l532 1393h533zM547 1352l-348 -912h913l-94 912h-471zM625 1700q3 15 17.5 28t29.5 13t26.5 -13t8.5 -28q-1 -15 -17 -28t-31 -13t-25.5 13t-8.5 28zM932 1700q3 15 17.5 28t29.5 13t26.5 -13t8.5 -28 q-1 -15 -16.5 -28t-30.5 -13t-26 13t-9 28z" />
<glyph unicode="&#xc5;" horiz-adv-x="1392" d="M1055 1393l143 -1393h-41l-41 399h-934l-151 -399h-41l532 1393h533zM547 1352l-348 -912h913l-94 912h-471zM653 1761q10 76 72 130.5t139 54.5q76 0 122.5 -54t35.5 -131t-72 -130.5t-137 -53.5q-77 0 -123.5 54t-36.5 130zM694 1761q-8 -62 28 -102.5t97 -40.5 q62 0 108.5 41t53.5 102q9 61 -26 102.5t-97 41.5q-61 0 -108 -41t-56 -103z" />
<glyph unicode="&#xc6;" horiz-adv-x="1986" d="M946 41h860l-4 -41h-901l55 399h-774l-151 -399h-41l532 1393h1475l-6 -41h-861l-88 -625h676l-4 -41h-676zM547 1352l-348 -912h764l127 912h-543z" />
<glyph unicode="&#xc7;" horiz-adv-x="1556" d="M1415 379q-40 -86 -102.5 -161t-147 -137.5t-197 -100t-237.5 -41.5l-55 -93q68 -8 107 -56t30 -118t-68.5 -122t-130.5 -52q-36 0 -67.5 15.5t-44.5 30.5l-13 16l33 28q3 -5 9.5 -13.5t32 -22t57.5 -13.5q54 0 98.5 39.5t52.5 93.5q7 54 -27 93.5t-88 39.5h-51l80 136 q-129 4 -245 67t-196.5 163.5t-119.5 239t-19 285.5q17 120 72 235.5t136.5 208.5t180 164.5t209 110.5t216.5 39q122 0 222.5 -34.5t166 -92.5t105.5 -127t54 -145h-41q-15 68 -52.5 129.5t-98.5 114t-155 83.5t-208 31q-167 0 -334 -97t-286 -264t-146 -356 q-19 -142 19 -275.5t117 -229t192 -153.5t238 -58q123 0 229 31.5t186.5 88t141 126t104.5 153.5h41z" />
<glyph unicode="&#xc8;" horiz-adv-x="1239" d="M158 41h901l-4 -41h-942l194 1393h942l-6 -41h-901l-88 -625h717l-4 -41h-717zM666 1833l282 -174l-24 -31l-285 164z" />
<glyph unicode="&#xc9;" horiz-adv-x="1239" d="M158 41h901l-4 -41h-942l194 1393h942l-6 -41h-901l-88 -625h717l-4 -41h-717zM682 1659l332 174l14 -41l-330 -164z" />
<glyph unicode="&#xca;" horiz-adv-x="1239" d="M158 41h901l-4 -41h-942l194 1393h942l-6 -41h-901l-88 -625h717l-4 -41h-717zM823 1864h41l187 -277h-52l-161 236l-228 -236h-51z" />
<glyph unicode="&#xcb;" horiz-adv-x="1239" d="M158 41h901l-4 -41h-942l194 1393h942l-6 -41h-901l-88 -625h717l-4 -41h-717zM627 1710q3 15 17.5 28t29.5 13t26.5 -13t8.5 -28q-1 -15 -16.5 -28t-30.5 -13t-26 13t-9 28zM934 1710q3 15 17.5 28t29.5 13t26.5 -13t8.5 -28q-1 -15 -16.5 -28t-30.5 -13t-26 13t-9 28z " />
<glyph unicode="&#xcc;" horiz-adv-x="430" d="M328 1393l-195 -1393h-41l195 1393h41zM143 1812l283 -174l-25 -30l-284 164z" />
<glyph unicode="&#xcd;" horiz-adv-x="430" d="M338 1393l-195 -1393h-41l195 1393h41zM262 1659l332 174l14 -41l-329 -164z" />
<glyph unicode="&#xce;" horiz-adv-x="471" d="M348 1393l-194 -1393h-41l194 1393h41zM377 1884h41l186 -276h-51l-162 235l-227 -235h-51z" />
<glyph unicode="&#xcf;" horiz-adv-x="430" d="M328 1393l-195 -1393h-41l195 1393h41zM154 1688q3 15 17.5 28t29.5 13t26.5 -13t8.5 -28q-1 -15 -17 -28t-31 -13t-25.5 13t-8.5 28zM461 1688q3 15 17.5 28t29.5 13t26.5 -13t8.5 -28q-1 -15 -16.5 -28t-30.5 -13t-26 13t-9 28z" />
<glyph unicode="&#xd0;" horiz-adv-x="1474" d="M1356 696q-43 -309 -267.5 -502.5t-545.5 -193.5h-389l96 686h-174l4 41h174l94 666h389q212 0 363 -88.5t217.5 -247t38.5 -361.5zM1315 696q41 293 -118.5 474.5t-465.5 181.5h-348l-88 -625h379l-4 -41h-379l-92 -645h348q306 0 517 181t251 474z" />
<glyph unicode="&#xd1;" horiz-adv-x="1474" d="M358 1393l766 -1332l187 1332h41l-195 -1393h-51l-766 1331l-186 -1331h-41l194 1393h51zM795 1812q-83 0 -99 -112l-6 -41h-41l6 41q10 74 50 113.5t96 39.5q34 0 59 -17t39.5 -40.5t28 -47.5t32.5 -41t44 -17q82 0 96 112l6 41h41l-6 -41q-10 -74 -49 -113.5t-95 -39.5 q-41 0 -70 25.5t-42.5 56t-36.5 56t-53 25.5z" />
<glyph unicode="&#xd2;" horiz-adv-x="1679" d="M106 696q29 205 154 380.5t306.5 276.5t373.5 101q144 0 269 -60t210 -161t124.5 -242t17.5 -295q-29 -205 -154 -380.5t-306.5 -276t-373.5 -100.5q-144 0 -269 60t-210 160.5t-124.5 241.5t-17.5 295zM147 696q-27 -195 44 -360.5t215.5 -260.5t326.5 -95t353.5 95 t289 260.5t144.5 360.5q21 146 -16 279.5t-117 229t-198.5 152t-254.5 56.5q-182 0 -353 -95t-288.5 -261t-145.5 -361zM846 1874l282 -174l-24 -31l-285 164z" />
<glyph unicode="&#xd3;" horiz-adv-x="1679" d="M106 696q29 205 154 380.5t306.5 276.5t373.5 101q144 0 269 -60t210 -161t124.5 -242t17.5 -295q-29 -205 -154 -380.5t-306.5 -276t-373.5 -100.5q-144 0 -269 60t-210 160.5t-124.5 241.5t-17.5 295zM147 696q-27 -195 44 -360.5t215.5 -260.5t326.5 -95t353.5 95 t289 260.5t144.5 360.5q21 146 -16 279.5t-117 229t-198.5 152t-254.5 56.5q-182 0 -353 -95t-288.5 -261t-145.5 -361zM854 1720l332 174l14 -41l-330 -163z" />
<glyph unicode="&#xd4;" horiz-adv-x="1679" d="M106 696q29 205 154 380.5t306.5 276.5t373.5 101q144 0 269 -60t210 -161t124.5 -242t17.5 -295q-29 -205 -154 -380.5t-306.5 -276t-373.5 -100.5q-144 0 -269 60t-210 160.5t-124.5 241.5t-17.5 295zM147 696q-27 -195 44 -360.5t215.5 -260.5t326.5 -95t353.5 95 t289 260.5t144.5 360.5q21 146 -16 279.5t-117 229t-198.5 152t-254.5 56.5q-182 0 -353 -95t-288.5 -261t-145.5 -361zM983 1905h41l186 -277h-51l-162 236l-227 -236h-51z" />
<glyph unicode="&#xd5;" horiz-adv-x="1679" d="M106 696q29 205 154 380.5t306.5 276.5t373.5 101q144 0 269 -60t210 -161t124.5 -242t17.5 -295q-29 -205 -154 -380.5t-306.5 -276t-373.5 -100.5q-144 0 -269 60t-210 160.5t-124.5 241.5t-17.5 295zM147 696q-27 -195 44 -360.5t215.5 -260.5t326.5 -95t353.5 95 t289 260.5t144.5 360.5q21 146 -16 279.5t-117 229t-198.5 152t-254.5 56.5q-182 0 -353 -95t-288.5 -261t-145.5 -361zM877 1812q-83 0 -99 -112l-6 -41h-41l6 41q10 74 50 113.5t96 39.5q41 0 70 -25.5t42.5 -56t36.5 -56t53 -25.5q83 0 97 112l6 41h41l-6 -41 q-10 -74 -49 -113.5t-95 -39.5q-41 0 -70 25.5t-42.5 56t-36.5 56t-53 25.5z" />
<glyph unicode="&#xd6;" horiz-adv-x="1679" d="M106 696q29 205 154 380.5t306.5 276.5t373.5 101q144 0 269 -60t210 -161t124.5 -242t17.5 -295q-29 -205 -154 -380.5t-306.5 -276t-373.5 -100.5q-144 0 -269 60t-210 160.5t-124.5 241.5t-17.5 295zM147 696q-27 -195 44 -360.5t215.5 -260.5t326.5 -95t353.5 95 t289 260.5t144.5 360.5q21 146 -16 279.5t-117 229t-198.5 152t-254.5 56.5q-182 0 -353 -95t-288.5 -261t-145.5 -361zM786 1751q3 15 18 28t30 13t26 -13t8 -28q-1 -15 -16.5 -28t-30.5 -13t-26 13t-9 28zM1094 1751q3 15 17.5 28t29.5 13t26.5 -13t8.5 -28 q-1 -15 -17 -28t-31 -13t-25.5 13t-8.5 28z" />
<glyph unicode="&#xd7;" horiz-adv-x="757" d="M678 891l-281 -246l211 -246l-35 -30l-211 245l-280 -245l-27 30l281 246l-211 246l35 31l211 -246l280 246z" />
<glyph unicode="&#xd8;" horiz-adv-x="1720" d="M127 696q29 205 154 380.5t306.5 276.5t373.5 101q96 0 181 -24.5t143.5 -63t107 -85.5t78 -94t49.5 -85.5t28 -63.5l8 -24l216 92l-7 -45l-196 -84q2 -5 4 -13.5t7 -38t7.5 -60t1.5 -77t-8 -92.5q-22 -154 -101 -295t-191.5 -241.5t-254.5 -160.5t-286 -60 q-76 0 -144.5 15t-121 40.5t-98.5 58t-79 69t-60.5 73t-44.5 69t-28.5 58t-16.5 40.5l-5 15l-213 -90l6 45l198 84q-2 5 -4 13.5t-7 37.5t-8 59.5t-2 77t7 92.5zM1540 696q8 73 5.5 132t-9.5 96l-8 37l-1340 -568q2 -9 7.5 -23.5t26 -57.5t47 -82t73.5 -86.5t102.5 -82 t136.5 -58t173 -23.5q182 0 353.5 95t288.5 260.5t144 360.5zM168 696q-8 -78 -5.5 -137t9.5 -93l8 -34l1338 565q-2 9 -7 24t-26 58t-47 82.5t-73 87.5t-102 82.5t-136 58t-173 23.5q-136 0 -270 -56.5t-240 -152t-180.5 -228.5t-95.5 -280z" />
<glyph unicode="&#xd9;" horiz-adv-x="1474" d="M631 -20q218 0 369 139.5t186 382.5l125 891h41l-125 -891q-36 -258 -202.5 -410.5t-399.5 -152.5t-356 152.5t-87 410.5l125 891h41l-125 -891q-35 -243 77.5 -382.5t330.5 -139.5zM719 1843l282 -174l-24 -31l-285 164z" />
<glyph unicode="&#xda;" horiz-adv-x="1474" d="M631 -20q218 0 369 139.5t186 382.5l125 891h41l-125 -891q-36 -258 -202.5 -410.5t-399.5 -152.5t-356 152.5t-87 410.5l125 891h41l-125 -891q-35 -243 77.5 -382.5t330.5 -139.5zM745 1669l332 174l15 -41l-330 -164z" />
<glyph unicode="&#xdb;" horiz-adv-x="1474" d="M631 -20q218 0 369 139.5t186 382.5l125 891h41l-125 -891q-36 -258 -202.5 -410.5t-399.5 -152.5t-356 152.5t-87 410.5l125 891h41l-125 -891q-35 -243 77.5 -382.5t330.5 -139.5zM887 1874h41l186 -277h-51l-162 236l-227 -236h-51z" />
<glyph unicode="&#xdc;" horiz-adv-x="1474" d="M631 -20q218 0 369 139.5t186 382.5l125 891h41l-125 -891q-36 -258 -202.5 -410.5t-399.5 -152.5t-356 152.5t-87 410.5l125 891h41l-125 -891q-35 -243 77.5 -382.5t330.5 -139.5zM664 1679q3 15 17.5 28t29.5 13t26 -13t8 -28q-1 -15 -16.5 -28t-30.5 -13t-25.5 13 t-8.5 28zM971 1679q3 15 17.5 28t29.5 13t26.5 -13t8.5 -28q-1 -15 -16.5 -28t-30.5 -13t-26 13t-9 28z" />
<glyph unicode="&#xdd;" horiz-adv-x="1290" d="M1331 1393l-702 -922l-66 -471h-41l66 471l-445 922h52l419 -881l666 881h51zM680 1649l332 174l14 -41l-330 -164z" />
<glyph unicode="&#xde;" horiz-adv-x="1290" d="M336 1300h266q195 0 334.5 -77.5t200.5 -209.5t39 -296q-18 -122 -80 -229.5t-156.5 -186t-224.5 -123.5t-277 -45h-266l-25 -174h-41l213 1516h41zM596 1260h-266l-154 -1086h266q279 0 469.5 154t223.5 389q22 154 -35 276.5t-188 194.5t-316 72z" />
<glyph unicode="&#xdf;" horiz-adv-x="1105" d="M909 1085q19 131 -59 219.5t-215 88.5t-239.5 -88.5t-121.5 -219.5l-151 -1085h-41l151 1085q20 147 137.5 248t270.5 101t241 -101t68 -248q-10 -74 -42 -135t-69.5 -94.5t-74 -56t-60.5 -29.5l-24 -8l-2 -8q7 -1 18.5 -3.5t44 -13.5t61 -27t62 -46t56 -67t33 -94 t1.5 -124q-24 -156 -154.5 -267.5t-297.5 -111.5h-123l4 41h123q152 0 269 99t138 239q20 147 -69 247.5t-242 100.5h-102l6 41h41q130 0 236.5 93t125.5 224z" />
<glyph unicode="&#xe0;" d="M819 0l25 184h-10q-7 -9 -19.5 -24t-53 -54t-83.5 -68.5t-107 -54t-127 -24.5q-84 0 -158.5 38.5t-126.5 104.5t-76 160t-9 199q20 139 100 256t190 181.5t222 64.5q63 0 119.5 -23.5t92.5 -56.5t63 -66t39 -57l11 -23h11l26 185h41l-129 -922h-41zM856 266l53 389 q-3 11 -10.5 29t-35 64t-61.5 81t-93.5 64t-128.5 29q-158 0 -298 -133.5t-167 -327.5t75.5 -327.5t260.5 -133.5q69 0 136 27.5t113.5 66.5t83 78t54.5 66zM512 1395l283 -174l-25 -31l-285 164z" />
<glyph unicode="&#xe1;" d="M819 0l25 184h-10q-7 -9 -19.5 -24t-53 -54t-83.5 -68.5t-107 -54t-127 -24.5q-84 0 -158.5 38.5t-126.5 104.5t-76 160t-9 199q20 139 100 256t190 181.5t222 64.5q63 0 119.5 -23.5t92.5 -56.5t63 -66t39 -57l11 -23h11l26 185h41l-129 -922h-41zM856 266l53 389 q-3 11 -10.5 29t-35 64t-61.5 81t-93.5 64t-128.5 29q-158 0 -298 -133.5t-167 -327.5t75.5 -327.5t260.5 -133.5q69 0 136 27.5t113.5 66.5t83 78t54.5 66zM510 1239l332 174l14 -41l-330 -164z" />
<glyph unicode="&#xe2;" d="M819 0l25 184h-10q-7 -9 -19.5 -24t-53 -54t-83.5 -68.5t-107 -54t-127 -24.5q-84 0 -158.5 38.5t-126.5 104.5t-76 160t-9 199q20 139 100 256t190 181.5t222 64.5q63 0 119.5 -23.5t92.5 -56.5t63 -66t39 -57l11 -23h11l26 185h41l-129 -922h-41zM856 266l53 389 q-3 11 -10.5 29t-35 64t-61.5 81t-93.5 64t-128.5 29q-158 0 -298 -133.5t-167 -327.5t75.5 -327.5t260.5 -133.5q69 0 136 27.5t113.5 66.5t83 78t54.5 66zM631 1444h41l186 -277h-51l-162 236l-227 -236h-51z" />
<glyph unicode="&#xe3;" d="M819 0l25 184h-10q-7 -9 -19.5 -24t-53 -54t-83.5 -68.5t-107 -54t-127 -24.5q-84 0 -158.5 38.5t-126.5 104.5t-76 160t-9 199q20 139 100 256t190 181.5t222 64.5q63 0 119.5 -23.5t92.5 -56.5t63 -66t39 -57l11 -23h11l26 185h41l-129 -922h-41zM856 266l53 389 q-3 11 -10.5 29t-35 64t-61.5 81t-93.5 64t-128.5 29q-158 0 -298 -133.5t-167 -327.5t75.5 -327.5t260.5 -133.5q69 0 136 27.5t113.5 66.5t83 78t54.5 66zM537 1352q-82 0 -99 -113l-6 -41h-41l6 41q10 74 50 114t96 40q34 0 59 -17t39.5 -41t27.5 -48t32 -41t44 -17 q83 0 97 112l6 41h41l-6 -41q-10 -74 -49 -113.5t-95 -39.5q-34 0 -59 17t-39.5 41t-27.5 48t-32 41t-44 17z" />
<glyph unicode="&#xe4;" d="M819 0l25 184h-10q-7 -9 -19.5 -24t-53 -54t-83.5 -68.5t-107 -54t-127 -24.5q-84 0 -158.5 38.5t-126.5 104.5t-76 160t-9 199q20 139 100 256t190 181.5t222 64.5q63 0 119.5 -23.5t92.5 -56.5t63 -66t39 -57l11 -23h11l26 185h41l-129 -922h-41zM856 266l53 389 q-3 11 -10.5 29t-35 64t-61.5 81t-93.5 64t-128.5 29q-158 0 -298 -133.5t-167 -327.5t75.5 -327.5t260.5 -133.5q69 0 136 27.5t113.5 66.5t83 78t54.5 66zM430 1260q3 15 17.5 27.5t29.5 12.5t26.5 -12.5t8.5 -27.5q-1 -15 -16.5 -28t-30.5 -13t-26 13t-9 28zM737 1260 q3 15 17.5 27.5t29.5 12.5t26.5 -12.5t8.5 -27.5q-1 -15 -16.5 -28t-30.5 -13t-26 13t-9 28z" />
<glyph unicode="&#xe5;" d="M819 0l25 184h-10q-7 -9 -19.5 -24t-53 -54t-83.5 -68.5t-107 -54t-127 -24.5q-84 0 -158.5 38.5t-126.5 104.5t-76 160t-9 199q20 139 100 256t190 181.5t222 64.5q63 0 119.5 -23.5t92.5 -56.5t63 -66t39 -57l11 -23h11l26 185h41l-129 -922h-41zM856 266l53 389 q-3 11 -10.5 29t-35 64t-61.5 81t-93.5 64t-128.5 29q-158 0 -298 -133.5t-167 -327.5t75.5 -327.5t260.5 -133.5q69 0 136 27.5t113.5 66.5t83 78t54.5 66zM453 1341q10 76 72 130.5t139 54.5q76 0 122 -54t35 -131t-72 -130.5t-137 -53.5q-77 0 -123 54t-36 130zM494 1341 q-8 -62 27.5 -102.5t96.5 -40.5q62 0 108.5 41t53.5 102q9 61 -26 102.5t-97 41.5q-61 0 -107.5 -41t-55.5 -103z" />
<glyph unicode="&#xe6;" horiz-adv-x="1781" d="M774 276q-3 -7 -8.5 -18t-25.5 -44t-43.5 -63t-63.5 -66.5t-84.5 -63t-107 -44.5t-130.5 -18q-162 0 -244.5 76.5t-66.5 189.5q16 112 120 189.5t265 77.5h399q30 209 -40.5 319.5t-225.5 110.5q-65 0 -121.5 -18t-91.5 -43.5t-61 -51t-36 -43.5l-11 -18h-41 q4 9 12.5 23.5t40.5 51.5t70.5 65.5t104.5 51.5t140 23q65 0 117 -16.5t83.5 -42.5t54.5 -58t33 -63.5t15.5 -57.5t6.5 -43v-16h10l8.5 17t26 41.5t44 58.5t62 62.5t80.5 59t99 41.5t118 17q84 0 157 -37t123.5 -100t73.5 -153.5t9 -191.5l-37 -30h-789q-16 -121 24.5 -225 t124 -165t189.5 -61q143 0 249.5 76t154.5 180h41q-51 -119 -172.5 -208t-278.5 -89q-63 0 -117 17.5t-90.5 45.5t-66 62t-46 67.5t-28 61.5t-15.5 45l-4 18h-10zM1276 922q-157 0 -291 -124.5t-160 -305.5h779q13 90 -7.5 170.5t-66 137t-112 89.5t-142.5 33zM317 0 q172 0 302 124t159 327h-399q-147 0 -236 -64.5t-102 -161.5q-13 -98 58 -161.5t218 -63.5z" />
<glyph unicode="&#xe7;" horiz-adv-x="1075" d="M915 256q-46 -113 -165.5 -200.5t-270.5 -94.5l-57 -94q70 -8 108.5 -56t28.5 -118q-9 -70 -68.5 -122t-130.5 -52q-36 0 -66.5 15.5t-43.5 30.5l-12 15l32 29q3 -5 9 -13.5t31 -22t57 -13.5q54 0 98.5 39.5t52.5 93.5t-25 93.5t-87 39.5h-52l80 133q-112 6 -201 72 t-133.5 180t-25.5 250q20 140 100 256.5t192.5 181t229.5 64.5q158 0 245.5 -73t106.5 -183h-41q-21 95 -97.5 155t-219.5 60q-107 0 -209.5 -59t-175 -166t-90.5 -236q-27 -195 77 -328t269 -133q143 0 254 76.5t159 179.5h41z" />
<glyph unicode="&#xe8;" horiz-adv-x="1095" d="M586 963q83 0 158 -38.5t126.5 -103.5t75.5 -157t10 -193l-34 -31h-809q-13 -90 9.5 -172t70.5 -140.5t118 -93t150 -34.5q143 0 254 76.5t159 179.5h41q-50 -118 -176 -207.5t-284 -89.5q-117 0 -211.5 64.5t-142 181.5t-27.5 256q20 140 100 257t190 181t222 64z M580 922q-102 0 -202 -58t-171.5 -161t-87.5 -222h799q12 90 -10.5 172.5t-69 141t-114.5 93t-144 34.5zM514 1403l283 -174l-25 -31l-285 164z" />
<glyph unicode="&#xe9;" horiz-adv-x="1095" d="M586 963q83 0 158 -38.5t126.5 -103.5t75.5 -157t10 -193l-34 -31h-809q-13 -90 9.5 -172t70.5 -140.5t118 -93t150 -34.5q143 0 254 76.5t159 179.5h41q-50 -118 -176 -207.5t-284 -89.5q-117 0 -211.5 64.5t-142 181.5t-27.5 256q20 140 100 257t190 181t222 64z M580 922q-102 0 -202 -58t-171.5 -161t-87.5 -222h799q12 90 -10.5 172.5t-69 141t-114.5 93t-144 34.5zM498 1219l331 174l15 -41l-330 -164z" />
<glyph unicode="&#xea;" horiz-adv-x="1095" d="M586 963q83 0 158 -38.5t126.5 -103.5t75.5 -157t10 -193l-34 -31h-809q-13 -90 9.5 -172t70.5 -140.5t118 -93t150 -34.5q143 0 254 76.5t159 179.5h41q-50 -118 -176 -207.5t-284 -89.5q-117 0 -211.5 64.5t-142 181.5t-27.5 256q20 140 100 257t190 181t222 64z M580 922q-102 0 -202 -58t-171.5 -161t-87.5 -222h799q12 90 -10.5 172.5t-69 141t-114.5 93t-144 34.5zM629 1423h41l186 -276h-51l-162 235l-227 -235h-51z" />
<glyph unicode="&#xeb;" horiz-adv-x="1095" d="M586 963q83 0 158 -38.5t126.5 -103.5t75.5 -157t10 -193l-34 -31h-809q-13 -90 9.5 -172t70.5 -140.5t118 -93t150 -34.5q143 0 254 76.5t159 179.5h41q-50 -118 -176 -207.5t-284 -89.5q-117 0 -211.5 64.5t-142 181.5t-27.5 256q20 140 100 257t190 181t222 64z M580 922q-102 0 -202 -58t-171.5 -161t-87.5 -222h799q12 90 -10.5 172.5t-69 141t-114.5 93t-144 34.5zM430 1260q3 15 17.5 27.5t29.5 12.5t26.5 -12.5t8.5 -27.5q-1 -15 -16.5 -28t-30.5 -13t-26 13t-9 28zM737 1260q3 15 17.5 27.5t29.5 12.5t26.5 -12.5t8.5 -27.5 q-1 -15 -16.5 -28t-30.5 -13t-26 13t-9 28z" />
<glyph unicode="&#xec;" horiz-adv-x="430" d="M74 1403l282 -174l-24 -31l-285 164zM92 0l129 922h41l-129 -922h-41z" />
<glyph unicode="&#xed;" horiz-adv-x="430" d="M188 1208l332 174l15 -41l-330 -163zM92 0l129 922h41l-129 -922h-41z" />
<glyph unicode="&#xee;" horiz-adv-x="430" d="M92 0l129 922h41l-129 -922h-41zM291 1413h41l186 -276h-51l-162 235l-227 -235h-51z" />
<glyph unicode="&#xef;" horiz-adv-x="389" d="M72 1239q3 15 17.5 28t29.5 13t26.5 -13t8.5 -28q-1 -15 -17 -28t-31 -13t-25.5 13t-8.5 28zM379 1239q3 15 17.5 28t29.5 13t26.5 -13t8.5 -28q-1 -15 -16.5 -28t-30.5 -13t-26 13t-9 28zM72 0l129 922h41l-129 -922h-41z" />
<glyph unicode="&#xf0;" d="M682 1147l-16 31l157 108q-38 55 -137 178l35 31q98 -121 141 -182l156 110l16 -30l-153 -109q67 -106 94.5 -218t7.5 -255l-55 -391q-29 -206 -170 -333.5t-334 -127.5q-194 0 -300 128t-77 333q29 206 171 333.5t335 127.5q66 0 121 -14t90.5 -36.5t63 -50t41.5 -55 t22.5 -50t10.5 -36.5l3 -14h10l27 186q19 132 -8 238t-92 208zM430 0q178 0 304.5 114.5t152.5 305.5q28 190 -67 305t-273 115t-304.5 -114.5t-154.5 -305.5q-26 -191 69 -305.5t273 -114.5z" />
<glyph unicode="&#xf1;" horiz-adv-x="1116" d="M936 553l-76 -553h-41l76 553q25 167 -57.5 268t-237.5 101q-50 0 -99.5 -14.5t-89 -38.5t-75 -52.5t-61 -56.5t-44.5 -52t-29 -38l-9 -15l-91 -655h-41l129 922h41l-26 -185h10q7 9 19.5 24.5t53 54.5t83.5 68.5t107.5 54t127.5 24.5q170 0 263 -113.5t67 -296.5z M518 1372q-82 0 -98 -112l-6 -41h-41l6 41q10 74 49.5 113.5t95.5 39.5q34 0 59 -17t39.5 -41t28 -48t32.5 -41t44 -17q82 0 96 113l6 41h41l-6 -41q-10 -75 -48.5 -114.5t-94.5 -39.5q-34 0 -59 17t-39.5 41t-28 48t-32.5 41t-44 17z" />
<glyph unicode="&#xf2;" horiz-adv-x="1167" d="M1016 461q-20 -140 -100.5 -256t-197 -181t-243.5 -65q-194 0 -312.5 144.5t-88.5 357.5q20 140 100.5 256t197.5 181t244 65q194 0 312 -144.5t88 -357.5zM975 461q27 197 -79.5 329t-285.5 132q-117 0 -224 -59t-180 -165.5t-91 -236.5q-27 -197 80 -329t286 -132 q117 0 223.5 59t179.5 165.5t91 236.5zM520 1382l283 -174l-25 -30l-284 163z" />
<glyph unicode="&#xf3;" horiz-adv-x="1167" d="M1016 461q-20 -140 -100.5 -256t-197 -181t-243.5 -65q-194 0 -312.5 144.5t-88.5 357.5q20 140 100.5 256t197.5 181t244 65q194 0 312 -144.5t88 -357.5zM975 461q27 197 -79.5 329t-285.5 132q-117 0 -224 -59t-180 -165.5t-91 -236.5q-27 -197 80 -329t286 -132 q117 0 223.5 59t179.5 165.5t91 236.5zM520 1229l332 174l14 -41l-329 -164z" />
<glyph unicode="&#xf4;" horiz-adv-x="1167" d="M1016 461q-20 -140 -100.5 -256t-197 -181t-243.5 -65q-194 0 -312.5 144.5t-88.5 357.5q20 140 100.5 256t197.5 181t244 65q194 0 312 -144.5t88 -357.5zM975 461q27 197 -79.5 329t-285.5 132q-117 0 -224 -59t-180 -165.5t-91 -236.5q-27 -197 80 -329t286 -132 q117 0 223.5 59t179.5 165.5t91 236.5zM672 1444h41l186 -277h-51l-162 236l-227 -236h-51z" />
<glyph unicode="&#xf5;" horiz-adv-x="1167" d="M1016 461q-20 -140 -100.5 -256t-197 -181t-243.5 -65q-194 0 -312.5 144.5t-88.5 357.5q20 140 100.5 256t197.5 181t244 65q194 0 312 -144.5t88 -357.5zM975 461q27 197 -79.5 329t-285.5 132q-117 0 -224 -59t-180 -165.5t-91 -236.5q-27 -197 80 -329t286 -132 q117 0 223.5 59t179.5 165.5t91 236.5zM553 1331q-82 0 -98 -112l-6 -41h-41l6 41q10 74 49.5 113.5t95.5 39.5q34 0 59 -17t39.5 -41t28 -48t32.5 -41t44 -17q82 0 96 113l6 41h41l-6 -41q-10 -75 -48.5 -114.5t-94.5 -39.5q-34 0 -59 17t-39.5 41t-28 48t-32.5 41t-44 17z " />
<glyph unicode="&#xf6;" horiz-adv-x="1167" d="M1016 461q-20 -140 -100.5 -256t-197 -181t-243.5 -65q-194 0 -312.5 144.5t-88.5 357.5q20 140 100.5 256t197.5 181t244 65q194 0 312 -144.5t88 -357.5zM975 461q27 197 -79.5 329t-285.5 132q-117 0 -224 -59t-180 -165.5t-91 -236.5q-27 -197 80 -329t286 -132 q117 0 223.5 59t179.5 165.5t91 236.5zM455 1280q3 15 17.5 28t29.5 13t26.5 -13t8.5 -28q-1 -15 -17 -28t-31 -13t-25.5 13t-8.5 28zM762 1280q3 15 17.5 28t29.5 13t26.5 -13t8.5 -28q-1 -15 -16.5 -28t-30.5 -13t-26 13t-9 28z" />
<glyph unicode="&#xf7;" horiz-adv-x="860" d="M762 625h-696l6 41h696zM428 1014q1 15 16.5 28t30.5 13t26 -13t9 -28q-1 -15 -16.5 -28t-30.5 -13t-26 13t-9 28zM406 276q-1 -15 -16 -27.5t-30 -12.5t-26.5 12.5t-9.5 27.5q3 15 17.5 28t29.5 13t26.5 -13t8.5 -28z" />
<glyph unicode="&#xf8;" horiz-adv-x="1177" d="M1016 461q-20 -140 -100.5 -256t-197 -181t-243.5 -65q-65 0 -121.5 16t-94.5 41.5t-69.5 57t-50 62.5t-31.5 56.5t-18 41.5l-4 16l-164 -66l6 45l148 60q-2 9 -3.5 24t-3.5 62.5t5 85.5q20 140 100.5 256t197.5 181t244 65q65 0 121 -16.5t94.5 -42.5t70 -57t50 -62.5 t31 -57.5t17.5 -43l4 -16l174 69l-7 -45l-157 -63q2 -9 3.5 -23.5t3.5 -60t-5 -84.5zM115 461q-4 -36 -4 -75t2 -60l2 -21l850 346q-1 6 -4 15.5t-14.5 37.5t-27.5 54t-45 57t-64 53.5t-87 38t-113 15.5q-117 0 -224 -59t-180 -165.5t-91 -236.5zM975 461q5 36 5 74t-2 57 l-3 20l-850 -346q1 -6 4 -15.5t15 -37t27.5 -52.5t44.5 -56t64 -53t87.5 -37t113.5 -15q117 0 223.5 59t179.5 165.5t91 236.5z" />
<glyph unicode="&#xf9;" d="M113 369l77 553h41l-77 -553q-25 -167 58.5 -268t238.5 -101q69 0 136 27.5t113.5 66.5t83 78t54.5 66l18 28l92 656h41l-129 -922h-41l25 184h-10q-7 -9 -19.5 -24t-53 -54t-83.5 -68.5t-107 -54t-127 -24.5q-170 0 -263.5 113.5t-67.5 296.5zM498 1372l282 -174 l-24 -31l-285 164z" />
<glyph unicode="&#xfa;" d="M113 369l77 553h41l-77 -553q-25 -167 58.5 -268t238.5 -101q69 0 136 27.5t113.5 66.5t83 78t54.5 66l18 28l92 656h41l-129 -922h-41l25 184h-10q-7 -9 -19.5 -24t-53 -54t-83.5 -68.5t-107 -54t-127 -24.5q-170 0 -263.5 113.5t-67.5 296.5zM512 1178l332 174l14 -41 l-330 -164z" />
<glyph unicode="&#xfb;" d="M113 369l77 553h41l-77 -553q-25 -167 58.5 -268t238.5 -101q69 0 136 27.5t113.5 66.5t83 78t54.5 66l18 28l92 656h41l-129 -922h-41l25 184h-10q-7 -9 -19.5 -24t-53 -54t-83.5 -68.5t-107 -54t-127 -24.5q-170 0 -263.5 113.5t-67.5 296.5zM639 1423h41l186 -276h-51 l-162 235l-227 -235h-51z" />
<glyph unicode="&#xfc;" d="M113 369l77 553h41l-77 -553q-25 -167 58.5 -268t238.5 -101q69 0 136 27.5t113.5 66.5t83 78t54.5 66l18 28l92 656h41l-129 -922h-41l25 184h-10q-7 -9 -19.5 -24t-53 -54t-83.5 -68.5t-107 -54t-127 -24.5q-170 0 -263.5 113.5t-67.5 296.5zM428 1239q3 15 17.5 28 t29.5 13t26.5 -13t8.5 -28q-1 -15 -16.5 -28t-30.5 -13t-26 13t-9 28zM735 1239q3 15 17.5 28t29.5 13t26.5 -13t8.5 -28q-1 -15 -16.5 -28t-30.5 -13t-26 13t-9 28z" />
<glyph unicode="&#xfd;" horiz-adv-x="983" d="M887 922h41l-371 -1024q-62 -173 -140.5 -250.5t-180.5 -77.5q-41 0 -78 10t-54 20l-16 11l6 41q6 -5 18 -11.5t50.5 -18t79.5 -11.5q87 0 155 68.5t119 218.5l37 102h-369l-75 922h41l69 -881h348zM453 1198l331 174l15 -41l-330 -164z" />
<glyph unicode="&#xfe;" horiz-adv-x="1136" d="M307 1393l-92 -656h10q7 9 19.5 24.5t53 54.5t83.5 68.5t107.5 54t127.5 24.5q84 0 158.5 -38.5t126 -104.5t75.5 -160t9 -199t-65.5 -199t-120.5 -160t-155 -104.5t-169 -38.5q-46 0 -89 12.5t-74.5 32.5t-59.5 43.5t-47 47.5t-32.5 44t-19.5 33l-6 12h-10l-84 -594h-41 l254 1803h41zM205 657l-55 -391q2 -6 5.5 -15.5t17 -37t30 -52.5t45 -56t60.5 -53t77.5 -37t95.5 -15q102 0 201.5 59t171.5 166t90 236t-24 236t-125 166t-185 59q-69 0 -136 -27.5t-113.5 -66t-83 -77.5t-54.5 -67z" />
<glyph unicode="&#xff;" horiz-adv-x="983" d="M887 922h41l-371 -1024q-62 -173 -140.5 -250.5t-180.5 -77.5q-41 0 -78 10t-54 20l-16 11l6 41q6 -5 18 -11.5t50.5 -18t79.5 -11.5q87 0 155 68.5t119 218.5l37 102h-369l-75 922h41l69 -881h348zM362 1208q3 15 18 28t30 13t26 -13t8 -28q-1 -15 -16.5 -28t-30.5 -13 t-26 13t-9 28zM670 1208q3 15 17.5 28t29.5 13t26.5 -13t8.5 -28q-1 -15 -16.5 -28t-30.5 -13t-26 13t-9 28z" />
<glyph unicode="&#x152;" horiz-adv-x="2058" d="M1018 41h860l-4 -41h-1137q-217 0 -370.5 88t-221 246t-39.5 362q43 309 270.5 503t555.5 194h1136l-6 -41h-860l-88 -625h676l-4 -41h-676zM147 696q-40 -293 121 -474t473 -181h236l184 1311h-235q-313 0 -525 -181t-254 -475z" />
<glyph unicode="&#x153;" horiz-adv-x="1894" d="M1395 963q84 0 157 -37t123 -100t73 -153.5t9 -191.5l-37 -30h-788v-13q-23 -191 76 -314.5t262 -123.5q143 0 249 76t154 180h41q-51 -119 -172 -208t-278 -89q-65 0 -120.5 18t-92 47t-66 64t-46.5 70t-28 64t-15 47l-3 18h-8q-3 -7 -8 -18.5t-24 -46t-42 -65.5 t-62 -68.5t-82.5 -65t-104.5 -46t-128 -18.5q-182 0 -286.5 138.5t-73.5 363.5q21 149 96 265t181 176.5t224 60.5q67 0 123 -18t92 -47t64 -64t42.5 -70t23.5 -64t12 -47l2 -18h8q3 7 9 18.5t27 46t45.5 65.5t64.5 68.5t83 65t102 46t122 18.5zM893 461q30 210 -64 335.5 t-260 125.5t-295 -125.5t-159 -335.5q-30 -209 64.5 -335t260.5 -126q162 0 289.5 119t161.5 319zM1389 922q-157 0 -291 -124.5t-160 -305.5h778q17 120 -23 219.5t-121 155t-183 55.5z" />
<glyph unicode="&#x178;" horiz-adv-x="1290" d="M1331 1393l-702 -922l-66 -471h-41l66 471l-445 922h52l419 -881l666 881h51zM582 1679q3 15 17.5 28t29.5 13t26.5 -13t8.5 -28q-1 -15 -17 -28t-31 -13t-25.5 13t-8.5 28zM889 1679q3 15 17.5 28t29.5 13t26.5 -13t8.5 -28q-1 -15 -16.5 -28t-30.5 -13t-26 13t-9 28z " />
<glyph unicode="&#x2c6;" horiz-adv-x="614" d="M379 1393h41l186 -277h-51l-162 236l-227 -236h-51z" />
<glyph unicode="&#x2dc;" horiz-adv-x="593" d="M272 1362q-81 0 -98 -113l-6 -41h-41l6 41q10 74 50 114t96 40q34 0 59 -17t39.5 -41t27.5 -48t32 -41t44 -17q83 0 97 113l6 41h41l-7 -41q-10 -75 -48.5 -114.5t-94.5 -39.5q-34 0 -59 17t-39.5 41t-28 48t-32.5 41t-44 17z" />
<glyph unicode="&#x2000;" horiz-adv-x="973" />
<glyph unicode="&#x2001;" horiz-adv-x="1946" />
<glyph unicode="&#x2002;" horiz-adv-x="973" />
<glyph unicode="&#x2003;" horiz-adv-x="1946" />
<glyph unicode="&#x2004;" horiz-adv-x="648" />
<glyph unicode="&#x2005;" horiz-adv-x="486" />
<glyph unicode="&#x2006;" horiz-adv-x="324" />
<glyph unicode="&#x2007;" horiz-adv-x="324" />
<glyph unicode="&#x2008;" horiz-adv-x="243" />
<glyph unicode="&#x2009;" horiz-adv-x="389" />
<glyph unicode="&#x200a;" horiz-adv-x="108" />
<glyph unicode="&#x2010;" horiz-adv-x="870" d="M772 625h-706l6 41h706z" />
<glyph unicode="&#x2011;" horiz-adv-x="870" d="M772 625h-706l6 41h706z" />
<glyph unicode="&#x2012;" horiz-adv-x="870" d="M772 625h-706l6 41h706z" />
<glyph unicode="&#x2013;" horiz-adv-x="1198" d="M1085 522h-1034l6 41h1035z" />
<glyph unicode="&#x2014;" horiz-adv-x="1495" d="M1382 522h-1331l6 41h1332z" />
<glyph unicode="&#x2018;" horiz-adv-x="337" d="M268 1188q-1 -15 -16.5 -28t-30.5 -13t-26 13t-9 28q1 9 5 19t8 16l4 6l106 174h21l-86 -174q3 -1 7.5 -3.5t11.5 -13t5 -24.5z" />
<glyph unicode="&#x2019;" horiz-adv-x="337" d="M221 1362q1 15 16.5 28t30.5 13t26 -13t9 -28q-1 -9 -5 -19t-8 -16l-3 -6l-107 -174h-20l86 174q-3 1 -8 3.5t-12 13t-5 24.5z" />
<glyph unicode="&#x201a;" horiz-adv-x="337" d="M35 41q3 15 17.5 28t29.5 13t26.5 -13t8.5 -28q-1 -9 -4.5 -19t-6.5 -16l-4 -6l-106 -174h-21l86 174q-3 1 -8 3.5t-12.5 13t-5.5 24.5z" />
<glyph unicode="&#x201c;" horiz-adv-x="563" d="M268 1188q-1 -15 -16.5 -28t-30.5 -13t-26 13t-9 28q1 9 5 19t8 16l4 6l106 174h21l-86 -174q3 -1 7.5 -3.5t11.5 -13t5 -24.5zM494 1188q-1 -15 -17 -28t-31 -13t-25.5 13t-8.5 28q1 9 5 19t7 16l4 6l107 174h20l-86 -174q3 -1 8 -3.5t12 -13t5 -24.5z" />
<glyph unicode="&#x201d;" horiz-adv-x="563" d="M221 1362q1 15 16.5 28t30.5 13t26 -13t9 -28q-1 -9 -5 -19t-8 -16l-3 -6l-107 -174h-20l86 174q-3 1 -8 3.5t-12 13t-5 24.5zM446 1362q1 15 17 28t31 13t25.5 -13t8.5 -28q-1 -9 -5 -19t-7 -16l-4 -6l-106 -174h-21l86 174q-3 1 -8 3.5t-12 13t-5 24.5z" />
<glyph unicode="&#x201e;" horiz-adv-x="563" d="M35 41q3 15 17.5 28t29.5 13t26.5 -13t8.5 -28q-1 -9 -4.5 -19t-6.5 -16l-4 -6l-106 -174h-21l86 174q-3 1 -8 3.5t-12.5 13t-5.5 24.5zM260 41q3 15 17.5 28t29.5 13t26.5 -13t8.5 -28q-1 -9 -4.5 -19t-6.5 -16l-3 -6l-107 -174h-20l86 174q-3 1 -8.5 3.5t-13 13 t-5.5 24.5z" />
<glyph unicode="&#x2022;" horiz-adv-x="409" d="M270 614q-6 -38 -31 -60t-63 -22t-57 22t-13 60q4 38 29.5 60t63.5 22t57 -22t14 -60z" />
<glyph unicode="&#x2026;" horiz-adv-x="1044" d="M25 41q3 15 17.5 28t29.5 13t26 -13t8 -28q-2 -15 -16 -28t-29 -13t-26.5 13t-9.5 28zM383 41q3 15 17.5 28t29.5 13t26.5 -13t8.5 -28q-2 -15 -16 -28t-29 -13t-26.5 13t-10.5 28zM741 41q3 15 17.5 28t29.5 13t26.5 -13t8.5 -28q-2 -15 -16 -28t-29 -13t-26.5 13 t-10.5 28z" />
<glyph unicode="&#x202f;" horiz-adv-x="389" />
<glyph unicode="&#x2039;" horiz-adv-x="665" d="M66 471l493 451l27 -31l-469 -420l350 -420l-35 -31z" />
<glyph unicode="&#x203a;" horiz-adv-x="665" d="M160 922l366 -451l-493 -451l-27 31l469 420l-350 420z" />
<glyph unicode="&#x205f;" horiz-adv-x="486" />
<glyph unicode="&#x20ac;" horiz-adv-x="1638" d="M799 -61q-165 0 -297 81t-209.5 217t-97.5 306h-181l6 41h175q-1 -1 -1.5 13.5t0.5 42.5t5 56q4 27 10.5 55.5t10.5 42.5l5 15h-174l6 41h181q103 261 315 432.5t459 171.5q122 0 222.5 -34.5t166.5 -92.5t106 -127t54 -145h-41q-15 68 -52.5 129.5t-98.5 114t-155 83.5 t-208 31q-224 0 -420.5 -158.5t-304.5 -404.5h626l-6 -41h-635q-16 -52 -26 -113q-4 -27 -5 -55t0 -43l1 -14h634l-6 -41h-626q25 -160 99.5 -286.5t196.5 -201.5t271 -75q123 0 229 31.5t186.5 88t141 126t104.5 153.5h41q-40 -87 -105 -164t-152.5 -140t-204.5 -99.5 t-246 -36.5z" />
<glyph unicode="&#x2122;" horiz-adv-x="1382" d="M1305 1341l-332 -393l-221 393l-80 -563h-41l86 615h51l213 -379l319 379h52l-86 -615h-41zM106 1352l7 41h512l-7 -41h-235l-80 -574h-41l80 574h-236z" />
<glyph unicode="&#x25fc;" horiz-adv-x="921" d="M0 922h922v-922h-922v922z" />
</font>
</defs>
</svg>
