<?xml version="1.0" standalone="no"?>
<!DOCTYPE svg PUBLIC "-//W3C//DTD SVG 1.1//EN" "http://www.w3.org/Graphics/SVG/1.1/DTD/svg11.dtd" >
<svg xmlns="http://www.w3.org/2000/svg">
<metadata></metadata>
<defs>
<font id="tt_firsextralight" horiz-adv-x="1126" >
<font-face units-per-em="2048" ascent="1638" descent="-410" />
<missing-glyph horiz-adv-x="317" />
<glyph horiz-adv-x="0" />
<glyph horiz-adv-x="0" />
<glyph horiz-adv-x="682" />
<glyph unicode="&#xd;" horiz-adv-x="0" />
<glyph unicode=" "  horiz-adv-x="317" />
<glyph unicode="&#x09;" horiz-adv-x="317" />
<glyph unicode="&#xa0;" horiz-adv-x="317" />
<glyph unicode="!" horiz-adv-x="512" d="M276 1393v-738l-10 -276h-20l-10 276v738h40zM215 31q0 15 13 28t28 13t28 -13t13 -28t-13 -28t-28 -13t-28 13t-13 28z" />
<glyph unicode="&#x22;" horiz-adv-x="624" d="M205 1393v-287l-10 -184h-21l-10 184v287h41zM461 1393v-287l-10 -184h-21l-10 184v287h41z" />
<glyph unicode="#" horiz-adv-x="1280" d="M236 0h-41l122 420h-276v41h287l133 471h-287v41h297l123 420h41l-123 -420h410l122 420h41l-122 -420h276v-41h-287l-133 -471h287v-41h-297l-123 -420h-41l123 420h-410zM502 932l-133 -471h409l133 471h-409z" />
<glyph unicode="$" horiz-adv-x="1075" d="M532 -61v204q-164 0 -271.5 78t-158.5 199h41q117 -236 400 -236q190 0 289.5 76t99.5 191q0 68 -43 114t-111.5 69.5t-151.5 40t-166 35t-151.5 45t-111.5 79t-43 129.5q0 121 104 209t274 88v215h41v-215q144 0 242 -74.5t148 -192.5h-41q-112 226 -369 226 q-169 0 -263.5 -75t-94.5 -181q0 -68 43 -114t111.5 -69.5t151.5 -40t166 -35t151.5 -45t111.5 -79t43 -129.5q0 -129 -107.5 -218.5t-292.5 -89.5v-204h-41z" />
<glyph unicode="%" horiz-adv-x="1464" d="M1188 1393l-860 -1393h-52l861 1393h51zM676 1085q0 -143 -84 -235t-203 -92t-203 92t-84 235t84.5 235.5t202.5 92.5t202.5 -92.5t84.5 -235.5zM635 1085q0 127 -71.5 207t-174.5 80t-174.5 -80t-71.5 -207t71.5 -206.5t174.5 -79.5t174.5 79.5t71.5 206.5zM1362 307 q0 -143 -84 -235t-203 -92t-203 92t-84 235t84.5 235.5t202.5 92.5t202.5 -92.5t84.5 -235.5zM1321 307q0 127 -71.5 207t-174.5 80t-174.5 -80t-71.5 -207t71.5 -207t174.5 -80t174.5 80t71.5 207z" />
<glyph unicode="&#x26;" horiz-adv-x="1187" d="M545 860l-309 481v52h768v-41h-717v-11l860 -1341h-51l-99 154q-6 -9 -18.5 -23.5t-54 -51.5t-87.5 -65.5t-118 -51.5t-146 -23q-196 0 -323 118.5t-127 290.5q0 73 23.5 141t60.5 117.5t82 93t90 72t82 49t61 29.5zM573 -20q50 0 99.5 12t88 31t73 41.5t59.5 45.5 t43.5 42t27.5 31l9 12l-404 626q-8 -3 -23 -8.5t-57 -26t-80 -45t-85 -65.5t-80.5 -86.5t-56.5 -109t-23 -132.5q0 -156 114.5 -262t294.5 -106z" />
<glyph unicode="'" horiz-adv-x="368" d="M205 1393v-287l-10 -184h-21l-10 184v287h41z" />
<glyph unicode="(" horiz-adv-x="737" d="M184 594q0 121 25 238.5t64.5 208.5t88 172.5t96.5 139t87.5 100t64.5 63.5l25 20l20 -31q-9 -7 -24.5 -19.5t-60 -57t-85.5 -95t-90.5 -131.5t-85 -167.5t-60 -203t-24.5 -237.5t23.5 -237t61.5 -204t84 -166.5t92 -132.5t84 -93.5t62 -58.5l23 -19l-20 -31 q-9 7 -25.5 21t-63.5 62t-89.5 101t-94.5 138t-89.5 174t-63 207t-25.5 239z" />
<glyph unicode=")" horiz-adv-x="737" d="M553 594q0 -121 -25 -238.5t-64.5 -208.5t-87.5 -172.5t-96.5 -139t-88 -100t-64.5 -63.5l-25 -20l-20 31q9 7 24.5 19.5t60 57t85.5 95t90.5 131.5t85 167.5t60 203t24.5 237.5t-23.5 237t-61.5 204t-84 166.5t-92 132.5t-84 93.5t-61 58.5l-24 19l20 31q9 -7 25.5 -21 t63.5 -62t89.5 -101t94.5 -138t89.5 -174t63 -207t25.5 -239z" />
<glyph unicode="*" horiz-adv-x="737" d="M389 1393v-236h246v-41h-236l154 -225l-31 -21l-153 226l-154 -226l-31 21l154 225h-236v41h246v236h41z" />
<glyph unicode="+" horiz-adv-x="921" d="M440 666v378h41v-378h359v-41h-359v-379h-41v379h-358v41h358z" />
<glyph unicode="," horiz-adv-x="337" d="M133 41q0 15 13 28t28 13t28 -13t13 -28q0 -9 -2.5 -19t-4.5 -16l-3 -6l-82 -174h-21l62 174q-3 1 -8.5 3.5t-14 13t-8.5 24.5z" />
<glyph unicode="-" horiz-adv-x="870" d="M788 625h-706v41h706v-41z" />
<glyph unicode="." horiz-adv-x="327" d="M123 41q0 15 13 28t28 13t28 -13t13 -28t-13 -28t-28 -13t-28 13t-13 28z" />
<glyph unicode="/" horiz-adv-x="737" d="M61 0l574 1393h41l-574 -1393h-41z" />
<glyph unicode="0" horiz-adv-x="1454" d="M1290 696q0 155 -50.5 292.5t-131.5 228.5t-181 143.5t-200 52.5t-200 -52.5t-181 -143.5t-131.5 -228.5t-50.5 -292.5t50.5 -292t131.5 -228t181 -143.5t200 -52.5t200 52.5t181 143.5t131.5 228t50.5 292zM123 696q0 163 54 307.5t140.5 241.5t194 153t215.5 56 t215.5 -56t194 -153t140.5 -241.5t54 -307.5t-54 -307.5t-140.5 -241t-194 -152.5t-215.5 -56t-215.5 56t-194 152.5t-140.5 241t-54 307.5z" />
<glyph unicode="1" horiz-adv-x="614" d="M358 0v1290q-26 -76 -99 -135t-167 -59v41q99 0 171 70t95 186h41v-1393h-41z" />
<glyph unicode="2" horiz-adv-x="1187" d="M1014 1055q0 156 -109 257t-291 101q-101 0 -179 -21.5t-132 -62.5t-89.5 -92.5t-59.5 -120.5h-41q49 156 172.5 247t328.5 91q196 0 318.5 -113.5t122.5 -285.5q0 -79 -31 -146.5t-83 -118t-119.5 -96t-142.5 -86.5t-149.5 -82.5t-142 -90t-119.5 -103.5t-83 -129.5 t-31 -161.5h921v-41h-962v41q0 93 31 173t83 139t119.5 110t142.5 93t149.5 82.5t142 83.5t119.5 90t83 109t31 134z" />
<glyph unicode="3" horiz-adv-x="1177" d="M584 -20q190 0 310 116t120 293t-120 293.5t-310 116.5h-174v41l542 512h-788v41h850v-41l-543 -512h113q207 0 339 -128.5t132 -322.5t-132 -322t-339 -128q-212 0 -343 103t-180 275h41q49 -157 167 -247t315 -90z" />
<glyph unicode="4" horiz-adv-x="1177" d="M932 0h-41v358h-809v41l502 994h51l-502 -994h758v441h41v-441h205v-41h-205v-358z" />
<glyph unicode="5" horiz-adv-x="1146" d="M573 809h-327l102 584h645v-41h-604l-92 -502h276q206 0 344 -134t138 -327q0 -122 -62.5 -225t-173.5 -164t-246 -61q-205 0 -334 103t-178 275h41q49 -156 165 -246.5t306 -90.5t315.5 119t125.5 290q0 178 -125 299t-316 121z" />
<glyph unicode="6" horiz-adv-x="1208" d="M102 430q0 63 14 124t33.5 103.5t39 76t33.5 49.5l14 16l481 594h51l-451 -553h11q4 4 11 10t33 22t56 28t80.5 22t105.5 10q222 0 367 -143t145 -359q0 -209 -145.5 -350t-366.5 -141t-366.5 141t-145.5 350zM143 430q0 -193 132.5 -321.5t338.5 -128.5t338.5 128.5 t132.5 321.5q0 200 -132.5 330.5t-338.5 130.5t-338.5 -130.5t-132.5 -330.5z" />
<glyph unicode="7" horiz-adv-x="972" d="M317 0h-41l615 1352h-850v41h891v-52z" />
<glyph unicode="8" horiz-adv-x="1269" d="M635 -20q222 0 351.5 108t129.5 264q0 158 -129.5 266.5t-351.5 108.5t-351.5 -108.5t-129.5 -266.5q0 -156 129.5 -264t351.5 -108zM635 768q184 0 302 99.5t118 228.5q0 130 -114.5 223.5t-305.5 93.5t-305.5 -93.5t-114.5 -223.5q0 -129 118 -228.5t302 -99.5z M635 1454q104 0 192.5 -30t146.5 -80t90 -114.5t32 -133.5q0 -54 -17 -102t-44 -81.5t-60 -61t-66 -44.5t-60 -28.5t-44 -16.5l-17 -4v-10q8 -1 21 -4t51.5 -16t73.5 -30.5t77.5 -49.5t73 -71t51.5 -98t21 -127q0 -82 -36 -156.5t-101.5 -132t-165 -91t-219.5 -33.5 t-219.5 33.5t-165 91t-101.5 132t-36 156.5q0 68 20.5 127t53 98t71.5 71t78 50t71.5 30t52.5 16l21 4v10q-6 2 -17.5 5t-43 15.5t-60.5 28.5t-64.5 44.5t-61 61t-43 81t-17.5 102.5q0 69 32 133.5t90 114.5t146.5 80t192.5 30z" />
<glyph unicode="9" horiz-adv-x="1208" d="M1106 963q0 -63 -13.5 -124t-33 -103.5t-39.5 -76t-34 -49.5l-13 -16l-481 -594h-52l451 553h-10q-4 -4 -11 -10t-33 -22t-56.5 -28t-81 -22t-105.5 -10q-222 0 -367 143t-145 359q0 209 145.5 350t366.5 141t366.5 -141t145.5 -350zM1065 963q0 193 -132.5 321.5 t-338.5 128.5t-338.5 -128.5t-132.5 -321.5q0 -200 132.5 -330.5t338.5 -130.5t338.5 130.5t132.5 330.5z" />
<glyph unicode=":" horiz-adv-x="327" d="M123 881q0 15 13 28t28 13t28 -13t13 -28t-13 -28t-28 -13t-28 13t-13 28zM123 41q0 15 13 28t28 13t28 -13t13 -28t-13 -28t-28 -13t-28 13t-13 28z" />
<glyph unicode=";" horiz-adv-x="337" d="M133 41q0 15 13 28t28 13t28 -13t13 -28q0 -9 -2.5 -19t-4.5 -16l-3 -6l-82 -174h-21l62 174q-3 1 -8.5 3.5t-14 13t-8.5 24.5zM133 881q0 15 13 28t28 13t28 -13t13 -28t-13 -28t-28 -13t-28 13t-13 28z" />
<glyph unicode="&#x3c;" horiz-adv-x="931" d="M82 492l768 378v-41l-727 -358v-10l727 -359v-41l-768 377v54z" />
<glyph unicode="=" horiz-adv-x="870" d="M788 768h-706v41h706v-41zM788 399h-706v41h706v-41z" />
<glyph unicode="&#x3e;" horiz-adv-x="931" d="M82 870l768 -378v-54l-768 -377v41l727 359v10l-727 358v41z" />
<glyph unicode="?" horiz-adv-x="1054" d="M522 1413q-335 0 -440 -297h-41q49 152 170 245t311 93q187 0 308.5 -109t121.5 -260q0 -81 -25 -139.5t-64.5 -93.5t-87.5 -63.5t-96 -60t-87.5 -72.5t-64.5 -111.5t-25 -165.5h-41q0 100 25 173.5t64.5 116t87.5 75t96 60.5t87.5 61t64.5 88t25 132q0 135 -108.5 231.5 t-280.5 96.5zM440 41q0 15 13 28t28 13t28 -13t13 -28t-13 -28t-28 -13t-28 13t-13 28z" />
<glyph unicode="@" horiz-adv-x="1699" d="M1096 338v113h-11q-3 -5 -9.5 -13.5t-28.5 -29.5t-46 -37t-62.5 -29.5t-78.5 -13.5q-124 0 -220.5 98.5t-96.5 228.5t96.5 229t220.5 99q40 0 78 -12.5t63.5 -30.5t45 -36.5t29.5 -31.5l9 -12h11v103h41v-584q190 0 310 114t120 285q0 92 -32.5 179.5t-95.5 162 t-148 131.5t-196.5 89t-234.5 32q-147 0 -278 -55t-225 -149.5t-148.5 -228t-54.5 -284.5q0 -202 93 -366t254.5 -257t358.5 -93q66 0 132.5 10.5t114.5 26t86 31t57 25.5l20 11v-43q-7 -4 -20 -11t-56 -24.5t-88 -31t-112.5 -24.5t-133.5 -11q-207 0 -378.5 99t-270 272.5 t-98.5 385.5q0 159 58 299.5t157.5 241t238 159t293.5 58.5q161 0 302.5 -53t238 -141t152 -203.5t55.5 -237.5q0 -197 -135.5 -318.5t-376.5 -121.5zM584 655q0 -115 84 -200.5t192 -85.5q46 0 87 16t67 38.5t45.5 44.5t28.5 38l8 16v266q-3 6 -9 16.5t-27 37t-46 47 t-66.5 37t-87.5 16.5q-108 0 -192 -86t-84 -201z" />
<glyph unicode="A" horiz-adv-x="1392" d="M963 1393l337 -1393h-40l-97 399h-934l-96 -399h-41l338 1393h533zM461 1352l-221 -912h913l-221 912h-471z" />
<glyph unicode="B" horiz-adv-x="1423" d="M215 1393h573q166 0 267.5 -93.5t101.5 -234.5q0 -66 -20 -121t-48.5 -86t-57 -53t-48.5 -29l-20 -8v-10q7 -1 20 -3t50.5 -13t71 -26t75 -44.5t71 -66t50 -93t20.5 -123.5q0 -164 -120.5 -276.5t-309.5 -112.5h-676v1393zM256 41h635q174 0 281.5 99.5t107.5 248.5 q0 142 -108 240t-281 98h-635v-686zM788 1352h-532v-584h532q151 0 239.5 82t88.5 215q0 126 -88.5 206.5t-239.5 80.5z" />
<glyph unicode="C" horiz-adv-x="1556" d="M819 -61q-132 0 -261 61.5t-226.5 163t-158 242t-60.5 290.5t60.5 291t158 242.5t226.5 163t261 61.5q122 0 227.5 -34.5t179.5 -92.5t123.5 -127t73.5 -145h-41q-24 68 -70 129.5t-114.5 114t-166.5 83.5t-212 31q-125 0 -246.5 -58t-213.5 -154t-148.5 -229.5 t-56.5 -275.5t56.5 -275.5t148.5 -229t213.5 -153.5t246.5 -58q123 0 224.5 31.5t174 88t123 126t82.5 153.5h41q-28 -87 -82 -164t-132.5 -140t-190 -99.5t-240.5 -36.5z" />
<glyph unicode="D" horiz-adv-x="1433" d="M1280 696q0 293 -185 474.5t-491 181.5h-348v-1311h348q306 0 491 181t185 474zM1321 696q0 -203 -89 -361.5t-252.5 -246.5t-375.5 -88h-389v1393h389q212 0 375.5 -88.5t252.5 -247t89 -361.5z" />
<glyph unicode="E" horiz-adv-x="1239" d="M256 41h901v-41h-942v1393h942v-41h-901v-625h717v-41h-717v-645z" />
<glyph unicode="F" horiz-adv-x="1177" d="M256 645v-645h-41v1393h901v-41h-860v-666h696v-41h-696z" />
<glyph unicode="G" horiz-adv-x="1597" d="M819 -61q-132 0 -261 61.5t-226.5 163t-158 242t-60.5 290.5t60.5 291t158 242.5t226.5 163t261 61.5q122 0 227.5 -34.5t179.5 -92.5t123.5 -127t73.5 -145h-41q-24 68 -70 129.5t-114.5 114t-166.5 83.5t-212 31q-125 0 -246.5 -58t-213.5 -154t-148.5 -229.5 t-56.5 -275.5t56.5 -275.5t148.5 -229t213.5 -153.5t246.5 -58q171 0 315 83t227 226.5t83 314.5h-512v41h553v-41q0 -136 -52.5 -259t-141.5 -212t-212.5 -141.5t-259.5 -52.5z" />
<glyph unicode="H" horiz-adv-x="1433" d="M215 0v1393h41v-666h922v666h41v-1393h-41v686h-922v-686h-41z" />
<glyph unicode="I" horiz-adv-x="471" d="M256 1393v-1393h-41v1393h41z" />
<glyph unicode="J" horiz-adv-x="1075" d="M860 1393v-963q0 -226 -122.5 -358.5t-317.5 -132.5q-146 0 -242 76t-137 200h41q90 -235 338 -235q180 0 289.5 119t109.5 331v963h41z" />
<glyph unicode="K" horiz-adv-x="1239" d="M1124 0l-520 819l-348 -358v-461h-41v1393h41v-871l840 871h61l-522 -543l543 -850h-54z" />
<glyph unicode="L" horiz-adv-x="1157" d="M256 1393v-1352h860v-41h-901v1393h41z" />
<glyph unicode="M" horiz-adv-x="1761" d="M1505 1341l-624 -768l-625 768v-1341h-41v1393h51l615 -758l614 758h51v-1393h-41v1341z" />
<glyph unicode="N" horiz-adv-x="1474" d="M266 1393l953 -1332v1332h41v-1393h-52l-952 1331v-1331h-41v1393h51z" />
<glyph unicode="O" horiz-adv-x="1679" d="M113 696q0 154 59.5 295t158 242t232 161t277.5 60t277.5 -60t232 -161t158 -242t59.5 -295t-59.5 -295t-158 -241.5t-232 -160.5t-277.5 -60t-277.5 60t-232 160.5t-158 241.5t-59.5 295zM154 696q0 -146 55.5 -279.5t148.5 -228.5t219.5 -151.5t262.5 -56.5t262.5 56.5 t219.5 151.5t148.5 228.5t55.5 279.5t-55.5 279.5t-148.5 229t-219.5 152t-262.5 56.5t-262.5 -56.5t-219.5 -152t-148.5 -229t-55.5 -279.5z" />
<glyph unicode="P" horiz-adv-x="1372" d="M1239 922q0 187 -129.5 308.5t-341.5 121.5h-512v-871h512q213 0 342 123.5t129 317.5zM1280 922q0 -209 -142 -345.5t-370 -136.5h-512v-440h-41v1393h553q227 0 369.5 -134.5t142.5 -336.5z" />
<glyph unicode="Q" horiz-adv-x="1679" d="M113 696q0 154 59.5 295t158 242t232 161t277.5 60t277.5 -60t232 -161t158 -242t59.5 -295q0 -97 -22 -189t-53.5 -153t-63.5 -108.5t-54 -69.5l-22 -22l215 -215l-31 -31l-215 215q-8 -7 -22 -19.5t-61.5 -44.5t-100 -56t-133.5 -44t-164 -20q-144 0 -277.5 60 t-232 160.5t-158 241.5t-59.5 295zM154 696q0 -146 55.5 -279.5t148.5 -228.5t219.5 -151.5t262.5 -56.5q77 0 152 18t126.5 43.5t92 51t59.5 43.5l20 18l-174 174l31 30l174 -174l22 22t49.5 63.5t62.5 104.5t49 142.5t22 179.5q0 146 -55.5 279.5t-148.5 229t-219.5 152 t-262.5 56.5t-262.5 -56.5t-219.5 -152t-148.5 -229t-55.5 -279.5z" />
<glyph unicode="R" horiz-adv-x="1413" d="M901 522h-645v-522h-41v1393h594q212 0 341.5 -121.5t129.5 -308.5q0 -75 -18.5 -139t-48.5 -106t-66 -75.5t-72 -52t-66 -30.5t-49 -16l-18 -3l307 -541h-51zM256 563h553q197 0 313.5 110.5t116.5 289.5q0 172 -117 280.5t-313 108.5h-553v-789z" />
<glyph unicode="S" horiz-adv-x="1249" d="M1085 348q0 93 -51 158.5t-132 102t-179 64.5t-196.5 57.5t-179.5 69t-132 111.5t-51 174q0 73 32 140t90 118t146 81t193 30q210 0 334.5 -94t166.5 -244h-41q-42 135 -154 216t-306 81q-192 0 -306 -95.5t-114 -232.5q0 -93 51 -158.5t132 -102t179.5 -64.5 t196.5 -57.5t179 -69t132 -111.5t51 -174q0 -81 -35.5 -155t-99 -130.5t-159 -90t-207.5 -33.5q-218 0 -351.5 102t-191.5 276h41q124 -337 502 -337q105 0 192.5 30t145.5 81t90 117.5t32 139.5z" />
<glyph unicode="T" horiz-adv-x="1187" d="M573 1352h-532v41h1106v-41h-533v-1352h-41v1352z" />
<glyph unicode="U" horiz-adv-x="1474" d="M737 -20q218 0 350 139.5t132 382.5v891h41v-891q0 -258 -145 -410.5t-378 -152.5t-377.5 152.5t-144.5 410.5v891h41v-891q0 -243 131.5 -382.5t349.5 -139.5z" />
<glyph unicode="V" horiz-adv-x="1392" d="M461 41h471l328 1352h40l-337 -1393h-533l-338 1393h41z" />
<glyph unicode="W" horiz-adv-x="1904" d="M563 41l328 1352h123l327 -1352h101l309 1352h41l-317 -1393h-164l-328 1352h-61l-328 -1352h-164l-317 1393h41l309 -1352h100z" />
<glyph unicode="X" horiz-adv-x="1269" d="M1096 1393h51l-492 -656l543 -737h-51l-512 696l-512 -696h-51l542 737l-491 656h51l461 -615z" />
<glyph unicode="Y" horiz-adv-x="1290" d="M1239 1393l-573 -922v-471h-41v471l-574 922h51l543 -881l543 881h51z" />
<glyph unicode="Z" horiz-adv-x="1198" d="M82 0v49l993 1303h-952v41h993v-52l-989 -1300h989v-41h-1034z" />
<glyph unicode="[" horiz-adv-x="665" d="M604 1434h-348v-1680h348v-41h-389v1762h389v-41z" />
<glyph unicode="\" horiz-adv-x="737" d="M102 1393l574 -1393h-41l-574 1393h41z" />
<glyph unicode="]" horiz-adv-x="665" d="M410 1434h-349v41h390v-1762h-390v41h349v1680z" />
<glyph unicode="^" horiz-adv-x="819" d="M410 1352l-287 -584h-41l307 625h41l307 -625h-41z" />
<glyph unicode="_" horiz-adv-x="706" d="M707 -338h-707v41h707v-41z" />
<glyph unicode="`" horiz-adv-x="450" d="M82 1403l307 -174l-20 -31l-308 164z" />
<glyph unicode="a" d="M922 0v184h-11q-5 -9 -15.5 -24t-45.5 -54t-74 -68.5t-99.5 -54t-123.5 -24.5q-84 0 -163.5 38.5t-141 104.5t-98.5 160t-37 199t37 199t98.5 160t141 104.5t163.5 38.5q63 0 123 -23.5t101 -56.5t72.5 -66t46.5 -57l15 -23h11v185h41v-922h-41zM922 266v389 q-5 11 -15 29t-44.5 64t-73.5 81t-103 64t-133 29q-102 0 -193.5 -59t-148.5 -166t-57 -236t57 -236t148.5 -166t193.5 -59q69 0 132.5 27.5t104.5 66.5t72.5 78t45.5 66z" />
<glyph unicode="b" horiz-adv-x="1136" d="M215 184v-184h-41v1393h41v-656h10q5 9 15.5 24.5t46 54.5t74 68.5t99.5 54t124 24.5q84 0 163.5 -38.5t141 -104.5t98.5 -160t37 -199t-37 -199t-98.5 -160t-141 -104.5t-163.5 -38.5q-63 0 -123 23t-101 56.5t-73 66.5t-47 56l-15 23h-10zM215 655v-389q5 -11 15 -29 t44.5 -63.5t73.5 -81t103 -64t133 -28.5q102 0 193.5 59t148.5 166t57 236t-57 236t-148.5 166t-193.5 59q-69 0 -132.5 -27.5t-104.5 -67t-72.5 -78.5t-45.5 -67z" />
<glyph unicode="c" horiz-adv-x="1075" d="M563 -41q-88 0 -170 38.5t-143.5 104.5t-99 160t-37.5 199t37.5 199t99 160t143.5 104.5t170 38.5q158 0 256.5 -73t132.5 -183h-41q-34 95 -119.5 155t-228.5 60q-165 0 -287 -133t-122 -328t122 -328t287 -133q143 0 244 76.5t135 179.5h41q-34 -118 -148 -207.5 t-272 -89.5z" />
<glyph unicode="d" horiz-adv-x="1136" d="M922 0v184h-11q-5 -9 -15.5 -24t-45.5 -54t-74 -68.5t-99.5 -54t-123.5 -24.5q-84 0 -163.5 38.5t-141 104.5t-98.5 160t-37 199t37 199t98.5 160t141 104.5t163.5 38.5q63 0 123 -23.5t101 -56.5t72.5 -66t46.5 -57l15 -23h11v656h41v-1393h-41zM922 266v389 q-5 11 -15 29t-44.5 64t-73.5 81t-103 64t-133 29q-102 0 -193.5 -59t-148.5 -166t-57 -236t57 -236t148.5 -166t193.5 -59q69 0 132.5 27.5t104.5 66.5t72.5 78t45.5 66z" />
<glyph unicode="e" horiz-adv-x="1095" d="M553 963q83 0 163.5 -38.5t141 -103.5t98 -157t37.5 -193l-30 -31h-809q0 -120 57 -222t151.5 -160t200.5 -58q143 0 244 76.5t135 179.5h41q-34 -118 -148 -207.5t-272 -89.5q-88 0 -170 38.5t-143.5 104.5t-99 160t-37.5 199t37 199.5t98.5 160t141 104t163.5 38.5z M553 922q-76 0 -148.5 -34.5t-128 -93t-89 -141t-33.5 -172.5h798q0 90 -33.5 172.5t-89 141t-128 93t-148.5 34.5z" />
<glyph unicode="f" horiz-adv-x="563" d="M41 870v41h164v246q0 122 63 189t172 67q36 0 72 -10.5t54 -20.5l18 -10v-41q-62 41 -144 41q-92 0 -143 -54.5t-51 -160.5v-246h286v-41h-286v-870h-41v870h-164z" />
<glyph unicode="g" d="M922 737v185h41v-912q0 -124 -54.5 -226t-144 -158t-191.5 -56q-158 0 -256.5 73t-132.5 183h41q34 -95 119.5 -155t228.5 -60q142 0 245.5 113t103.5 286v215h-11q-5 -9 -15.5 -24t-45.5 -54t-74 -68.5t-99.5 -54t-123.5 -24.5q-112 0 -213 64t-164 176t-63 241 q0 97 37.5 187t98 154t141 102.5t163.5 38.5q63 0 123 -23.5t101 -56.5t72.5 -66t46.5 -57l15 -23h11zM922 307v348q-5 11 -15 29t-44.5 64t-73.5 81t-103 64t-133 29q-76 0 -148.5 -34.5t-128 -93t-89 -141t-33.5 -172.5q0 -120 57 -222t148.5 -160t193.5 -58 q69 0 132.5 27.5t104.5 66.5t72.5 78t45.5 67z" />
<glyph unicode="h" d="M973 553v-553h-41v553q0 167 -96.5 268t-251.5 101q-69 0 -132.5 -27.5t-104.5 -67t-72.5 -78.5t-45.5 -67l-14 -27v-655h-41v1393h41v-656h10q5 9 15.5 24.5t46 54.5t74 68.5t99.5 54t124 24.5q170 0 279.5 -113.5t109.5 -296.5z" />
<glyph unicode="i" horiz-adv-x="389" d="M174 0v922h41v-922h-41zM154 1311q0 15 13 28t28 13t28 -13t13 -28t-13 -28t-28 -13t-28 13t-13 28z" />
<glyph unicode="j" horiz-adv-x="389" d="M215 922v-1096q0 -114 -67 -185t-168 -71q-41 0 -79.5 10t-56.5 20l-18 11v41q62 -41 154 -41q86 0 140 58.5t54 156.5v1096h41zM154 1311q0 15 13 28t28 13t28 -13t13 -28t-13 -28t-28 -13t-28 13t-13 28z" />
<glyph unicode="k" horiz-adv-x="962" d="M215 276v-276h-41v1393h41v-1065l594 594h51l-348 -349l410 -573h-52l-389 543z" />
<glyph unicode="l" horiz-adv-x="419" d="M205 0v1352h-185v41h226v-1393h-41z" />
<glyph unicode="m" horiz-adv-x="1628" d="M799 0v573q0 163 -84.5 256t-212.5 93q-44 0 -84 -15.5t-69 -39.5t-54 -53.5t-41 -59.5t-27.5 -54t-16.5 -40l-5 -15v-645h-41v922h41v-185h10q3 9 9 24.5t30 54.5t54 68.5t82 54t112 24.5q72 0 130.5 -25.5t91 -61.5t54.5 -72t30 -62l7 -25h8q1 5 3.5 14t14 34.5 t25.5 48.5t40 51.5t56.5 49t76.5 34.5t98 14q150 0 244 -104.5t94 -285.5v-573h-41v573q0 165 -81.5 257t-215.5 92t-215.5 -92t-81.5 -257v-573h-41z" />
<glyph unicode="n" horiz-adv-x="1116" d="M963 553v-553h-41v553q0 167 -97 268t-252 101q-50 0 -97.5 -14.5t-83 -38.5t-67 -52.5t-53 -56.5t-37 -52t-23.5 -38l-7 -15v-655h-41v922h41v-185h10q5 9 15.5 24.5t45.5 54.5t74 68.5t99.5 54t123.5 24.5q170 0 280 -113.5t110 -296.5z" />
<glyph unicode="o" horiz-adv-x="1167" d="M1055 461q0 -140 -64 -256t-172 -181t-235 -65t-235 65t-172 181t-64 256t64 256t172 181t235 65t235 -65t172 -181t64 -256zM1014 461q0 197 -125.5 329t-304.5 132t-304.5 -132t-125.5 -329t125.5 -329t304.5 -132t304.5 132t125.5 329z" />
<glyph unicode="p" d="M205 922v-185h10q5 9 15.5 24.5t45.5 54.5t74 68.5t99.5 54t123.5 24.5q84 0 164 -38.5t141 -104.5t98.5 -160t37.5 -199t-37.5 -199t-98.5 -160t-141 -104.5t-164 -38.5q-63 0 -123 23t-101 56.5t-72.5 66.5t-46.5 56l-15 23h-10v-594h-41v1332h41zM205 655v-389 q3 -6 7.5 -15.5t22 -37t37.5 -52.5t52.5 -56t68 -53t83 -37t97.5 -15q102 0 193.5 59t149 166t57.5 236t-57.5 236t-149 166t-193.5 59q-50 0 -97.5 -14.5t-83 -38.5t-67 -52.5t-53 -56.5t-37 -52t-23.5 -38z" />
<glyph unicode="q" d="M922 737v185h41v-1332h-41v594h-11q-5 -9 -15.5 -24t-45.5 -54t-74 -68.5t-99.5 -54t-123.5 -24.5q-84 0 -163.5 38.5t-141 104.5t-98.5 160t-37 199t37 199t98.5 160t141 104.5t163.5 38.5q63 0 123 -23.5t101 -56.5t72.5 -66t46.5 -57l15 -23h11zM922 266v389 q-5 11 -15 29t-44.5 64t-73.5 81t-103 64t-133 29q-102 0 -193.5 -59t-148.5 -166t-57 -236t57 -236t148.5 -166t193.5 -59q69 0 132.5 27.5t104.5 66.5t72.5 78t45.5 66z" />
<glyph unicode="r" horiz-adv-x="614" d="M594 963v-41h-31q-50 0 -97 -14.5t-82 -38.5t-65 -52.5t-50.5 -56.5t-35.5 -52t-21 -38l-7 -15v-655h-41v922h41v-185h10q5 9 14.5 24.5t43 54.5t71 68.5t97 54t122.5 24.5h31z" />
<glyph unicode="s" horiz-adv-x="942" d="M133 707q0 106 93.5 181t254.5 75q127 0 215 -64t123 -151h-41q-36 73 -110.5 123.5t-186.5 50.5q-146 0 -226.5 -62.5t-80.5 -152.5q0 -68 36.5 -113.5t95.5 -67.5t130 -36.5l142 -29t130 -37.5t95.5 -70t36.5 -117q0 -114 -101.5 -195.5t-277.5 -81.5 q-151 0 -258.5 83.5t-141.5 193.5h41q35 -96 129 -166t230 -70q160 0 249 68.5t89 167.5q0 55 -28.5 93t-75.5 57t-107 34.5t-122 24t-122 27.5t-107 44.5t-75.5 74t-28.5 116.5z" />
<glyph unicode="t" horiz-adv-x="645" d="M41 870v41h164v277h41v-277h286v-41h-286v-655q0 -106 51 -160.5t143 -54.5q36 0 72 10t54 20l18 11v-41q-62 -41 -144 -41q-109 0 -172 67t-63 189v655h-164z" />
<glyph unicode="u" d="M164 369v553h41v-553q0 -167 96.5 -268t251.5 -101q69 0 132.5 27.5t104.5 66.5t72.5 78t45.5 66l14 28v656h41v-922h-41v184h-11q-5 -9 -15.5 -24t-45.5 -54t-74 -68.5t-99.5 -54t-123.5 -24.5q-170 0 -279.5 113.5t-109.5 296.5z" />
<glyph unicode="v" horiz-adv-x="1003" d="M287 0l-205 922h41l194 -881h369l195 881h41l-205 -922h-430z" />
<glyph unicode="w" horiz-adv-x="1382" d="M717 881h-51l-205 -881h-154l-215 922h41l205 -881h92l205 881h113l204 -881h92l205 881h41l-215 -922h-153z" />
<glyph unicode="x" horiz-adv-x="921" d="M809 0l-348 440l-348 -440h-52l379 481l-348 441h51l318 -400l317 400h51l-348 -441l379 -481h-51z" />
<glyph unicode="y" horiz-adv-x="983" d="M860 922h41l-225 -1024q-37 -173 -105.5 -250.5t-171.5 -77.5q-41 0 -79 10t-56 20l-18 11v41q7 -5 19.5 -11.5t52.5 -18t81 -11.5q179 0 236 287l20 102h-368l-205 922h41l194 -881h349z" />
<glyph unicode="z" horiz-adv-x="890" d="M809 870l-696 -829h716v-41h-768v49l697 832h-676v41h727v-52z" />
<glyph unicode="{" horiz-adv-x="593" d="M225 598v-8q4 -1 11 -3.5t25 -14t31.5 -26.5t24.5 -43.5t11 -62.5q0 -46 -56.5 -271t-56.5 -271q0 -63 44.5 -103.5t119.5 -40.5h153v-41h-153q-89 0 -147 56.5t-58 128.5q0 46 56.5 271t56.5 271q0 54 -39.5 93.5t-93.5 39.5h-52v41h52q54 0 93.5 40t39.5 94 q0 46 -56.5 271t-56.5 271q0 72 58 128.5t147 56.5h153v-41h-153q-75 0 -119.5 -40.5t-44.5 -103.5q0 -46 56.5 -271t56.5 -271q0 -34 -10.5 -62.5t-26 -44t-30.5 -26t-25 -13.5z" />
<glyph unicode="|" horiz-adv-x="491" d="M266 1536v-1741h-41v1741h41z" />
<glyph unicode="}" horiz-adv-x="593" d="M369 590v8q-4 1 -11 3.5t-25 14t-31.5 26.5t-24.5 43.5t-11 62.5q0 46 56.5 271t56.5 271q0 63 -44.5 103.5t-119.5 40.5h-154v41h154q89 0 147 -56.5t58 -128.5q0 -46 -56.5 -271t-56.5 -271q0 -54 39.5 -94t93.5 -40h52v-41h-52q-54 0 -93.5 -39.5t-39.5 -93.5 q0 -46 56.5 -271t56.5 -271q0 -72 -58 -128.5t-147 -56.5h-154v41h154q75 0 119.5 40.5t44.5 103.5q0 46 -56.5 271t-56.5 271q0 34 10.5 62.5t26 44t30.5 26t25 13.5z" />
<glyph unicode="~" horiz-adv-x="829" d="M256 707q-48 0 -83.5 -41t-49.5 -123l-41 20q15 84 63.5 134.5t110.5 50.5q39 0 75 -17t63.5 -41t54 -48t58.5 -41t66 -17q48 0 84 41t50 123l41 -21q-15 -84 -64 -134t-111 -50q-39 0 -75 17t-63.5 41t-54 48t-58.5 41t-66 17z" />
<glyph unicode="&#xa1;" horiz-adv-x="512" d="M236 -410v686l10 277h20l10 -277v-686h-40zM297 901q0 -15 -13 -28t-28 -13t-28 13t-13 28t13 28t28 13t28 -13t13 -28z" />
<glyph unicode="&#xa2;" horiz-adv-x="1075" d="M584 1147v-184q148 -6 241 -78t127 -178h-41q-34 95 -119.5 155t-228.5 60q-165 0 -287 -133t-122 -328t122 -328t287 -133q143 0 244 76.5t135 179.5h41q-34 -114 -141.5 -202t-257.5 -95v-184h-41v184q-113 6 -211.5 72t-158.5 180t-60 250t60 250t158.5 180t211.5 72 v184h41z" />
<glyph unicode="&#xa3;" horiz-adv-x="993" d="M379 256q0 -43 -9.5 -80t-23 -59t-27 -38t-23.5 -22l-9 -6v-10h686v-41h-912v41h82q86 0 140.5 58.5t54.5 156.5v492h-154v38h154v371q0 115 69 185.5t177 70.5q36 0 72 -10.5t54 -20.5l17 -10v-41q-61 41 -143 41q-93 0 -149 -58t-56 -157v-371h287v-38h-287v-492z" />
<glyph unicode="&#xa4;" horiz-adv-x="1249" d="M246 1393h420q227 0 364 -129.5t137 -331.5t-137 -331.5t-364 -129.5h-379v-205h553v-41h-553v-225h-41v225h-164v41h164v205h-164v41h164v881zM666 1352h-379v-840h379q212 0 336 117t124 303q0 187 -124 303.5t-336 116.5z" />
<glyph unicode="&#xa5;" horiz-adv-x="1218" d="M1167 1393l-516 -891h332v-41h-348v-205h348v-41h-348v-215h-41v215h-348v41h348v205h-348v41h329l-524 891h51l512 -881l502 881h51z" />
<glyph unicode="&#xa6;" horiz-adv-x="491" d="M266 1536v-737h-41v737h41zM266 532v-737h-41v737h41z" />
<glyph unicode="&#xa7;" horiz-adv-x="1024" d="M829 696q0 46 -17.5 84t-45.5 61.5t-62 41.5t-67.5 27t-61.5 14.5t-45 6.5l-18 1q-6 -1 -17 -2.5t-41.5 -8.5t-58.5 -17t-62.5 -29t-59 -42.5t-41.5 -59t-17 -77.5q0 -44 17.5 -81t45.5 -60.5t62 -42.5t67.5 -29t61.5 -16t45 -8l18 -2q6 1 17 2.5t41.5 9t58.5 18 t62.5 29.5t59 42.5t41.5 59.5t17 78zM870 205q0 -114 -97.5 -190t-280.5 -76q-151 0 -258.5 82.5t-141.5 193.5h41q34 -101 126.5 -168t232.5 -67q168 0 252.5 63t84.5 162q0 58 -36 97.5t-94 61t-127.5 38.5t-139.5 37t-128 48t-94 81t-36 128q0 44 14.5 82t38 63.5t52 46 t57 32t52 19.5t38.5 11l14 2v11q-10 1 -26.5 4.5t-58.5 20t-74.5 39t-59 65.5t-26.5 96q0 113 93 189.5t255 76.5q135 0 224 -63.5t124 -151.5h-41q-36 71 -115 122.5t-192 51.5q-147 0 -227 -64t-80 -161q0 -58 35 -98t91 -61.5t123.5 -38t135 -36.5t123.5 -48.5t91 -81.5 t35 -128q0 -44 -14.5 -82t-38 -63.5t-52 -46t-57 -32t-52 -19.5t-38.5 -11l-14 -2v-10q6 -1 15.5 -2.5t37 -8.5t52.5 -16.5t56 -27.5t53 -40t37 -56t15 -74z" />
<glyph unicode="&#xa8;" horiz-adv-x="512" d="M61 1352q0 15 13 28t28 13t28 -13t13 -28t-13 -28t-28 -13t-28 13t-13 28zM369 1352q0 15 13 28t28 13t28 -13t13 -28t-13 -28t-28 -13t-28 13t-13 28z" />
<glyph unicode="&#xa9;" horiz-adv-x="1863" d="M932 246q-131 0 -224.5 95t-93.5 232t93.5 232.5t224.5 95.5q109 0 180 -55.5t96 -138.5h-41q-26 68 -84 110.5t-151 42.5q-116 0 -196.5 -82.5t-80.5 -204.5t80.5 -204t196.5 -82q193 0 246 174h41q-25 -98 -97 -156.5t-190 -58.5zM1761 573q0 -173 -66.5 -329 t-178.5 -267.5t-264.5 -177t-319.5 -65.5t-319.5 65.5t-265 177t-179 267.5t-66.5 329t66.5 329.5t179 268t265 177t319.5 65.5t319.5 -65.5t264.5 -177t178.5 -268t66.5 -329.5zM1720 573q0 166 -63 314.5t-169.5 254.5t-251.5 168t-304 62t-304.5 -62t-252 -168 t-169.5 -254.5t-63 -314.5t63 -314.5t169.5 -254t252 -167.5t304.5 -62t304 62t251.5 167.5t169.5 254t63 314.5z" />
<glyph unicode="&#xaa;" horiz-adv-x="655" d="M276 778q46 0 89 16t72 38.5t51.5 45t33.5 38.5l10 16v143h-204q-226 0 -226 -153q0 -56 50 -100t124 -44zM338 1393q110 0 172.5 -71t62.5 -206v-358h-41v112q-4 -5 -11 -14t-32 -32t-52.5 -40.5t-71 -32t-89.5 -14.5q-90 0 -152.5 57t-62.5 128q0 89 67 141.5t200 52.5 h204q0 236 -194 236q-161 0 -195 -123h-41q16 74 75 119t161 45z" />
<glyph unicode="&#xab;" horiz-adv-x="798" d="M328 72l-226 389l226 389h41l-226 -389l226 -389h-41zM655 72l-225 389l225 389h41l-225 -389l225 -389h-41z" />
<glyph unicode="&#xac;" horiz-adv-x="839" d="M696 430v256h-614v41h655v-297h-41z" />
<glyph unicode="&#xad;" horiz-adv-x="870" d="M788 625h-706v41h706v-41z" />
<glyph unicode="&#xae;" horiz-adv-x="1863" d="M696 891h318q90 0 152.5 -58.5t62.5 -136.5q0 -46 -18 -82t-43.5 -54t-51 -30t-43.5 -15l-18 -3l164 -256h-52l-153 246h-277v-246h-41v635zM1014 850h-277v-307h277q75 0 124.5 45t49.5 108t-49.5 108.5t-124.5 45.5zM1761 573q0 -173 -66.5 -329t-178.5 -267.5 t-264.5 -177t-319.5 -65.5t-319.5 65.5t-265 177t-179 267.5t-66.5 329t66.5 329.5t179 268t265 177t319.5 65.5t319.5 -65.5t264.5 -177t178.5 -268t66.5 -329.5zM1720 573q0 166 -63 314.5t-169.5 254.5t-251.5 168t-304 62t-304.5 -62t-252 -168t-169.5 -254.5 t-63 -314.5t63 -314.5t169.5 -254t252 -167.5t304.5 -62t304 62t251.5 167.5t169.5 254t63 314.5z" />
<glyph unicode="&#xaf;" horiz-adv-x="583" d="M61 1352v41h461v-41h-461z" />
<glyph unicode="&#xb0;" horiz-adv-x="675" d="M123 1147q0 -92 61.5 -153.5t153.5 -61.5t153.5 61.5t61.5 153.5t-61.5 153.5t-153.5 61.5t-153.5 -61.5t-61.5 -153.5zM594 1147q0 -107 -74.5 -181.5t-181.5 -74.5t-181.5 74.5t-74.5 181.5t74.5 181.5t181.5 74.5t181.5 -74.5t74.5 -181.5z" />
<glyph unicode="&#xb1;" horiz-adv-x="921" d="M440 676v381h41v-381h359v-41h-359v-420h359v-41h-758v41h358v420h-358v41h358z" />
<glyph unicode="&#xb2;" horiz-adv-x="593" d="M492 1208q0 64 -53 109t-142 45q-80 0 -129.5 -37.5t-65.5 -95.5h-41q13 73 76.5 123.5t159.5 50.5q104 0 169.5 -58t65.5 -137q0 -46 -23 -85t-60 -67t-82 -53.5t-89.5 -49.5t-81.5 -48.5t-60 -57t-23 -69.5h419v-41h-460v41q0 46 23 85t60 67t82 53.5t90 49.5t82 48.5 t60 57t23 69.5z" />
<glyph unicode="&#xb3;" horiz-adv-x="593" d="M297 768q90 0 142.5 46.5t52.5 117.5t-52.5 117.5t-142.5 46.5h-102v41l266 215h-379v41h440v-41l-266 -215h41q105 0 170 -59t65 -146t-65 -146t-170 -59q-96 0 -158 52t-78 132h41q16 -65 65 -104t130 -39z" />
<glyph unicode="&#xb4;" horiz-adv-x="450" d="M61 1229l308 174l20 -41l-307 -164z" />
<glyph unicode="&#xb5;" d="M164 -410v1332h41v-553q0 -174 95.5 -271.5t252.5 -97.5q69 0 132.5 27.5t104.5 66.5t72.5 78t45.5 66l14 28v656h41v-922h-41v184h-11q-5 -9 -15.5 -24t-45.5 -54t-74 -68.5t-99.5 -54t-123.5 -24.5q-74 0 -136.5 22t-98 53.5t-60.5 63.5t-34 54l-9 22h-10v-584h-41z " />
<glyph unicode="&#xb6;" horiz-adv-x="696" d="M102 1075q0 130 97 224t241 94h215v-41h-194v-1762h-41v1168q-131 0 -224.5 93.5t-93.5 223.5z" />
<glyph unicode="&#xb7;" horiz-adv-x="327" d="M123 717q0 15 13 28t28 13t28 -13t13 -28t-13 -28t-28 -13t-28 13t-13 28z" />
<glyph unicode="&#xb8;" horiz-adv-x="430" d="M260 0l-53 -113q70 -8 116 -56t46 -118q0 -71 -51.5 -122.5t-122.5 -51.5q-36 0 -69.5 15.5t-49.5 31.5l-15 15l29 28q4 -5 11.5 -13.5t34.5 -22t59 -13.5q54 0 93.5 39.5t39.5 93.5t-39.5 93.5t-93.5 39.5h-52l72 154h45z" />
<glyph unicode="&#xb9;" horiz-adv-x="327" d="M184 737v551l-4 -6q-5 -6 -11.5 -13.5t-16.5 -17.5t-23.5 -19t-29 -17t-36.5 -12.5t-43 -4.5v41q61 0 112.5 49.5t51.5 104.5h41v-656h-41z" />
<glyph unicode="&#xba;" horiz-adv-x="737" d="M655 1065q0 -143 -84 -235.5t-202 -92.5t-202.5 92.5t-84.5 235.5t84.5 235.5t202.5 92.5q119 0 202.5 -92t83.5 -236zM614 1065q0 127 -71 207t-174 80t-174.5 -80t-71.5 -207t71.5 -207t174.5 -80t174 80t71 207z" />
<glyph unicode="&#xbb;" horiz-adv-x="798" d="M696 461l-225 -389h-41l225 389l-225 389h41zM369 461l-226 -389h-41l226 389l-226 389h41z" />
<glyph unicode="&#xbc;" horiz-adv-x="1331" d="M1065 1393l-860 -1393h-51l860 1393h51zM266 737v551l-4 -6q-5 -6 -11.5 -13.5t-16.5 -17.5t-23.5 -19t-29 -17t-36.5 -12.5t-43 -4.5v41q61 0 112.5 49.5t51.5 104.5h41v-656h-41zM1147 0h-41v174h-348v41l225 440h41l-223 -440h305v154h41v-154h82v-41h-82v-174z" />
<glyph unicode="&#xbd;" horiz-adv-x="1361" d="M1065 1393l-860 -1393h-51l860 1393h51zM266 737v551l-4 -6q-5 -6 -11.5 -13.5t-16.5 -17.5t-23.5 -19t-29 -17t-36.5 -12.5t-43 -4.5v41q61 0 112.5 49.5t51.5 104.5h41v-656h-41zM1219 471q0 64 -53 109t-142 45q-80 0 -129.5 -37.5t-65.5 -95.5h-41q13 73 76.5 123.5 t159.5 50.5q104 0 170 -58t66 -137q0 -46 -23 -85t-60 -67t-82 -53.5t-90 -49.5t-82 -48.5t-60 -57t-23 -69.5h420v-41h-461v41q0 46 23 85t60 67t82 53.5t90 49.5t82 48.5t60 57t23 69.5z" />
<glyph unicode="&#xbe;" horiz-adv-x="1413" d="M1147 1393l-860 -1393h-51l860 1393h51zM1229 0h-41v174h-348v41l225 440h41l-223 -440h305v154h41v-154h82v-41h-82v-174zM317 768q90 0 142.5 46.5t52.5 117.5t-52.5 117.5t-142.5 46.5h-102v41l266 215h-379v41h441v-41l-267 -215h41q105 0 170.5 -59t65.5 -146 t-65.5 -146t-170.5 -59q-96 0 -157.5 52t-77.5 132h41q16 -65 64.5 -104t129.5 -39z" />
<glyph unicode="&#xbf;" horiz-adv-x="1054" d="M532 -420q175 0 283.5 79.5t157.5 217.5h41q-49 -152 -170.5 -245t-311.5 -93q-187 0 -308.5 109t-121.5 260q0 81 25 136t64.5 84.5t88 52t96.5 47.5t87.5 60.5t64.5 102.5t25 162h41q0 -79 -15.5 -139t-41.5 -97.5t-60 -65t-71.5 -45.5t-74.5 -34.5t-71 -37.5 t-60 -48.5t-41.5 -72.5t-15.5 -105q0 -135 108.5 -231.5t280.5 -96.5zM614 891q0 -15 -13 -28t-28 -13t-28 13t-13 28t13 28t28 13t28 -13t13 -28z" />
<glyph unicode="&#xc0;" horiz-adv-x="1392" d="M963 1393l337 -1393h-40l-97 399h-934l-96 -399h-41l338 1393h533zM461 1352l-221 -912h913l-221 912h-471zM543 1835l307 -174l-21 -31l-307 164z" />
<glyph unicode="&#xc1;" horiz-adv-x="1392" d="M963 1393l337 -1393h-40l-97 399h-934l-96 -399h-41l338 1393h533zM461 1352l-221 -912h913l-221 912h-471zM573 1661l308 174l20 -41l-307 -164z" />
<glyph unicode="&#xc2;" horiz-adv-x="1392" d="M963 1393l337 -1393h-40l-97 399h-934l-96 -399h-41l338 1393h533zM461 1352l-221 -912h913l-221 912h-471zM676 1853h41l225 -276h-51l-195 235l-194 -235h-51z" />
<glyph unicode="&#xc3;" horiz-adv-x="1392" d="M963 1393l337 -1393h-40l-97 399h-934l-96 -399h-41l338 1393h533zM461 1352l-221 -912h913l-221 912h-471zM584 1782q-82 0 -82 -113v-41h-41v41q0 74 33.5 114t89.5 40q34 0 61 -17t45 -41t34.5 -48t38 -41t46.5 -17q82 0 82 113v40h41v-40q0 -74 -33.5 -114t-89.5 -40 q-34 0 -61 17t-45 41t-34.5 48t-38 41t-46.5 17z" />
<glyph unicode="&#xc4;" horiz-adv-x="1392" d="M963 1393l337 -1393h-40l-97 399h-934l-96 -399h-41l338 1393h533zM461 1352l-221 -912h913l-221 912h-471zM492 1700q0 15 12.5 28t27.5 13t28 -13t13 -28t-13 -28t-28 -13t-27.5 13t-12.5 28zM799 1700q0 15 13 28t28 13t28 -13t13 -28t-13 -28t-28 -13t-28 13t-13 28z " />
<glyph unicode="&#xc5;" horiz-adv-x="1392" d="M963 1393l337 -1393h-40l-97 399h-934l-96 -399h-41l338 1393h533zM461 1352l-221 -912h913l-221 912h-471zM512 1761q0 77 54 131t130 54t130.5 -54t54.5 -131q0 -76 -54 -130t-131 -54q-76 0 -130 53.5t-54 130.5zM553 1761q0 -61 40.5 -102t102.5 -41t103 41t41 102 t-41 102.5t-103 41.5q-61 0 -102 -41t-41 -103z" />
<glyph unicode="&#xc6;" horiz-adv-x="1986" d="M1044 41h861v-41h-901v399h-775l-96 -399h-41l338 1393h1475v-41h-861v-625h676v-41h-676v-645zM461 1352l-221 -912h764v912h-543z" />
<glyph unicode="&#xc7;" horiz-adv-x="1556" d="M1464 379q-27 -86 -79 -161t-127.5 -137.5t-182 -100t-231.5 -41.5l-43 -93q70 -8 116 -56t46 -118t-52 -122t-123 -52q-36 0 -69.5 15.5t-48.5 30.5l-15 16l29 28q4 -5 11 -13.5t34 -22t59 -13.5q54 0 94 39.5t40 93.5t-40 93.5t-94 39.5h-51l62 136q-129 4 -254.5 67 t-220 163.5t-153 239t-58.5 285.5q0 150 60.5 291t158 242.5t226.5 163t261 61.5q122 0 227.5 -34.5t179.5 -92.5t123.5 -127t73.5 -145h-41q-24 68 -70 129.5t-114.5 114t-166.5 83.5t-212 31q-125 0 -246.5 -58t-213.5 -154t-148.5 -229.5t-56.5 -275.5t56.5 -275.5 t148.5 -229t213.5 -153.5t246.5 -58q123 0 224.5 31.5t174 88t123 126t82.5 153.5h41z" />
<glyph unicode="&#xc8;" horiz-adv-x="1239" d="M256 41h901v-41h-942v1393h942v-41h-901v-625h717v-41h-717v-645zM512 1833l307 -174l-20 -31l-307 164z" />
<glyph unicode="&#xc9;" horiz-adv-x="1239" d="M256 41h901v-41h-942v1393h942v-41h-901v-625h717v-41h-717v-645zM553 1659l307 174l21 -41l-308 -164z" />
<glyph unicode="&#xca;" horiz-adv-x="1239" d="M256 41h901v-41h-942v1393h942v-41h-901v-625h717v-41h-717v-645zM666 1864h41l225 -277h-51l-195 236l-194 -236h-52z" />
<glyph unicode="&#xcb;" horiz-adv-x="1239" d="M256 41h901v-41h-942v1393h942v-41h-901v-625h717v-41h-717v-645zM492 1710q0 15 12.5 28t27.5 13t28 -13t13 -28t-13 -28t-28 -13t-27.5 13t-12.5 28zM799 1710q0 15 13 28t28 13t28 -13t13 -28t-13 -28t-28 -13t-28 13t-13 28z" />
<glyph unicode="&#xcc;" horiz-adv-x="430" d="M236 1393v-1393h-41v1393h41zM-10 1812l307 -174l-21 -30l-307 164z" />
<glyph unicode="&#xcd;" horiz-adv-x="430" d="M246 1393v-1393h-41v1393h41zM133 1659l307 174l21 -41l-307 -164z" />
<glyph unicode="&#xce;" horiz-adv-x="471" d="M256 1393v-1393h-41v1393h41zM215 1884h41l225 -276h-51l-194 235l-195 -235h-51z" />
<glyph unicode="&#xcf;" horiz-adv-x="430" d="M236 1393v-1393h-41v1393h41zM20 1688q0 15 13 28t28 13t28 -13t13 -28t-13 -28t-28 -13t-28 13t-13 28zM328 1688q0 15 13 28t28 13t28 -13t13 -28t-13 -28t-28 -13t-28 13t-13 28z" />
<glyph unicode="&#xd0;" horiz-adv-x="1474" d="M1362 696q0 -203 -89 -361.5t-252.5 -246.5t-375.5 -88h-389v686h-174v41h174v666h389q212 0 375.5 -88.5t252.5 -247t89 -361.5zM1321 696q0 293 -185 474.5t-491 181.5h-348v-625h379v-41h-379v-645h348q306 0 491 181t185 474z" />
<glyph unicode="&#xd1;" horiz-adv-x="1474" d="M266 1393l953 -1332v1332h41v-1393h-52l-952 1331v-1331h-41v1393h51zM645 1812q-82 0 -82 -112v-41h-41v41q0 74 33.5 113.5t89.5 39.5q34 0 61 -17t45 -40.5t34.5 -47.5t38 -41t46.5 -17q82 0 82 112v41h41v-41q0 -74 -33.5 -113.5t-89.5 -39.5q-34 0 -61 17t-45 40.5 t-34.5 47.5t-38 41t-46.5 17z" />
<glyph unicode="&#xd2;" horiz-adv-x="1679" d="M113 696q0 154 59.5 295t158 242t232 161t277.5 60t277.5 -60t232 -161t158 -242t59.5 -295t-59.5 -295t-158 -241.5t-232 -160.5t-277.5 -60t-277.5 60t-232 160.5t-158 241.5t-59.5 295zM154 696q0 -146 55.5 -279.5t148.5 -228.5t219.5 -151.5t262.5 -56.5t262.5 56.5 t219.5 151.5t148.5 228.5t55.5 279.5t-55.5 279.5t-148.5 229t-219.5 152t-262.5 56.5t-262.5 -56.5t-219.5 -152t-148.5 -229t-55.5 -279.5zM686 1874l307 -174l-20 -31l-307 164z" />
<glyph unicode="&#xd3;" horiz-adv-x="1679" d="M113 696q0 154 59.5 295t158 242t232 161t277.5 60t277.5 -60t232 -161t158 -242t59.5 -295t-59.5 -295t-158 -241.5t-232 -160.5t-277.5 -60t-277.5 60t-232 160.5t-158 241.5t-59.5 295zM154 696q0 -146 55.5 -279.5t148.5 -228.5t219.5 -151.5t262.5 -56.5t262.5 56.5 t219.5 151.5t148.5 228.5t55.5 279.5t-55.5 279.5t-148.5 229t-219.5 152t-262.5 56.5t-262.5 -56.5t-219.5 -152t-148.5 -229t-55.5 -279.5zM717 1720l307 174l20 -41l-307 -163z" />
<glyph unicode="&#xd4;" horiz-adv-x="1679" d="M113 696q0 154 59.5 295t158 242t232 161t277.5 60t277.5 -60t232 -161t158 -242t59.5 -295t-59.5 -295t-158 -241.5t-232 -160.5t-277.5 -60t-277.5 60t-232 160.5t-158 241.5t-59.5 295zM154 696q0 -146 55.5 -279.5t148.5 -228.5t219.5 -151.5t262.5 -56.5t262.5 56.5 t219.5 151.5t148.5 228.5t55.5 279.5t-55.5 279.5t-148.5 229t-219.5 152t-262.5 56.5t-262.5 -56.5t-219.5 -152t-148.5 -229t-55.5 -279.5zM819 1905h41l225 -277h-51l-194 236l-195 -236h-51z" />
<glyph unicode="&#xd5;" horiz-adv-x="1679" d="M113 696q0 154 59.5 295t158 242t232 161t277.5 60t277.5 -60t232 -161t158 -242t59.5 -295t-59.5 -295t-158 -241.5t-232 -160.5t-277.5 -60t-277.5 60t-232 160.5t-158 241.5t-59.5 295zM154 696q0 -146 55.5 -279.5t148.5 -228.5t219.5 -151.5t262.5 -56.5t262.5 56.5 t219.5 151.5t148.5 228.5t55.5 279.5t-55.5 279.5t-148.5 229t-219.5 152t-262.5 56.5t-262.5 -56.5t-219.5 -152t-148.5 -229t-55.5 -279.5zM727 1812q-82 0 -82 -112v-41h-41v41q0 74 33.5 113.5t89.5 39.5q34 0 61 -17t45 -40.5t34.5 -47.5t38 -41t46.5 -17q82 0 82 112 v41h41v-41q0 -74 -33.5 -113.5t-89.5 -39.5q-34 0 -61 17t-45 40.5t-34.5 47.5t-38 41t-46.5 17z" />
<glyph unicode="&#xd6;" horiz-adv-x="1679" d="M113 696q0 154 59.5 295t158 242t232 161t277.5 60t277.5 -60t232 -161t158 -242t59.5 -295t-59.5 -295t-158 -241.5t-232 -160.5t-277.5 -60t-277.5 60t-232 160.5t-158 241.5t-59.5 295zM154 696q0 -146 55.5 -279.5t148.5 -228.5t219.5 -151.5t262.5 -56.5t262.5 56.5 t219.5 151.5t148.5 228.5t55.5 279.5t-55.5 279.5t-148.5 229t-219.5 152t-262.5 56.5t-262.5 -56.5t-219.5 -152t-148.5 -229t-55.5 -279.5zM645 1751q0 15 13 28t28 13t28 -13t13 -28t-13 -28t-28 -13t-28 13t-13 28zM952 1751q0 15 13 28t28 13t28 -13t13 -28t-13 -28 t-28 -13t-28 13t-13 28z" />
<glyph unicode="&#xd7;" horiz-adv-x="757" d="M655 891l-245 -246l245 -246l-30 -30l-246 245l-246 -245l-31 30l246 246l-246 246l31 31l246 -246l246 246z" />
<glyph unicode="&#xd8;" horiz-adv-x="1720" d="M133 696q0 154 59.5 295t158 242t232 161t277.5 60q76 0 146.5 -15t126.5 -40.5t106.5 -58.5t88.5 -69.5t70.5 -73t54 -69.5t36.5 -58.5t22 -40.5l7 -15l202 92v-45l-186 -84q6 -13 15 -37t23.5 -97.5t14.5 -146.5q0 -154 -59.5 -295t-158 -241.5t-232 -160.5t-277.5 -60 q-96 0 -184.5 24t-152.5 63t-119.5 85.5t-92 93t-62 85.5t-37.5 63l-11 24l-201 -90v45l186 84q-6 13 -15 37t-23.5 97t-14.5 146zM1546 696q0 64 -12 130t-24 100l-13 35l-1259 -568q4 -9 11 -23.5t33.5 -57.5t58 -82t85.5 -86.5t113.5 -82t144 -58t176.5 -23.5 q136 0 262.5 56.5t219.5 151.5t148.5 228.5t55.5 279.5zM174 696q0 -68 12 -134t24 -98l13 -32l1258 565q-4 9 -11 24t-33.5 58t-58 82.5t-85 87.5t-113 82.5t-144 58t-176.5 23.5q-136 0 -262.5 -56.5t-219.5 -152t-148.5 -229t-55.5 -279.5z" />
<glyph unicode="&#xd9;" horiz-adv-x="1474" d="M737 -20q218 0 350 139.5t132 382.5v891h41v-891q0 -258 -145 -410.5t-378 -152.5t-377.5 152.5t-144.5 410.5v891h41v-891q0 -243 131.5 -382.5t349.5 -139.5zM563 1843l307 -174l-20 -31l-307 164z" />
<glyph unicode="&#xda;" horiz-adv-x="1474" d="M737 -20q218 0 350 139.5t132 382.5v891h41v-891q0 -258 -145 -410.5t-378 -152.5t-377.5 152.5t-144.5 410.5v891h41v-891q0 -243 131.5 -382.5t349.5 -139.5zM614 1669l308 174l20 -41l-307 -164z" />
<glyph unicode="&#xdb;" horiz-adv-x="1474" d="M737 -20q218 0 350 139.5t132 382.5v891h41v-891q0 -258 -145 -410.5t-378 -152.5t-377.5 152.5t-144.5 410.5v891h41v-891q0 -243 131.5 -382.5t349.5 -139.5zM727 1874h41l225 -277h-51l-194 236l-195 -236h-51z" />
<glyph unicode="&#xdc;" horiz-adv-x="1474" d="M737 -20q218 0 350 139.5t132 382.5v891h41v-891q0 -258 -145 -410.5t-378 -152.5t-377.5 152.5t-144.5 410.5v891h41v-891q0 -243 131.5 -382.5t349.5 -139.5zM532 1679q0 15 13 28t28 13t28 -13t13 -28t-13 -28t-28 -13t-28 13t-13 28zM840 1679q0 15 13 28t28 13 t28 -13t13 -28t-13 -28t-28 -13t-28 13t-13 28z" />
<glyph unicode="&#xdd;" horiz-adv-x="1290" d="M1239 1393l-573 -922v-471h-41v471l-574 922h51l543 -881l543 881h51zM553 1649l307 174l21 -41l-308 -164z" />
<glyph unicode="&#xde;" horiz-adv-x="1290" d="M256 1300h266q195 0 345.5 -77.5t230.5 -209.5t80 -296q0 -122 -47 -229.5t-131 -186t-207.5 -123.5t-270.5 -45h-266v-174h-41v1516h41v-175zM522 1260h-266v-1086h266q139 0 255.5 41.5t194.5 114.5t121.5 172.5t43.5 214.5t-43.5 214.5t-121.5 172.5t-194.5 114.5 t-255.5 41.5z" />
<glyph unicode="&#xdf;" horiz-adv-x="1105" d="M860 1085q0 131 -90 219.5t-227 88.5t-227.5 -88.5t-90.5 -219.5v-1085h-41v1085q0 147 103 248t256 101t255.5 -101t102.5 -248q0 -54 -12.5 -101.5t-32.5 -79.5t-44 -58t-47.5 -41t-43.5 -25.5t-33 -13.5l-12 -4v-8q7 -1 18.5 -3.5t46 -13.5t65.5 -27t68.5 -46t65 -67 t46 -94t18.5 -124q0 -155 -116.5 -267t-283.5 -112h-123v41h123q152 0 255.5 99t103.5 239q0 147 -103 247.5t-256 100.5h-102v41h41q131 0 224 93t93 224z" />
<glyph unicode="&#xe0;" d="M922 0v184h-11q-5 -9 -15.5 -24t-45.5 -54t-74 -68.5t-99.5 -54t-123.5 -24.5q-84 0 -163.5 38.5t-141 104.5t-98.5 160t-37 199t37 199t98.5 160t141 104.5t163.5 38.5q63 0 123 -23.5t101 -56.5t72.5 -66t46.5 -57l15 -23h11v185h41v-922h-41zM922 266v389 q-5 11 -15 29t-44.5 64t-73.5 81t-103 64t-133 29q-102 0 -193.5 -59t-148.5 -166t-57 -236t57 -236t148.5 -166t193.5 -59q69 0 132.5 27.5t104.5 66.5t72.5 78t45.5 66zM420 1395l307 -174l-20 -31l-308 164z" />
<glyph unicode="&#xe1;" d="M922 0v184h-11q-5 -9 -15.5 -24t-45.5 -54t-74 -68.5t-99.5 -54t-123.5 -24.5q-84 0 -163.5 38.5t-141 104.5t-98.5 160t-37 199t37 199t98.5 160t141 104.5t163.5 38.5q63 0 123 -23.5t101 -56.5t72.5 -66t46.5 -57l15 -23h11v185h41v-922h-41zM922 266v389 q-5 11 -15 29t-44.5 64t-73.5 81t-103 64t-133 29q-102 0 -193.5 -59t-148.5 -166t-57 -236t57 -236t148.5 -166t193.5 -59q69 0 132.5 27.5t104.5 66.5t72.5 78t45.5 66zM440 1239l308 174l20 -41l-307 -164z" />
<glyph unicode="&#xe2;" d="M922 0v184h-11q-5 -9 -15.5 -24t-45.5 -54t-74 -68.5t-99.5 -54t-123.5 -24.5q-84 0 -163.5 38.5t-141 104.5t-98.5 160t-37 199t37 199t98.5 160t141 104.5t163.5 38.5q63 0 123 -23.5t101 -56.5t72.5 -66t46.5 -57l15 -23h11v185h41v-922h-41zM922 266v389 q-5 11 -15 29t-44.5 64t-73.5 81t-103 64t-133 29q-102 0 -193.5 -59t-148.5 -166t-57 -236t57 -236t148.5 -166t193.5 -59q69 0 132.5 27.5t104.5 66.5t72.5 78t45.5 66zM532 1444h41l226 -277h-51l-195 236l-195 -236h-51z" />
<glyph unicode="&#xe3;" d="M922 0v184h-11q-5 -9 -15.5 -24t-45.5 -54t-74 -68.5t-99.5 -54t-123.5 -24.5q-84 0 -163.5 38.5t-141 104.5t-98.5 160t-37 199t37 199t98.5 160t141 104.5t163.5 38.5q63 0 123 -23.5t101 -56.5t72.5 -66t46.5 -57l15 -23h11v185h41v-922h-41zM922 266v389 q-5 11 -15 29t-44.5 64t-73.5 81t-103 64t-133 29q-102 0 -193.5 -59t-148.5 -166t-57 -236t57 -236t148.5 -166t193.5 -59q69 0 132.5 27.5t104.5 66.5t72.5 78t45.5 66zM451 1352q-82 0 -82 -113v-41h-41v41q0 74 33.5 114t89.5 40q34 0 61 -17t45 -41t34.5 -48t38 -41 t46.5 -17q82 0 82 112v41h41v-41q0 -74 -33.5 -113.5t-89.5 -39.5q-34 0 -61 17t-45 41t-34.5 48t-38 41t-46.5 17z" />
<glyph unicode="&#xe4;" d="M922 0v184h-11q-5 -9 -15.5 -24t-45.5 -54t-74 -68.5t-99.5 -54t-123.5 -24.5q-84 0 -163.5 38.5t-141 104.5t-98.5 160t-37 199t37 199t98.5 160t141 104.5t163.5 38.5q63 0 123 -23.5t101 -56.5t72.5 -66t46.5 -57l15 -23h11v185h41v-922h-41zM922 266v389 q-5 11 -15 29t-44.5 64t-73.5 81t-103 64t-133 29q-102 0 -193.5 -59t-148.5 -166t-57 -236t57 -236t148.5 -166t193.5 -59q69 0 132.5 27.5t104.5 66.5t72.5 78t45.5 66zM358 1260q0 15 13 27.5t28 12.5t28 -12.5t13 -27.5t-13 -28t-28 -13t-28 13t-13 28zM666 1260 q0 15 13 27.5t28 12.5t28 -12.5t13 -27.5t-13 -28t-28 -13t-28 13t-13 28z" />
<glyph unicode="&#xe5;" d="M922 0v184h-11q-5 -9 -15.5 -24t-45.5 -54t-74 -68.5t-99.5 -54t-123.5 -24.5q-84 0 -163.5 38.5t-141 104.5t-98.5 160t-37 199t37 199t98.5 160t141 104.5t163.5 38.5q63 0 123 -23.5t101 -56.5t72.5 -66t46.5 -57l15 -23h11v185h41v-922h-41zM922 266v389 q-5 11 -15 29t-44.5 64t-73.5 81t-103 64t-133 29q-102 0 -193.5 -59t-148.5 -166t-57 -236t57 -236t148.5 -166t193.5 -59q69 0 132.5 27.5t104.5 66.5t72.5 78t45.5 66zM369 1341q0 77 54 131t130 54t130 -54t54 -131t-53.5 -130.5t-130.5 -53.5t-130.5 53.5t-53.5 130.5z M410 1341q0 -61 41 -102t102 -41t102 41t41 102q0 62 -41 103t-102 41t-102 -41t-41 -103z" />
<glyph unicode="&#xe6;" horiz-adv-x="1781" d="M840 276q-2 -7 -6 -18t-19.5 -44t-35 -63t-55 -66.5t-76 -63t-100.5 -44.5t-128 -18q-162 0 -255 76.5t-93 189.5q0 112 93.5 189.5t254.5 77.5h399q0 209 -86 319.5t-241 110.5q-65 0 -119 -18t-85.5 -43.5t-54 -51t-30.5 -43.5l-8 -18h-41q2 4 5 12t15.5 30.5 t28.5 42.5t44.5 45t61 43t81 30t102.5 12q65 0 119 -16.5t89.5 -42.5t63 -58t42 -63.5t24 -57.5t12.5 -43l2 -16h10q2 6 6 17t20 41.5t35.5 58.5t53.5 62.5t72 59t92.5 41.5t115.5 17q84 0 162 -37t137.5 -100t95 -153.5t35.5 -191.5l-30 -30h-789q0 -121 55 -225t147 -165 t198 -61q142 0 237.5 75.5t130.5 180.5h41q-34 -119 -143 -208t-266 -89q-63 0 -119.5 17.5t-96.5 45.5t-74 62t-55.5 67.5t-36.5 61.5t-22 45l-6 18h-10zM1249 922q-157 0 -273 -124.5t-116 -305.5h778q0 181 -116 305.5t-273 124.5zM420 0q172 0 285.5 124t113.5 327h-399 q-147 0 -227 -64.5t-80 -161.5t80 -161t227 -64z" />
<glyph unicode="&#xe7;" horiz-adv-x="1075" d="M983 256q-32 -113 -139 -200.5t-256 -94.5l-43 -94q70 -8 116 -56t46 -118t-52 -122t-123 -52q-36 0 -69.5 15.5t-48.5 30.5l-15 15l29 29q4 -5 11 -13.5t34 -22t59 -13.5q54 0 94 39.5t40 93.5t-40 93.5t-94 39.5h-51l62 133q-113 6 -211.5 72t-158.5 180t-60 250 q0 105 37.5 199t99 160t143.5 104.5t170 38.5q158 0 256.5 -73t132.5 -183h-41q-34 95 -119.5 155t-228.5 60q-165 0 -287 -133t-122 -328t122 -328t287 -133q143 0 244 76.5t135 179.5h41z" />
<glyph unicode="&#xe8;" horiz-adv-x="1095" d="M553 963q83 0 163.5 -38.5t141 -103.5t98 -157t37.5 -193l-30 -31h-809q0 -120 57 -222t151.5 -160t200.5 -58q143 0 244 76.5t135 179.5h41q-34 -118 -148 -207.5t-272 -89.5q-88 0 -170 38.5t-143.5 104.5t-99 160t-37.5 199t37 199.5t98.5 160t141 104t163.5 38.5z M553 922q-76 0 -148.5 -34.5t-128 -93t-89 -141t-33.5 -172.5h798q0 90 -33.5 172.5t-89 141t-128 93t-148.5 34.5zM420 1403l307 -174l-20 -31l-308 164z" />
<glyph unicode="&#xe9;" horiz-adv-x="1095" d="M553 963q83 0 163.5 -38.5t141 -103.5t98 -157t37.5 -193l-30 -31h-809q0 -120 57 -222t151.5 -160t200.5 -58q143 0 244 76.5t135 179.5h41q-34 -118 -148 -207.5t-272 -89.5q-88 0 -170 38.5t-143.5 104.5t-99 160t-37.5 199t37 199.5t98.5 160t141 104t163.5 38.5z M553 922q-76 0 -148.5 -34.5t-128 -93t-89 -141t-33.5 -172.5h798q0 90 -33.5 172.5t-89 141t-128 93t-148.5 34.5zM430 1219l307 174l21 -41l-307 -164z" />
<glyph unicode="&#xea;" horiz-adv-x="1095" d="M553 963q83 0 163.5 -38.5t141 -103.5t98 -157t37.5 -193l-30 -31h-809q0 -120 57 -222t151.5 -160t200.5 -58q143 0 244 76.5t135 179.5h41q-34 -118 -148 -207.5t-272 -89.5q-88 0 -170 38.5t-143.5 104.5t-99 160t-37.5 199t37 199.5t98.5 160t141 104t163.5 38.5z M553 922q-76 0 -148.5 -34.5t-128 -93t-89 -141t-33.5 -172.5h798q0 90 -33.5 172.5t-89 141t-128 93t-148.5 34.5zM532 1423h41l226 -276h-51l-195 235l-195 -235h-51z" />
<glyph unicode="&#xeb;" horiz-adv-x="1095" d="M553 963q83 0 163.5 -38.5t141 -103.5t98 -157t37.5 -193l-30 -31h-809q0 -120 57 -222t151.5 -160t200.5 -58q143 0 244 76.5t135 179.5h41q-34 -118 -148 -207.5t-272 -89.5q-88 0 -170 38.5t-143.5 104.5t-99 160t-37.5 199t37 199.5t98.5 160t141 104t163.5 38.5z M553 922q-76 0 -148.5 -34.5t-128 -93t-89 -141t-33.5 -172.5h798q0 90 -33.5 172.5t-89 141t-128 93t-148.5 34.5zM358 1260q0 15 13 27.5t28 12.5t28 -12.5t13 -27.5t-13 -28t-28 -13t-28 13t-13 28zM666 1260q0 15 13 27.5t28 12.5t28 -12.5t13 -27.5t-13 -28t-28 -13 t-28 13t-13 28z" />
<glyph unicode="&#xec;" horiz-adv-x="430" d="M-20 1403l307 -174l-21 -31l-307 164zM195 0v922h41v-922h-41z" />
<glyph unicode="&#xed;" horiz-adv-x="430" d="M123 1208l307 174l21 -41l-308 -163zM195 0v922h41v-922h-41z" />
<glyph unicode="&#xee;" horiz-adv-x="430" d="M195 0v922h41v-922h-41zM195 1413h41l225 -276h-51l-195 235l-195 -235h-51z" />
<glyph unicode="&#xef;" horiz-adv-x="389" d="M0 1239q0 15 13 28t28 13t28 -13t13 -28t-13 -28t-28 -13t-28 13t-13 28zM307 1239q0 15 13 28t28 13t28 -13t13 -28t-13 -28t-28 -13t-28 13t-13 28zM174 0v922h41v-922h-41z" />
<glyph unicode="&#xf0;" d="M625 1147l-21 31l141 108q-43 51 -161 178l30 31q129 -138 166 -182l142 110l20 -30l-139 -109q83 -106 126.5 -218t43.5 -255v-391q0 -206 -124 -333.5t-317 -127.5t-316.5 127.5t-123.5 333.5t123.5 333.5t316.5 127.5q66 0 123.5 -14t96 -36.5t70 -50t49.5 -55t30 -50 t17 -36.5l4 -14h10v186q0 132 -42.5 238.5t-121.5 207.5zM532 0q178 0 289 114.5t111 305.5t-111 305.5t-289 114.5t-288.5 -114.5t-110.5 -305.5t110.5 -305.5t288.5 -114.5z" />
<glyph unicode="&#xf1;" horiz-adv-x="1116" d="M963 553v-553h-41v553q0 167 -97 268t-252 101q-50 0 -97.5 -14.5t-83 -38.5t-67 -52.5t-53 -56.5t-37 -52t-23.5 -38l-7 -15v-655h-41v922h41v-185h10q5 9 15.5 24.5t45.5 54.5t74 68.5t99.5 54t123.5 24.5q170 0 280 -113.5t110 -296.5zM430 1372q-82 0 -82 -112v-41 h-41v41q0 74 33.5 113.5t89.5 39.5q34 0 61 -17t45 -41t34.5 -48t38 -41t46.5 -17q82 0 82 113v41h41v-41q0 -74 -33.5 -114t-89.5 -40q-34 0 -61 17t-45 41t-34.5 48t-38 41t-46.5 17z" />
<glyph unicode="&#xf2;" horiz-adv-x="1167" d="M1055 461q0 -140 -64 -256t-172 -181t-235 -65t-235 65t-172 181t-64 256t64 256t172 181t235 65t235 -65t172 -181t64 -256zM1014 461q0 197 -125.5 329t-304.5 132t-304.5 -132t-125.5 -329t125.5 -329t304.5 -132t304.5 132t125.5 329zM430 1382l307 -174l-20 -30 l-307 163z" />
<glyph unicode="&#xf3;" horiz-adv-x="1167" d="M1055 461q0 -140 -64 -256t-172 -181t-235 -65t-235 65t-172 181t-64 256t64 256t172 181t235 65t235 -65t172 -181t64 -256zM1014 461q0 197 -125.5 329t-304.5 132t-304.5 -132t-125.5 -329t125.5 -329t304.5 -132t304.5 132t125.5 329zM451 1229l307 174l20 -41 l-307 -164z" />
<glyph unicode="&#xf4;" horiz-adv-x="1167" d="M1055 461q0 -140 -64 -256t-172 -181t-235 -65t-235 65t-172 181t-64 256t64 256t172 181t235 65t235 -65t172 -181t64 -256zM1014 461q0 197 -125.5 329t-304.5 132t-304.5 -132t-125.5 -329t125.5 -329t304.5 -132t304.5 132t125.5 329zM573 1444h41l226 -277h-52 l-194 236l-195 -236h-51z" />
<glyph unicode="&#xf5;" horiz-adv-x="1167" d="M1055 461q0 -140 -64 -256t-172 -181t-235 -65t-235 65t-172 181t-64 256t64 256t172 181t235 65t235 -65t172 -181t64 -256zM1014 461q0 197 -125.5 329t-304.5 132t-304.5 -132t-125.5 -329t125.5 -329t304.5 -132t304.5 132t125.5 329zM471 1331q-82 0 -82 -112v-41 h-41v41q0 74 33.5 113.5t89.5 39.5q34 0 61 -17t45 -41t34.5 -48t38 -41t46.5 -17q82 0 82 113v41h41v-41q0 -74 -33.5 -114t-89.5 -40q-34 0 -61 17t-45 41t-34.5 48t-38 41t-46.5 17z" />
<glyph unicode="&#xf6;" horiz-adv-x="1167" d="M1055 461q0 -140 -64 -256t-172 -181t-235 -65t-235 65t-172 181t-64 256t64 256t172 181t235 65t235 -65t172 -181t64 -256zM1014 461q0 197 -125.5 329t-304.5 132t-304.5 -132t-125.5 -329t125.5 -329t304.5 -132t304.5 132t125.5 329zM379 1280q0 15 13 28t28 13 t28 -13t13 -28t-13 -28t-28 -13t-28 13t-13 28zM686 1280q0 15 13 28t28 13t28 -13t13 -28t-13 -28t-28 -13t-28 13t-13 28z" />
<glyph unicode="&#xf7;" horiz-adv-x="860" d="M778 625h-696v41h696v-41zM389 1014q0 15 13 28t28 13t28 -13t13 -28t-13 -28t-28 -13t-28 13t-13 28zM471 276q0 -15 -13 -27.5t-28 -12.5t-28 12.5t-13 27.5t13 28t28 13t28 -13t13 -28z" />
<glyph unicode="&#xf8;" horiz-adv-x="1177" d="M1055 461q0 -140 -64 -256t-172 -181t-235 -65q-65 0 -123.5 16t-100.5 41.5t-78 57t-59 62.5t-39 56.5t-23 41.5l-7 16l-154 -66v45l139 60q-26 80 -26 172q0 140 64 256t172 181t235 65q65 0 123.5 -16.5t100.5 -42.5t78 -57t59 -62.5t39 -57.5t23 -43l7 -16l164 69 v-45l-150 -63q27 -76 27 -168zM154 461q0 -36 5.5 -75t10.5 -60l6 -21l801 346q-2 6 -6 15.5t-20 37.5t-35 54t-52.5 57t-71.5 53.5t-92.5 38t-115.5 15.5q-179 0 -304.5 -132t-125.5 -329zM1014 461q0 36 -6 74t-12 57l-5 20l-801 -346q4 -11 12.5 -29t41 -63.5t73.5 -81 t112.5 -64t154.5 -28.5q179 0 304.5 132t125.5 329z" />
<glyph unicode="&#xf9;" d="M164 369v553h41v-553q0 -167 96.5 -268t251.5 -101q69 0 132.5 27.5t104.5 66.5t72.5 78t45.5 66l14 28v656h41v-922h-41v184h-11q-5 -9 -15.5 -24t-45.5 -54t-74 -68.5t-99.5 -54t-123.5 -24.5q-170 0 -279.5 113.5t-109.5 296.5zM410 1372l307 -174l-21 -31l-307 164z " />
<glyph unicode="&#xfa;" d="M164 369v553h41v-553q0 -167 96.5 -268t251.5 -101q69 0 132.5 27.5t104.5 66.5t72.5 78t45.5 66l14 28v656h41v-922h-41v184h-11q-5 -9 -15.5 -24t-45.5 -54t-74 -68.5t-99.5 -54t-123.5 -24.5q-170 0 -279.5 113.5t-109.5 296.5zM451 1178l307 174l20 -41l-307 -164z " />
<glyph unicode="&#xfb;" d="M164 369v553h41v-553q0 -167 96.5 -268t251.5 -101q69 0 132.5 27.5t104.5 66.5t72.5 78t45.5 66l14 28v656h41v-922h-41v184h-11q-5 -9 -15.5 -24t-45.5 -54t-74 -68.5t-99.5 -54t-123.5 -24.5q-170 0 -279.5 113.5t-109.5 296.5zM543 1423h41l225 -276h-51l-195 235 l-194 -235h-52z" />
<glyph unicode="&#xfc;" d="M164 369v553h41v-553q0 -167 96.5 -268t251.5 -101q69 0 132.5 27.5t104.5 66.5t72.5 78t45.5 66l14 28v656h41v-922h-41v184h-11q-5 -9 -15.5 -24t-45.5 -54t-74 -68.5t-99.5 -54t-123.5 -24.5q-170 0 -279.5 113.5t-109.5 296.5zM358 1239q0 15 13 28t28 13t28 -13 t13 -28t-13 -28t-28 -13t-28 13t-13 28zM666 1239q0 15 13 28t28 13t28 -13t13 -28t-13 -28t-28 -13t-28 13t-13 28z" />
<glyph unicode="&#xfd;" horiz-adv-x="983" d="M860 922h41l-225 -1024q-37 -173 -105.5 -250.5t-171.5 -77.5q-41 0 -79 10t-56 20l-18 11v41q7 -5 19.5 -11.5t52.5 -18t81 -11.5q179 0 236 287l20 102h-368l-205 922h41l194 -881h349zM389 1198l307 174l21 -41l-307 -164z" />
<glyph unicode="&#xfe;" horiz-adv-x="1136" d="M215 1393v-656h10q5 9 15.5 24.5t46 54.5t74 68.5t99.5 54t124 24.5q84 0 163.5 -38.5t141 -104.5t98.5 -160t37 -199t-37 -199t-98.5 -160t-141 -104.5t-163.5 -38.5q-63 0 -123 23t-101 56.5t-73 66.5t-47 56l-15 23h-10v-594h-41v1803h41zM215 657v-391q5 -11 15 -29 t44.5 -63.5t73.5 -81t103 -64t133 -28.5q102 0 193.5 59t148.5 166t57 236t-57 236t-148.5 166t-193.5 59q-69 0 -132.5 -27.5t-104.5 -66t-72.5 -77.5t-45.5 -67z" />
<glyph unicode="&#xff;" horiz-adv-x="983" d="M860 922h41l-225 -1024q-37 -173 -105.5 -250.5t-171.5 -77.5q-41 0 -79 10t-56 20l-18 11v41q7 -5 19.5 -11.5t52.5 -18t81 -11.5q179 0 236 287l20 102h-368l-205 922h41l194 -881h349zM297 1208q0 15 13 28t28 13t28 -13t13 -28t-13 -28t-28 -13t-28 13t-13 28z M604 1208q0 15 13 28t28 13t28 -13t13 -28t-13 -28t-28 -13t-28 13t-13 28z" />
<glyph unicode="&#x152;" horiz-adv-x="2058" d="M1116 41h860v-41h-1136q-217 0 -382.5 88t-255 246t-89.5 362t89.5 362t255 246.5t382.5 88.5h1136v-41h-860v-625h676v-41h-676v-645zM154 696q0 -293 187 -474t499 -181h235v1311h-235q-313 0 -499.5 -181t-186.5 -475z" />
<glyph unicode="&#x153;" horiz-adv-x="1894" d="M1362 963q84 0 162 -37t137.5 -100t95 -153.5t35.5 -191.5l-31 -30h-788v-13q3 -127 58 -228t145 -155.5t196 -54.5q142 0 238 76t131 180h41q-34 -119 -143.5 -208t-266.5 -89q-65 0 -123 18t-98.5 47t-75 64t-56 70t-36.5 64t-21 47l-6 18h-8q-2 -7 -5.5 -18.5t-18 -46 t-33 -65.5t-52 -68.5t-73 -65t-98 -46t-125.5 -18.5q-182 0 -306 138.5t-124 363.5t124 363.5t306 138.5q67 0 125.5 -18t98.5 -47t73 -64t52.5 -70t32.5 -64t18 -47l5 -18h8q2 7 6.5 18.5t20.5 46t36 65.5t54.5 68.5t73.5 65t95.5 46t119.5 18.5zM932 461 q0 210 -111.5 335.5t-277.5 125.5t-277.5 -125.5t-111.5 -335.5t111.5 -335.5t277.5 -125.5q162 0 272.5 119t116.5 319v23zM1362 922q-157 0 -273 -124.5t-116 -305.5h778q0 181 -116 305.5t-273 124.5z" />
<glyph unicode="&#x178;" horiz-adv-x="1290" d="M1239 1393l-573 -922v-471h-41v471l-574 922h51l543 -881l543 881h51zM451 1679q0 15 13 28t28 13t27.5 -13t12.5 -28t-12.5 -28t-27.5 -13t-28 13t-13 28zM758 1679q0 15 13 28t28 13t28 -13t13 -28t-13 -28t-28 -13t-28 13t-13 28z" />
<glyph unicode="&#x2c6;" horiz-adv-x="614" d="M287 1393h41l225 -277h-51l-195 236l-194 -236h-52z" />
<glyph unicode="&#x2dc;" horiz-adv-x="593" d="M184 1362q-82 0 -82 -113v-41h-41v41q0 74 33.5 114t89.5 40q34 0 61.5 -17t45.5 -41t34.5 -48t38 -41t46.5 -17q82 0 82 113v41h40v-41q0 -75 -33 -114.5t-89 -39.5q-34 0 -61.5 17t-45.5 41t-34.5 48t-38 41t-46.5 17z" />
<glyph unicode="&#x2000;" horiz-adv-x="973" />
<glyph unicode="&#x2001;" horiz-adv-x="1946" />
<glyph unicode="&#x2002;" horiz-adv-x="973" />
<glyph unicode="&#x2003;" horiz-adv-x="1946" />
<glyph unicode="&#x2004;" horiz-adv-x="648" />
<glyph unicode="&#x2005;" horiz-adv-x="486" />
<glyph unicode="&#x2006;" horiz-adv-x="324" />
<glyph unicode="&#x2007;" horiz-adv-x="324" />
<glyph unicode="&#x2008;" horiz-adv-x="243" />
<glyph unicode="&#x2009;" horiz-adv-x="389" />
<glyph unicode="&#x200a;" horiz-adv-x="108" />
<glyph unicode="&#x2010;" horiz-adv-x="870" d="M788 625h-706v41h706v-41z" />
<glyph unicode="&#x2011;" horiz-adv-x="870" d="M788 625h-706v41h706v-41z" />
<glyph unicode="&#x2012;" horiz-adv-x="870" d="M788 625h-706v41h706v-41z" />
<glyph unicode="&#x2013;" horiz-adv-x="1198" d="M1116 522h-1034v41h1034v-41z" />
<glyph unicode="&#x2014;" horiz-adv-x="1495" d="M1413 522h-1331v41h1331v-41z" />
<glyph unicode="&#x2018;" horiz-adv-x="337" d="M205 1188q0 -15 -13 -28t-28 -13t-28 13t-13 28q0 9 2.5 19t4.5 16l3 6l82 174h21l-62 -174q3 -1 8.5 -3.5t14 -13t8.5 -24.5z" />
<glyph unicode="&#x2019;" horiz-adv-x="337" d="M133 1362q0 15 13 28t28 13t28 -13t13 -28q0 -9 -2.5 -19t-4.5 -16l-3 -6l-82 -174h-21l62 174q-3 1 -8.5 3.5t-14 13t-8.5 24.5z" />
<glyph unicode="&#x201a;" horiz-adv-x="337" d="M133 41q0 15 13 28t28 13t28 -13t13 -28q0 -9 -2.5 -19t-4.5 -16l-3 -6l-82 -174h-21l62 174q-3 1 -8.5 3.5t-14 13t-8.5 24.5z" />
<glyph unicode="&#x201c;" horiz-adv-x="563" d="M205 1188q0 -15 -13 -28t-28 -13t-28 13t-13 28q0 9 2.5 19t4.5 16l3 6l82 174h21l-62 -174q3 -1 8.5 -3.5t14 -13t8.5 -24.5zM430 1188q0 -15 -13 -28t-28 -13t-28 13t-13 28q0 9 2.5 19t5.5 16l2 6l82 174h21l-62 -174q3 -1 8.5 -3.5t14 -13t8.5 -24.5z" />
<glyph unicode="&#x201d;" horiz-adv-x="563" d="M133 1362q0 15 13 28t28 13t28 -13t13 -28q0 -9 -2.5 -19t-4.5 -16l-3 -6l-82 -174h-21l62 174q-3 1 -8.5 3.5t-14 13t-8.5 24.5zM358 1362q0 15 13 28t28 13t28 -13t13 -28q0 -9 -2.5 -19t-5.5 -16l-2 -6l-82 -174h-20l61 174q-3 1 -8.5 3.5t-14 13t-8.5 24.5z" />
<glyph unicode="&#x201e;" horiz-adv-x="563" d="M133 41q0 15 13 28t28 13t28 -13t13 -28q0 -9 -2.5 -19t-4.5 -16l-3 -6l-82 -174h-21l62 174q-3 1 -8.5 3.5t-14 13t-8.5 24.5zM358 41q0 15 13 28t28 13t28 -13t13 -28q0 -9 -2.5 -19t-5.5 -16l-2 -6l-82 -174h-20l61 174q-3 1 -8.5 3.5t-14 13t-8.5 24.5z" />
<glyph unicode="&#x2022;" horiz-adv-x="409" d="M287 614q0 -38 -22 -60t-60 -22t-60 22t-22 60t22 60t60 22t60 -22t22 -60z" />
<glyph unicode="&#x2026;" horiz-adv-x="1044" d="M123 41q0 15 13 28t28 13t28 -13t13 -28t-13 -28t-28 -13t-28 13t-13 28zM481 41q0 15 13 28t28 13t28 -13t13 -28t-13 -28t-28 -13t-28 13t-13 28zM840 41q0 15 13 28t28 13t28 -13t13 -28t-13 -28t-28 -13t-28 13t-13 28z" />
<glyph unicode="&#x202f;" horiz-adv-x="389" />
<glyph unicode="&#x2039;" horiz-adv-x="665" d="M102 471l430 451l31 -31l-409 -420l409 -420l-31 -31z" />
<glyph unicode="&#x203a;" horiz-adv-x="665" d="M133 922l430 -451l-430 -451l-31 31l410 420l-410 420z" />
<glyph unicode="&#x205f;" horiz-adv-x="486" />
<glyph unicode="&#x20ac;" horiz-adv-x="1638" d="M911 -61q-165 0 -308.5 81t-241 217t-140.5 306h-180v41h174l-1 2q0 1 -0.5 4.5t-1 8t-1.5 11t-2 14t-1.5 16t-1 17.5t-1 19t-0.5 20q0 27 2.5 55.5t4.5 42.5l3 15h-174v41h180q43 170 140.5 306t241 217t308.5 81q98 0 186.5 -23t155.5 -61.5t121 -90t88.5 -108 t53.5 -116.5h-41q-19 54 -51.5 104t-82.5 97t-112 81.5t-144 55t-174 20.5q-113 0 -217 -43.5t-186.5 -119.5t-145.5 -178.5t-98 -221.5h627v-41h-635q-10 -52 -10 -113q0 -27 2.5 -55t5.5 -43l2 -14h635v-41h-627q35 -119 98 -221.5t145.5 -178.5t186.5 -119.5t217 -43.5 q123 0 225 31.5t174.5 88t123 126t82.5 153.5h40q-28 -87 -82 -164t-132.5 -140t-190 -99.5t-240.5 -36.5z" />
<glyph unicode="&#x2122;" horiz-adv-x="1382" d="M1219 1341l-277 -393l-276 393v-563h-41v615h51l266 -379l266 379h52v-615h-41v563zM20 1352v41h512v-41h-235v-574h-41v574h-236z" />
<glyph unicode="&#x25fc;" horiz-adv-x="921" d="M0 922h922v-922h-922v922z" />
</font>
</defs>
</svg>
