<?xml version="1.0" standalone="no"?>
<!DOCTYPE svg PUBLIC "-//W3C//DTD SVG 1.1//EN" "http://www.w3.org/Graphics/SVG/1.1/DTD/svg11.dtd" >
<svg xmlns="http://www.w3.org/2000/svg">
<metadata></metadata>
<defs>
<font id="tt_firsblack_italic" horiz-adv-x="1228" >
<font-face units-per-em="2048" ascent="1638" descent="-410" />
<missing-glyph horiz-adv-x="409" />
<glyph horiz-adv-x="0" />
<glyph horiz-adv-x="0" />
<glyph horiz-adv-x="682" />
<glyph unicode="&#xd;" horiz-adv-x="0" />
<glyph unicode=" "  horiz-adv-x="409" />
<glyph unicode="&#x09;" horiz-adv-x="409" />
<glyph unicode="&#xa0;" horiz-adv-x="409" />
<glyph unicode="!" horiz-adv-x="675" d="M672 1434l-84 -594l-127 -328h-307l-37 328l84 594h471zM473 174q-10 -85 -84.5 -150t-159.5 -65t-141 65t-45 150q12 85 86.5 150t159.5 65t140.5 -65t43.5 -150z" />
<glyph unicode="&#x22;" horiz-adv-x="901" d="M508 1434l-35 -246l-96 -246h-225l-27 246l35 246h348zM938 1434l-35 -246l-96 -246h-225l-27 246l35 246h348z" />
<glyph unicode="#" horiz-adv-x="1525" d="M1397 1126h123l-50 -348h-225l-49 -123h143l-47 -348h-245l-125 -307h-410l125 307h-102l-125 -307h-410l125 307h-123l47 348h225l50 123h-144l49 348h246l125 308h410l-125 -308h102l125 308h410zM786 655l50 123h-103l-49 -123h102z" />
<glyph unicode="$" horiz-adv-x="1126" d="M281 -41l24 184q-137 31 -220.5 138t-90.5 272l375 41q20 -52 62 -87.5t106 -35.5q57 0 87 17.5t33 43.5q2 14 -22 25t-64.5 18.5t-92 19.5t-105.5 26.5t-103.5 41.5t-86.5 62t-54.5 91t-7.5 126q17 120 111 209.5t233 128.5l29 195h348l-27 -185q273 -63 307 -368 l-374 -41q-28 82 -121 82q-42 0 -64 -12t-24 -29q-2 -14 22 -25t64.5 -18.5t92 -19.5t105 -26.5t103 -41.5t86.5 -62t55 -91t8 -126q-19 -124 -132.5 -222.5t-287.5 -137.5l-26 -193h-348z" />
<glyph unicode="%" horiz-adv-x="1617" d="M465 1126q6 42 -4 62t-27 20q-40 0 -51 -82q-6 -42 3 -62t26 -20t32 20t21 62zM772 1126q-20 -138 -139.5 -243t-257.5 -105t-228.5 105t-70.5 243q19 138 139 243.5t258 105.5t228 -105.5t71 -243.5zM1532 1434l-1020 -1434h-430l1020 1434h430zM1231 307q6 42 -4 62 t-27 20q-40 0 -51 -82q-7 -42 2.5 -62t26.5 -20t31.5 20t21.5 62zM1538 307q-20 -138 -139.5 -243t-257.5 -105t-228.5 105t-70.5 243q19 138 138 243t257 105t229 -105t72 -243z" />
<glyph unicode="&#x26;" horiz-adv-x="1443" d="M362 840l-96 184l58 410h983l-62 -430h-409l-2 -21l569 -983h-553l-57 102q-6 -7 -17.5 -18t-51.5 -39t-84.5 -49.5t-115.5 -39t-145 -17.5q-130 0 -230.5 60.5t-148 159t-31.5 210.5q10 71 37 134t62 107.5t75.5 81.5t78.5 60t69 38.5t50 21.5l19 7zM543 369 q18 0 37 7.5t28 15.5l10 7l-71 144q-7 -3 -18.5 -10t-32.5 -31t-25 -51q-3 -31 19 -56.5t53 -25.5z" />
<glyph unicode="'" horiz-adv-x="471" d="M508 1434l-35 -246l-96 -246h-225l-27 246l35 246h348z" />
<glyph unicode="(" horiz-adv-x="839" d="M492 594q-8 -56 -8.5 -108t8 -98.5t18.5 -84.5t31 -78.5t36 -68t44 -64.5t45 -56.5t47 -55.5l-254 -349q-54 32 -109 79.5t-112 115.5t-101.5 148.5t-79 178.5t-43 207t5.5 234q20 141 77.5 276.5t132.5 239.5t165.5 195t173.5 151.5t160 99.5l156 -348 q-48 -42 -71.5 -63.5t-68.5 -66t-70 -76t-60 -82t-55.5 -96.5t-39.5 -106t-28 -124z" />
<glyph unicode=")" horiz-adv-x="839" d="M307 594q8 56 8.5 108t-8 98t-18.5 85t-30 78.5t-36 68t-44 64t-45.5 57t-47.5 55.5l254 348q55 -32 110 -79.5t112 -115t101.5 -148t78.5 -178.5t42.5 -207t-6.5 -234q-20 -141 -77 -276.5t-131.5 -240t-165 -195.5t-173.5 -151.5t-161 -99.5l-156 349q46 40 72 63.5 t69.5 66.5t69.5 75.5t60 82t55 96t39.5 106.5t27.5 124z" />
<glyph unicode="*" horiz-adv-x="778" d="M496 696l-88 164l-138 -164l-194 144l123 143h-123l37 266h215l26 185h267l-27 -185h215l-37 -266h-123l82 -143z" />
<glyph unicode="+" horiz-adv-x="1003" d="M330 819l39 277h368l-39 -277h256l-53 -368h-256l-39 -277h-368l38 277h-256l54 368h256z" />
<glyph unicode="," horiz-adv-x="552" d="M-33 -225l111 205q-5 2 -12.5 7t-26 23t-32 38.5t-22 54.5t-3.5 71q12 85 86 150t159 65t141 -65t44 -150q-4 -32 -15 -60t-21 -40l-9 -13l-236 -286h-164z" />
<glyph unicode="-" horiz-adv-x="942" d="M840 451h-820l54 368h819z" />
<glyph unicode="." horiz-adv-x="552" d="M412 174q-10 -85 -84.5 -150t-159.5 -65t-141 65t-45 150q12 85 86 150t159 65t141 -65t44 -150z" />
<glyph unicode="/" horiz-adv-x="962" d="M-102 0l692 1434h471l-692 -1434h-471z" />
<glyph unicode="0" horiz-adv-x="1556" d="M530 717q-23 -160 37.5 -254t159.5 -94t185 94t110 254q22 160 -38 254t-159 94t-186 -94t-109 -254zM1493 717q-23 -165 -101 -311t-190 -247.5t-252 -160.5t-284 -59t-267.5 59t-206 160.5t-119.5 247.5t-14 311t101 311t189.5 247.5t251.5 160.5t284 59t267.5 -59 t206.5 -160.5t120 -247.5t14 -311z" />
<glyph unicode="1" horiz-adv-x="839" d="M406 1434h430l-201 -1434h-471l129 922h-225l38 286q104 0 187 65t113 161z" />
<glyph unicode="2" horiz-adv-x="1372" d="M571 430h676l-59 -430h-1229l45 328q13 88 56 163t103.5 126.5t135 96t149.5 73t147 56t128 47.5t91.5 44t39.5 49q3 25 -25.5 53.5t-64.5 28.5q-74 0 -127.5 -39.5t-77.5 -103.5l-463 61q29 100 95 192t156.5 163.5t209.5 114t246 42.5q134 0 245 -42t179.5 -111 t101 -157.5t19.5 -180.5q-12 -85 -48.5 -155t-87 -116.5t-113.5 -84.5t-127.5 -61.5t-129 -45t-117.5 -36.5t-95 -34.5t-59 -40.5z" />
<glyph unicode="3" horiz-adv-x="1310" d="M432 901l199 103l4 20h-430l57 410h1045l-50 -349l-313 -184l-2 -20q15 -3 39 -9.5t83 -38t101 -76t69.5 -131.5t12.5 -196q-13 -93 -71 -180.5t-150 -157t-223.5 -111.5t-280.5 -42q-127 0 -234 42.5t-177.5 114t-110 163.5t-41.5 192l481 61q6 -64 48 -103.5t116 -39.5 q60 0 107 38t53 85q6 48 -29.5 85t-95.5 37h-246z" />
<glyph unicode="4" horiz-adv-x="1392" d="M1106 0h-471l29 205h-697l60 430l522 799h512l-522 -799h184l35 246h471l-35 -246h143l-59 -430h-143z" />
<glyph unicode="5" horiz-adv-x="1331" d="M639 614h-492l238 820h922l-56 -390h-532l-21 -81h31q180 0 306.5 -68.5t180.5 -184t33 -259.5q-14 -100 -72.5 -192t-150.5 -163.5t-223.5 -114t-280.5 -42.5q-127 0 -234 42.5t-177.5 114t-110 163.5t-41.5 192l481 61q6 -64 48 -103.5t116 -39.5q60 0 107 38t53 85 q6 48 -29.5 85t-95.5 37z" />
<glyph unicode="6" horiz-adv-x="1310" d="M651 1434h512l-348 -430q130 -10 238 -86t163.5 -194t38.5 -243q-22 -149 -115.5 -272t-247.5 -196.5t-339 -73.5q-281 0 -430 163.5t-113 419.5q10 68 40.5 137.5t55.5 104.5l25 35zM764 481q6 54 -27.5 93.5t-87.5 39.5t-99.5 -39.5t-51.5 -93.5q-8 -54 25 -93.5 t87 -39.5t100.5 39.5t53.5 93.5z" />
<glyph unicode="7" horiz-adv-x="1146" d="M512 0h-522l628 983l3 21h-543l61 430h1086l-58 -410z" />
<glyph unicode="8" horiz-adv-x="1351" d="M563 -61q-141 0 -256.5 42t-186 110t-103.5 154t-21 175q8 52 28 99t46.5 80t57 61t59 45.5t52 30t37.5 17.5l15 5l2 20q-7 3 -18.5 10t-39.5 32.5t-48 56.5t-32.5 84.5t-4.5 113.5q11 74 63 148t132.5 135t196 99t240.5 38q126 0 230.5 -38t168.5 -99t95 -135t20 -148 q-8 -60 -34 -113t-58 -85t-62 -56t-50 -33l-21 -10l-2 -20q10 -3 25.5 -10t53.5 -35t65.5 -63t45 -96.5t7.5 -133.5q-12 -89 -69.5 -175t-147.5 -154t-217.5 -110t-268.5 -42zM625 369q64 0 107 29t48 63t-30.5 63t-100.5 29q-64 0 -107 -29t-48 -63t30.5 -63t100.5 -29z M795 993q3 24 -19.5 48t-52.5 24t-59.5 -24t-32.5 -48t19 -47.5t52 -23.5t60 23.5t33 47.5z" />
<glyph unicode="9" horiz-adv-x="1310" d="M655 0h-512l346 430q-97 7 -184.5 54t-147.5 118t-90 163.5t-16 186.5q15 111 74 210t149.5 173t214.5 117t263 43q186 0 318 -75.5t189.5 -208t34.5 -300.5q-9 -68 -39 -137t-55 -104l-26 -35zM543 952q-8 -54 26 -93.5t88 -39.5t99.5 39.5t52.5 93.5t-27 93.5t-88 39.5 t-98.5 -39.5t-52.5 -93.5z" />
<glyph unicode=":" horiz-adv-x="552" d="M412 174q-10 -85 -84.5 -150t-159.5 -65t-141 65t-45 150q12 85 86 150t159 65t141 -65t44 -150zM502 809q-12 -85 -86.5 -150t-159.5 -65t-140.5 65t-43.5 150t86 150t159 65t141 -65t44 -150z" />
<glyph unicode=";" horiz-adv-x="552" d="M502 809q-12 -85 -86.5 -150t-159.5 -65t-140.5 65t-43.5 150t86 150t159 65t141 -65t44 -150zM-33 -225l111 205q-5 2 -12.5 7t-26 23t-32 38.5t-22 54.5t-3.5 71q12 85 86 150t159 65t141 -65t44 -150q-4 -32 -15 -60t-21 -40l-9 -13l-236 -286h-164z" />
<glyph unicode="&#x3c;" horiz-adv-x="1064" d="M881 0l-885 276l61 431l961 276l-51 -369l-488 -112l-2 -21l455 -112z" />
<glyph unicode="=" horiz-adv-x="983" d="M831 246h-819l47 327h820zM889 655h-819l47 328h819z" />
<glyph unicode="&#x3e;" horiz-adv-x="1064" d="M938 276l-958 -276l51 369l487 112l2 21l-454 112l51 369l882 -276z" />
<glyph unicode="?" d="M698 174q-10 -85 -84 -150t-159 -65t-141.5 65t-45.5 150q12 85 86.5 150t159.5 65t140.5 -65t43.5 -150zM727 512h-389q10 72 42.5 131t74 94.5t88 66t85.5 50t66.5 42.5t30.5 46q6 46 -18 74t-70 28q-89 0 -137 -102l-463 62q79 210 252 340.5t409 130.5 q108 0 199.5 -25t156 -69t108 -101t60 -122.5t7.5 -133.5q-10 -71 -37.5 -128t-65 -94t-82 -67t-91.5 -54t-88.5 -47t-79 -54t-58.5 -68z" />
<glyph unicode="@" horiz-adv-x="1658" d="M1028 328h-123l8 61h-20q-2 -3 -6 -8.5t-19.5 -20t-34 -25t-49.5 -19.5t-65 -9q-71 0 -135.5 48t-100.5 129.5t-24 170.5q20 135 133 242t223 107q34 0 63 -8.5t45 -20.5t27 -24t15 -21l4 -8h20l8 61h226l-52 -369q40 19 79 67.5t48 117.5q9 62 -12.5 120.5t-69 104.5 t-126 74t-175.5 28q-130 0 -253.5 -66t-206 -175t-99.5 -230q-16 -121 35.5 -230t156 -175t234.5 -66q91 0 187 26t146 52l50 25l-45 -328q-7 -3 -20 -8.5t-54.5 -20t-84 -25t-104 -19.5t-118.5 -9q-165 0 -308.5 64.5t-238 170.5t-139.5 249t-24 294q22 151 107.5 294 t209.5 249.5t285.5 171t326.5 64.5q172 0 309 -50.5t220.5 -136.5t120 -201.5t18.5 -246.5q-13 -91 -65.5 -177t-131 -151t-184 -104t-217.5 -39zM909 655q5 31 -16.5 56.5t-52.5 25.5t-61 -25.5t-34 -56.5q-3 -31 19 -56.5t53 -25.5t60 25.5t32 56.5z" />
<glyph unicode="A" horiz-adv-x="1536" d="M1286 1434l148 -1434h-471l-21 225h-491l-82 -225h-471l548 1434h840zM899 655l-33 349h-123l-131 -349h287z" />
<glyph unicode="B" horiz-adv-x="1515" d="M201 1434h686q129 0 230.5 -31.5t159.5 -83t84.5 -114.5t16.5 -130q-7 -49 -30 -91t-50.5 -67.5t-53.5 -43.5t-44 -25l-18 -8l-2 -21q7 -2 18 -5.5t43 -18t60.5 -32t61.5 -49.5t55 -69t33 -90.5t3 -114.5q-12 -89 -62 -168.5t-130 -140t-197.5 -96t-255.5 -35.5h-809z M524 389h338q38 0 69.5 27t37.5 65q5 38 -18.5 65t-61.5 27h-338zM831 1044h-215l-14 -102h215q24 0 40.5 14t19.5 37t-10 37t-36 14z" />
<glyph unicode="C" horiz-adv-x="1638" d="M788 369q113 0 190 48t142 136l463 -61q-37 -102 -115 -199t-184.5 -177t-247 -128.5t-288.5 -48.5q-165 0 -308 64.5t-237.5 170.5t-139.5 249t-24 294t106 294t209.5 249t286 170.5t326.5 64.5q141 0 257.5 -42t194.5 -114.5t127 -162.5t66 -193l-479 -61 q-45 73 -96.5 108t-149.5 35q-125 0 -241.5 -106t-135.5 -242q-20 -136 66.5 -242t211.5 -106z" />
<glyph unicode="D" horiz-adv-x="1515" d="M201 1434h594q165 0 303 -57.5t226 -155t128.5 -229t20.5 -275.5t-97.5 -275.5t-193 -229t-269.5 -155t-319 -57.5h-594zM737 1024h-123l-86 -614h123q123 0 227 92t123 215q17 123 -62 215t-202 92z" />
<glyph unicode="E" horiz-adv-x="1372" d="M528 410h758l-57 -410h-1229l201 1434h1229l-58 -410h-758l-18 -123h594l-51 -369h-594z" />
<glyph unicode="F" horiz-adv-x="1331" d="M532 451l-61 -451h-471l201 1434h1208l-57 -410h-738l-22 -164h573l-59 -409h-574z" />
<glyph unicode="G" horiz-adv-x="1658" d="M748 -61q-165 0 -308 64.5t-237.5 170.5t-139.5 249t-24 294t106 294t209.5 249t286 170.5t326.5 64.5q141 0 257.5 -42t194.5 -114.5t127 -162.5t66 -193l-479 -61q-45 73 -96.5 108t-149.5 35q-125 0 -241.5 -106t-135.5 -242q-20 -136 66.5 -242t211.5 -106 q55 0 108 15.5t79 30.5l26 15l3 21h-226l49 348h799l-16 -123q-19 -136 -99.5 -270.5t-196.5 -237t-266 -166t-300 -63.5z" />
<glyph unicode="H" horiz-adv-x="1556" d="M0 0l201 1434h471l-72 -512h410l71 512h471l-200 -1434h-471l67 492h-409l-68 -492h-471z" />
<glyph unicode="I" horiz-adv-x="675" d="M672 1434l-201 -1434h-471l201 1434h471z" />
<glyph unicode="J" horiz-adv-x="1331" d="M1327 1434l-129 -922q-36 -250 -233 -411.5t-484 -161.5q-96 0 -179.5 25.5t-145.5 71t-107 107t-68 134.5t-24 153l465 102q4 -76 41.5 -119.5t99.5 -43.5t108.5 41t55.5 102l129 922h471z" />
<glyph unicode="K" horiz-adv-x="1536" d="M942 0l-252 543l-166 -154l-53 -389h-471l201 1434h471l-62 -430l451 430h573l-569 -553l410 -881h-533z" />
<glyph unicode="L" horiz-adv-x="1269" d="M510 430h696l-59 -430h-1167l200 1434h471z" />
<glyph unicode="M" horiz-adv-x="1884" d="M1368 1434h512l-201 -1434h-471l115 819h-20l-406 -409l-291 409h-20l-115 -819h-471l201 1434h512l272 -390z" />
<glyph unicode="N" horiz-adv-x="1556" d="M973 799h18l90 635h471l-200 -1434h-512l-260 635h-21l-88 -635h-471l201 1434h512z" />
<glyph unicode="O" horiz-adv-x="1720" d="M510 717q-20 -138 70.5 -243t228.5 -105t257.5 105t139.5 243q19 138 -71 243t-228 105t-258 -105t-139 -243zM1677 717q-21 -151 -106.5 -294t-210 -249t-286 -170.5t-326.5 -64.5t-308 64.5t-237.5 170.5t-139.5 249t-24 294t106 294t209.5 249t286 170.5t326.5 64.5 t308.5 -64.5t238 -170.5t139.5 -249t24 -294z" />
<glyph unicode="P" horiz-adv-x="1536" d="M922 1024h-308l-41 -287h308q54 0 104.5 45t58.5 99t-30 98.5t-92 44.5zM201 1434h778q186 0 316.5 -72t186.5 -197.5t34 -283.5q-17 -118 -74.5 -220t-146.5 -175.5t-211 -115.5t-261 -42h-307l-45 -328h-471z" />
<glyph unicode="Q" horiz-adv-x="1740" d="M1497 317l178 -194l-375 -328l-192 225q-17 -9 -48.5 -22.5t-126 -36t-185.5 -22.5q-165 0 -308 64.5t-237.5 170.5t-139.5 249t-24 294t106 294t209.5 249t286 170.5t326.5 64.5t308.5 -64.5t238 -170.5t139.5 -249t24 -294q-10 -69 -32 -135.5t-46.5 -112t-48 -81.5 t-38.5 -54zM510 717q-20 -138 70.5 -243t228.5 -105t257.5 105t139.5 243q19 138 -71 243t-228 105t-258 -105t-139 -243z" />
<glyph unicode="R" horiz-adv-x="1515" d="M1174 492l198 -492h-502l-141 389h-205l-53 -389h-471l201 1434h757q181 0 307 -69.5t180 -189.5t32 -274q-9 -63 -30.5 -119t-48.5 -96.5t-58 -74.5t-60.5 -55t-53 -36t-38.5 -22zM901 1024h-287l-34 -246h286q46 0 90 38.5t50 84.5q7 46 -26 84.5t-79 38.5z" />
<glyph unicode="S" horiz-adv-x="1372" d="M823 471q3 19 -22 34t-68.5 26.5t-100 23.5t-118.5 29t-123.5 39t-114.5 57.5t-91.5 81t-56 113t-5.5 149.5q13 93 67 177.5t139.5 150t209 104.5t264.5 39q127 0 231.5 -39t173.5 -107t110 -156t50 -189l-479 -62q-23 66 -58 94.5t-108 28.5q-51 0 -80.5 -18t-32.5 -43 q-3 -24 37.5 -42t107.5 -32.5t147.5 -33t159 -52t140 -81t93 -128t16.5 -184.5q-14 -100 -72.5 -192t-150.5 -163.5t-223.5 -114t-280.5 -42.5q-142 0 -255 39.5t-187.5 112t-119 167.5t-59.5 213l479 61q22 -82 72 -122.5t152 -40.5q65 0 108 30.5t49 71.5z" />
<glyph unicode="T" horiz-adv-x="1372" d="M487 1004h-409l61 430h1291l-62 -430h-410l-139 -1004h-471z" />
<glyph unicode="U" horiz-adv-x="1556" d="M961 573l120 861h471l-120 -861q-39 -279 -250 -456.5t-516 -177.5q-202 0 -344.5 81.5t-204.5 225t-37 327.5l121 861h471l-121 -861q-13 -92 35.5 -148t140.5 -56t156.5 56t77.5 148z" />
<glyph unicode="V" horiz-adv-x="1495" d="M745 430l377 1004h471l-549 -1434h-798l-148 1434h471l95 -1004h81z" />
<glyph unicode="W" horiz-adv-x="2088" d="M866 1434h553l19 -820h20l238 820h471l-447 -1434h-635l-26 758h-21l-239 -758h-635l-45 1434h471l8 -820h20z" />
<glyph unicode="X" horiz-adv-x="1495" d="M139 1434h512l129 -390h21l239 390h512l-467 -697l328 -737h-532l-168 410h-21l-282 -410h-533l533 737z" />
<glyph unicode="Y" horiz-adv-x="1454" d="M1061 1434h512l-647 -963l-66 -471h-471l66 471l-377 963h512l160 -471h20z" />
<glyph unicode="Z" horiz-adv-x="1392" d="M-41 0l59 430l672 553l2 21h-573l61 430h1229l-61 -430l-672 -555l-2 -19h614l-59 -430h-1270z" />
<glyph unicode="[" horiz-adv-x="839" d="M846 1065h-205l-133 -942h205l-62 -430h-676l254 1802h676z" />
<glyph unicode="\" horiz-adv-x="962" d="M569 1434l291 -1434h-471l-291 1434h471z" />
<glyph unicode="]" horiz-adv-x="839" d="M-45 123h205l133 942h-205l59 430h676l-254 -1802h-673z" />
<glyph unicode="^" horiz-adv-x="921" d="M754 1434l125 -717h-328l-39 307h-20l-125 -307h-328l326 717h389z" />
<glyph unicode="_" horiz-adv-x="819" d="M649 -471h-817l51 369h817z" />
<glyph unicode="`" horiz-adv-x="573" d="M262 1434l326 -164l-111 -205l-354 102z" />
<glyph unicode="a" d="M416 492q-9 -68 30 -116t101 -48t114.5 48t61.5 116q10 68 -29 115.5t-102 47.5q-62 0 -114 -47.5t-62 -115.5zM6 492q21 149 104.5 272.5t199 191.5t233.5 68q49 0 89 -12.5t63 -31t38.5 -36.5t20.5 -30l6 -13h20l13 82h389l-138 -983h-389l11 82h-21q-3 -5 -9.5 -13.5 t-29 -29.5t-49.5 -37t-71 -29.5t-93 -13.5q-182 0 -300 154.5t-87 378.5z" />
<glyph unicode="b" horiz-adv-x="1249" d="M1174 492q-16 -112 -69 -212.5t-126.5 -170t-162.5 -110t-177 -40.5q-49 0 -89.5 12.5t-63.5 30.5t-39 36.5t-21 31.5l-6 12h-21l-10 -82h-389l201 1434h409l-71 -512h20q3 4 9 11t27.5 24.5t45.5 31t64 24.5t83 11q182 0 299.5 -154t86.5 -378zM764 492q10 68 -29 115.5 t-102 47.5q-62 0 -114 -47.5t-62 -115.5q-9 -68 30 -116t101 -48t114.5 48t61.5 116z" />
<glyph unicode="c" horiz-adv-x="1157" d="M582 655q-55 0 -105.5 -47.5t-60.5 -115.5q-9 -67 28.5 -115.5t92.5 -48.5q91 0 145 82l401 -52q-48 -111 -128.5 -199t-200.5 -144t-258 -56q-150 0 -270.5 75.5t-179.5 198.5t-40 259t112.5 259t235 198t291.5 75q96 0 178 -31.5t138.5 -85t93 -120.5t49.5 -142 l-418 -51q-31 61 -104 61z" />
<glyph unicode="d" horiz-adv-x="1249" d="M6 492q21 149 104.5 272.5t199 191.5t233.5 68q43 0 79.5 -10.5t58 -25.5t36.5 -30t21 -26l5 -10h21l72 512h409l-201 -1434h-389l11 82h-21q-3 -5 -9.5 -13.5t-29 -29.5t-49.5 -37t-71 -29.5t-93 -13.5q-182 0 -300 154.5t-87 378.5zM416 492q-9 -68 30 -116t101 -48 t114.5 48t61.5 116q10 68 -29 115.5t-102 47.5q-62 0 -114 -47.5t-62 -115.5z" />
<glyph unicode="e" horiz-adv-x="1177" d="M1122 492l-116 -103h-594q3 -34 39 -68t79 -34q72 0 142 61l403 -51q-34 -69 -85 -127t-122.5 -106.5t-170 -76.5t-212.5 -28q-145 0 -263 75t-176.5 198.5t-39.5 259.5q14 102 73 199.5t144 170.5t194 117.5t218 44.5q112 0 210.5 -44.5t163.5 -117.5t96 -170.5 t17 -199.5zM586 676q-36 0 -69 -24t-56 -58h225q-12 34 -38 58t-62 24z" />
<glyph unicode="f" horiz-adv-x="778" d="M45 614l51 369h103l2 21q30 212 170 341.5t327 129.5q55 0 110 -10.5t82 -20.5l28 -10l-91 -349q-59 21 -100 21q-46 0 -77.5 -28t-39.5 -74l-2 -21h164l-51 -369h-164l-86 -614h-410l86 614h-102z" />
<glyph unicode="g" horiz-adv-x="1208" d="M420 522q-8 -55 28 -94t97 -39t107.5 39t54.5 94t-28 94t-97 39t-107.5 -39t-54.5 -94zM618 41l13 82h-21q-3 -4 -9 -11t-27 -25t-44.5 -31.5t-61 -24.5t-77.5 -11q-83 0 -159.5 40t-130 107t-79.5 160.5t-12 194.5q19 134 101 251t195.5 184t225.5 67q46 0 84 -12.5 t60 -31t37 -36.5t21 -30l5 -13h21l12 82h389l-133 -942q-13 -95 -67.5 -184.5t-136 -157.5t-191 -109t-225.5 -41q-111 0 -199.5 28t-145.5 78.5t-91 113.5t-48 139l418 51q49 -61 123 -61q55 0 100.5 41.5t52.5 101.5z" />
<glyph unicode="h" horiz-adv-x="1208" d="M1100 553l-76 -553h-410l76 553q6 38 -22 70t-66 32t-74.5 -32t-42.5 -70l-75 -553h-410l201 1434h409l-71 -512h20q3 4 9 11t27 24.5t44.5 31t61 24.5t77.5 11q103 0 183 -57t119.5 -166t19.5 -248z" />
<glyph unicode="i" horiz-adv-x="593" d="M-10 0l137 983h410l-138 -983h-409zM594 1321q-12 -85 -86.5 -150t-159.5 -65t-140.5 65t-43.5 150t86.5 150t159.5 65t140.5 -65t43.5 -150z" />
<glyph unicode="j" horiz-adv-x="604" d="M604 1321q-12 -85 -86.5 -150t-159.5 -65t-140.5 65t-43.5 150t86.5 150t159.5 65t140.5 -65t43.5 -150zM547 983l-135 -963q-30 -212 -169.5 -341.5t-326.5 -129.5q-54 0 -108.5 10.5t-82.5 20.5l-28 10l90 349q59 -21 100 -21q45 0 77 28.5t38 73.5l135 963h410z" />
<glyph unicode="k" horiz-adv-x="1187" d="M446 276l-36 -276h-410l201 1434h409l-94 -666l225 215h471l-366 -348l260 -635h-451l-137 338z" />
<glyph unicode="l" horiz-adv-x="634" d="M20 0l150 1065h-102l51 369h512l-201 -1434h-410z" />
<glyph unicode="m" horiz-adv-x="1638" d="M1536 594l-82 -594h-410l82 594q3 23 -13.5 42t-39.5 19t-44.5 -19t-24.5 -42l-82 -594h-410l82 594q3 23 -13.5 42t-39.5 19t-45 -19t-25 -42l-82 -594h-409l137 983h389l-12 -82h20q4 5 11.5 13.5t33 29.5t52 37t67 29.5t80.5 13.5t76 -12.5t59 -31t40 -36.5t25 -30 l7 -13h20q4 5 12 13.5t34 29.5t54.5 37t73 29.5t90.5 13.5q144 0 229.5 -118.5t57.5 -311.5z" />
<glyph unicode="n" horiz-adv-x="1187" d="M1079 553l-75 -553h-410l76 553q6 38 -22 70t-66 32t-74.5 -32t-42.5 -70l-76 -553h-409l137 983h389l-12 -82h20q3 5 9.5 13.5t29 29.5t48.5 37t68.5 29.5t88.5 13.5q103 0 183 -57t119 -166t19 -248z" />
<glyph unicode="o" horiz-adv-x="1208" d="M416 492q-9 -68 30 -116t101 -48t114.5 48t61.5 116q10 68 -29 115.5t-102 47.5q-62 0 -114 -47.5t-62 -115.5zM1133 492q-19 -136 -112 -259t-234 -198.5t-291 -75.5t-270.5 75.5t-179.5 198.5t-40 259t112.5 259t235 198t291.5 75t270 -75t178.5 -198t39.5 -259z" />
<glyph unicode="p" d="M1153 492q-16 -112 -69 -212.5t-126.5 -170t-162.5 -110t-177 -40.5q-43 0 -79.5 10.5t-58 25.5t-36.5 30t-20 25l-6 11h-21l-67 -471h-410l197 1393h389l-12 -82h20q3 5 9.5 13.5t30 29.5t50 37t71 29.5t93.5 13.5q88 0 165.5 -40.5t131.5 -110t79 -169.5t9 -212z M743 492q10 68 -29 115.5t-102 47.5q-62 0 -114 -47.5t-62 -115.5q-9 -68 30 -116t101 -48t114.5 48t61.5 116z" />
<glyph unicode="q" d="M6 492q21 149 104.5 272.5t199 191.5t233.5 68q49 0 89 -12.5t63 -31t38.5 -36.5t20.5 -30l6 -13h20l13 82h389l-197 -1393h-410l68 471h-20q-3 -4 -9 -11t-27.5 -24.5t-46 -31t-64.5 -24.5t-83 -11q-182 0 -300 154.5t-87 378.5zM416 492q-9 -68 30 -116t101 -48 t114.5 48t61.5 116q10 68 -29 115.5t-102 47.5q-62 0 -114 -47.5t-62 -115.5z" />
<glyph unicode="r" horiz-adv-x="778" d="M774 1004l-53 -390h-143q-38 0 -75.5 -32t-41.5 -70l-72 -512h-409l137 983h389l-14 -102h20q3 5 9.5 13.5t28.5 29.5t48 37t68 29.5t88 13.5h20z" />
<glyph unicode="s" horiz-adv-x="1044" d="M55 696q10 63 49.5 120.5t105.5 104.5t165.5 75t218.5 28q89 0 164 -28t127 -76t85.5 -107.5t47.5 -126.5l-397 -51q-31 61 -74 61q-22 0 -38.5 -12.5t-19.5 -28.5q-1 -10 16 -16.5t46.5 -12t67.5 -12t80 -17t83.5 -25t77 -39.5t61.5 -57.5t37 -81t3 -107.5 q-7 -50 -33 -97t-73.5 -89t-111 -73.5t-151.5 -50t-189 -18.5q-104 0 -188 28t-138.5 76.5t-89 107t-48.5 126.5l415 51q31 -61 95 -61q36 0 55.5 12t21.5 29q2 12 -26 20t-73 15.5t-99 18.5t-106.5 34t-94 56t-62 91t-10.5 133z" />
<glyph unicode="t" horiz-adv-x="860" d="M45 614l51 369h103l34 246h410l-35 -246h164l-51 -369h-164l-27 -184q-6 -46 18 -74t70 -28q18 0 44.5 5t43.5 10l17 5l-6 -348q-109 -41 -232 -41q-188 0 -291 129.5t-73 341.5l26 184h-102z" />
<glyph unicode="u" horiz-adv-x="1187" d="M39 430l78 553h409l-77 -553q-5 -38 22.5 -70t65.5 -32t75 32t41 70l78 553h410l-137 -983h-390l11 82h-21q-3 -5 -9.5 -13.5t-28.5 -29.5t-48 -37t-68 -29.5t-88 -13.5q-103 0 -183.5 57t-120 166t-19.5 248z" />
<glyph unicode="v" horiz-adv-x="1146" d="M123 0l-68 983h410l37 -614h41l209 614h409l-342 -983h-696z" />
<glyph unicode="w" horiz-adv-x="1638" d="M629 983h450l11 -512h20l133 512h410l-301 -983h-553v512h-21l-143 -512h-553l-27 983h410l-10 -512h20z" />
<glyph unicode="x" horiz-adv-x="1085" d="M553 0l-70 246h-20l-135 -246h-451l338 512l-180 471h430l67 -246h21l137 246h430l-311 -471l195 -512h-451z" />
<glyph unicode="y" horiz-adv-x="1146" d="M143 0l-88 983h410l47 -614h41l199 614h409l-321 -983q-76 -228 -211.5 -349.5t-306.5 -121.5q-55 0 -110 10.5t-82 20.5l-28 10l91 348q57 -20 98 -20q87 0 139 102h-287z" />
<glyph unicode="z" horiz-adv-x="1064" d="M967 614l-392 -225l-2 -20h379l-51 -369h-942l51 369l389 225l4 20h-337l51 369h901z" />
<glyph unicode="{" horiz-adv-x="798" d="M610 -307h-286q-154 0 -237.5 97t-61.5 251l102 287q9 61 -45 61h-90l57 410h90q55 0 64 61l-23 287q22 154 133 251t265 97h286l-59 -430h-103q-62 0 -71 -61l16 -185q-7 -46 -27.5 -85t-45 -62t-47.5 -39.5t-39 -22.5l-15 -6l-2 -20q6 -2 15 -6.5t31 -22t38 -39.5 t25.5 -61.5t3.5 -85.5l-68 -185q-9 -61 53 -61h103z" />
<glyph unicode="|" horiz-adv-x="696" d="M686 1536l-246 -1741h-450l246 1741h450z" />
<glyph unicode="}" horiz-adv-x="798" d="M180 -307h-284l59 430h102q61 0 70 61l-14 185q6 46 26.5 85t45 62t48 39.5t39.5 22.5l15 6l2 20q-6 2 -15 6.5t-31.5 22t-38 39.5t-25.5 61.5t-3 85.5l66 185q9 61 -52 61h-102l59 430h287q154 0 237.5 -97t61.5 -251l-100 -287q-9 -61 43 -61h90l-57 -410h-91 q-52 0 -61 -61l21 -287q-22 -154 -133 -251t-265 -97z" />
<glyph unicode="~" horiz-adv-x="962" d="M676 881l260 -185q-17 -120 -103.5 -203t-181.5 -83q-52 0 -99 20.5t-85.5 41t-71.5 20.5q-88 0 -137 -103l-260 184q17 120 104.5 203.5t182.5 83.5q52 0 98.5 -20.5t84.5 -41t71 -20.5q88 0 137 103z" />
<glyph unicode="&#xa1;" horiz-adv-x="675" d="M489 143l-77 -553h-471l77 553l129 328h308zM563 809q-12 -85 -86.5 -150t-159.5 -65t-140.5 65t-43.5 150t86.5 150t159.5 65t140.5 -65t43.5 -150z" />
<glyph unicode="&#xa2;" horiz-adv-x="1157" d="M883 1188l-31 -215q209 -113 252 -328l-418 -51q-31 61 -104 61q-55 0 -105.5 -47.5t-60.5 -115.5q-9 -67 28.5 -115.5t92.5 -48.5q91 0 145 82l401 -52q-56 -128 -144 -210.5t-222 -137.5l-27 -194h-430l27 184q-92 43 -158.5 108.5t-103 165.5t-19.5 218 q25 173 140.5 298t277.5 191l29 207h430z" />
<glyph unicode="&#xa3;" d="M795 1004l-11 -82h185l-54 -369h-184l-22 -164h450l-53 -389h-1147l53 389h226l22 164h-143l53 369h143l11 82q32 227 175 359t345 132q55 0 120 -10.5t102 -20.5l38 -10l-92 -369q-60 21 -101 21q-45 0 -76.5 -28t-39.5 -74z" />
<glyph unicode="&#xa4;" horiz-adv-x="1495" d="M53 532l41 287h144l86 615h634q297 0 428.5 -121.5t102.5 -329.5t-195 -329.5t-463 -121.5h-163l-9 -61h392l-43 -307h-392l-22 -164h-471l22 164h-143l43 307h143l9 61h-144zM911 1106h-163l-33 -246h164q46 0 89.5 38.5t49.5 84.5t-27.5 84.5t-79.5 38.5z" />
<glyph unicode="&#xa5;" horiz-adv-x="1454" d="M78 1434h512l160 -471h20l291 471h512l-494 -738h123l-35 -245h-245l-9 -62h246l-35 -246h-245l-19 -143h-471l19 143h-246l35 246h245l9 62h-246l35 245h122z" />
<glyph unicode="&#xa6;" horiz-adv-x="737" d="M707 1536l-107 -758h-450l106 758h451zM567 553l-106 -758h-451l107 758h450z" />
<glyph unicode="&#xa7;" horiz-adv-x="1126" d="M510 799l-2 -21q-4 -30 40 -56t91 -26l4 21q4 30 -40.5 56t-92.5 26zM1040 778q-5 -34 -22 -66t-38 -52.5t-41.5 -36t-34.5 -22.5l-13 -7l-2 -21q5 -3 14 -10t30 -31t36 -52t24 -74.5t2 -98.5q-23 -162 -167.5 -265t-387.5 -103q-203 0 -317 99.5t-143 258.5l415 51 q31 -61 94 -61q73 0 80 51q1 8 -15.5 16t-45 16.5t-65.5 19t-77.5 24.5t-80.5 31t-75 42t-60.5 54t-37.5 69t-6 86q6 40 23.5 76t39 58.5t42 39.5t33.5 24l14 7l4 21q-4 3 -11 8.5t-23.5 26t-28 44.5t-18.5 63.5t-1 82.5q22 147 164.5 247.5t376.5 100.5q89 0 164 -28 t127 -76t85.5 -107.5t47.5 -126.5l-397 -51q-12 25 -31 43t-41 18q-24 0 -40.5 -14t-19.5 -37q-1 -8 14.5 -15.5t41.5 -15t60.5 -16t71.5 -21t74 -28t69 -38.5t55.5 -51t34 -67.5t3.5 -85.5z" />
<glyph unicode="&#xa8;" horiz-adv-x="983" d="M524 1260q-11 -77 -78 -136t-143 -59t-127.5 59t-40.5 136q10 76 77 135t144 59t127.5 -59t40.5 -135zM995 1260q-11 -77 -78 -136t-143 -59t-127.5 59t-40.5 136q10 76 77 135t144 59t127.5 -59t40.5 -135z" />
<glyph unicode="&#xa9;" horiz-adv-x="1884" d="M958 707q-39 0 -75.5 -34t-42.5 -79t21.5 -79t66.5 -34q27 0 52 15.5t36 31.5l12 15l270 -41q-60 -124 -164.5 -200.5t-244.5 -76.5q-158 0 -257 110.5t-79 258.5q22 148 152.5 258.5t289.5 110.5q130 0 211.5 -74t100.5 -182l-283 -41q-3 5 -8 11.5t-22.5 18t-35.5 11.5 zM41 594q34 242 180 444.5t365 319.5t461 117q181 0 334.5 -69t254.5 -186.5t146.5 -281t19.5 -344.5q-25 -181 -116.5 -344.5t-225.5 -281t-307 -186.5t-354 -69q-145 0 -274 44t-225.5 125t-162.5 189t-91 243t-5 280zM1475 594q21 151 -35 278.5t-173 201t-268 73.5 t-288.5 -73.5t-229 -201t-112.5 -278.5q-16 -113 13 -215.5t92.5 -176.5t160 -117.5t209.5 -43.5t221.5 43.5t193 117.5t142.5 176.5t74 215.5z" />
<glyph unicode="&#xaa;" horiz-adv-x="798" d="M369 1167l-211 103q5 7 14.5 18t42 39t68 50t91.5 39.5t113 17.5q151 0 228 -80.5t59 -206.5l-53 -389h-287l8 61h-20q-8 -9 -22.5 -22.5t-56 -36.5t-77.5 -23q-90 0 -139.5 53.5t-38.5 131.5q12 96 98 160.5t220 64.5h61q3 15 -8.5 28t-26.5 13q-18 0 -34 -5t-22 -11z M387 942q14 0 28.5 15.5t22.5 30.5l8 16h-40q-40 0 -46 -31q-3 -31 27 -31z" />
<glyph unicode="&#xab;" horiz-adv-x="1187" d="M27 492l282 409h369l-283 -409l168 -410h-368zM498 492l282 409h369l-283 -409l168 -410h-368z" />
<glyph unicode="&#xac;" horiz-adv-x="983" d="M47 492l53 368h820l-82 -573h-369l29 205h-451z" />
<glyph unicode="&#xad;" horiz-adv-x="983" d="M860 451h-819l53 368h819z" />
<glyph unicode="&#xae;" horiz-adv-x="1884" d="M1192 471l111 -225h-308l-77 164h-62l-25 -164h-286l98 696h379q149 0 232 -82t67 -194q-6 -43 -21 -78.5t-33 -56t-35 -35t-28 -20.5zM989 707h-92l-12 -82h92q22 0 38.5 12.5t18.5 28.5q3 16 -10 28.5t-35 12.5zM41 594q34 242 180 444.5t365 319.5t461 117 q181 0 334.5 -69t254.5 -186.5t146.5 -281t19.5 -344.5q-25 -181 -116.5 -344.5t-225.5 -281t-307 -186.5t-354 -69q-145 0 -274 44t-225.5 125t-162.5 189t-91 243t-5 280zM1475 594q21 151 -35 278.5t-173 201t-268 73.5t-288.5 -73.5t-229 -201t-112.5 -278.5 q-16 -113 13 -215.5t92.5 -176.5t160 -117.5t209.5 -43.5t221.5 43.5t193 117.5t142.5 176.5t74 215.5z" />
<glyph unicode="&#xaf;" horiz-adv-x="696" d="M119 1147l41 287h573l-41 -287h-573z" />
<glyph unicode="&#xb0;" horiz-adv-x="696" d="M512 1167q6 46 -18 74.5t-70 28.5t-78.5 -28.5t-38.5 -74.5q-7 -45 17.5 -73.5t70.5 -28.5t77.5 28t39.5 74zM696 1167q-19 -123 -111.5 -204.5t-215.5 -81.5t-194 81.5t-52 204.5q17 123 110 205t216 82t193.5 -82t53.5 -205z" />
<glyph unicode="&#xb1;" horiz-adv-x="1044" d="M860 0h-880l47 348h256l22 154h-256l51 368h256l39 277h369l-39 -277h256l-51 -368h-256l-23 -154h256z" />
<glyph unicode="&#xb2;" horiz-adv-x="778" d="M424 983h307l-35 -246h-614l29 205q8 51 47.5 91.5t90.5 64t101.5 41t86.5 32.5t38 29q3 29 -26 29q-14 0 -28.5 -10.5t-22.5 -20.5l-7 -10l-260 41q48 114 139.5 180t223.5 66q148 0 226 -75.5t64 -180.5q-8 -55 -40.5 -95t-79 -61t-91.5 -34.5t-89 -24.5t-60 -21z" />
<glyph unicode="&#xb3;" horiz-adv-x="761" d="M283 1137l110 61v10h-225l33 226h553l-27 -185l-176 -92l-2 -10q8 -1 22 -2.5t48.5 -14t59 -32.5t41 -61t7.5 -95q-14 -99 -118.5 -172.5t-260.5 -73.5q-122 0 -192 66.5t-86 179.5l272 41q2 -5 5 -11.5t14.5 -18t25.5 -11.5q32 0 35 29q6 33 -27 33h-133z" />
<glyph unicode="&#xb4;" horiz-adv-x="573" d="M137 1270l371 164l65 -267l-383 -102z" />
<glyph unicode="&#xb5;" horiz-adv-x="1187" d="M-80 -410l197 1393h409l-77 -553q-5 -38 22.5 -70t65.5 -32t75 32t41 70l78 553h410l-137 -983h-390l11 82h-21q-1 -3 -3.5 -8.5t-11.5 -20t-20 -25t-29 -19.5t-38 -9q-32 0 -52.5 20.5t-25.5 41.5l-4 20h-21l-69 -492h-410z" />
<glyph unicode="&#xb6;" d="M68 922q30 218 205.5 365t418.5 147h594l-61 -430h-185l-198 -1414h-451l117 820q-141 0 -249.5 67.5t-159.5 185.5t-31 259z" />
<glyph unicode="&#xb7;" horiz-adv-x="409" d="M418 717q-12 -85 -86.5 -150t-159.5 -65t-140.5 65t-43.5 150q10 85 84 150t159 65t141.5 -65t45.5 -150z" />
<glyph unicode="&#xb8;" horiz-adv-x="655" d="M342 41l-68 -123q8 -2 21.5 -5.5t46 -20.5t56.5 -40t40 -65t8 -94q-15 -118 -108 -192t-236 -74q-40 0 -76 10.5t-59 25.5t-40.5 30t-24.5 25l-8 11l141 143q4 -5 11.5 -11.5t32.5 -18t52 -11.5q37 0 62 18.5t28 43.5q5 24 -14.5 42.5t-56.5 18.5h-123l141 287h174z" />
<glyph unicode="&#xb9;" horiz-adv-x="532" d="M262 1434h287l-98 -697h-308l56 389h-103l29 205q60 0 95.5 28t41.5 75z" />
<glyph unicode="&#xba;" horiz-adv-x="819" d="M500 1085q6 42 -3 62t-26 20t-32 -20t-21 -62q-11 -81 28 -81q18 0 33.5 19.5t20.5 61.5zM807 1085q-20 -138 -139.5 -243t-257.5 -105t-228.5 105t-70.5 243t139.5 243.5t257.5 105.5t228.5 -105.5t70.5 -243.5z" />
<glyph unicode="&#xbb;" horiz-adv-x="1187" d="M924 901l168 -409l-283 -410h-369l283 410l-168 409h369zM453 901l168 -409l-283 -410h-369l283 410l-168 409h369z" />
<glyph unicode="&#xbc;" horiz-adv-x="1720" d="M324 1434h286l-98 -697h-307l55 389h-102l28 205q60 0 96 28t42 75zM1511 1434l-1019 -1434h-431l1020 1434h430zM1452 0h-287l13 82h-349l35 246l205 368h307l-205 -368h41l11 82h286l-10 -82h62l-35 -246h-62z" />
<glyph unicode="&#xbd;" horiz-adv-x="1720" d="M324 1434h286l-98 -697h-307l55 389h-102l28 205q60 0 96 28t42 75zM1511 1434l-1019 -1434h-431l1020 1434h430zM1221 246h307l-35 -246h-614l28 205q8 51 47.5 91.5t91 64t102 41t86.5 32.5t38 29q3 29 -27 29q-14 0 -28 -10t-21 -20l-8 -11l-260 41q48 113 139 179 t223 66q148 0 226.5 -75.5t64.5 -180.5q-6 -46 -31.5 -82t-58.5 -56.5t-74.5 -36.5t-77.5 -24t-70 -17.5t-48 -18.5z" />
<glyph unicode="&#xbe;" horiz-adv-x="1802" d="M303 1137l111 61v10h-226l33 226h553l-26 -185l-177 -92l-2 -10q4 0 11.5 -1t29 -6t40 -13t40.5 -23.5t36.5 -36t21 -53.5t0.5 -72q-14 -99 -118.5 -172.5t-260.5 -73.5q-123 0 -193 66.5t-86 179.5l272 41q2 -5 5 -11.5t15 -18t26 -11.5q31 0 34 29q6 33 -26 33h-133z M1593 1434l-1020 -1434h-430l1020 1434h430zM1534 0h-287l13 82h-349l35 246l205 368h307l-205 -368h41l11 82h286l-10 -82h61l-34 -246h-62z" />
<glyph unicode="&#xbf;" d="M461 809q12 85 86.5 150t159.5 65t140.5 -65t43.5 -150t-86.5 -150t-159.5 -65t-140.5 65t-43.5 150zM434 471h389q-9 -62 -34 -112.5t-58.5 -81.5t-72 -55.5t-75.5 -40.5t-68 -30.5t-51.5 -31.5t-23.5 -37q-6 -46 18 -74t70 -28q44 0 79.5 27.5t58.5 74.5l462 -62 q-77 -209 -249.5 -340t-409.5 -131q-134 0 -242.5 38.5t-174 102.5t-95.5 144.5t-18 165.5q10 71 36.5 125.5t63.5 88.5t80 59.5t89.5 45t88 39t78.5 48t59 65.5z" />
<glyph unicode="&#xc0;" horiz-adv-x="1536" d="M1286 1434l148 -1434h-471l-21 225h-491l-82 -225h-471l548 1434h840zM899 655l-33 349h-123l-131 -349h287zM829 1987l326 -164l-111 -205l-354 102z" />
<glyph unicode="&#xc1;" horiz-adv-x="1536" d="M1286 1434l148 -1434h-471l-21 225h-491l-82 -225h-471l548 1434h840zM899 655l-33 349h-123l-131 -349h287zM711 1823l370 164l66 -267l-383 -102z" />
<glyph unicode="&#xc2;" horiz-adv-x="1536" d="M1286 1434l148 -1434h-471l-21 225h-491l-82 -225h-471l548 1434h840zM899 655l-33 349h-123l-131 -349h287zM799 1966h286l195 -369h-307l-55 123h-21l-88 -123h-307z" />
<glyph unicode="&#xc3;" horiz-adv-x="1536" d="M1286 1434l148 -1434h-471l-21 225h-491l-82 -225h-471l548 1434h840zM899 655l-33 349h-123l-131 -349h287zM778 1618h-225l20 143q13 91 74 148t139 57q35 0 67.5 -13t53 -28t41 -28t33.5 -13q61 0 70 62h225l-21 -144q-12 -90 -73.5 -147.5t-139.5 -57.5 q-44 0 -83 20.5t-66.5 41t-42.5 20.5q-63 0 -72 -61z" />
<glyph unicode="&#xc4;" horiz-adv-x="1536" d="M1286 1434l148 -1434h-471l-21 225h-491l-82 -225h-471l548 1434h840zM899 655l-33 349h-123l-131 -349h287zM874 1792q-11 -77 -78 -136t-143 -59t-127.5 59t-40.5 136q10 76 77.5 135.5t144.5 59.5q76 0 127 -59t40 -136zM1346 1792q-10 -76 -77.5 -135.5t-144.5 -59.5 q-76 0 -127.5 59t-40.5 136q10 76 77.5 135.5t144.5 59.5q76 0 127.5 -59t40.5 -136z" />
<glyph unicode="&#xc5;" horiz-adv-x="1536" d="M1286 1434l148 -1434h-471l-21 225h-491l-82 -225h-471l548 1434h840zM899 655l-33 349h-123l-131 -349h287zM1169 1782q-13 -107 -92 -176.5t-186 -69.5t-167 69.5t-46 176.5q15 107 94 176.5t186 69.5t166.5 -69.5t44.5 -176.5zM1006 1782q5 31 -17 56.5t-53 25.5 t-60 -25.5t-34 -56.5q-3 -31 18.5 -56.5t52.5 -25.5t60.5 25.5t32.5 56.5z" />
<glyph unicode="&#xc6;" horiz-adv-x="2119" d="M1276 410h758l-58 -410h-1228l30 225h-368l-82 -225h-471l549 1434h1771l-57 -410h-758l-19 -123h594l-51 -369h-594zM702 1004l-131 -349h267l49 349h-185z" />
<glyph unicode="&#xc7;" horiz-adv-x="1638" d="M788 369q113 0 190 48t142 136l463 -61q-36 -96 -107.5 -188.5t-168.5 -169.5t-225.5 -129t-264.5 -62l-37 -66q8 -2 21.5 -5.5t46.5 -20.5t56.5 -40t40 -65t9.5 -94q-18 -118 -110.5 -192t-235.5 -74q-40 0 -76.5 10.5t-60 25.5t-41 30t-25.5 26l-8 10l144 143 q4 -5 11.5 -11.5t32.5 -18t52 -11.5q36 0 61.5 18.5t30.5 43.5q3 25 -17 43t-57 18h-123l115 232q-195 25 -344 136.5t-219.5 280t-44.5 355.5q21 151 106 294t209.5 249t286 170.5t326.5 64.5q141 0 257.5 -42t194.5 -114.5t127 -162.5t66 -193l-479 -61q-45 73 -96.5 108 t-149.5 35q-125 0 -241.5 -106t-135.5 -242q-20 -136 66.5 -242t211.5 -106z" />
<glyph unicode="&#xc8;" horiz-adv-x="1372" d="M528 410h758l-57 -410h-1229l201 1434h1229l-58 -410h-758l-18 -123h594l-51 -369h-594zM805 1966l325 -164l-110 -205l-354 103z" />
<glyph unicode="&#xc9;" horiz-adv-x="1372" d="M528 410h758l-57 -410h-1229l201 1434h1229l-58 -410h-758l-18 -123h594l-51 -369h-594zM664 1802l370 164l66 -266l-383 -103z" />
<glyph unicode="&#xca;" horiz-adv-x="1372" d="M528 410h758l-57 -410h-1229l201 1434h1229l-58 -410h-758l-18 -123h594l-51 -369h-594zM748 1966h286l195 -369h-307l-56 123h-20l-88 -123h-307z" />
<glyph unicode="&#xcb;" horiz-adv-x="1372" d="M528 410h758l-57 -410h-1229l201 1434h1229l-58 -410h-758l-18 -123h594l-51 -369h-594zM834 1792q-10 -76 -77.5 -135.5t-144.5 -59.5q-76 0 -127.5 59t-40.5 136q10 76 77.5 135.5t144.5 59.5q76 0 127.5 -59t40.5 -136zM1305 1792q-10 -76 -77.5 -135.5t-144.5 -59.5 q-76 0 -127.5 59t-40.5 136q10 76 77.5 135.5t144.5 59.5q76 0 127.5 -59t40.5 -136z" />
<glyph unicode="&#xcc;" horiz-adv-x="677" d="M672 1434l-201 -1434h-471l201 1434h471zM399 1966l326 -164l-111 -205l-354 103z" />
<glyph unicode="&#xcd;" horiz-adv-x="675" d="M672 1434l-201 -1434h-471l201 1434h471zM266 1823l371 164l65 -267l-383 -102z" />
<glyph unicode="&#xce;" horiz-adv-x="675" d="M672 1434l-201 -1434h-471l201 1434h471zM371 1987h286l195 -369h-307l-56 123h-20l-88 -123h-307z" />
<glyph unicode="&#xcf;" horiz-adv-x="737" d="M702 1434l-200 -1434h-471l200 1434h471zM479 1812q-10 -76 -77 -135t-144 -59t-127.5 59t-40.5 135q11 77 78 136t143 59t127.5 -59t40.5 -136zM950 1812q-10 -76 -77 -135t-144 -59t-127.5 59t-40.5 135q11 77 78 136t143 59t127.5 -59t40.5 -136z" />
<glyph unicode="&#xd0;" horiz-adv-x="1576" d="M12 532l51 369h123l76 533h594q165 0 303 -57.5t226 -155t128.5 -229t20.5 -275.5t-97.5 -275.5t-193 -229t-269.5 -155t-319 -57.5h-594l74 532h-123zM799 1024h-123l-19 -123h164l-51 -369h-164l-16 -122h123q123 0 227 92t123 215q17 123 -62 215t-202 92z" />
<glyph unicode="&#xd1;" horiz-adv-x="1556" d="M973 799h18l90 635h471l-200 -1434h-512l-260 635h-21l-88 -635h-471l201 1434h512zM799 1618h-226l21 143q13 91 74 148t139 57q44 0 83.5 -20.5t67.5 -41t43 -20.5q61 0 70 62h225l-20 -144q-12 -90 -73.5 -147.5t-139.5 -57.5q-35 0 -67.5 13t-52 28t-40 28t-33.5 13 q-62 0 -71 -61z" />
<glyph unicode="&#xd2;" horiz-adv-x="1720" d="M510 717q-20 -138 70.5 -243t228.5 -105t257.5 105t139.5 243q19 138 -71 243t-228 105t-258 -105t-139 -243zM1677 717q-21 -151 -106.5 -294t-210 -249t-286 -170.5t-326.5 -64.5t-308 64.5t-237.5 170.5t-139.5 249t-24 294t106 294t209.5 249t286 170.5t326.5 64.5 t308.5 -64.5t238 -170.5t139.5 -249t24 -294zM930 1987l325 -164l-110 -205l-354 102z" />
<glyph unicode="&#xd3;" horiz-adv-x="1720" d="M510 717q-20 -138 70.5 -243t228.5 -105t257.5 105t139.5 243q19 138 -71 243t-228 105t-258 -105t-139 -243zM1677 717q-21 -151 -106.5 -294t-210 -249t-286 -170.5t-326.5 -64.5t-308 64.5t-237.5 170.5t-139.5 249t-24 294t106 294t209.5 249t286 170.5t326.5 64.5 t308.5 -64.5t238 -170.5t139.5 -249t24 -294zM776 1823l371 164l65 -267l-383 -102z" />
<glyph unicode="&#xd4;" horiz-adv-x="1720" d="M510 717q-20 -138 70.5 -243t228.5 -105t257.5 105t139.5 243q19 138 -71 243t-228 105t-258 -105t-139 -243zM1677 717q-21 -151 -106.5 -294t-210 -249t-286 -170.5t-326.5 -64.5t-308 64.5t-237.5 170.5t-139.5 249t-24 294t106 294t209.5 249t286 170.5t326.5 64.5 t308.5 -64.5t238 -170.5t139.5 -249t24 -294zM907 1987h287l195 -369h-308l-55 123h-20l-88 -123h-308z" />
<glyph unicode="&#xd5;" horiz-adv-x="1720" d="M510 717q-20 -138 70.5 -243t228.5 -105t257.5 105t139.5 243q19 138 -71 243t-228 105t-258 -105t-139 -243zM1677 717q-21 -151 -106.5 -294t-210 -249t-286 -170.5t-326.5 -64.5t-308 64.5t-237.5 170.5t-139.5 249t-24 294t106 294t209.5 249t286 170.5t326.5 64.5 t308.5 -64.5t238 -170.5t139.5 -249t24 -294zM891 1638h-225l20 144q13 91 74 148t139 57q35 0 67.5 -13t53 -28t41 -28t33.5 -13q60 0 69 61h226l-21 -143q-12 -90 -73.5 -147.5t-139.5 -57.5q-44 0 -83 20.5t-66.5 41t-42.5 20.5q-63 0 -72 -62z" />
<glyph unicode="&#xd6;" horiz-adv-x="1720" d="M510 717q-20 -138 70.5 -243t228.5 -105t257.5 105t139.5 243q19 138 -71 243t-228 105t-258 -105t-139 -243zM1677 717q-21 -151 -106.5 -294t-210 -249t-286 -170.5t-326.5 -64.5t-308 64.5t-237.5 170.5t-139.5 249t-24 294t106 294t209.5 249t286 170.5t326.5 64.5 t308.5 -64.5t238 -170.5t139.5 -249t24 -294zM993 1833q-11 -77 -78 -136t-143 -59t-127.5 59t-40.5 136t78 136t143 59t127.5 -59t40.5 -136zM1464 1833q-11 -77 -78 -136t-143 -59t-127.5 59t-40.5 136t78 136t143 59t127.5 -59t40.5 -136z" />
<glyph unicode="&#xd7;" horiz-adv-x="1064" d="M784 635l158 -195l-303 -256l-156 195l-213 -195l-229 256l211 195l-158 194l303 256l158 -194l211 194l229 -256z" />
<glyph unicode="&#xd8;" horiz-adv-x="1802" d="M-76 195l41 286l115 45q-15 92 0 191q21 151 106 294t209.5 249t286 170.5t326.5 64.5q202 0 365 -93.5t257 -250.5l244 98l-39 -276l-121 -49q16 -106 4 -207q-21 -151 -106.5 -294t-210 -249t-286.5 -170.5t-327 -64.5q-207 0 -372.5 95.5t-257.5 256.5zM1247 717l2 16 l-633 -256q93 -108 234 -108q138 0 257.5 105t139.5 243zM551 717l620 250q-91 98 -223 98q-138 0 -258 -105t-139 -243z" />
<glyph unicode="&#xd9;" horiz-adv-x="1556" d="M961 573l120 861h471l-120 -861q-39 -279 -250 -456.5t-516 -177.5q-202 0 -344.5 81.5t-204.5 225t-37 327.5l121 861h471l-121 -861q-13 -92 35.5 -148t140.5 -56t156.5 56t77.5 148zM819 1987l326 -164l-111 -205l-354 102z" />
<glyph unicode="&#xda;" horiz-adv-x="1556" d="M961 573l120 861h471l-120 -861q-39 -279 -250 -456.5t-516 -177.5q-202 0 -344.5 81.5t-204.5 225t-37 327.5l121 861h471l-121 -861q-13 -92 35.5 -148t140.5 -56t156.5 56t77.5 148zM725 1823l371 164l65 -267l-383 -102z" />
<glyph unicode="&#xdb;" horiz-adv-x="1556" d="M961 573l120 861h471l-120 -861q-39 -279 -250 -456.5t-516 -177.5q-202 0 -344.5 81.5t-204.5 225t-37 327.5l121 861h471l-121 -861q-13 -92 35.5 -148t140.5 -56t156.5 56t77.5 148zM819 1987h287l194 -369h-307l-55 123h-20l-89 -123h-307z" />
<glyph unicode="&#xdc;" horiz-adv-x="1556" d="M961 573l120 861h471l-120 -861q-39 -279 -250 -456.5t-516 -177.5q-202 0 -344.5 81.5t-204.5 225t-37 327.5l121 861h471l-121 -861q-13 -92 35.5 -148t140.5 -56t156.5 56t77.5 148zM877 1812q-10 -76 -77.5 -135t-144.5 -59t-127.5 59t-40.5 135t77.5 135.5 t144.5 59.5q76 0 127.5 -59t40.5 -136zM1348 1812q-10 -76 -77.5 -135t-144.5 -59t-127.5 59t-40.5 135t77.5 135.5t144.5 59.5q76 0 127.5 -59t40.5 -136z" />
<glyph unicode="&#xdd;" horiz-adv-x="1454" d="M1061 1434h512l-647 -963l-66 -471h-471l66 471l-377 963h512l160 -471h20zM659 1802l371 164l66 -266l-383 -103z" />
<glyph unicode="&#xde;" horiz-adv-x="1392" d="M664 1372h81q158 0 285.5 -50.5t208 -138.5t115.5 -208.5t16 -257.5q-20 -137 -89 -258t-173.5 -208.5t-246.5 -138.5t-300 -51h-82l-14 -102h-471l213 1516h471zM899 717q15 107 -44.5 176.5t-166.5 69.5h-82l-69 -492h81q107 0 186.5 69.5t94.5 176.5z" />
<glyph unicode="&#xdf;" horiz-adv-x="1187" d="M553 0h-102l51 369h102q46 0 78.5 28t38.5 74t-18 74t-70 28h-103l52 369q38 0 63 22t31 60q4 38 -13.5 60t-48.5 22t-54.5 -22.5t-27.5 -59.5l-143 -1024h-409l143 1024q28 202 176 326.5t369 124.5q108 0 195.5 -31.5t140.5 -84t77.5 -118.5t14.5 -135q-7 -52 -30 -96 t-50.5 -70.5t-54 -45.5t-44.5 -26l-18 -8l-4 -20q11 -3 29.5 -10.5t63.5 -39.5t77 -73.5t52 -118t7 -168.5q-27 -190 -179 -310t-392 -120z" />
<glyph unicode="&#xe0;" d="M416 492q-9 -68 30 -116t101 -48t114.5 48t61.5 116q10 68 -29 115.5t-102 47.5q-62 0 -114 -47.5t-62 -115.5zM6 492q21 149 104.5 272.5t199 191.5t233.5 68q49 0 89 -12.5t63 -31t38.5 -36.5t20.5 -30l6 -13h20l13 82h389l-138 -983h-389l11 82h-21q-3 -5 -9.5 -13.5 t-29 -29.5t-49.5 -37t-71 -29.5t-93 -13.5q-182 0 -300 154.5t-87 378.5zM606 1536l326 -164l-111 -205l-354 103z" />
<glyph unicode="&#xe1;" d="M416 492q-9 -68 30 -116t101 -48t114.5 48t61.5 116q10 68 -29 115.5t-102 47.5q-62 0 -114 -47.5t-62 -115.5zM6 492q21 149 104.5 272.5t199 191.5t233.5 68q49 0 89 -12.5t63 -31t38.5 -36.5t20.5 -30l6 -13h20l13 82h389l-138 -983h-389l11 82h-21q-3 -5 -9.5 -13.5 t-29 -29.5t-49.5 -37t-71 -29.5t-93 -13.5q-182 0 -300 154.5t-87 378.5zM500 1372l370 164l66 -266l-383 -103z" />
<glyph unicode="&#xe2;" d="M416 492q-9 -68 30 -116t101 -48t114.5 48t61.5 116q10 68 -29 115.5t-102 47.5q-62 0 -114 -47.5t-62 -115.5zM6 492q21 149 104.5 272.5t199 191.5t233.5 68q49 0 89 -12.5t63 -31t38.5 -36.5t20.5 -30l6 -13h20l13 82h389l-138 -983h-389l11 82h-21q-3 -5 -9.5 -13.5 t-29 -29.5t-49.5 -37t-71 -29.5t-93 -13.5q-182 0 -300 154.5t-87 378.5zM596 1536h287l194 -369h-307l-55 123h-21l-88 -123h-307z" />
<glyph unicode="&#xe3;" d="M416 492q-9 -68 30 -116t101 -48t114.5 48t61.5 116q10 68 -29 115.5t-102 47.5q-62 0 -114 -47.5t-62 -115.5zM6 492q21 149 104.5 272.5t199 191.5t233.5 68q49 0 89 -12.5t63 -31t38.5 -36.5t20.5 -30l6 -13h20l13 82h389l-138 -983h-389l11 82h-21q-3 -5 -9.5 -13.5 t-29 -29.5t-49.5 -37t-71 -29.5t-93 -13.5q-182 0 -300 154.5t-87 378.5zM580 1167h-226l21 144q13 91 74 148t139 57q44 0 83.5 -20.5t67.5 -41t43 -20.5q61 0 70 61h225l-20 -143q-12 -90 -73.5 -147.5t-139.5 -57.5q-35 0 -67.5 13t-52 28t-40 28t-33.5 13q-62 0 -71 -62 z" />
<glyph unicode="&#xe4;" d="M416 492q-9 -68 30 -116t101 -48t114.5 48t61.5 116q10 68 -29 115.5t-102 47.5q-62 0 -114 -47.5t-62 -115.5zM6 492q21 149 104.5 272.5t199 191.5t233.5 68q49 0 89 -12.5t63 -31t38.5 -36.5t20.5 -30l6 -13h20l13 82h389l-138 -983h-389l11 82h-21q-3 -5 -9.5 -13.5 t-29 -29.5t-49.5 -37t-71 -29.5t-93 -13.5q-182 0 -300 154.5t-87 378.5zM682 1362q-11 -77 -78 -136t-143 -59t-127.5 59t-40.5 136q10 76 77 135t144 59t127.5 -59t40.5 -135zM1153 1362q-11 -77 -78 -136t-143 -59t-127.5 59t-40.5 136q10 76 77 135t144 59t127.5 -59 t40.5 -135z" />
<glyph unicode="&#xe5;" d="M416 492q-9 -68 30 -116t101 -48t114.5 48t61.5 116q10 68 -29 115.5t-102 47.5q-62 0 -114 -47.5t-62 -115.5zM6 492q21 149 104.5 272.5t199 191.5t233.5 68q49 0 89 -12.5t63 -31t38.5 -36.5t20.5 -30l6 -13h20l13 82h389l-138 -983h-389l11 82h-21q-3 -5 -9.5 -13.5 t-29 -29.5t-49.5 -37t-71 -29.5t-93 -13.5q-182 0 -300 154.5t-87 378.5zM961 1393q-13 -107 -92.5 -176.5t-186.5 -69.5t-167 69.5t-46 176.5q15 107 94.5 176t186.5 69t166.5 -69t44.5 -176zM797 1393q5 31 -17 56.5t-53 25.5t-60 -25.5t-34 -56.5q-3 -31 19 -56.5 t53 -25.5t60 25.5t32 56.5z" />
<glyph unicode="&#xe6;" horiz-adv-x="1699" d="M1645 492l-117 -103h-594q3 -34 39.5 -68t79.5 -34q71 0 141 61l403 -51q-34 -69 -85 -127t-122 -106.5t-169.5 -76.5t-212.5 -28q-55 0 -105 12.5t-82.5 30.5t-57 36.5t-35.5 31.5l-11 12h-21q-6 -5 -17.5 -13.5t-49.5 -29.5t-78.5 -37t-103 -29.5t-125.5 -13.5 q-104 0 -184 25t-126.5 67.5t-66.5 97.5t-11 117q18 129 152.5 218t341.5 89h123q5 37 -14.5 59.5t-57.5 22.5q-27 0 -48.5 -10.5t-29.5 -20.5l-8 -10l-317 144q3 6 8 15.5t24 37t42 52.5t63 56t85 53t109.5 37t135.5 15q33 0 64 -4.5t55.5 -11.5t46.5 -16.5t38.5 -19.5 t30.5 -20.5t23.5 -19.5t16.5 -16t10 -11l3 -4h21l8 7q7 7 21 17.5t33.5 23.5t46 26.5t55.5 24t66 17.5t75 7q150 0 270 -75t178.5 -198t39.5 -259zM1108 676q-36 0 -69 -24t-56 -58h225q-12 34 -38 58t-62 24zM383 246q36 0 69.5 20.5t49.5 41.5l16 20h-123 q-17 0 -31.5 -12.5t-17.5 -28.5q-2 -16 9 -28.5t28 -12.5z" />
<glyph unicode="&#xe7;" horiz-adv-x="1157" d="M582 655q-55 0 -105.5 -47.5t-60.5 -115.5q-9 -67 28.5 -115.5t92.5 -48.5q91 0 145 82l401 -52q-70 -164 -214 -275t-334 -122l-35 -63q8 -2 21.5 -6t46.5 -21t57 -40t40.5 -65t8.5 -94q-18 -119 -109.5 -192.5t-234.5 -73.5q-40 0 -76.5 10.5t-60 25.5t-41 30t-25.5 26 l-8 10l143 144q4 -5 11.5 -11.5t32.5 -18t52 -11.5q37 0 62.5 18.5t28.5 42.5q3 25 -17 43.5t-57 18.5h-123l121 239q-181 43 -286.5 191.5t-80.5 327.5q19 136 112.5 259t235 198t291.5 75q96 0 178 -31.5t138.5 -85t93 -120.5t49.5 -142l-418 -51q-31 61 -104 61z" />
<glyph unicode="&#xe8;" horiz-adv-x="1177" d="M1122 492l-116 -103h-594q3 -34 39 -68t79 -34q72 0 142 61l403 -51q-34 -69 -85 -127t-122.5 -106.5t-170 -76.5t-212.5 -28q-145 0 -263 75t-176.5 198.5t-39.5 259.5q14 102 73 199.5t144 170.5t194 117.5t218 44.5q112 0 210.5 -44.5t163.5 -117.5t96 -170.5 t17 -199.5zM586 676q-36 0 -69 -24t-56 -58h225q-12 34 -38 58t-62 24zM625 1536l325 -164l-110 -205l-355 103z" />
<glyph unicode="&#xe9;" horiz-adv-x="1177" d="M1122 492l-116 -103h-594q3 -34 39 -68t79 -34q72 0 142 61l403 -51q-34 -69 -85 -127t-122.5 -106.5t-170 -76.5t-212.5 -28q-145 0 -263 75t-176.5 198.5t-39.5 259.5q14 102 73 199.5t144 170.5t194 117.5t218 44.5q112 0 210.5 -44.5t163.5 -117.5t96 -170.5 t17 -199.5zM586 676q-36 0 -69 -24t-56 -58h225q-12 34 -38 58t-62 24zM498 1372l370 164l66 -266l-383 -103z" />
<glyph unicode="&#xea;" horiz-adv-x="1177" d="M1122 492l-116 -103h-594q3 -34 39 -68t79 -34q72 0 142 61l403 -51q-34 -69 -85 -127t-122.5 -106.5t-170 -76.5t-212.5 -28q-145 0 -263 75t-176.5 198.5t-39.5 259.5q14 102 73 199.5t144 170.5t194 117.5t218 44.5q112 0 210.5 -44.5t163.5 -117.5t96 -170.5 t17 -199.5zM586 676q-36 0 -69 -24t-56 -58h225q-12 34 -38 58t-62 24zM571 1516h287l195 -369h-308l-55 123h-20l-88 -123h-308z" />
<glyph unicode="&#xeb;" horiz-adv-x="1177" d="M1122 492l-116 -103h-594q3 -34 39 -68t79 -34q72 0 142 61l403 -51q-34 -69 -85 -127t-122.5 -106.5t-170 -76.5t-212.5 -28q-145 0 -263 75t-176.5 198.5t-39.5 259.5q14 102 73 199.5t144 170.5t194 117.5t218 44.5q112 0 210.5 -44.5t163.5 -117.5t96 -170.5 t17 -199.5zM586 676q-36 0 -69 -24t-56 -58h225q-12 34 -38 58t-62 24zM637 1341q-10 -76 -77 -135t-144 -59t-127.5 59t-40.5 135q11 77 78 136t143 59t127.5 -59t40.5 -136zM1108 1341q-10 -76 -77 -135t-144 -59t-127.5 59t-40.5 135q11 77 78 136t143 59t127.5 -59 t40.5 -136z" />
<glyph unicode="&#xec;" horiz-adv-x="593" d="M-10 0l137 983h410l-138 -983h-409zM293 1516l325 -164l-110 -205l-354 102z" />
<glyph unicode="&#xed;" horiz-adv-x="593" d="M147 1352l371 164l66 -267l-383 -102zM-10 0l137 983h410l-138 -983h-409z" />
<glyph unicode="&#xee;" horiz-adv-x="593" d="M262 1495h287l194 -369h-307l-55 123h-21l-88 -123h-307zM-10 0l137 983h410l-138 -983h-409z" />
<glyph unicode="&#xef;" horiz-adv-x="696" d="M391 1321q-11 -77 -78 -136t-143 -59t-127.5 59t-40.5 136t78 136t143 59t127.5 -59t40.5 -136zM862 1321q-11 -77 -78 -136t-143 -59t-127.5 59t-40.5 136t78 136t143 59t127.5 -59t40.5 -136zM61 0l138 983h409l-137 -983h-410z" />
<glyph unicode="&#xf0;" horiz-adv-x="1167" d="M1139 1331l-125 -82q3 -3 8 -10t18.5 -31t25.5 -51t24.5 -72t19 -94t6.5 -116t-10 -138l-35 -245q-32 -231 -205.5 -382t-410.5 -151q-155 0 -271 67.5t-169 180t-35 244.5q17 121 99 230t203 175t246 66q45 0 90 -10t67 -20l22 -11q6 45 -1.5 83.5t-18.5 53.5l-11 16 l-123 -82l-141 236l125 82l-78 102l327 225l86 -112l125 82zM655 451q8 55 -22.5 88.5t-91.5 33.5t-102.5 -34t-49.5 -88q-6 -55 25 -89t92 -34t102 34.5t47 88.5z" />
<glyph unicode="&#xf1;" horiz-adv-x="1187" d="M1079 553l-75 -553h-410l76 553q6 38 -22 70t-66 32t-74.5 -32t-42.5 -70l-76 -553h-409l137 983h389l-12 -82h20q3 5 9.5 13.5t29 29.5t48.5 37t68.5 29.5t88.5 13.5q103 0 183 -57t119 -166t19 -248zM543 1188h-226l21 143q13 91 74 148t139 57q44 0 83.5 -20.5 t67.5 -41t43 -20.5q61 0 70 62h225l-20 -144q-12 -90 -73.5 -147.5t-139.5 -57.5q-35 0 -67.5 13t-52 28t-40 28t-33.5 13q-62 0 -71 -61z" />
<glyph unicode="&#xf2;" horiz-adv-x="1208" d="M416 492q-9 -68 30 -116t101 -48t114.5 48t61.5 116q10 68 -29 115.5t-102 47.5q-62 0 -114 -47.5t-62 -115.5zM1133 492q-19 -136 -112 -259t-234 -198.5t-291 -75.5t-270.5 75.5t-179.5 198.5t-40 259t112.5 259t235 198t291.5 75t270 -75t178.5 -198t39.5 -259z M600 1516l326 -164l-111 -205l-354 102z" />
<glyph unicode="&#xf3;" horiz-adv-x="1208" d="M416 492q-9 -68 30 -116t101 -48t114.5 48t61.5 116q10 68 -29 115.5t-102 47.5q-62 0 -114 -47.5t-62 -115.5zM1133 492q-19 -136 -112 -259t-234 -198.5t-291 -75.5t-270.5 75.5t-179.5 198.5t-40 259t112.5 259t235 198t291.5 75t270 -75t178.5 -198t39.5 -259z M477 1372l371 164l65 -266l-383 -103z" />
<glyph unicode="&#xf4;" horiz-adv-x="1208" d="M416 492q-9 -68 30 -116t101 -48t114.5 48t61.5 116q10 68 -29 115.5t-102 47.5q-62 0 -114 -47.5t-62 -115.5zM1133 492q-19 -136 -112 -259t-234 -198.5t-291 -75.5t-270.5 75.5t-179.5 198.5t-40 259t112.5 259t235 198t291.5 75t270 -75t178.5 -198t39.5 -259z M584 1536h286l195 -369h-307l-56 123h-20l-88 -123h-307z" />
<glyph unicode="&#xf5;" horiz-adv-x="1208" d="M416 492q-9 -68 30 -116t101 -48t114.5 48t61.5 116q10 68 -29 115.5t-102 47.5q-62 0 -114 -47.5t-62 -115.5zM1133 492q-19 -136 -112 -259t-234 -198.5t-291 -75.5t-270.5 75.5t-179.5 198.5t-40 259t112.5 259t235 198t291.5 75t270 -75t178.5 -198t39.5 -259z M565 1167h-225l20 144q13 91 74 148t139 57q35 0 67.5 -13t53 -28t41 -28t33.5 -13q61 0 70 61h225l-21 -143q-12 -90 -73.5 -147.5t-139.5 -57.5q-44 0 -83 20.5t-66.5 41t-42.5 20.5q-63 0 -72 -62z" />
<glyph unicode="&#xf6;" horiz-adv-x="1208" d="M416 492q-9 -68 30 -116t101 -48t114.5 48t61.5 116q10 68 -29 115.5t-102 47.5q-62 0 -114 -47.5t-62 -115.5zM1133 492q-19 -136 -112 -259t-234 -198.5t-291 -75.5t-270.5 75.5t-179.5 198.5t-40 259t112.5 259t235 198t291.5 75t270 -75t178.5 -198t39.5 -259z M651 1362q-11 -77 -78 -136t-143 -59t-127.5 59t-40.5 136q10 76 77 135t144 59t127.5 -59t40.5 -135zM1122 1362q-11 -77 -78 -136t-143 -59t-127.5 59t-40.5 136q10 76 77 135t144 59t127.5 -59t40.5 -135z" />
<glyph unicode="&#xf7;" horiz-adv-x="983" d="M41 451l53 368h819l-53 -368h-819zM385 -20q-85 0 -140.5 65t-43.5 150t86 150t159 65t141 -65t44 -150t-86.5 -150t-159.5 -65zM569 1290q85 0 141 -65t44 -150q-10 -85 -84.5 -150t-159.5 -65t-141 65t-45 150q12 85 86 150t159 65z" />
<glyph unicode="&#xf8;" d="M-84 133l27 195l75 28q-11 62 -2 136q19 136 112.5 259t235 198t291.5 75q139 0 253 -67t177 -177l158 64l-26 -189l-76 -30q11 -62 2 -133q-19 -136 -112 -259t-234 -198.5t-291 -75.5q-139 0 -253 65.5t-177 172.5zM602 655q-55 0 -102 -37.5t-68 -95.5l256 101 q-37 32 -86 32zM557 328q54 0 101.5 37t66.5 94l-252 -103q39 -28 84 -28z" />
<glyph unicode="&#xf9;" horiz-adv-x="1187" d="M39 430l78 553h409l-77 -553q-5 -38 22.5 -70t65.5 -32t75 32t41 70l78 553h410l-137 -983h-390l11 82h-21q-3 -5 -9.5 -13.5t-28.5 -29.5t-48 -37t-68 -29.5t-88 -13.5q-103 0 -183.5 57t-120 166t-19.5 248zM596 1495l326 -164l-111 -205l-354 103z" />
<glyph unicode="&#xfa;" horiz-adv-x="1187" d="M39 430l78 553h409l-77 -553q-5 -38 22.5 -70t65.5 -32t75 32t41 70l78 553h410l-137 -983h-390l11 82h-21q-3 -5 -9.5 -13.5t-28.5 -29.5t-48 -37t-68 -29.5t-88 -13.5q-103 0 -183.5 57t-120 166t-19.5 248zM467 1331l371 164l65 -266l-383 -103z" />
<glyph unicode="&#xfb;" horiz-adv-x="1187" d="M39 430l78 553h409l-77 -553q-5 -38 22.5 -70t65.5 -32t75 32t41 70l78 553h410l-137 -983h-390l11 82h-21q-3 -5 -9.5 -13.5t-28.5 -29.5t-48 -37t-68 -29.5t-88 -13.5q-103 0 -183.5 57t-120 166t-19.5 248zM555 1516h287l194 -369h-307l-55 123h-21l-88 -123h-307z " />
<glyph unicode="&#xfc;" horiz-adv-x="1187" d="M39 430l78 553h409l-77 -553q-5 -38 22.5 -70t65.5 -32t75 32t41 70l78 553h410l-137 -983h-390l11 82h-21q-3 -5 -9.5 -13.5t-28.5 -29.5t-48 -37t-68 -29.5t-88 -13.5q-103 0 -183.5 57t-120 166t-19.5 248zM637 1341q-10 -76 -77 -135t-144 -59t-127.5 59t-40.5 135 q11 77 78 136t143 59t127.5 -59t40.5 -136zM1108 1341q-10 -76 -77 -135t-144 -59t-127.5 59t-40.5 135q11 77 78 136t143 59t127.5 -59t40.5 -136z" />
<glyph unicode="&#xfd;" horiz-adv-x="1146" d="M143 0l-88 983h410l47 -614h41l199 614h409l-321 -983q-76 -228 -211.5 -349.5t-306.5 -121.5q-55 0 -110 10.5t-82 20.5l-28 10l91 348q57 -20 98 -20q87 0 139 102h-287zM434 1352l371 164l65 -267l-383 -102z" />
<glyph unicode="&#xfe;" horiz-adv-x="1249" d="M-59 -410l260 1844h409l-71 -512h20q3 4 9 11t27.5 24.5t45.5 31t64 24.5t83 11q182 0 299.5 -154t86.5 -378q-16 -112 -69 -212.5t-126.5 -170t-162.5 -110t-177 -40.5q-43 0 -79.5 10.5t-58 25.5t-36.5 30t-21 25l-6 11h-20l-68 -471h-409zM457 492q-9 -68 30 -116 t101 -48t114.5 48t61.5 116q10 68 -29 115.5t-102 47.5q-62 0 -114 -47.5t-62 -115.5z" />
<glyph unicode="&#xff;" horiz-adv-x="1146" d="M143 0l-88 983h410l47 -614h41l199 614h409l-321 -983q-76 -228 -211.5 -349.5t-306.5 -121.5q-55 0 -110 10.5t-82 20.5l-28 10l91 348q57 -20 98 -20q87 0 139 102h-287zM600 1362q-11 -77 -78 -136t-143 -59t-127.5 59t-40.5 136q10 76 77 135t144 59t127.5 -59 t40.5 -135zM1071 1362q-11 -77 -78 -136t-143 -59t-127.5 59t-40.5 136q10 76 77 135t144 59t127.5 -59t40.5 -135z" />
<glyph unicode="&#x152;" horiz-adv-x="2211" d="M918 1434h1351l-57 -410h-758l-18 -123h594l-52 -369h-594l-16 -122h758l-58 -410h-1351q-165 0 -303 57.5t-226.5 155t-128.5 229t-20 275.5t97 275.5t192.5 229t270 155t319.5 57.5zM983 1024h-123q-123 0 -228 -92t-122 -215q-19 -123 61 -215t203 -92h123z" />
<glyph unicode="&#x153;" horiz-adv-x="1894" d="M1839 492l-117 -103h-594q3 -34 39.5 -68t79.5 -34q72 0 142 61l403 -51q-34 -69 -85 -127t-122.5 -106.5t-170 -76.5t-212.5 -28q-55 0 -107.5 14.5t-89 36t-65 42.5t-42.5 36l-13 14h-21q-6 -6 -17 -15.5t-47.5 -34t-76.5 -43.5t-102 -34.5t-125 -15.5 q-150 0 -270.5 75.5t-179.5 198.5t-40 259t112.5 259t235 198t291.5 75q50 0 95.5 -8t77.5 -20.5t59 -28t44.5 -30.5t29.5 -27.5t17 -20.5l5 -8h20l9 8q9 8 25.5 20.5t39.5 27.5t54 30.5t65.5 28t78 20.5t87.5 8q112 0 210.5 -44.5t163.5 -117.5t96 -170.5t17 -199.5z M416 492q-9 -68 30 -116t101 -48t114.5 48t61.5 116l2 6q6 67 -33 112t-100 45q-62 0 -114 -47.5t-62 -115.5zM1303 676q-36 0 -69 -24t-56 -58h225q-12 34 -38 58t-62 24z" />
<glyph unicode="&#x178;" horiz-adv-x="1454" d="M1061 1434h512l-647 -963l-66 -471h-471l66 471l-377 963h512l160 -471h20zM850 1812q-10 -76 -77 -135t-144 -59t-127.5 59t-40.5 135q11 77 78 136t143 59t127.5 -59t40.5 -136zM1321 1812q-10 -76 -77 -135t-144 -59t-127.5 59t-40.5 135q11 77 78 136t143 59 t127.5 -59t40.5 -136z" />
<glyph unicode="&#x2c6;" horiz-adv-x="901" d="M406 1434h286l195 -369h-307l-56 123h-20l-88 -123h-307z" />
<glyph unicode="&#x2dc;" horiz-adv-x="798" d="M338 1106h-225l20 143q13 91 74 148t139 57q35 0 67.5 -13t53 -28t41 -28t33.5 -13q60 0 69 62h226l-21 -144q-12 -90 -73.5 -147.5t-139.5 -57.5q-44 0 -83 20.5t-66.5 41t-42.5 20.5q-63 0 -72 -61z" />
<glyph unicode="&#x2000;" horiz-adv-x="1014" />
<glyph unicode="&#x2001;" horiz-adv-x="2028" />
<glyph unicode="&#x2002;" horiz-adv-x="1014" />
<glyph unicode="&#x2003;" horiz-adv-x="2028" />
<glyph unicode="&#x2004;" horiz-adv-x="676" />
<glyph unicode="&#x2005;" horiz-adv-x="507" />
<glyph unicode="&#x2006;" horiz-adv-x="338" />
<glyph unicode="&#x2007;" horiz-adv-x="338" />
<glyph unicode="&#x2008;" horiz-adv-x="253" />
<glyph unicode="&#x2009;" horiz-adv-x="405" />
<glyph unicode="&#x200a;" horiz-adv-x="112" />
<glyph unicode="&#x2010;" horiz-adv-x="942" d="M840 451h-820l54 368h819z" />
<glyph unicode="&#x2011;" horiz-adv-x="942" d="M840 451h-820l54 368h819z" />
<glyph unicode="&#x2012;" horiz-adv-x="942" d="M840 451h-820l54 368h819z" />
<glyph unicode="&#x2013;" horiz-adv-x="1433" d="M1307 410h-1270l51 368h1270z" />
<glyph unicode="&#x2014;" horiz-adv-x="1761" d="M1634 410h-1597l51 368h1598z" />
<glyph unicode="&#x2018;" horiz-adv-x="552" d="M555 1475l-111 -205l12.5 -7.5t26 -22.5t31.5 -39t21.5 -55t3.5 -71q-10 -85 -84.5 -150t-159.5 -65t-141 65t-45 150q4 32 16 60.5t21 40.5l10 12l235 287h164z" />
<glyph unicode="&#x2019;" horiz-adv-x="552" d="M121 860l110 205l-12.5 7.5t-26 22.5t-32 39t-22 55t-3.5 71q12 85 86.5 150t159.5 65t140.5 -65t43.5 -150q-4 -32 -16 -60t-21 -40l-10 -13l-233 -287h-164z" />
<glyph unicode="&#x201a;" horiz-adv-x="552" d="M-33 -225l111 205q-5 2 -12.5 7t-26 23t-32 38.5t-22 54.5t-3.5 71q12 85 86 150t159 65t141 -65t44 -150q-4 -32 -15 -60t-21 -40l-9 -13l-236 -286h-164z" />
<glyph unicode="&#x201c;" horiz-adv-x="1024" d="M1026 1475l-111 -205l12.5 -7.5t26 -22.5t31.5 -39t21.5 -55t3.5 -71q-10 -85 -84.5 -150t-159.5 -65t-141 65t-45 150q4 32 16 60.5t22 40.5l9 12l235 287h164zM555 1475l-111 -205l12.5 -7.5t26 -22.5t31.5 -39t21.5 -55t3.5 -71q-10 -85 -84.5 -150t-159.5 -65 t-141 65t-45 150q4 32 16 60.5t21 40.5l10 12l235 287h164z" />
<glyph unicode="&#x201d;" horiz-adv-x="1024" d="M121 860l110 205l-12.5 7.5t-26 22.5t-32 39t-22 55t-3.5 71q12 85 86.5 150t159.5 65t140.5 -65t43.5 -150q-4 -32 -16 -60t-21 -40l-10 -13l-233 -287h-164zM592 860l110 205l-12.5 7.5t-26 22.5t-32 39t-22 55t-3.5 71q12 85 86.5 150t159.5 65t140.5 -65t43.5 -150 q-4 -32 -16 -60t-22 -40l-9 -13l-233 -287h-164z" />
<glyph unicode="&#x201e;" horiz-adv-x="1024" d="M-33 -225l111 205q-5 2 -12.5 7t-26 23t-32 38.5t-22 54.5t-3.5 71q12 85 86 150t159 65t141 -65t44 -150q-4 -32 -15 -60t-21 -40l-9 -13l-236 -286h-164zM438 -225l111 205q-5 2 -12.5 7t-26 23t-32 38.5t-22 54.5t-3.5 71q12 85 86 150t159 65t141 -65t44 -150 q-4 -32 -15 -60.5t-20 -40.5l-10 -12l-236 -286h-164z" />
<glyph unicode="&#x2022;" horiz-adv-x="819" d="M680 614q-19 -123 -112 -204.5t-216 -81.5t-194 81.5t-52 204.5q17 123 110 205t216 82t194 -82t54 -205z" />
<glyph unicode="&#x2026;" horiz-adv-x="1617" d="M412 174q-10 -85 -84.5 -150t-159.5 -65t-141 65t-45 150q12 85 86 150t159 65t141 -65t44 -150zM944 174q-10 -85 -84.5 -150t-159.5 -65t-141 65t-45 150q12 85 86.5 150t159.5 65t140.5 -65t43.5 -150zM1477 174q-10 -85 -84.5 -150t-159.5 -65t-141 65t-45 150 q12 85 86 150t159 65t141 -65t44 -150z" />
<glyph unicode="&#x202f;" horiz-adv-x="405" />
<glyph unicode="&#x2039;" horiz-adv-x="849" d="M444 -41l-438 533l588 532l219 -256l-293 -266l-2 -21l217 -266z" />
<glyph unicode="&#x203a;" horiz-adv-x="849" d="M774 492l-586 -533l-221 256l295 266l2 21l-219 266l293 256z" />
<glyph unicode="&#x205f;" horiz-adv-x="507" />
<glyph unicode="&#x20ac;" horiz-adv-x="1699" d="M43 748l31 225h133q50 100 129.5 190.5t185 166t242.5 120.5t285 45q141 0 257.5 -42t194.5 -114.5t127 -162.5t66 -193l-480 -61q-45 73 -96 108t-149 35q-25 0 -48.5 -4t-37.5 -7.5t-38.5 -16t-32 -17t-37 -24t-36.5 -23.5h297l-30 -225h-410l-8 -62h409l-32 -225h-297 q9 -7 30.5 -24t29.5 -23t27 -17.5t33 -15.5t35.5 -8t46.5 -4q113 0 190 48t142 136l463 -61q-30 -81 -85 -160t-134 -150t-173 -125t-209.5 -86t-234.5 -32q-148 0 -272.5 45t-208 120.5t-137.5 166t-76 190.5h-133l33 225h82l8 62h-82z" />
<glyph unicode="&#x2122;" horiz-adv-x="1699" d="M743 778l93 656h348l82 -144l123 144h348l-92 -656h-328l37 266h-21l-123 -143l-82 143h-20l-37 -266h-328zM98 1147l41 287h656l-41 -287h-164l-51 -369h-328l51 369h-164z" />
<glyph unicode="&#x25fc;" horiz-adv-x="983" d="M0 983h983v-983h-983v983z" />
</font>
</defs>
</svg>
