<?xml version="1.0" standalone="no"?>
<!DOCTYPE svg PUBLIC "-//W3C//DTD SVG 1.1//EN" "http://www.w3.org/Graphics/SVG/1.1/DTD/svg11.dtd" >
<svg xmlns="http://www.w3.org/2000/svg">
<metadata></metadata>
<defs>
<font id="tt_firshairline_italic" horiz-adv-x="1116" >
<font-face units-per-em="2048" ascent="1638" descent="-410" />
<missing-glyph horiz-adv-x="307" />
<glyph horiz-adv-x="0" />
<glyph horiz-adv-x="0" />
<glyph horiz-adv-x="682" />
<glyph unicode="&#xd;" horiz-adv-x="0" />
<glyph unicode=" "  horiz-adv-x="307" />
<glyph unicode="&#x09;" horiz-adv-x="307" />
<glyph unicode="&#xa0;" horiz-adv-x="307" />
<glyph unicode="!" horiz-adv-x="491" d="M348 1393l-143 -1024h-21l144 1024h20zM143 0q-32 0 -26 31q3 30 35 30q29 0 26 -30q-6 -31 -35 -31z" />
<glyph unicode="&#x22;" horiz-adv-x="634" d="M297 1393l-66 -471h-20l65 471h21zM543 1393l-66 -471h-20l65 471h21z" />
<glyph unicode="#" horiz-adv-x="1280" d="M985 963h287l-4 -21h-293l-211 -491h291l-2 -21h-297l-183 -430h-20l182 430h-430l-182 -430h-21l183 430h-287l2 21h293l211 491h-291l4 21h297l182 430h21l-182 -430h430l182 430h20zM743 451l211 491h-430l-211 -491h430z" />
<glyph unicode="$" horiz-adv-x="1075" d="M420 -61l29 204q-163 0 -260 76.5t-132 190.5h21q37 -106 128.5 -176t246.5 -70q191 0 306.5 82.5t131.5 204.5q8 56 -13 97t-62.5 65.5t-97.5 42.5t-118.5 30.5t-125 25.5t-118.5 32t-97 45.5t-61 70.5t-12 103q16 121 128 203.5t290 82.5l33 226h20l-32 -226 q278 0 354 -245h-21q-36 104 -116.5 164.5t-229.5 60.5q-177 0 -284 -76.5t-121 -189.5q-8 -56 13 -97t62.5 -65.5t97 -42.5t118.5 -30.5t125.5 -25.5t118 -32t96.5 -45.5t61 -70.5t12 -103q-18 -129 -138.5 -218.5t-303.5 -89.5l-29 -204h-20z" />
<glyph unicode="%" horiz-adv-x="1454" d="M1260 1393l-1055 -1393h-21l1055 1393h21zM1292 307q-21 -142 -116.5 -234.5t-206.5 -92.5t-181 92.5t-49 234.5q20 142 115.5 235t206.5 93t181 -93t50 -235zM1272 307q18 134 -46 220.5t-167 86.5q-104 0 -192.5 -86.5t-106.5 -220.5q-20 -134 44.5 -220.5t168.5 -86.5 q103 0 191 86.5t108 220.5zM705 1085q-20 -142 -115.5 -234.5t-206.5 -92.5t-181 92.5t-50 234.5t115 235t206 93t181.5 -93t50.5 -235zM684 1085q20 134 -44.5 221t-168.5 87q-103 0 -191 -87t-108 -221t44.5 -220.5t168.5 -86.5q103 0 191 86.5t108 220.5z" />
<glyph unicode="&#x26;" horiz-adv-x="1187" d="M571 860l-258 502l4 31h758l-2 -21h-737l688 -1372h-31l-80 164q-8 -9 -22 -24t-60.5 -54t-96 -68.5t-124.5 -54t-149 -24.5q-196 0 -306.5 118.5t-86.5 290.5q10 73 43.5 141t78.5 117.5t97 93t102 72t91 49t66 29.5zM465 -41q72 0 143.5 23t122.5 56.5t92 66.5t61 56 l21 23l-327 656q-9 -3 -25 -9t-63 -28t-90 -47.5t-98 -68t-96.5 -89.5t-74.5 -113t-43 -137q-22 -164 83 -276.5t294 -112.5z" />
<glyph unicode="'" horiz-adv-x="389" d="M297 1393l-66 -471h-20l65 471h21z" />
<glyph unicode="(" horiz-adv-x="727" d="M164 594q15 102 45 198.5t63.5 170.5t85.5 151.5t92 127.5t103.5 113.5t98.5 95.5t96 85l8 -20q-45 -40 -70.5 -62.5t-73.5 -68t-78.5 -79.5t-75 -87.5t-74 -100t-65 -110t-59.5 -125t-44.5 -136.5t-31.5 -153t-11.5 -153t5.5 -136.5t24 -125t34.5 -110t46 -100t50.5 -87 t56 -79.5t54 -68.5t53 -62.5l-13 -20q-35 40 -56 65t-56.5 71t-57 81t-51 89t-46.5 102t-34.5 111.5t-23.5 126.5t-5.5 139.5t11.5 156.5z" />
<glyph unicode=")" horiz-adv-x="727" d="M522 594q-11 -80 -32 -156.5t-44 -139t-59 -127t-65.5 -111.5t-75.5 -102t-76 -88.5t-80 -81.5t-75 -70.5t-74 -65.5l-9 20q58 51 92 81.5t95 92.5t100.5 111.5t91 125.5t85 149t63 167.5t43.5 194.5q11 78 11.5 153t-5.5 137t-23 125t-34 110t-45.5 100t-50 87t-56 79 t-54 68.5t-52.5 62.5l12 20q36 -42 55.5 -65t56 -70.5t57 -81.5t51 -89t47 -102t34 -111.5t23.5 -127t5 -139t-12 -156.5z" />
<glyph unicode="*" horiz-adv-x="716" d="M207 891l186 235h-235l2 21h246l34 246h21l-35 -246h246l-2 -21h-236l121 -235l-23 -10l-120 237l-187 -237z" />
<glyph unicode="+" horiz-adv-x="921" d="M438 655l56 389h20l-55 -389h368l-2 -20h-368l-56 -389h-20l55 389h-368l2 20h368z" />
<glyph unicode="," horiz-adv-x="389" d="M66 31q3 30 34 30q30 0 27 -30l-14 -31l-97 -164h-20l96 164q-32 0 -26 31z" />
<glyph unicode="-" horiz-adv-x="860" d="M764 635h-696l2 20h696z" />
<glyph unicode="." horiz-adv-x="389" d="M92 0q-32 0 -26 31q3 30 34 30q30 0 27 -30q-6 -31 -35 -31z" />
<glyph unicode="/" horiz-adv-x="757" d="M-20 0l768 1393h20l-768 -1393h-20z" />
<glyph unicode="0" horiz-adv-x="1433" d="M1284 696q23 159 -8 300t-99.5 235t-163 148.5t-198.5 54.5q-83 0 -170.5 -34t-169.5 -99.5t-151 -154t-119 -205.5t-68 -245q-22 -159 9 -299.5t100 -235t163.5 -148.5t198.5 -54t214 54t204.5 148.5t165 235t92.5 299.5zM117 696q23 163 95.5 307.5t170.5 241.5 t212 153t222 56t206 -56t169 -153t103.5 -241.5t9.5 -307.5t-95.5 -307.5t-171 -241t-212.5 -152.5t-222 -56t-206 56t-169 152.5t-103 241t-9 307.5z" />
<glyph unicode="1" horiz-adv-x="604" d="M266 0l187 1331q-46 -96 -128 -160.5t-171 -64.5l4 20q92 0 174 72t129 195h20l-194 -1393h-21z" />
<glyph unicode="2" horiz-adv-x="1157" d="M1051 1065q22 157 -78 263t-281 106q-362 0 -514 -308h-20q70 150 201.5 239t334.5 89q189 0 294 -112.5t83 -276.5q-11 -79 -51.5 -147t-100 -120t-134 -99.5t-155 -90.5t-161.5 -86.5t-155.5 -94.5t-134.5 -108.5t-102 -134t-54 -164.5h921l-2 -20h-942l2 20 q16 116 79.5 212.5t152 163.5t193 126.5t208.5 115t192 114t149 138.5t75 175z" />
<glyph unicode="3" horiz-adv-x="1157" d="M465 -41q198 0 341 122t169 308t-82.5 308t-306.5 122h-164l2 21l639 532h-809l2 21h840l-2 -21l-639 -532h133q206 0 320.5 -129t86.5 -322q-26 -193 -177 -321.5t-357 -128.5q-204 0 -318 101.5t-141 266.5h21q27 -157 136.5 -252.5t305.5 -95.5z" />
<glyph unicode="4" horiz-adv-x="1167" d="M819 0h-20l51 369h-819l2 20l653 1004h21l-654 -1004h799l63 451h21l-64 -451h205l-2 -20h-205z" />
<glyph unicode="5" horiz-adv-x="1146" d="M586 819h-328l182 574h635l-2 -21h-614l-168 -532h297q206 0 320.5 -129t86.5 -322q-26 -193 -177 -321.5t-357 -128.5q-204 0 -318 101.5t-141 266.5h21q27 -157 136.5 -252.5t305.5 -95.5q192 0 338 123t172 307q26 186 -82.5 308t-306.5 122z" />
<glyph unicode="6" horiz-adv-x="1187" d="M59 430q9 63 31 124t47.5 103.5t50 76t40.5 49.5l16 16l565 594h20l-565 -594h10q6 5 16.5 13.5t47 29.5t75.5 37t98.5 29.5t119.5 13.5q214 0 337.5 -142t94.5 -350q-19 -136 -100 -248.5t-205.5 -177.5t-265.5 -65q-214 0 -338 141.5t-95 349.5zM80 430 q-28 -200 91 -335.5t325 -135.5t362 135.5t184 335.5t-90.5 335.5t-324.5 135.5q-202 0 -360 -133.5t-187 -337.5z" />
<glyph unicode="7" horiz-adv-x="962" d="M205 0h-21l807 1372h-860l2 21h881l-4 -31z" />
<glyph unicode="8" horiz-adv-x="1249" d="M625 737q-222 0 -373 -114t-174 -275q-11 -77 13.5 -147.5t79 -124t144 -85.5t201.5 -32q222 0 372 114t173 275q11 77 -13 147t-78 124t-143.5 86t-201.5 32zM723 1434q-192 0 -324.5 -100.5t-152.5 -237.5q-9 -65 12.5 -126t69.5 -108t126 -75.5t175 -28.5 q192 0 324.5 100.5t152.5 237.5q9 65 -12.5 126t-69.5 108t-126 75.5t-175 28.5zM725 1454q199 0 310 -107t91 -251q-11 -74 -51.5 -136.5t-90.5 -98t-98.5 -60.5t-81.5 -34l-32 -9l-2 -10q2 0 20 -4.5t50.5 -17.5t67.5 -32t70.5 -51t62 -72t38.5 -98t2 -125 q-11 -81 -57 -155t-119 -130.5t-175 -90t-218 -33.5q-115 0 -208 33.5t-149.5 90.5t-82.5 130.5t-15 154.5q10 67 38.5 125t66 98t82 72t85.5 51t77 32t55 17.5t22 4.5l2 10q-6 2 -17 5t-41 15.5t-57 28.5t-58.5 44.5t-52.5 61t-31.5 81t-2.5 102.5q20 144 160 251t340 107z " />
<glyph unicode="9" horiz-adv-x="1187" d="M1118 963q-9 -63 -31.5 -124t-48.5 -103.5t-50 -76t-40 -49.5l-16 -16l-563 -594h-21l563 594h-10q-6 -5 -16.5 -13.5t-46 -29.5t-74 -37t-98 -29.5t-119.5 -13.5q-214 0 -337.5 142t-94.5 350q19 136 99.5 248.5t204.5 177.5t265 65t247.5 -65t156 -177.5t30.5 -248.5z M1098 963q28 200 -91 335.5t-325 135.5t-362.5 -135.5t-184.5 -335.5q-29 -200 89.5 -335.5t324.5 -135.5q202 0 361 133.5t188 337.5z" />
<glyph unicode=":" horiz-adv-x="389" d="M92 0q-32 0 -26 31q3 30 34 30q30 0 27 -30q-6 -31 -35 -31zM213 860q-33 0 -27 31q3 31 35 31q30 0 27 -31q-6 -31 -35 -31z" />
<glyph unicode=";" horiz-adv-x="389" d="M213 860q-33 0 -27 31q3 31 35 31q30 0 27 -31q-6 -31 -35 -31zM66 31q3 30 34 30q30 0 27 -30l-14 -31l-97 -164h-20l96 164q-32 0 -26 31z" />
<glyph unicode="&#x3c;" horiz-adv-x="921" d="M47 481l811 379l-4 -20l-788 -369l-3 -10l687 -369l-5 -20l-704 379z" />
<glyph unicode="=" horiz-adv-x="901" d="M754 410h-697l2 20h697zM805 778h-696l2 21h696z" />
<glyph unicode="&#x3e;" horiz-adv-x="921" d="M100 860l705 -379l-6 -30l-811 -379l4 20l788 369l2 10l-686 369z" />
<glyph unicode="?" horiz-adv-x="1044" d="M610 1434q-341 0 -493 -308h-21q70 149 198.5 238.5t317.5 89.5q187 0 293.5 -109t85.5 -260q-12 -83 -45 -142t-77.5 -92.5t-96 -60.5t-104 -58t-98 -72.5t-81 -115t-49.5 -175.5h-20q15 104 50.5 179.5t81 117.5t98 73.5t104.5 58.5t96 59.5t77 89.5t44 138 q21 142 -80 245.5t-281 103.5zM379 0q-33 0 -27 31q3 30 35 30q30 0 27 -30q-6 -31 -35 -31z" />
<glyph unicode="@" horiz-adv-x="1699" d="M1051 348l16 113h-10q-4 -5 -11.5 -14t-33.5 -32t-53.5 -40.5t-70 -32t-85.5 -14.5q-117 0 -198 99t-64 228q19 129 128 228.5t226 99.5q43 0 81.5 -13.5t62 -33.5t41 -39.5t24.5 -32.5l8 -14h10l17 113h20l-84 -594q204 0 343.5 114.5t164.5 294.5q17 123 -19.5 234.5 t-117 196t-209 134.5t-285.5 50q-197 0 -375 -96t-297.5 -266t-148.5 -376q-28 -206 44 -375.5t222.5 -265.5t347.5 -96q100 0 206 25.5t162 50.5l56 26l-2 -20q-8 -4 -23 -11t-62 -24.5t-94.5 -31t-115.5 -24.5t-131 -11q-151 0 -279 58.5t-212.5 158.5t-122.5 241t-16 299 q30 211 152.5 385.5t305.5 273.5t385 99q161 0 293 -52t215 -139t121.5 -202.5t20.5 -241.5q-27 -189 -177 -309.5t-376 -120.5zM561 655q-17 -121 59 -214t185 -93q46 0 90.5 17t75.5 41t55.5 48t36.5 41l12 17l39 287q-2 7 -7 18t-23.5 39t-41.5 50t-63 39.5t-86 17.5 q-109 0 -211 -93.5t-121 -214.5z" />
<glyph unicode="A" horiz-adv-x="1392" d="M1118 430l-96 942h-471l-363 -942h930zM1122 410h-942l-160 -410h-20l532 1393h512l144 -1393h-21z" />
<glyph unicode="B" horiz-adv-x="1402" d="M307 1393h553q166 0 254.5 -93.5t69.5 -234.5q-9 -63 -38 -117t-64 -85.5t-68 -54t-56 -31.5l-22 -9v-10q152 -15 243.5 -124.5t71.5 -254.5q-24 -157 -158 -268t-315 -111h-665zM135 20h645q174 0 301.5 105t149.5 254q21 149 -77.5 253.5t-272.5 104.5h-645zM858 1372 h-532l-86 -614h532q158 0 265 87t126 220t-64 220t-241 87z" />
<glyph unicode="C" horiz-adv-x="1546" d="M696 -61q-129 0 -247 61.5t-200.5 162.5t-123 242t-19.5 291t101 291t191 242.5t246.5 163t264.5 61.5q118 0 217 -34.5t164 -91.5t105.5 -124t54.5 -139h-20q-11 54 -37.5 105.5t-71.5 99.5t-103 84t-138.5 58t-172.5 22q-125 0 -256.5 -60t-239.5 -159t-185.5 -236 t-98.5 -283q-16 -117 6 -229.5t75 -203t128 -159.5t169.5 -107t194.5 -38q122 0 230.5 33t191 92t144.5 130t106 155h21q-45 -88 -109.5 -163t-150.5 -136t-198.5 -96t-238.5 -35z" />
<glyph unicode="D" horiz-adv-x="1413" d="M1274 696q43 301 -122 488.5t-478 187.5h-348l-191 -1352h348q207 0 378 85.5t278.5 239t134.5 351.5zM1294 696q-43 -309 -267.5 -502.5t-545.5 -193.5h-368l194 1393h369q212 0 363 -88.5t217 -247t38 -361.5z" />
<glyph unicode="E" horiz-adv-x="1218" d="M135 20h901l-2 -20h-921l194 1393h922l-2 -21h-901l-93 -655h717l-4 -21h-717z" />
<glyph unicode="F" horiz-adv-x="1157" d="M223 655l-90 -655h-20l194 1393h881l-2 -21h-860l-99 -696h697l-4 -21h-697z" />
<glyph unicode="G" horiz-adv-x="1576" d="M700 -41q174 0 329.5 81.5t263 232.5t134.5 341h-512l3 21h532q-28 -201 -137.5 -361t-271.5 -247.5t-345 -87.5q-129 0 -247 61.5t-200.5 162.5t-123 242t-19.5 291t101 291t191 242.5t246.5 163t264.5 61.5q118 0 217 -34.5t164 -91.5t105.5 -124t54.5 -139h-20 q-11 54 -37.5 105.5t-71.5 99.5t-103 84t-138.5 58t-172.5 22q-125 0 -256.5 -60t-239.5 -159t-185.5 -236t-98.5 -283q-16 -117 6 -229.5t75 -203t128 -159.5t169.5 -107t194.5 -38z" />
<glyph unicode="H" horiz-adv-x="1413" d="M113 0l194 1393h21l-95 -676h943l94 676h20l-194 -1393h-21l96 696h-942l-96 -696h-20z" />
<glyph unicode="I" horiz-adv-x="450" d="M328 1393l-195 -1393h-20l194 1393h21z" />
<glyph unicode="J" horiz-adv-x="1054" d="M932 1393l-135 -963q-32 -226 -171.5 -358.5t-328.5 -132.5q-263 0 -330 266h21q71 -246 313 -246q181 0 313 126.5t162 344.5l135 963h21z" />
<glyph unicode="K" horiz-adv-x="1239" d="M606 829h-10l-397 -358l-66 -471h-20l194 1393h21l-125 -893l995 893h31l-608 -543l434 -850h-31z" />
<glyph unicode="L" horiz-adv-x="1136" d="M328 1393l-193 -1373h860l-2 -20h-880l194 1393h21z" />
<glyph unicode="M" horiz-adv-x="1740" d="M1595 1372l-745 -778l-524 778l-193 -1372h-20l194 1393h31l516 -768l733 768h31l-195 -1393h-20z" />
<glyph unicode="N" horiz-adv-x="1454" d="M338 1393l780 -1373l193 1373h20l-194 -1393h-31l-780 1372l-193 -1372h-20l194 1393h31z" />
<glyph unicode="O" horiz-adv-x="1658" d="M106 696q28 200 154.5 376t307 279t362.5 103q136 0 258.5 -61.5t206.5 -163t125 -242.5t20 -291t-101 -290.5t-193 -242t-253 -163t-276 -61.5t-258.5 61.5t-207 163t-125.5 242t-20 290.5zM127 696q-20 -146 20 -283t122 -236t201 -158.5t251 -59.5t268 59.5 t245.5 158.5t187.5 236t98 283q21 146 -18.5 283t-121.5 236t-201 159t-251 60t-268 -60t-246 -159t-188 -236t-99 -283z" />
<glyph unicode="P" horiz-adv-x="1361" d="M1266 922q27 195 -90.5 322.5t-337.5 127.5h-512l-127 -901h512q219 0 373 128t182 323zM1286 922q-30 -203 -191 -337t-388 -134h-512l-62 -451h-20l194 1393h533q227 0 350.5 -134.5t95.5 -336.5z" />
<glyph unicode="Q" horiz-adv-x="1658" d="M106 696q28 200 154.5 376t307 279t362.5 103q136 0 258.5 -61.5t206.5 -163t125 -242.5t20 -291q-10 -71 -32.5 -139.5t-50.5 -120.5t-59.5 -99t-61.5 -79.5t-54 -56.5t-38 -35l-15 -12l205 -226l-13 -10l-204 225q-9 -8 -25 -22t-68 -49t-107 -62t-137.5 -49 t-162.5 -22q-136 0 -258.5 61.5t-207 163t-125.5 242t-20 290.5zM1069 328l152 -164q10 8 27.5 23t63.5 67t83.5 109t74.5 147.5t50 185.5q21 146 -18.5 283t-121.5 236t-201 159t-251 60t-268 -60t-246 -159t-188 -236t-99 -283q-20 -146 20 -283t122 -236t201 -158.5 t251 -59.5q77 0 155.5 20t135.5 48.5t103 57.5t69 49l24 20l-151 163z" />
<glyph unicode="R" horiz-adv-x="1372" d="M862 532h-655l-74 -532h-20l194 1393h574q212 0 324 -121t87 -309q-24 -163 -142 -279.5t-265 -140.5l241 -543h-30zM209 553h553q204 0 343.5 115t166.5 295q25 180 -82 294.5t-311 114.5h-553z" />
<glyph unicode="S" horiz-adv-x="1228" d="M1040 348q11 75 -12.5 132.5t-71.5 94t-113 64.5t-138.5 49l-147 42t-138.5 50t-113 67.5t-71 98.5t-12 139q21 152 161 260.5t341 108.5q380 0 446 -328h-20q-65 308 -428 308q-193 0 -325.5 -102.5t-153.5 -246.5q-11 -75 12.5 -132.5t72 -94t113.5 -64.5t138.5 -49 l147 -42t138.5 -50t112.5 -67.5t70.5 -98.5t12 -139q-22 -167 -177.5 -288t-371.5 -121q-112 0 -199 28t-143.5 79.5t-90 116t-46.5 144.5h20q13 -76 45 -137t86.5 -109.5t139 -75t192.5 -26.5q208 0 354.5 114.5t169.5 274.5z" />
<glyph unicode="T" horiz-adv-x="1167" d="M664 1372h-533l2 21h1086l-2 -21h-533l-192 -1372h-21z" />
<glyph unicode="U" horiz-adv-x="1454" d="M618 -41q218 0 375.5 145t190.5 388l127 901h20l-127 -901q-35 -250 -199.5 -401.5t-390.5 -151.5q-225 0 -347 151t-87 402l127 901h21l-127 -901q-33 -243 83 -388t334 -145z" />
<glyph unicode="V" horiz-adv-x="1392" d="M831 20l531 1373h20l-532 -1393h-512l-143 1393h20l145 -1373h471z" />
<glyph unicode="W" horiz-adv-x="1863" d="M453 20l520 1373h102l135 -1373h103l520 1373h20l-522 -1393h-143l-135 1372h-62l-520 -1372h-143l-133 1393h20l135 -1373h103z" />
<glyph unicode="X" horiz-adv-x="1269" d="M225 1393h31l379 -625h8l555 625h31l-584 -656l440 -737h-30l-420 707h-8l-617 -707h-30l645 737z" />
<glyph unicode="Y" horiz-adv-x="1290" d="M1321 1393l-703 -922l-65 -471h-21l66 471l-444 922h30l426 -901l680 901h31z" />
<glyph unicode="Z" horiz-adv-x="1187" d="M-20 0l4 31l1192 1341h-963l2 21h983l-4 -31l-1192 -1342h1004l-2 -20h-1024z" />
<glyph unicode="[" horiz-adv-x="645" d="M684 1454h-348l-242 -1720h348l-2 -21h-368l247 1762h369z" />
<glyph unicode="\" horiz-adv-x="757" d="M195 1393l378 -1393h-20l-379 1393h21z" />
<glyph unicode="]" horiz-adv-x="645" d="M510 1454h-348l4 21h369l-248 -1762h-369l2 21h348z" />
<glyph unicode="^" horiz-adv-x="798" d="M502 1393l221 -615h-21l-215 584l-378 -584h-21l393 615h21z" />
<glyph unicode="_" horiz-adv-x="696" d="M547 -328h-694l2 21h694z" />
<glyph unicode="`" horiz-adv-x="471" d="M184 1393l275 -164l-15 -21l-272 164z" />
<glyph unicode="a" d="M819 0l29 205h-10q-6 -10 -18.5 -26.5t-52.5 -59t-83 -75t-108.5 -59t-131.5 -26.5q-84 0 -158.5 38.5t-126.5 104.5t-76 160t-9 199q20 139 100 256t190 181.5t222 64.5q66 0 123.5 -25.5t92.5 -61.5t60.5 -72t35.5 -62l11 -25h11l28 205h21l-129 -922h-21zM854 256 q3 24 17.5 127.5t27 192.5t12.5 90q-2 6 -5.5 16t-17 38.5t-29.5 54.5t-44 58t-60 55t-77.5 38.5t-95.5 15.5q-166 0 -312.5 -139.5t-175.5 -341.5q-14 -101 8.5 -191.5t72 -153t120.5 -99.5t151 -37q69 0 136.5 28.5t114 69t84 81t55.5 69.5z" />
<glyph unicode="b" horiz-adv-x="1126" d="M131 205l-29 -205h-20l194 1393h21l-94 -676h10q6 10 18 26.5t52 59t83 75t108.5 59t131.5 26.5q84 0 158.5 -38.5t126 -104.5t75.5 -160t9 -199t-65.5 -199t-120.5 -160t-155 -104.5t-169 -38.5q-66 0 -123.5 25.5t-93 61.5t-61 72t-35.5 62l-11 25h-10zM137 256 q2 -6 5.5 -16t17 -38.5t30 -54.5t44.5 -58t60 -55t77.5 -38.5t95.5 -15.5q166 0 312 139.5t175 341.5q14 101 -8.5 191.5t-72 153t-120.5 99.5t-151 37q-69 0 -136 -28.5t-114 -69t-84 -81t-55 -69.5l-18 -28q0 -1 -12.5 -90t-27.5 -192t-18 -128z" />
<glyph unicode="c" horiz-adv-x="1064" d="M444 -41q-84 0 -158.5 38.5t-126.5 104.5t-76 160t-9 199q20 139 100 256t190 181.5t222 64.5q150 0 236.5 -71.5t107.5 -174.5h-21q-23 96 -104 160.5t-223 64.5q-166 0 -312.5 -139.5t-175.5 -341.5q-14 -101 8.5 -191.5t72 -153t120.5 -99.5t151 -37q151 0 269 82 t157 184h21q-41 -110 -166 -198.5t-283 -88.5z" />
<glyph unicode="d" horiz-adv-x="1126" d="M819 0l29 205h-10q-6 -10 -18.5 -26.5t-52.5 -59t-83 -75t-108.5 -59t-131.5 -26.5q-84 0 -158.5 38.5t-126.5 104.5t-76 160t-9 199q20 139 100 256t190 181.5t222 64.5q66 0 123.5 -25.5t92.5 -61.5t60.5 -72t35.5 -62l11 -25h11l94 676h20l-194 -1393h-21zM854 256 q3 24 17.5 127.5t27 192.5t12.5 90q-2 6 -5.5 16t-17 38.5t-29.5 54.5t-44 58t-60 55t-77.5 38.5t-95.5 15.5q-166 0 -312.5 -139.5t-175.5 -341.5q-14 -101 8.5 -191.5t72 -153t120.5 -99.5t151 -37q69 0 136.5 28.5t114 69t84 81t55.5 69.5z" />
<glyph unicode="e" horiz-adv-x="1075" d="M575 963q106 0 196 -64.5t137 -179.5t28 -248l-25 -20h-819q-12 -98 11.5 -186.5t72.5 -150t119.5 -98t150.5 -36.5q149 0 267 82t159 184h21q-41 -110 -166 -198.5t-283 -88.5q-84 0 -158.5 38.5t-126 104.5t-75.5 160t-10 199q19 139 98.5 256t187 181.5t215.5 64.5z M571 942q-158 0 -302 -137.5t-173 -333.5h819q14 97 -9 186t-72 150.5t-118 98t-145 36.5z" />
<glyph unicode="f" horiz-adv-x="552" d="M61 881l2 20h164l39 266q15 114 86 180t172 66q36 0 71 -10.5t52 -20.5l17 -10l-5 -20q-6 5 -17.5 11.5t-47.5 18t-72 11.5q-94 0 -158 -60t-77 -166l-39 -266h287l-3 -20h-286l-123 -881h-21l123 881h-164z" />
<glyph unicode="g" d="M819 10l33 236h-10q-6 -10 -18 -26.5t-51.5 -59t-82 -75t-108 -59t-131.5 -26.5q-112 0 -204.5 64t-140 176t-28.5 241q14 97 63.5 187t119.5 154t156 102.5t169 38.5q66 0 123.5 -25.5t92.5 -61.5t60.5 -72t35.5 -62l11 -25h11l28 205h21l-129 -912 q-26 -187 -158 -313.5t-283 -126.5q-150 0 -237.5 71.5t-106.5 174.5h21q10 -45 33 -83.5t61.5 -71.5t97.5 -52t133 -19q143 0 267.5 120.5t150.5 299.5zM911 666q-2 6 -5.5 16t-17 38.5t-29.5 54.5t-44 58t-60 55t-77.5 38.5t-95.5 15.5q-107 0 -212 -61t-180 -168.5 t-92 -231.5q-14 -93 9.5 -179.5t73 -147.5t121 -97.5t151.5 -36.5q50 0 99.5 15.5t89 39.5t75 53.5t61 59.5t44.5 54t28 40l10 15z" />
<glyph unicode="h" horiz-adv-x="1126" d="M936 553l-76 -553h-20l75 553q26 175 -62 282t-251 107q-69 0 -136 -28.5t-114 -69t-84 -81t-55 -69.5l-18 -28l-93 -666h-20l194 1393h21l-94 -676h10q6 10 18 26.5t52 59t83 75t108.5 59t131.5 26.5q170 0 263 -113.5t67 -296.5z" />
<glyph unicode="i" horiz-adv-x="409" d="M92 0l129 922h21l-129 -922h-21zM289 1331q29 0 26 -31q-6 -30 -34 -30q-33 0 -27 30q3 31 35 31z" />
<glyph unicode="j" horiz-adv-x="409" d="M242 922l-156 -1106q-17 -114 -87.5 -180t-170.5 -66q-36 0 -70.5 10t-50.5 20l-16 11l2 20q6 -5 17.5 -11.5t47.5 -18t72 -11.5q92 0 156.5 60t79.5 166l155 1106h21zM289 1331q29 0 26 -31q-6 -30 -34 -30q-33 0 -27 30q3 31 35 31z" />
<glyph unicode="k" horiz-adv-x="952" d="M139 266l-37 -266h-20l194 1393h21l-154 -1094l703 623h31l-402 -359l334 -563h-31l-315 543h-10z" />
<glyph unicode="l" horiz-adv-x="430" d="M123 0l192 1372h-184l2 21h205l-195 -1393h-20z" />
<glyph unicode="m" horiz-adv-x="1628" d="M707 0l79 573q24 172 -48.5 270.5t-207.5 98.5q-46 0 -90 -16.5t-77.5 -42.5t-63.5 -57.5t-51 -63.5t-36 -58t-22 -42l-8 -17l-90 -645h-20l129 922h20l-28 -205h10q4 10 12.5 26.5t39.5 59t66 75t93 59t121 26.5q54 0 98.5 -14.5t72 -38.5t48.5 -52t31 -56.5t16 -52.5 t7 -39l1 -14h8q4 11 11 29t36.5 64t65.5 81t100.5 64t138.5 29q142 0 220.5 -105t52.5 -285l-80 -573h-21l80 573q24 172 -48.5 270.5t-207.5 98.5t-234.5 -98.5t-123.5 -270.5l-80 -573h-20z" />
<glyph unicode="n" d="M926 553l-76 -553h-21l76 553q26 175 -62 282t-251 107q-69 0 -136.5 -28.5t-114 -69t-84 -81t-55.5 -69.5l-18 -28l-92 -666h-20l129 922h20l-28 -205h10q6 10 18 26.5t52 59t83 75t108.5 59t131.5 26.5q170 0 263 -113.5t67 -296.5z" />
<glyph unicode="o" horiz-adv-x="1146" d="M995 461q-20 -140 -99.5 -256t-194 -181t-236.5 -65t-219 65t-144.5 181t-27.5 256t100 256t195 181t237 65t218.5 -65t143.5 -181t27 -256zM975 461q19 135 -26 246t-137.5 173t-209.5 62q-180 0 -329.5 -138.5t-178.5 -342.5q-19 -135 26 -246t137.5 -173t209.5 -62 q180 0 329.5 138.5t178.5 342.5z" />
<glyph unicode="p" d="M221 922l-28 -205h10q6 10 18 26.5t52 59t83 75t108.5 59t131.5 26.5q84 0 158.5 -38.5t126 -104.5t75.5 -160t9 -199t-65.5 -199t-120.5 -160t-155 -104.5t-169 -38.5q-66 0 -123.5 25.5t-93 61.5t-61 72t-35.5 62l-11 25h-10l-88 -615h-21l189 1332h20zM184 666 q-3 -24 -17.5 -127.5t-27 -192.5t-12.5 -90q2 -6 5.5 -16t17 -38.5t30 -54.5t44.5 -58t60 -55t77.5 -38.5t95.5 -15.5q166 0 312 139.5t175 341.5q14 101 -8.5 191.5t-72 153t-120.5 99.5t-151 37q-69 0 -136.5 -28.5t-114 -69t-84 -81t-55.5 -69.5z" />
<glyph unicode="q" d="M920 717l28 205h21l-189 -1332h-20l88 615h-10q-6 -10 -18.5 -26.5t-52.5 -59t-83 -75t-108.5 -59t-131.5 -26.5q-84 0 -158.5 38.5t-126.5 104.5t-76 160t-9 199q20 139 100 256t190 181.5t222 64.5q66 0 123.5 -25.5t92.5 -61.5t60.5 -72t35.5 -62l11 -25h11zM911 666 q-2 6 -5.5 16t-17 38.5t-29.5 54.5t-44 58t-60 55t-77.5 38.5t-95.5 15.5q-166 0 -312.5 -139.5t-175.5 -341.5q-14 -101 8.5 -191.5t72 -153t120.5 -99.5t151 -37q69 0 136.5 28.5t114 69t84 81t55.5 69.5l18 28q0 1 12.5 90t27 192.5t17.5 127.5z" />
<glyph unicode="r" horiz-adv-x="624" d="M616 963l-4 -21h-20q-69 0 -136.5 -28.5t-114 -69t-84 -81t-55.5 -69.5l-18 -28l-92 -666h-20l129 922h20l-28 -205h10q6 10 18 26.5t52 59t83 75t108.5 59t131.5 26.5h20z" />
<glyph unicode="s" horiz-adv-x="942" d="M147 696q16 112 118.5 189.5t258.5 77.5q128 0 202 -59t97 -146h-20q-25 79 -94 131.5t-189 52.5q-148 0 -243 -71t-109 -175q-7 -52 10.5 -90.5t53 -61t83 -38t101.5 -25.5t107.5 -20t101.5 -25.5t83 -38t52.5 -61t9.5 -90.5q-18 -128 -124 -207.5t-284 -79.5 q-151 0 -242 78t-110 188h21q21 -103 106 -174t228 -71q171 0 270 73t115 193q8 55 -15.5 93.5t-67.5 57.5t-101.5 34.5t-119 24t-119 26t-101 40.5t-66 67.5t-13.5 106.5z" />
<glyph unicode="t" horiz-adv-x="634" d="M61 881l2 20h164l41 287h21l-41 -287h287l-3 -20h-286l-94 -676q-15 -106 32 -165.5t140 -59.5q36 0 73.5 10t56.5 20l19 10l-2 -20q-67 -41 -149 -41q-101 0 -154.5 66t-36.5 180l94 676h-164z" />
<glyph unicode="u" horiz-adv-x="1126" d="M123 369l78 553h20l-78 -553q-25 -175 63 -282t251 -107q69 0 136 28.5t114 69t84 81t55 69.5l18 28l94 666h21l-129 -922h-21l29 205h-10q-6 -10 -18 -26.5t-52 -59t-83 -75t-108.5 -59t-131.5 -26.5q-170 0 -264 113.5t-68 296.5z" />
<glyph unicode="v" horiz-adv-x="1024" d="M205 0l-76 922h21l77 -902h369l332 902h20l-334 -922h-409z" />
<glyph unicode="w" horiz-adv-x="1382" d="M739 901h-51l-340 -901h-133l-86 922h21l88 -902h92l342 902h92l88 -902h92l342 902h21l-344 -922h-134z" />
<glyph unicode="x" horiz-adv-x="942" d="M426 451l-416 -451h-30l446 481l-287 441h29l268 -410h8l381 410h31l-410 -441l312 -481h-31l-293 451h-8z" />
<glyph unicode="y" horiz-adv-x="1003" d="M907 922h21l-402 -1106q-43 -117 -116 -181.5t-164 -64.5q-36 0 -70.5 10t-50.5 20l-16 11l2 20q6 -5 17.5 -11.5t47.5 -18t72 -11.5q84 0 151 59t107 167l67 184h-368l-76 922h21l77 -902h348z" />
<glyph unicode="z" horiz-adv-x="880" d="M821 891l-839 -871h737l-2 -20h-758l4 31l840 870h-699l5 21h716z" />
<glyph unicode="{" horiz-adv-x="593" d="M166 598l-2 -8q3 -1 8 -2t18 -7.5t24 -15t22.5 -24.5t16 -36t1.5 -50t-16 -66l-162 -430q-40 -103 1 -164t130 -61h164l-2 -21h-164q-98 0 -145 68t-5 178l162 430q34 88 1 140.5t-105 54.5h-52l2 20h52q73 2 120.5 54.5t38.5 140.5l-41 430q-11 110 55.5 178t164.5 68 h163l-4 -21h-163q-89 0 -147 -61t-48 -164l41 -430q4 -49 -7.5 -87.5t-31 -59t-40 -33.5t-35.5 -17z" />
<glyph unicode="|" horiz-adv-x="450" d="M348 1536l-246 -1741h-20l246 1741h20z" />
<glyph unicode="}" horiz-adv-x="593" d="M389 590l2 8q-3 1 -8 2t-18.5 7.5t-24.5 15t-22.5 24.5t-16.5 36t-2 50t16 66l164 430q39 103 -2 164t-131 61h-164l4 21h164q97 0 144 -67.5t6 -178.5l-164 -430q-32 -88 0.5 -140.5t105.5 -54.5h52l-2 -20h-52q-74 -2 -121 -54t-40 -141l43 -430q10 -111 -56.5 -178.5 t-163.5 -67.5h-163l2 21h163q90 0 148.5 61t48.5 164l-43 430q-4 49 7.5 87.5t31.5 59t41 33.5t36 17z" />
<glyph unicode="~" horiz-adv-x="798" d="M530 573q47 0 93.5 44.5t72.5 119.5l19 -10q-26 -76 -80 -125t-109 -49q-37 0 -68 17t-54 41t-45.5 48t-51.5 41t-63 17q-47 0 -94.5 -45t-73.5 -119l-19 10q26 76 80 125t109 49q37 0 68.5 -17t54.5 -41t45.5 -48t52 -41t63.5 -17z" />
<glyph unicode="&#xa1;" horiz-adv-x="491" d="M229 553l-135 -963h-20l135 963h20zM272 922q30 0 27 -31q-6 -31 -35 -31q-32 0 -26 31q3 31 34 31z" />
<glyph unicode="&#xa2;" horiz-adv-x="1064" d="M428 -225h-20l26 184q-82 2 -154.5 41.5t-123 105t-73.5 159t-9 196.5q20 137 97.5 252.5t185 181t218.5 68.5l25 184h21l-25 -184q145 -3 229 -74t105 -172h-21q-23 96 -104 160.5t-223 64.5q-166 0 -312.5 -139.5t-175.5 -341.5q-14 -101 8.5 -191.5t72 -153 t120.5 -99.5t151 -37q151 0 269 82t157 184h21q-40 -108 -162 -195.5t-276 -91.5z" />
<glyph unicode="&#xa3;" horiz-adv-x="962" d="M279 246q-6 -46 -22 -85t-34.5 -62t-35.5 -39.5t-29 -22.5l-11 -6l-2 -11h697l-2 -20h-901l2 20h90q88 0 151 60.5t76 165.5l74 512h-164l2 20h164l55 389q15 114 86 180t172 66q36 0 71 -10.5t52 -20.5l16 -10l-4 -20q-6 5 -17.5 11.5t-47.5 18t-72 11.5q-94 0 -158 -60 t-77 -166l-56 -389h287l-2 -20h-287z" />
<glyph unicode="&#xa4;" horiz-adv-x="1249" d="M338 1393h399q227 0 347 -129.5t90 -331.5q-28 -202 -183.5 -331.5t-382.5 -129.5h-379l-32 -225h553l-2 -21h-553l-31 -225h-21l31 225h-164l2 21h164l33 225h-164l2 21h164zM735 1372h-379l-125 -880h379q220 0 368 122.5t175 317.5q28 195 -85 317.5t-333 122.5z" />
<glyph unicode="&#xa5;" horiz-adv-x="1228" d="M938 492l-2 -21h-348l-33 -225h348l-2 -21h-348l-31 -225h-20l30 225h-348l2 21h349l32 225h-348l2 21h338l-405 901h30l396 -901l649 901h31l-660 -901h338z" />
<glyph unicode="&#xa6;" horiz-adv-x="450" d="M207 532l-105 -737h-20l104 737h21zM348 1536l-104 -737h-21l105 737h20z" />
<glyph unicode="&#xa7;" horiz-adv-x="1003" d="M834 696q14 104 -52 164t-241 82q-6 0 -17.5 -1.5t-44 -8t-63 -16.5t-68.5 -29t-67 -43.5t-52 -63t-30 -84.5q-14 -104 52.5 -163t240.5 -82q7 0 18 1.5t44 8t63.5 16t68.5 28.5t67 43.5t52 63t29 84.5zM268 1188q16 113 119.5 189.5t265.5 76.5q128 0 202 -59t97 -146 h-20q-23 79 -92 132t-189 53q-155 0 -251.5 -70.5t-110.5 -175.5q-9 -66 20 -109.5t82 -64t118.5 -34.5t131 -30.5t117.5 -42.5t79.5 -79t16.5 -132q-6 -46 -27.5 -85t-50 -64t-62 -45t-65.5 -31.5t-58.5 -18t-42.5 -9.5l-16 -3l-2 -10q6 0 16 -1.5t39 -7.5t55 -15t57 -26.5 t51.5 -40t32 -57.5t5.5 -77q-16 -114 -123.5 -190t-283.5 -76q-151 0 -242.5 78t-107.5 188h20q19 -102 104.5 -174t229.5 -72q169 0 268 70t115 176q7 52 -10 90t-52 59.5t-82 36.5t-100 26l-106 22t-99.5 30t-80.5 46t-50 73t-8 108q7 46 28.5 85t50.5 64t62.5 45 t65.5 31.5t58.5 18t42.5 9.5l16 3l2 11q-5 1 -14.5 2.5t-36.5 8.5t-51 16.5t-52 27.5t-47.5 40t-30 56t-4.5 74z" />
<glyph unicode="&#xa8;" horiz-adv-x="491" d="M184 1393q30 0 27 -31t-35 -31q-29 0 -26 31t34 31zM492 1393q29 0 26 -31t-35 -31q-29 0 -26 31t35 31z" />
<glyph unicode="&#xa9;" horiz-adv-x="1884" d="M872 246q-76 0 -140.5 45t-98 121t-21.5 161q19 129 127.5 228.5t225.5 99.5q109 0 168.5 -50.5t72.5 -133.5h-20q-32 164 -223 164q-109 0 -211 -93.5t-119 -214.5t59 -214t185 -93q102 0 169 47.5t111 137.5h21q-95 -205 -306 -205zM1739 573q-24 -173 -111 -329 t-213 -267.5t-286.5 -177t-327.5 -65.5t-309 65.5t-236 177t-137 267.5t-19 329t111 329t212.5 268t286 177.5t326.5 65.5q133 0 252 -41.5t209.5 -119t152 -180t85 -231.5t4.5 -268zM1718 573q31 226 -50 415t-249 297t-385 108q-162 0 -319 -64t-279.5 -172.5t-207 -261 t-107.5 -322.5q-24 -170 18 -322t134 -261t230.5 -172.5t301.5 -63.5q217 0 415 107.5t332 296.5t166 415z" />
<glyph unicode="&#xaa;" horiz-adv-x="675" d="M291 758q46 0 92.5 16t80 39t60.5 46.5t40 39.5l14 16l24 170h-205q-132 0 -194.5 -41t-73.5 -122q-11 -70 34 -117t128 -47zM440 1393q104 0 155 -73t30 -214l-47 -348h-21l16 123q-5 -6 -14 -15.5t-39 -34.5t-61.5 -44t-78.5 -34.5t-93 -15.5q-90 0 -139.5 53.5 t-38.5 131.5q23 184 290 184h205q20 134 -25 200t-141 66q-88 0 -144 -38.5t-81 -104.5h-20q26 74 89 119t158 45z" />
<glyph unicode="&#xab;" horiz-adv-x="757" d="M61 451l281 389h20l-282 -389l174 -390h-21zM369 451l280 389h21l-283 -389l174 -390h-20z" />
<glyph unicode="&#xac;" horiz-adv-x="839" d="M674 430l37 266h-615l4 21h635l-41 -287h-20z" />
<glyph unicode="&#xad;" horiz-adv-x="860" d="M764 635h-696l2 20h696z" />
<glyph unicode="&#xae;" horiz-adv-x="1863" d="M727 881h307q90 0 139.5 -53.5t38.5 -131.5q-10 -75 -59 -122t-129 -62l119 -246h-31l-108 246h-308l-34 -246h-21zM1032 860h-287l-47 -328h287q83 0 140.5 47t66.5 117q11 70 -33 117t-127 47zM1729 573q-24 -173 -111 -329t-213 -267.5t-286.5 -177t-327.5 -65.5 t-309 65.5t-236 177t-137 267.5t-19 329t111 329t212.5 268t286 177.5t326.5 65.5q133 0 252 -41.5t209.5 -119t152 -180t85 -231.5t4.5 -268zM1708 573q31 226 -50 415t-249 297t-385 108q-162 0 -319 -64t-279.5 -172.5t-207 -261t-107.5 -322.5q-24 -170 18 -322 t134 -261t230.5 -172.5t301.5 -63.5q217 0 415 107.5t332 296.5t166 415z" />
<glyph unicode="&#xaf;" horiz-adv-x="573" d="M152 1372l2 21h450l-2 -21h-450z" />
<glyph unicode="&#xb0;" horiz-adv-x="655" d="M610 1147q14 92 -43 158.5t-149 66.5t-168.5 -66.5t-89.5 -158.5q-12 -92 45 -158.5t149 -66.5t168 66.5t88 158.5zM139 1147q13 100 97 173t184 73t162.5 -73t48.5 -173q-13 -100 -97 -173t-184 -73t-162.5 73t-48.5 173z" />
<glyph unicode="&#xb1;" horiz-adv-x="962" d="M782 184h-757l4 21h368l62 442h-369l2 21h369l55 389h21l-56 -389h369l-2 -21h-369l-61 -442h368z" />
<glyph unicode="&#xb2;" horiz-adv-x="614" d="M578 1208q11 72 -36.5 118t-144.5 46q-88 0 -144 -38.5t-81 -104.5h-20q26 74 89 119t158 45q104 0 157 -53t42 -132q-6 -46 -35 -85t-71 -67.5t-91.5 -54.5t-98.5 -51t-91 -52t-70.5 -63t-34.5 -77h431l-5 -21h-450l4 21q6 46 35 85t71 67.5t91.5 54.5t98.5 51t91 52 t70.5 63t34.5 77z" />
<glyph unicode="&#xb3;" horiz-adv-x="593" d="M291 758q97 0 156.5 47.5t70.5 126.5q12 85 -34 129.5t-146 44.5h-92l4 20l311 246h-389l2 21h420l-2 -21l-311 -246h61q107 0 159 -51t38 -143q-11 -86 -79 -140.5t-173 -54.5q-95 0 -146 45t-57 119h20q8 -66 53.5 -104.5t133.5 -38.5z" />
<glyph unicode="&#xb4;" horiz-adv-x="430" d="M131 1229l320 164l8 -21l-322 -164z" />
<glyph unicode="&#xb5;" horiz-adv-x="1126" d="M12 -410l189 1332h20l-78 -553q-25 -175 63 -282t251 -107q69 0 136 28.5t114 69t84 81t55 69.5l18 28l94 666h21l-129 -922h-21l29 205h-10q-6 -10 -18 -26.5t-52 -59t-83 -75t-108.5 -59t-131.5 -26.5q-59 0 -108.5 13.5t-81.5 35.5t-57.5 48t-39.5 52t-23 48t-11 36 l-3 13h-10l-88 -615h-21z" />
<glyph unicode="&#xb6;" horiz-adv-x="655" d="M131 1085q17 125 126 216.5t245 91.5h205l-2 -21h-205l-252 -1782h-21l168 1188q-123 0 -202 92t-62 215z" />
<glyph unicode="&#xb7;" horiz-adv-x="307" d="M147 686q-32 0 -26 31q3 31 35 31q29 0 26 -31q-6 -31 -35 -31z" />
<glyph unicode="&#xb8;" horiz-adv-x="419" d="M133 0l-80 -123q8 0 20 -1t42.5 -10t53 -24.5t37.5 -49t9 -79.5q-11 -69 -64 -116.5t-122 -47.5q-41 0 -72 15.5t-42 31.5l-11 15l10 10q4 -6 12 -14.5t38.5 -22.5t66.5 -14q61 0 108 41.5t56 101.5q8 64 -32 104t-122 40h-21l93 143h20z" />
<glyph unicode="&#xb9;" horiz-adv-x="348" d="M205 737l80 574q-2 -4 -6.5 -11t-21 -25t-35.5 -31.5t-50.5 -24.5t-65.5 -11l5 21q61 0 119 51t67 113h20l-92 -656h-20z" />
<glyph unicode="&#xba;" horiz-adv-x="716" d="M682 1065q-21 -142 -117 -235t-207 -93t-180.5 93t-48.5 235q20 142 115.5 235t206.5 93t181 -93t50 -235zM662 1065q18 134 -46 220.5t-167 86.5q-104 0 -192.5 -86.5t-106.5 -220.5q-20 -134 44 -220.5t168 -86.5q103 0 191.5 86.5t108.5 220.5z" />
<glyph unicode="&#xbb;" horiz-adv-x="757" d="M444 840l170 -389l-278 -390h-21l281 390l-172 389h20zM137 840l170 -389l-278 -390h-21l281 390l-172 389h20z" />
<glyph unicode="&#xbc;" horiz-adv-x="1331" d="M287 737l80 574q-2 -4 -6.5 -11t-21 -25t-35.5 -31.5t-50.5 -24.5t-65.5 -11l5 21q61 0 119 51t67 113h20l-92 -656h-20zM1145 1393l-1055 -1393h-20l1054 1393h21zM1022 0h-21l27 184h-348l2 21l289 450h20l-289 -450h328l23 164h20l-22 -164h82l-3 -21h-81z" />
<glyph unicode="&#xbd;" horiz-adv-x="1372" d="M287 737l80 574q-2 -4 -6.5 -11t-21 -25t-35.5 -31.5t-50.5 -24.5t-65.5 -11l5 21q61 0 119 51t67 113h20l-92 -656h-20zM1145 1393l-1055 -1393h-20l1054 1393h21zM1190 471q11 72 -36 118t-144 46q-88 0 -144.5 -39t-81.5 -104h-20q26 73 89.5 118t158.5 45 q104 0 156.5 -52.5t41.5 -131.5q-9 -62 -60 -112.5t-118.5 -85.5t-135.5 -69.5t-118.5 -81t-58.5 -102.5h430l-4 -20h-451l4 20q9 62 60 112.5t119 85.5t135.5 69.5t118.5 81t59 102.5z" />
<glyph unicode="&#xbe;" horiz-adv-x="1433" d="M332 758q97 0 156.5 47.5t70.5 126.5q12 85 -34 129.5t-146 44.5h-92l4 20l311 246h-389l2 21h420l-2 -21l-311 -246h61q107 0 159 -51t38 -143q-11 -86 -79 -140.5t-173 -54.5q-95 0 -146 45t-57 119h20q8 -66 53.5 -104.5t133.5 -38.5zM1227 1393l-1055 -1393h-20 l1054 1393h21zM1104 0h-21l27 184h-348l2 21l289 450h20l-289 -450h328l23 164h20l-22 -164h81l-2 -21h-82z" />
<glyph unicode="&#xbf;" horiz-adv-x="1044" d="M369 -430q341 0 493 307h21q-72 -150 -200 -239t-316 -89q-93 0 -170.5 30t-126 79t-72 112t-14.5 128q11 79 44 134.5t77 87t96 57t103.5 53t96.5 64t79 102.5t46 157h21q-11 -75 -34.5 -134t-54.5 -96.5t-69 -66.5t-78 -49t-80 -39t-77 -41.5t-67.5 -51t-52.5 -73.5 t-30 -104q-9 -61 13 -120t68 -105.5t120.5 -74.5t163.5 -28zM590 922q29 0 26 -31q-6 -31 -34 -31q-33 0 -27 31q3 31 35 31z" />
<glyph unicode="&#xc0;" horiz-adv-x="1392" d="M1118 430l-96 942h-471l-363 -942h930zM1122 410h-942l-160 -410h-20l532 1393h512l144 -1393h-21zM705 1823l274 -164l-14 -21l-273 164z" />
<glyph unicode="&#xc1;" horiz-adv-x="1392" d="M1118 430l-96 942h-471l-363 -942h930zM1122 410h-942l-160 -410h-20l532 1393h512l144 -1393h-21zM731 1659l320 164l8 -21l-322 -164z" />
<glyph unicode="&#xc2;" horiz-adv-x="1392" d="M1118 430l-96 942h-471l-363 -942h930zM1122 410h-942l-160 -410h-20l532 1393h512l144 -1393h-21zM840 1843h20l189 -266h-31l-170 246l-240 -246h-30z" />
<glyph unicode="&#xc3;" horiz-adv-x="1392" d="M1118 430l-96 942h-471l-363 -942h930zM1122 410h-942l-160 -410h-20l532 1393h512l144 -1393h-21zM922 1618q-25 0 -45.5 17t-34.5 41t-27.5 48t-32.5 41t-41 17q-47 0 -79 -31.5t-41 -91.5q-1 0 -7 -41h-20l6 41q10 68 49 105.5t94 37.5q31 0 56 -25.5t39.5 -56.5 t37.5 -56.5t50 -25.5q47 0 79 31.5t39 91.5q1 0 7 41h20l-6 -41q-9 -67 -48.5 -105t-94.5 -38z" />
<glyph unicode="&#xc4;" horiz-adv-x="1392" d="M1118 430l-96 942h-471l-363 -942h930zM1122 410h-942l-160 -410h-20l532 1393h512l144 -1393h-21zM682 1733q30 0 27 -31t-35 -31q-30 0 -27 31t35 31zM989 1733q30 0 27 -31t-35 -31q-30 0 -27 31t35 31z" />
<glyph unicode="&#xc5;" horiz-adv-x="1392" d="M1118 430l-96 942h-471l-363 -942h930zM1122 410h-942l-160 -410h-20l532 1393h512l144 -1393h-21zM1001 1761q11 69 -29.5 116.5t-109.5 47.5t-123 -47.5t-65 -116.5q-9 -69 31.5 -116.5t109.5 -47.5t123 47.5t63 116.5zM653 1761q10 76 72 130.5t139 54.5 q76 0 122.5 -54t35.5 -131t-72 -130.5t-137 -53.5q-77 0 -123.5 54t-36.5 130z" />
<glyph unicode="&#xc6;" horiz-adv-x="1935" d="M870 0l58 410h-789l-157 -410h-23l533 1393h1454l-2 -21h-861l-92 -655h676l-4 -21h-676l-94 -676h860l-2 -20h-881zM510 1372l-363 -942h783l133 942h-553z" />
<glyph unicode="&#xc7;" horiz-adv-x="1546" d="M1393 369q-45 -88 -109.5 -163t-149 -136t-195 -96t-232.5 -35l-66 -103q8 0 20 -1t42.5 -10t53 -24.5t37.5 -49t9 -79.5q-9 -69 -63.5 -116.5t-123.5 -47.5q-26 0 -48 6.5t-35.5 15.5t-23 18t-13.5 16l-4 6l12 10q4 -6 11.5 -14.5t37 -22.5t65.5 -14q61 0 108.5 41.5 t55.5 101.5q9 64 -31 104t-122 40h-21l78 123q-125 0 -241 61.5t-197.5 162.5t-122 242.5t-19.5 290.5q21 150 101 291t191 242.5t246.5 163t264.5 61.5q118 0 217 -34.5t164 -91.5t105.5 -124t54.5 -139h-20q-11 54 -37.5 105.5t-71.5 99.5t-103 84t-138.5 58t-172.5 22 q-125 0 -256.5 -60t-239.5 -159t-185.5 -236t-98.5 -283q-16 -117 6 -229.5t75 -203t128 -159.5t169.5 -107t194.5 -38q122 0 230.5 33t191 92t144.5 130t106 155h21z" />
<glyph unicode="&#xc8;" horiz-adv-x="1218" d="M135 20h901l-2 -20h-921l194 1393h922l-2 -21h-901l-93 -655h717l-4 -21h-717zM653 1823l275 -164l-15 -21l-272 164z" />
<glyph unicode="&#xc9;" horiz-adv-x="1218" d="M135 20h901l-2 -20h-921l194 1393h922l-2 -21h-901l-93 -655h717l-4 -21h-717zM684 1659l320 164l8 -21l-322 -164z" />
<glyph unicode="&#xca;" horiz-adv-x="1218" d="M135 20h901l-2 -20h-921l194 1393h922l-2 -21h-901l-93 -655h717l-4 -21h-717zM823 1864h21l188 -267h-31l-170 246l-239 -246h-31z" />
<glyph unicode="&#xcb;" horiz-adv-x="1218" d="M135 20h901l-2 -20h-921l194 1393h922l-2 -21h-901l-93 -655h717l-4 -21h-717zM674 1743q29 0 26 -31t-34 -31q-30 0 -27 31t35 31zM981 1743q30 0 27 -31t-35 -31q-30 0 -27 31t35 31z" />
<glyph unicode="&#xcc;" horiz-adv-x="409" d="M309 1393l-194 -1393h-21l195 1393h20zM121 1802l274 -164l-14 -20l-272 164z" />
<glyph unicode="&#xcd;" horiz-adv-x="409" d="M287 1393l-195 -1393h-20l194 1393h21zM272 1659l320 164l8 -21l-321 -164z" />
<glyph unicode="&#xce;" horiz-adv-x="471" d="M338 1393l-195 -1393h-20l194 1393h21zM385 1884h21l188 -266h-31l-170 246l-239 -246h-31z" />
<glyph unicode="&#xcf;" horiz-adv-x="450" d="M328 1393l-195 -1393h-20l194 1393h21zM209 1720q30 0 27 -30q-3 -31 -35 -31q-30 0 -27 31q3 30 35 30zM516 1720q30 0 27 -30q-3 -31 -35 -31q-30 0 -27 31q3 30 35 30z" />
<glyph unicode="&#xd0;" horiz-adv-x="1464" d="M1346 696q-43 -309 -268 -502.5t-546 -193.5h-368l96 696h-184l4 21h184l94 676h369q212 0 363 -88.5t217.5 -247t38.5 -361.5zM1325 696q43 301 -122 488.5t-478 187.5h-348l-92 -655h368l-4 -21h-368l-95 -676h349q207 0 377.5 85.5t278 239t134.5 351.5z" />
<glyph unicode="&#xd1;" horiz-adv-x="1454" d="M338 1393l780 -1373l193 1373h20l-194 -1393h-31l-780 1372l-193 -1372h-20l194 1393h31zM977 1659q-31 0 -55.5 25.5t-38.5 56.5t-36.5 56.5t-49.5 25.5q-47 0 -79.5 -31.5t-41.5 -91.5l-6 -41h-21l6 41q10 68 49.5 105.5t94.5 37.5q25 0 45.5 -17t35 -41t28 -48t32 -41 t41.5 -17q47 0 79.5 31.5t39.5 91.5l6 41h20l-6 -41q-9 -67 -48.5 -105t-94.5 -38z" />
<glyph unicode="&#xd2;" horiz-adv-x="1658" d="M106 696q28 200 154.5 376t307 279t362.5 103q136 0 258.5 -61.5t206.5 -163t125 -242.5t20 -291t-101 -290.5t-193 -242t-253 -163t-276 -61.5t-258.5 61.5t-207 163t-125.5 242t-20 290.5zM127 696q-20 -146 20 -283t122 -236t201 -158.5t251 -59.5t268 59.5 t245.5 158.5t187.5 236t98 283q21 146 -18.5 283t-121.5 236t-201 159t-251 60t-268 -60t-246 -159t-188 -236t-99 -283zM844 1864l274 -164l-14 -21l-273 164z" />
<glyph unicode="&#xd3;" horiz-adv-x="1658" d="M106 696q28 200 154.5 376t307 279t362.5 103q136 0 258.5 -61.5t206.5 -163t125 -242.5t20 -291t-101 -290.5t-193 -242t-253 -163t-276 -61.5t-258.5 61.5t-207 163t-125.5 242t-20 290.5zM127 696q-20 -146 20 -283t122 -236t201 -158.5t251 -59.5t268 59.5 t245.5 158.5t187.5 236t98 283q21 146 -18.5 283t-121.5 236t-201 159t-251 60t-268 -60t-246 -159t-188 -236t-99 -283zM854 1720l320 164l8 -20l-322 -164z" />
<glyph unicode="&#xd4;" horiz-adv-x="1658" d="M106 696q28 200 154.5 376t307 279t362.5 103q136 0 258.5 -61.5t206.5 -163t125 -242.5t20 -291t-101 -290.5t-193 -242t-253 -163t-276 -61.5t-258.5 61.5t-207 163t-125.5 242t-20 290.5zM127 696q-20 -146 20 -283t122 -236t201 -158.5t251 -59.5t268 59.5 t245.5 158.5t187.5 236t98 283q21 146 -18.5 283t-121.5 236t-201 159t-251 60t-268 -60t-246 -159t-188 -236t-99 -283zM983 1905h21l188 -267h-31l-170 246l-239 -246h-31z" />
<glyph unicode="&#xd5;" horiz-adv-x="1658" d="M106 696q28 200 154.5 376t307 279t362.5 103q136 0 258.5 -61.5t206.5 -163t125 -242.5t20 -291t-101 -290.5t-193 -242t-253 -163t-276 -61.5t-258.5 61.5t-207 163t-125.5 242t-20 290.5zM127 696q-20 -146 20 -283t122 -236t201 -158.5t251 -59.5t268 59.5 t245.5 158.5t187.5 236t98 283q21 146 -18.5 283t-121.5 236t-201 159t-251 60t-268 -60t-246 -159t-188 -236t-99 -283zM1059 1659q-31 0 -55.5 25.5t-38.5 56.5t-36.5 56.5t-49.5 25.5q-47 0 -79.5 -31.5t-41.5 -91.5l-6 -41h-21l6 41q10 68 49.5 105.5t94.5 37.5 q25 0 45.5 -17t35 -41t28 -48t32 -41t41.5 -17q47 0 79.5 31.5t39.5 91.5l6 41h20l-6 -41q-9 -67 -48.5 -105t-94.5 -38z" />
<glyph unicode="&#xd6;" horiz-adv-x="1658" d="M106 696q28 200 154.5 376t307 279t362.5 103q136 0 258.5 -61.5t206.5 -163t125 -242.5t20 -291t-101 -290.5t-193 -242t-253 -163t-276 -61.5t-258.5 61.5t-207 163t-125.5 242t-20 290.5zM127 696q-20 -146 20 -283t122 -236t201 -158.5t251 -59.5t268 59.5 t245.5 158.5t187.5 236t98 283q21 146 -18.5 283t-121.5 236t-201 159t-251 60t-268 -60t-246 -159t-188 -236t-99 -283zM821 1782q30 0 27 -31t-35 -31q-30 0 -27 31t35 31zM1128 1782q30 0 27 -31t-35 -31q-29 0 -26 31t34 31z" />
<glyph unicode="&#xd7;" horiz-adv-x="675" d="M330 676l270 246l18 -11l-282 -256l211 -256l-23 -10l-200 246l-271 -246l-18 10l280 256l-209 256l23 11z" />
<glyph unicode="&#xd8;" horiz-adv-x="1720" d="M176 420l1352 573q-34 93 -83 169.5t-118 139t-163.5 97.5t-205.5 35q-132 0 -267.5 -60t-245.5 -159t-188 -236t-99 -283q-8 -74 -4 -135t13 -101zM137 696q28 200 154.5 376t307 279t362.5 103q115 0 213 -36.5t169 -101t121.5 -142t83.5 -170.5l224 92l-5 -25 l-211 -88q2 -5 4.5 -14.5t8 -39.5t8.5 -61.5t2 -78.5t-8 -93q-21 -150 -101 -290.5t-193 -242t-253 -163t-276 -61.5q-115 0 -212.5 36.5t-169 101t-122 142t-84.5 170.5l-221 -92l4 25l211 88q-2 5 -4.5 14t-8 39t-8.5 61.5t-2.5 78.5t6.5 93zM1532 973l-1350 -574 q34 -93 83 -169t118 -138.5t163.5 -97.5t205.5 -35q177 0 351.5 100t297 271.5t149.5 365.5q8 74 4 135.5t-13 101.5z" />
<glyph unicode="&#xd9;" horiz-adv-x="1454" d="M618 -41q218 0 375.5 145t190.5 388l127 901h20l-127 -901q-35 -250 -199.5 -401.5t-390.5 -151.5q-225 0 -347 151t-87 402l127 901h21l-127 -901q-33 -243 83 -388t334 -145zM705 1823l274 -164l-14 -21l-273 164z" />
<glyph unicode="&#xda;" horiz-adv-x="1454" d="M618 -41q218 0 375.5 145t190.5 388l127 901h20l-127 -901q-35 -250 -199.5 -401.5t-390.5 -151.5q-225 0 -347 151t-87 402l127 901h21l-127 -901q-33 -243 83 -388t334 -145zM743 1659l320 164l8 -21l-321 -164z" />
<glyph unicode="&#xdb;" horiz-adv-x="1454" d="M618 -41q218 0 375.5 145t190.5 388l127 901h20l-127 -901q-35 -250 -199.5 -401.5t-390.5 -151.5q-225 0 -347 151t-87 402l127 901h21l-127 -901q-33 -243 83 -388t334 -145zM883 1864h20l189 -267h-31l-170 246l-240 -246h-30z" />
<glyph unicode="&#xdc;" horiz-adv-x="1454" d="M618 -41q218 0 375.5 145t190.5 388l127 901h20l-127 -901q-35 -250 -199.5 -401.5t-390.5 -151.5q-225 0 -347 151t-87 402l127 901h21l-127 -901q-33 -243 83 -388t334 -145zM709 1700q29 0 26 -31t-35 -31q-29 0 -26 31t35 31zM1016 1700q29 0 26 -31t-34 -31 q-30 0 -27 31t35 31z" />
<glyph unicode="&#xdd;" horiz-adv-x="1290" d="M1321 1393l-703 -922l-65 -471h-21l66 471l-444 922h30l426 -901l680 901h31zM700 1638l320 164l8 -20l-321 -164z" />
<glyph unicode="&#xde;" horiz-adv-x="1290" d="M313 1290h267q200 0 339.5 -75t199 -204t36.5 -294q-36 -252 -236 -413t-501 -161h-266l-25 -184h-21l213 1516h21zM578 1270h-267l-155 -1106h266q293 0 485.5 155t227.5 398q22 159 -35 283.5t-192 197t-330 72.5z" />
<glyph unicode="&#xdf;" horiz-adv-x="1105" d="M920 1085q20 138 -62.5 233t-220.5 95t-245.5 -95t-127.5 -233l-151 -1085h-21l152 1085q20 146 135.5 247.5t261.5 101.5t232.5 -101.5t66.5 -247.5q-10 -74 -42 -135t-69.5 -94.5t-74 -56t-60.5 -29.5l-24 -8l-2 -8q7 -1 18.5 -3t44 -12.5t61.5 -25.5t62.5 -44.5 t55.5 -67t33 -95.5t1 -127q-23 -162 -148.5 -270.5t-293.5 -108.5h-123l2 20h123q160 0 278.5 102t141.5 257q22 154 -68.5 256t-251.5 102h-102l4 21h41q138 0 245.5 94.5t127.5 232.5z" />
<glyph unicode="&#xe0;" d="M819 0l29 205h-10q-6 -10 -18.5 -26.5t-52.5 -59t-83 -75t-108.5 -59t-131.5 -26.5q-84 0 -158.5 38.5t-126.5 104.5t-76 160t-9 199q20 139 100 256t190 181.5t222 64.5q66 0 123.5 -25.5t92.5 -61.5t60.5 -72t35.5 -62l11 -25h11l28 205h21l-129 -922h-21zM854 256 q3 24 17.5 127.5t27 192.5t12.5 90q-2 6 -5.5 16t-17 38.5t-29.5 54.5t-44 58t-60 55t-77.5 38.5t-95.5 15.5q-166 0 -312.5 -139.5t-175.5 -341.5q-14 -101 8.5 -191.5t72 -153t120.5 -99.5t151 -37q69 0 136.5 28.5t114 69t84 81t55.5 69.5zM506 1372l274 -164l-14 -20 l-272 164z" />
<glyph unicode="&#xe1;" d="M819 0l29 205h-10q-6 -10 -18.5 -26.5t-52.5 -59t-83 -75t-108.5 -59t-131.5 -26.5q-84 0 -158.5 38.5t-126.5 104.5t-76 160t-9 199q20 139 100 256t190 181.5t222 64.5q66 0 123.5 -25.5t92.5 -61.5t60.5 -72t35.5 -62l11 -25h11l28 205h21l-129 -922h-21zM854 256 q3 24 17.5 127.5t27 192.5t12.5 90q-2 6 -5.5 16t-17 38.5t-29.5 54.5t-44 58t-60 55t-77.5 38.5t-95.5 15.5q-166 0 -312.5 -139.5t-175.5 -341.5q-14 -101 8.5 -191.5t72 -153t120.5 -99.5t151 -37q69 0 136.5 28.5t114 69t84 81t55.5 69.5zM516 1229l320 164l8 -21 l-322 -164z" />
<glyph unicode="&#xe2;" d="M819 0l29 205h-10q-6 -10 -18.5 -26.5t-52.5 -59t-83 -75t-108.5 -59t-131.5 -26.5q-84 0 -158.5 38.5t-126.5 104.5t-76 160t-9 199q20 139 100 256t190 181.5t222 64.5q66 0 123.5 -25.5t92.5 -61.5t60.5 -72t35.5 -62l11 -25h11l28 205h21l-129 -922h-21zM854 256 q3 24 17.5 127.5t27 192.5t12.5 90q-2 6 -5.5 16t-17 38.5t-29.5 54.5t-44 58t-60 55t-77.5 38.5t-95.5 15.5q-166 0 -312.5 -139.5t-175.5 -341.5q-14 -101 8.5 -191.5t72 -153t120.5 -99.5t151 -37q69 0 136.5 28.5t114 69t84 81t55.5 69.5zM645 1434h21l188 -267h-31 l-170 246l-239 -246h-31z" />
<glyph unicode="&#xe3;" d="M819 0l29 205h-10q-6 -10 -18.5 -26.5t-52.5 -59t-83 -75t-108.5 -59t-131.5 -26.5q-84 0 -158.5 38.5t-126.5 104.5t-76 160t-9 199q20 139 100 256t190 181.5t222 64.5q66 0 123.5 -25.5t92.5 -61.5t60.5 -72t35.5 -62l11 -25h11l28 205h21l-129 -922h-21zM854 256 q3 24 17.5 127.5t27 192.5t12.5 90q-2 6 -5.5 16t-17 38.5t-29.5 54.5t-44 58t-60 55t-77.5 38.5t-95.5 15.5q-166 0 -312.5 -139.5t-175.5 -341.5q-14 -101 8.5 -191.5t72 -153t120.5 -99.5t151 -37q69 0 136.5 28.5t114 69t84 81t55.5 69.5zM719 1200q-31 0 -55.5 25.5 t-38.5 56.5t-36.5 56.5t-49.5 25.5q-47 0 -79.5 -31.5t-41.5 -91.5l-6 -41h-21l6 41q10 68 49.5 105.5t94.5 37.5q25 0 45.5 -17t35 -41t28 -47.5t32.5 -40.5t41 -17q47 0 79.5 31t39.5 91l6 41h20l-6 -41q-9 -67 -48.5 -105t-94.5 -38z" />
<glyph unicode="&#xe4;" d="M819 0l29 205h-10q-6 -10 -18.5 -26.5t-52.5 -59t-83 -75t-108.5 -59t-131.5 -26.5q-84 0 -158.5 38.5t-126.5 104.5t-76 160t-9 199q20 139 100 256t190 181.5t222 64.5q66 0 123.5 -25.5t92.5 -61.5t60.5 -72t35.5 -62l11 -25h11l28 205h21l-129 -922h-21zM854 256 q3 24 17.5 127.5t27 192.5t12.5 90q-2 6 -5.5 16t-17 38.5t-29.5 54.5t-44 58t-60 55t-77.5 38.5t-95.5 15.5q-166 0 -312.5 -139.5t-175.5 -341.5q-14 -101 8.5 -191.5t72 -153t120.5 -99.5t151 -37q69 0 136.5 28.5t114 69t84 81t55.5 69.5zM469 1282q30 0 27 -31 q-3 -30 -35 -30q-30 0 -27 30q3 31 35 31zM776 1282q30 0 27 -31q-3 -30 -35 -30q-30 0 -27 30q3 31 35 31z" />
<glyph unicode="&#xe5;" d="M819 0l29 205h-10q-6 -10 -18.5 -26.5t-52.5 -59t-83 -75t-108.5 -59t-131.5 -26.5q-84 0 -158.5 38.5t-126.5 104.5t-76 160t-9 199q20 139 100 256t190 181.5t222 64.5q66 0 123.5 -25.5t92.5 -61.5t60.5 -72t35.5 -62l11 -25h11l28 205h21l-129 -922h-21zM854 256 q3 24 17.5 127.5t27 192.5t12.5 90q-2 6 -5.5 16t-17 38.5t-29.5 54.5t-44 58t-60 55t-77.5 38.5t-95.5 15.5q-166 0 -312.5 -139.5t-175.5 -341.5q-14 -101 8.5 -191.5t72 -153t120.5 -99.5t151 -37q69 0 136.5 28.5t114 69t84 81t55.5 69.5zM801 1348q10 69 -30 116 t-109 47t-124 -47t-65 -116q-9 -69 31.5 -116.5t109.5 -47.5t123.5 47.5t63.5 116.5zM453 1348q10 76 72 130t139 54q76 0 122 -53.5t35 -130.5t-72 -131t-137 -54t-123 54t-36 131z" />
<glyph unicode="&#xe6;" horiz-adv-x="1781" d="M791 307q-3 -7 -8.5 -19.5t-25.5 -49t-44 -69t-64.5 -73t-85.5 -69t-108.5 -48.5t-132.5 -20q-162 0 -245 77t-67 189q16 113 119.5 190t265.5 77h410q31 223 -47 336.5t-238 113.5q-69 0 -128.5 -19t-95 -46t-61.5 -54t-37 -46l-10 -19h-20q4 8 11.5 22t37.5 49.5 t66.5 62.5t101.5 49t139 22q140 0 225.5 -87.5t86.5 -238.5h10q3 7 8.5 18.5t26 45.5t44.5 65t63 68.5t81.5 64.5t101 45.5t121.5 18.5q111 0 199 -64t130 -173t24 -234l-23 -21h-799q-15 -104 7 -197t69.5 -156.5t114 -100.5t139.5 -37q151 0 269 82t157 184h20 q-41 -110 -165.5 -198.5t-282.5 -88.5q-63 0 -116 19t-88 50t-62.5 68t-42.5 74t-25 68t-13 50l-3 19h-10zM324 -20q173 0 309.5 130.5t165.5 340.5l4 20h-410q-155 0 -251.5 -70.5t-110.5 -175.5t62 -175t231 -70zM1288 942q-106 0 -206.5 -60.5t-170 -164.5t-86.5 -225 h799q17 121 -23 225t-123.5 164.5t-189.5 60.5z" />
<glyph unicode="&#xe7;" horiz-adv-x="1064" d="M893 246q-40 -109 -163.5 -198t-274.5 -89l-66 -102q8 0 20 -1t42.5 -10t52.5 -24.5t37 -49t8 -79.5q-9 -69 -63.5 -116.5t-123.5 -47.5q-41 0 -72 15.5t-42 30.5l-10 15l12 11q4 -6 12 -14.5t38.5 -23t66.5 -14.5q61 0 107 42t54 102q9 64 -31 103.5t-122 39.5h-21 l80 123q-80 0 -152.5 38.5t-123.5 104t-75 160.5t-9 199q20 139 100 256t190 181.5t222 64.5q150 0 236.5 -71.5t107.5 -174.5h-21q-23 96 -104 160.5t-223 64.5q-166 0 -312.5 -139.5t-175.5 -341.5q-14 -101 8.5 -191.5t72 -153t120.5 -99.5t151 -37q151 0 269 82t157 184 h21z" />
<glyph unicode="&#xe8;" horiz-adv-x="1075" d="M575 963q-108 0 -215.5 -64.5t-187 -181.5t-98.5 -256q-14 -105 10 -199t75.5 -160t126 -104.5t158.5 -38.5q158 0 283 88.5t166 198.5h-21q-41 -102 -159 -184t-267 -82q-80 0 -150.5 36.5t-119.5 98t-72.5 150t-11.5 186.5h819l25 20q19 133 -28 248t-137 179.5 t-196 64.5zM571 942q76 0 145 -36.5t118 -98t72 -150.5t9 -186h-819q29 196 173 333.5t302 137.5zM512 1393l274 -164l-14 -21l-272 164z" />
<glyph unicode="&#xe9;" horiz-adv-x="1075" d="M575 963q-108 0 -215.5 -64.5t-187 -181.5t-98.5 -256q-14 -105 10 -199t75.5 -160t126 -104.5t158.5 -38.5q158 0 283 88.5t166 198.5h-21q-41 -102 -159 -184t-267 -82q-80 0 -150.5 36.5t-119.5 98t-72.5 150t-11.5 186.5h819l25 20q19 133 -28 248t-137 179.5 t-196 64.5zM571 942q76 0 145 -36.5t118 -98t72 -150.5t9 -186h-819q29 196 173 333.5t302 137.5zM516 1208l320 164l8 -20l-322 -164z" />
<glyph unicode="&#xea;" horiz-adv-x="1075" d="M575 963q-108 0 -215.5 -64.5t-187 -181.5t-98.5 -256q-14 -105 10 -199t75.5 -160t126 -104.5t158.5 -38.5q158 0 283 88.5t166 198.5h-21q-41 -102 -159 -184t-267 -82q-80 0 -150.5 36.5t-119.5 98t-72.5 150t-11.5 186.5h819l25 20q19 133 -28 248t-137 179.5 t-196 64.5zM571 942q76 0 145 -36.5t118 -98t72 -150.5t9 -186h-819q29 196 173 333.5t302 137.5zM637 1413h20l189 -266h-31l-170 246l-239 -246h-31z" />
<glyph unicode="&#xeb;" horiz-adv-x="1075" d="M575 963q-108 0 -215.5 -64.5t-187 -181.5t-98.5 -256q-14 -105 10 -199t75.5 -160t126 -104.5t158.5 -38.5q158 0 283 88.5t166 198.5h-21q-41 -102 -159 -184t-267 -82q-80 0 -150.5 36.5t-119.5 98t-72.5 150t-11.5 186.5h819l25 20q19 133 -28 248t-137 179.5 t-196 64.5zM571 942q76 0 145 -36.5t118 -98t72 -150.5t9 -186h-819q29 196 173 333.5t302 137.5zM475 1290q30 0 27 -30q-3 -31 -35 -31q-30 0 -27 31q3 30 35 30zM782 1290q30 0 27 -30q-3 -31 -35 -31q-29 0 -26 31q3 30 34 30z" />
<glyph unicode="&#xec;" horiz-adv-x="430" d="M102 0l129 922h21l-129 -922h-21zM82 1393l274 -164l-14 -21l-272 164z" />
<glyph unicode="&#xed;" horiz-adv-x="430" d="M209 1208l319 164l9 -20l-322 -164zM102 0l129 922h21l-129 -922h-21z" />
<glyph unicode="&#xee;" horiz-adv-x="430" d="M301 1413h21l188 -266h-31l-170 246l-239 -246h-31zM102 0l129 922h21l-129 -922h-21z" />
<glyph unicode="&#xef;" horiz-adv-x="430" d="M137 1270q30 0 27 -31t-35 -31q-30 0 -27 31t35 31zM444 1270q30 0 27 -31t-35 -31q-29 0 -26 31t34 31zM102 0l129 922h21l-129 -922h-21z" />
<glyph unicode="&#xf0;" d="M696 1167l-8 21l160 112q-26 41 -61 87t-57 72l-21 26l12 10q88 -102 147 -184l158 102l8 -20l-157 -103q2 -2 5 -6.5t12 -20t17 -32.5t19 -44.5t19.5 -56.5t16 -67.5t11 -78t2.5 -88t-8 -97.5l-53 -379q-29 -205 -168.5 -333t-325.5 -128q-187 0 -291.5 128t-75.5 333 t169 333t327 128q71 0 129.5 -17t95.5 -44t65 -60t42 -66t22.5 -60t10.5 -44l2 -17l30 226q33 237 -60 421q-24 48 -36 58zM426 -20q179 0 311.5 121.5t159.5 318.5q29 197 -69 318.5t-277 121.5t-311.5 -121.5t-161.5 -318.5q-27 -197 71 -318.5t277 -121.5z" />
<glyph unicode="&#xf1;" d="M926 553l-76 -553h-21l76 553q26 175 -62 282t-251 107q-69 0 -136.5 -28.5t-114 -69t-84 -81t-55.5 -69.5l-18 -28l-92 -666h-20l129 922h20l-28 -205h10q6 10 18 26.5t52 59t83 75t108.5 59t131.5 26.5q170 0 263 -113.5t67 -296.5zM711 1208q-25 0 -45.5 17t-34.5 41 t-27.5 48t-32.5 41t-41 17q-47 0 -79 -31.5t-41 -91.5q-1 0 -7 -41h-20l6 41q10 68 49 106t94 38q31 0 56 -25.5t39.5 -56.5t37.5 -56.5t50 -25.5q47 0 79.5 31.5t39.5 91.5l6 41h20l-6 -41q-9 -67 -48.5 -105.5t-94.5 -38.5z" />
<glyph unicode="&#xf2;" horiz-adv-x="1146" d="M995 461q-20 -140 -99.5 -256t-194 -181t-236.5 -65t-219 65t-144.5 181t-27.5 256t100 256t195 181t237 65t218.5 -65t143.5 -181t27 -256zM975 461q19 135 -26 246t-137.5 173t-209.5 62q-180 0 -329.5 -138.5t-178.5 -342.5q-19 -135 26 -246t137.5 -173t209.5 -62 q180 0 329.5 138.5t178.5 342.5zM522 1372l275 -164l-15 -20l-272 164z" />
<glyph unicode="&#xf3;" horiz-adv-x="1146" d="M995 461q-20 -140 -99.5 -256t-194 -181t-236.5 -65t-219 65t-144.5 181t-27.5 256t100 256t195 181t237 65t218.5 -65t143.5 -181t27 -256zM975 461q19 135 -26 246t-137.5 173t-209.5 62q-180 0 -329.5 -138.5t-178.5 -342.5q-19 -135 26 -246t137.5 -173t209.5 -62 q180 0 329.5 138.5t178.5 342.5zM532 1229l320 164l8 -21l-321 -164z" />
<glyph unicode="&#xf4;" horiz-adv-x="1146" d="M995 461q-20 -140 -99.5 -256t-194 -181t-236.5 -65t-219 65t-144.5 181t-27.5 256t100 256t195 181t237 65t218.5 -65t143.5 -181t27 -256zM975 461q19 135 -26 246t-137.5 173t-209.5 62q-180 0 -329.5 -138.5t-178.5 -342.5q-19 -135 26 -246t137.5 -173t209.5 -62 q180 0 329.5 138.5t178.5 342.5zM682 1434h20l189 -267h-31l-170 246l-239 -246h-31z" />
<glyph unicode="&#xf5;" horiz-adv-x="1146" d="M995 461q-20 -140 -99.5 -256t-194 -181t-236.5 -65t-219 65t-144.5 181t-27.5 256t100 256t195 181t237 65t218.5 -65t143.5 -181t27 -256zM975 461q19 135 -26 246t-137.5 173t-209.5 62q-180 0 -329.5 -138.5t-178.5 -342.5q-19 -135 26 -246t137.5 -173t209.5 -62 q180 0 329.5 138.5t178.5 342.5zM745 1167q-31 0 -55.5 25.5t-38.5 56.5t-36.5 56.5t-49.5 25.5q-47 0 -79.5 -31.5t-41.5 -91.5l-6 -41h-20l6 41q10 68 49 106t94 38q31 0 56 -25.5t39.5 -56.5t37.5 -56.5t50 -25.5q47 0 79 31.5t39 91.5l6 41h21l-6 -41q-9 -67 -49 -105.5 t-95 -38.5z" />
<glyph unicode="&#xf6;" horiz-adv-x="1146" d="M995 461q-20 -140 -99.5 -256t-194 -181t-236.5 -65t-219 65t-144.5 181t-27.5 256t100 256t195 181t237 65t218.5 -65t143.5 -181t27 -256zM975 461q19 135 -26 246t-137.5 173t-209.5 62q-180 0 -329.5 -138.5t-178.5 -342.5q-19 -135 26 -246t137.5 -173t209.5 -62 q180 0 329.5 138.5t178.5 342.5zM498 1303q29 0 26 -31t-35 -31q-29 0 -26 31t35 31zM805 1303q29 0 26 -31t-34 -31q-30 0 -27 31t35 31z" />
<glyph unicode="&#xf7;" horiz-adv-x="860" d="M764 635h-696l2 20h696zM350 246q-29 0 -26 30q6 31 36 31q31 0 25 -31q-3 -30 -35 -30zM455 983q-30 0 -27 31q3 30 35 30q29 0 26 -30q-3 -31 -34 -31z" />
<glyph unicode="&#xf8;" horiz-adv-x="1167" d="M983 623l-874 -347q88 -296 368 -296q180 0 329.5 138.5t178.5 342.5q5 47 4.5 83t-3.5 58zM475 -41q-157 0 -251.5 85t-135.5 222l-164 -65l4 24l156 64q-16 59 0 172q20 140 100 256t195 181t237 65q157 0 251.5 -85.5t133.5 -222.5l164 62l-4 -25l-155 -59 q16 -59 0 -172q-20 -140 -100 -256t-194.5 -181t-236.5 -65zM106 299l875 346q-89 297 -369 297q-180 0 -329.5 -138.5t-178.5 -342.5q-5 -47 -4.5 -83t3.5 -58z" />
<glyph unicode="&#xf9;" horiz-adv-x="1126" d="M123 369l78 553h20l-78 -553q-25 -175 63 -282t251 -107q69 0 136 28.5t114 69t84 81t55 69.5l18 28l94 666h21l-129 -922h-21l29 205h-10q-6 -10 -18 -26.5t-52 -59t-83 -75t-108.5 -59t-131.5 -26.5q-170 0 -264 113.5t-68 296.5zM506 1350l274 -164l-14 -21l-272 164z " />
<glyph unicode="&#xfa;" horiz-adv-x="1126" d="M123 369l78 553h20l-78 -553q-25 -175 63 -282t251 -107q69 0 136 28.5t114 69t84 81t55 69.5l18 28l94 666h21l-129 -922h-21l29 205h-10q-6 -10 -18 -26.5t-52 -59t-83 -75t-108.5 -59t-131.5 -26.5q-170 0 -264 113.5t-68 296.5zM530 1167l320 164l8 -20l-321 -164z " />
<glyph unicode="&#xfb;" horiz-adv-x="1126" d="M123 369l78 553h20l-78 -553q-25 -175 63 -282t251 -107q69 0 136 28.5t114 69t84 81t55 69.5l18 28l94 666h21l-129 -922h-21l29 205h-10q-6 -10 -18 -26.5t-52 -59t-83 -75t-108.5 -59t-131.5 -26.5q-170 0 -264 113.5t-68 296.5zM657 1413h21l188 -266h-30l-170 246 l-240 -246h-31z" />
<glyph unicode="&#xfc;" horiz-adv-x="1126" d="M123 369l78 553h20l-78 -553q-25 -175 63 -282t251 -107q69 0 136 28.5t114 69t84 81t55 69.5l18 28l94 666h21l-129 -922h-21l29 205h-10q-6 -10 -18 -26.5t-52 -59t-83 -75t-108.5 -59t-131.5 -26.5q-170 0 -264 113.5t-68 296.5zM483 1262q30 0 27 -31t-35 -31 q-29 0 -26 31t34 31zM791 1262q29 0 26 -31t-35 -31q-29 0 -26 31t35 31z" />
<glyph unicode="&#xfd;" horiz-adv-x="1003" d="M907 922h21l-402 -1106q-43 -117 -116 -181.5t-164 -64.5q-36 0 -70.5 10t-50.5 20l-16 11l2 20q6 -5 17.5 -11.5t47.5 -18t72 -11.5q84 0 151 59t107 167l67 184h-368l-76 922h21l77 -902h348zM481 1188l320 164l8 -21l-322 -164z" />
<glyph unicode="&#xfe;" horiz-adv-x="1126" d="M297 1393l-94 -676h10q6 10 18 26.5t52 59t83 75t108.5 59t131.5 26.5q84 0 158.5 -38.5t126 -104.5t75.5 -160t9 -199t-65.5 -199t-120.5 -160t-155 -104.5t-169 -38.5q-66 0 -123.5 25.5t-93 61.5t-61 72t-35.5 62l-11 25h-10l-88 -615h-20l253 1803h21zM195 666 q-3 -25 -18 -128t-27.5 -192t-12.5 -90q2 -6 5.5 -16t17 -38.5t30 -54.5t44.5 -58t60 -55t77.5 -38.5t95.5 -15.5q166 0 312 139.5t175 341.5q14 101 -8.5 191.5t-72 153t-120.5 99.5t-151 37q-69 0 -136 -28.5t-114 -69t-84 -81t-55 -69.5z" />
<glyph unicode="&#xff;" horiz-adv-x="1003" d="M907 922h21l-402 -1106q-43 -117 -116 -181.5t-164 -64.5q-36 0 -70.5 10t-50.5 20l-16 11l2 20q6 -5 17.5 -11.5t47.5 -18t72 -11.5q84 0 151 59t107 167l67 184h-368l-76 922h21l77 -902h348zM426 1229q30 0 27 -31t-35 -31q-30 0 -27 31t35 31zM733 1229q30 0 27 -31 t-35 -31q-30 0 -27 31t35 31z" />
<glyph unicode="&#x152;" horiz-adv-x="2037" d="M106 696q43 309 269 503t547 194h1126l-2 -21h-860l-92 -655h675l-4 -21h-675l-95 -676h860l-2 -20h-1126q-212 0 -363.5 88t-218.5 246.5t-39 361.5zM127 696q-41 -301 124 -488.5t478 -187.5h246l190 1352h-245q-313 0 -531.5 -187.5t-261.5 -488.5z" />
<glyph unicode="&#x153;" horiz-adv-x="1873" d="M887 317h-8q-3 -7 -8.5 -20t-26 -50.5t-44.5 -71t-64 -75t-83.5 -71t-103.5 -50t-125 -20.5q-112 0 -199 65t-129 181t-22 256t94.5 256t179.5 181t217 65q67 0 122.5 -20t91.5 -51.5t63.5 -69.5t41.5 -76.5t23 -70t11 -51.5l2 -20h8q3 8 8 20.5t25 50t43 71.5t62.5 75.5 t83.5 71t105.5 50t128.5 20.5q111 0 199 -64t130 -173t24 -234l-23 -21h-799q-15 -104 7 -197t69.5 -156.5t114 -100.5t139.5 -37q151 0 269 82t157 184h21q-41 -110 -166 -198.5t-283 -88.5q-63 0 -116.5 19.5t-88.5 51.5t-63.5 70t-44.5 76t-26 70t-14 52zM1380 942 q-79 0 -157.5 -36t-141 -96.5t-106.5 -144t-57 -173.5h798q17 121 -23 225t-123.5 164.5t-189.5 60.5zM893 461q19 135 -20.5 246t-122 173t-189.5 62q-164 0 -301 -138.5t-166 -342.5q-19 -135 20.5 -246t122 -173t189.5 -62q163 0 300.5 139t166.5 342z" />
<glyph unicode="&#x178;" horiz-adv-x="1290" d="M1321 1393l-703 -922l-65 -471h-21l66 471l-444 922h30l426 -901l680 901h31zM627 1700q29 0 26 -31t-35 -31q-29 0 -26 31t35 31zM934 1700q30 0 27 -31t-35 -31q-30 0 -27 31t35 31z" />
<glyph unicode="&#x2c6;" horiz-adv-x="593" d="M379 1393h20l189 -267h-31l-170 246l-240 -246h-30z" />
<glyph unicode="&#x2dc;" horiz-adv-x="573" d="M455 1208q-25 0 -45.5 17t-34.5 41t-27.5 48t-32.5 41t-41 17q-47 0 -79 -31.5t-41 -91.5q-1 0 -7 -41h-20l6 41q10 68 49 106t94 38q31 0 56 -25.5t39.5 -56.5t37.5 -56.5t50 -25.5q47 0 79.5 31.5t39.5 91.5l6 41h20l-6 -41q-9 -67 -48.5 -105.5t-94.5 -38.5z" />
<glyph unicode="&#x2000;" horiz-adv-x="973" />
<glyph unicode="&#x2001;" horiz-adv-x="1946" />
<glyph unicode="&#x2002;" horiz-adv-x="973" />
<glyph unicode="&#x2003;" horiz-adv-x="1946" />
<glyph unicode="&#x2004;" horiz-adv-x="648" />
<glyph unicode="&#x2005;" horiz-adv-x="486" />
<glyph unicode="&#x2006;" horiz-adv-x="324" />
<glyph unicode="&#x2007;" horiz-adv-x="324" />
<glyph unicode="&#x2008;" horiz-adv-x="243" />
<glyph unicode="&#x2009;" horiz-adv-x="389" />
<glyph unicode="&#x200a;" horiz-adv-x="108" />
<glyph unicode="&#x2010;" horiz-adv-x="860" d="M764 635h-696l2 20h696z" />
<glyph unicode="&#x2011;" horiz-adv-x="860" d="M764 635h-696l2 20h696z" />
<glyph unicode="&#x2012;" horiz-adv-x="860" d="M764 635h-696l2 20h696z" />
<glyph unicode="&#x2013;" horiz-adv-x="1187" d="M1077 532h-1024l2 21h1024z" />
<glyph unicode="&#x2014;" horiz-adv-x="1474" d="M1364 532h-1311l2 21h1311z" />
<glyph unicode="&#x2018;" horiz-adv-x="389" d="M291 1198q-6 -31 -35 -31q-33 0 -27 31q0 4 3.5 12t7.5 14l4 5l94 164h20l-94 -164q30 0 27 -31z" />
<glyph unicode="&#x2019;" horiz-adv-x="389" d="M252 1362q3 31 35 31q29 0 26 -31l-14 -31l-94 -164h-21l95 164q-30 0 -27 31z" />
<glyph unicode="&#x201a;" horiz-adv-x="389" d="M66 31q3 30 34 30q30 0 27 -30l-14 -31l-97 -164h-20l96 164q-32 0 -26 31z" />
<glyph unicode="&#x201c;" horiz-adv-x="593" d="M496 1198q-6 -31 -35 -31q-33 0 -27 31q0 4 4 12t8 14l3 5l94 164h20l-94 -164q30 0 27 -31zM291 1198q-6 -31 -35 -31q-33 0 -27 31q0 4 3.5 12t7.5 14l4 5l94 164h20l-94 -164q30 0 27 -31z" />
<glyph unicode="&#x201d;" horiz-adv-x="593" d="M252 1362q3 31 35 31q29 0 26 -31l-14 -31l-94 -164h-21l95 164q-30 0 -27 31zM457 1362q3 31 35 31q29 0 26 -31l-14 -31l-94 -164h-21l94 164q-29 0 -26 31z" />
<glyph unicode="&#x201e;" horiz-adv-x="593" d="M66 31q3 30 34 30q30 0 27 -30l-14 -31l-97 -164h-20l96 164q-32 0 -26 31zM270 31q3 30 35 30q30 0 27 -30l-15 -31l-96 -164h-20l96 164q-33 0 -27 31z" />
<glyph unicode="&#x2022;" horiz-adv-x="389" d="M250 614q-4 -31 -27.5 -51t-54.5 -20t-48.5 20t-13.5 51q3 30 27 51t55 21q30 0 47.5 -20.5t14.5 -51.5z" />
<glyph unicode="&#x2026;" horiz-adv-x="1064" d="M92 0q-32 0 -26 31q3 30 34 30q30 0 27 -30q-6 -31 -35 -31zM432 0q-32 0 -26 31q3 30 34 30q30 0 27 -30q-6 -31 -35 -31zM768 0q-33 0 -27 31q3 30 35 30q30 0 27 -30q-6 -31 -35 -31z" />
<glyph unicode="&#x202f;" horiz-adv-x="389" />
<glyph unicode="&#x2039;" horiz-adv-x="651" d="M66 471l493 451l14 -17l-477 -434l355 -434l-19 -17z" />
<glyph unicode="&#x203a;" horiz-adv-x="651" d="M145 922l367 -451l-494 -451l-14 17l477 434l-354 434z" />
<glyph unicode="&#x205f;" horiz-adv-x="486" />
<glyph unicode="&#x20ac;" horiz-adv-x="1679" d="M94 819l2 21h176q59 164 177 304t276 225t317 85q118 0 217 -34.5t164 -91.5t105.5 -124t54.5 -139h-20q-11 54 -37.5 105.5t-71.5 99.5t-103 84t-138.5 58t-172.5 22q-154 0 -307 -82.5t-267.5 -217.5t-172.5 -294h643l-2 -21h-645q-19 -62 -29 -123q-4 -27 -5 -58 t-1 -48v-17h645l-4 -20h-645q15 -159 92.5 -294t207.5 -217.5t284 -82.5q122 0 230.5 33t190.5 92t144 130t106 155h21q-45 -88 -109.5 -163t-150.5 -136t-198.5 -96t-238.5 -35q-120 0 -228 50t-185.5 134t-127 196t-59.5 234h-174l4 20h174q-1 62 7 123q4 27 11 58t12 48 l5 17h-174z" />
<glyph unicode="&#x2122;" horiz-adv-x="1351" d="M111 1372l2 21h491l-2 -21h-235l-84 -594h-21l84 594h-235zM954 963l-229 411l-84 -596h-20l86 615h30l221 -400l332 400h31l-86 -615h-21l84 594z" />
<glyph unicode="&#x25fc;" horiz-adv-x="921" d="M0 922h922v-922h-922v922z" />
</font>
</defs>
</svg>
