<?xml version="1.0" standalone="no"?>
<!DOCTYPE svg PUBLIC "-//W3C//DTD SVG 1.1//EN" "http://www.w3.org/Graphics/SVG/1.1/DTD/svg11.dtd" >
<svg xmlns="http://www.w3.org/2000/svg">
<metadata></metadata>
<defs>
<font id="tt_firsextrabold" horiz-adv-x="1167" >
<font-face units-per-em="2048" ascent="1638" descent="-410" />
<missing-glyph horiz-adv-x="389" />
<glyph horiz-adv-x="0" />
<glyph horiz-adv-x="0" />
<glyph horiz-adv-x="682" />
<glyph unicode="&#xd;" horiz-adv-x="0" />
<glyph unicode=" "  horiz-adv-x="389" />
<glyph unicode="&#x09;" horiz-adv-x="389" />
<glyph unicode="&#xa0;" horiz-adv-x="389" />
<glyph unicode="!" horiz-adv-x="573" d="M440 1434v-666l-57 -307h-193l-57 307v666h307zM123 123q0 69 47.5 116.5t116.5 47.5t116.5 -47.5t47.5 -116.5t-47.5 -116.5t-116.5 -47.5t-116.5 47.5t-47.5 116.5z" />
<glyph unicode="&#x22;" horiz-adv-x="808" d="M338 1434v-267l-41 -225h-154l-41 225v267h236zM707 1434v-267l-41 -225h-154l-41 225v267h236z" />
<glyph unicode="#" horiz-adv-x="1454" d="M420 0h-287l103 348h-175v246h246l62 235h-185v246h256l103 359h286l-102 -359h225l103 359h286l-102 -359h154v-246h-226l-61 -235h164v-246h-236l-102 -348h-287l103 348h-226zM655 829l-61 -235h225l62 235h-226z" />
<glyph unicode="$" horiz-adv-x="1105" d="M420 -47v190q-144 23 -246 121t-133 238l256 41q26 -76 90.5 -125t165.5 -49q102 0 153.5 37.5t51.5 95.5q0 28 -28 48t-74.5 31.5t-105 25.5t-120.5 28t-120.5 40t-105 59.5t-74.5 89.5t-28 128q0 122 85.5 209.5t232.5 118.5v195h246v-195q149 -23 243.5 -108 t134.5 -220l-256 -41q-54 144 -215 144q-94 0 -139 -31.5t-45 -81.5q0 -34 36 -57t94 -37t127.5 -27.5t139.5 -36t128 -54.5t94 -90.5t36 -137.5q0 -125 -105.5 -227t-272.5 -132v-190h-246z" />
<glyph unicode="%" horiz-adv-x="1546" d="M1352 1434l-850 -1434h-307l849 1434h308zM369 983q41 0 71.5 38.5t30.5 104.5t-30.5 105t-71.5 39t-72 -39t-31 -105q0 -65 31 -104t72 -39zM369 778q-132 0 -230 102t-98 246q0 145 98 247t230 102t229.5 -102t97.5 -247t-97.5 -246.5t-229.5 -101.5zM1178 164 q41 0 71.5 38.5t30.5 104.5t-30.5 105t-71.5 39t-72 -39t-31 -105q0 -65 31 -104t72 -39zM1178 -41q-132 0 -230 102t-98 246t98 246t230 102t229.5 -101.5t97.5 -246.5t-97.5 -246.5t-229.5 -101.5z" />
<glyph unicode="&#x26;" horiz-adv-x="1361" d="M420 840v20l-195 287v287h912v-287h-523v-21l768 -1126h-378l-72 102h-21q-5 -7 -14.5 -18t-44 -39t-75 -49.5t-108 -39t-141.5 -17.5q-201 0 -334 125t-133 305q0 71 20 135.5t51.5 110.5t69.5 85t76.5 64.5t70 43t51.5 24.5zM584 225q34 0 67 10.5t55 25.5t39 30.5 t25 26.5l8 10l-215 317q-7 -3 -19 -8.5t-42 -27t-52.5 -46t-41.5 -66t-19 -87.5q0 -77 55.5 -131t139.5 -54z" />
<glyph unicode="'" horiz-adv-x="440" d="M338 1434v-267l-41 -225h-154l-41 225v267h236z" />
<glyph unicode="(" horiz-adv-x="757" d="M399 594q0 -92 18.5 -181.5t48.5 -158.5t66 -131t72 -106t66 -76.5t48 -48.5l19 -15l-133 -246q-11 7 -29.5 21t-73 62.5t-104 102.5t-109.5 140t-103.5 177.5t-73 213t-29.5 246.5t29 246t75 214t101.5 176t111 141t101.5 101t75 64l29 20l133 -245q-7 -6 -19 -16.5 t-47.5 -47t-67 -77t-70.5 -105t-67.5 -132t-47.5 -157.5t-19 -182z" />
<glyph unicode=")" horiz-adv-x="757" d="M358 594q0 92 -18.5 181.5t-48.5 158.5t-66 131t-72 106t-66 76.5t-49 48.5l-18 15l134 245q11 -7 29.5 -21t73 -62t104 -102t109.5 -140.5t103.5 -177.5t73 -212.5t29.5 -246.5q0 -99 -18 -194.5t-48 -174.5t-69 -153t-82.5 -132.5t-87 -109t-82.5 -86.5t-69 -62 t-48 -38l-18 -13l-134 246q7 6 19 16.5t47.5 47t67 77t70.5 105t67.5 132t47.5 157.5t19 182z" />
<glyph unicode="*" horiz-adv-x="778" d="M389 922l-123 -185l-164 113l123 174h-164v205h226v205h205v-205h225v-205h-164l123 -174l-164 -113z" />
<glyph unicode="+" horiz-adv-x="931" d="M594 758h297v-256h-297v-307h-256v307h-297v256h297v307h256v-307z" />
<glyph unicode="," horiz-adv-x="450" d="M61 123q0 69 47.5 116.5t116.5 47.5t116.5 -47.5t47.5 -116.5q0 -27 -7.5 -53t-15.5 -38l-8 -12l-163 -225h-123l71 185q-3 2 -8.5 5t-20 16t-25 28t-19.5 40t-9 54z" />
<glyph unicode="-" horiz-adv-x="860" d="M819 502h-778v256h778v-256z" />
<glyph unicode="." horiz-adv-x="450" d="M61 123q0 69 47.5 116.5t116.5 47.5t116.5 -47.5t47.5 -116.5t-47.5 -116.5t-116.5 -47.5t-116.5 47.5t-47.5 116.5z" />
<glyph unicode="/" horiz-adv-x="880" d="M20 0l523 1434h317l-522 -1434h-318z" />
<glyph unicode="0" horiz-adv-x="1495" d="M379 717q0 -111 31.5 -205.5t84 -156t118.5 -96t135 -34.5t135 34.5t118 96t83.5 156t31.5 205.5t-31.5 205.5t-83.5 156t-117.5 95.5t-135.5 34t-135.5 -34t-118 -95.5t-84 -156t-31.5 -205.5zM1434 717q0 -165 -57 -311t-151.5 -247.5t-219.5 -160.5t-258 -59t-258 59 t-220 160t-152 247.5t-57 311.5t57 311.5t152 247.5t220 160t258 59q134 0 259 -59t219 -160.5t151 -247.5t57 -311z" />
<glyph unicode="1" horiz-adv-x="727" d="M287 0v983h-246v215q105 0 185.5 74.5t80.5 161.5h297v-1434h-317z" />
<glyph unicode="2" horiz-adv-x="1280" d="M881 1024q0 72 -65 128t-161 56q-208 0 -276 -204l-318 30q19 89 70.5 171.5t126.5 147.5t178.5 103.5t218.5 38.5q116 0 218 -39t172.5 -104t111.5 -150.5t41 -177.5q0 -79 -26.5 -146t-72 -115t-104.5 -89t-125 -72.5t-132.5 -59.5t-128 -55.5t-110.5 -56t-81 -65 t-39 -78.5h815v-287h-1133v246q0 79 28 147.5t75.5 119t109 94.5t129.5 78.5t136 66t129.5 62t109 61.5t75.5 69t28 80z" />
<glyph unicode="3" horiz-adv-x="1249" d="M0 401l317 50q25 -98 102.5 -162t194.5 -64q112 0 184 63.5t72 151.5t-72 151.5t-184 63.5h-215v236l287 235v21h-532v287h983v-246l-338 -277v-20q8 -1 22.5 -4t56 -16.5t79 -32.5t83.5 -56.5t79.5 -84.5t56 -119t22.5 -158q0 -96 -41.5 -183t-115.5 -153.5t-185 -105.5 t-242 -39q-123 0 -229.5 37t-182.5 101t-127.5 146.5t-74.5 177.5z" />
<glyph unicode="4" horiz-adv-x="1290" d="M1096 0h-318v256h-737v287l451 891h358l-451 -891h379v327h318v-327h174v-287h-174v-256z" />
<glyph unicode="5" horiz-adv-x="1239" d="M614 676h-450l123 758h819v-287h-553l-31 -184h92q263 0 423.5 -146t160.5 -366t-160.5 -366t-423.5 -146q-123 0 -229.5 37t-182.5 101t-127.5 146.5t-74.5 177.5l317 50q25 -98 102.5 -162t194.5 -64q113 0 184.5 65.5t71.5 160.5q0 94 -71.5 159.5t-184.5 65.5z" />
<glyph unicode="6" horiz-adv-x="1269" d="M61 471q0 50 10.5 102t26 91t30.5 70.5t26 47.5l10 17l450 635h359l-328 -451q127 0 237.5 -41.5t185.5 -111t118 -163t43 -196.5q0 -226 -163.5 -379t-420.5 -153t-420.5 153t-163.5 379zM389 471q0 -101 75 -173.5t181 -72.5t181 72.5t75 173.5q0 105 -73.5 175.5 t-182.5 70.5t-182.5 -70.5t-73.5 -175.5z" />
<glyph unicode="7" horiz-adv-x="1054" d="M481 0h-348l543 1126v21h-656v287h1014v-287z" />
<glyph unicode="8" horiz-adv-x="1310" d="M655 225q123 0 200 60t77 135q0 74 -76.5 134t-200.5 60q-123 0 -199.5 -59.5t-76.5 -134.5t76.5 -135t199.5 -60zM655 881q96 0 155.5 49t59.5 114t-60 114.5t-155 49.5t-155 -49.5t-60 -114.5t59.5 -114t155.5 -49zM655 -61q-134 0 -249.5 40t-191.5 105.5 t-119.5 147.5t-43.5 167q0 80 28.5 146.5t69.5 104.5t81.5 64t69.5 35l28 9v20q-4 1 -12 4.5t-30.5 15.5t-42.5 26.5t-45 40.5t-43 56t-30 73t-12 91q0 77 38 150.5t105.5 131.5t171.5 93t227 35t227 -35t172 -93t106 -131.5t38 -150.5q0 -48 -12 -91t-31 -73t-42 -55.5 t-45.5 -41t-41.5 -26.5t-31 -16l-12 -4v-20q6 -2 16 -5t38.5 -16t55 -29.5t58.5 -46.5t54.5 -65t38.5 -86.5t16 -110.5q0 -85 -43.5 -167t-120 -147.5t-192 -105.5t-249.5 -40z" />
<glyph unicode="9" horiz-adv-x="1269" d="M1208 963q0 -79 -25.5 -161t-50.5 -124l-26 -43l-451 -635h-358l328 451q-127 0 -237.5 41.5t-185.5 111t-118 163t-43 196.5q0 226 163.5 379t420.5 153q170 0 304 -71t206.5 -192t72.5 -269zM881 963q0 100 -74.5 172.5t-181.5 72.5t-181.5 -72.5t-74.5 -172.5 q0 -105 73.5 -175.5t182.5 -70.5t182.5 70.5t73.5 175.5z" />
<glyph unicode=":" horiz-adv-x="450" d="M61 123q0 69 47.5 116.5t116.5 47.5t116.5 -47.5t47.5 -116.5t-47.5 -116.5t-116.5 -47.5t-116.5 47.5t-47.5 116.5zM61 860q0 69 47.5 116.5t116.5 47.5t116.5 -47.5t47.5 -116.5t-47.5 -116.5t-116.5 -47.5t-116.5 47.5t-47.5 116.5z" />
<glyph unicode=";" horiz-adv-x="450" d="M61 123q0 69 47.5 116.5t116.5 47.5t116.5 -47.5t47.5 -116.5q0 -27 -7.5 -53t-15.5 -38l-8 -12l-163 -225h-123l71 185q-3 2 -8.5 5t-20 16t-25 28t-19.5 40t-9 54zM61 860q0 69 47.5 116.5t116.5 47.5t116.5 -47.5t47.5 -116.5t-47.5 -116.5t-116.5 -47.5t-116.5 47.5 t-47.5 116.5z" />
<glyph unicode="&#x3c;" horiz-adv-x="993" d="M932 696q-111 -40 -313.5 -113.5t-249.5 -90.5v-21q74 -27 265.5 -97t297.5 -108v-256l-871 318v307l871 317v-256z" />
<glyph unicode="=" horiz-adv-x="890" d="M829 307h-768v236h768v-236zM829 696h-768v236h768v-236z" />
<glyph unicode="&#x3e;" horiz-adv-x="993" d="M61 696v256l871 -317v-307l-871 -318v256q107 38 301 109t263 96v21q-63 23 -177.5 64.5t-208.5 75.5t-178 64z" />
<glyph unicode="?" horiz-adv-x="1126" d="M563 1208q-89 0 -151.5 -54t-94.5 -150l-317 40q40 194 191 322.5t372 128.5q144 0 265.5 -66t189 -169.5t67.5 -215.5q0 -77 -21 -137.5t-55.5 -99.5t-76.5 -71t-86.5 -60t-83 -57t-68 -72t-39.5 -96h-266q0 77 21 139.5t54.5 103t73.5 74t80.5 60.5t74 54t54.5 63 t21 79q0 78 -57 131t-148 53zM358 123q0 69 47.5 116.5t116.5 47.5t116.5 -47.5t47.5 -116.5t-47.5 -116.5t-116.5 -47.5t-116.5 47.5t-47.5 116.5z" />
<glyph unicode="@" horiz-adv-x="1679" d="M973 328v61h-21q-2 -3 -5 -8.5t-16.5 -20t-29.5 -25t-44.5 -19.5t-61.5 -9q-123 0 -218.5 102.5t-95.5 245.5t95.5 246t218.5 103q33 0 61 -8.5t45 -20.5t29 -24t17 -21l5 -8h21v61h225v-440q75 16 124.5 81.5t49.5 174.5q0 176 -137 292.5t-375 116.5 q-113 0 -215.5 -43.5t-176.5 -117.5t-117.5 -176.5t-43.5 -215.5t43.5 -215.5t117.5 -176.5t176.5 -117.5t215.5 -43.5q96 0 190.5 26t141.5 52l47 25v-236q-18 -10 -51.5 -25.5t-132.5 -41t-195 -25.5q-166 0 -314.5 61.5t-254.5 166t-168 248t-62 302.5q0 212 105 391 t289 283.5t405 104.5q172 0 316.5 -50.5t240 -136.5t148.5 -202t53 -246q0 -127 -65.5 -235t-183.5 -172t-263 -64h-133zM973 604v103q-2 4 -6 10t-17 22t-27.5 28t-37 22t-45.5 10q-55 0 -94 -41.5t-39 -102.5t39 -102t94 -41q23 0 45 9.5t37.5 23t27.5 27t18 22.5z" />
<glyph unicode="A" horiz-adv-x="1464" d="M20 0l349 1434h727l348 -1434h-328l-72 297h-624l-72 -297h-328zM625 1147l-133 -563h481l-133 563h-215z" />
<glyph unicode="B" horiz-adv-x="1454" d="M123 1434h665q100 0 188 -32t146.5 -83.5t92.5 -118t34 -135.5q0 -55 -18 -100t-43.5 -71t-51 -44t-43.5 -24l-18 -7v-20q7 -1 19 -3.5t47.5 -14.5t67 -27.5t70.5 -45.5t67.5 -66t47.5 -91.5t19 -120.5q0 -183 -141.5 -306.5t-380.5 -123.5h-768v1434zM440 287h451 q90 0 142 46.5t52 117.5t-52 117t-142 46h-451v-327zM788 1147h-348v-246h348q61 0 97.5 34t36.5 89t-36.5 89t-97.5 34z" />
<glyph unicode="C" horiz-adv-x="1597" d="M840 -61q-154 0 -298 63t-249.5 168t-168.5 249t-63 298t63 298t168.5 249t249.5 168t298 63q134 0 250.5 -40t200 -108.5t140.5 -153t85 -179.5l-318 -41q-117 235 -369 235q-117 0 -220.5 -64.5t-166.5 -178.5t-63 -248q0 -101 37.5 -193t99 -157t144 -103.5 t169.5 -38.5q276 0 410 267l317 -41q-28 -98 -88.5 -188t-149.5 -163.5t-213 -117t-265 -43.5z" />
<glyph unicode="D" horiz-adv-x="1464" d="M1085 717q0 185 -124.5 307.5t-315.5 122.5h-205v-860h205q191 0 315.5 122.5t124.5 307.5zM1403 717q0 -148 -57 -280t-156.5 -228.5t-241 -152.5t-303.5 -56h-522v1434h522q162 0 303.5 -56t241 -152.5t156.5 -228.5t57 -280z" />
<glyph unicode="E" horiz-adv-x="1300" d="M440 287h820v-287h-1137v1434h1137v-287h-820v-287h645v-287h-645v-286z" />
<glyph unicode="F" horiz-adv-x="1239" d="M440 522v-522h-317v1434h1096v-287h-779v-338h625v-287h-625z" />
<glyph unicode="G" horiz-adv-x="1628" d="M829 225q149 0 248 70t152 176v21h-379v286h717v-123q0 -147 -56.5 -279.5t-153 -228.5t-231.5 -152t-286 -56q-154 0 -298 63t-249.5 168t-168.5 249t-63 298t63 298t168.5 249t249.5 168t298 63q134 0 250.5 -40t200 -108.5t140.5 -153t85 -179.5l-318 -41 q-117 235 -369 235q-117 0 -220.5 -64.5t-166.5 -178.5t-63 -248q0 -101 37.5 -193t99 -157t144 -103.5t169.5 -38.5z" />
<glyph unicode="H" horiz-adv-x="1484" d="M123 0v1434h317v-584h604v584h318v-1434h-318v563h-604v-563h-317z" />
<glyph unicode="I" horiz-adv-x="563" d="M440 1434v-1434h-317v1434h317z" />
<glyph unicode="J" horiz-adv-x="1208" d="M1085 1434v-953q0 -247 -151.5 -394.5t-409.5 -147.5q-105 0 -197.5 33.5t-158 90.5t-109 130.5t-59.5 154.5l307 72q24 -88 83.5 -141.5t141.5 -53.5q101 0 168.5 71t67.5 185v953h317z" />
<glyph unicode="K" horiz-adv-x="1423" d="M1055 0l-400 645l-215 -235v-410h-317v1434h317v-605l564 605h389l-512 -553l542 -881h-368z" />
<glyph unicode="L" horiz-adv-x="1208" d="M440 1434v-1147h748v-287h-1065v1434h317z" />
<glyph unicode="M" horiz-adv-x="1802" d="M901 451l-440 542h-21v-993h-317v1434h348l430 -533l430 533h348v-1434h-317v993h-21z" />
<glyph unicode="N" horiz-adv-x="1484" d="M471 1434l553 -902h20v902h318v-1434h-348l-553 901h-21v-901h-317v1434h348z" />
<glyph unicode="O" horiz-adv-x="1699" d="M379 717q0 -135 64 -248.5t172.5 -178.5t234.5 -65t234.5 65t172.5 178.5t64 248.5t-64 248.5t-172.5 178t-234.5 64.5t-234.5 -64.5t-172.5 -178t-64 -248.5zM1638 717q0 -159 -61.5 -302.5t-167 -248t-251.5 -166t-308 -61.5t-308.5 61.5t-251.5 166t-167 248 t-62 302.5t62 302.5t167 248t251.5 166t308.5 61.5t308 -61.5t251.5 -166t167 -248t61.5 -302.5z" />
<glyph unicode="P" horiz-adv-x="1464" d="M1085 901q0 102 -78 174t-198 72h-369v-492h369q120 0 198 72t78 174zM1403 901q0 -148 -73 -269t-209.5 -192t-311.5 -71h-369v-369h-317v1434h686q175 0 311.5 -71.5t209.5 -192.5t73 -269z" />
<glyph unicode="Q" horiz-adv-x="1710" d="M1638 717q0 -77 -16 -153t-38 -129t-44.5 -95.5t-38.5 -63.5l-16 -20l205 -205l-215 -215l-215 215q-7 -5 -20 -12.5t-56 -26.5t-88 -34t-112.5 -27t-133.5 -12q-162 0 -308.5 61.5t-251.5 166t-167 248t-62 302.5t62 302.5t167 248t251.5 166t308.5 61.5t308 -61.5 t251.5 -166t167 -248t61.5 -302.5zM379 717q0 -135 64 -248.5t172.5 -178.5t234.5 -65q55 0 103.5 10.5t69.5 20.5l21 10l-92 92l215 215l93 -92q7 12 17 32.5t27 82.5t17 121q0 135 -64 248.5t-172.5 178t-234.5 64.5t-234.5 -64.5t-172.5 -178t-64 -248.5z" />
<glyph unicode="R" horiz-adv-x="1464" d="M799 430h-359v-430h-317v1434h706q250 0 401.5 -141.5t151.5 -360.5q0 -69 -15 -130.5t-39.5 -105t-54 -79.5t-59 -58.5t-54 -38t-39.5 -22.5l-15 -6l266 -492h-338q-179 324 -235 430zM440 717h389q106 0 171 60.5t65 154.5t-65 154.5t-171 60.5h-389v-430z" />
<glyph unicode="S" horiz-adv-x="1300" d="M932 410q0 42 -28.5 75t-76.5 56t-110 43t-131 40.5t-138 44t-131 58.5t-110 79t-76.5 110.5t-28.5 148.5q0 81 39.5 158t109.5 137.5t175.5 97.5t228.5 37q242 0 393.5 -122t200.5 -318l-317 -41q-70 194 -277 194q-102 0 -163.5 -49t-61.5 -115q0 -49 46 -85t119 -60 t161.5 -48t177 -59t161.5 -83t119 -130t46 -190q0 -85 -41.5 -165.5t-116 -144t-188.5 -102t-248 -38.5q-264 0 -426.5 130.5t-219.5 350.5l318 41q33 -107 115 -171.5t213 -64.5q132 0 199 52t67 133z" />
<glyph unicode="T" horiz-adv-x="1259" d="M471 1147h-451v287h1219v-287h-451v-1147h-317v1147z" />
<glyph unicode="U" horiz-adv-x="1495" d="M748 225q139 0 223 86.5t84 231.5v891h317v-891q0 -270 -170.5 -437t-453.5 -167t-454 167t-171 437v891h317v-891q0 -145 84.5 -231.5t223.5 -86.5z" />
<glyph unicode="V" horiz-adv-x="1464" d="M379 0l-348 1434h327l277 -1147h194l277 1147h328l-349 -1434h-706z" />
<glyph unicode="W" horiz-adv-x="2017" d="M594 358l205 1076h420l204 -1076h31q61 316 205 1076h317q-26 -138 -276 -1434h-471l-205 1024h-31l-205 -1024h-471q-250 1296 -276 1434h317q144 -760 205 -1076h31z" />
<glyph unicode="X" horiz-adv-x="1372" d="M676 512l-318 -512h-368l471 737l-410 697h359l266 -471h20l267 471h358l-410 -697l471 -737h-368l-318 512h-20z" />
<glyph unicode="Y" horiz-adv-x="1382" d="M850 471v-471h-318v471l-542 963h358l338 -615h10l338 615h359z" />
<glyph unicode="Z" horiz-adv-x="1320" d="M61 0v287l758 839v21h-737v287h1157v-287l-758 -840v-20h779v-287h-1199z" />
<glyph unicode="[" horiz-adv-x="737" d="M696 1208h-256v-1228h256v-287h-573v1802h573v-287z" />
<glyph unicode="\" horiz-adv-x="880" d="M338 1434l522 -1434h-317l-523 1434h318z" />
<glyph unicode="]" horiz-adv-x="737" d="M297 1208h-256v287h573v-1802h-573v287h256v1228z" />
<glyph unicode="^" horiz-adv-x="880" d="M571 1434l269 -697h-246l-143 379h-21l-143 -379h-246l268 697h262z" />
<glyph unicode="_" horiz-adv-x="778" d="M778 -420h-778v246h778v-246z" />
<glyph unicode="`" horiz-adv-x="532" d="M61 1219l93 204l317 -163l-72 -164z" />
<glyph unicode="a" horiz-adv-x="1198" d="M61 492q0 112 39 212t103 169.5t147.5 110t171.5 40.5q55 0 102.5 -14.5t76 -36t49.5 -42.5t30 -35l8 -15h21v102h287v-983h-287v102h-21q-3 -6 -9 -15.5t-28.5 -34t-50.5 -43.5t-75.5 -34.5t-102.5 -15.5q-88 0 -171.5 40.5t-147.5 110t-103 170t-39 212.5zM809 389v205 q-3 7 -9.5 19t-28.5 42t-46 52.5t-62.5 41.5t-78.5 19q-103 0 -169.5 -74.5t-66.5 -201.5t66.5 -202t169.5 -75q40 0 78 18t63.5 43.5t45 51t29.5 43.5z" />
<glyph unicode="b" horiz-adv-x="1208" d="M1147 492q0 -112 -39 -212.5t-103 -170t-147.5 -110t-171.5 -40.5q-55 0 -102.5 14.5t-76 36t-49.5 42.5t-30 36l-8 14h-21v-102h-286v1434h286v-553h21q3 6 9 15.5t28.5 34t50.5 43.5t75.5 34.5t102.5 15.5q88 0 171.5 -40.5t147.5 -110t103 -169.5t39 -212zM399 594 v-205q3 -7 9.5 -19t28.5 -42t46.5 -52.5t63 -41.5t78.5 -19q102 0 168.5 75t66.5 202t-66 201.5t-169 74.5q-40 0 -78 -18t-63.5 -43.5t-45.5 -51t-30 -43.5z" />
<glyph unicode="c" horiz-adv-x="1126" d="M584 -41q-102 0 -198 43.5t-167.5 115t-114.5 170.5t-43 204t43 203.5t114.5 170.5t167.5 115t198 43q96 0 181 -29.5t144.5 -78.5t99.5 -108t56 -122l-287 -41q-63 123 -194 123q-95 0 -165.5 -78t-70.5 -198t70.5 -198.5t165.5 -78.5q80 0 135 43.5t80 110.5l286 -41 q-16 -75 -56 -140.5t-101.5 -117t-150.5 -81.5t-193 -30z" />
<glyph unicode="d" horiz-adv-x="1208" d="M61 492q0 112 39 212t103 169.5t147.5 110t171.5 40.5q55 0 102.5 -14.5t76 -36t49.5 -42.5t30 -35l8 -15h21v553h287v-1434h-287v102h-21q-3 -6 -9 -15.5t-28.5 -34t-50.5 -43.5t-75.5 -34.5t-102.5 -15.5q-88 0 -171.5 40.5t-147.5 110t-103 170t-39 212.5zM809 389 v205q-3 7 -9.5 19t-28.5 42t-46 52.5t-62.5 41.5t-78.5 19q-103 0 -169.5 -74.5t-66.5 -201.5t66.5 -202t169.5 -75q40 0 78 18t63.5 43.5t45 51t29.5 43.5z" />
<glyph unicode="e" d="M584 1024q146 0 268.5 -70.5t193 -193t70.5 -268.5l-102 -103h-645q24 -80 78.5 -127t136.5 -47q91 0 139.5 29t85.5 84l287 -41q-24 -65 -66.5 -121t-104 -104t-150 -75.5t-191.5 -27.5q-102 0 -198 43.5t-167.5 115t-114.5 170.5t-43 204t43 203.5t114.5 170.5 t167.5 115t198 43zM584 768q-82 0 -136.5 -47t-78.5 -127h430q-24 80 -78.5 127t-136.5 47z" />
<glyph unicode="f" horiz-adv-x="665" d="M41 727v256h113v92q0 175 106 287.5t262 112.5q50 0 101.5 -10.5t77.5 -20.5l26 -10l-41 -246q-52 31 -113 31q-62 0 -97.5 -38t-35.5 -106v-92h205v-256h-205v-727h-286v727h-113z" />
<glyph unicode="g" horiz-adv-x="1198" d="M61 512q0 105 39 200.5t103 163.5t148 108t171 40q55 0 102.5 -14.5t76 -36t49.5 -42.5t30 -35l8 -15h21v102h287v-954q0 -94 -40 -182t-107 -153.5t-160.5 -105t-194.5 -39.5q-100 0 -184 26.5t-143.5 73t-100 103.5t-64.5 125l287 41q69 -113 205 -113q93 0 154 63.5 t61 162.5v112h-21q-3 -6 -9 -15.5t-28.5 -34t-50.5 -43.5t-75.5 -34.5t-102.5 -15.5q-87 0 -171 40t-148 108t-103 163.5t-39 200.5zM809 430v164q-3 7 -9.5 19t-28.5 42t-46 52.5t-62.5 41.5t-78.5 19q-101 0 -168.5 -71t-67.5 -185t67.5 -185t168.5 -71q40 0 78 18 t63.5 43.5t45 51t29.5 43.5z" />
<glyph unicode="h" d="M1075 563v-563h-287v563q0 90 -51.5 147.5t-122.5 57.5q-37 0 -73 -18t-60.5 -43.5t-44 -51t-28.5 -43.5l-9 -18v-594h-286v1434h286v-553h21q3 6 9 15.5t28.5 34t49 43.5t72 34.5t97.5 15.5q166 0 282.5 -129.5t116.5 -331.5z" />
<glyph unicode="i" horiz-adv-x="512" d="M399 983v-983h-286v983h286zM92 1331q0 69 47.5 116.5t116.5 47.5t116.5 -47.5t47.5 -116.5t-47.5 -116.5t-116.5 -47.5t-116.5 47.5t-47.5 116.5z" />
<glyph unicode="j" horiz-adv-x="512" d="M399 983v-1034q0 -175 -106 -287.5t-262 -112.5q-50 0 -101.5 10.5t-77.5 20.5l-26 10l41 246q52 -31 113 -31q62 0 97.5 38t35.5 106v1034h286zM92 1331q0 69 47.5 116.5t116.5 47.5t116.5 -47.5t47.5 -116.5t-47.5 -116.5t-116.5 -47.5t-116.5 47.5t-47.5 116.5z" />
<glyph unicode="k" horiz-adv-x="1105" d="M399 266v-266h-286v1434h286v-799l328 348h348l-348 -369l379 -614h-318l-256 410z" />
<glyph unicode="l" horiz-adv-x="552" d="M154 0v1178h-134v256h420v-1434h-286z" />
<glyph unicode="m" horiz-adv-x="1628" d="M963 604v-604h-287v604q0 76 -35.5 120t-97.5 44q-26 0 -51 -16t-43 -38.5t-32 -45t-21 -38.5l-7 -16v-614h-287v983h287v-102h21q3 6 8.5 15.5t26 34t44 43.5t62 34.5t80.5 15.5q47 0 90 -14.5t71 -36t49 -42.5t31 -35l9 -15h20q3 6 10 15.5t32 34t55 43.5t81.5 34.5 t108.5 15.5q143 0 245.5 -117t102.5 -303v-604h-287v604q0 69 -41 116.5t-102 47.5t-102 -47.5t-41 -116.5z" />
<glyph unicode="n" horiz-adv-x="1157" d="M1065 563v-563h-287v563q0 90 -51.5 147.5t-122.5 57.5q-37 0 -73 -18t-60.5 -43.5t-44 -51t-28.5 -43.5l-9 -18v-594h-287v983h287v-102h21q3 6 9 15.5t28.5 34t49 43.5t72 34.5t97.5 15.5q166 0 282.5 -129.5t116.5 -331.5z" />
<glyph unicode="o" horiz-adv-x="1208" d="M604 215q101 0 178.5 81.5t77.5 195.5t-77.5 195t-178.5 81t-178.5 -81t-77.5 -195t77.5 -195.5t178.5 -81.5zM604 -41q-146 0 -271.5 73t-198.5 196t-73 264q0 106 43.5 204t116.5 170t173.5 115t209.5 43t209.5 -43t173.5 -115t116.5 -170t43.5 -204q0 -141 -73 -264 t-198.5 -196t-271.5 -73z" />
<glyph unicode="p" horiz-adv-x="1198" d="M1137 492q0 -112 -39 -212.5t-103 -170t-147.5 -110t-171.5 -40.5q-55 0 -102.5 14.5t-76 36t-49.5 42.5t-30 36l-8 14h-21v-512h-287v1393h287v-102h21q3 6 9 15.5t28.5 34t50.5 43.5t75.5 34.5t102.5 15.5q88 0 171.5 -40.5t147.5 -110t103 -169.5t39 -212zM389 594 v-205q3 -7 9.5 -19t28.5 -42t46 -52.5t62.5 -41.5t78.5 -19q103 0 169.5 75t66.5 202t-66.5 201.5t-169.5 74.5q-40 0 -78 -18t-63.5 -43.5t-45 -51t-29.5 -43.5z" />
<glyph unicode="q" horiz-adv-x="1198" d="M61 492q0 112 39 212t103 169.5t147.5 110t171.5 40.5q55 0 102.5 -14.5t76 -36t49.5 -42.5t30 -35l8 -15h21v102h287v-1393h-287v512h-21q-3 -6 -9 -15.5t-28.5 -34t-50.5 -43.5t-75.5 -34.5t-102.5 -15.5q-88 0 -171.5 40.5t-147.5 110t-103 170t-39 212.5zM809 389 v205q-3 7 -9.5 19t-28.5 42t-46 52.5t-62.5 41.5t-78.5 19q-103 0 -169.5 -74.5t-66.5 -201.5t66.5 -202t169.5 -75q40 0 78 18t63.5 43.5t45 51t29.5 43.5z" />
<glyph unicode="r" horiz-adv-x="706" d="M686 1004v-277h-92q-46 0 -84 -16t-59.5 -38.5t-36.5 -45t-20 -38.5l-5 -16v-573h-287v983h287v-102h21q3 5 9 13.5t28.5 29.5t49 37t72 29.5t97.5 13.5h20z" />
<glyph unicode="s" horiz-adv-x="1013" d="M82 727q0 55 29 107t82.5 95t139 69t189.5 26q88 0 166 -26t133.5 -69.5t93.5 -94.5t58 -107l-266 -41q-19 38 -67.5 70t-117.5 32q-58 0 -95.5 -29t-37.5 -63q0 -26 32 -45.5t83.5 -34t114 -30t125 -40.5t114 -60t83.5 -94t32 -136q0 -55 -29.5 -107t-85 -95t-145.5 -69 t-201 -26q-100 0 -184 26t-143.5 71.5t-100 100.5t-64.5 119l287 41q60 -122 205 -122q71 0 112.5 29t41.5 63q0 26 -32 45.5t-83.5 34t-114 30t-125 40.5t-114 60t-83.5 94t-32 136z" />
<glyph unicode="t" horiz-adv-x="768" d="M41 727v256h113v246h286v-246h205v-256h-205v-369q0 -68 35.5 -105.5t97.5 -37.5q27 0 55.5 7.5t43.5 15.5l14 8l41 -246q-92 -41 -205 -41q-156 0 -262 112t-106 287v369h-113z" />
<glyph unicode="u" d="M102 420v563h287v-563q0 -90 51.5 -147.5t122.5 -57.5q37 0 73 18t60.5 43.5t44 51t28.5 43.5l9 18v594h287v-983h-287v102h-20q-3 -6 -9 -15.5t-28.5 -34t-49 -43.5t-72 -34.5t-97.5 -15.5q-166 0 -283 129.5t-117 331.5z" />
<glyph unicode="v" horiz-adv-x="1095" d="M246 0l-205 983h287l153 -727h133l156 727h285l-205 -983h-604z" />
<glyph unicode="w" horiz-adv-x="1556" d="M788 635h-20l-113 -635h-430l-184 983h287l112 -676h31l123 676h369l122 -676h31l113 676h287l-185 -983h-430z" />
<glyph unicode="x" horiz-adv-x="1024" d="M707 0l-185 328h-20l-185 -328h-317l307 512l-287 471h308l174 -287h20l174 287h308l-287 -471l307 -512h-317z" />
<glyph unicode="y" horiz-adv-x="1105" d="M778 983h287l-205 -983q-98 -471 -409 -471q-50 0 -101.5 10.5t-77.5 20.5l-26 10l41 246q51 -31 112 -31q131 0 174 215h-317l-215 983h287l155 -727h142z" />
<glyph unicode="z" horiz-adv-x="993" d="M922 983v-256l-471 -451v-20h491v-256h-891v256l471 451v20h-450v256h850z" />
<glyph unicode="{" horiz-adv-x="716" d="M399 604v-20q5 -1 14 -4t32 -16t40.5 -30.5t32 -50.5t14.5 -73q0 -51 -30.5 -174.5t-30.5 -174.5q0 -81 92 -81h113v-287h-123q-211 0 -305 81t-94 246q0 51 35.5 174.5t35.5 174.5q0 38 -22 60t-60 22h-82v286h82q38 0 60 22t22 60q0 51 -35.5 174t-35.5 174 q0 165 94 246.5t305 81.5h123v-287h-113q-45 0 -68.5 -21.5t-23.5 -60.5q0 -51 30.5 -174t30.5 -174q0 -40 -13.5 -72.5t-33.5 -50.5t-39.5 -30.5t-33.5 -16.5z" />
<glyph unicode="|" horiz-adv-x="552" d="M430 1536v-1741h-307v1741h307z" />
<glyph unicode="}" horiz-adv-x="716" d="M317 584v20q-5 1 -14 4t-32 16t-40.5 30.5t-32 50.5t-14.5 73q0 51 31 174t31 174q0 39 -23.5 60.5t-68.5 21.5h-113v287h123q211 0 305 -81.5t94 -246.5q0 -51 -35.5 -174t-35.5 -174q0 -38 21.5 -60t59.5 -22h82v-286h-82q-38 0 -59.5 -22t-21.5 -60q0 -51 35.5 -174.5 t35.5 -174.5q0 -165 -94 -246t-305 -81h-123v287h113q92 0 92 81q0 51 -31 174.5t-31 174.5q0 40 13.5 72.5t33 50.5t39.5 30.5t34 16.5z" />
<glyph unicode="~" horiz-adv-x="921" d="M358 563q-46 0 -71.5 -27.5t-40.5 -95.5l-205 123q0 105 69 180.5t156 75.5q48 0 93.5 -17.5t74.5 -38.5t64 -38.5t65 -17.5q47 0 72.5 27t40.5 95l205 -122q0 -105 -69.5 -180.5t-156.5 -75.5q-48 0 -93.5 17.5t-74.5 38.5t-64 38.5t-65 17.5z" />
<glyph unicode="&#xa1;" horiz-adv-x="573" d="M440 215v-625h-307v625l57 307h193zM123 860q0 69 47.5 116.5t116.5 47.5t116.5 -47.5t47.5 -116.5t-47.5 -116.5t-116.5 -47.5t-116.5 47.5t-47.5 116.5z" />
<glyph unicode="&#xa2;" horiz-adv-x="1126" d="M737 1188v-187q128 -37 215 -125t113 -190l-287 -41q-63 123 -194 123q-95 0 -165.5 -78t-70.5 -198t70.5 -198.5t165.5 -78.5q80 0 135 43.5t80 110.5l286 -41q-26 -124 -116.5 -220t-231.5 -131v-172h-286v175q-167 46 -278.5 190t-111.5 322t111.5 322t278.5 190v184 h286z" />
<glyph unicode="&#xa3;" horiz-adv-x="1124" d="M602 614v-163q0 -45 -15 -81t-31 -50l-15 -13v-20h563v-287h-1063v287h92q67 0 109.5 44.5t42.5 119.5v163h-154v287h154v184q0 195 99.5 302.5t289.5 107.5q45 0 99 -10.5t85 -20.5l31 -10l-31 -266q-51 20 -125 20q-60 0 -95.5 -34.5t-35.5 -88.5v-184h225v-287h-225z " />
<glyph unicode="&#xa4;" horiz-adv-x="1382" d="M61 512v256h144v666h553q269 0 416 -127.5t147 -333.5t-147 -333.5t-416 -127.5h-236v-92h451v-256h-451v-164h-317v164h-144v256h144v92h-144zM758 1178h-236v-410h236q112 0 179 58.5t67 146.5t-67 146.5t-179 58.5z" />
<glyph unicode="&#xa5;" horiz-adv-x="1351" d="M236 338h276v102h-276v197h186l-432 797h358l318 -615h10l328 615h358l-440 -797h184v-197h-277v-102h277v-195h-277v-143h-317v143h-276v195z" />
<glyph unicode="&#xa6;" horiz-adv-x="552" d="M430 1536v-752h-307v752h307zM430 547v-752h-307v752h307z" />
<glyph unicode="&#xa7;" horiz-adv-x="1044" d="M379 737q0 -29 20 -53t48.5 -38t57 -24t48.5 -14l20 -4q4 1 10 3.5t22 12.5t28.5 22t22.5 32t10 43q0 29 -20 53t-49 38t-57.5 24t-48.5 14l-20 4q-4 -1 -10 -3.5t-22 -12.5t-28 -22t-22 -32t-10 -43zM952 737q0 -47 -17 -86.5t-41 -62t-48 -38.5t-41 -22l-17 -6v-20 q7 -2 18 -6.5t39 -23t50 -41.5t39.5 -64.5t17.5 -90.5q0 -58 -33.5 -117.5t-92 -108.5t-147 -80t-187.5 -31q-166 0 -291.5 100.5t-159.5 226.5l276 41q17 -44 64 -78t111 -34q80 0 121.5 30t41.5 72q0 26 -24 47t-64 35t-90.5 31t-103 32.5t-103 40.5t-90.5 55t-64 76 t-24 103q0 47 17 86.5t41 62t48 38.5t41 22l17 6v20q-5 2 -14 6.5t-32 23t-40.5 41.5t-32 64.5t-14.5 90.5q0 123 120 220t310 97q157 0 272 -89t158 -208l-276 -41q-29 38 -64 60t-90 22q-64 0 -98.5 -24.5t-34.5 -57.5q0 -29 29.5 -52t76.5 -39.5t103.5 -34t113 -42 t103.5 -55.5t76.5 -82t29.5 -115z" />
<glyph unicode="&#xa8;" horiz-adv-x="819" d="M61 1290q0 62 41.5 103t102.5 41t102 -41t41 -103t-41 -102.5t-102 -40.5q-62 0 -103 41t-41 102zM471 1290q0 62 41 103t102 41q62 0 103 -41t41 -103q0 -61 -41 -102t-103 -41t-102.5 40.5t-40.5 102.5z" />
<glyph unicode="&#xa9;" horiz-adv-x="1843" d="M942 236q-151 0 -260 106t-109 252q0 147 108.5 252.5t260.5 105.5q124 0 209.5 -69t118.5 -176l-215 -31q-9 27 -40 49.5t-73 22.5q-55 0 -94 -43t-39 -111t39 -111t94 -43q58 0 91.5 23.5t41.5 58.5l215 -30q-36 -114 -124.5 -185t-223.5 -71zM61 594q0 177 69 338.5 t184.5 277.5t274.5 185t333 69q139 0 270 -44t237 -124.5t185.5 -187.5t123.5 -240t44 -274q0 -142 -44 -275t-123.5 -239.5t-185.5 -187t-237 -124.5t-270 -44q-174 0 -333 69t-274.5 185t-184.5 277.5t-69 338.5zM307 594q0 -124 50.5 -239.5t134 -200t196.5 -135 t234 -50.5t234 50.5t196.5 135t133.5 200t50 239.5t-50 239.5t-133.5 200t-196.5 135t-234 50.5t-234 -50.5t-196.5 -135t-134 -200t-50.5 -239.5z" />
<glyph unicode="&#xaa;" horiz-adv-x="716" d="M317 901q27 0 60.5 20.5t53.5 40.5l20 21v21h-134q-71 0 -71 -52q0 -51 71 -51zM348 1434q136 0 221.5 -79.5t85.5 -197.5v-399h-204v61h-21q-3 -3 -7.5 -8.5t-21 -20t-34 -25t-45 -19.5t-56.5 -9q-95 0 -160 67t-65 148q0 96 71.5 155.5t204.5 59.5h134q0 40 -29.5 71.5 t-73.5 31.5q-72 0 -112 -62l-175 62q18 56 97 110t190 54z" />
<glyph unicode="&#xab;" horiz-adv-x="1044" d="M61 492l226 409h266l-225 -409l225 -410h-266zM492 492l225 409h266l-225 -409l225 -410h-266z" />
<glyph unicode="&#xac;" horiz-adv-x="870" d="M553 348v215h-512v256h768v-471h-256z" />
<glyph unicode="&#xad;" horiz-adv-x="860" d="M819 502h-778v256h778v-256z" />
<glyph unicode="&#xae;" horiz-adv-x="1843" d="M625 942h379q128 0 212 -78t84 -188q0 -41 -11.5 -76.5t-28 -56t-33 -35.5t-27.5 -21l-12 -6l143 -235h-246l-102 164h-143v-164h-215v696zM1004 748h-164v-144h164q37 0 59 20t22 52t-22 52t-59 20zM61 594q0 177 69 338.5t184.5 277.5t274.5 185t333 69q139 0 270 -44 t237 -124.5t185.5 -187.5t123.5 -240t44 -274q0 -142 -44 -275t-123.5 -239.5t-185.5 -187t-237 -124.5t-270 -44q-174 0 -333 69t-274.5 185t-184.5 277.5t-69 338.5zM307 594q0 -124 50.5 -239.5t134 -200t196.5 -135t234 -50.5t234 50.5t196.5 135t133.5 200t50 239.5 t-50 239.5t-133.5 200t-196.5 135t-234 50.5t-234 -50.5t-196.5 -135t-134 -200t-50.5 -239.5z" />
<glyph unicode="&#xaf;" horiz-adv-x="675" d="M61 1208v226h553v-226h-553z" />
<glyph unicode="&#xb0;" horiz-adv-x="675" d="M338 1444q115 0 195.5 -80.5t80.5 -196.5q0 -115 -80 -195.5t-196 -80.5q-118 0 -197.5 80t-79.5 196q0 115 80.5 196t196.5 81zM338 1044q54 0 88.5 34.5t34.5 88.5t-34.5 88.5t-88.5 34.5t-88.5 -34.5t-34.5 -88.5t34.5 -88.5t88.5 -34.5z" />
<glyph unicode="&#xb1;" horiz-adv-x="972" d="M614 799h297v-256h-297v-236h287v-246h-829v246h286v236h-297v256h297v307h256v-307z" />
<glyph unicode="&#xb2;" horiz-adv-x="675" d="M420 1219q0 25 -22.5 43t-59.5 18q-78 0 -113 -72l-184 31q25 98 102.5 161.5t194.5 63.5q133 0 215 -69.5t82 -165.5q0 -53 -26.5 -95t-66.5 -66.5t-86.5 -45.5t-86.5 -34t-66.5 -30t-26.5 -36h349v-185h-564v144q0 58 26.5 101t66.5 66.5t86.5 44t86.5 34.5t66.5 37.5 t26.5 54.5z" />
<glyph unicode="&#xb3;" horiz-adv-x="655" d="M317 891q44 0 68.5 20t24.5 52t-24.5 51.5t-68.5 19.5h-122v113l122 102v11h-245v174h512v-144l-154 -123v-10q7 -1 19.5 -4.5t44.5 -18t56 -35t44 -59.5t20 -88q0 -100 -79 -172.5t-218 -72.5q-116 0 -192 61t-105 164l195 31q18 -72 102 -72z" />
<glyph unicode="&#xb4;" horiz-adv-x="532" d="M379 1423l92 -204l-338 -123l-72 164z" />
<glyph unicode="&#xb5;" d="M102 -410v1393h287v-573q0 -76 59.5 -135.5t135.5 -59.5t135 59t59 136v573h287v-983h-287v82h-20q-2 -4 -6 -11t-19.5 -25.5t-34 -32t-49.5 -25t-65 -11.5t-65 11t-50 26.5t-33 30.5t-20 26l-6 11h-21v-492h-287z" />
<glyph unicode="&#xb6;" horiz-adv-x="1044" d="M61 993q0 193 126 317t323 124h494v-287h-185v-1557h-307v963q-121 0 -225 60.5t-165 162t-61 217.5z" />
<glyph unicode="&#xb7;" horiz-adv-x="389" d="M31 717q0 69 47.5 116.5t116.5 47.5t116 -47.5t47 -116.5t-47 -116.5t-116 -47.5t-116.5 47.5t-47.5 116.5z" />
<glyph unicode="&#xb8;" horiz-adv-x="583" d="M410 31l-52 -123q7 -1 18 -4.5t39 -18t50 -35t39.5 -59.5t17.5 -88q0 -109 -72.5 -177.5t-193.5 -68.5q-34 0 -67 9.5t-55 23t-39.5 27t-25.5 23.5l-8 9l93 113q4 -5 12 -11.5t34.5 -18t55.5 -11.5q37 0 64.5 25t27.5 57t-27.5 57t-64.5 25h-102l102 246h154z" />
<glyph unicode="&#xb9;" horiz-adv-x="430" d="M164 737v420h-123v154q61 0 97 34t36 89h195v-697h-205z" />
<glyph unicode="&#xba;" horiz-adv-x="737" d="M492 1085q0 73 -37 118.5t-86 45.5q-48 0 -85.5 -46t-37.5 -118q0 -73 37 -118t86 -45t86 45t37 118zM696 1085q0 -145 -97.5 -246.5t-229.5 -101.5t-230 102t-98 246q0 145 98 247t230 102t229.5 -102t97.5 -247z" />
<glyph unicode="&#xbb;" horiz-adv-x="1044" d="M758 901l225 -409l-225 -410h-266l225 410l-225 409h266zM328 901l225 -409l-225 -410h-267l226 410l-226 409h267z" />
<glyph unicode="&#xbc;" horiz-adv-x="1505" d="M1280 1434l-850 -1434h-307l850 1434h307zM205 737v420h-123v154q61 0 97 34t36 89h195v-697h-205zM1393 0h-205v113h-348v184l184 399h225l-184 -399h123v102h205v-102h71v-184h-71v-113z" />
<glyph unicode="&#xbd;" horiz-adv-x="1546" d="M1280 1434l-850 -1434h-307l850 1434h307zM205 737v420h-123v154q61 0 97 34t36 89h195v-697h-205zM1249 481q0 25 -22.5 43.5t-59.5 18.5q-77 0 -112 -72l-185 31q25 98 102.5 161.5t194.5 63.5q133 0 215 -69.5t82 -165.5q0 -53 -26.5 -95t-66.5 -66.5t-86 -46 t-86 -34.5t-66.5 -30t-26.5 -36h348v-184h-563v143q0 58 26.5 101t66.5 66.5t86 44t86 34.5t66.5 37.5t26.5 54.5z" />
<glyph unicode="&#xbe;" horiz-adv-x="1587" d="M1362 1434l-850 -1434h-307l850 1434h307zM1475 0h-205v113h-348v184l184 399h225l-184 -399h123v102h205v-102h71v-184h-71v-113zM317 891q44 0 68.5 20t24.5 52t-24.5 51.5t-68.5 19.5h-122v113l122 102v11h-245v174h512v-144l-154 -123v-10q7 -1 19.5 -4.5t44.5 -18 t56 -35t44 -59.5t20 -88q0 -100 -79 -172.5t-218 -72.5q-116 0 -192 61t-105 164l195 31q18 -72 102 -72z" />
<glyph unicode="&#xbf;" horiz-adv-x="1126" d="M563 -174q89 0 151.5 54.5t94.5 150.5l317 -41q-40 -194 -191 -322.5t-372 -128.5q-144 0 -265.5 66t-189 169.5t-67.5 215.5q0 77 21 135t55.5 92.5t76.5 60.5t86.5 48.5t83 47.5t68 65t39.5 93h266q0 -77 -21 -136.5t-54.5 -95.5t-73.5 -64t-80.5 -50t-74 -44.5 t-54.5 -55.5t-21 -76q0 -78 57 -131t148 -53zM768 860q0 -69 -47.5 -116.5t-116.5 -47.5t-116.5 47.5t-47.5 116.5t47.5 116.5t116.5 47.5t116.5 -47.5t47.5 -116.5z" />
<glyph unicode="&#xc0;" horiz-adv-x="1464" d="M20 0l349 1434h727l348 -1434h-328l-72 297h-624l-72 -297h-328zM625 1147l-133 -563h481l-133 563h-215zM532 1741l93 205l317 -164l-72 -164z" />
<glyph unicode="&#xc1;" horiz-adv-x="1464" d="M20 0l349 1434h727l348 -1434h-328l-72 297h-624l-72 -297h-328zM625 1147l-133 -563h481l-133 563h-215zM850 1946l92 -205l-338 -123l-72 164z" />
<glyph unicode="&#xc2;" horiz-adv-x="1464" d="M20 0l349 1434h727l348 -1434h-328l-72 297h-624l-72 -297h-328zM625 1147l-133 -563h481l-133 563h-215zM635 1933h205l245 -348h-225l-112 154h-21l-113 -154h-225z" />
<glyph unicode="&#xc3;" horiz-adv-x="1464" d="M20 0l349 1434h727l348 -1434h-328l-72 297h-624l-72 -297h-328zM625 1147l-133 -563h481l-133 563h-215zM655 1700q-23 0 -37 -16t-14 -46v-20h-174v72q0 113 43.5 164t130.5 51q37 0 65.5 -10.5t45.5 -25.5t31.5 -30.5t32.5 -26t40 -10.5q23 0 37 16t14 46v20h174v-72 q0 -113 -43.5 -164t-130.5 -51q-37 0 -65.5 10.5t-45.5 25.5t-31.5 30.5t-32.5 26t-40 10.5z" />
<glyph unicode="&#xc4;" horiz-adv-x="1464" d="M20 0l349 1434h727l348 -1434h-328l-72 297h-624l-72 -297h-328zM625 1147l-133 -563h481l-133 563h-215zM389 1751q0 61 40.5 102t102.5 41t103 -41t41 -102t-41 -102t-103 -41t-102.5 41t-40.5 102zM799 1751q0 61 40.5 102t102.5 41t102.5 -41t40.5 -102t-40.5 -102 t-102.5 -41t-102.5 41t-40.5 102z" />
<glyph unicode="&#xc5;" horiz-adv-x="1464" d="M20 0l349 1434h727l348 -1434h-328l-72 297h-624l-72 -297h-328zM625 1147l-133 -563h481l-133 563h-215zM512 1772q0 92 66.5 158.5t158.5 66.5t159 -66.5t67 -158.5t-67 -159t-159 -67t-158.5 67t-66.5 159zM645 1772q0 -45 27 -74t67 -29q38 0 64 29t26 74t-26.5 73.5 t-65.5 28.5t-65.5 -28.5t-26.5 -73.5z" />
<glyph unicode="&#xc6;" horiz-adv-x="2048" d="M1219 287h788v-287h-1106v297h-512l-72 -297h-317l348 1434h1659v-287h-788v-287h614v-287h-614v-286zM594 1147l-133 -563h440v563h-307z" />
<glyph unicode="&#xc7;" horiz-adv-x="1597" d="M1556 451q-26 -92 -81.5 -177t-135 -156t-190.5 -117.5t-236 -57.5l-22 -56q7 -1 18 -4t39 -17.5t50 -35t39.5 -59.5t17.5 -88q0 -109 -73 -177.5t-194 -68.5q-34 0 -67 9.5t-55 23t-39 27t-25 23.5l-8 9l92 113q4 -5 12 -11.5t34.5 -18t55.5 -11.5q38 0 65.5 25.5 t27.5 56.5t-27.5 56t-65.5 25h-102l74 181q-190 20 -350.5 129t-254.5 279.5t-94 363.5q0 154 63 298t168.5 249t249.5 168t298 63q134 0 250.5 -40t200 -108.5t140.5 -153t85 -179.5l-318 -41q-117 235 -369 235q-117 0 -220.5 -64.5t-166.5 -178.5t-63 -248 q0 -101 37.5 -193t99 -157t144 -103.5t169.5 -38.5q276 0 410 267z" />
<glyph unicode="&#xc8;" horiz-adv-x="1300" d="M440 287h820v-287h-1137v1434h1137v-287h-820v-287h645v-287h-645v-286zM512 1720l92 205l318 -164l-72 -164z" />
<glyph unicode="&#xc9;" horiz-adv-x="1300" d="M440 287h820v-287h-1137v1434h1137v-287h-820v-287h645v-287h-645v-286zM819 1925l92 -205l-338 -123l-71 164z" />
<glyph unicode="&#xca;" horiz-adv-x="1300" d="M440 287h820v-287h-1137v1434h1137v-287h-820v-287h645v-287h-645v-286zM584 1946h204l246 -349h-225l-113 154h-20l-113 -154h-225z" />
<glyph unicode="&#xcb;" horiz-adv-x="1300" d="M440 287h820v-287h-1137v1434h1137v-287h-820v-287h645v-287h-645v-286zM348 1761q0 61 41 102.5t103 41.5q61 0 102 -41t41 -103q0 -61 -40.5 -102t-102.5 -41t-103 41t-41 102zM758 1761q0 62 41 103t102 41t102 -41t41 -103q0 -61 -41 -102t-102 -41t-102 41t-41 102z " />
<glyph unicode="&#xcc;" horiz-adv-x="573" d="M440 1434v-1434h-317v1434h317zM41 1720l92 205l318 -164l-72 -164z" />
<glyph unicode="&#xcd;" horiz-adv-x="573" d="M440 1434v-1434h-317v1434h317zM440 1946l92 -205l-337 -123l-72 164z" />
<glyph unicode="&#xce;" horiz-adv-x="573" d="M440 1434v-1434h-317v1434h317zM184 1966h205l246 -348h-225l-113 154h-21l-112 -154h-225z" />
<glyph unicode="&#xcf;" horiz-adv-x="573" d="M440 1434v-1434h-317v1434h317zM-61 1772q0 62 40.5 102.5t102.5 40.5t102.5 -40.5t40.5 -102.5t-41 -103t-102 -41t-102 41t-41 103zM348 1772q0 61 41 102t103 41t102.5 -40.5t40.5 -102.5t-41 -103t-102 -41q-62 0 -103 41t-41 103z" />
<glyph unicode="&#xd0;" horiz-adv-x="1515" d="M1454 717q0 -148 -57 -280t-156.5 -228.5t-241 -152.5t-303.5 -56h-522v584h-154v266h154v584h522q162 0 303.5 -56t241 -152.5t156.5 -228.5t57 -280zM1137 717q0 185 -125 307.5t-316 122.5h-204v-297h245v-266h-245v-297h204q191 0 316 122.5t125 307.5z" />
<glyph unicode="&#xd1;" horiz-adv-x="1484" d="M471 1434l553 -902h20v902h318v-1434h-348l-553 901h-21v-901h-317v1434h348zM676 1710q-23 0 -37 -15.5t-14 -45.5v-21h-174v72q0 113 43.5 164t130.5 51q37 0 65.5 -10.5t45.5 -25.5t31.5 -30.5t32.5 -26t40 -10.5q23 0 37 16t14 46v20h174v-71q0 -113 -43.5 -164 t-130.5 -51q-46 0 -79 16t-48.5 35t-38 35t-49.5 16z" />
<glyph unicode="&#xd2;" horiz-adv-x="1699" d="M379 717q0 -135 64 -248.5t172.5 -178.5t234.5 -65t234.5 65t172.5 178.5t64 248.5t-64 248.5t-172.5 178t-234.5 64.5t-234.5 -64.5t-172.5 -178t-64 -248.5zM1638 717q0 -159 -61.5 -302.5t-167 -248t-251.5 -166t-308 -61.5t-308.5 61.5t-251.5 166t-167 248 t-62 302.5t62 302.5t167 248t251.5 166t308.5 61.5t308 -61.5t251.5 -166t167 -248t61.5 -302.5zM655 1741l93 205l317 -164l-72 -164z" />
<glyph unicode="&#xd3;" horiz-adv-x="1699" d="M379 717q0 -135 64 -248.5t172.5 -178.5t234.5 -65t234.5 65t172.5 178.5t64 248.5t-64 248.5t-172.5 178t-234.5 64.5t-234.5 -64.5t-172.5 -178t-64 -248.5zM1638 717q0 -159 -61.5 -302.5t-167 -248t-251.5 -166t-308 -61.5t-308.5 61.5t-251.5 166t-167 248 t-62 302.5t62 302.5t167 248t251.5 166t308.5 61.5t308 -61.5t251.5 -166t167 -248t61.5 -302.5zM963 1956l92 -205l-338 -123l-72 164z" />
<glyph unicode="&#xd4;" horiz-adv-x="1699" d="M379 717q0 -135 64 -248.5t172.5 -178.5t234.5 -65t234.5 65t172.5 178.5t64 248.5t-64 248.5t-172.5 178t-234.5 64.5t-234.5 -64.5t-172.5 -178t-64 -248.5zM1638 717q0 -159 -61.5 -302.5t-167 -248t-251.5 -166t-308 -61.5t-308.5 61.5t-251.5 166t-167 248 t-62 302.5t62 302.5t167 248t251.5 166t308.5 61.5t308 -61.5t251.5 -166t167 -248t61.5 -302.5zM768 1966h205l246 -348h-226l-112 154h-21l-112 -154h-226z" />
<glyph unicode="&#xd5;" horiz-adv-x="1699" d="M379 717q0 -135 64 -248.5t172.5 -178.5t234.5 -65t234.5 65t172.5 178.5t64 248.5t-64 248.5t-172.5 178t-234.5 64.5t-234.5 -64.5t-172.5 -178t-64 -248.5zM1638 717q0 -159 -61.5 -302.5t-167 -248t-251.5 -166t-308 -61.5t-308.5 61.5t-251.5 166t-167 248 t-62 302.5t62 302.5t167 248t251.5 166t308.5 61.5t308 -61.5t251.5 -166t167 -248t61.5 -302.5zM778 1731q-23 0 -37 -16t-14 -46v-20h-174v71q0 113 43.5 164t130.5 51q46 0 79 -16t48.5 -35t38 -35t49.5 -16q23 0 37 15.5t14 45.5v21h174v-72q0 -113 -43.5 -164 t-130.5 -51q-37 0 -65.5 10.5t-45.5 26t-31.5 30.5t-32.5 25.5t-40 10.5z" />
<glyph unicode="&#xd6;" horiz-adv-x="1699" d="M379 717q0 -135 64 -248.5t172.5 -178.5t234.5 -65t234.5 65t172.5 178.5t64 248.5t-64 248.5t-172.5 178t-234.5 64.5t-234.5 -64.5t-172.5 -178t-64 -248.5zM1638 717q0 -159 -61.5 -302.5t-167 -248t-251.5 -166t-308 -61.5t-308.5 61.5t-251.5 166t-167 248 t-62 302.5t62 302.5t167 248t251.5 166t308.5 61.5t308 -61.5t251.5 -166t167 -248t61.5 -302.5zM512 1802q0 62 41 103t102 41t102.5 -41t41.5 -103q0 -61 -41 -102t-103 -41q-61 0 -102 40.5t-41 102.5zM922 1802q0 62 41 103t102 41t102 -41t41 -103t-41 -102.5 t-102 -40.5t-102 40.5t-41 102.5z" />
<glyph unicode="&#xd7;" horiz-adv-x="901" d="M625 635l215 -215l-174 -174l-215 215l-215 -215l-175 174l215 215l-215 215l175 174l215 -215l215 215l174 -174z" />
<glyph unicode="&#xd8;" horiz-adv-x="1781" d="M1679 717q0 -159 -61.5 -302.5t-167 -248t-251.5 -166t-308 -61.5q-210 0 -387 98t-283 264l-221 -96v246l131 57q-29 106 -29 209q0 159 62 302.5t167 248t251.5 166t308.5 61.5q209 0 386 -99t282 -266l223 99v-246l-131 -57q28 -106 28 -209zM1362 717q0 39 -6 80 l-846 -369q65 -95 165 -149t216 -54q126 0 234.5 65t172.5 178.5t64 248.5zM420 717q0 -43 6 -80l846 369q-65 94 -165.5 148t-215.5 54q-126 0 -234.5 -64.5t-172.5 -178t-64 -248.5z" />
<glyph unicode="&#xd9;" horiz-adv-x="1495" d="M748 225q139 0 223 86.5t84 231.5v891h317v-891q0 -270 -170.5 -437t-453.5 -167t-454 167t-171 437v891h317v-891q0 -145 84.5 -231.5t223.5 -86.5zM532 1741l93 205l317 -164l-72 -164z" />
<glyph unicode="&#xda;" horiz-adv-x="1495" d="M748 225q139 0 223 86.5t84 231.5v891h317v-891q0 -270 -170.5 -437t-453.5 -167t-454 167t-171 437v891h317v-891q0 -145 84.5 -231.5t223.5 -86.5zM881 1946l92 -205l-338 -123l-72 164z" />
<glyph unicode="&#xdb;" horiz-adv-x="1495" d="M748 225q139 0 223 86.5t84 231.5v891h317v-891q0 -270 -170.5 -437t-453.5 -167t-454 167t-171 437v891h317v-891q0 -145 84.5 -231.5t223.5 -86.5zM655 1966h205l246 -348h-225l-113 154h-20l-113 -154h-225z" />
<glyph unicode="&#xdc;" horiz-adv-x="1495" d="M748 225q139 0 223 86.5t84 231.5v891h317v-891q0 -270 -170.5 -437t-453.5 -167t-454 167t-171 437v891h317v-891q0 -145 84.5 -231.5t223.5 -86.5zM379 1772q0 62 40.5 102.5t102.5 40.5t103 -41t41 -102q0 -62 -41 -103t-103 -41q-61 0 -102 41t-41 103zM788 1772 q0 61 41 102t103 41t102.5 -40.5t40.5 -102.5t-41 -103t-102 -41q-62 0 -103 41t-41 103z" />
<glyph unicode="&#xdd;" horiz-adv-x="1382" d="M850 471v-471h-318v471l-542 963h358l338 -615h10l338 615h359zM829 1925l93 -205l-338 -123l-72 164z" />
<glyph unicode="&#xde;" horiz-adv-x="1341" d="M440 1352h154q311 0 498.5 -177.5t187.5 -457.5t-187.5 -457.5t-498.5 -177.5h-154v-123h-317v1516h317v-123zM594 1065h-154v-696h154q167 0 268 96.5t101 251.5t-101 251.5t-268 96.5z" />
<glyph unicode="&#xdf;" horiz-adv-x="1157" d="M512 625v266q83 0 133.5 46.5t50.5 117.5q0 69 -41 116.5t-102 47.5q-62 0 -108 -48t-46 -116v-1055h-286v1065q0 171 125.5 290.5t314.5 119.5q187 0 308.5 -109t121.5 -260q0 -63 -18 -115.5t-43.5 -83t-51 -52t-43.5 -29.5l-18 -7v-20q6 -1 17 -4t41.5 -16t58.5 -29.5 t62.5 -47.5t59 -68.5t41.5 -94t17 -121.5q0 -179 -130 -298.5t-341 -119.5h-123v256h123q77 0 130.5 54t53.5 130q0 77 -54 131t-130 54h-123z" />
<glyph unicode="&#xe0;" horiz-adv-x="1198" d="M61 492q0 112 39 212t103 169.5t147.5 110t171.5 40.5q55 0 102.5 -14.5t76 -36t49.5 -42.5t30 -35l8 -15h21v102h287v-983h-287v102h-21q-3 -6 -9 -15.5t-28.5 -34t-50.5 -43.5t-75.5 -34.5t-102.5 -15.5q-88 0 -171.5 40.5t-147.5 110t-103 170t-39 212.5zM809 389v205 q-3 7 -9.5 19t-28.5 42t-46 52.5t-62.5 41.5t-78.5 19q-103 0 -169.5 -74.5t-66.5 -201.5t66.5 -202t169.5 -75q40 0 78 18t63.5 43.5t45 51t29.5 43.5zM389 1290l92 205l318 -164l-72 -164z" />
<glyph unicode="&#xe1;" horiz-adv-x="1198" d="M61 492q0 112 39 212t103 169.5t147.5 110t171.5 40.5q55 0 102.5 -14.5t76 -36t49.5 -42.5t30 -35l8 -15h21v102h287v-983h-287v102h-21q-3 -6 -9 -15.5t-28.5 -34t-50.5 -43.5t-75.5 -34.5t-102.5 -15.5q-88 0 -171.5 40.5t-147.5 110t-103 170t-39 212.5zM809 389v205 q-3 7 -9.5 19t-28.5 42t-46 52.5t-62.5 41.5t-78.5 19q-103 0 -169.5 -74.5t-66.5 -201.5t66.5 -202t169.5 -75q40 0 78 18t63.5 43.5t45 51t29.5 43.5zM727 1495l92 -205l-338 -123l-71 164z" />
<glyph unicode="&#xe2;" horiz-adv-x="1198" d="M61 492q0 112 39 212t103 169.5t147.5 110t171.5 40.5q55 0 102.5 -14.5t76 -36t49.5 -42.5t30 -35l8 -15h21v102h287v-983h-287v102h-21q-3 -6 -9 -15.5t-28.5 -34t-50.5 -43.5t-75.5 -34.5t-102.5 -15.5q-88 0 -171.5 40.5t-147.5 110t-103 170t-39 212.5zM809 389v205 q-3 7 -9.5 19t-28.5 42t-46 52.5t-62.5 41.5t-78.5 19q-103 0 -169.5 -74.5t-66.5 -201.5t66.5 -202t169.5 -75q40 0 78 18t63.5 43.5t45 51t29.5 43.5zM502 1516h205l245 -349h-225l-113 154h-20l-113 -154h-225z" />
<glyph unicode="&#xe3;" horiz-adv-x="1198" d="M61 492q0 112 39 212t103 169.5t147.5 110t171.5 40.5q55 0 102.5 -14.5t76 -36t49.5 -42.5t30 -35l8 -15h21v102h287v-983h-287v102h-21q-3 -6 -9 -15.5t-28.5 -34t-50.5 -43.5t-75.5 -34.5t-102.5 -15.5q-88 0 -171.5 40.5t-147.5 110t-103 170t-39 212.5zM809 389v205 q-3 7 -9.5 19t-28.5 42t-46 52.5t-62.5 41.5t-78.5 19q-103 0 -169.5 -74.5t-66.5 -201.5t66.5 -202t169.5 -75q40 0 78 18t63.5 43.5t45 51t29.5 43.5zM532 1270q-23 0 -37 -16t-14 -46v-20h-174v72q0 113 43.5 164t130.5 51q37 0 65.5 -10.5t45.5 -25.5t31.5 -30.5 t32.5 -26t40 -10.5q23 0 37.5 16t14.5 46v20h174v-72q0 -113 -43.5 -164t-130.5 -51q-46 0 -79 16t-49 35.5t-38.5 35.5t-49.5 16z" />
<glyph unicode="&#xe4;" horiz-adv-x="1198" d="M61 492q0 112 39 212t103 169.5t147.5 110t171.5 40.5q55 0 102.5 -14.5t76 -36t49.5 -42.5t30 -35l8 -15h21v102h287v-983h-287v102h-21q-3 -6 -9 -15.5t-28.5 -34t-50.5 -43.5t-75.5 -34.5t-102.5 -15.5q-88 0 -171.5 40.5t-147.5 110t-103 170t-39 212.5zM809 389v205 q-3 7 -9.5 19t-28.5 42t-46 52.5t-62.5 41.5t-78.5 19q-103 0 -169.5 -74.5t-66.5 -201.5t66.5 -202t169.5 -75q40 0 78 18t63.5 43.5t45 51t29.5 43.5zM256 1321q0 61 41 102t102 41q62 0 103 -41t41 -102t-41 -102t-103 -41q-61 0 -102 41t-41 102zM666 1321q0 61 41 102 t102 41t102 -41t41 -102t-41 -102t-102 -41t-102 41t-41 102z" />
<glyph unicode="&#xe5;" horiz-adv-x="1198" d="M61 492q0 112 39 212t103 169.5t147.5 110t171.5 40.5q55 0 102.5 -14.5t76 -36t49.5 -42.5t30 -35l8 -15h21v102h287v-983h-287v102h-21q-3 -6 -9 -15.5t-28.5 -34t-50.5 -43.5t-75.5 -34.5t-102.5 -15.5q-88 0 -171.5 40.5t-147.5 110t-103 170t-39 212.5zM809 389v205 q-3 7 -9.5 19t-28.5 42t-46 52.5t-62.5 41.5t-78.5 19q-103 0 -169.5 -74.5t-66.5 -201.5t66.5 -202t169.5 -75q40 0 78 18t63.5 43.5t45 51t29.5 43.5zM369 1372q0 92 66.5 158.5t158.5 66.5t158.5 -66.5t66.5 -158.5t-66.5 -158.5t-158.5 -66.5t-158.5 66.5t-66.5 158.5z M502 1372q0 -45 27 -73.5t67 -28.5q38 0 64 28.5t26 73.5t-26.5 74t-65.5 29t-65.5 -29t-26.5 -74z" />
<glyph unicode="&#xe6;" horiz-adv-x="1751" d="M440 215q89 0 152 54.5t63 119.5h-215q-59 0 -91 -26t-32 -66q0 -39 31 -60.5t92 -21.5zM1178 768q-74 0 -127.5 -47.5t-77.5 -126.5h409q-24 79 -77 126.5t-127 47.5zM809 123q-5 -7 -14.5 -18t-44 -39t-74.5 -50t-106.5 -39.5t-139.5 -17.5q-177 0 -288 92.5 t-111 214.5q0 151 104 239.5t305 88.5h215q0 83 -42 127.5t-117 44.5q-31 0 -57.5 -9t-43 -22t-29 -26t-17.5 -22l-5 -9q-87 34 -238 96q4 10 11.5 27t40 60t73.5 76t114.5 60t160.5 27q64 0 119 -17t87.5 -41t55.5 -48t32 -41l9 -17h20q4 7 11.5 18t37.5 39t66.5 50 t99 39.5t134.5 17.5q141 0 261.5 -70.5t190.5 -193t70 -268.5l-103 -103h-624q24 -79 77.5 -126.5t127.5 -47.5q58 0 101.5 17t66.5 39t47 57l286 -41q-24 -64 -66 -121t-103 -104.5t-147 -75t-185 -27.5q-63 0 -122 17t-98.5 41t-70 48t-44.5 41l-14 17h-20z" />
<glyph unicode="&#xe7;" horiz-adv-x="1126" d="M1085 328q-31 -143 -144.5 -245t-289.5 -120l-26 -65q7 -1 18 -4.5t39 -18t49.5 -35t39 -59.5t17.5 -88q0 -109 -72.5 -177.5t-193.5 -68.5q-34 0 -67 9.5t-55 23t-39 27t-25 23.5l-8 9l92 113q4 -5 12 -11.5t34.5 -18t55.5 -11.5q37 0 64.5 25t27.5 57t-27.5 57 t-64.5 25h-102l80 192q-183 31 -311 182t-128 343q0 105 43 203.5t114.5 170.5t167.5 115t198 43q96 0 181 -29.5t144.5 -78.5t99.5 -108t56 -122l-287 -41q-63 123 -194 123q-95 0 -165.5 -78t-70.5 -198t70.5 -198.5t165.5 -78.5q80 0 135 43.5t80 110.5z" />
<glyph unicode="&#xe8;" d="M584 1024q146 0 268.5 -70.5t193 -193t70.5 -268.5l-102 -103h-645q24 -80 78.5 -127t136.5 -47q91 0 139.5 29t85.5 84l287 -41q-24 -65 -66.5 -121t-104 -104t-150 -75.5t-191.5 -27.5q-102 0 -198 43.5t-167.5 115t-114.5 170.5t-43 204t43 203.5t114.5 170.5 t167.5 115t198 43zM584 768q-82 0 -136.5 -47t-78.5 -127h430q-24 80 -78.5 127t-136.5 47zM399 1290l93 205l317 -164l-72 -164z" />
<glyph unicode="&#xe9;" d="M584 1024q146 0 268.5 -70.5t193 -193t70.5 -268.5l-102 -103h-645q24 -80 78.5 -127t136.5 -47q91 0 139.5 29t85.5 84l287 -41q-24 -65 -66.5 -121t-104 -104t-150 -75.5t-191.5 -27.5q-102 0 -198 43.5t-167.5 115t-114.5 170.5t-43 204t43 203.5t114.5 170.5 t167.5 115t198 43zM584 768q-82 0 -136.5 -47t-78.5 -127h430q-24 80 -78.5 127t-136.5 47zM717 1495l92 -205l-338 -123l-72 164z" />
<glyph unicode="&#xea;" d="M584 1024q146 0 268.5 -70.5t193 -193t70.5 -268.5l-102 -103h-645q24 -80 78.5 -127t136.5 -47q91 0 139.5 29t85.5 84l287 -41q-24 -65 -66.5 -121t-104 -104t-150 -75.5t-191.5 -27.5q-102 0 -198 43.5t-167.5 115t-114.5 170.5t-43 204t43 203.5t114.5 170.5 t167.5 115t198 43zM584 768q-82 0 -136.5 -47t-78.5 -127h430q-24 80 -78.5 127t-136.5 47zM481 1505h205l246 -348h-225l-113 154h-21l-112 -154h-225z" />
<glyph unicode="&#xeb;" d="M584 1024q146 0 268.5 -70.5t193 -193t70.5 -268.5l-102 -103h-645q24 -80 78.5 -127t136.5 -47q91 0 139.5 29t85.5 84l287 -41q-24 -65 -66.5 -121t-104 -104t-150 -75.5t-191.5 -27.5q-102 0 -198 43.5t-167.5 115t-114.5 170.5t-43 204t43 203.5t114.5 170.5 t167.5 115t198 43zM584 768q-82 0 -136.5 -47t-78.5 -127h430q-24 80 -78.5 127t-136.5 47zM225 1311q0 61 41 102t103 41q61 0 102 -41t41 -102q0 -62 -41 -103t-102 -41t-102.5 41.5t-41.5 102.5zM635 1311q0 61 40.5 102t102.5 41t103 -41t41 -102t-41 -102.5t-103 -41.5 q-61 0 -102 41t-41 103z" />
<glyph unicode="&#xec;" horiz-adv-x="532" d="M0 1280l92 205l318 -164l-72 -164zM410 983v-983h-287v983h287z" />
<glyph unicode="&#xed;" horiz-adv-x="532" d="M399 1485l93 -205l-338 -123l-72 164zM410 983v-983h-287v983h287z" />
<glyph unicode="&#xee;" horiz-adv-x="532" d="M410 983v-983h-287v983h287zM164 1475h205l245 -349h-225l-113 154h-20l-113 -154h-225z" />
<glyph unicode="&#xef;" horiz-adv-x="573" d="M-61 1290q0 62 41 103t102 41t102 -41t41 -103t-40.5 -102.5t-102.5 -40.5t-102.5 40.5t-40.5 102.5zM348 1290q0 62 41 103t103 41q61 0 102 -41t41 -103t-40.5 -102.5t-102.5 -40.5t-103 41t-41 102zM430 983v-983h-287v983h287z" />
<glyph unicode="&#xf0;" horiz-adv-x="1146" d="M686 1106l-123 -92l-123 164l123 92l-112 133l194 164l133 -144l123 93l123 -164l-133 -92q7 -6 19 -18.5t42 -59t52.5 -101.5t41.5 -148t19 -196v-286q0 -216 -140 -354t-362 -138q-221 0 -361.5 136t-140.5 345q0 206 135.5 344t335.5 138q40 0 78 -10.5t63.5 -26 t45.5 -30.5t29 -25l10 -11h20q0 57 -9.5 108t-23 82t-27 54.5t-22.5 32.5zM563 215q93 0 154 63t61 162t-61 162.5t-154 63.5t-154 -63t-61 -163q0 -99 61 -162t154 -63z" />
<glyph unicode="&#xf1;" horiz-adv-x="1157" d="M1065 563v-563h-287v563q0 90 -51.5 147.5t-122.5 57.5q-37 0 -73 -18t-60.5 -43.5t-44 -51t-28.5 -43.5l-9 -18v-594h-287v983h287v-102h21q3 6 9 15.5t28.5 34t49 43.5t72 34.5t97.5 15.5q166 0 282.5 -129.5t116.5 -331.5zM492 1280q-23 0 -37.5 -15.5t-14.5 -45.5 v-21h-174v72q0 113 43.5 164t130.5 51q37 0 65.5 -10.5t45.5 -25.5t31.5 -30.5t32.5 -26t40 -10.5q23 0 37.5 16t14.5 46v20h174v-71q0 -113 -43.5 -164t-130.5 -51q-46 0 -79 16t-48.5 35t-38 35t-49.5 16z" />
<glyph unicode="&#xf2;" horiz-adv-x="1208" d="M604 215q101 0 178.5 81.5t77.5 195.5t-77.5 195t-178.5 81t-178.5 -81t-77.5 -195t77.5 -195.5t178.5 -81.5zM604 -41q-146 0 -271.5 73t-198.5 196t-73 264q0 106 43.5 204t116.5 170t173.5 115t209.5 43t209.5 -43t173.5 -115t116.5 -170t43.5 -204q0 -141 -73 -264 t-198.5 -196t-271.5 -73zM389 1270l92 205l318 -164l-72 -164z" />
<glyph unicode="&#xf3;" horiz-adv-x="1208" d="M604 215q101 0 178.5 81.5t77.5 195.5t-77.5 195t-178.5 81t-178.5 -81t-77.5 -195t77.5 -195.5t178.5 -81.5zM604 -41q-146 0 -271.5 73t-198.5 196t-73 264q0 106 43.5 204t116.5 170t173.5 115t209.5 43t209.5 -43t173.5 -115t116.5 -170t43.5 -204q0 -141 -73 -264 t-198.5 -196t-271.5 -73zM707 1495l92 -205l-338 -123l-72 164z" />
<glyph unicode="&#xf4;" horiz-adv-x="1208" d="M604 215q101 0 178.5 81.5t77.5 195.5t-77.5 195t-178.5 81t-178.5 -81t-77.5 -195t77.5 -195.5t178.5 -81.5zM604 -41q-146 0 -271.5 73t-198.5 196t-73 264q0 106 43.5 204t116.5 170t173.5 115t209.5 43t209.5 -43t173.5 -115t116.5 -170t43.5 -204q0 -141 -73 -264 t-198.5 -196t-271.5 -73zM502 1516h205l245 -349h-225l-113 154h-20l-113 -154h-225z" />
<glyph unicode="&#xf5;" horiz-adv-x="1208" d="M604 215q101 0 178.5 81.5t77.5 195.5t-77.5 195t-178.5 81t-178.5 -81t-77.5 -195t77.5 -195.5t178.5 -81.5zM604 -41q-146 0 -271.5 73t-198.5 196t-73 264q0 106 43.5 204t116.5 170t173.5 115t209.5 43t209.5 -43t173.5 -115t116.5 -170t43.5 -204q0 -141 -73 -264 t-198.5 -196t-271.5 -73zM522 1249q-23 0 -37 -15.5t-14 -45.5v-21h-174v72q0 113 43.5 164t130.5 51q46 0 79 -16t48.5 -35t38 -35t49.5 -16q23 0 37 15.5t14 45.5v21h174v-72q0 -113 -43.5 -164t-130.5 -51q-46 0 -79 16t-48.5 35t-38 35t-49.5 16z" />
<glyph unicode="&#xf6;" horiz-adv-x="1208" d="M604 215q101 0 178.5 81.5t77.5 195.5t-77.5 195t-178.5 81t-178.5 -81t-77.5 -195t77.5 -195.5t178.5 -81.5zM604 -41q-146 0 -271.5 73t-198.5 196t-73 264q0 106 43.5 204t116.5 170t173.5 115t209.5 43t209.5 -43t173.5 -115t116.5 -170t43.5 -204q0 -141 -73 -264 t-198.5 -196t-271.5 -73zM236 1331q0 62 41 103t102 41t102 -41t41 -103q0 -61 -41 -102t-102 -41t-102 41t-41 102zM645 1331q0 62 41 103t102 41q62 0 103 -41.5t41 -102.5t-41 -102t-103 -41t-102.5 41t-40.5 102z" />
<glyph unicode="&#xf7;" horiz-adv-x="860" d="M819 758v-246h-778v246h778zM266 1044q0 69 47.5 116.5t116.5 47.5t116.5 -47.5t47.5 -116.5t-47.5 -116t-116.5 -47t-116.5 47t-47.5 116zM41 512v246h778v-246h-778zM594 225q0 -69 -47.5 -116.5t-116.5 -47.5t-116.5 47.5t-47.5 116.5t47.5 116.5t116.5 47.5 t116.5 -47.5t47.5 -116.5z" />
<glyph unicode="&#xf8;" horiz-adv-x="1208" d="M604 -41q-140 0 -261 66.5t-196 179.5l-147 -62v185l78 32q-17 73 -17 132q0 106 43.5 204t116.5 170t173.5 115t209.5 43q138 0 260 -68t195 -180l149 64v-185l-80 -34q19 -65 19 -129q0 -141 -73 -264t-198.5 -196t-271.5 -73zM604 215q101 0 178.5 81.5t77.5 195.5v16 l-452 -193q37 -47 88.5 -73.5t107.5 -26.5zM348 492v-17l451 191q-36 48 -87 75t-108 27q-101 0 -178.5 -81t-77.5 -195z" />
<glyph unicode="&#xf9;" d="M102 420v563h287v-563q0 -90 51.5 -147.5t122.5 -57.5q37 0 73 18t60.5 43.5t44 51t28.5 43.5l9 18v594h287v-983h-287v102h-20q-3 -6 -9 -15.5t-28.5 -34t-49 -43.5t-72 -34.5t-97.5 -15.5q-166 0 -283 129.5t-117 331.5zM389 1260l92 204l318 -164l-72 -163z" />
<glyph unicode="&#xfa;" d="M102 420v563h287v-563q0 -90 51.5 -147.5t122.5 -57.5q37 0 73 18t60.5 43.5t44 51t28.5 43.5l9 18v594h287v-983h-287v102h-20q-3 -6 -9 -15.5t-28.5 -34t-49 -43.5t-72 -34.5t-97.5 -15.5q-166 0 -283 129.5t-117 331.5zM696 1454l92 -205l-337 -123l-72 164z" />
<glyph unicode="&#xfb;" d="M102 420v563h287v-563q0 -90 51.5 -147.5t122.5 -57.5q37 0 73 18t60.5 43.5t44 51t28.5 43.5l9 18v594h287v-983h-287v102h-20q-3 -6 -9 -15.5t-28.5 -34t-49 -43.5t-72 -34.5t-97.5 -15.5q-166 0 -283 129.5t-117 331.5zM471 1495h205l246 -348h-226l-112 153h-21 l-112 -153h-226z" />
<glyph unicode="&#xfc;" d="M102 420v563h287v-563q0 -90 51.5 -147.5t122.5 -57.5q37 0 73 18t60.5 43.5t44 51t28.5 43.5l9 18v594h287v-983h-287v102h-20q-3 -6 -9 -15.5t-28.5 -34t-49 -43.5t-72 -34.5t-97.5 -15.5q-166 0 -283 129.5t-117 331.5zM215 1300q0 62 41 103t102 41q62 0 103 -41 t41 -103q0 -61 -41 -102t-103 -41t-102.5 40.5t-40.5 102.5zM625 1300q0 62 41 103t102 41t102 -41t41 -103t-40.5 -102.5t-102.5 -40.5t-102.5 40.5t-40.5 102.5z" />
<glyph unicode="&#xfd;" horiz-adv-x="1105" d="M778 983h287l-205 -983q-98 -471 -409 -471q-50 0 -101.5 10.5t-77.5 20.5l-26 10l41 246q51 -31 112 -31q131 0 174 215h-317l-215 983h287l155 -727h142zM666 1475l92 -205l-338 -123l-72 164z" />
<glyph unicode="&#xfe;" horiz-adv-x="1208" d="M1147 492q0 -112 -39 -212.5t-103 -170t-147.5 -110t-171.5 -40.5q-55 0 -102.5 14.5t-76 36t-49.5 42.5t-30 36l-8 14h-21v-512h-286v1844h286v-553h21q3 6 9 15.5t28.5 34t50.5 43.5t75.5 34.5t102.5 15.5q88 0 171.5 -40.5t147.5 -110t103 -169.5t39 -212zM399 594 v-205q3 -7 9.5 -19t28.5 -42t46.5 -52.5t63 -41.5t78.5 -19q102 0 168.5 75t66.5 202t-66 201.5t-169 74.5q-40 0 -78 -18t-63.5 -43.5t-45.5 -51t-30 -43.5z" />
<glyph unicode="&#xff;" horiz-adv-x="1105" d="M778 983h287l-205 -983q-98 -471 -409 -471q-50 0 -101.5 10.5t-77.5 20.5l-26 10l41 246q51 -31 112 -31q131 0 174 215h-317l-215 983h287l155 -727h142zM184 1311q0 61 41 102t103 41t102.5 -41t40.5 -102q0 -62 -41 -103t-102 -41q-62 0 -103 41.5t-41 102.5z M594 1311q0 61 41 102t102 41q62 0 103 -41t41 -102t-41.5 -102.5t-102.5 -41.5t-102 41t-41 103z" />
<glyph unicode="&#x152;" horiz-adv-x="2140" d="M1311 287h788v-287h-1270q-221 0 -397.5 96t-273.5 259.5t-97 361.5t97 361.5t273.5 259.5t397.5 96h1270v-287h-788v-287h614v-287h-614v-286zM379 717q0 -179 130 -304.5t320 -125.5h164v860h-164q-190 0 -320 -125.5t-130 -304.5z" />
<glyph unicode="&#x153;" horiz-adv-x="1914" d="M584 -41q-141 0 -261.5 70.5t-191 193.5t-70.5 269t70.5 268.5t190.5 193t262 70.5q72 0 137 -18t107.5 -43.5t74.5 -51t46 -43.5l14 -18h20q5 7 14.5 19t43.5 42t72 52.5t100 41.5t128 19q142 0 262 -70.5t190.5 -193t70.5 -268.5l-103 -103h-624q24 -79 77 -126.5 t127 -47.5q58 0 101.5 17t66.5 39t47 57l287 -41q-24 -64 -66 -121t-103.5 -104.5t-147.5 -75t-185 -27.5q-66 0 -127 18t-101.5 43.5t-71 51t-44.5 43.5l-14 18h-20q-5 -7 -15 -19t-45 -42t-75 -52.5t-106 -41.5t-138 -19zM584 215q95 0 165 78.5t70 198.5q0 116 -76 196 t-159 80t-159.5 -80t-76.5 -196q0 -120 70.5 -198.5t165.5 -78.5zM1341 768q-74 0 -127 -47.5t-77 -126.5h409q-24 79 -77.5 126.5t-127.5 47.5z" />
<glyph unicode="&#x178;" horiz-adv-x="1382" d="M850 471v-471h-318v471l-542 963h358l338 -615h10l338 615h359zM348 1761q0 61 41 102.5t103 41.5q61 0 102 -41t41 -103q0 -61 -40.5 -102t-102.5 -41t-103 41t-41 102zM758 1761q0 62 41 103t102 41t102 -41t41 -103q0 -61 -41 -102t-102 -41t-102 41t-41 102z" />
<glyph unicode="&#x2c6;" horiz-adv-x="819" d="M307 1434h205l246 -349h-226l-112 154h-21l-112 -154h-226z" />
<glyph unicode="&#x2dc;" horiz-adv-x="737" d="M287 1229q-23 0 -37 -16t-14 -46v-20h-175v72q0 113 44 164t131 51q37 0 65.5 -10.5t45.5 -26t31.5 -30.5t32.5 -25.5t40 -10.5q23 0 37 16t14 46v20h174v-72q0 -113 -43.5 -164t-130.5 -51q-37 0 -65.5 10.5t-45.5 26t-31.5 30.5t-32.5 25.5t-40 10.5z" />
<glyph unicode="&#x2000;" horiz-adv-x="998" />
<glyph unicode="&#x2001;" horiz-adv-x="1997" />
<glyph unicode="&#x2002;" horiz-adv-x="998" />
<glyph unicode="&#x2003;" horiz-adv-x="1997" />
<glyph unicode="&#x2004;" horiz-adv-x="665" />
<glyph unicode="&#x2005;" horiz-adv-x="499" />
<glyph unicode="&#x2006;" horiz-adv-x="332" />
<glyph unicode="&#x2007;" horiz-adv-x="332" />
<glyph unicode="&#x2008;" horiz-adv-x="249" />
<glyph unicode="&#x2009;" horiz-adv-x="399" />
<glyph unicode="&#x200a;" horiz-adv-x="110" />
<glyph unicode="&#x2010;" horiz-adv-x="860" d="M819 502h-778v256h778v-256z" />
<glyph unicode="&#x2011;" horiz-adv-x="860" d="M819 502h-778v256h778v-256z" />
<glyph unicode="&#x2012;" horiz-adv-x="860" d="M819 502h-778v256h778v-256z" />
<glyph unicode="&#x2013;" horiz-adv-x="1280" d="M1239 451h-1198v256h1198v-256z" />
<glyph unicode="&#x2014;" horiz-adv-x="1597" d="M1556 451h-1515v256h1515v-256z" />
<glyph unicode="&#x2018;" horiz-adv-x="450" d="M389 1126q0 -69 -47.5 -116t-116.5 -47t-116.5 47t-47.5 116q0 27 7.5 53t15.5 38l8 12l164 225h123l-72 -184q3 -2 8.5 -5.5t20 -16t25 -27.5t19.5 -40.5t9 -54.5z" />
<glyph unicode="&#x2019;" horiz-adv-x="450" d="M61 1290q0 69 47.5 116.5t116.5 47.5t116.5 -47.5t47.5 -116.5q0 -27 -7.5 -52.5t-15.5 -37.5l-8 -12l-163 -225h-123l71 184q-3 2 -8.5 5t-20 16t-25 28t-19.5 40t-9 54z" />
<glyph unicode="&#x201a;" horiz-adv-x="450" d="M61 123q0 69 47.5 116.5t116.5 47.5t116.5 -47.5t47.5 -116.5q0 -27 -7.5 -53t-15.5 -38l-8 -12l-163 -225h-123l71 185q-3 2 -8.5 5t-20 16t-25 28t-19.5 40t-9 54z" />
<glyph unicode="&#x201c;" horiz-adv-x="839" d="M389 1126q0 -69 -47.5 -116t-116.5 -47t-116.5 47t-47.5 116q0 27 7.5 53t15.5 38l8 12l164 225h123l-72 -184q3 -2 8.5 -5.5t20 -16t25 -27.5t19.5 -40.5t9 -54.5zM778 1126q0 -69 -47.5 -116t-116.5 -47t-116 47t-47 116q0 27 7.5 53t15.5 38l7 12l164 225h123 l-72 -184q3 -2 8.5 -5.5t20 -16t25 -27.5t19.5 -40.5t9 -54.5z" />
<glyph unicode="&#x201d;" horiz-adv-x="839" d="M61 1290q0 69 47.5 116.5t116.5 47.5t116.5 -47.5t47.5 -116.5q0 -27 -7.5 -52.5t-15.5 -37.5l-8 -12l-163 -225h-123l71 184q-3 2 -8.5 5t-20 16t-25 28t-19.5 40t-9 54zM451 1290q0 69 47 116.5t116 47.5t116.5 -47.5t47.5 -116.5q0 -27 -7.5 -52.5t-14.5 -37.5l-8 -12 l-164 -225h-123l71 184q-3 2 -8.5 5t-19.5 16t-24.5 28t-19.5 40t-9 54z" />
<glyph unicode="&#x201e;" horiz-adv-x="839" d="M61 123q0 69 47.5 116.5t116.5 47.5t116.5 -47.5t47.5 -116.5q0 -27 -7.5 -53t-15.5 -38l-8 -12l-163 -225h-123l71 185q-3 2 -8.5 5t-20 16t-25 28t-19.5 40t-9 54zM451 123q0 69 47 116.5t116 47.5t116.5 -47.5t47.5 -116.5q0 -27 -7.5 -53t-14.5 -38l-8 -12l-164 -225 h-123l71 185q-3 2 -8.5 5t-19.5 16t-24.5 28t-19.5 40t-9 54z" />
<glyph unicode="&#x2022;" horiz-adv-x="593" d="M82 604q0 92 61.5 153.5t153.5 61.5t153.5 -61.5t61.5 -153.5t-61.5 -153.5t-153.5 -61.5t-153.5 61.5t-61.5 153.5z" />
<glyph unicode="&#x2026;" horiz-adv-x="1392" d="M61 123q0 69 47.5 116.5t116.5 47.5t116.5 -47.5t47.5 -116.5t-47.5 -116.5t-116.5 -47.5t-116.5 47.5t-47.5 116.5zM1004 123q0 69 47 116.5t116 47.5t116.5 -47.5t47.5 -116.5t-47.5 -116.5t-116.5 -47.5t-116 47.5t-47 116.5zM532 123q0 69 47.5 116.5t116.5 47.5 t116.5 -47.5t47.5 -116.5t-47.5 -116.5t-116.5 -47.5t-116.5 47.5t-47.5 116.5z" />
<glyph unicode="&#x202f;" horiz-adv-x="399" />
<glyph unicode="&#x2039;" horiz-adv-x="747" d="M399 492v-21l308 -317l-175 -174l-491 501l491 502l175 -174z" />
<glyph unicode="&#x203a;" horiz-adv-x="747" d="M348 471v21l-307 317l174 174l492 -502l-492 -501l-174 174z" />
<glyph unicode="&#x205f;" horiz-adv-x="499" />
<glyph unicode="&#x20ac;" horiz-adv-x="1679" d="M41 666h102v102h-102v184h141q78 235 284 389t456 154q134 0 250.5 -40t199.5 -108.5t140 -153t85 -179.5l-317 -41q-117 235 -369 235q-122 0 -228 -69.5t-167 -186.5h447v-184h-502v-102h502v-185h-447q61 -117 167 -186.5t228 -69.5q276 0 410 267l317 -41 q-28 -98 -88.5 -188t-149.5 -163.5t-213 -117t-265 -43.5q-251 0 -457 153t-283 389h-141v185z" />
<glyph unicode="&#x2122;" horiz-adv-x="1566" d="M1096 901l-154 205h-20v-328h-236v656h256l154 -205l153 205h256v-656h-235v328h-21zM625 1434v-215h-185v-441h-235v441h-185v215h605z" />
<glyph unicode="&#x25fc;" horiz-adv-x="983" d="M0 983h983v-983h-983v983z" />
</font>
</defs>
</svg>
