<?xml version="1.0" standalone="no"?>
<!DOCTYPE svg PUBLIC "-//W3C//DTD SVG 1.1//EN" "http://www.w3.org/Graphics/SVG/1.1/DTD/svg11.dtd" >
<svg xmlns="http://www.w3.org/2000/svg">
<metadata></metadata>
<defs>
<font id="tt_firsmedium" horiz-adv-x="1105" >
<font-face units-per-em="2048" ascent="1638" descent="-410" />
<missing-glyph horiz-adv-x="358" />
<glyph horiz-adv-x="0" />
<glyph horiz-adv-x="0" />
<glyph horiz-adv-x="682" />
<glyph unicode="&#xd;" horiz-adv-x="0" />
<glyph unicode=" "  horiz-adv-x="358" />
<glyph unicode="&#x09;" horiz-adv-x="358" />
<glyph unicode="&#xa0;" horiz-adv-x="358" />
<glyph unicode="!" horiz-adv-x="491" d="M174 696v717h143v-717l-30 -278h-82zM154 72q0 38 27 65t65 27t65 -27t27 -65t-27 -65t-65 -27t-65 27t-27 65z" />
<glyph unicode="&#x22;" horiz-adv-x="655" d="M123 1137v276h113v-276l-21 -215h-72zM420 1137v276h112v-276l-20 -215h-72z" />
<glyph unicode="#" horiz-adv-x="1331" d="M287 0h-133l112 399h-225v123h266l103 369h-236v123h277l112 399h133l-112 -399h338l112 399h133l-112 -399h235v-123h-276l-103 -369h246v-123h-287l-112 -399h-133l112 399h-338zM543 891l-103 -369h338l103 369h-338z" />
<glyph unicode="$" horiz-adv-x="1095" d="M481 -61v204q-150 7 -250.5 94t-148.5 214l133 20q74 -205 328 -205q152 0 234.5 60.5t82.5 144.5q0 39 -25 68t-67 46.5t-96.5 31t-114.5 26t-120.5 27.5t-115 38.5t-96.5 55.5t-67 82.5t-25 116.5q0 126 95 213t253 94v205h133v-205q146 -7 242 -85.5t137 -201.5 l-133 -20q-74 184 -307 184q-146 0 -216.5 -51t-70.5 -133q0 -42 25 -73.5t67 -51t96.5 -34.5t115 -28t120.5 -27.5t114.5 -36.5t96.5 -52.5t67 -78.5t25 -110q0 -119 -107.5 -216t-271.5 -112v-204h-133z" />
<glyph unicode="%" horiz-adv-x="1454" d="M1239 1413l-870 -1413h-154l870 1413h154zM184 1106q0 -96 56.5 -160.5t128.5 -64.5t128 64.5t56 160.5t-56 160.5t-128 64.5t-128.5 -64.5t-56.5 -160.5zM676 1106q0 -150 -90.5 -249t-216.5 -99t-217 99t-91 249t91 249t217 99t216.5 -99t90.5 -249zM901 307 q0 -96 56 -160.5t128 -64.5t128.5 64.5t56.5 160.5t-56.5 160.5t-128.5 64.5t-128 -64.5t-56 -160.5zM1393 307q0 -150 -91 -249t-217 -99t-216.5 99t-90.5 249t90.5 249t216.5 99t217 -99t91 -249z" />
<glyph unicode="&#x26;" horiz-adv-x="1208" d="M471 870l-256 400v143h819v-133h-655v-10l829 -1270h-164l-81 123h-11q-6 -7 -17 -19.5t-50 -44.5t-83 -56t-114.5 -44t-144.5 -20q-204 0 -332.5 119.5t-128.5 299.5q0 77 21.5 146.5t56 119t75.5 91t82.5 67.5t76 44.5t56.5 25.5l21 8v10zM543 72q57 0 113 18t95 43.5 t69.5 51t45.5 43.5l15 18l-338 512q-7 -2 -18.5 -6.5t-44.5 -21t-63 -36.5t-66.5 -54t-63 -72.5t-44.5 -93.5t-18 -116q0 -118 91 -202t227 -84z" />
<glyph unicode="'" horiz-adv-x="358" d="M123 1137v276h113v-276l-21 -215h-72z" />
<glyph unicode="(" horiz-adv-x="706" d="M266 594q0 -109 21 -214t54.5 -186t74 -153.5t80.5 -123.5t73.5 -89t54.5 -56l21 -18l-61 -102q-10 7 -26.5 20t-64.5 59t-91.5 98t-96.5 136t-91.5 173.5t-64.5 210t-26 245.5t25.5 245t66 211t90 172t98.5 137t89.5 97t65.5 60l26 20l61 -102q-8 -6 -21.5 -18.5 t-53 -55t-75.5 -89.5t-79.5 -122.5t-75 -155t-53 -185t-21.5 -214.5z" />
<glyph unicode=")" horiz-adv-x="706" d="M440 594q0 109 -21 214t-54.5 186t-74 153.5t-80.5 123.5t-73.5 89t-54.5 56l-21 18l62 102q10 -7 26.5 -20t64.5 -59t91.5 -98t96.5 -136t91.5 -173.5t64.5 -210t26 -245.5q0 -99 -16 -194t-42.5 -172.5t-61 -150t-72.5 -129t-76.5 -105.5t-73 -83.5t-61 -59 t-42.5 -36.5l-16 -12l-62 102q8 6 21.5 18.5t53 55t75.5 89.5t79.5 122.5t75 155t53 185t21.5 214.5z" />
<glyph unicode="*" horiz-adv-x="757" d="M379 1024l-154 -215l-82 61l144 205h-205v103h246v235h102v-235h246v-103h-205l143 -205l-82 -61z" />
<glyph unicode="+" horiz-adv-x="860" d="M369 225v338h-328v133h328v338h123v-338h327v-133h-327v-338h-123z" />
<glyph unicode="," horiz-adv-x="317" d="M72 72q0 38 27 65t65 27t65 -27t27 -65q0 -18 -8 -38.5t-16 -31.5l-7 -12l-102 -174h-62l62 174q-2 1 -5.5 3t-12.5 9t-15.5 15.5t-12 23t-5.5 31.5z" />
<glyph unicode="-" horiz-adv-x="808" d="M768 563h-727v133h727v-133z" />
<glyph unicode="." horiz-adv-x="307" d="M61 72q0 38 27.5 65t65.5 27t65 -27t27 -65t-27 -65t-65 -27t-65.5 27t-27.5 65z" />
<glyph unicode="/" horiz-adv-x="778" d="M41 0l553 1413h143l-553 -1413h-143z" />
<glyph unicode="0" horiz-adv-x="1474" d="M1229 707q0 113 -27.5 214.5t-75 177t-110 131t-134 83.5t-145.5 28q-93 0 -181 -45t-157 -125t-111 -201.5t-42 -262.5t42 -262.5t111 -201.5t157 -125.5t181 -45.5t181 45.5t157.5 125.5t111.5 201.5t42 262.5zM102 707q0 168 53 313.5t141.5 244t203 154.5t237.5 56 t237.5 -56t203 -154.5t141.5 -244t53 -313.5t-53 -313.5t-141.5 -244t-203 -154.5t-237.5 -56t-237.5 56t-203 154.5t-141.5 244t-53 313.5z" />
<glyph unicode="1" horiz-adv-x="614" d="M317 0v1147q-3 -4 -9.5 -11t-30.5 -25t-51 -31.5t-71.5 -24.5t-93.5 -11v123q106 0 186.5 75.5t80.5 170.5h133v-1413h-144z" />
<glyph unicode="2" horiz-adv-x="1187" d="M942 1055q0 124 -94.5 205t-243.5 81q-292 0 -389 -266l-143 21q49 167 185 273t347 106q213 0 347 -119t134 -301q0 -77 -30 -143.5t-80 -116.5t-115.5 -94.5t-137.5 -83t-144 -76.5t-137.5 -80.5t-115.5 -89t-80 -107.5t-30 -131h881v-133h-1024v123q0 88 30 164.5 t80 133t115.5 105.5t137.5 89t144 77.5t137.5 76t115.5 79.5t80 94t30 113z" />
<glyph unicode="3" horiz-adv-x="1208" d="M51 348l144 31q58 -141 162 -224t257 -83q159 0 264 99t105 239t-105 239t-264 99h-194v133l440 389v10h-686v133h901v-133l-440 -389v-10q214 0 352.5 -135t138.5 -336q0 -202 -142.5 -336.5t-369.5 -134.5q-218 0 -361.5 114t-201.5 295z" />
<glyph unicode="4" horiz-adv-x="1208" d="M993 0h-143v317h-789v134l492 962h154l-492 -962h635v399h143v-399h195v-134h-195v-317z" />
<glyph unicode="5" horiz-adv-x="1177" d="M584 748h-379l112 665h717v-133h-594l-71 -399h215q227 0 369.5 -134.5t142.5 -336.5t-142.5 -336.5t-369.5 -134.5q-218 0 -362 114t-202 295l144 31q58 -141 162.5 -224t257.5 -83q159 0 263.5 99t104.5 239t-104.5 239t-263.5 99z" />
<glyph unicode="6" horiz-adv-x="1208" d="M82 451q0 57 12.5 114t31 97.5t36.5 72.5t30 48l13 16l471 614h164l-369 -481h10q52 31 152 31q107 0 202 -40t163.5 -108t108.5 -163t40 -201q0 -142 -68.5 -259t-191 -185t-273.5 -68t-273 68t-190.5 185t-68.5 259zM225 451q0 -162 110.5 -270.5t278.5 -108.5 t279 108.5t111 270.5t-111 270t-279 108t-278.5 -108t-110.5 -270z" />
<glyph unicode="7" horiz-adv-x="972" d="M348 0h-153l593 1270v10h-768v133h922v-143z" />
<glyph unicode="8" horiz-adv-x="1269" d="M635 72q184 0 296.5 92.5t112.5 214.5q0 129 -112 223t-297 94t-297.5 -94t-112.5 -223q0 -122 113 -214.5t297 -92.5zM635 829q153 0 250.5 78.5t97.5 177.5t-97.5 177.5t-250.5 78.5t-250.5 -78.5t-97.5 -177.5t97.5 -177.5t250.5 -78.5zM635 -61q-123 0 -228.5 37 t-175.5 98.5t-109.5 140.5t-39.5 164q0 65 18 120.5t47 93.5t64 68t70 47.5t64 29.5t47 16l18 4v10q-6 1 -15.5 4t-37 14.5t-53 26t-56 40.5t-53 57t-37.5 77t-15 98q0 73 35.5 143t98.5 125t156.5 88.5t201.5 33.5t201.5 -33.5t156 -88.5t98 -125t35.5 -143 q0 -52 -14.5 -98t-38 -77t-52 -57t-57 -41t-52 -25.5t-38.5 -14.5l-14 -4v-10q7 -1 18.5 -4t46 -16t65.5 -29.5t68.5 -47.5t65 -68t46 -93t18.5 -121q0 -85 -39.5 -164t-109.5 -140.5t-175.5 -98.5t-228.5 -37z" />
<glyph unicode="9" horiz-adv-x="1208" d="M1126 963q0 -57 -12.5 -114.5t-30.5 -97.5t-36 -72.5t-31 -48.5l-12 -16l-472 -614h-163l368 481h-10q-52 -30 -154 -30q-215 0 -363.5 148.5t-148.5 363.5q0 142 68.5 259t191 185t273.5 68t273 -68t190.5 -185t68.5 -259zM983 963q0 162 -110.5 270t-278.5 108 t-278.5 -108t-110.5 -270t110.5 -270.5t278.5 -108.5t278.5 108.5t110.5 270.5z" />
<glyph unicode=":" horiz-adv-x="307" d="M61 72q0 38 27.5 65t65.5 27t65 -27t27 -65t-27 -65t-65 -27t-65.5 27t-27.5 65zM61 881q0 38 27.5 65t65.5 27t65 -27t27 -65t-27 -65.5t-65 -27.5t-65.5 27.5t-27.5 65.5z" />
<glyph unicode=";" horiz-adv-x="317" d="M72 881q0 38 27 65t65 27t65 -27t27 -65t-27 -65.5t-65 -27.5t-65 27.5t-27 65.5zM72 72q0 38 27 65t65 27t65 -27t27 -65q0 -18 -8 -38.5t-16 -31.5l-7 -12l-102 -174h-62l62 174q-2 1 -5.5 3t-12.5 9t-15.5 15.5t-12 23t-5.5 31.5z" />
<glyph unicode="&#x3c;" horiz-adv-x="993" d="M225 461l686 -297v-133l-829 358v154l829 358v-133l-686 -297v-10z" />
<glyph unicode="=" horiz-adv-x="880" d="M799 748h-717v122h717v-122zM799 379h-717v123h717v-123z" />
<glyph unicode="&#x3e;" horiz-adv-x="993" d="M82 164l686 297v10l-686 297v133l829 -358v-154l-829 -358v133z" />
<glyph unicode="?" horiz-adv-x="1075" d="M532 1341q-280 0 -368 -266l-144 21q49 172 178 275.5t334 103.5q201 0 331 -115.5t130 -274.5q0 -79 -25 -141t-64.5 -102.5t-87.5 -75t-96 -67.5t-87.5 -70.5t-64.5 -93t-25 -125.5h-123q0 87 23.5 156t61.5 113t84 80t92 67.5t84 65t61.5 82.5t23.5 111 q0 97 -92.5 176.5t-225.5 79.5zM389 72q0 38 27 65t65 27t65 -27t27 -65t-27 -65t-65 -27t-65 27t-27 65z" />
<glyph unicode="@" horiz-adv-x="1669" d="M1024 328v71h-10l-7.5 -10t-22.5 -22t-39 -28t-55 -22t-71 -10q-125 0 -221 102t-96 246t96 246.5t221 102.5q37 0 71 -9.5t55.5 -23t38 -27.5t23.5 -24l7 -9h10v72h133v-532q140 0 229 92.5t89 244.5q0 104 -43.5 196.5t-122.5 163t-198 111.5t-261 41 q-132 0 -250 -49.5t-202.5 -134.5t-133.5 -205t-49 -256t49 -256t133.5 -205t202.5 -134.5t250 -49.5q106 0 205.5 26t146.5 52l47 25v-123q-7 -4 -19 -11t-52.5 -25t-84 -31.5t-110 -24.5t-133.5 -11q-163 0 -305.5 58.5t-244 160t-160 244t-58.5 305.5t58.5 305.5t160 244 t244 160t305.5 58.5q168 0 312 -51.5t240.5 -139t151 -202.5t54.5 -242q0 -194 -139.5 -327t-352.5 -133h-92zM1024 553v205q-2 5 -7 13.5t-22.5 29.5t-37 37t-51.5 29.5t-66 13.5q-78 0 -141.5 -68t-63.5 -158t63.5 -157.5t141.5 -67.5q34 0 66 12.5t52.5 31t36 36.5 t22.5 30z" />
<glyph unicode="A" horiz-adv-x="1372" d="M983 1413l348 -1413h-143l-92 358h-820l-92 -358h-143l348 1413h594zM502 1280l-195 -788h758l-195 788h-368z" />
<glyph unicode="B" horiz-adv-x="1382" d="M154 1413h604q181 0 295 -104t114 -254q0 -63 -19 -114.5t-46 -80.5t-54 -49t-46 -27l-19 -6v-10q7 -1 19 -2.5t47.5 -11t67 -23.5t70.5 -42.5t67.5 -64t47.5 -91.5t19 -123q0 -172 -129 -291t-332 -119h-706v1413zM297 133h563q143 0 230.5 79.5t87.5 197.5t-87.5 197 t-230.5 79h-563v-553zM758 1280h-461v-461h461q121 0 193.5 66t72.5 170q0 95 -73 160t-193 65z" />
<glyph unicode="C" horiz-adv-x="1546" d="M809 -61q-140 0 -273 61.5t-233 164.5t-160.5 245.5t-60.5 296.5t60.5 296.5t160.5 245.5t233 164.5t273 61.5q125 0 236.5 -38t190 -101t131.5 -138t77 -154l-144 -20q-24 61 -66 115t-102 100.5t-143.5 74t-179.5 27.5q-147 0 -281.5 -85t-218.5 -232.5t-84 -316.5 q0 -128 49.5 -247t130.5 -203t187.5 -134.5t216.5 -50.5q104 0 192 28t152 78t110 109.5t78 132.5l144 -21q-32 -92 -89.5 -172t-140 -146t-198 -104t-248.5 -38z" />
<glyph unicode="D" horiz-adv-x="1413" d="M1188 707q0 256 -165 414.5t-439 158.5h-287v-1147h287q274 0 439 159t165 415zM1331 707q0 -204 -92 -364.5t-262.5 -251.5t-392.5 -91h-430v1413h430q222 0 392.5 -91t262.5 -251t92 -364z" />
<glyph unicode="E" horiz-adv-x="1208" d="M297 133h870v-133h-1013v1413h1013v-133h-870v-502h686v-133h-686v-512z" />
<glyph unicode="F" horiz-adv-x="1157" d="M297 604v-604h-143v1413h972v-133h-829v-543h666v-133h-666z" />
<glyph unicode="G" horiz-adv-x="1587" d="M809 72q112 0 215.5 42.5t176.5 111t117 157.5t44 180h-471v133h614v-61q0 -147 -53 -276.5t-145 -221.5t-221.5 -145t-276.5 -53q-141 0 -274 61t-232.5 163.5t-160 245.5t-60.5 298t60.5 298t160 245.5t232.5 163.5t274 61q125 0 236.5 -38t190 -101t131.5 -138 t77 -154l-144 -20q-24 61 -66 115t-102 100.5t-143.5 74t-179.5 27.5q-110 0 -216.5 -50t-187.5 -134.5t-130.5 -203t-49.5 -246.5t49.5 -247t130.5 -203t187.5 -134.5t216.5 -50.5z" />
<glyph unicode="H" horiz-adv-x="1402" d="M154 0v1413h143v-635h809v635h143v-1413h-143v645h-809v-645h-143z" />
<glyph unicode="I" horiz-adv-x="450" d="M297 1413v-1413h-143v1413h143z" />
<glyph unicode="J" horiz-adv-x="1095" d="M942 1413v-952q0 -235 -135.5 -378.5t-345.5 -143.5q-168 0 -288 97.5t-153 229.5l144 31q33 -99 110 -162t187 -63q150 0 244 104t94 285v952h143z" />
<glyph unicode="K" horiz-adv-x="1269" d="M1085 0l-491 758l-297 -307v-451h-143v1413h143v-778l747 778h185l-533 -553l553 -860h-164z" />
<glyph unicode="L" horiz-adv-x="1136" d="M297 1413v-1280h819v-133h-962v1413h143z" />
<glyph unicode="M" horiz-adv-x="1720" d="M860 522l-553 676h-10v-1198h-143v1413h153l553 -676l553 676h154v-1413h-144v1198h-10z" />
<glyph unicode="N" horiz-adv-x="1423" d="M307 1413l809 -1167h10v1167h144v-1413h-154l-809 1167h-10v-1167h-143v1413h153z" />
<glyph unicode="O" horiz-adv-x="1658" d="M82 707q0 204 103 381.5t275.5 282t368.5 104.5q147 0 284.5 -61.5t239.5 -164.5t163 -245.5t61 -296.5t-61 -296.5t-163 -245.5t-239.5 -164.5t-284.5 -61.5t-284.5 61.5t-239 164.5t-162.5 245.5t-61 296.5zM1434 707q0 127 -50.5 245t-133 203t-193.5 135.5t-228 50.5 t-228 -50.5t-193.5 -135.5t-132.5 -203t-50 -245t50 -245.5t132.5 -203t193.5 -135.5t228 -51t228 51t193.5 135.5t133 203t50.5 245.5z" />
<glyph unicode="P" horiz-adv-x="1372" d="M1147 911q0 164 -108.5 266.5t-290.5 102.5h-451v-737h451q182 0 290.5 102.5t108.5 265.5zM1290 911q0 -218 -149.5 -359.5t-392.5 -141.5h-451v-410h-143v1413h594q243 0 392.5 -142t149.5 -360z" />
<glyph unicode="Q" horiz-adv-x="1669" d="M82 707q0 204 103 381.5t275.5 282t368.5 104.5q147 0 284.5 -61.5t239.5 -164.5t163 -245.5t61 -296.5q0 -86 -19 -169.5t-46 -141t-54 -102.5t-46 -67l-19 -22l215 -215l-103 -103l-215 215q-8 -7 -22 -18t-60.5 -39t-97 -49.5t-127.5 -39t-154 -17.5 q-147 0 -284.5 61.5t-239 164.5t-162.5 245.5t-61 296.5zM1434 707q0 127 -50.5 245t-133 203t-193.5 135.5t-228 50.5t-228 -50.5t-193.5 -135.5t-132.5 -203t-50 -245t50 -245.5t132.5 -203t193.5 -135.5t228 -51q63 0 124 13.5t103.5 33t76 39.5t49.5 34l16 13l-143 143 l102 103l143 -144q5 6 14.5 18t32.5 52t40.5 83t32 110.5t14.5 136.5z" />
<glyph unicode="R" horiz-adv-x="1392" d="M829 492h-532v-492h-143v1413h634q227 0 364.5 -129.5t137.5 -331.5q0 -73 -17.5 -136t-45.5 -106t-61.5 -77.5t-67.5 -54.5t-62 -33t-46 -18l-17 -5l287 -522h-154zM297 625h491q159 0 259 93.5t100 233.5t-100 234t-259 94h-491v-655z" />
<glyph unicode="S" horiz-adv-x="1259" d="M1034 369q0 59 -30.5 104.5t-82 75t-118.5 53.5t-141 45t-147.5 44t-140.5 55.5t-118.5 75t-82 107t-30.5 146.5q0 77 36 149t99.5 128t159 89.5t207.5 33.5q210 0 342 -101t191 -268l-144 -31q-58 133 -147 199.5t-242 66.5q-161 0 -259.5 -80t-98.5 -186 q0 -59 30.5 -104.5t82 -75t118.5 -53.5t140.5 -45t147.5 -44t141 -55.5t118.5 -75t82 -107t30.5 -146.5q0 -85 -38 -162.5t-106 -137t-172 -95t-227 -35.5q-226 0 -371 115t-203 304l144 21q58 -141 164.5 -224t265.5 -83q184 0 291.5 87.5t107.5 209.5z" />
<glyph unicode="T" horiz-adv-x="1187" d="M522 1280h-502v133h1147v-133h-501v-1280h-144v1280z" />
<glyph unicode="U" horiz-adv-x="1413" d="M707 72q180 0 294.5 123t114.5 327v891h144v-891q0 -266 -152.5 -424.5t-400.5 -158.5t-400.5 158.5t-152.5 424.5v891h143v-891q0 -204 115 -327t295 -123z" />
<glyph unicode="V" horiz-adv-x="1392" d="M205 1413l307 -1280h369l307 1280h143l-338 -1413h-594l-338 1413h144z" />
<glyph unicode="W" horiz-adv-x="1894" d="M932 1270l-277 -1270h-297l-297 1413h144l266 -1280h72l276 1280h256l277 -1280h71l267 1280h143l-297 -1413h-297l-276 1270h-31z" />
<glyph unicode="X" horiz-adv-x="1259" d="M625 625l-430 -625h-164q231 331 512 737l-471 676h164l389 -563h10l389 563h164l-471 -676q281 -406 512 -737h-164l-430 625h-10z" />
<glyph unicode="Y" horiz-adv-x="1310" d="M1290 1413l-563 -942v-471h-143v471l-564 942h160l471 -778h8l471 778h160z" />
<glyph unicode="Z" horiz-adv-x="1218" d="M61 0v143l912 1127v10h-881v133h1055v-143l-911 -1127v-10h921v-133h-1096z" />
<glyph unicode="[" horiz-adv-x="645" d="M604 1341h-307v-1495h307v-133h-450v1762h450v-134z" />
<glyph unicode="\" horiz-adv-x="778" d="M184 1413l553 -1413h-143l-553 1413h143z" />
<glyph unicode="]" horiz-adv-x="645" d="M348 1341h-307v134h451v-1762h-451v133h307v1495z" />
<glyph unicode="^" horiz-adv-x="880" d="M379 1413h123l297 -655h-133l-222 491h-8l-221 -491h-133z" />
<glyph unicode="_" horiz-adv-x="727" d="M727 -379h-727v133h727v-133z" />
<glyph unicode="`" horiz-adv-x="501" d="M61 1300l62 123l317 -184l-41 -82z" />
<glyph unicode="a" d="M850 307v328q-4 9 -12.5 24t-37.5 54t-63 68.5t-89.5 54t-115.5 24.5q-135 0 -231 -108.5t-96 -280.5t96 -280.5t231 -108.5q60 0 115 23t90.5 56t62 66.5t38.5 56.5zM983 942v-942h-133v133h-10q-4 -7 -12.5 -19t-37.5 -42t-63 -52.5t-89.5 -41.5t-115.5 -19 q-88 0 -170 38.5t-144 105.5t-99 163t-37 205t37 205t99 163t144 105.5t170 38.5q60 0 115 -18t90.5 -43.5t62 -51t38.5 -43.5l12 -18h10v133h133z" />
<glyph unicode="b" horiz-adv-x="1116" d="M266 635v-328q4 -9 12.5 -24t37.5 -54t63 -68.5t89.5 -54t115.5 -24.5q135 0 231 108.5t96 280.5t-96 280.5t-231 108.5q-60 0 -115 -23t-90.5 -56t-62 -66.5t-38.5 -56.5zM133 0v1413h133v-604h10q4 7 12.5 19t37.5 42t63 52.5t89.5 41.5t115.5 19q88 0 170 -38.5 t144 -105.5t99 -163t37 -205t-37 -205t-99 -163t-144 -105.5t-170 -38.5q-60 0 -115 18t-90.5 43.5t-62 51t-38.5 43.5l-12 18h-10v-133h-133z" />
<glyph unicode="c" horiz-adv-x="1054" d="M553 -41q-127 0 -237.5 67.5t-177 186t-66.5 258.5t66.5 258.5t177 186t237.5 67.5q85 0 159 -24t125 -64.5t85.5 -88t50.5 -99.5l-133 -31q-26 77 -99.5 130.5t-187.5 53.5q-141 0 -244.5 -112t-103.5 -277t103.5 -277t244.5 -112q123 0 203.5 62.5t113.5 162.5l134 -31 q-33 -133 -151.5 -225t-299.5 -92z" />
<glyph unicode="d" horiz-adv-x="1116" d="M850 307v328q-4 9 -12.5 24t-37.5 54t-63 68.5t-89.5 54t-115.5 24.5q-135 0 -231 -108.5t-96 -280.5t96 -280.5t231 -108.5q60 0 115 23t90.5 56t62 66.5t38.5 56.5zM983 1413v-1413h-133v133h-10q-4 -7 -12.5 -19t-37.5 -42t-63 -52.5t-89.5 -41.5t-115.5 -19 q-88 0 -170 38.5t-144 105.5t-99 163t-37 205t37 205t99 163t144 105.5t170 38.5q60 0 115 -18t90.5 -43.5t62 -51t38.5 -43.5l12 -18h10v604h133z" />
<glyph unicode="e" horiz-adv-x="1075" d="M543 983q127 0 235 -65.5t172 -183.5t64 -263l-62 -61h-747q15 -140 113.5 -234t234.5 -94q129 0 211 61t113 154l133 -27q-39 -130 -157.5 -220.5t-297.5 -90.5q-133 0 -243.5 65.5t-175 183t-64.5 263.5q0 145 64 263t172 183.5t235 65.5zM543 860q-130 0 -226.5 -94.5 t-111.5 -233.5h676q-15 139 -111.5 233.5t-226.5 94.5z" />
<glyph unicode="f" horiz-adv-x="583" d="M41 819v123h143v174q0 145 82.5 231.5t214.5 86.5q41 0 82 -10t61 -20l21 -11l-31 -123q-6 5 -16.5 11.5t-45.5 18t-71 11.5q-71 0 -117.5 -52.5t-46.5 -142.5v-174h256v-123h-256v-819h-133v819h-143z" />
<glyph unicode="g" d="M983 942v-932q0 -191 -122.5 -315.5t-307.5 -124.5q-165 0 -271.5 78.5t-148.5 197.5l133 31q74 -184 287 -184q132 0 214.5 86t82.5 231v164h-10q-4 -7 -12.5 -19t-37.5 -42t-63 -52.5t-89.5 -41.5t-115.5 -19q-87 0 -169.5 38.5t-144 103.5t-99 157t-37.5 193 q0 134 63 248t166.5 178.5t220.5 64.5q60 0 115 -18t90.5 -43.5t62 -51t38.5 -43.5l12 -18h10v133h133zM850 348v287q-4 9 -12.5 24t-37.5 54t-63 68.5t-89.5 54t-115.5 24.5q-134 0 -230.5 -105t-96.5 -263t97 -263.5t230 -105.5q60 0 115 23t90.5 56t62 66.5t38.5 56.5z " />
<glyph unicode="h" horiz-adv-x="1095" d="M983 553v-553h-133v553q0 143 -74 225t-192 82q-57 0 -111 -23t-90 -56t-63.5 -66.5t-40.5 -56.5l-13 -23v-635h-133v1413h133v-604h10q5 7 13.5 19t39 42t65 52.5t89 41.5t111.5 19q172 0 280.5 -117t108.5 -313z" />
<glyph unicode="i" horiz-adv-x="430" d="M283 942v-942h-133v942h133zM123 1331q0 38 27 65t65 27t65 -27t27 -65t-27 -65t-65 -27t-65 27t-27 65z" />
<glyph unicode="j" horiz-adv-x="413" d="M276 942v-1065q0 -137 -82.5 -222t-213.5 -85q-41 0 -82 10t-62 20l-20 11l30 123q6 -5 17 -11.5t46 -18t71 -11.5q70 0 116.5 50.5t46.5 133.5v1065h133zM117 1331q0 38 27 65t65 27t65 -27t27 -65t-27 -65t-65 -27t-65 27t-27 65z" />
<glyph unicode="k" horiz-adv-x="972" d="M266 276v-276h-133v1413h133v-973l492 502h164l-349 -358l390 -584h-144l-327 492h-11z" />
<glyph unicode="l" horiz-adv-x="450" d="M184 0v1290h-164v123h297v-1413h-133z" />
<glyph unicode="m" horiz-adv-x="1597" d="M870 573v-573h-133v573q0 126 -68 206.5t-157 80.5q-49 0 -93 -23t-72.5 -56t-50 -66.5t-30.5 -56.5l-10 -23v-635h-133v942h133v-133h10q3 7 9.5 19t30.5 42t51 52.5t71.5 41.5t93.5 19q63 0 117 -19t86 -46t55 -54t32 -46l9 -19h10q3 7 9 19.5t29.5 44.5t53 56t81.5 44 t112 20q164 0 266.5 -110.5t102.5 -299.5v-573h-133v573q0 130 -64.5 208.5t-171.5 78.5t-176.5 -79t-69.5 -208z" />
<glyph unicode="n" horiz-adv-x="1085" d="M973 553v-553h-133v553q0 143 -74.5 225t-192.5 82q-57 0 -111 -23t-89.5 -56t-63 -66.5t-40.5 -56.5l-13 -23v-635h-133v942h133v-133h10q5 7 13.5 19t39 42t65 52.5t89 41.5t111.5 19q172 0 280.5 -117t108.5 -313z" />
<glyph unicode="o" horiz-adv-x="1126" d="M1055 471q0 -221 -141.5 -366.5t-350.5 -145.5t-350 145.5t-141 366.5t141 366.5t350 145.5t350.5 -145.5t141.5 -366.5zM922 471q0 166 -105.5 277.5t-253.5 111.5t-253 -111.5t-105 -277.5t105.5 -277.5t252.5 -111.5q148 0 253.5 111.5t105.5 277.5z" />
<glyph unicode="p" d="M256 635v-328q4 -9 12 -24t37.5 -54t63 -68.5t89 -54t115.5 -24.5q135 0 231.5 108.5t96.5 280.5t-96.5 280.5t-231.5 108.5q-60 0 -115 -23t-90 -56t-61.5 -66.5t-38.5 -56.5zM123 -410v1352h133v-133h10q4 7 12.5 19t37.5 42t63 52.5t89.5 41.5t115.5 19 q88 0 170 -38.5t144 -105.5t99 -163t37 -205t-37 -205t-99 -163t-144 -105.5t-170 -38.5q-60 0 -115 18t-90.5 43.5t-62 51t-38.5 43.5l-12 18h-10v-543h-133z" />
<glyph unicode="q" d="M850 307v328q-4 9 -12.5 24t-37.5 54t-63 68.5t-89.5 54t-115.5 24.5q-135 0 -231 -108.5t-96 -280.5t96 -280.5t231 -108.5q60 0 115 23t90.5 56t62 66.5t38.5 56.5zM983 942v-1352h-133v543h-10q-4 -7 -12.5 -19t-37.5 -42t-63 -52.5t-89.5 -41.5t-115.5 -19 q-88 0 -170 38.5t-144 105.5t-99 163t-37 205t37 205t99 163t144 105.5t170 38.5q60 0 115 -18t90.5 -43.5t62 -51t38.5 -43.5l12 -18h10v133h133z" />
<glyph unicode="r" horiz-adv-x="624" d="M604 983v-133h-41q-55 0 -106.5 -22t-86.5 -54t-62 -63.5t-40 -53.5l-12 -22v-635h-133v942h133v-133h10q5 7 13.5 19t38.5 42t63 52.5t85 41.5t107 19h31z" />
<glyph unicode="s" horiz-adv-x="942" d="M113 707q0 114 101.5 195t277.5 81q147 0 250 -72.5t139 -162.5l-133 -21q-89 133 -256 133q-115 0 -180.5 -46.5t-65.5 -106.5q0 -45 35 -77t91 -50.5t124 -34.5t135.5 -37t123.5 -49.5t91 -80t35 -122.5q0 -123 -110 -210t-300 -87q-165 0 -276 83.5t-154 203.5l133 20 q35 -79 109 -131.5t188 -52.5q129 0 203 53t74 121q0 45 -35 77t-91 50.5t-124 34.5t-135.5 37t-123.5 49.5t-91 80t-35 122.5z" />
<glyph unicode="t" horiz-adv-x="686" d="M41 819v123h143v266h133v-266h256v-123h-256v-543q0 -90 46.5 -142t117.5 -52q36 0 69.5 10t48.5 20l15 11l31 -123q-72 -41 -164 -41q-132 0 -214.5 86t-82.5 231v543h-143z" />
<glyph unicode="u" horiz-adv-x="1095" d="M123 389v553h133v-553q0 -143 74 -225t192 -82q57 0 111 23t90 56t63.5 66.5t40.5 56.5l13 23v635h133v-942h-133v133h-11q-5 -7 -13.5 -19t-39 -42t-64.5 -52.5t-88.5 -41.5t-111.5 -19q-172 0 -280.5 117t-108.5 313z" />
<glyph unicode="v" horiz-adv-x="1013" d="M266 0l-205 942h134l174 -819h276l174 819h133l-204 -942h-482z" />
<glyph unicode="w" horiz-adv-x="1433" d="M727 819h-20l-175 -819h-276l-195 942h134l174 -819h61l174 819h225l175 -819h61l174 819h133l-194 -942h-277z" />
<glyph unicode="x" horiz-adv-x="911" d="M737 0l-276 389h-10l-277 -389h-154l349 492l-318 450h154l246 -348h10l246 348h153l-317 -450l348 -492h-154z" />
<glyph unicode="y" horiz-adv-x="1013" d="M819 942h133l-204 -942q-53 -240 -133.5 -335t-215.5 -95q-41 0 -81.5 10t-61.5 20l-20 11l30 123q6 -5 16.5 -11.5t45.5 -18t71 -11.5q74 0 126.5 69t88.5 238h-348l-205 942h134l174 -819h276z" />
<glyph unicode="z" horiz-adv-x="911" d="M840 942v-133l-615 -676v-10h635v-123h-809v133l615 676v10h-594v123h768z" />
<glyph unicode="{" horiz-adv-x="632" d="M305 604v-10q5 -1 12.5 -3t27 -13.5t34.5 -28t27 -48t12 -71.5q0 -41 -51.5 -230.5t-51.5 -230.5q0 -55 38 -89t106 -34h112v-133h-112q-137 0 -207 66t-70 190q0 41 46 230.5t46 230.5q0 39 -33.5 70.5t-78.5 31.5h-60v134h60q45 0 78.5 31.5t33.5 70.5q0 41 -46 230.5 t-46 230.5q0 124 70 190t207 66h112v-133h-112q-68 0 -106 -34t-38 -89q0 -41 51.5 -230.5t51.5 -230.5q0 -40 -11.5 -71.5t-28 -48t-33.5 -27.5t-29 -14z" />
<glyph unicode="|" horiz-adv-x="512" d="M328 1536v-1741h-144v1741h144z" />
<glyph unicode="}" horiz-adv-x="632" d="M328 594v10q-5 1 -12.5 3t-27 13.5t-34.5 28t-27 48t-12 71.5q0 41 51 230.5t51 230.5q0 55 -37.5 89t-105.5 34h-113v133h113q137 0 207 -66t70 -190q0 -41 -46.5 -230.5t-46.5 -230.5q0 -39 34 -70.5t79 -31.5h59v-134h-59q-45 0 -79 -31.5t-34 -70.5 q0 -41 46.5 -230.5t46.5 -230.5q0 -124 -70 -190t-207 -66h-113v133h113q68 0 105.5 34t37.5 89q0 41 -51 230.5t-51 230.5q0 40 11.5 71.5t28.5 48t33.5 27.5t27.5 14z" />
<glyph unicode="~" horiz-adv-x="860" d="M266 655q-34 0 -64.5 -40.5t-37.5 -112.5l-103 51q0 90 63.5 157.5t141.5 67.5q45 0 84.5 -17t67.5 -41t54 -48t57 -41t65 -17t64.5 41t37.5 113l103 -51q0 -90 -63.5 -157.5t-141.5 -67.5q-45 0 -84.5 17t-67.5 41t-54 47.5t-57 40.5t-65 17z" />
<glyph unicode="&#xa1;" horiz-adv-x="491" d="M317 276v-682h-143v682l31 277h82zM338 891q0 -38 -27 -65t-65 -27t-65 27t-27 65t27 65t65 27t65 -27t27 -65z" />
<glyph unicode="&#xa2;" horiz-adv-x="1054" d="M614 -211h-133v176q-172 28 -290.5 171t-118.5 335t118.5 335t290.5 171v180h133v-178q140 -16 234.5 -94.5t124.5 -177.5l-133 -31q-26 77 -99.5 130.5t-187.5 53.5q-141 0 -244.5 -112t-103.5 -277t103.5 -277t244.5 -112q123 0 203.5 62.5t113.5 162.5l134 -31 q-31 -122 -132.5 -209.5t-257.5 -103.5v-174z" />
<glyph unicode="&#xa3;" horiz-adv-x="1024" d="M461 696v-379q0 -34 -8.5 -65t-20.5 -50t-24 -33t-20 -20l-9 -6v-10h625v-133h-963v133h92q77 0 130.5 53.5t53.5 130.5v379h-163v133h163v318q0 132 81.5 209.5t226.5 77.5q41 0 81.5 -10t61.5 -20l20 -11l-20 -133q-61 40 -143 40q-76 0 -120 -41.5t-44 -111.5v-318 h256v-133h-256z" />
<glyph unicode="&#xa4;" horiz-adv-x="1310" d="M236 1413h471q234 0 378 -134t144 -337t-144 -337t-378 -134h-328v-143h512v-133h-512v-195h-143v195h-154v133h154v143h-154v133h154v809zM707 1280h-328v-676h328q174 0 276 94.5t102 243.5t-102 243.5t-276 94.5z" />
<glyph unicode="&#xa5;" horiz-adv-x="1228" d="M1004 440h-318v-143h318v-123h-318v-174h-143v174h-318v123h318v143h-318v123h267l-472 850h160l430 -778h8l431 778h159l-471 -850h267v-123z" />
<glyph unicode="&#xa6;" horiz-adv-x="471" d="M307 1536v-748h-143v748h143zM307 543v-748h-143v748h143z" />
<glyph unicode="&#xa7;" horiz-adv-x="983" d="M256 707q0 -46 28.5 -83t69 -57t81 -33.5t69.5 -17.5l28 -4q9 2 23.5 6.5t51.5 21t65.5 37t52 55.5t23.5 75q0 46 -28.5 83t-69 56.5t-81.5 33t-69 17.5l-29 4q-9 -2 -23.5 -6.5t-51.5 -21t-65.5 -36.5t-51.5 -55t-23 -75zM881 707q0 -52 -21 -96.5t-51.5 -71t-60.5 -46 t-51 -27.5l-21 -7v-8q4 -1 11.5 -3.5t29 -11t40.5 -19.5t43 -30t41 -41t28.5 -53.5t11.5 -67.5q0 -122 -104.5 -204t-295.5 -82q-159 0 -268.5 85.5t-151.5 211.5l134 20q34 -86 106 -140.5t180 -54.5q124 0 195.5 49t71.5 115q0 45 -34.5 78.5t-89.5 55t-121.5 40.5 t-133.5 43.5t-122 56t-89.5 84.5t-34.5 124q0 38 11.5 71.5t29.5 58t39.5 45t43.5 33.5t40 22t29 13l12 4v9q-7 2 -19 6.5t-42 23.5t-52.5 43t-41.5 67t-19 95q0 114 99.5 195.5t268.5 81.5q92 0 172.5 -39t129.5 -92.5t77 -114.5l-133 -21q-82 144 -246 144 q-108 0 -171.5 -47.5t-63.5 -106.5q0 -48 33 -83t85 -57t115.5 -42t127 -44.5t115.5 -56t85 -84.5t33 -124z" />
<glyph unicode="&#xa8;" horiz-adv-x="634" d="M61 1331q0 31 25.5 56.5t56.5 25.5t56.5 -25.5t25.5 -56.5t-25.5 -56.5t-56.5 -25.5t-56.5 25.5t-25.5 56.5zM410 1331q0 31 25.5 56.5t56.5 25.5t56 -25.5t25 -56.5t-25 -56.5t-56 -25.5t-56.5 25.5t-25.5 56.5z" />
<glyph unicode="&#xa9;" horiz-adv-x="1843" d="M922 246q-139 0 -233.5 96.5t-94.5 241.5t94.5 241.5t233.5 96.5q109 0 186.5 -61.5t110.5 -153.5l-113 -11q-17 44 -65.5 78.5t-118.5 34.5q-86 0 -145.5 -63.5t-59.5 -161.5t59.5 -162t145.5 -64q85 0 136 35.5t68 87.5l113 -10q-33 -100 -113.5 -162.5t-203.5 -62.5z M215 584q0 -147 57.5 -281.5t153.5 -232t226 -155.5t270 -58t270 58t225.5 155.5t153 232t57.5 281.5t-57.5 281.5t-153 232t-225.5 155.5t-270 58t-270 -58t-226 -155.5t-153.5 -232t-57.5 -281.5zM1761 584q0 -231 -113 -427t-306 -309.5t-420 -113.5q-136 0 -264 42.5 t-231.5 121.5t-181.5 183t-120.5 234t-42.5 269t42.5 269t120.5 234t181.5 183t231.5 121.5t264 42.5q227 0 420 -113.5t306 -309.5t113 -427z" />
<glyph unicode="&#xaa;" horiz-adv-x="706" d="M297 840q34 0 69 11.5t60 28t45.5 33t30.5 27.5l10 12v92h-184q-154 0 -154 -102q0 -47 31.5 -74.5t91.5 -27.5zM348 1413q122 0 199.5 -75t77.5 -191v-389h-113v82h-10q-3 -4 -9.5 -11t-28 -25t-44.5 -31.5t-59.5 -24.5t-73.5 -11q-98 0 -162 59.5t-64 145.5 q0 90 68 147.5t188 57.5h195q0 77 -44 120.5t-120 43.5q-57 0 -91.5 -24t-61.5 -68l-93 30q26 69 89.5 116.5t156.5 47.5z" />
<glyph unicode="&#xab;" horiz-adv-x="860" d="M287 82l-226 389l226 389h143l-225 -389l225 -389h-143zM655 82l-225 389l225 389h144l-226 -389l226 -389h-144z" />
<glyph unicode="&#xac;" horiz-adv-x="819" d="M625 410v225h-584v135h717v-360h-133z" />
<glyph unicode="&#xad;" horiz-adv-x="808" d="M768 563h-727v133h727v-133z" />
<glyph unicode="&#xae;" horiz-adv-x="1843" d="M666 911h348q107 0 171 -62.5t64 -162.5q0 -43 -12.5 -79t-30.5 -56.5t-36.5 -34.5t-31.5 -19l-12 -5l154 -236h-143l-133 205h-216v-205h-122v655zM1014 799h-226v-226h226q53 0 88 33t35 80t-35 80t-88 33zM215 584q0 -147 57.5 -281.5t153.5 -232t226 -155.5t270 -58 t270 58t225.5 155.5t153 232t57.5 281.5t-57.5 281.5t-153 232t-225.5 155.5t-270 58t-270 -58t-226 -155.5t-153.5 -232t-57.5 -281.5zM1761 584q0 -231 -113 -427t-306 -309.5t-420 -113.5q-136 0 -264 42.5t-231.5 121.5t-181.5 183t-120.5 234t-42.5 269t42.5 269 t120.5 234t181.5 183t231.5 121.5t264 42.5q227 0 420 -113.5t306 -309.5t113 -427z" />
<glyph unicode="&#xaf;" horiz-adv-x="624" d="M61 1300v123h502v-123h-502z" />
<glyph unicode="&#xb0;" horiz-adv-x="655" d="M328 993q69 0 116.5 47.5t47.5 116.5t-47.5 116.5t-116.5 47.5t-116.5 -47.5t-47.5 -116.5t47.5 -116.5t116.5 -47.5zM328 901q-115 0 -191 74t-76 182t76 182t191 74t190.5 -74t75.5 -182t-75.5 -182t-190.5 -74z" />
<glyph unicode="&#xb1;" horiz-adv-x="880" d="M61 123v123h318v338h-318v133h318v338h123v-338h317v-133h-317v-338h317v-123h-758z" />
<glyph unicode="&#xb2;" horiz-adv-x="645" d="M461 1219q0 48 -38 80t-106 32q-65 0 -106 -31t-57 -81l-93 20q25 90 89 142.5t167 52.5q117 0 186.5 -62.5t69.5 -152.5q0 -65 -40 -115t-97.5 -80t-114.5 -56t-97 -57.5t-40 -70.5h400v-103h-512v82q0 68 40 120t97 83.5t114.5 59t97.5 61.5t40 76z" />
<glyph unicode="&#xb3;" horiz-adv-x="614" d="M297 829q60 0 101.5 38t41.5 85t-41.5 85t-101.5 38h-102v82l163 143v11h-276v102h450v-102l-163 -144q72 -8 128 -70.5t56 -144.5q0 -94 -71.5 -159.5t-184.5 -65.5q-103 0 -167 52.5t-89 142.5l102 20q16 -49 56 -81t98 -32z" />
<glyph unicode="&#xb4;" horiz-adv-x="501" d="M379 1423l61 -123l-338 -143l-41 82z" />
<glyph unicode="&#xb5;" horiz-adv-x="1095" d="M123 -410v1352h133v-553q0 -143 74 -225t192 -82q57 0 111 23t90 56t63.5 66.5t40.5 56.5l13 23v635h133v-942h-133v133h-11q-5 -7 -13.5 -19t-38.5 -42t-63 -52.5t-85 -41.5t-107 -19t-101.5 14.5t-73.5 36t-46.5 42.5t-26.5 36l-8 14h-10v-512h-133z" />
<glyph unicode="&#xb6;" horiz-adv-x="808" d="M82 1044q0 148 115.5 258.5t277.5 110.5h293v-133h-184v-1690h-133v1086q-146 0 -257.5 111t-111.5 257z" />
<glyph unicode="&#xb7;" horiz-adv-x="348" d="M82 717q0 38 27 65t65 27t65 -27t27 -65t-27 -65t-65 -27t-65 27t-27 65z" />
<glyph unicode="&#xb8;" horiz-adv-x="491" d="M348 20l-51 -133q5 -1 14 -4t32 -16t40.5 -30.5t32 -50.5t14.5 -73q0 -85 -56.5 -139.5t-148.5 -54.5q-46 0 -87 17.5t-59 35.5l-18 18l62 72q4 -5 12.5 -11.5t35 -18t54.5 -11.5q45 0 74 26.5t29 65.5t-29 65.5t-74 26.5h-71l92 215h102z" />
<glyph unicode="&#xb9;" horiz-adv-x="368" d="M174 737v492q-6 -6 -17.5 -14.5t-51.5 -22.5t-85 -14v82q62 0 108 46t46 107h113v-676h-113z" />
<glyph unicode="&#xba;" horiz-adv-x="737" d="M563 1075q0 104 -57.5 170t-136.5 66t-137 -66t-58 -170t58 -169.5t137 -65.5t136.5 65.5t57.5 169.5zM676 1075q0 -151 -87 -244.5t-220 -93.5t-220.5 93.5t-87.5 244.5t87.5 244.5t220.5 93.5t220 -93.5t87 -244.5z" />
<glyph unicode="&#xbb;" horiz-adv-x="860" d="M799 471l-226 -389h-143l225 389l-225 389h143zM430 471l-225 -389h-144l226 389l-226 389h144z" />
<glyph unicode="&#xbc;" horiz-adv-x="1361" d="M1116 1413l-870 -1413h-154l871 1413h153zM195 737v492q-6 -6 -17.5 -14.5t-51.5 -22.5t-85 -14v82q62 0 108 46t46 107h112v-676h-112zM1219 0h-113v154h-338v102l195 420h122l-194 -420h215v123h113v-123h81v-102h-81v-154z" />
<glyph unicode="&#xbd;" horiz-adv-x="1382" d="M1116 1413l-870 -1413h-154l871 1413h153zM195 737v492q-6 -6 -17.5 -14.5t-51.5 -22.5t-85 -14v82q62 0 108 46t46 107h112v-676h-112zM1178 481q0 48 -38 80.5t-106 32.5q-65 0 -106.5 -31.5t-57.5 -81.5l-92 21q25 89 89 141.5t167 52.5q117 0 186.5 -62.5 t69.5 -152.5q0 -65 -40 -115t-97 -80t-114.5 -56t-97.5 -57.5t-40 -70.5h399v-102h-512v82q0 50 21.5 91t56 69t76 51.5t83 43.5t76 40t56 46.5t21.5 57.5z" />
<glyph unicode="&#xbe;" horiz-adv-x="1495" d="M1229 1413l-871 -1413h-153l870 1413h154zM1331 0h-112v154h-338v102l194 420h123l-194 -420h215v123h112v-123h82v-102h-82v-154zM297 829q60 0 101.5 38t41.5 85t-41.5 85t-101.5 38h-102v82l163 143v11h-276v102h450v-102l-163 -144q72 -8 128 -70.5t56 -144.5 q0 -94 -71.5 -159.5t-184.5 -65.5q-103 0 -167 52.5t-89 142.5l102 20q16 -49 56 -81t98 -32z" />
<glyph unicode="&#xbf;" horiz-adv-x="1075" d="M543 -338q280 0 368 266l144 -20q-49 -172 -178 -275.5t-334 -103.5q-201 0 -331 115t-130 274q0 79 25 137.5t64.5 94t87.5 63.5t96 54.5t87.5 58t64.5 84t25 122.5h123q0 -77 -18.5 -137t-48.5 -97t-69 -68t-79 -51t-79 -45t-69 -51t-48.5 -68t-18.5 -97 q0 -97 92.5 -176.5t225.5 -79.5zM686 870q0 -38 -27 -65t-65 -27t-65 27t-27 65t27 65.5t65 27.5t65 -27.5t27 -65.5z" />
<glyph unicode="&#xc0;" horiz-adv-x="1372" d="M983 1413l348 -1413h-143l-92 358h-820l-92 -358h-143l348 1413h594zM502 1280l-195 -788h758l-195 788h-368zM492 1761l61 123l317 -184l-41 -82z" />
<glyph unicode="&#xc1;" horiz-adv-x="1372" d="M983 1413l348 -1413h-143l-92 358h-820l-92 -358h-143l348 1413h594zM502 1280l-195 -788h758l-195 788h-368zM819 1884l62 -123l-338 -143l-41 82z" />
<glyph unicode="&#xc2;" horiz-adv-x="1372" d="M983 1413l348 -1413h-143l-92 358h-820l-92 -358h-143l348 1413h594zM502 1280l-195 -788h758l-195 788h-368zM645 1894h92l246 -317h-123l-164 205h-10l-164 -205h-123z" />
<glyph unicode="&#xc3;" horiz-adv-x="1372" d="M983 1413l348 -1413h-143l-92 358h-820l-92 -358h-143l348 1413h594zM502 1280l-195 -788h758l-195 788h-368zM594 1741q-23 0 -42.5 -19.5t-19.5 -42.5v-51h-102v51q0 83 42 128.5t112 45.5q34 0 61 -12.5t44 -30.5t31 -36t31 -30.5t37 -12.5q23 0 42.5 19t19.5 42v51 h102v-51q0 -83 -41.5 -128.5t-111.5 -45.5q-34 0 -61 12.5t-44 31t-31.5 36.5t-31.5 30.5t-37 12.5z" />
<glyph unicode="&#xc4;" horiz-adv-x="1372" d="M983 1413l348 -1413h-143l-92 358h-820l-92 -358h-143l348 1413h594zM502 1280l-195 -788h758l-195 788h-368zM430 1731q0 31 25.5 56t56.5 25t56.5 -25t25.5 -56t-25.5 -56.5t-56.5 -25.5t-56.5 25.5t-25.5 56.5zM778 1731q0 31 25.5 56t56.5 25t56.5 -25t25.5 -56 t-25.5 -56.5t-56.5 -25.5t-56.5 25.5t-25.5 56.5z" />
<glyph unicode="&#xc5;" horiz-adv-x="1372" d="M983 1413l348 -1413h-143l-92 358h-820l-92 -358h-143l348 1413h594zM502 1280l-195 -788h758l-195 788h-368zM492 1761q0 85 59.5 145t144.5 60t145 -60t60 -145t-60 -145t-145 -60t-144.5 60t-59.5 145zM584 1761q0 -53 32.5 -88t79.5 -35t80 35t33 88t-33 88t-80 35 t-79.5 -35t-32.5 -88z" />
<glyph unicode="&#xc6;" horiz-adv-x="1966" d="M1096 133h829v-133h-973v358h-676l-92 -358h-143l348 1413h1536v-133h-829v-502h645v-133h-645v-512zM502 1280l-195 -788h645v788h-450z" />
<glyph unicode="&#xc7;" horiz-adv-x="1546" d="M1485 399q-64 -182 -222 -310t-391 -146l-32 -86q5 -1 14 -4t32 -16t40.5 -30.5t32 -50.5t14.5 -73q0 -85 -56.5 -140t-148.5 -55q-46 0 -87 18t-59 36l-18 18l62 71q4 -5 12.5 -11.5t35 -18t54.5 -11.5q45 0 73.5 27t28.5 66t-28.5 65.5t-73.5 26.5h-72l70 166 q-134 9 -259.5 73.5t-218.5 166t-149.5 239.5t-56.5 287q0 154 60.5 296.5t160.5 245.5t233 164.5t273 61.5q125 0 236.5 -38t190 -101t131.5 -138t77 -154l-144 -20q-24 61 -66 115t-102 100.5t-143.5 74t-179.5 27.5q-147 0 -281.5 -85t-218.5 -232.5t-84 -316.5 q0 -128 49.5 -247t130.5 -203t187.5 -134.5t216.5 -50.5q104 0 192 28t152 78t110 109.5t78 132.5z" />
<glyph unicode="&#xc8;" horiz-adv-x="1208" d="M297 133h870v-133h-1013v1413h1013v-133h-870v-502h686v-133h-686v-512zM471 1761l61 123l318 -184l-41 -82z" />
<glyph unicode="&#xc9;" horiz-adv-x="1208" d="M297 133h870v-133h-1013v1413h1013v-133h-870v-502h686v-133h-686v-512zM819 1884l62 -123l-338 -143l-41 82z" />
<glyph unicode="&#xca;" horiz-adv-x="1208" d="M297 133h870v-133h-1013v1413h1013v-133h-870v-502h686v-133h-686v-512zM614 1905h93l245 -318h-123l-163 205h-11l-163 -205h-123z" />
<glyph unicode="&#xcb;" horiz-adv-x="1208" d="M297 133h870v-133h-1013v1413h1013v-133h-870v-502h686v-133h-686v-512zM399 1731q0 31 25.5 56t56.5 25t56.5 -25t25.5 -56t-25.5 -56.5t-56.5 -25.5t-56.5 25.5t-25.5 56.5zM748 1731q0 31 25 56t56 25t56.5 -25t25.5 -56t-25.5 -56.5t-56.5 -25.5t-56 25.5t-25 56.5z " />
<glyph unicode="&#xcc;" horiz-adv-x="501" d="M328 1413v-1413h-144v1413h144zM0 1741l61 123l318 -185l-41 -82z" />
<glyph unicode="&#xcd;" horiz-adv-x="501" d="M317 1413v-1413h-143v1413h143zM440 1884l62 -123l-338 -143l-41 82z" />
<glyph unicode="&#xce;" horiz-adv-x="501" d="M317 1413v-1413h-143v1413h143zM205 1915h92l246 -318h-123l-164 205h-10l-164 -205h-123z" />
<glyph unicode="&#xcf;" horiz-adv-x="491" d="M317 1413v-1413h-143v1413h143zM-10 1720q0 31 25.5 56.5t56.5 25.5t56.5 -25.5t25.5 -56.5t-25.5 -56.5t-56.5 -25.5t-56.5 25.5t-25.5 56.5zM338 1720q0 31 25.5 56.5t56.5 25.5t56.5 -25.5t25.5 -56.5t-25.5 -56.5t-56.5 -25.5t-56.5 25.5t-25.5 56.5z" />
<glyph unicode="&#xd0;" horiz-adv-x="1464" d="M1382 707q0 -204 -92 -364.5t-262.5 -251.5t-392.5 -91h-430v645h-164v133h164v635h430q222 0 392.5 -91t262.5 -251t92 -364zM1239 707q0 256 -165 414.5t-439 158.5h-287v-502h348v-133h-348v-512h287q274 0 439 159t165 415z" />
<glyph unicode="&#xd1;" horiz-adv-x="1423" d="M307 1413l809 -1167h10v1167h144v-1413h-154l-809 1167h-10v-1167h-143v1413h153zM635 1751q-23 0 -42.5 -19t-19.5 -42v-52h-102v52q0 83 42 128.5t112 45.5q34 0 61 -12.5t44 -31t31 -36.5t31 -30.5t37 -12.5q23 0 42.5 19t19.5 42v51h102v-51q0 -83 -41.5 -128.5 t-111.5 -45.5q-34 0 -61 12.5t-44 31t-31.5 36.5t-31.5 30.5t-37 12.5z" />
<glyph unicode="&#xd2;" horiz-adv-x="1658" d="M82 707q0 204 103 381.5t275.5 282t368.5 104.5q147 0 284.5 -61.5t239.5 -164.5t163 -245.5t61 -296.5t-61 -296.5t-163 -245.5t-239.5 -164.5t-284.5 -61.5t-284.5 61.5t-239 164.5t-162.5 245.5t-61 296.5zM1434 707q0 127 -50.5 245t-133 203t-193.5 135.5t-228 50.5 t-228 -50.5t-193.5 -135.5t-132.5 -203t-50 -245t50 -245.5t132.5 -203t193.5 -135.5t228 -51t228 51t193.5 135.5t133 203t50.5 245.5zM625 1782l61 123l318 -185l-41 -82z" />
<glyph unicode="&#xd3;" horiz-adv-x="1658" d="M82 707q0 204 103 381.5t275.5 282t368.5 104.5q147 0 284.5 -61.5t239.5 -164.5t163 -245.5t61 -296.5t-61 -296.5t-163 -245.5t-239.5 -164.5t-284.5 -61.5t-284.5 61.5t-239 164.5t-162.5 245.5t-61 296.5zM1434 707q0 127 -50.5 245t-133 203t-193.5 135.5t-228 50.5 t-228 -50.5t-193.5 -135.5t-132.5 -203t-50 -245t50 -245.5t132.5 -203t193.5 -135.5t228 -51t228 51t193.5 135.5t133 203t50.5 245.5zM983 1915l61 -123l-337 -143l-41 82z" />
<glyph unicode="&#xd4;" horiz-adv-x="1658" d="M82 707q0 204 103 381.5t275.5 282t368.5 104.5q147 0 284.5 -61.5t239.5 -164.5t163 -245.5t61 -296.5t-61 -296.5t-163 -245.5t-239.5 -164.5t-284.5 -61.5t-284.5 61.5t-239 164.5t-162.5 245.5t-61 296.5zM1434 707q0 127 -50.5 245t-133 203t-193.5 135.5t-228 50.5 t-228 -50.5t-193.5 -135.5t-132.5 -203t-50 -245t50 -245.5t132.5 -203t193.5 -135.5t228 -51t228 51t193.5 135.5t133 203t50.5 245.5zM788 1935h93l245 -317h-122l-164 205h-11l-163 -205h-123z" />
<glyph unicode="&#xd5;" horiz-adv-x="1658" d="M82 707q0 204 103 381.5t275.5 282t368.5 104.5q147 0 284.5 -61.5t239.5 -164.5t163 -245.5t61 -296.5t-61 -296.5t-163 -245.5t-239.5 -164.5t-284.5 -61.5t-284.5 61.5t-239 164.5t-162.5 245.5t-61 296.5zM1434 707q0 127 -50.5 245t-133 203t-193.5 135.5t-228 50.5 t-228 -50.5t-193.5 -135.5t-132.5 -203t-50 -245t50 -245.5t132.5 -203t193.5 -135.5t228 -51t228 51t193.5 135.5t133 203t50.5 245.5zM727 1772q-23 0 -42 -19.5t-19 -42.5v-51h-103v51q0 83 42 128.5t112 45.5q34 0 61 -12.5t44 -31t31.5 -36.5t31.5 -30.5t37 -12.5 q23 0 42 19.5t19 42.5v51h102v-51q0 -83 -41.5 -128.5t-111.5 -45.5q-34 0 -61 12.5t-44 30.5t-31.5 36.5t-31.5 31t-37 12.5z" />
<glyph unicode="&#xd6;" horiz-adv-x="1658" d="M82 707q0 204 103 381.5t275.5 282t368.5 104.5q147 0 284.5 -61.5t239.5 -164.5t163 -245.5t61 -296.5t-61 -296.5t-163 -245.5t-239.5 -164.5t-284.5 -61.5t-284.5 61.5t-239 164.5t-162.5 245.5t-61 296.5zM1434 707q0 127 -50.5 245t-133 203t-193.5 135.5t-228 50.5 t-228 -50.5t-193.5 -135.5t-132.5 -203t-50 -245t50 -245.5t132.5 -203t193.5 -135.5t228 -51t228 51t193.5 135.5t133 203t50.5 245.5zM584 1782q0 31 25.5 56.5t56.5 25.5t56.5 -25.5t25.5 -56.5t-25.5 -56.5t-56.5 -25.5t-56.5 25.5t-25.5 56.5zM932 1782q0 31 25.5 56.5 t56.5 25.5t56.5 -25.5t25.5 -56.5t-25.5 -56.5t-56.5 -25.5t-56.5 25.5t-25.5 56.5z" />
<glyph unicode="&#xd7;" horiz-adv-x="737" d="M287 645l-226 225l82 82l226 -225l225 225l82 -82l-225 -225l225 -225l-82 -82l-225 225l-226 -225l-82 82z" />
<glyph unicode="&#xd8;" horiz-adv-x="1740" d="M123 707q0 204 103 381.5t275.5 282t368.5 104.5q74 0 143.5 -14t125 -38t106 -54.5t89 -64.5t70.5 -68t54.5 -64.5t38 -54.5t22.5 -38l7 -14l215 92v-133l-164 -72q41 -102 41 -245q0 -154 -61 -296.5t-163 -245.5t-239.5 -164.5t-284.5 -61.5q-94 0 -181 22.5 t-151 58.5t-119 80t-91.5 87.5t-63 79.5t-38.5 59l-11 22l-215 -92v133l164 72q-41 103 -41 246zM266 707q0 -45 8 -91.5t16 -69.5l7 -24l1106 482q-3 7 -10 19t-31 47t-52.5 67t-75 71t-97.5 67t-121.5 47t-145.5 19q-117 0 -228 -50.5t-193.5 -135.5t-132.5 -203t-50 -245 zM1475 707q0 45 -7.5 91t-15.5 70l-8 23l-1106 -481q3 -7 10 -19t31 -47.5t52 -67t74.5 -70.5t97.5 -67.5t121.5 -47.5t145.5 -19q117 0 228 51t193.5 135.5t133 203t50.5 245.5z" />
<glyph unicode="&#xd9;" horiz-adv-x="1413" d="M707 72q180 0 294.5 123t114.5 327v891h144v-891q0 -266 -152.5 -424.5t-400.5 -158.5t-400.5 158.5t-152.5 424.5v891h143v-891q0 -204 115 -327t295 -123zM512 1782l61 123l318 -185l-41 -82z" />
<glyph unicode="&#xda;" horiz-adv-x="1413" d="M707 72q180 0 294.5 123t114.5 327v891h144v-891q0 -266 -152.5 -424.5t-400.5 -158.5t-400.5 158.5t-152.5 424.5v891h143v-891q0 -204 115 -327t295 -123zM881 1905l61 -123l-338 -144l-41 82z" />
<glyph unicode="&#xdb;" horiz-adv-x="1413" d="M707 72q180 0 294.5 123t114.5 327v891h144v-891q0 -266 -152.5 -424.5t-400.5 -158.5t-400.5 158.5t-152.5 424.5v891h143v-891q0 -204 115 -327t295 -123zM676 1915h92l246 -318h-123l-164 205h-10l-164 -205h-123z" />
<glyph unicode="&#xdc;" horiz-adv-x="1413" d="M707 72q180 0 294.5 123t114.5 327v891h144v-891q0 -266 -152.5 -424.5t-400.5 -158.5t-400.5 158.5t-152.5 424.5v891h143v-891q0 -204 115 -327t295 -123zM440 1731q0 31 25.5 56t56.5 25t56.5 -25t25.5 -56t-25.5 -56.5t-56.5 -25.5t-56.5 25.5t-25.5 56.5zM788 1731 q0 31 25.5 56t56.5 25t56.5 -25t25.5 -56t-25.5 -56.5t-56.5 -25.5t-56.5 25.5t-25.5 56.5z" />
<glyph unicode="&#xdd;" horiz-adv-x="1310" d="M1290 1413l-563 -942v-471h-143v471l-564 942h160l471 -778h8l471 778h160zM829 1884l62 -123l-338 -143l-41 82z" />
<glyph unicode="&#xde;" horiz-adv-x="1269" d="M297 1321h235q196 0 346 -78.5t230 -215.5t80 -310t-80 -310t-230 -215.5t-346 -78.5h-235v-154h-143v1516h143v-154zM532 1188h-235v-942h235q227 0 369.5 134.5t142.5 336.5t-142.5 336.5t-369.5 134.5z" />
<glyph unicode="&#xdf;" horiz-adv-x="1095" d="M492 696v123q120 0 203 77t83 179q0 106 -72.5 181t-173.5 75q-107 0 -181.5 -74.5t-74.5 -181.5v-1075h-133v1075q0 155 114.5 267t274.5 112q154 0 266.5 -112.5t112.5 -266.5q0 -69 -20 -125t-48.5 -86.5t-57 -51.5t-48.5 -28l-20 -6v-10q6 -1 17.5 -2.5t43 -11 t60.5 -23.5t64.5 -42.5t61 -64t43 -91.5t17.5 -123q0 -170 -123.5 -290t-306.5 -120h-113v123h113q122 0 209.5 85.5t87.5 201.5t-87.5 201t-209.5 85h-102z" />
<glyph unicode="&#xe0;" d="M850 307v328q-4 9 -12.5 24t-37.5 54t-63 68.5t-89.5 54t-115.5 24.5q-135 0 -231 -108.5t-96 -280.5t96 -280.5t231 -108.5q60 0 115 23t90.5 56t62 66.5t38.5 56.5zM983 942v-942h-133v133h-10q-4 -7 -12.5 -19t-37.5 -42t-63 -52.5t-89.5 -41.5t-115.5 -19 q-88 0 -170 38.5t-144 105.5t-99 163t-37 205t37 205t99 163t144 105.5t170 38.5q60 0 115 -18t90.5 -43.5t62 -51t38.5 -43.5l12 -18h10v133h133zM358 1331l62 123l317 -184l-41 -82z" />
<glyph unicode="&#xe1;" d="M850 307v328q-4 9 -12.5 24t-37.5 54t-63 68.5t-89.5 54t-115.5 24.5q-135 0 -231 -108.5t-96 -280.5t96 -280.5t231 -108.5q60 0 115 23t90.5 56t62 66.5t38.5 56.5zM983 942v-942h-133v133h-10q-4 -7 -12.5 -19t-37.5 -42t-63 -52.5t-89.5 -41.5t-115.5 -19 q-88 0 -170 38.5t-144 105.5t-99 163t-37 205t37 205t99 163t144 105.5t170 38.5q60 0 115 -18t90.5 -43.5t62 -51t38.5 -43.5l12 -18h10v133h133zM707 1454l61 -123l-338 -143l-41 82z" />
<glyph unicode="&#xe2;" d="M850 307v328q-4 9 -12.5 24t-37.5 54t-63 68.5t-89.5 54t-115.5 24.5q-135 0 -231 -108.5t-96 -280.5t96 -280.5t231 -108.5q60 0 115 23t90.5 56t62 66.5t38.5 56.5zM983 942v-942h-133v133h-10q-4 -7 -12.5 -19t-37.5 -42t-63 -52.5t-89.5 -41.5t-115.5 -19 q-88 0 -170 38.5t-144 105.5t-99 163t-37 205t37 205t99 163t144 105.5t170 38.5q60 0 115 -18t90.5 -43.5t62 -51t38.5 -43.5l12 -18h10v133h133zM512 1475h92l246 -318h-123l-164 205h-10l-164 -205h-123z" />
<glyph unicode="&#xe3;" d="M850 307v328q-4 9 -12.5 24t-37.5 54t-63 68.5t-89.5 54t-115.5 24.5q-135 0 -231 -108.5t-96 -280.5t96 -280.5t231 -108.5q60 0 115 23t90.5 56t62 66.5t38.5 56.5zM983 942v-942h-133v133h-10q-4 -7 -12.5 -19t-37.5 -42t-63 -52.5t-89.5 -41.5t-115.5 -19 q-88 0 -170 38.5t-144 105.5t-99 163t-37 205t37 205t99 163t144 105.5t170 38.5q60 0 115 -18t90.5 -43.5t62 -51t38.5 -43.5l12 -18h10v133h133zM471 1311q-23 0 -42 -19.5t-19 -42.5v-51h-103v51q0 83 42 128.5t112 45.5q34 0 61 -12.5t44 -30.5t31.5 -36.5t31.5 -31 t37 -12.5q23 0 42 19.5t19 42.5v51h102v-51q0 -83 -41.5 -128.5t-111.5 -45.5q-34 0 -61 12.5t-44 31t-31.5 36.5t-31.5 30.5t-37 12.5z" />
<glyph unicode="&#xe4;" d="M850 307v328q-4 9 -12.5 24t-37.5 54t-63 68.5t-89.5 54t-115.5 24.5q-135 0 -231 -108.5t-96 -280.5t96 -280.5t231 -108.5q60 0 115 23t90.5 56t62 66.5t38.5 56.5zM983 942v-942h-133v133h-10q-4 -7 -12.5 -19t-37.5 -42t-63 -52.5t-89.5 -41.5t-115.5 -19 q-88 0 -170 38.5t-144 105.5t-99 163t-37 205t37 205t99 163t144 105.5t170 38.5q60 0 115 -18t90.5 -43.5t62 -51t38.5 -43.5l12 -18h10v133h133zM297 1290q0 31 25.5 56.5t56.5 25.5t56.5 -25.5t25.5 -56.5t-25.5 -56.5t-56.5 -25.5t-56.5 25.5t-25.5 56.5zM645 1290 q0 31 25.5 56.5t56.5 25.5t56.5 -25.5t25.5 -56.5t-25.5 -56.5t-56.5 -25.5t-56.5 25.5t-25.5 56.5z" />
<glyph unicode="&#xe5;" d="M850 307v328q-4 9 -12.5 24t-37.5 54t-63 68.5t-89.5 54t-115.5 24.5q-135 0 -231 -108.5t-96 -280.5t96 -280.5t231 -108.5q60 0 115 23t90.5 56t62 66.5t38.5 56.5zM983 942v-942h-133v133h-10q-4 -7 -12.5 -19t-37.5 -42t-63 -52.5t-89.5 -41.5t-115.5 -19 q-88 0 -170 38.5t-144 105.5t-99 163t-37 205t37 205t99 163t144 105.5t170 38.5q60 0 115 -18t90.5 -43.5t62 -51t38.5 -43.5l12 -18h10v133h133zM348 1352q0 85 60 144.5t145 59.5t145 -59.5t60 -144.5t-60 -145t-145 -60t-145 60t-60 145zM440 1352q0 -53 33 -88t80 -35 t80 35t33 88t-33 88t-80 35t-80 -35t-33 -88z" />
<glyph unicode="&#xe6;" horiz-adv-x="1751" d="M1239 983q122 0 227.5 -65t169.5 -183.5t64 -263.5l-62 -61h-727q15 -141 109 -234.5t229 -93.5q129 0 206 60t108 155l133 -27q-39 -131 -153 -221t-292 -90q-59 0 -113 13t-93 34t-73 46t-55.5 50t-37 46t-22.5 34l-7 13h-10q-4 -10 -13 -25.5t-43.5 -56.5t-77 -72 t-117 -56.5t-159.5 -25.5q-175 0 -266.5 81.5t-91.5 205.5q0 120 97.5 203t260.5 83h348v62q0 128 -72.5 197t-193.5 69q-49 0 -92 -14.5t-70 -36t-47 -42.5t-29 -35l-8 -15l-112 41q3 9 10.5 24t36.5 54t65.5 68.5t102.5 54t143 24.5q56 0 106 -11.5t84 -29.5t62.5 -40 t45.5 -43.5t29 -39.5t17 -29l4 -12h10q5 8 14 22t42.5 49.5t72 62.5t103.5 49t137 22zM1239 860q-123 0 -218 -95t-110 -233h656q-15 138 -110 233t-218 95zM430 82q148 0 248 92t100 236h-348q-119 0 -172 -42t-53 -122t53 -122t172 -42z" />
<glyph unicode="&#xe7;" horiz-adv-x="1054" d="M1004 276q-31 -123 -134.5 -212t-261.5 -103l-35 -94q5 -1 14.5 -4t32.5 -16t40.5 -30.5t32 -50.5t14.5 -73q0 -85 -56.5 -140t-148.5 -55q-46 0 -87 18t-59 36l-18 18l61 72q4 -5 12.5 -11.5t35.5 -18t55 -11.5q45 0 73.5 26.5t28.5 65.5t-28.5 65.5t-73.5 26.5h-72 l76 178q-180 19 -307 164t-127 344q0 140 66.5 258.5t177 186t237.5 67.5q85 0 159 -24t125 -64.5t85.5 -88t50.5 -99.5l-133 -31q-26 77 -99.5 130.5t-187.5 53.5q-141 0 -244.5 -112t-103.5 -277t103.5 -277t244.5 -112q123 0 203.5 62.5t113.5 162.5z" />
<glyph unicode="&#xe8;" horiz-adv-x="1075" d="M543 983q127 0 235 -65.5t172 -183.5t64 -263l-62 -61h-747q15 -140 113.5 -234t234.5 -94q129 0 211 61t113 154l133 -27q-39 -130 -157.5 -220.5t-297.5 -90.5q-133 0 -243.5 65.5t-175 183t-64.5 263.5q0 145 64 263t172 183.5t235 65.5zM543 860q-130 0 -226.5 -94.5 t-111.5 -233.5h676q-15 139 -111.5 233.5t-226.5 94.5zM358 1331l62 123l317 -184l-41 -82z" />
<glyph unicode="&#xe9;" horiz-adv-x="1075" d="M543 983q127 0 235 -65.5t172 -183.5t64 -263l-62 -61h-747q15 -140 113.5 -234t234.5 -94q129 0 211 61t113 154l133 -27q-39 -130 -157.5 -220.5t-297.5 -90.5q-133 0 -243.5 65.5t-175 183t-64.5 263.5q0 145 64 263t172 183.5t235 65.5zM543 860q-130 0 -226.5 -94.5 t-111.5 -233.5h676q-15 139 -111.5 233.5t-226.5 94.5zM686 1454l62 -123l-338 -143l-41 82z" />
<glyph unicode="&#xea;" horiz-adv-x="1075" d="M543 983q127 0 235 -65.5t172 -183.5t64 -263l-62 -61h-747q15 -140 113.5 -234t234.5 -94q129 0 211 61t113 154l133 -27q-39 -130 -157.5 -220.5t-297.5 -90.5q-133 0 -243.5 65.5t-175 183t-64.5 263.5q0 145 64 263t172 183.5t235 65.5zM543 860q-130 0 -226.5 -94.5 t-111.5 -233.5h676q-15 139 -111.5 233.5t-226.5 94.5zM502 1464h92l246 -317h-123l-164 205h-10l-164 -205h-123z" />
<glyph unicode="&#xeb;" horiz-adv-x="1075" d="M543 983q127 0 235 -65.5t172 -183.5t64 -263l-62 -61h-747q15 -140 113.5 -234t234.5 -94q129 0 211 61t113 154l133 -27q-39 -130 -157.5 -220.5t-297.5 -90.5q-133 0 -243.5 65.5t-175 183t-64.5 263.5q0 145 64 263t172 183.5t235 65.5zM543 860q-130 0 -226.5 -94.5 t-111.5 -233.5h676q-15 139 -111.5 233.5t-226.5 94.5zM276 1290q0 31 25.5 56.5t56.5 25.5t56.5 -25.5t25.5 -56.5t-25.5 -56.5t-56.5 -25.5t-56.5 25.5t-25.5 56.5zM625 1290q0 31 25.5 56.5t56.5 25.5t56 -25.5t25 -56.5t-25 -56.5t-56 -25.5t-56.5 25.5t-25.5 56.5z" />
<glyph unicode="&#xec;" horiz-adv-x="399" d="M-61 1311l61 123l317 -185l-41 -82zM266 942v-942h-133v942h133z" />
<glyph unicode="&#xed;" horiz-adv-x="419" d="M399 1434l62 -123l-338 -144l-41 82zM287 942v-942h-133v942h133z" />
<glyph unicode="&#xee;" horiz-adv-x="460" d="M297 942v-942h-133v942h133zM184 1434h92l246 -318h-123l-163 205h-11l-164 -205h-122z" />
<glyph unicode="&#xef;" horiz-adv-x="430" d="M-41 1270q0 31 25.5 56.5t56.5 25.5t56.5 -25.5t25.5 -56.5t-25.5 -56.5t-56.5 -25.5t-56.5 25.5t-25.5 56.5zM307 1270q0 31 25.5 56.5t56.5 25.5t56.5 -25.5t25.5 -56.5t-25.5 -56.5t-56.5 -25.5t-56.5 25.5t-25.5 56.5zM287 942v-942h-133v942h133z" />
<glyph unicode="&#xf0;" d="M594 1085l-72 82l144 113l-144 168l92 78l144 -174l143 116l72 -86l-144 -112q7 -8 18 -22.5t39 -65t50 -107.5t39.5 -149t17.5 -189v-307q0 -206 -130.5 -338.5t-330.5 -132.5t-330 132.5t-130 338.5t128.5 338.5t321.5 132.5q69 0 128 -18t94 -43.5t60.5 -51 t35.5 -43.5l10 -18h10q0 100 -12.5 185.5t-31 136t-36.5 86t-30 49.5l-13 14zM532 82q148 0 238 94t90 254t-90 254t-238 94t-237.5 -94t-89.5 -254t89.5 -254t237.5 -94z" />
<glyph unicode="&#xf1;" horiz-adv-x="1085" d="M973 553v-553h-133v553q0 143 -74.5 225t-192.5 82q-57 0 -111 -23t-89.5 -56t-63 -66.5t-40.5 -56.5l-13 -23v-635h-133v942h133v-133h10q5 7 13.5 19t39 42t65 52.5t89 41.5t111.5 19q172 0 280.5 -117t108.5 -313zM430 1321q-23 0 -42 -19t-19 -42v-52h-103v52 q0 83 42 128.5t112 45.5q34 0 61 -12.5t44 -31t31.5 -36.5t31.5 -30.5t37 -12.5q23 0 42 19t19 42v51h102v-51q0 -83 -41.5 -128.5t-111.5 -45.5q-34 0 -61 12.5t-44 31t-31.5 36.5t-31.5 30.5t-37 12.5z" />
<glyph unicode="&#xf2;" horiz-adv-x="1126" d="M1055 471q0 -221 -141.5 -366.5t-350.5 -145.5t-350 145.5t-141 366.5t141 366.5t350 145.5t350.5 -145.5t141.5 -366.5zM922 471q0 166 -105.5 277.5t-253.5 111.5t-253 -111.5t-105 -277.5t105.5 -277.5t252.5 -111.5q148 0 253.5 111.5t105.5 277.5zM358 1311l62 123 l317 -185l-41 -82z" />
<glyph unicode="&#xf3;" horiz-adv-x="1126" d="M1055 471q0 -221 -141.5 -366.5t-350.5 -145.5t-350 145.5t-141 366.5t141 366.5t350 145.5t350.5 -145.5t141.5 -366.5zM922 471q0 166 -105.5 277.5t-253.5 111.5t-253 -111.5t-105 -277.5t105.5 -277.5t252.5 -111.5q148 0 253.5 111.5t105.5 277.5zM707 1454l61 -123 l-338 -143l-41 82z" />
<glyph unicode="&#xf4;" horiz-adv-x="1126" d="M1055 471q0 -221 -141.5 -366.5t-350.5 -145.5t-350 145.5t-141 366.5t141 366.5t350 145.5t350.5 -145.5t141.5 -366.5zM922 471q0 166 -105.5 277.5t-253.5 111.5t-253 -111.5t-105 -277.5t105.5 -277.5t252.5 -111.5q148 0 253.5 111.5t105.5 277.5zM522 1485h92 l246 -318h-123l-164 205h-10l-164 -205h-123z" />
<glyph unicode="&#xf5;" horiz-adv-x="1126" d="M1055 471q0 -221 -141.5 -366.5t-350.5 -145.5t-350 145.5t-141 366.5t141 366.5t350 145.5t350.5 -145.5t141.5 -366.5zM922 471q0 166 -105.5 277.5t-253.5 111.5t-253 -111.5t-105 -277.5t105.5 -277.5t252.5 -111.5q148 0 253.5 111.5t105.5 277.5zM471 1290 q-23 0 -42 -19t-19 -42v-51h-103v51q0 83 42 128.5t112 45.5q34 0 61 -12.5t44 -30.5t31.5 -36.5t31.5 -31t37 -12.5q23 0 42 19t19 42v52h102v-52q0 -83 -41.5 -128.5t-111.5 -45.5q-34 0 -61 12.5t-44 30.5t-31.5 36.5t-31.5 31t-37 12.5z" />
<glyph unicode="&#xf6;" horiz-adv-x="1126" d="M1055 471q0 -221 -141.5 -366.5t-350.5 -145.5t-350 145.5t-141 366.5t141 366.5t350 145.5t350.5 -145.5t141.5 -366.5zM922 471q0 166 -105.5 277.5t-253.5 111.5t-253 -111.5t-105 -277.5t105.5 -277.5t252.5 -111.5q148 0 253.5 111.5t105.5 277.5zM297 1311 q0 31 25.5 56.5t56.5 25.5t56.5 -25.5t25.5 -56.5t-25.5 -56.5t-56.5 -25.5t-56.5 25.5t-25.5 56.5zM645 1311q0 31 25.5 56.5t56.5 25.5t56.5 -25.5t25.5 -56.5t-25.5 -56.5t-56.5 -25.5t-56.5 25.5t-25.5 56.5z" />
<glyph unicode="&#xf7;" horiz-adv-x="819" d="M41 563v123h737v-123h-737zM317 1014q0 38 27.5 65t65.5 27t65 -27t27 -65t-27 -65t-65 -27t-65.5 27t-27.5 65zM317 236q0 38 27.5 65t65.5 27t65 -27t27 -65t-27 -65.5t-65 -27.5t-65.5 27.5t-27.5 65.5z" />
<glyph unicode="&#xf8;" horiz-adv-x="1187" d="M1085 471q0 -221 -141 -366.5t-350 -145.5q-92 0 -171 27.5t-126.5 66.5t-81.5 78t-47 67l-14 27l-154 -61v123l123 51q-21 61 -21 133q0 221 141.5 366.5t350.5 145.5q92 0 171 -27.5t126.5 -66.5t81.5 -78t47 -67l14 -27l154 61v-123l-123 -51q20 -61 20 -133zM236 471 q0 -23 2.5 -43.5t5.5 -29.5l2 -9l665 277q-4 8 -11.5 21t-35.5 46.5t-61 59t-89.5 46.5t-119.5 21q-148 0 -253 -111.5t-105 -277.5zM952 471q0 23 -2.5 43.5t-5.5 29.5l-2 9l-666 -277q4 -8 11.5 -21t35.5 -46.5t61.5 -59t90 -46.5t119.5 -21q148 0 253 111.5t105 277.5z " />
<glyph unicode="&#xf9;" horiz-adv-x="1095" d="M123 389v553h133v-553q0 -143 74 -225t192 -82q57 0 111 23t90 56t63.5 66.5t40.5 56.5l13 23v635h133v-942h-133v133h-11q-5 -7 -13.5 -19t-39 -42t-64.5 -52.5t-88.5 -41.5t-111.5 -19q-172 0 -280.5 117t-108.5 313zM358 1298l62 123l317 -184l-41 -82z" />
<glyph unicode="&#xfa;" horiz-adv-x="1095" d="M123 389v553h133v-553q0 -143 74 -225t192 -82q57 0 111 23t90 56t63.5 66.5t40.5 56.5l13 23v635h133v-942h-133v133h-11q-5 -7 -13.5 -19t-39 -42t-64.5 -52.5t-88.5 -41.5t-111.5 -19q-172 0 -280.5 117t-108.5 313zM696 1413l62 -123l-338 -143l-41 82z" />
<glyph unicode="&#xfb;" horiz-adv-x="1095" d="M123 389v553h133v-553q0 -143 74 -225t192 -82q57 0 111 23t90 56t63.5 66.5t40.5 56.5l13 23v635h133v-942h-133v133h-11q-5 -7 -13.5 -19t-39 -42t-64.5 -52.5t-88.5 -41.5t-111.5 -19q-172 0 -280.5 117t-108.5 313zM502 1464h92l246 -317h-123l-164 205h-10 l-164 -205h-123z" />
<glyph unicode="&#xfc;" horiz-adv-x="1095" d="M123 389v553h133v-553q0 -143 74 -225t192 -82q57 0 111 23t90 56t63.5 66.5t40.5 56.5l13 23v635h133v-942h-133v133h-11q-5 -7 -13.5 -19t-39 -42t-64.5 -52.5t-88.5 -41.5t-111.5 -19q-172 0 -280.5 117t-108.5 313zM276 1260q0 31 25.5 56t56.5 25t56.5 -25t25.5 -56 t-25.5 -56.5t-56.5 -25.5t-56.5 25.5t-25.5 56.5zM625 1260q0 31 25.5 56t56.5 25t56 -25t25 -56t-25 -56.5t-56 -25.5t-56.5 25.5t-25.5 56.5z" />
<glyph unicode="&#xfd;" horiz-adv-x="1013" d="M819 942h133l-204 -942q-53 -240 -133.5 -335t-215.5 -95q-41 0 -81.5 10t-61.5 20l-20 11l30 123q6 -5 16.5 -11.5t45.5 -18t71 -11.5q74 0 126.5 69t88.5 238h-348l-205 942h134l174 -819h276zM655 1434l62 -123l-338 -144l-41 82z" />
<glyph unicode="&#xfe;" horiz-adv-x="1116" d="M266 635v-328q4 -9 12.5 -24t37.5 -54t63 -68.5t89.5 -54t115.5 -24.5q135 0 231 108.5t96 280.5t-96 280.5t-231 108.5q-60 0 -115 -23t-90.5 -56t-62 -66.5t-38.5 -56.5zM133 -410v1823h133v-604h10q4 7 12.5 19t37.5 42t63 52.5t89.5 41.5t115.5 19q88 0 170 -38.5 t144 -105.5t99 -163t37 -205t-37 -205t-99 -163t-144 -105.5t-170 -38.5q-60 0 -115 18t-90.5 43.5t-62 51t-38.5 43.5l-12 18h-10v-543h-133z" />
<glyph unicode="&#xff;" horiz-adv-x="1013" d="M819 942h133l-204 -942q-53 -240 -133.5 -335t-215.5 -95q-41 0 -81.5 10t-61.5 20l-20 11l30 123q6 -5 16.5 -11.5t45.5 -18t71 -11.5q74 0 126.5 69t88.5 238h-348l-205 942h134l174 -819h276zM246 1249q0 31 25.5 56.5t56.5 25.5t56.5 -25.5t25.5 -56.5t-25.5 -56.5 t-56.5 -25.5t-56.5 25.5t-25.5 56.5zM594 1249q0 31 25.5 56.5t56.5 25.5t56.5 -25.5t25.5 -56.5t-25.5 -56.5t-56.5 -25.5t-56.5 25.5t-25.5 56.5z" />
<glyph unicode="&#x152;" horiz-adv-x="2048" d="M1178 133h829v-133h-1188q-162 0 -300 53t-234 146.5t-149.5 224.5t-53.5 283t53.5 283t149.5 224t234 146t300 53h1188v-133h-829v-502h645v-133h-645v-512zM225 707q0 -255 163.5 -414.5t430.5 -159.5h215v1147h-215q-267 0 -430.5 -159t-163.5 -414z" />
<glyph unicode="&#x153;" horiz-adv-x="1853" d="M1343 -41q-59 0 -113 12.5t-92.5 32.5t-72 43.5t-54.5 47.5t-36.5 44t-22.5 33l-6 12h-8q-5 -9 -15.5 -24t-47 -54t-78.5 -68.5t-111 -54t-143 -24.5q-127 0 -235 65.5t-172 183.5t-64 263t64 263t172 183.5t235 65.5q74 0 142 -23t112 -56.5t77 -66.5t48 -56l14 -23h10 q5 9 14.5 24t44.5 54t75.5 68.5t108.5 54t142 24.5q122 0 227.5 -65t169.5 -183.5t64 -263.5l-61 -61h-727q15 -141 108.5 -234.5t228.5 -93.5q129 0 206 60t108 155l133 -27q-39 -131 -153 -221t-292 -90zM881 471q0 165 -102 277t-236 112t-236 -112t-102 -277t102 -277 t236 -112t236 112t102 277zM1331 860q-123 0 -217.5 -95t-109.5 -233h655q-15 138 -110 233t-218 95z" />
<glyph unicode="&#x178;" horiz-adv-x="1310" d="M1290 1413l-563 -942v-471h-143v471l-564 942h160l471 -778h8l471 778h160zM399 1720q0 31 25.5 56.5t56.5 25.5t56.5 -25.5t25.5 -56.5t-25.5 -56.5t-56.5 -25.5t-56.5 25.5t-25.5 56.5zM748 1720q0 31 25 56.5t56 25.5t56.5 -25.5t25.5 -56.5t-25.5 -56.5t-56.5 -25.5 t-56 25.5t-25 56.5z" />
<glyph unicode="&#x2c6;" horiz-adv-x="706" d="M307 1413h92l246 -317h-123l-164 204h-10l-164 -204h-123z" />
<glyph unicode="&#x2dc;" horiz-adv-x="645" d="M225 1300q-23 0 -42 -19t-19 -42v-51h-103v51q0 83 42 128.5t112 45.5q34 0 61 -12.5t44 -30.5t31.5 -36.5t31.5 -31t37 -12.5q23 0 42 19.5t19 42.5v51h103v-51q0 -83 -42 -128.5t-112 -45.5q-34 0 -61 12.5t-44 30.5t-31.5 36t-31.5 30.5t-37 12.5z" />
<glyph unicode="&#x2000;" horiz-adv-x="983" />
<glyph unicode="&#x2001;" horiz-adv-x="1966" />
<glyph unicode="&#x2002;" horiz-adv-x="983" />
<glyph unicode="&#x2003;" horiz-adv-x="1966" />
<glyph unicode="&#x2004;" horiz-adv-x="655" />
<glyph unicode="&#x2005;" horiz-adv-x="491" />
<glyph unicode="&#x2006;" horiz-adv-x="327" />
<glyph unicode="&#x2007;" horiz-adv-x="327" />
<glyph unicode="&#x2008;" horiz-adv-x="245" />
<glyph unicode="&#x2009;" horiz-adv-x="393" />
<glyph unicode="&#x200a;" horiz-adv-x="109" />
<glyph unicode="&#x2010;" horiz-adv-x="808" d="M768 563h-727v133h727v-133z" />
<glyph unicode="&#x2011;" horiz-adv-x="808" d="M768 563h-727v133h727v-133z" />
<glyph unicode="&#x2012;" horiz-adv-x="808" d="M768 563h-727v133h727v-133z" />
<glyph unicode="&#x2013;" horiz-adv-x="1228" d="M1167 492h-1106v122h1106v-122z" />
<glyph unicode="&#x2014;" horiz-adv-x="1536" d="M1475 492h-1414v122h1414v-122z" />
<glyph unicode="&#x2018;" horiz-adv-x="317" d="M246 1167q0 -38 -27 -65t-65 -27t-65.5 27t-27.5 65q0 18 7.5 38.5t15.5 32.5l8 11l103 174h61l-61 -174q2 -1 5.5 -3t12.5 -9t15.5 -15.5t12 -23t5.5 -31.5z" />
<glyph unicode="&#x2019;" horiz-adv-x="317" d="M72 1331q0 38 27 65t65 27t65 -27t27 -65q0 -18 -8 -38.5t-16 -32.5l-7 -11l-102 -174h-62l62 174q-2 1 -5.5 3t-12.5 9t-15.5 15.5t-12 23t-5.5 31.5z" />
<glyph unicode="&#x201a;" horiz-adv-x="317" d="M72 72q0 38 27 65t65 27t65 -27t27 -65q0 -18 -8 -38.5t-16 -31.5l-7 -12l-102 -174h-62l62 174q-2 1 -5.5 3t-12.5 9t-15.5 15.5t-12 23t-5.5 31.5z" />
<glyph unicode="&#x201c;" horiz-adv-x="604" d="M246 1167q0 -38 -27 -65t-65 -27t-65.5 27t-27.5 65q0 18 7.5 38.5t15.5 32.5l8 11l103 174h61l-61 -174q2 -1 5.5 -3t12.5 -9t15.5 -15.5t12 -23t5.5 -31.5zM532 1167q0 -38 -27 -65t-65 -27t-65 27t-27 65q0 18 8 38.5t16 32.5l7 11l102 174h62l-62 -174q2 -1 5.5 -3 t12.5 -9t15.5 -15.5t12 -23t5.5 -31.5z" />
<glyph unicode="&#x201d;" horiz-adv-x="604" d="M72 1331q0 38 27 65t65 27t65 -27t27 -65q0 -18 -8 -38.5t-16 -32.5l-7 -11l-102 -174h-62l62 174q-2 1 -5.5 3t-12.5 9t-15.5 15.5t-12 23t-5.5 31.5zM358 1331q0 38 27.5 65t65.5 27t65 -27t27 -65q0 -18 -7.5 -38.5t-15.5 -32.5l-8 -11l-102 -174h-62l62 174 q-6 3 -14.5 8t-23 26.5t-14.5 47.5z" />
<glyph unicode="&#x201e;" horiz-adv-x="604" d="M72 72q0 38 27 65t65 27t65 -27t27 -65q0 -18 -8 -38.5t-16 -31.5l-7 -12l-102 -174h-62l62 174q-2 1 -5.5 3t-12.5 9t-15.5 15.5t-12 23t-5.5 31.5zM358 72q0 38 27.5 65t65.5 27t65 -27t27 -65q0 -18 -7.5 -38.5t-15.5 -31.5l-8 -12l-102 -174h-62l62 174q-6 3 -14.5 8 t-23 26.5t-14.5 47.5z" />
<glyph unicode="&#x2022;" horiz-adv-x="552" d="M143 604q0 54 39.5 93.5t93.5 39.5t94 -39.5t40 -93.5t-40 -93.5t-94 -39.5t-93.5 39.5t-39.5 93.5z" />
<glyph unicode="&#x2026;" horiz-adv-x="1126" d="M61 72q0 38 27.5 65t65.5 27t65 -27t27 -65t-27 -65t-65 -27t-65.5 27t-27.5 65zM471 72q0 38 27 65t65 27t65 -27t27 -65t-27 -65t-65 -27t-65 27t-27 65zM881 72q0 38 27 65t65 27t65 -27t27 -65t-27 -65t-65 -27t-65 27t-27 65z" />
<glyph unicode="&#x202f;" horiz-adv-x="393" />
<glyph unicode="&#x2039;" horiz-adv-x="675" d="M532 0l-471 471l471 471l82 -82l-378 -389l378 -389z" />
<glyph unicode="&#x203a;" horiz-adv-x="675" d="M614 471l-471 -471l-82 82l379 389l-379 389l82 82z" />
<glyph unicode="&#x205f;" horiz-adv-x="491" />
<glyph unicode="&#x20ac;" horiz-adv-x="1658" d="M901 -61q-237 0 -432 158t-264 405h-164v123h143q-10 41 -10 82q0 18 2.5 38.5t5.5 31.5l2 11h-143v123h164q69 247 264 405.5t432 158.5q125 0 236.5 -38t190 -101t131.5 -138t77 -154l-143 -20q-24 60 -66 114.5t-102 101t-144 74t-180 27.5q-176 0 -328.5 -122 t-214.5 -308h553v-123h-583q-11 -40 -11 -81q0 -18 2.5 -38.5t5.5 -32.5l3 -11h583v-123h-553q62 -186 214.5 -308t328.5 -122q104 0 192 28t152.5 77.5t110.5 109.5t78 133l143 -21q-32 -92 -89.5 -172t-140 -146t-198 -104t-248.5 -38z" />
<glyph unicode="&#x2122;" horiz-adv-x="1454" d="M1249 1219l-235 -297l-236 297v-441h-123v635h133l226 -287l225 287h133v-635h-123v441zM573 1413v-123h-215v-512h-122v512h-216v123h553z" />
<glyph unicode="&#x25fc;" horiz-adv-x="942" d="M0 942h942v-942h-942v942z" />
</font>
</defs>
</svg>
