<?xml version="1.0" standalone="no"?>
<!DOCTYPE svg PUBLIC "-//W3C//DTD SVG 1.1//EN" "http://www.w3.org/Graphics/SVG/1.1/DTD/svg11.dtd" >
<svg xmlns="http://www.w3.org/2000/svg">
<metadata></metadata>
<defs>
<font id="tt_firsthin" horiz-adv-x="1116" >
<font-face units-per-em="2048" ascent="1638" descent="-410" />
<missing-glyph horiz-adv-x="317" />
<glyph horiz-adv-x="0" />
<glyph horiz-adv-x="0" />
<glyph horiz-adv-x="682" />
<glyph unicode="&#xd;" horiz-adv-x="0" />
<glyph unicode=" "  horiz-adv-x="317" />
<glyph unicode="&#x09;" horiz-adv-x="317" />
<glyph unicode="&#xa0;" horiz-adv-x="317" />
<glyph unicode="!" horiz-adv-x="501" d="M266 1393v-1024h-30v1024h30zM215 25q0 15 10 25.5t25 10.5t26 -10.5t11 -25.5t-11 -25t-26 -10t-25 10t-10 25z" />
<glyph unicode="&#x22;" horiz-adv-x="604" d="M195 1393v-471h-31v471h31zM440 1393v-471h-30v471h30z" />
<glyph unicode="#" horiz-adv-x="1280" d="M236 0h-31l121 420h-285v31h293l137 481h-297v31h307l123 430h31l-125 -430h422l123 430h30l-124 -430h278v-31h-287l-137 -481h291v-31h-301l-119 -420h-31l121 420h-422zM502 932l-137 -481h419l138 481h-420z" />
<glyph unicode="$" horiz-adv-x="1085" d="M532 -61v204q-164 0 -271.5 78t-158.5 199h31q25 -49 59 -90.5t83.5 -78t118 -57t149.5 -20.5q183 0 286 81t103 196q0 68 -43 114.5t-111.5 70.5t-151.5 41.5t-166 36t-151.5 45t-111.5 78t-43 126.5q0 121 100.5 203.5t277.5 82.5v226h31v-226q280 0 389 -256h-30 q-112 226 -369 226q-175 0 -272 -74.5t-97 -181.5q0 -68 43 -114.5t111.5 -70.5t151.5 -41.5t166.5 -36t152 -45t111.5 -78t43 -126.5q0 -129 -107.5 -218.5t-292.5 -89.5v-204h-31z" />
<glyph unicode="%" horiz-adv-x="1454" d="M1178 1393l-861 -1393h-38l860 1393h39zM655 1085q0 -142 -82.5 -234.5t-193.5 -92.5t-194 92.5t-83 234.5t83 235t194 93t193.5 -93t82.5 -235zM625 1085q0 126 -75 211.5t-171 85.5t-171 -85.5t-75 -211.5t75 -211.5t171 -85.5t171 85.5t75 211.5zM1352 307 q0 -142 -83 -234.5t-194 -92.5t-193.5 92.5t-82.5 234.5t82.5 235t193.5 93t194 -93t83 -235zM1321 307q0 126 -75 211.5t-171 85.5t-171 -85.5t-75 -211.5t75 -211.5t171 -85.5t171 85.5t75 211.5z" />
<glyph unicode="&#x26;" horiz-adv-x="1198" d="M543 860q-52 82 -159 246t-159 246v41h768v-31h-737q99 -154 407.5 -629.5t473.5 -732.5h-41l-103 164q-6 -9 -18 -24t-53 -54t-86.5 -68.5t-117 -54t-145.5 -24.5q-196 0 -323 118.5t-127 290.5q0 73 23 141t60 117.5t82 93t90 72t82 49t60 29.5zM573 -31 q69 0 135.5 23.5t112 56.5t81.5 66t54 57l17 23l-410 634q-9 -3 -23.5 -9t-57 -27.5t-81 -46.5t-86 -67t-81 -88t-57 -110t-23.5 -133q0 -157 119 -268t300 -111z" />
<glyph unicode="'" horiz-adv-x="358" d="M195 1393v-471h-31v471h31z" />
<glyph unicode="(" horiz-adv-x="716" d="M215 594q0 -117 24.5 -230.5t63 -201.5t85.5 -167.5t94 -135t85.5 -97t62.5 -61.5l25 -20l-20 -29q-9 7 -25.5 21t-63.5 62t-89.5 101t-94.5 138t-89.5 174t-63 207t-25.5 239t25 238.5t64.5 208.5t88 172.5t96.5 139t87.5 100t64.5 63.5l25 20l20 -29q-9 -7 -25 -20.5 t-61.5 -60t-87 -98.5t-92.5 -134t-87.5 -168.5t-61.5 -200.5t-25 -231z" />
<glyph unicode=")" horiz-adv-x="716" d="M502 594q0 92 -15 182t-40.5 164.5t-58.5 144.5t-70 125.5t-73.5 104t-69.5 83.5t-58.5 60t-40.5 37l-15 12l21 29q9 -7 25.5 -21t63 -62t89 -101t94.5 -138t89.5 -174t63 -207t25.5 -239t-25 -238.5t-64.5 -208.5t-87.5 -172.5t-96 -139t-87.5 -100t-64.5 -63.5l-25 -20 l-21 29q9 7 25 20.5t62 60t87.5 98.5t92.5 134t87.5 168.5t61.5 200.5t25 231z" />
<glyph unicode="*" horiz-adv-x="686" d="M342 1106l-147 -225l-31 10l153 235h-235v31h246v236h30v-236h246v-31h-235l153 -235l-30 -10z" />
<glyph unicode="+" horiz-adv-x="931" d="M451 655v389h30v-389h369v-30h-369v-389h-30v389h-369v30h369z" />
<glyph unicode="," horiz-adv-x="368" d="M154 35q0 15 9.5 26t24.5 11t26 -11t11 -26q0 -6 -2.5 -15t-4.5 -14l-3 -6l-72 -164h-20l61 164q-10 0 -20 9t-10 26z" />
<glyph unicode="-" horiz-adv-x="870" d="M788 625h-706v30h706v-30z" />
<glyph unicode="." horiz-adv-x="358" d="M178 0q-15 0 -25 10t-10 25t10 26t25 11t26 -11t11 -26t-11 -25t-26 -10z" />
<glyph unicode="/" horiz-adv-x="727" d="M61 0l574 1393h31l-574 -1393h-31z" />
<glyph unicode="0" horiz-adv-x="1484" d="M1311 696q0 156 -51 294.5t-132 231.5t-182.5 147t-202.5 54q-81 0 -163.5 -34t-154.5 -99t-128.5 -152t-89.5 -202t-33 -240t33 -240t89.5 -202t128.5 -152t154.5 -99t163.5 -34q101 0 202.5 54t182.5 147t132 231.5t51 294.5zM143 696q0 163 52.5 307.5t137.5 241.5 t192.5 153t217.5 56q109 0 216 -56t192 -153t137.5 -241.5t52.5 -307.5t-52.5 -307.5t-137.5 -241t-192 -152.5t-216 -56q-110 0 -217.5 56t-192.5 152.5t-137.5 241t-52.5 307.5z" />
<glyph unicode="1" horiz-adv-x="614" d="M369 0v1300q-3 -8 -9 -22t-29 -49t-50.5 -62t-75.5 -49t-103 -22v30q57 0 106 27.5t77 67t48.5 78.5t28.5 67l7 27h30v-1393h-30z" />
<glyph unicode="2" horiz-adv-x="1177" d="M1014 1059q0 153 -113 258.5t-287 105.5q-363 0 -471 -307h-30q106 338 501 338q189 0 309.5 -113.5t120.5 -281.5q0 -79 -31 -147t-83 -119.5t-119.5 -97.5t-142 -87.5t-149.5 -83.5t-142.5 -91.5t-119.5 -105.5t-83 -132t-31 -164h922v-31h-952v31q0 93 31 173t83 139 t119.5 110.5t142.5 94t149.5 83.5t142 85t119.5 92.5t83 112.5t31 138z" />
<glyph unicode="3" horiz-adv-x="1167" d="M584 -31q190 0 315 121t125 299t-125 299t-315 121h-174v31l563 522h-809v31h850v-31l-563 -522h133q205 0 338 -129t133 -322t-132.5 -321.5t-338.5 -128.5q-212 0 -343 103t-180 275h31q49 -157 172.5 -252.5t319.5 -95.5z" />
<glyph unicode="4" horiz-adv-x="1187" d="M932 0h-31v369h-819v30l502 994h37l-502 -994h782v441h31v-441h205v-30h-205v-369z" />
<glyph unicode="5" horiz-adv-x="1157" d="M584 809h-328l102 584h635v-31h-608l-92 -522h291q205 0 338 -129t133 -322t-132.5 -321.5t-338.5 -128.5q-205 0 -334 103t-178 275h30q49 -157 170.5 -252.5t311.5 -95.5t315 121t125 299t-125 299t-315 121z" />
<glyph unicode="6" horiz-adv-x="1208" d="M102 430q0 63 14 124t33.5 103.5t39 76t33.5 49.5l14 16l487 594h35l-471 -574h10q4 4 12.5 11t38 25t62.5 31.5t87 24.5t111 11q218 0 363 -142t145 -350t-145 -349.5t-363 -141.5q-217 0 -361.5 141.5t-144.5 349.5zM133 430q0 -193 137 -327t338 -134q203 0 340 134 t137 327t-137 327t-340 134q-201 0 -338 -134t-137 -327z" />
<glyph unicode="7" horiz-adv-x="966" d="M311 0h-30l614 1362h-854v31h885v-41z" />
<glyph unicode="8" horiz-adv-x="1259" d="M631 737q-219 0 -353.5 -114t-134.5 -273q0 -74 34 -142.5t95.5 -121.5t155 -85t203.5 -32q217 0 351 113t134 268q0 103 -57.5 190t-170 142t-257.5 55zM631 1423q-188 0 -307 -98.5t-119 -228.5t119 -229t307 -99q94 0 175 28t135 74.5t84 105t30 120.5 q0 130 -118.5 228.5t-305.5 98.5zM631 1454q102 0 189 -30t144 -80t89 -114.5t32 -133.5q0 -54 -17 -102t-44 -81.5t-60 -61t-65.5 -44.5t-59.5 -28.5t-44 -16.5l-17 -4v-10q6 0 39.5 -9t91 -37t109.5 -69t90.5 -116t38.5 -167q0 -82 -36 -156t-101 -131t-163.5 -90.5 t-215.5 -33.5q-234 0 -376 120.5t-142 290.5q0 67 20.5 125.5t53 98t71.5 71.5t78 50.5t71.5 31t52.5 17.5l21 4v10q-6 2 -17.5 5t-43 15.5t-60.5 28.5t-64.5 44.5t-61 61t-43 81t-17.5 102.5q0 145 126.5 251.5t330.5 106.5z" />
<glyph unicode="9" horiz-adv-x="1208" d="M1106 963q0 -63 -13.5 -124t-33 -103.5t-39.5 -76t-34 -49.5l-13 -16l-488 -594h-34l471 573h-11q-4 -4 -12.5 -11t-38 -24.5t-62.5 -31t-87 -24.5t-111 -11q-218 0 -363 142t-145 350t145 349.5t363 141.5q217 0 361.5 -141.5t144.5 -349.5zM1075 963q0 126 -62 231.5 t-171 167t-242 61.5q-203 0 -340 -133.5t-137 -326.5t137 -327t340 -134q201 0 338 134t137 327z" />
<glyph unicode=":" horiz-adv-x="358" d="M178 0q-15 0 -25 10t-10 25t10 26t25 11t26 -11t11 -26t-11 -25t-26 -10zM178 850q-15 0 -25 10t-10 25t10 26t25 11t26 -11t11 -26t-11 -25t-26 -10z" />
<glyph unicode=";" horiz-adv-x="368" d="M188 850q-15 0 -24.5 10t-9.5 25t9.5 26t24.5 11t26 -11t11 -26t-11 -25t-26 -10zM154 35q0 15 9.5 26t24.5 11t26 -11t11 -26q0 -6 -2.5 -15t-4.5 -14l-3 -6l-72 -164h-20l61 164q-10 0 -20 9t-10 26z" />
<glyph unicode="&#x3c;" horiz-adv-x="931" d="M82 492l768 378v-30l-737 -365v-8l737 -365v-30l-768 379v41z" />
<glyph unicode="=" horiz-adv-x="911" d="M809 768h-707v31h707v-31zM809 401h-707v29h707v-29z" />
<glyph unicode="&#x3e;" horiz-adv-x="931" d="M82 870l768 -378v-41l-768 -379v30l737 365v8l-737 365v30z" />
<glyph unicode="?" horiz-adv-x="1034" d="M502 1423q-173 0 -287 -86t-164 -221h-31q50 150 172 244t310 94q187 0 308.5 -109t121.5 -260q0 -83 -25.5 -142.5t-66 -93.5t-89.5 -62t-98.5 -58.5t-90 -70.5t-66 -111t-25.5 -168h-31q0 102 25.5 176t66 116t89.5 73.5t98.5 58.5t90 59t66 88t25.5 135 q0 135 -113.5 236.5t-285.5 101.5zM461 0q-15 0 -26 10t-11 25t11 26t26 11t25 -11t10 -26t-10 -25t-25 -10z" />
<glyph unicode="@" horiz-adv-x="1710" d="M1106 338v123h-10q-3 -5 -9 -14t-27 -32t-45 -40.5t-63 -32t-82 -14.5q-124 0 -220.5 98.5t-96.5 228.5t96.5 229t220.5 99q43 0 82 -13.5t64.5 -33.5t44 -39.5t27.5 -32.5l8 -14h10v113h31v-594q196 0 318 116.5t122 292.5q0 118 -52 228t-143.5 193t-226 133t-289.5 50 q-147 0 -279 -56t-227 -152t-150.5 -231t-55.5 -288t55.5 -288.5t150.5 -231.5t226.5 -151.5t279.5 -55.5q102 0 204.5 26t153.5 52l52 25v-31q-7 -4 -21 -11t-57.5 -24.5t-88.5 -31t-112 -24.5t-131 -11q-205 0 -375.5 99t-269 273t-98.5 385t98.5 385.5t269 273.5 t375.5 99q161 0 301 -52.5t235.5 -140.5t150.5 -203t55 -239q0 -194 -134.5 -317t-367.5 -123zM584 655q0 -115 89 -206t197 -91q46 0 87 17.5t67 42t45.5 49t28.5 41.5l8 18v262q-3 7 -9 18t-27 39t-46 50t-66.5 39.5t-87.5 17.5q-108 0 -197 -91t-89 -206z" />
<glyph unicode="A" horiz-adv-x="1402" d="M1270 0l-101 410h-938l-98 -410h-31l338 1393h523l337 -1393h-30zM465 1362l-225 -922h921l-223 922h-473z" />
<glyph unicode="B" horiz-adv-x="1413" d="M215 1393h563q166 0 267.5 -93.5t101.5 -234.5q0 -63 -21 -117t-51.5 -85.5t-60.5 -54t-51 -31.5l-21 -9v-4q8 -1 21 -3t51.5 -12.5t73.5 -26t77.5 -46t73 -69t51.5 -98t21 -130.5q0 -157 -121 -268t-309 -111h-666v1393zM246 31h635q173 0 286 103t113 245 q0 149 -112.5 253.5t-286.5 104.5h-635v-706zM778 1362h-532v-594h532q151 0 244.5 85.5t93.5 211.5t-93.5 211.5t-244.5 85.5z" />
<glyph unicode="C" horiz-adv-x="1556" d="M815 -61q-131 0 -259 61.5t-225.5 163t-157.5 242t-60 290.5q0 100 27.5 198t75.5 181t115 153.5t144.5 120t165 77.5t174.5 28q120 0 224 -34.5t177.5 -92.5t123 -127t73.5 -145h-31q-24 68 -71.5 131.5t-117 117.5t-168 86.5t-210.5 32.5q-123 0 -245.5 -59.5 t-216 -157.5t-152 -233t-58.5 -277t58.5 -277t152 -233t216 -157.5t245.5 -59.5q120 0 222.5 33t176 91.5t125.5 130t84 155.5h31q-32 -92 -86 -169t-131.5 -139t-185.5 -97t-236 -35z" />
<glyph unicode="D" horiz-adv-x="1423" d="M1280 696q0 193 -85.5 344.5t-242 236.5t-358.5 85h-348v-1331h348q202 0 358.5 85t242 236t85.5 344zM1311 696q0 -203 -89 -361.5t-252.5 -246.5t-375.5 -88h-379v1393h379q212 0 375.5 -88.5t252.5 -247t89 -361.5z" />
<glyph unicode="E" horiz-adv-x="1228" d="M246 31h901v-31h-932v1393h932v-31h-901v-635h717v-31h-717v-665z" />
<glyph unicode="F" horiz-adv-x="1167" d="M246 655v-655h-31v1393h891v-31h-860v-676h696v-31h-696z" />
<glyph unicode="G" horiz-adv-x="1587" d="M815 -31q174 0 318 83.5t227.5 232t83.5 329.5h-512v31h543q0 -155 -51 -287t-139 -224t-209.5 -143.5t-260.5 -51.5q-131 0 -259 61.5t-225.5 163t-157.5 242t-60 290.5q0 100 27.5 198t75.5 181t115 153.5t144.5 120t165 77.5t174.5 28q120 0 224 -34.5t177.5 -92.5 t123 -127t73.5 -145h-31q-24 68 -71.5 131.5t-117 117.5t-168 86.5t-210.5 32.5q-123 0 -245.5 -59.5t-216 -157.5t-152 -233t-58.5 -277t58.5 -277t152 -233t216 -157.5t245.5 -59.5z" />
<glyph unicode="H" horiz-adv-x="1423" d="M215 0v1393h31v-666h932v666h30v-1393h-30v696h-932v-696h-31z" />
<glyph unicode="I" horiz-adv-x="460" d="M246 1393v-1393h-31v1393h31z" />
<glyph unicode="J" horiz-adv-x="1064" d="M850 1393v-963q0 -233 -117 -362t-313 -129q-146 0 -242 76t-137 200h31q42 -109 130 -177.5t218 -68.5q181 0 290 121.5t109 339.5v963h31z" />
<glyph unicode="K" horiz-adv-x="1228" d="M594 829l-348 -358v-471h-31v1393h31v-881l860 881h41l-533 -543l553 -850h-41z" />
<glyph unicode="L" horiz-adv-x="1146" d="M246 1393v-1362h860v-31h-891v1393h31z" />
<glyph unicode="M" horiz-adv-x="1761" d="M881 584l-635 768v-1352h-31v1393h41l625 -768l624 768h41v-1393h-30v1352z" />
<glyph unicode="N" horiz-adv-x="1464" d="M256 1393l963 -1352v1352h30v-1393h-41l-962 1352v-1352h-31v1393h41z" />
<glyph unicode="O" horiz-adv-x="1669" d="M113 696q0 150 60.5 291t159.5 242.5t231 163t270 61.5t270.5 -61.5t231.5 -163.5t159.5 -242.5t60.5 -290.5t-60.5 -290.5t-159.5 -242.5t-231.5 -163t-270.5 -61t-270 61t-231 163t-159.5 242.5t-60.5 290.5zM143 696q0 -142 59 -277t154.5 -233t221.5 -157.5 t256 -59.5t257 59.5t222.5 157.5t154 233t58.5 277t-58.5 277t-154 233t-222.5 157.5t-257 59.5t-256 -59.5t-221.5 -157.5t-154.5 -233t-59 -277z" />
<glyph unicode="P" horiz-adv-x="1372" d="M1239 922q0 187 -134.5 313.5t-346.5 126.5h-512v-881h512q212 0 346.5 126.5t134.5 314.5zM1270 922q0 -202 -142.5 -336.5t-369.5 -134.5h-512v-451h-31v1393h543q227 0 369.5 -134.5t142.5 -336.5z" />
<glyph unicode="Q" horiz-adv-x="1669" d="M113 696q0 150 60.5 291t159.5 242.5t231 163t270 61.5t270.5 -61.5t231.5 -163.5t159.5 -242.5t60.5 -290.5q0 -69 -13 -136t-33.5 -119.5t-46 -99.5t-50.5 -80.5t-45.5 -58t-33.5 -36.5l-13 -12l225 -226l-20 -20l-226 225q-7 -8 -21 -21t-61 -46.5t-98 -59t-129 -46.5 t-157 -21q-138 0 -270 61t-231 163t-159.5 242.5t-60.5 290.5zM143 696q0 -142 59 -277t154.5 -233t221.5 -157.5t256 -59.5q73 0 146 19t125 46.5t93 54.5t62 46l20 19l-164 163l21 21l163 -164q9 8 24.5 24t54.5 68.5t68.5 109t54 144t24.5 176.5q0 142 -58.5 277 t-154 233t-222.5 157.5t-257 59.5t-256 -59.5t-221.5 -157.5t-154.5 -233t-59 -277z" />
<glyph unicode="R" horiz-adv-x="1392" d="M901 532h-655v-532h-31v1393h584q212 0 341.5 -121.5t129.5 -308.5q0 -71 -18.5 -132.5t-48.5 -103t-66 -75.5t-72 -53.5t-66 -33t-49 -17.5l-18 -5l307 -543h-41zM246 563h553q196 0 318 114t122 286t-122 285.5t-318 113.5h-553v-799z" />
<glyph unicode="S" horiz-adv-x="1259" d="M1106 338q0 75 -31.5 132.5t-85 94t-122.5 64.5t-145.5 49.5l-153 43t-145.5 51.5t-122.5 69t-85 101t-31.5 142q0 73 32 140t89.5 118t143 81t186.5 30q396 0 502 -338h-31q-108 307 -471 307q-185 0 -302.5 -101t-117.5 -237q0 -75 31.5 -132.5t85 -94t122.5 -64.5 t145.5 -49.5l153 -43t145.5 -51.5t122.5 -69t85 -101t31.5 -142q0 -103 -60 -193.5t-174.5 -148t-257.5 -57.5q-226 0 -360 102.5t-183 275.5h31q24 -76 65 -137t102 -109.5t149 -75t196 -26.5q100 0 188 32t146.5 83.5t92.5 118t34 135.5z" />
<glyph unicode="T" horiz-adv-x="1177" d="M573 1362h-532v31h1096v-31h-533v-1362h-31v1362z" />
<glyph unicode="U" horiz-adv-x="1464" d="M731 -31q215 0 351.5 144t136.5 379v901h30v-901q0 -251 -144 -402t-374 -151q-228 0 -372 151t-144 402v901h31v-901q0 -235 136 -379t349 -144z" />
<glyph unicode="V" horiz-adv-x="1402" d="M938 31l332 1362h30l-337 -1393h-523l-338 1393h31l332 -1362h473z" />
<glyph unicode="W" horiz-adv-x="1873" d="M559 31l322 1362h112l322 -1362h104l322 1362h31l-328 -1393h-154l-321 1362h-64l-321 -1362h-154l-328 1393h31l322 -1362h104z" />
<glyph unicode="X" horiz-adv-x="1280" d="M1106 1393h41l-492 -656l543 -737h-41l-512 696h-10l-512 -696h-41l543 737l-492 656h41l461 -615h10z" />
<glyph unicode="Y" horiz-adv-x="1300" d="M1239 1393l-573 -922v-471h-31v471l-574 922h41l543 -881h10l543 881h41z" />
<glyph unicode="Z" horiz-adv-x="1198" d="M82 0v41l1003 1321h-962v31h993v-41l-1003 -1321h1003v-31h-1034z" />
<glyph unicode="[" horiz-adv-x="655" d="M594 1444h-348v-1700h348v-31h-379v1762h379v-31z" />
<glyph unicode="\" horiz-adv-x="727" d="M92 1393l574 -1393h-31l-574 1393h31z" />
<glyph unicode="]" horiz-adv-x="655" d="M410 1444h-349v31h379v-1762h-379v31h349v1700z" />
<glyph unicode="^" horiz-adv-x="808" d="M420 1393l307 -615h-31l-286 574h-11l-286 -574h-31l307 615h31z" />
<glyph unicode="_" horiz-adv-x="706" d="M707 -328h-707v31h707v-31z" />
<glyph unicode="`" horiz-adv-x="440" d="M82 1393l297 -164l-10 -21l-308 154z" />
<glyph unicode="a" d="M922 0v195h-11q-5 -10 -14.5 -25.5t-43.5 -56.5t-72 -72t-100 -56.5t-128 -25.5q-84 0 -163.5 38.5t-141 104.5t-98.5 160t-37 199t37 199t98.5 160t141 104.5t163.5 38.5q66 0 127 -24.5t101.5 -59t71 -69t44.5 -58.5l14 -25h11v195h30v-922h-30zM922 266v389 q-5 11 -15 30t-44.5 66.5t-73.5 84t-103 66.5t-133 30q-102 0 -196.5 -61.5t-154 -171t-59.5 -238.5t59.5 -238.5t154 -171t196.5 -61.5q69 0 132.5 28.5t104.5 69t72.5 81t45.5 69.5z" />
<glyph unicode="b" horiz-adv-x="1126" d="M205 195v-195h-31v1393h31v-666h10q5 10 14.5 25.5t43.5 56.5t72 72t100 56.5t128 25.5q84 0 164 -38.5t141 -104.5t98.5 -160t37.5 -199t-37.5 -199t-98.5 -160t-141 -104.5t-164 -38.5q-66 0 -127 24.5t-101.5 59t-71 69t-44.5 58.5l-14 25h-10zM205 655v-389 q5 -11 14.5 -29.5t44 -66.5t73.5 -84t103 -66t133 -30q102 0 196.5 61.5t154 171t59.5 238.5t-59.5 238.5t-154 171t-196.5 61.5q-69 0 -132 -28.5t-104 -69t-72.5 -81.5t-45.5 -69z" />
<glyph unicode="c" horiz-adv-x="1075" d="M553 -41q-84 0 -163.5 38.5t-141 104.5t-98.5 160t-37 199t37 199t98.5 160t141 104.5t163.5 38.5q158 0 256.5 -73t132.5 -183h-31q-35 95 -125 160t-233 65q-102 0 -196.5 -61.5t-154 -171t-59.5 -238.5t59.5 -238.5t154 -171t196.5 -61.5q150 0 256.5 81.5 t132.5 184.5h31q-25 -117 -139.5 -207t-280.5 -90z" />
<glyph unicode="d" horiz-adv-x="1126" d="M922 0v195h-11q-5 -10 -14.5 -25.5t-43.5 -56.5t-72 -72t-100 -56.5t-128 -25.5q-84 0 -163.5 38.5t-141 104.5t-98.5 160t-37 199t37 199t98.5 160t141 104.5t163.5 38.5q66 0 127 -24.5t101.5 -59t71 -69t44.5 -58.5l14 -25h11v666h30v-1393h-30zM922 266v389 q-5 11 -15 30t-44.5 66.5t-73.5 84t-103 66.5t-133 30q-102 0 -196.5 -61.5t-154 -171t-59.5 -238.5t59.5 -238.5t154 -171t196.5 -61.5q69 0 132.5 28.5t104.5 69t72.5 81t45.5 69.5z" />
<glyph unicode="e" horiz-adv-x="1085" d="M543 963q83 0 163.5 -38.5t141 -103.5t98 -157t37.5 -193l-31 -31h-809q0 -120 60 -224.5t156 -165t200 -60.5q147 0 252 82t131 184h31q-12 -55 -46 -107t-86 -95t-125.5 -69t-156.5 -26q-86 0 -167 38.5t-142.5 104.5t-99 160t-37.5 199q0 104 37 199t97 160.5t138 104 t158 38.5zM543 932q-97 0 -189 -61t-151.5 -168.5t-59.5 -231.5h809q0 124 -59.5 231.5t-153.5 168.5t-196 61z" />
<glyph unicode="f" horiz-adv-x="542" d="M41 881v30h164v256q0 114 62 180t163 66q41 0 79.5 -10.5t56.5 -20.5l18 -10v-31q-62 41 -154 41q-86 0 -140 -58.5t-54 -156.5v-256h286v-30h-286v-881h-31v881h-164z" />
<glyph unicode="g" d="M922 10v226h-11q-5 -10 -14.5 -25.5t-43.5 -56.5t-72 -72t-100 -56.5t-128 -25.5q-112 0 -213 64t-164 176t-63 241q0 97 37.5 187t98 154t141 102.5t163.5 38.5q66 0 127 -24.5t101.5 -59t71 -69t44.5 -58.5l14 -25h11v195h30v-912q0 -124 -54.5 -226t-143.5 -158 t-191 -56q-150 0 -247.5 74t-131.5 182h31q34 -95 123 -160t225 -65q92 0 174 51.5t133.5 146.5t51.5 211zM922 307v348q-5 11 -15 30t-44.5 66.5t-73.5 84t-103 66.5t-133 30q-76 0 -150.5 -36t-131.5 -95.5t-92.5 -144t-35.5 -175.5q0 -92 35.5 -176.5t92.5 -143.5 t131.5 -94.5t150.5 -35.5q69 0 132.5 28.5t104.5 69t72.5 81t45.5 68.5z" />
<glyph unicode="h" d="M963 553v-553h-31v553q0 167 -102 273t-257 106q-69 0 -132 -28.5t-104 -69t-72.5 -81.5t-45.5 -69l-14 -29v-655h-31v1393h31v-666h10q5 10 14.5 25.5t43.5 56.5t72 72t100 56.5t128 25.5q170 0 280 -113.5t110 -296.5z" />
<glyph unicode="i" horiz-adv-x="399" d="M184 0v922h31v-922h-31zM201 1341q15 0 25 -10.5t10 -25.5t-10 -25t-25 -10t-26 10t-11 25t11 25.5t26 10.5z" />
<glyph unicode="j" horiz-adv-x="399" d="M215 922v-1106q0 -114 -62 -180t-163 -66q-41 0 -79.5 10t-56.5 20l-18 11v31q62 -41 154 -41q86 0 140 58.5t54 156.5v1106h31zM201 1341q15 0 25 -10.5t10 -25.5t-10 -25t-25 -10t-26 10t-11 25t11 25.5t26 10.5z" />
<glyph unicode="k" horiz-adv-x="952" d="M205 276v-276h-31v1393h31v-1076l604 605h41l-348 -349l409 -573h-41l-389 553z" />
<glyph unicode="l" horiz-adv-x="409" d="M205 0v1362h-185v31h216v-1393h-31z" />
<glyph unicode="m" horiz-adv-x="1617" d="M799 0v573q0 165 -83.5 262t-213.5 97q-46 0 -87.5 -16t-71.5 -41t-56 -56t-42.5 -61.5t-28 -55.5t-16.5 -41l-5 -16v-645h-31v922h31v-195h10q2 5 5.5 13.5t16 33t27.5 47t40.5 49.5t54.5 46.5t69 33t84 13.5q54 0 100.5 -14t77 -36.5t55 -50t38 -55t22 -50t11.5 -36.5 l3 -14h10q2 10 7 27.5t28.5 61.5t55.5 78t92.5 61.5t134.5 27.5q148 0 237.5 -104t89.5 -286v-573h-30v573q0 166 -82 262.5t-215 96.5q-134 0 -221 -97t-87 -262v-573h-30z" />
<glyph unicode="n" horiz-adv-x="1105" d="M952 553v-553h-30v553q0 167 -102 273t-257 106q-69 0 -132 -28.5t-104 -69t-72.5 -81.5t-45.5 -69l-14 -29v-655h-31v922h31v-195h10q5 10 14.5 25.5t43.5 56.5t72 72t100 56.5t128 25.5q170 0 279.5 -113.5t109.5 -296.5z" />
<glyph unicode="o" horiz-adv-x="1157" d="M1044 461q0 -212 -137 -357t-327 -145q-125 0 -232 65t-171 181t-64 256t64 256t171 181t232 65q190 0 327 -145t137 -357zM1014 461q0 97 -36 185t-95 150.5t-138.5 99t-164.5 36.5q-115 0 -215 -61.5t-161 -170.5t-61 -239t61 -239t161 -170.5t215 -61.5 q85 0 164.5 36.5t138.5 99t95 150.5t36 185z" />
<glyph unicode="p" d="M195 922v-195h10q5 10 14.5 25.5t43.5 56.5t72 72t100 56.5t128 25.5q84 0 164 -38.5t141 -104.5t98.5 -160t37.5 -199t-37.5 -199t-98.5 -160t-141 -104.5t-164 -38.5q-66 0 -127 24.5t-101.5 59t-71 69t-44.5 58.5l-14 25h-10v-605h-31v1332h31zM195 655v-389 q5 -11 14.5 -29.5t44 -66.5t73.5 -84t103 -66t133 -30q102 0 196.5 61.5t154 171t59.5 238.5t-59.5 238.5t-154 171t-196.5 61.5q-69 0 -132 -28.5t-104 -69t-72.5 -81.5t-45.5 -69z" />
<glyph unicode="q" d="M922 727v195h30v-1332h-30v605h-11q-5 -10 -14.5 -25.5t-43.5 -56.5t-72 -72t-100 -56.5t-128 -25.5q-84 0 -163.5 38.5t-141 104.5t-98.5 160t-37 199t37 199t98.5 160t141 104.5t163.5 38.5q66 0 127 -24.5t101.5 -59t71 -69t44.5 -58.5l14 -25h11zM922 266v389 q-5 11 -15 30t-44.5 66.5t-73.5 84t-103 66.5t-133 30q-102 0 -196.5 -61.5t-154 -171t-59.5 -238.5t59.5 -238.5t154 -171t196.5 -61.5q69 0 132.5 28.5t104.5 69t72.5 81t45.5 69.5z" />
<glyph unicode="r" horiz-adv-x="604" d="M584 963v-31h-31q-69 0 -131 -28.5t-101.5 -69t-69.5 -81.5t-43 -69l-13 -29v-655h-31v922h31v-195h10q5 10 13.5 25.5t41 56.5t69 72t97.5 56.5t127 25.5h31z" />
<glyph unicode="s" horiz-adv-x="952" d="M154 707q0 105 91.5 180.5t246.5 75.5q136 0 219.5 -60t117.5 -155h-30q-35 79 -111 131.5t-196 52.5q-140 0 -224 -67.5t-84 -157.5q0 -68 36.5 -113.5t95.5 -67.5t130 -36.5l142 -29t130 -37.5t95.5 -70t36.5 -117q0 -121 -96 -199t-273 -78q-159 0 -262 80t-137 197 h31q34 -103 129.5 -174.5t238.5 -71.5q162 0 250 70t88 176q0 64 -36.5 106t-95.5 62t-130 33.5t-141.5 29.5t-129.5 40.5t-95.5 74.5t-36.5 125z" />
<glyph unicode="t" horiz-adv-x="645" d="M41 881v30h164v277h31v-277h286v-30h-286v-676q0 -98 54 -156.5t140 -58.5q41 0 79.5 10t56.5 20l18 11v-31q-62 -41 -154 -41q-101 0 -163 66t-62 180v676h-164z" />
<glyph unicode="u" d="M164 369v553h31v-553q0 -167 101.5 -273t256.5 -106q69 0 132.5 28.5t104.5 69t72.5 81t45.5 69.5l14 28v656h30v-922h-30v195h-11q-5 -10 -14.5 -25.5t-43.5 -56.5t-72 -72t-100 -56.5t-128 -25.5q-170 0 -279.5 113.5t-109.5 296.5z" />
<glyph unicode="v" horiz-adv-x="1013" d="M297 0l-205 922h31l199 -891h370l199 891h31l-205 -922h-420z" />
<glyph unicode="w" horiz-adv-x="1392" d="M723 891h-53l-209 -891h-144l-215 922h31l209 -891h94l209 891h103l208 -891h95l209 891h30l-215 -922h-143z" />
<glyph unicode="x" horiz-adv-x="931" d="M819 0l-348 440h-10l-348 -440h-41l379 481l-349 441h41l318 -400h10l317 400h41l-348 -441l379 -481h-41z" />
<glyph unicode="y" horiz-adv-x="1013" d="M881 922h30l-235 -1065q-63 -287 -256 -287q-39 0 -77.5 10t-57.5 20l-19 11v31q66 -41 154 -41q79 0 138.5 64.5t86.5 191.5l31 143h-369l-205 922h31l199 -891h350z" />
<glyph unicode="z" horiz-adv-x="890" d="M809 881l-717 -850h737v-31h-768v41l717 850h-696v31h727v-41z" />
<glyph unicode="{" horiz-adv-x="614" d="M225 604v-10q4 0 10 -1.5t22 -10.5t28 -23t22 -42.5t10 -65.5q0 -61 -56 -271t-56 -272t48 -108t116 -46h163v-30h-163q-84 0 -139.5 53.5t-55.5 130.5q0 62 56.5 272t56.5 271t-35.5 97t-97.5 36h-52v30h52q61 0 97 36t36 98t-56.5 271t-56.5 271q0 77 55.5 131 t139.5 54h163v-31h-163q-68 0 -116 -46t-48 -108t56 -271t56 -271q0 -37 -9.5 -65.5t-23 -43t-27 -23t-23.5 -10.5z" />
<glyph unicode="|" horiz-adv-x="481" d="M256 1536v-1741h-31v1741h31z" />
<glyph unicode="}" horiz-adv-x="614" d="M389 594v10q-4 0 -10 2t-22 11t-28 23t-22 42.5t-10 65.5q0 62 56.5 271t56.5 271t-48 108t-116 46h-164v31h164q84 0 139 -53.5t55 -131.5q0 -62 -56 -271t-56 -271t36 -98t97 -36h51v-30h-51q-61 0 -97 -36t-36 -97t56 -271t56 -272q0 -77 -55 -130.5t-139 -53.5h-164 v30h164q68 0 116 46t48 108t-56.5 272t-56.5 271q0 37 9.5 65.5t23 42.5t27 22.5t23.5 10.5z" />
<glyph unicode="~" horiz-adv-x="808" d="M246 707q-40 0 -79.5 -45.5t-53.5 -118.5l-31 20q15 76 62 125t102 49q39 0 75 -17t63.5 -41t54 -48t58.5 -41t66 -17q40 0 79.5 45.5t53.5 118.5l31 -20q-15 -76 -62 -125t-102 -49q-39 0 -75 17t-63.5 41t-54 48t-58.5 41t-66 17z" />
<glyph unicode="&#xa1;" horiz-adv-x="501" d="M236 -410v963h30v-963h-30zM287 897q0 -15 -10 -26t-25 -11t-26 11t-11 26t11 25t26 10t25 -10t10 -25z" />
<glyph unicode="&#xa2;" horiz-adv-x="1075" d="M573 1147v-184q148 -6 241.5 -78t127.5 -178h-31q-35 95 -125 160t-233 65q-102 0 -196.5 -61.5t-154 -171t-59.5 -238.5t59.5 -238.5t154 -171t196.5 -61.5q150 0 256.5 81.5t132.5 184.5h31q-25 -114 -133.5 -202.5t-266.5 -94.5v-184h-30v184q-82 2 -160 41.5 t-138 105t-96 159t-36 196.5t36 196.5t96 159t138 105t160 41.5v184h30z" />
<glyph unicode="&#xa3;" horiz-adv-x="972" d="M358 246q0 -43 -10 -80t-24 -59t-28 -38t-24 -22l-10 -6v-10h690v-31h-911v31h92q86 0 140.5 58.5t54.5 156.5v502h-158v30h158v379q0 120 65 188t170 68q36 0 72 -10.5t54 -20.5l18 -10v-31q-62 41 -144 41q-94 0 -149.5 -59.5t-55.5 -165.5v-379h287v-30h-287v-502z " />
<glyph unicode="&#xa4;" horiz-adv-x="1269" d="M256 1393h410q227 0 364 -129.5t137 -331.5t-137 -331.5t-364 -129.5h-379v-215h553v-31h-553v-225h-31v225h-174v31h174v215h-174v31h174v891zM666 1362h-379v-860h379q212 0 341.5 121.5t129.5 308.5t-129.5 308.5t-341.5 121.5z" />
<glyph unicode="&#xa5;" horiz-adv-x="1228" d="M983 461h-348v-215h348v-31h-348v-215h-31v215h-348v31h348v215h-348v31h336l-531 901h41l512 -881h11l501 881h41l-520 -901h336v-31z" />
<glyph unicode="&#xa6;" horiz-adv-x="481" d="M256 1536v-737h-31v737h31zM256 532v-737h-31v737h31z" />
<glyph unicode="&#xa7;" horiz-adv-x="972" d="M819 696q0 46 -17.5 84t-46 62t-63 42.5t-68.5 28t-62.5 15t-45.5 6.5l-18 2q-6 -1 -17 -2t-42.5 -8t-60 -16.5t-63.5 -28.5t-60.5 -43t-42.5 -61t-17 -81q0 -63 33.5 -111t80.5 -72t94.5 -39t80.5 -18l34 -3q6 1 17 2.5t42 8.5t59.5 17t63.5 29.5t60 43.5t42 61t17 81z M184 1188q0 113 93 189.5t255 76.5q127 0 215 -64t123 -151h-30q-34 77 -114 130.5t-194 53.5q-147 0 -232 -68.5t-85 -166.5q0 -62 35 -103.5t91 -62.5t123.5 -36.5t135.5 -34t124 -45.5t91 -80t35 -130q0 -44 -15.5 -82t-39.5 -63t-53.5 -45.5t-59.5 -32.5t-54 -20 t-40 -11l-15 -2v-10q6 -1 16 -2.5t38.5 -8.5t55 -16.5t58.5 -27.5t54.5 -40t38.5 -56t16 -74q0 -114 -96.5 -190t-272.5 -76q-151 0 -258 83t-141 193h31q34 -103 129.5 -174.5t238.5 -71.5q160 0 249 68.5t89 167.5q0 62 -36 103.5t-94 62.5t-127.5 36.5t-139.5 33.5 t-128 45t-94 80t-36 130q0 45 15 83.5t39.5 64t54 45.5t59 31.5t54 18.5t39.5 10l15 3v11q-10 1 -27.5 4.5t-61.5 19t-78 38t-61.5 65.5t-27.5 98z" />
<glyph unicode="&#xa8;" horiz-adv-x="501" d="M96 1393q15 0 26 -11t11 -26t-11 -25t-26 -10t-25 10t-10 25t10 26t25 11zM403 1393q15 0 26 -11t11 -26t-11 -25t-26 -10t-24.5 10t-9.5 25t9.5 26t24.5 11z" />
<glyph unicode="&#xa9;" horiz-adv-x="1853" d="M932 246q-131 0 -224.5 95t-93.5 232t92.5 232.5t221.5 95.5q104 0 174.5 -55.5t95.5 -138.5h-31q-55 163 -239 163q-114 0 -198.5 -87.5t-84.5 -209.5t85.5 -209.5t201.5 -87.5q195 0 246 185h30q-25 -97 -95 -156t-181 -59zM1751 573q0 -173 -65 -329t-175.5 -267.5 t-262.5 -177t-320 -65.5q-169 0 -321.5 65.5t-263.5 177t-176 267.5t-65 329t65.5 329t176 268t263 177.5t321.5 65.5q168 0 320 -65.5t262.5 -177.5t175.5 -268t65 -329zM1720 573q0 221 -107 407.5t-289 294t-396 107.5q-161 0 -308 -63.5t-253.5 -171.5t-170 -258 t-63.5 -316t63.5 -316t170 -258t253.5 -171.5t308 -63.5q214 0 396 107.5t289 294t107 407.5z" />
<glyph unicode="&#xaa;" horiz-adv-x="665" d="M297 768q46 0 89 17t72 41t51.5 48t32.5 41l11 17v153h-205q-118 0 -176.5 -45t-58.5 -118q0 -64 51 -109t133 -45zM348 1393q110 0 173 -71t63 -206v-358h-31v123q-4 -6 -11 -15.5t-32 -34.5t-52.5 -44t-71 -34.5t-89.5 -15.5q-97 0 -156 53t-59 132q0 89 66.5 141.5 t199.5 52.5h205q0 120 -55 183t-150 63q-80 0 -129 -37t-65 -96h-31q16 73 73 118.5t152 45.5z" />
<glyph unicode="&#xab;" horiz-adv-x="778" d="M102 451l226 389h30l-227 -389l227 -390h-30zM420 451l225 389h31l-227 -389l227 -390h-31z" />
<glyph unicode="&#xac;" horiz-adv-x="829" d="M696 430v256h-614v31h645v-287h-31z" />
<glyph unicode="&#xad;" horiz-adv-x="870" d="M788 625h-706v30h706v-30z" />
<glyph unicode="&#xae;" horiz-adv-x="1853" d="M696 891h314q86 0 147.5 -58.5t61.5 -136.5q0 -43 -18 -78.5t-43.5 -55.5t-51.5 -33.5t-44 -18.5l-18 -4l164 -250h-41l-153 246h-287v-246h-31v635zM1010 860h-283v-328h283q71 0 124.5 50.5t53.5 113.5t-53.5 113.5t-124.5 50.5zM1751 573q0 -173 -65 -329 t-175.5 -267.5t-262.5 -177t-320 -65.5q-169 0 -321.5 65.5t-263.5 177t-176 267.5t-65 329t65.5 329t176 268t263 177.5t321.5 65.5q168 0 320 -65.5t262.5 -177.5t175.5 -268t65 -329zM1720 573q0 221 -107 407.5t-289 294t-396 107.5q-161 0 -308 -63.5t-253.5 -171.5 t-170 -258t-63.5 -316t63.5 -316t170 -258t253.5 -171.5t308 -63.5q214 0 396 107.5t289 294t107 407.5z" />
<glyph unicode="&#xaf;" horiz-adv-x="583" d="M61 1362v31h461v-31h-461z" />
<glyph unicode="&#xb0;" horiz-adv-x="655" d="M82 1147q0 100 73 173t173 73t172.5 -73t72.5 -173t-72.5 -173t-172.5 -73t-173 73t-73 173zM113 1147q0 -92 61.5 -153.5t153.5 -61.5t153.5 61.5t61.5 153.5t-61.5 153.5t-153.5 61.5t-153.5 -61.5t-61.5 -153.5z" />
<glyph unicode="&#xb1;" horiz-adv-x="931" d="M850 174h-768v31h369v432h-369v31h369v389h30v-389h369v-31h-369v-432h369v-31z" />
<glyph unicode="&#xb2;" horiz-adv-x="624" d="M512 1208q0 64 -53 109t-142 45q-87 0 -137.5 -37t-66.5 -96h-31q16 74 74.5 119t160.5 45q104 0 165 -53t61 -132q0 -62 -43.5 -112.5t-105 -84.5t-123 -67.5t-105 -78t-43.5 -97.5h420v-31h-451v31q0 62 43.5 112.5t105 84.5t123 67.5t105 78t43.5 97.5z" />
<glyph unicode="&#xb3;" horiz-adv-x="604" d="M287 758q90 0 147.5 51.5t57.5 122.5t-57.5 122.5t-147.5 51.5h-82v31l262 225h-385v31h430v-31l-260 -225h35q105 0 170 -59t65 -146t-65 -146t-170 -59q-89 0 -149.5 52t-76.5 132h31q16 -65 68.5 -109t126.5 -44z" />
<glyph unicode="&#xb4;" horiz-adv-x="440" d="M61 1229l297 164l21 -31l-307 -154z" />
<glyph unicode="&#xb5;" d="M164 -410v1332h31v-553q0 -176 97.5 -277.5t260.5 -101.5q69 0 132.5 28.5t104.5 69t72.5 81t45.5 69.5l14 28v656h30v-922h-30v195h-11q-5 -10 -15.5 -25.5t-45.5 -56.5t-74 -72t-99.5 -56.5t-123.5 -25.5q-56 0 -106 12.5t-84 32.5t-62.5 43.5t-45.5 47.5t-29 44 t-16 33l-5 12h-10v-594h-31z" />
<glyph unicode="&#xb6;" horiz-adv-x="655" d="M82 1085q0 125 97 216.5t241 91.5h215v-31h-205v-1772h-31v1178q-131 0 -224 93t-93 224z" />
<glyph unicode="&#xb7;" horiz-adv-x="317" d="M158 680q-15 0 -25 11t-10 26t10 25t25 10t26 -10t11 -25t-11 -26t-26 -11z" />
<glyph unicode="&#xb8;" horiz-adv-x="430" d="M246 0l-51 -113q69 0 121.5 -52.5t52.5 -121.5t-52.5 -121.5t-121.5 -52.5q-41 0 -74.5 15.5t-46.5 31.5l-13 15l21 20q5 -6 13.5 -14.5t38 -22.5t61.5 -14q59 0 101 42t42 101t-41.5 101.5t-101.5 42.5h-52l72 143h31z" />
<glyph unicode="&#xb9;" horiz-adv-x="337" d="M205 737v553q-2 -4 -6 -10t-19 -22t-32.5 -28t-46 -22t-60.5 -10v31q61 0 112.5 51.5t51.5 112.5h31v-656h-31z" />
<glyph unicode="&#xba;" horiz-adv-x="727" d="M645 1065q0 -142 -83 -235t-197 -93q-116 0 -199.5 92.5t-83.5 235.5t83.5 235.5t199.5 92.5q114 0 197 -93t83 -235zM614 1065q0 127 -75 212t-174 85q-100 0 -176 -85t-76 -212t76 -212t176 -85q99 0 174 85t75 212z" />
<glyph unicode="&#xbb;" horiz-adv-x="778" d="M451 840l225 -389l-225 -390h-31l225 390l-225 389h31zM133 840l225 -389l-225 -390h-31l226 390l-226 389h31z" />
<glyph unicode="&#xbc;" horiz-adv-x="1300" d="M1024 1393l-860 -1393h-31l860 1393h31zM246 737v553q-2 -4 -6 -10t-19 -22t-32.5 -28t-46 -22t-60.5 -10v31q62 0 113 51.5t51 112.5h30v-656h-30zM1116 0h-31v174h-348v31l226 450h30l-225 -450h317v164h31v-164h82v-31h-82v-174z" />
<glyph unicode="&#xbd;" horiz-adv-x="1351" d="M1044 1393l-860 -1393h-30l860 1393h30zM266 737v553q-2 -4 -6 -10t-19 -22t-32.5 -28t-46 -22t-60.5 -10v31q62 0 113 51.5t51 112.5h31v-656h-31zM1219 471q0 64 -53 109t-142 45q-87 0 -138 -37t-67 -96h-31q16 74 75 118.5t161 44.5q104 0 164.5 -52.5t60.5 -131.5 q0 -62 -43.5 -112.5t-105 -84.5t-123 -67.5t-105 -78t-43.5 -97.5h420v-31h-450v31q0 62 43.5 112.5t105 84.5t123 67.5t105 78t43.5 97.5z" />
<glyph unicode="&#xbe;" horiz-adv-x="1392" d="M1126 1393l-860 -1393h-30l860 1393h30zM1208 0h-30v174h-349v31l226 450h30l-225 -450h318v164h30v-164h82v-31h-82v-174zM307 758q90 0 147.5 51.5t57.5 122.5t-57.5 122.5t-147.5 51.5h-82v31l262 225h-385v31h430v-31l-260 -225h35q105 0 170.5 -59t65.5 -146 t-65.5 -146t-170.5 -59q-89 0 -149 52t-76 132h31q16 -65 68.5 -109t125.5 -44z" />
<glyph unicode="&#xbf;" horiz-adv-x="1034" d="M532 -430q173 0 287 86t164 221h31q-50 -150 -172 -244t-310 -94q-187 0 -308.5 109t-121.5 260q0 65 16 113.5t42.5 78t61 51t72.5 37.5t76.5 33t73 42.5t61 61t42.5 93.5t16 135h31q0 -80 -16 -141t-42.5 -98.5t-61 -64.5t-72.5 -44t-76.5 -33t-73 -36t-61 -47.5 t-42.5 -73t-16 -107.5q0 -135 113.5 -236.5t285.5 -101.5zM573 932q15 0 26 -10t11 -25t-11 -26t-26 -11t-24.5 11t-9.5 26t9.5 25t24.5 10z" />
<glyph unicode="&#xc0;" horiz-adv-x="1402" d="M1270 0l-101 410h-938l-98 -410h-31l338 1393h523l337 -1393h-30zM465 1362l-225 -922h921l-223 922h-473zM553 1823l297 -164l-10 -21l-308 154z" />
<glyph unicode="&#xc1;" horiz-adv-x="1402" d="M1270 0l-101 410h-938l-98 -410h-31l338 1393h523l337 -1393h-30zM465 1362l-225 -922h921l-223 922h-473zM594 1659l297 164l20 -31l-307 -154z" />
<glyph unicode="&#xc2;" horiz-adv-x="1402" d="M1270 0l-101 410h-938l-98 -410h-31l338 1393h523l337 -1393h-30zM465 1362l-225 -922h921l-223 922h-473zM686 1843h31l225 -266h-41l-201 235l-198 -235h-41z" />
<glyph unicode="&#xc3;" horiz-adv-x="1402" d="M1270 0l-101 410h-938l-98 -410h-31l338 1393h523l337 -1393h-30zM465 1362l-225 -922h921l-223 922h-473zM594 1772q-40 0 -66 -30.5t-26 -82.5v-41h-31v41q0 68 34 105.5t89 37.5q34 0 65 -24t50 -52.5t46 -52.5t54 -24q40 0 66 30t26 82v41h31v-41q0 -68 -34 -105.5 t-89 -37.5q-34 0 -65 24t-50 53t-46 53t-54 24z" />
<glyph unicode="&#xc4;" horiz-adv-x="1402" d="M1270 0l-101 410h-938l-98 -410h-31l338 1393h523l337 -1393h-30zM465 1362l-225 -922h921l-223 922h-473zM537 1737q15 0 25.5 -11t10.5 -26t-10.5 -25t-25.5 -10t-25 10t-10 25t10 26t25 11zM844 1737q15 0 26 -11t11 -26t-11 -25t-26 -10t-25 10t-10 25t10 26t25 11z " />
<glyph unicode="&#xc5;" horiz-adv-x="1402" d="M1270 0l-101 410h-938l-98 -410h-31l338 1393h523l337 -1393h-30zM465 1362l-225 -922h921l-223 922h-473zM850 1761q0 65 -45 109.5t-109 44.5q-66 0 -109.5 -44.5t-43.5 -109.5q0 -66 43.5 -109.5t109.5 -43.5q65 0 109.5 43.5t44.5 109.5zM512 1761q0 77 54 131 t130 54t130.5 -54t54.5 -131q0 -76 -54 -130t-131 -54q-76 0 -130 53.5t-54 130.5z" />
<glyph unicode="&#xc6;" horiz-adv-x="1966" d="M989 399h-778l-98 -399h-31l338 1393h1464v-31h-864v-645h680v-31h-680v-655h864v-31h-895v399zM446 1362l-229 -932h772v932h-543z" />
<glyph unicode="&#xc7;" horiz-adv-x="1556" d="M1454 379q-32 -92 -85.5 -168.5t-130.5 -138.5t-184.5 -97t-234.5 -36l-41 -93q69 0 121.5 -52.5t52.5 -121.5t-52.5 -121.5t-121.5 -52.5q-41 0 -74 15.5t-46 30.5l-13 16l21 20q4 -6 13 -14.5t38 -22.5t61 -14q59 0 101.5 42.5t42.5 100.5q0 59 -42 101.5t-102 42.5 h-51l61 125q-128 6 -251 69.5t-216.5 164t-150.5 238t-57 283.5q0 100 27.5 198t75.5 181t115 153.5t144.5 120t165 77.5t174.5 28q120 0 224 -34.5t177.5 -92.5t123 -127t73.5 -145h-31q-24 68 -71.5 131.5t-117 117.5t-168 86.5t-210.5 32.5q-123 0 -245.5 -59.5 t-216 -157.5t-152 -233t-58.5 -277t58.5 -277t152 -233t216 -157.5t245.5 -59.5q120 0 222.5 33t176 91.5t125.5 130t84 155.5h31z" />
<glyph unicode="&#xc8;" horiz-adv-x="1228" d="M246 31h901v-31h-932v1393h932v-31h-901v-635h717v-31h-717v-665zM502 1823l297 -164l-11 -21l-307 154z" />
<glyph unicode="&#xc9;" horiz-adv-x="1228" d="M246 31h901v-31h-932v1393h932v-31h-901v-635h717v-31h-717v-665zM553 1659l297 164l20 -31l-307 -154z" />
<glyph unicode="&#xca;" horiz-adv-x="1228" d="M246 31h901v-31h-932v1393h932v-31h-901v-635h717v-31h-717v-665zM666 1864h30l226 -267h-41l-201 236l-199 -236h-41z" />
<glyph unicode="&#xcb;" horiz-adv-x="1228" d="M246 31h901v-31h-932v1393h932v-31h-901v-635h717v-31h-717v-665zM526 1747q15 0 26 -11t11 -26t-11 -25t-26 -10t-24.5 10t-9.5 25t9.5 26t24.5 11zM834 1747q15 0 25.5 -11t10.5 -26t-10.5 -25t-25.5 -10t-25 10t-10 25t10 26t25 11z" />
<glyph unicode="&#xcc;" horiz-adv-x="481" d="M256 1393v-1393h-31v1393h31zM0 1802l297 -164l-10 -20l-307 154z" />
<glyph unicode="&#xcd;" horiz-adv-x="481" d="M256 1393v-1393h-31v1393h31zM184 1659l297 164l21 -31l-307 -154z" />
<glyph unicode="&#xce;" horiz-adv-x="481" d="M256 1393v-1393h-31v1393h31zM225 1884h31l225 -266h-41l-200 235l-199 -235h-41z" />
<glyph unicode="&#xcf;" horiz-adv-x="460" d="M246 1393v-1393h-31v1393h31zM76 1720q15 0 26 -11t11 -26t-11 -24.5t-26 -9.5t-25 9.5t-10 24.5t10 26t25 11zM383 1720q15 0 26 -11t11 -26t-11 -24.5t-26 -9.5t-25 9.5t-10 24.5t10 26t25 11z" />
<glyph unicode="&#xd0;" horiz-adv-x="1464" d="M1352 696q0 -203 -89 -361.5t-252.5 -246.5t-375.5 -88h-379v686h-184v31h184v676h379q212 0 375.5 -88.5t252.5 -247t89 -361.5zM1321 696q0 193 -85.5 344.5t-242 236.5t-358.5 85h-348v-645h375v-31h-375v-655h348q202 0 358.5 85t242 236t85.5 344z" />
<glyph unicode="&#xd1;" horiz-adv-x="1464" d="M256 1393l963 -1352v1352h30v-1393h-41l-962 1352v-1352h-31v1393h41zM645 1812q-40 0 -66 -30t-26 -82v-41h-31v41q0 68 34 105.5t89 37.5q34 0 65 -24t50 -52.5t46 -52.5t54 -24q40 0 66 30t26 82v41h31v-41q0 -68 -34 -105.5t-89 -37.5q-34 0 -65 24t-50 52.5 t-46 52.5t-54 24z" />
<glyph unicode="&#xd2;" horiz-adv-x="1669" d="M113 696q0 150 60.5 291t159.5 242.5t231 163t270 61.5t270.5 -61.5t231.5 -163.5t159.5 -242.5t60.5 -290.5t-60.5 -290.5t-159.5 -242.5t-231.5 -163t-270.5 -61t-270 61t-231 163t-159.5 242.5t-60.5 290.5zM143 696q0 -142 59 -277t154.5 -233t221.5 -157.5 t256 -59.5t257 59.5t222.5 157.5t154 233t58.5 277t-58.5 277t-154 233t-222.5 157.5t-257 59.5t-256 -59.5t-221.5 -157.5t-154.5 -233t-59 -277zM686 1864l297 -164l-10 -21l-307 154z" />
<glyph unicode="&#xd3;" horiz-adv-x="1669" d="M113 696q0 150 60.5 291t159.5 242.5t231 163t270 61.5t270.5 -61.5t231.5 -163.5t159.5 -242.5t60.5 -290.5t-60.5 -290.5t-159.5 -242.5t-231.5 -163t-270.5 -61t-270 61t-231 163t-159.5 242.5t-60.5 290.5zM143 696q0 -142 59 -277t154.5 -233t221.5 -157.5 t256 -59.5t257 59.5t222.5 157.5t154 233t58.5 277t-58.5 277t-154 233t-222.5 157.5t-257 59.5t-256 -59.5t-221.5 -157.5t-154.5 -233t-59 -277zM717 1720l297 164l20 -31l-307 -153z" />
<glyph unicode="&#xd4;" horiz-adv-x="1669" d="M113 696q0 150 60.5 291t159.5 242.5t231 163t270 61.5t270.5 -61.5t231.5 -163.5t159.5 -242.5t60.5 -290.5t-60.5 -290.5t-159.5 -242.5t-231.5 -163t-270.5 -61t-270 61t-231 163t-159.5 242.5t-60.5 290.5zM143 696q0 -142 59 -277t154.5 -233t221.5 -157.5 t256 -59.5t257 59.5t222.5 157.5t154 233t58.5 277t-58.5 277t-154 233t-222.5 157.5t-257 59.5t-256 -59.5t-221.5 -157.5t-154.5 -233t-59 -277zM819 1905h31l225 -267h-41l-200 236l-199 -236h-41z" />
<glyph unicode="&#xd5;" horiz-adv-x="1669" d="M113 696q0 150 60.5 291t159.5 242.5t231 163t270 61.5t270.5 -61.5t231.5 -163.5t159.5 -242.5t60.5 -290.5t-60.5 -290.5t-159.5 -242.5t-231.5 -163t-270.5 -61t-270 61t-231 163t-159.5 242.5t-60.5 290.5zM143 696q0 -142 59 -277t154.5 -233t221.5 -157.5 t256 -59.5t257 59.5t222.5 157.5t154 233t58.5 277t-58.5 277t-154 233t-222.5 157.5t-257 59.5t-256 -59.5t-221.5 -157.5t-154.5 -233t-59 -277zM727 1812q-40 0 -66 -30t-26 -82v-41h-31v41q0 68 34 105.5t89 37.5q34 0 65 -24t50 -52.5t46 -52.5t54 -24q40 0 66 30 t26 82v41h31v-41q0 -68 -34 -105.5t-89 -37.5q-34 0 -65 24t-50 52.5t-46 52.5t-54 24z" />
<glyph unicode="&#xd6;" horiz-adv-x="1669" d="M113 696q0 150 60.5 291t159.5 242.5t231 163t270 61.5t270.5 -61.5t231.5 -163.5t159.5 -242.5t60.5 -290.5t-60.5 -290.5t-159.5 -242.5t-231.5 -163t-270.5 -61t-270 61t-231 163t-159.5 242.5t-60.5 290.5zM143 696q0 -142 59 -277t154.5 -233t221.5 -157.5 t256 -59.5t257 59.5t222.5 157.5t154 233t58.5 277t-58.5 277t-154 233t-222.5 157.5t-257 59.5t-256 -59.5t-221.5 -157.5t-154.5 -233t-59 -277zM680 1782q15 0 26 -11t11 -26t-11 -25t-26 -10t-25 10t-10 25t10 26t25 11zM987 1782q15 0 26 -11t11 -26t-11 -25t-26 -10 t-25 10t-10 25t10 26t25 11z" />
<glyph unicode="&#xd7;" horiz-adv-x="737" d="M348 655l-246 246l21 21l246 -246l245 246l21 -21l-246 -246l246 -245l-21 -21l-245 246l-246 -246l-21 21z" />
<glyph unicode="&#xd8;" horiz-adv-x="1730" d="M143 696q0 150 60.5 291t159.5 242.5t231 163t270 61.5q202 0 382 -124t270 -320l215 96v-35l-201 -92q57 -136 57 -283q0 -150 -60.5 -290.5t-160 -242.5t-232 -163t-270.5 -61q-202 0 -380.5 123.5t-270.5 320.5l-213 -96v35l201 90q-58 138 -58 284zM1556 696 q0 139 -55 271l-1259 -572q89 -188 260 -307t362 -119q130 0 257 59.5t222.5 157.5t154 233t58.5 277zM174 696q0 -138 55 -270l1258 569q-89 189 -260.5 308.5t-362.5 119.5q-130 0 -256 -59.5t-221.5 -157.5t-154 -233t-58.5 -277z" />
<glyph unicode="&#xd9;" horiz-adv-x="1464" d="M731 -31q215 0 351.5 144t136.5 379v901h30v-901q0 -251 -144 -402t-374 -151q-228 0 -372 151t-144 402v901h31v-901q0 -235 136 -379t349 -144zM553 1823l297 -164l-10 -21l-308 154z" />
<glyph unicode="&#xda;" horiz-adv-x="1464" d="M731 -31q215 0 351.5 144t136.5 379v901h30v-901q0 -251 -144 -402t-374 -151q-228 0 -372 151t-144 402v901h31v-901q0 -235 136 -379t349 -144zM614 1659l297 164l21 -31l-307 -154z" />
<glyph unicode="&#xdb;" horiz-adv-x="1464" d="M731 -31q215 0 351.5 144t136.5 379v901h30v-901q0 -251 -144 -402t-374 -151q-228 0 -372 151t-144 402v901h31v-901q0 -235 136 -379t349 -144zM727 1864h31l225 -267h-41l-201 236l-198 -236h-41z" />
<glyph unicode="&#xdc;" horiz-adv-x="1464" d="M731 -31q215 0 351.5 144t136.5 379v901h30v-901q0 -251 -144 -402t-374 -151q-228 0 -372 151t-144 402v901h31v-901q0 -235 136 -379t349 -144zM567 1710q15 0 26 -11t11 -26t-11 -25t-26 -10t-25 10t-10 25t10 26t25 11zM874 1710q15 0 26 -11t11 -26t-11 -25t-26 -10 t-24.5 10t-9.5 25t9.5 26t24.5 11z" />
<glyph unicode="&#xdd;" horiz-adv-x="1300" d="M573 1638l297 164l21 -30l-307 -154zM1239 1393l-573 -922v-471h-31v471l-574 922h41l543 -881h10l543 881h41z" />
<glyph unicode="&#xde;" horiz-adv-x="1290" d="M246 1300h266q147 0 270.5 -45t207.5 -123.5t130.5 -185.5t46.5 -229t-46.5 -229.5t-130.5 -186t-207.5 -123.5t-270.5 -45h-266v-174h-31v1516h31v-175zM512 1270h-266v-1106h266q139 0 257 43.5t198 118t125 175.5t45 216t-45 216t-125 175.5t-198 118t-257 43.5z" />
<glyph unicode="&#xdf;" horiz-adv-x="1126" d="M870 1085q0 131 -94 224.5t-227 93.5q-135 0 -229.5 -93.5t-94.5 -224.5v-1085h-30v1085q0 147 102 248t252 101q149 0 250.5 -101t101.5 -248q0 -54 -12 -101.5t-31 -80t-41.5 -59t-45.5 -42t-42 -26t-31 -14.5l-12 -4v-8q7 -1 18.5 -3t44.5 -12t63 -24.5t66.5 -43.5 t63 -66t44.5 -95t18 -127q0 -162 -111 -270.5t-279 -108.5h-133v31h133q153 0 256 100.5t103 247.5t-103 247.5t-256 100.5h-112v31h51q131 0 224 95t93 232z" />
<glyph unicode="&#xe0;" d="M922 0v195h-11q-5 -10 -14.5 -25.5t-43.5 -56.5t-72 -72t-100 -56.5t-128 -25.5q-84 0 -163.5 38.5t-141 104.5t-98.5 160t-37 199t37 199t98.5 160t141 104.5t163.5 38.5q66 0 127 -24.5t101.5 -59t71 -69t44.5 -58.5l14 -25h11v195h30v-922h-30zM922 266v389 q-5 11 -15 30t-44.5 66.5t-73.5 84t-103 66.5t-133 30q-102 0 -196.5 -61.5t-154 -171t-59.5 -238.5t59.5 -238.5t154 -171t196.5 -61.5q69 0 132.5 28.5t104.5 69t72.5 81t45.5 69.5zM420 1372l297 -164l-10 -20l-308 153z" />
<glyph unicode="&#xe1;" d="M922 0v195h-11q-5 -10 -14.5 -25.5t-43.5 -56.5t-72 -72t-100 -56.5t-128 -25.5q-84 0 -163.5 38.5t-141 104.5t-98.5 160t-37 199t37 199t98.5 160t141 104.5t163.5 38.5q66 0 127 -24.5t101.5 -59t71 -69t44.5 -58.5l14 -25h11v195h30v-922h-30zM922 266v389 q-5 11 -15 30t-44.5 66.5t-73.5 84t-103 66.5t-133 30q-102 0 -196.5 -61.5t-154 -171t-59.5 -238.5t59.5 -238.5t154 -171t196.5 -61.5q69 0 132.5 28.5t104.5 69t72.5 81t45.5 69.5zM440 1229l297 164l21 -31l-307 -154z" />
<glyph unicode="&#xe2;" d="M922 0v195h-11q-5 -10 -14.5 -25.5t-43.5 -56.5t-72 -72t-100 -56.5t-128 -25.5q-84 0 -163.5 38.5t-141 104.5t-98.5 160t-37 199t37 199t98.5 160t141 104.5t163.5 38.5q66 0 127 -24.5t101.5 -59t71 -69t44.5 -58.5l14 -25h11v195h30v-922h-30zM922 266v389 q-5 11 -15 30t-44.5 66.5t-73.5 84t-103 66.5t-133 30q-102 0 -196.5 -61.5t-154 -171t-59.5 -238.5t59.5 -238.5t154 -171t196.5 -61.5q69 0 132.5 28.5t104.5 69t72.5 81t45.5 69.5zM543 1434h30l226 -267h-41l-201 236l-199 -236h-41z" />
<glyph unicode="&#xe3;" d="M922 0v195h-11q-5 -10 -14.5 -25.5t-43.5 -56.5t-72 -72t-100 -56.5t-128 -25.5q-84 0 -163.5 38.5t-141 104.5t-98.5 160t-37 199t37 199t98.5 160t141 104.5t163.5 38.5q66 0 127 -24.5t101.5 -59t71 -69t44.5 -58.5l14 -25h11v195h30v-922h-30zM922 266v389 q-5 11 -15 30t-44.5 66.5t-73.5 84t-103 66.5t-133 30q-102 0 -196.5 -61.5t-154 -171t-59.5 -238.5t59.5 -238.5t154 -171t196.5 -61.5q69 0 132.5 28.5t104.5 69t72.5 81t45.5 69.5zM451 1352q-40 0 -66.5 -30.5t-26.5 -82.5v-41h-30v41q0 68 34 105.5t89 37.5 q34 0 65 -24t50 -52.5t46 -52.5t54 -24q40 0 66 30t26 82v41h30v-41q0 -68 -33.5 -105.5t-88.5 -37.5q-34 0 -65 24t-50 53t-46 53t-54 24z" />
<glyph unicode="&#xe4;" d="M922 0v195h-11q-5 -10 -14.5 -25.5t-43.5 -56.5t-72 -72t-100 -56.5t-128 -25.5q-84 0 -163.5 38.5t-141 104.5t-98.5 160t-37 199t37 199t98.5 160t141 104.5t163.5 38.5q66 0 127 -24.5t101.5 -59t71 -69t44.5 -58.5l14 -25h11v195h30v-922h-30zM922 266v389 q-5 11 -15 30t-44.5 66.5t-73.5 84t-103 66.5t-133 30q-102 0 -196.5 -61.5t-154 -171t-59.5 -238.5t59.5 -238.5t154 -171t196.5 -61.5q69 0 132.5 28.5t104.5 69t72.5 81t45.5 69.5zM393 1290q15 0 26 -11t11 -26t-11 -24.5t-26 -9.5t-25 9.5t-10 24.5t10 26t25 11z M700 1290q15 0 26 -11t11 -26t-11 -24.5t-26 -9.5t-24.5 9.5t-9.5 24.5t9.5 26t24.5 11z" />
<glyph unicode="&#xe5;" d="M922 0v195h-11q-5 -10 -14.5 -25.5t-43.5 -56.5t-72 -72t-100 -56.5t-128 -25.5q-84 0 -163.5 38.5t-141 104.5t-98.5 160t-37 199t37 199t98.5 160t141 104.5t163.5 38.5q66 0 127 -24.5t101.5 -59t71 -69t44.5 -58.5l14 -25h11v195h30v-922h-30zM922 266v389 q-5 11 -15 30t-44.5 66.5t-73.5 84t-103 66.5t-133 30q-102 0 -196.5 -61.5t-154 -171t-59.5 -238.5t59.5 -238.5t154 -171t196.5 -61.5q69 0 132.5 28.5t104.5 69t72.5 81t45.5 69.5zM707 1352q0 64 -44.5 108.5t-109.5 44.5q-66 0 -110 -44t-44 -109q0 -66 44 -110 t110 -44q65 0 109.5 44t44.5 110zM369 1352q0 76 53.5 130t130.5 54t130.5 -54t53.5 -130q0 -77 -54 -131t-130 -54t-130 54t-54 131z" />
<glyph unicode="&#xe6;" horiz-adv-x="1781" d="M850 287q-2 -7 -5.5 -18.5t-19 -46t-35 -65.5t-54.5 -68.5t-76 -65t-101 -46t-129 -18.5q-162 0 -255 76.5t-93 189.5q0 112 93.5 189.5t254.5 77.5h410q0 209 -93.5 324.5t-244.5 115.5q-67 0 -123.5 -19t-89 -46t-55 -54t-30.5 -46l-9 -19h-31q2 4 5 12t15.5 30.5 t28.5 42.5t44.5 45t61 43t81 30t102.5 12q63 0 116 -17t88 -44t63 -60t43.5 -66t25.5 -60t13 -44l3 -17h10q2 6 6 17.5t20 43.5t35 61t52.5 64.5t72 61t94 43t116.5 17.5q107 0 203 -62t156 -173t60 -243l-26 -24h-783q0 -195 121.5 -333t278.5 -138q137 0 239.5 82.5 t128.5 183.5h31q-25 -116 -136.5 -206.5t-262.5 -90.5q-63 0 -119.5 18t-96.5 47t-74 64t-55.5 70t-36.5 64t-22 47l-6 18h-10zM430 -10q173 0 291.5 130.5t118.5 340.5h-410q-147 0 -232 -69t-85 -167t85 -166.5t232 -68.5zM1260 932q-97 0 -186.5 -58t-146.5 -160.5 t-57 -221.5h779q0 90 -34 172.5t-88 140.5t-124.5 92.5t-142.5 34.5z" />
<glyph unicode="&#xe7;" horiz-adv-x="1075" d="M973 256q-16 -73 -68 -138t-142.5 -110.5t-199.5 -48.5l-41 -92q69 0 121.5 -52.5t52.5 -121.5t-52.5 -121.5t-121.5 -52.5q-41 0 -74 15.5t-46 30.5l-13 15l21 21q4 -6 13 -14.5t38 -23t61 -14.5q58 0 101 42.5t43 101.5t-42 101t-102 42h-51l61 123q-108 6 -204 72 t-155.5 180.5t-59.5 249.5q0 105 37 199t98.5 160t141 104.5t163.5 38.5q158 0 256.5 -73t132.5 -183h-31q-35 95 -125 160t-233 65q-102 0 -196.5 -61.5t-154 -171t-59.5 -238.5t59.5 -238.5t154 -171t196.5 -61.5q150 0 256.5 81.5t132.5 184.5h31z" />
<glyph unicode="&#xe8;" horiz-adv-x="1085" d="M543 963q83 0 163.5 -38.5t141 -103.5t98 -157t37.5 -193l-31 -31h-809q0 -120 60 -224.5t156 -165t200 -60.5q147 0 252 82t131 184h31q-12 -55 -46 -107t-86 -95t-125.5 -69t-156.5 -26q-86 0 -167 38.5t-142.5 104.5t-99 160t-37.5 199q0 104 37 199t97 160.5t138 104 t158 38.5zM543 932q-97 0 -189 -61t-151.5 -168.5t-59.5 -231.5h809q0 124 -59.5 231.5t-153.5 168.5t-196 61zM420 1393l297 -164l-10 -21l-308 154z" />
<glyph unicode="&#xe9;" horiz-adv-x="1085" d="M543 963q83 0 163.5 -38.5t141 -103.5t98 -157t37.5 -193l-31 -31h-809q0 -120 60 -224.5t156 -165t200 -60.5q147 0 252 82t131 184h31q-12 -55 -46 -107t-86 -95t-125.5 -69t-156.5 -26q-86 0 -167 38.5t-142.5 104.5t-99 160t-37.5 199q0 104 37 199t97 160.5t138 104 t158 38.5zM543 932q-97 0 -189 -61t-151.5 -168.5t-59.5 -231.5h809q0 124 -59.5 231.5t-153.5 168.5t-196 61zM440 1208l297 164l21 -31l-307 -153z" />
<glyph unicode="&#xea;" horiz-adv-x="1085" d="M543 963q83 0 163.5 -38.5t141 -103.5t98 -157t37.5 -193l-31 -31h-809q0 -120 60 -224.5t156 -165t200 -60.5q147 0 252 82t131 184h31q-12 -55 -46 -107t-86 -95t-125.5 -69t-156.5 -26q-86 0 -167 38.5t-142.5 104.5t-99 160t-37.5 199q0 104 37 199t97 160.5t138 104 t158 38.5zM543 932q-97 0 -189 -61t-151.5 -168.5t-59.5 -231.5h809q0 124 -59.5 231.5t-153.5 168.5t-196 61zM532 1413h31l225 -266h-40l-201 235l-199 -235h-41z" />
<glyph unicode="&#xeb;" horiz-adv-x="1085" d="M543 963q83 0 163.5 -38.5t141 -103.5t98 -157t37.5 -193l-31 -31h-809q0 -120 60 -224.5t156 -165t200 -60.5q147 0 252 82t131 184h31q-12 -55 -46 -107t-86 -95t-125.5 -69t-156.5 -26q-86 0 -167 38.5t-142.5 104.5t-99 160t-37.5 199q0 104 37 199t97 160.5t138 104 t158 38.5zM543 932q-97 0 -189 -61t-151.5 -168.5t-59.5 -231.5h809q0 124 -59.5 231.5t-153.5 168.5t-196 61zM393 1290q15 0 26 -11t11 -26t-11 -24.5t-26 -9.5t-25 9.5t-10 24.5t10 26t25 11zM700 1290q15 0 26 -11t11 -26t-11 -24.5t-26 -9.5t-24.5 9.5t-9.5 24.5 t9.5 26t24.5 11z" />
<glyph unicode="&#xec;" horiz-adv-x="399" d="M-20 1393l296 -164l-10 -21l-307 154zM184 0v922h31v-922h-31z" />
<glyph unicode="&#xed;" horiz-adv-x="399" d="M123 1208l297 164l20 -31l-307 -153zM184 0v922h31v-922h-31z" />
<glyph unicode="&#xee;" horiz-adv-x="419" d="M195 0v922h30v-922h-30zM195 1413h30l226 -266h-41l-201 235l-199 -235h-41z" />
<glyph unicode="&#xef;" horiz-adv-x="419" d="M55 1274q15 0 26 -11t11 -26t-11 -25t-26 -10t-25 10t-10 25t10 26t25 11zM362 1274q15 0 26 -11t11 -26t-11 -25t-26 -10t-24.5 10t-9.5 25t9.5 26t24.5 11zM195 0v922h30v-922h-30z" />
<glyph unicode="&#xf0;" d="M635 1157l-21 21l144 112l-164 185l20 20l164 -184l144 112l20 -20l-143 -113q7 -8 19 -22t42 -61.5t52.5 -100t41.5 -133.5t19 -164v-389q0 -205 -122.5 -333t-311.5 -128q-191 0 -314 128t-123 333t123 333t314 128q66 0 123 -14t96 -36.5t70.5 -50t50.5 -55t31.5 -50 t17.5 -36.5l4 -14h10v184q0 77 -17 153t-41 129t-48 95.5t-41 63.5l-17 20zM539 -10q174 0 288.5 120t114.5 310q0 194 -112.5 312t-290.5 118q-175 0 -290.5 -120t-115.5 -310t115.5 -310t290.5 -120z" />
<glyph unicode="&#xf1;" horiz-adv-x="1105" d="M952 553v-553h-30v553q0 167 -102 273t-257 106q-69 0 -132 -28.5t-104 -69t-72.5 -81.5t-45.5 -69l-14 -29v-655h-31v922h31v-195h10q5 10 14.5 25.5t43.5 56.5t72 72t100 56.5t128 25.5q170 0 279.5 -113.5t109.5 -296.5zM430 1362q-40 0 -66 -30.5t-26 -82.5v-41h-31 v41q0 68 34 106t89 38q34 0 65 -24t50 -53t46 -53t54 -24q40 0 66 30.5t26 82.5v41h31v-41q0 -68 -34 -106t-89 -38q-34 0 -65 24t-50 53t-46 53t-54 24z" />
<glyph unicode="&#xf2;" horiz-adv-x="1157" d="M1044 461q0 -212 -137 -357t-327 -145q-125 0 -232 65t-171 181t-64 256t64 256t171 181t232 65q190 0 327 -145t137 -357zM1014 461q0 97 -36 185t-95 150.5t-138.5 99t-164.5 36.5q-115 0 -215 -61.5t-161 -170.5t-61 -239t61 -239t161 -170.5t215 -61.5 q85 0 164.5 36.5t138.5 99t95 150.5t36 185zM430 1372l297 -164l-10 -20l-307 153z" />
<glyph unicode="&#xf3;" horiz-adv-x="1157" d="M1044 461q0 -212 -137 -357t-327 -145q-125 0 -232 65t-171 181t-64 256t64 256t171 181t232 65q190 0 327 -145t137 -357zM1014 461q0 97 -36 185t-95 150.5t-138.5 99t-164.5 36.5q-115 0 -215 -61.5t-161 -170.5t-61 -239t61 -239t161 -170.5t215 -61.5 q85 0 164.5 36.5t138.5 99t95 150.5t36 185zM461 1229l297 164l20 -31l-307 -154z" />
<glyph unicode="&#xf4;" horiz-adv-x="1157" d="M1044 461q0 -212 -137 -357t-327 -145q-125 0 -232 65t-171 181t-64 256t64 256t171 181t232 65q190 0 327 -145t137 -357zM1014 461q0 97 -36 185t-95 150.5t-138.5 99t-164.5 36.5q-115 0 -215 -61.5t-161 -170.5t-61 -239t61 -239t161 -170.5t215 -61.5 q85 0 164.5 36.5t138.5 99t95 150.5t36 185zM573 1434h31l225 -267h-41l-200 236l-199 -236h-41z" />
<glyph unicode="&#xf5;" horiz-adv-x="1157" d="M1044 461q0 -212 -137 -357t-327 -145q-125 0 -232 65t-171 181t-64 256t64 256t171 181t232 65q190 0 327 -145t137 -357zM1014 461q0 97 -36 185t-95 150.5t-138.5 99t-164.5 36.5q-115 0 -215 -61.5t-161 -170.5t-61 -239t61 -239t161 -170.5t215 -61.5 q85 0 164.5 36.5t138.5 99t95 150.5t36 185zM471 1321q-40 0 -66 -30.5t-26 -82.5v-41h-31v41q0 68 34 106t89 38q34 0 65 -24t50 -53t46 -53t54 -24q40 0 66 30.5t26 82.5v41h31v-41q0 -68 -34 -106t-89 -38q-34 0 -65 24t-50 53t-46 53t-54 24z" />
<glyph unicode="&#xf6;" horiz-adv-x="1157" d="M1044 461q0 -212 -137 -357t-327 -145q-125 0 -232 65t-171 181t-64 256t64 256t171 181t232 65q190 0 327 -145t137 -357zM1014 461q0 97 -36 185t-95 150.5t-138.5 99t-164.5 36.5q-115 0 -215 -61.5t-161 -170.5t-61 -239t61 -239t161 -170.5t215 -61.5 q85 0 164.5 36.5t138.5 99t95 150.5t36 185zM414 1311q15 0 26 -11t11 -26t-11 -25t-26 -10t-25 10t-10 25t10 26t25 11zM721 1311q15 0 26 -11t11 -26t-11 -25t-26 -10t-25 10t-10 25t10 26t25 11z" />
<glyph unicode="&#xf7;" horiz-adv-x="860" d="M778 625h-696v30h696v-30zM424 236q-15 0 -25 10.5t-10 25.5t10 25t25 10t26 -10t11 -25t-11 -25.5t-26 -10.5zM424 973q-15 0 -25 11t-10 26t10 24.5t25 9.5t26 -9.5t11 -24.5t-11 -26t-26 -11z" />
<glyph unicode="&#xf8;" horiz-adv-x="1177" d="M1055 461q0 -212 -137.5 -357t-327.5 -145q-140 0 -256 81.5t-172 215.5l-162 -72v35l152 66q-29 89 -29 176q0 140 64 256t171 181t232 65q139 0 254.5 -82t169.5 -217l164 73v-35l-152 -67q29 -85 29 -174zM154 461q0 -90 26 -164l805 354q-53 127 -160.5 204 t-234.5 77q-86 0 -165.5 -36.5t-139 -99t-95.5 -150.5t-36 -185zM1024 461q0 79 -27 162l-807 -355q53 -126 162 -202t238 -76q85 0 164.5 36.5t138.5 99t95 150.5t36 185z" />
<glyph unicode="&#xf9;" d="M164 369v553h31v-553q0 -167 101.5 -273t256.5 -106q69 0 132.5 28.5t104.5 69t72.5 81t45.5 69.5l14 28v656h30v-922h-30v195h-11q-5 -10 -14.5 -25.5t-43.5 -56.5t-72 -72t-100 -56.5t-128 -25.5q-170 0 -279.5 113.5t-109.5 296.5zM420 1352l297 -164l-10 -21 l-308 154z" />
<glyph unicode="&#xfa;" d="M164 369v553h31v-553q0 -167 101.5 -273t256.5 -106q69 0 132.5 28.5t104.5 69t72.5 81t45.5 69.5l14 28v656h30v-922h-30v195h-11q-5 -10 -14.5 -25.5t-43.5 -56.5t-72 -72t-100 -56.5t-128 -25.5q-170 0 -279.5 113.5t-109.5 296.5zM471 1167l297 164l20 -31l-307 -153 z" />
<glyph unicode="&#xfb;" d="M164 369v553h31v-553q0 -167 101.5 -273t256.5 -106q69 0 132.5 28.5t104.5 69t72.5 81t45.5 69.5l14 28v656h30v-922h-30v195h-11q-5 -10 -14.5 -25.5t-43.5 -56.5t-72 -72t-100 -56.5t-128 -25.5q-170 0 -279.5 113.5t-109.5 296.5zM553 1413h31l225 -266h-41l-201 235 l-198 -235h-41z" />
<glyph unicode="&#xfc;" d="M164 369v553h31v-553q0 -167 101.5 -273t256.5 -106q69 0 132.5 28.5t104.5 69t72.5 81t45.5 69.5l14 28v656h30v-922h-30v195h-11q-5 -10 -14.5 -25.5t-43.5 -56.5t-72 -72t-100 -56.5t-128 -25.5q-170 0 -279.5 113.5t-109.5 296.5zM403 1270q15 0 26 -11t11 -26 t-11 -25t-26 -10t-24.5 10t-9.5 25t9.5 26t24.5 11zM711 1270q15 0 26 -11t11 -26t-11 -25t-26 -10t-25 10t-10 25t10 26t25 11z" />
<glyph unicode="&#xfd;" horiz-adv-x="1013" d="M881 922h30l-235 -1065q-63 -287 -256 -287q-39 0 -77.5 10t-57.5 20l-19 11v31q66 -41 154 -41q79 0 138.5 64.5t86.5 191.5l31 143h-369l-205 922h31l199 -891h350zM420 1188l297 164l20 -31l-307 -154z" />
<glyph unicode="&#xfe;" horiz-adv-x="1128" d="M207 1393v-666h10q5 10 14.5 25.5t43.5 56.5t72 72t100 56.5t128 25.5q84 0 164 -38.5t141 -104.5t98.5 -160t37.5 -199t-37.5 -199t-98.5 -160t-141 -104.5t-164 -38.5q-66 0 -127 24.5t-101.5 59t-71 69t-44.5 58.5l-14 25h-10v-605h-31v1803h31zM207 655v-389 q5 -11 14.5 -29.5t44 -66.5t73.5 -84t103 -66t133 -30q102 0 196.5 61.5t154 171t59.5 238.5t-59.5 238.5t-154 171t-196.5 61.5q-69 0 -132 -28.5t-104 -69t-72.5 -81.5t-45.5 -69z" />
<glyph unicode="&#xff;" horiz-adv-x="1013" d="M881 922h30l-235 -1065q-63 -287 -256 -287q-39 0 -77.5 10t-57.5 20l-19 11v31q66 -41 154 -41q79 0 138.5 64.5t86.5 191.5l31 143h-369l-205 922h31l199 -891h350zM352 1239q15 0 26 -11t11 -26t-11 -25t-26 -10t-25 10t-10 25t10 26t25 11zM659 1239q15 0 26 -11 t11 -26t-11 -25t-26 -10t-24.5 10t-9.5 25t9.5 26t24.5 11z" />
<glyph unicode="&#x152;" horiz-adv-x="2048" d="M113 696q0 309 199 503t524 194h1130v-31h-860v-641h676v-31h-676v-659h860v-31h-1130q-325 0 -524 193.5t-199 502.5zM143 696q0 -193 86 -344t244 -236t363 -85h239v1331h-239q-205 0 -363 -85t-244 -236.5t-86 -344.5z" />
<glyph unicode="&#x153;" horiz-adv-x="1884" d="M952 297h-10q-2 -7 -5.5 -19t-18 -47.5t-33.5 -67t-52.5 -70.5t-73 -67.5t-97 -47.5t-123.5 -19q-82 0 -159.5 37t-136.5 102t-94.5 160t-35.5 203t35.5 203t94.5 160t136.5 102t159.5 37q66 0 123.5 -18.5t97.5 -48.5t72.5 -66t52.5 -72t33.5 -66t18.5 -48l5 -19h10 q2 7 6 19t20 47.5t35.5 67t53.5 70.5t73.5 67.5t96.5 47.5t121 19q168 0 296 -140t128 -342l-21 -20h-798q0 -100 34 -189.5t89.5 -150t127.5 -96t148 -35.5q144 0 244.5 77t134.5 183h31q-35 -115 -144 -203t-266 -88q-63 0 -120 18.5t-97.5 48.5t-74.5 66t-55 72t-36 66 t-21 48zM1358 932q-100 0 -191 -58t-147.5 -160.5t-56.5 -221.5h788q0 119 -56.5 221.5t-147 160.5t-189.5 58zM932 461q0 100 -33.5 189.5t-88.5 150t-126 96t-145 35.5q-75 0 -146.5 -35.5t-127 -96t-89 -150t-33.5 -189.5t33.5 -189.5t89 -150t127 -96t146.5 -35.5 q99 0 189 58.5t147 165.5t57 235v12z" />
<glyph unicode="&#x178;" horiz-adv-x="1300" d="M496 1710q15 0 25.5 -11t10.5 -26t-10.5 -25t-25.5 -10t-25 10t-10 25t10 26t25 11zM803 1710q15 0 26 -11t11 -26t-11 -25t-26 -10t-25 10t-10 25t10 26t25 11zM1239 1393l-573 -922v-471h-31v471l-574 922h41l543 -881h10l543 881h41z" />
<glyph unicode="&#x2c6;" horiz-adv-x="604" d="M287 1393h30l226 -267h-41l-201 236l-199 -236h-41z" />
<glyph unicode="&#x2dc;" horiz-adv-x="583" d="M184 1362q-40 0 -66 -30.5t-26 -82.5v-41h-31v41q0 68 34 106t89 38q34 0 65 -24t50 -53t46 -53t54 -24q40 0 66.5 30.5t26.5 82.5v41h30v-41q0 -68 -34 -106t-89 -38q-34 0 -65 24t-50 53t-46 53t-54 24z" />
<glyph unicode="&#x2000;" horiz-adv-x="973" />
<glyph unicode="&#x2001;" horiz-adv-x="1946" />
<glyph unicode="&#x2002;" horiz-adv-x="973" />
<glyph unicode="&#x2003;" horiz-adv-x="1946" />
<glyph unicode="&#x2004;" horiz-adv-x="648" />
<glyph unicode="&#x2005;" horiz-adv-x="486" />
<glyph unicode="&#x2006;" horiz-adv-x="324" />
<glyph unicode="&#x2007;" horiz-adv-x="324" />
<glyph unicode="&#x2008;" horiz-adv-x="243" />
<glyph unicode="&#x2009;" horiz-adv-x="389" />
<glyph unicode="&#x200a;" horiz-adv-x="108" />
<glyph unicode="&#x2010;" horiz-adv-x="870" d="M788 625h-706v30h706v-30z" />
<glyph unicode="&#x2011;" horiz-adv-x="870" d="M788 625h-706v30h706v-30z" />
<glyph unicode="&#x2012;" horiz-adv-x="870" d="M788 625h-706v30h706v-30z" />
<glyph unicode="&#x2013;" horiz-adv-x="1198" d="M1116 522h-1034v31h1034v-31z" />
<glyph unicode="&#x2014;" horiz-adv-x="1484" d="M1403 522h-1321v31h1321v-31z" />
<glyph unicode="&#x2018;" horiz-adv-x="368" d="M215 1194q0 -15 -10 -26t-25 -11t-26 11t-11 26q0 6 2.5 15t5.5 15l3 5l71 164h21l-62 -164q10 0 20.5 -9t10.5 -26z" />
<glyph unicode="&#x2019;" horiz-adv-x="368" d="M154 1356q0 15 9.5 26t24.5 11t26 -11t11 -26q0 -6 -2.5 -15t-4.5 -15l-3 -5l-72 -164h-20l61 164q-10 0 -20 9t-10 26z" />
<glyph unicode="&#x201a;" horiz-adv-x="368" d="M154 35q0 15 9.5 26t24.5 11t26 -11t11 -26q0 -6 -2.5 -15t-4.5 -14l-3 -6l-72 -164h-20l61 164q-10 0 -20 9t-10 26z" />
<glyph unicode="&#x201c;" horiz-adv-x="583" d="M215 1194q0 -15 -10 -26t-25 -11t-26 11t-11 26q0 6 2.5 15t5.5 15l3 5l71 164h21l-62 -164q10 0 20.5 -9t10.5 -26zM430 1194q0 -15 -10 -26t-25 -11t-26 11t-11 26q0 6 3 15l5 15l3 5l71 164h21l-62 -164q10 0 20.5 -9t10.5 -26z" />
<glyph unicode="&#x201d;" horiz-adv-x="583" d="M154 1356q0 15 9.5 26t24.5 11t26 -11t11 -26q0 -6 -2.5 -15t-4.5 -15l-3 -5l-72 -164h-20l61 164q-10 0 -20 9t-10 26zM369 1356q0 15 9.5 26t24.5 11t26 -11t11 -26q0 -6 -2.5 -15t-5.5 -15l-2 -5l-72 -164h-20l61 164q-10 0 -20 9t-10 26z" />
<glyph unicode="&#x201e;" horiz-adv-x="583" d="M154 35q0 15 9.5 26t24.5 11t26 -11t11 -26q0 -6 -2.5 -15t-4.5 -14l-3 -6l-72 -164h-20l61 164q-10 0 -20 9t-10 26zM369 35q0 15 9.5 26t24.5 11t26 -11t11 -26q0 -6 -2.5 -15t-5.5 -14l-2 -6l-72 -164h-20l61 164q-10 0 -20 9t-10 26z" />
<glyph unicode="&#x2022;" horiz-adv-x="409" d="M287 614q0 -38 -22 -60t-60 -22t-60 22t-22 60t22 60t60 22t60 -22t22 -60z" />
<glyph unicode="&#x2026;" horiz-adv-x="1054" d="M178 0q-15 0 -25 10t-10 25t10 26t25 11t26 -11t11 -26t-11 -25t-26 -10zM528 0q-15 0 -25.5 10t-10.5 25t10.5 26t25.5 11t25 -11t10 -26t-10 -25t-25 -10zM874 0q-15 0 -24.5 10t-9.5 25t9.5 26t24.5 11t26 -11t11 -26t-11 -25t-26 -10z" />
<glyph unicode="&#x202f;" horiz-adv-x="389" />
<glyph unicode="&#x2039;" horiz-adv-x="655" d="M102 471l430 451l21 -21l-410 -430l410 -430l-21 -21z" />
<glyph unicode="&#x203a;" horiz-adv-x="655" d="M123 922l430 -451l-430 -451l-21 21l410 430l-410 430z" />
<glyph unicode="&#x205f;" horiz-adv-x="486" />
<glyph unicode="&#x20ac;" horiz-adv-x="1669" d="M61 813v31h179q29 125 94 236t153.5 194t203.5 131.5t237 48.5q120 0 224 -34.5t177.5 -92.5t123 -127t73.5 -145h-31q-24 68 -71.5 131.5t-117 117.5t-168 86.5t-210.5 32.5q-114 0 -223 -46.5t-194 -125.5t-148 -184.5t-91 -222.5h629v-31h-635q-10 -56 -10 -117 q0 -27 2.5 -56.5t5.5 -45.5l2 -16h635v-31h-631q39 -156 134 -287t233.5 -211t290.5 -80q120 0 222.5 33t176 91.5t125.5 130t84 155.5h31q-32 -92 -86 -169t-131.5 -139t-185.5 -97t-236 -35q-122 0 -237 48.5t-203.5 131t-153.5 193.5t-94 235h-179v31h175q-11 57 -11 118 q0 27 2.5 56.5t5.5 45.5l3 15h-175z" />
<glyph unicode="&#x2122;" horiz-adv-x="1372" d="M20 1362v31h502v-31h-235v-584h-31v584h-236zM938 952l-283 400v-574h-30v615h41l272 -389l270 389h41v-615h-30v574z" />
<glyph unicode="&#x25fc;" horiz-adv-x="921" d="M0 922h922v-922h-922v922z" />
</font>
</defs>
</svg>
