<?xml version="1.0" standalone="no"?>
<!DOCTYPE svg PUBLIC "-//W3C//DTD SVG 1.1//EN" "http://www.w3.org/Graphics/SVG/1.1/DTD/svg11.dtd" >
<svg xmlns="http://www.w3.org/2000/svg">
<metadata></metadata>
<defs>
<font id="tt_firsblack" horiz-adv-x="1228" >
<font-face units-per-em="2048" ascent="1638" descent="-410" />
<missing-glyph horiz-adv-x="409" />
<glyph horiz-adv-x="0" />
<glyph horiz-adv-x="0" />
<glyph horiz-adv-x="682" />
<glyph unicode="&#xd;" horiz-adv-x="0" />
<glyph unicode=" "  horiz-adv-x="409" />
<glyph unicode="&#x09;" horiz-adv-x="409" />
<glyph unicode="&#xa0;" horiz-adv-x="409" />
<glyph unicode="!" horiz-adv-x="675" d="M573 1434v-594l-81 -328h-308l-82 328v594h471zM553 174q0 -85 -65 -150t-150 -65t-150 65t-65 150t65 150t150 65t150 -65t65 -150z" />
<glyph unicode="&#x22;" horiz-adv-x="901" d="M410 1434v-246l-62 -246h-225l-62 246v246h349zM840 1434v-246l-62 -246h-225l-61 246v246h348z" />
<glyph unicode="#" horiz-adv-x="1525" d="M1341 1126h123v-348h-225l-31 -123h144v-348h-246l-82 -307h-410l82 307h-102l-82 -307h-410l82 307h-123v348h226l30 123h-143v348h246l82 308h409l-82 -308h103l82 308h409zM799 655l30 123h-102l-31 -123h103z" />
<glyph unicode="$" horiz-adv-x="1126" d="M389 -41v184q-141 31 -240 138t-129 272l369 41q27 -52 73.5 -87.5t110.5 -35.5q57 0 85 17.5t28 43.5q0 16 -33 27.5t-85 22t-115.5 23.5t-127 38.5t-115.5 61t-85 97t-33 140.5q0 120 81.5 209.5t215.5 128.5v195h348v-185q283 -63 359 -368l-369 -41q-40 82 -133 82 q-42 0 -62 -12t-20 -29q0 -16 33 -27.5t85 -22t115.5 -23.5t127 -38.5t115.5 -61t85 -97t33 -140.5q0 -123 -100.5 -221.5t-268.5 -138.5v-193h-348z" />
<glyph unicode="%" horiz-adv-x="1617" d="M410 1126q0 42 -12 62t-29 20t-29 -20t-12 -62t12 -62t29 -20t29 20t12 62zM717 1126q0 -138 -105 -243t-243 -105t-243.5 105t-105.5 243t105.5 243.5t243.5 105.5t243 -105.5t105 -243.5zM1434 1434l-820 -1434h-430l820 1434h430zM1290 307q0 42 -12 62t-29 20 t-29 -20t-12 -62t12 -62t29 -20t29 20t12 62zM1597 307q0 -138 -105 -243t-243 -105t-243 105t-105 243t105 243t243 105t243 -105t105 -243z" />
<glyph unicode="&#x26;" horiz-adv-x="1443" d="M348 840l-123 184v410h983v-430h-409v-21l706 -983h-553l-71 102q-5 -7 -15 -18t-45.5 -39t-76.5 -49.5t-109.5 -39t-142.5 -17.5q-97 0 -185.5 35.5t-150.5 94.5t-99 138t-37 162q0 71 18 134t47 107.5t64 81.5t70 60t64 38.5t47 21.5l18 7v21zM594 369q18 0 36 7.5 t27 15.5l9 7l-93 144q-2 -1 -6.5 -3.5t-15 -11t-18.5 -18.5t-14.5 -26t-6.5 -33q0 -31 25.5 -56.5t56.5 -25.5z" />
<glyph unicode="'" horiz-adv-x="471" d="M410 1434v-246l-62 -246h-225l-62 246v246h349z" />
<glyph unicode="(" horiz-adv-x="839" d="M512 594q0 -74 11.5 -140.5t37.5 -125t49.5 -101.5t66.5 -94t68.5 -78t73.5 -75l-205 -349q-72 39 -146.5 99.5t-152 151.5t-137.5 195.5t-98.5 240t-38.5 276.5t38.5 276.5t98.5 239.5t137.5 195t152 151.5t146.5 99.5l205 -348q-48 -48 -73.5 -75t-68.5 -78t-66.5 -94 t-49.5 -101.5t-37.5 -125t-11.5 -140.5z" />
<glyph unicode=")" horiz-adv-x="839" d="M328 594q0 64 -10.5 124t-24.5 106t-42 96t-49 82t-59.5 76t-59.5 66t-63 64l205 348q72 -39 146.5 -99.5t152.5 -151.5t138 -195t98.5 -239.5t38.5 -276.5t-38.5 -276.5t-98.5 -240t-138 -195.5t-152.5 -151.5t-146.5 -99.5l-205 349q42 42 63 64t59.5 66t59.5 76t49 82 t42 96t24.5 106t10.5 124z" />
<glyph unicode="*" horiz-adv-x="778" d="M502 696l-113 164l-113 -164l-215 144l103 143h-123v266h215v185h266v-185h215v-266h-123l103 -143z" />
<glyph unicode="+" horiz-adv-x="1003" d="M317 819v277h369v-277h256v-368h-256v-277h-369v277h-256v368h256z" />
<glyph unicode="," horiz-adv-x="552" d="M102 -225l82 205q-5 2 -13.5 7t-29.5 23t-37 38.5t-29.5 54.5t-13.5 71q0 85 65 150t150 65t150.5 -65t65.5 -150q0 -32 -8 -60.5t-16 -40.5l-7 -12l-195 -286h-164z" />
<glyph unicode="-" horiz-adv-x="942" d="M881 451h-820v368h820v-368z" />
<glyph unicode="." horiz-adv-x="552" d="M492 174q0 -85 -65.5 -150t-150.5 -65t-150 65t-65 150t65 150t150 65t150.5 -65t65.5 -150z" />
<glyph unicode="/" horiz-adv-x="962" d="M0 0l492 1434h471l-492 -1434h-471z" />
<glyph unicode="0" horiz-adv-x="1556" d="M532 717q0 -160 73.5 -254t172.5 -94t172.5 94t73.5 254t-73.5 254t-172.5 94t-172.5 -94t-73.5 -254zM1495 717q0 -165 -57.5 -311t-155 -247.5t-229 -160.5t-275.5 -59t-275.5 59t-229 160.5t-155 247.5t-57.5 311t57.5 311t155 247.5t229 160.5t275.5 59t275.5 -59 t229 -160.5t155 -247.5t57.5 -311z" />
<glyph unicode="1" horiz-adv-x="839" d="M307 1434h430v-1434h-471v922h-225v286q104 0 177 65t89 161z" />
<glyph unicode="2" horiz-adv-x="1372" d="M614 430h676v-430h-1229v328q0 100 42 183t108.5 137.5t147.5 98.5t162 74t147.5 55t108.5 52t42 55q0 25 -33 53.5t-69 28.5q-74 0 -121.5 -39.5t-63.5 -103.5l-471 61q15 100 68 192t133.5 163.5t193.5 114t240 42.5q134 0 251 -42t195.5 -111t123.5 -157.5t45 -180.5 q0 -96 -34 -173t-90 -126t-124 -85.5t-140.5 -60.5t-134.5 -43t-110 -40.5t-64 -45.5z" />
<glyph unicode="3" horiz-adv-x="1310" d="M410 901l184 103v20h-430v410h1044v-349l-286 -184v-20q8 -1 21 -4t51.5 -17.5t73 -33.5t77 -55.5t73 -81t51.5 -112.5t21 -147q0 -93 -45.5 -180.5t-127.5 -157t-207.5 -111.5t-274.5 -42q-127 0 -240 42.5t-193.5 114t-133.5 163.5t-68 192l471 61q16 -65 63 -104 t121 -39q60 0 102 38t42 85t-42 84.5t-102 37.5h-245v287z" />
<glyph unicode="4" horiz-adv-x="1392" d="M1208 0h-471v205h-696v430l410 799h512l-410 -799h184v246h471v-246h144v-430h-144v-205z" />
<glyph unicode="5" horiz-adv-x="1331" d="M655 614h-491l123 820h921v-390h-532l-10 -81h30q270 0 432 -145.5t162 -366.5q0 -100 -45.5 -192t-127.5 -163.5t-207.5 -114t-274.5 -42.5q-127 0 -240 42.5t-193.5 114t-133.5 163.5t-68 192l471 61q16 -65 63 -104t121 -39q60 0 102 38t42 85t-42 84.5t-102 37.5z " />
<glyph unicode="6" horiz-adv-x="1310" d="M553 1434h512l-287 -430q131 -10 249.5 -86t190.5 -194t72 -243q0 -111 -45 -210t-124.5 -172.5t-197.5 -116.5t-257 -43q-281 0 -453 163.5t-172 419.5q0 68 20.5 137.5t40.5 104.5l21 35zM799 481q0 54 -39.5 93.5t-93.5 39.5t-94 -39.5t-40 -93.5t40 -93.5t94 -39.5 t93.5 39.5t39.5 93.5z" />
<glyph unicode="7" horiz-adv-x="1146" d="M614 0h-522l492 983v21h-543v430h1085v-410z" />
<glyph unicode="8" horiz-adv-x="1351" d="M676 -61q-141 0 -262.5 42t-201.5 110t-125.5 154t-45.5 175q0 52 13.5 99t35.5 80t48 61t52 45.5t48 30t36 17.5l13 5v20q-8 3 -20 10t-44 32.5t-56.5 56.5t-44.5 84.5t-20 113.5q0 74 41.5 148t114 135t182.5 99t236 38t236 -38t182 -99t113.5 -135t41.5 -148 q0 -60 -19 -113t-46 -85t-54 -56t-46 -33l-19 -10v-20q5 -2 14 -5.5t34.5 -17t48.5 -30t51.5 -45t49 -61.5t34.5 -80t14 -99q0 -89 -45.5 -175t-125.5 -154t-201.5 -110t-262.5 -42zM676 369q64 0 103.5 29t39.5 63t-39.5 63t-103.5 29q-65 0 -104.5 -29t-39.5 -63t39.5 -63 t104.5 -29zM758 993q0 24 -26 48t-56 24t-56 -24t-26 -48t26 -47.5t56 -23.5t56 23.5t26 47.5z" />
<glyph unicode="9" horiz-adv-x="1310" d="M758 0h-512l286 430q-98 7 -192 54t-164 118t-113 163.5t-43 186.5q0 111 45 210t125 173t198 117t257 43q281 0 453 -164t172 -420q0 -68 -20.5 -137t-41.5 -104l-20 -35zM512 952q0 -54 39.5 -93.5t93.5 -39.5t93.5 39.5t39.5 93.5t-39.5 93.5t-93.5 39.5t-93.5 -39.5 t-39.5 -93.5z" />
<glyph unicode=":" horiz-adv-x="552" d="M492 174q0 -85 -65.5 -150t-150.5 -65t-150 65t-65 150t65 150t150 65t150.5 -65t65.5 -150zM492 809q0 -85 -65.5 -150t-150.5 -65t-150 65t-65 150t65 150t150 65t150.5 -65t65.5 -150z" />
<glyph unicode=";" horiz-adv-x="552" d="M492 809q0 -85 -65.5 -150t-150.5 -65t-150 65t-65 150t65 150t150 65t150.5 -65t65.5 -150zM102 -225l82 205q-5 2 -13.5 7t-29.5 23t-37 38.5t-29.5 54.5t-13.5 71q0 85 65 150t150 65t150.5 -65t65.5 -150q0 -32 -8 -60.5t-16 -40.5l-7 -12l-195 -286h-164z" />
<glyph unicode="&#x3c;" horiz-adv-x="1064" d="M983 0l-922 276v431l922 276v-369l-471 -112v-21l471 -112v-369z" />
<glyph unicode="=" horiz-adv-x="983" d="M901 246h-819v327h819v-327zM901 655h-819v328h819v-328z" />
<glyph unicode="&#x3e;" horiz-adv-x="1064" d="M1004 276l-922 -276v369l471 112v21l-471 112v369l922 -276v-431z" />
<glyph unicode="?" d="M778 174q0 -85 -65 -150t-150 -65t-150 65t-65 150t65 150t150 65t150 -65t65 -150zM758 512h-389q0 72 24 131t60.5 94.5t79 66t79 50t60.5 42.5t24 46q0 46 -28 74t-74 28q-44 0 -75.5 -27.5t-47.5 -74.5l-471 62q48 209 202.5 340t391.5 131q134 0 248 -38.5 t188.5 -102.5t116 -144.5t41.5 -165.5q0 -82 -26.5 -146t-66.5 -101t-91 -70.5t-97.5 -57t-88 -59.5t-60.5 -78z" />
<glyph unicode="@" horiz-adv-x="1658" d="M1085 328h-122v61h-21q-2 -3 -5.5 -8.5t-17 -20t-30.5 -25t-47 -19.5t-64 -9q-111 0 -209 107t-98 241q0 89 47 171t118 130t142 48q34 0 64 -8.5t47.5 -20.5t30 -24t17.5 -21l5 -8h21v61h225v-369q38 19 70 67.5t32 117.5q0 130 -119.5 228.5t-310.5 98.5 q-130 0 -244 -66t-180.5 -175t-66.5 -230t66.5 -230t180.5 -175t244 -66q91 0 183.5 26t138.5 52l47 25v-328q-7 -3 -19 -8.5t-51.5 -20t-80.5 -25t-101 -19.5t-117 -9q-165 0 -317.5 64.5t-262 170.5t-174.5 249t-65 294t65 294t174.5 249.5t262 171t317.5 64.5 q172 0 316.5 -50.5t240 -136.5t148.5 -202t53 -246q0 -91 -40.5 -177t-110.5 -151t-170 -104t-212 -39zM922 655q0 31 -25.5 56.5t-56.5 25.5t-56.5 -25.5t-25.5 -56.5t25.5 -56.5t56.5 -25.5t56.5 25.5t25.5 56.5z" />
<glyph unicode="A" horiz-adv-x="1536" d="M1188 1434l348 -1434h-471l-51 225h-492l-51 -225h-471l348 1434h840zM911 655l-82 349h-122l-82 -349h286z" />
<glyph unicode="B" horiz-adv-x="1515" d="M102 1434h686q129 0 235 -31.5t171.5 -83t101 -114.5t35.5 -130q0 -49 -17 -91t-41 -67.5t-48 -43.5t-41 -25l-17 -8v-21q7 -2 18.5 -5.5t46 -18t65.5 -32t68.5 -49.5t65 -69t46 -90.5t18.5 -114.5q0 -89 -38.5 -168.5t-110.5 -140t-184.5 -96t-250.5 -35.5h-809v1434z M573 389h338q38 0 65.5 27t27.5 65t-27.5 65t-65.5 27h-338v-184zM788 1044h-215v-102h215q23 0 37.5 14t14.5 37t-14.5 37t-37.5 14z" />
<glyph unicode="C" horiz-adv-x="1638" d="M840 369q114 0 184.5 48.5t122.5 135.5l471 -61q-18 -81 -62 -160t-113.5 -150t-155.5 -125t-197 -86t-230 -32q-165 0 -317.5 64.5t-262 170.5t-174.5 249t-65 294t65 294t174.5 249t262 170.5t317.5 64.5q141 0 263.5 -42t211 -114.5t149.5 -162.5t93 -193l-471 -61 q-35 47 -65 75t-81.5 48t-119.5 20q-125 0 -226.5 -106t-101.5 -242t101.5 -242t226.5 -106z" />
<glyph unicode="D" horiz-adv-x="1515" d="M102 1434h594q165 0 311 -57.5t248 -155t161 -229t59 -275.5t-59 -275.5t-161 -229t-248 -155t-311 -57.5h-594v1434zM696 1024h-123v-614h123q123 0 215.5 92t92.5 215t-92.5 215t-215.5 92z" />
<glyph unicode="E" horiz-adv-x="1372" d="M573 410h758v-410h-1229v1434h1229v-410h-758v-123h594v-369h-594v-122z" />
<glyph unicode="F" horiz-adv-x="1331" d="M573 451v-451h-471v1434h1209v-410h-738v-164h574v-409h-574z" />
<glyph unicode="G" horiz-adv-x="1658" d="M860 -61q-165 0 -317.5 64.5t-262 170.5t-174.5 249t-65 294t65 294t174.5 249t262 170.5t317.5 64.5q141 0 263.5 -42t211 -114.5t149.5 -162.5t93 -193l-471 -61q-35 47 -65 75t-81.5 48t-119.5 20q-125 0 -226.5 -106t-101.5 -242t101.5 -242t226.5 -106 q55 0 106 15.5t74 30.5l24 15v21h-225v348h799v-123q0 -136 -61.5 -270.5t-163 -237t-242.5 -166t-291 -63.5z" />
<glyph unicode="H" horiz-adv-x="1556" d="M102 0v1434h471v-512h410v512h471v-1434h-471v492h-410v-492h-471z" />
<glyph unicode="I" horiz-adv-x="675" d="M573 1434v-1434h-471v1434h471z" />
<glyph unicode="J" horiz-adv-x="1331" d="M1229 1434v-922q0 -250 -174 -411.5t-461 -161.5q-120 0 -225 39t-180 106.5t-124.5 156.5t-64.5 189l451 102q15 -76 58 -119.5t105 -43.5t103 41t41 102v922h471z" />
<glyph unicode="K" horiz-adv-x="1536" d="M1044 0l-327 543l-144 -154v-389h-471v1434h471v-430l390 430h573l-492 -553l533 -881h-533z" />
<glyph unicode="L" horiz-adv-x="1269" d="M553 430h696v-430h-1167v1434h471v-1004z" />
<glyph unicode="M" horiz-adv-x="1884" d="M1270 1434h512v-1434h-471v819h-21l-348 -409l-348 409h-21v-819h-471v1434h512l328 -390z" />
<glyph unicode="N" horiz-adv-x="1556" d="M965 799h18v635h471v-1434h-512l-348 635h-21v-635h-471v1434h512z" />
<glyph unicode="O" horiz-adv-x="1720" d="M512 717q0 -138 105 -243t243 -105t243 105t105 243t-105 243t-243 105t-243 -105t-105 -243zM1679 717q0 -151 -65 -294t-174.5 -249t-262 -170.5t-317.5 -64.5t-317.5 64.5t-262 170.5t-174.5 249t-65 294t65 294t174.5 249t262 170.5t317.5 64.5t317.5 -64.5 t262 -170.5t174.5 -249t65 -294z" />
<glyph unicode="P" horiz-adv-x="1536" d="M881 1024h-308v-287h308q54 0 98.5 45t44.5 99t-44.5 98.5t-98.5 44.5zM102 1434h779q139 0 255 -42t194.5 -115.5t121.5 -175.5t43 -220t-43 -220t-121.5 -175.5t-194.5 -115.5t-255 -42h-308v-328h-471v1434z" />
<glyph unicode="Q" horiz-adv-x="1740" d="M1556 317l205 -194l-327 -328l-226 225q-16 -9 -45.5 -22.5t-120.5 -36t-182 -22.5q-165 0 -317.5 64.5t-262 170.5t-174.5 249t-65 294t65 294t174.5 249t262 170.5t317.5 64.5t317.5 -64.5t262 -170.5t174.5 -249t65 -294q0 -69 -12.5 -135.5t-30.5 -112t-36.5 -81.5 t-31.5 -54zM512 717q0 -138 105 -243t243 -105t243 105t105 243t-105 243t-243 105t-243 -105t-105 -243z" />
<glyph unicode="R" horiz-adv-x="1515" d="M1208 492l267 -492h-502l-195 389h-205v-389h-471v1434h758q272 0 433 -149t161 -384q0 -63 -13.5 -119t-35.5 -96.5t-48 -74.5t-52 -55t-48 -36t-35 -22zM860 1024h-287v-246h287q46 0 84.5 38.5t38.5 84.5t-38.5 84.5t-84.5 38.5z" />
<glyph unicode="S" horiz-adv-x="1372" d="M860 471q0 24 -43 42t-111.5 32.5t-151.5 33t-166 52t-151.5 81t-111.5 128t-43 184.5q0 93 42 177.5t118.5 150t194 104.5t259.5 39q127 0 237 -39t189 -107t132.5 -156t76.5 -189l-471 -62q-33 66 -72 94.5t-112 28.5q-51 0 -77 -18t-26 -43q0 -22 33.5 -38.5t88 -27.5 t124.5 -28t143.5 -36.5t143.5 -55.5t124.5 -82t88 -119.5t33.5 -165.5q0 -100 -45.5 -192t-128 -163.5t-208 -114t-274.5 -42.5q-142 0 -260.5 39.5t-203.5 112t-143 167.5t-89 213l471 61q33 -82 88.5 -122.5t157.5 -40.5q66 0 104.5 30.5t38.5 71.5z" />
<glyph unicode="T" horiz-adv-x="1372" d="M451 1004h-410v430h1290v-430h-409v-1004h-471v1004z" />
<glyph unicode="U" horiz-adv-x="1556" d="M983 573v861h471v-861q0 -137 -48.5 -254.5t-135.5 -201t-214 -131t-278 -47.5t-278 47.5t-214 131t-135.5 201t-48.5 254.5v861h471v-861q0 -92 56.5 -148t148.5 -56t148.5 56t56.5 148z" />
<glyph unicode="V" horiz-adv-x="1495" d="M788 430l236 1004h471l-348 -1434h-799l-348 1434h471l236 -1004h81z" />
<glyph unicode="W" horiz-adv-x="2088" d="M768 1434h553l133 -820h21l122 820h471l-245 -1434h-635l-133 758h-21l-133 -758h-635l-246 1434h472l122 -820h21z" />
<glyph unicode="X" horiz-adv-x="1495" d="M41 1434h512l184 -390h21l184 390h512l-369 -697l431 -737h-533l-225 410h-21l-225 -410h-532l430 737z" />
<glyph unicode="Y" horiz-adv-x="1454" d="M963 1434h512l-512 -963v-471h-471v471l-512 963h512l225 -471h20z" />
<glyph unicode="Z" horiz-adv-x="1392" d="M61 0v430l594 553v21h-573v430h1229v-430l-594 -555v-19h614v-430h-1270z" />
<glyph unicode="[" horiz-adv-x="839" d="M799 1065h-205v-942h205v-430h-676v1802h676v-430z" />
<glyph unicode="\" horiz-adv-x="962" d="M471 1434l492 -1434h-471l-492 1434h471z" />
<glyph unicode="]" horiz-adv-x="839" d="M41 123h205v942h-205v430h676v-1802h-676v430z" />
<glyph unicode="^" horiz-adv-x="921" d="M655 1434l226 -717h-328l-82 307h-20l-82 -307h-328l225 717h389z" />
<glyph unicode="_" horiz-adv-x="819" d="M819 -471h-819v369h819v-369z" />
<glyph unicode="`" horiz-adv-x="573" d="M164 1434l348 -164l-82 -205l-369 102z" />
<glyph unicode="a" d="M451 492q0 -68 45.5 -116t107.5 -48t108 48t46 116t-46 115.5t-108 47.5t-107.5 -47.5t-45.5 -115.5zM41 492q0 112 39 212t103 169.5t147.5 110t171.5 40.5q49 0 91 -12.5t67.5 -31t43.5 -36.5t26 -30l7 -13h21v82h389v-983h-389v82h-21q-2 -5 -7.5 -13.5t-25.5 -29.5 t-44 -37t-66.5 -29.5t-91.5 -13.5q-88 0 -171.5 40.5t-147.5 110t-103 170t-39 212.5z" />
<glyph unicode="b" horiz-adv-x="1249" d="M1208 492q0 -112 -39 -212.5t-102.5 -170t-147 -110t-171.5 -40.5q-49 0 -91 12.5t-67.5 30.5t-44 36.5t-25.5 31.5l-8 12h-20v-82h-390v1434h410v-512h20q3 4 8 11t24 24.5t41.5 31t61 24.5t81.5 11q118 0 223 -68t171 -191.5t66 -272.5zM799 492q0 68 -46 115.5 t-108 47.5t-107.5 -47.5t-45.5 -115.5t45.5 -116t107.5 -48t108 48t46 116z" />
<glyph unicode="c" horiz-adv-x="1157" d="M594 655q-56 0 -99.5 -48t-43.5 -115t44 -115.5t99 -48.5q93 0 133 82l410 -52q-49 -172 -188.5 -285.5t-344.5 -113.5q-150 0 -280.5 75.5t-206.5 198.5t-76 259t76 259t206.5 198t280.5 75q96 0 183 -31.5t150.5 -85t109.5 -120.5t69 -142l-409 -51q-39 61 -113 61z " />
<glyph unicode="d" horiz-adv-x="1249" d="M41 492q0 112 39 212t103 169.5t147.5 110t171.5 40.5q43 0 81 -10.5t61.5 -25.5t41 -30t24.5 -26l7 -10h20v512h410v-1434h-389v82h-21q-2 -5 -7.5 -13.5t-25.5 -29.5t-44 -37t-66.5 -29.5t-91.5 -13.5q-88 0 -171.5 40.5t-147.5 110t-103 170t-39 212.5zM451 492 q0 -68 45.5 -116t107.5 -48t108 48t46 116t-46 115.5t-108 47.5t-107.5 -47.5t-45.5 -115.5z" />
<glyph unicode="e" horiz-adv-x="1177" d="M1157 492l-102 -103h-594q8 -34 49 -68t84 -34q72 0 133 61l410 -51q-24 -69 -67 -127t-107.5 -106.5t-159.5 -76.5t-209 -28q-109 0 -211.5 45t-177 118t-119.5 170.5t-45 199.5t45 199.5t119.5 170.5t177 117.5t211.5 44.5q150 0 280.5 -75t206.5 -198t76 -259z M594 676q-36 0 -66 -24t-47 -58h226q-17 34 -47 58t-66 24z" />
<glyph unicode="f" horiz-adv-x="778" d="M61 614v369h103v21q0 212 121.5 341.5t308.5 129.5q55 0 111 -10.5t85 -20.5l29 -10l-41 -349q-61 21 -102 21q-46 0 -74.5 -28t-28.5 -74v-21h164v-369h-164v-614h-409v614h-103z" />
<glyph unicode="g" horiz-adv-x="1208" d="M451 522q0 -55 41 -94t102 -39t102 39t41 94t-41 94t-102 39t-102 -39t-41 -94zM717 41v82h-21q-2 -4 -7 -11t-23.5 -25t-40 -31.5t-57.5 -24.5t-76 -11q-83 0 -165 40t-145 107t-102 160.5t-39 194.5t39 194.5t102 160.5t145 107t165 40q46 0 86 -12.5t64.5 -31 t42 -36.5t25.5 -30l7 -13h20v82h389v-942q0 -95 -42.5 -184.5t-115 -157.5t-176 -109t-219.5 -41q-111 0 -203 28t-156 78.5t-106.5 113.5t-66.5 139l410 51q61 -61 133 -61q55 0 94 41t39 102z" />
<glyph unicode="h" horiz-adv-x="1208" d="M1126 553v-553h-409v553q0 38 -32.5 70t-70.5 32t-70 -32t-32 -70v-553h-410v1434h410v-512h20q3 4 8 11t23 24.5t40 31t58 24.5t76 11q77 0 147.5 -33.5t124 -93.5t85.5 -149.5t32 -194.5z" />
<glyph unicode="i" horiz-adv-x="593" d="M92 0v983h410v-983h-410zM512 1321q0 -85 -65 -150t-150 -65t-150 65t-65 150t65 150t150 65t150 -65t65 -150z" />
<glyph unicode="j" horiz-adv-x="604" d="M522 1321q0 -85 -65 -150t-150 -65t-150 65t-65 150t65 150t150 65t150 -65t65 -150zM512 983v-963q0 -212 -121.5 -341.5t-308.5 -129.5q-55 0 -111 10.5t-85 20.5l-29 10l41 349q61 -21 102 -21q46 0 74 28t28 74v963h410z" />
<glyph unicode="k" horiz-adv-x="1187" d="M512 276v-276h-410v1434h410v-666l195 215h471l-318 -348l348 -635h-450l-185 338z" />
<glyph unicode="l" horiz-adv-x="634" d="M123 0v1065h-103v369h512v-1434h-409z" />
<glyph unicode="m" horiz-adv-x="1638" d="M1556 594v-594h-409v594q0 23 -19.5 42t-42.5 19t-42 -19t-19 -42v-594h-410v594q0 23 -19 42t-42 19t-42 -19t-19 -42v-594h-410v983h389v-82h21q3 5 9.5 13.5t28.5 29.5t46 37t62.5 29.5t78.5 13.5t78 -12.5t63.5 -31t45 -36.5t28.5 -30l10 -13h21q3 5 9.5 13.5 t29.5 29.5t49 37t68.5 29.5t88.5 13.5q144 0 246 -118.5t102 -311.5z" />
<glyph unicode="n" horiz-adv-x="1187" d="M1106 553v-553h-410v553q0 38 -32 70t-70 32t-70 -32t-32 -70v-553h-410v983h389v-82h21q2 5 7.5 13.5t24.5 29.5t42.5 37t64 29.5t86.5 13.5q77 0 147.5 -33.5t124 -93.5t85.5 -149.5t32 -194.5z" />
<glyph unicode="o" horiz-adv-x="1208" d="M451 492q0 -68 45.5 -116t107.5 -48t108 48t46 116t-46 115.5t-108 47.5t-107.5 -47.5t-45.5 -115.5zM1167 492q0 -136 -76 -259t-206.5 -198.5t-280.5 -75.5t-280.5 75.5t-206.5 198.5t-76 259t76 259t206.5 198t280.5 75t280.5 -75t206.5 -198t76 -259z" />
<glyph unicode="p" d="M1188 492q0 -112 -39 -212.5t-103 -170t-147.5 -110t-171.5 -40.5q-43 0 -81 10.5t-61.5 25.5t-41 30t-24.5 25l-7 11h-20v-471h-410v1393h389v-82h21q2 5 7.5 13.5t25.5 29.5t44 37t66.5 29.5t91.5 13.5q88 0 171.5 -40.5t147.5 -110t103 -169.5t39 -212zM778 492 q0 68 -45.5 115.5t-107.5 47.5t-108 -47.5t-46 -115.5t46 -116t108 -48t107.5 48t45.5 116z" />
<glyph unicode="q" d="M41 492q0 112 39 212t103 169.5t147.5 110t171.5 40.5q49 0 91 -12.5t67.5 -31t43.5 -36.5t26 -30l7 -13h21v82h389v-1393h-410v471h-20q-2 -4 -7.5 -11t-24 -24.5t-41 -31t-61 -24.5t-81.5 -11q-88 0 -171.5 40.5t-147.5 110t-103 170t-39 212.5zM451 492 q0 -68 45.5 -116t107.5 -48t108 48t46 116t-46 115.5t-108 47.5t-107.5 -47.5t-45.5 -115.5z" />
<glyph unicode="r" horiz-adv-x="778" d="M737 1004v-390h-143q-38 0 -70 -32t-32 -70v-512h-410v983h389v-102h21q2 5 7.5 13.5t24.5 29.5t42.5 37t64 29.5t86.5 13.5h20z" />
<glyph unicode="s" horiz-adv-x="1044" d="M61 696q0 133 130 230.5t362 97.5q174 0 297.5 -98t173.5 -240l-389 -51q-39 61 -82 61q-22 0 -36.5 -12.5t-14.5 -28.5q0 -12 29 -20t75 -15.5t101.5 -18.5t111 -34t101.5 -56t75 -91t29 -133q0 -63 -32 -120.5t-93 -104.5t-161 -75t-226 -28q-84 0 -157.5 18.5 t-129.5 50t-101 75.5t-75 92t-49 102l410 51q39 -61 102 -61q36 0 54 12t18 29q0 12 -29 20t-75 15.5t-102 18.5t-111.5 34t-101.5 56t-75 91t-29 133z" />
<glyph unicode="t" horiz-adv-x="860" d="M61 614v369h103v246h409v-246h164v-369h-164v-184q0 -46 28.5 -74t74.5 -28q18 0 43.5 5t42.5 10l16 5l41 -348q-102 -41 -225 -41q-187 0 -308.5 129.5t-121.5 341.5v184h-103z" />
<glyph unicode="u" horiz-adv-x="1187" d="M82 430v553h410v-553q0 -38 32 -70t70 -32t70 32t32 70v553h410v-983h-389v82h-21q-2 -5 -7.5 -13.5t-24.5 -29.5t-42.5 -37t-64 -29.5t-86.5 -13.5q-77 0 -147.5 33.5t-124 93.5t-85.5 149.5t-32 194.5z" />
<glyph unicode="v" horiz-adv-x="1146" d="M225 0l-205 983h410l123 -614h41l123 614h409l-204 -983h-697z" />
<glyph unicode="w" horiz-adv-x="1638" d="M594 983h450l82 -512h21l61 512h410l-164 -983h-553l-72 512h-20l-72 -512h-553l-164 983h410l62 -512h20z" />
<glyph unicode="x" horiz-adv-x="1085" d="M655 0l-102 246h-21l-102 -246h-450l266 512l-246 471h430l102 -246h21l102 246h430l-245 -471l266 -512h-451z" />
<glyph unicode="y" horiz-adv-x="1146" d="M246 0l-226 983h410l133 -614h41l113 614h409l-184 -983q-42 -228 -160.5 -349.5t-289.5 -121.5q-55 0 -111.5 10.5t-85.5 20.5l-29 10l41 348q62 -20 103 -20q44 0 75 27t47 75h-286z" />
<glyph unicode="z" horiz-adv-x="1064" d="M983 614l-358 -225v-20h379v-369h-943v369l359 225v20h-338v369h901v-369z" />
<glyph unicode="{" horiz-adv-x="798" d="M758 -307h-287q-154 0 -251 97t-97 251l61 287q0 61 -53 61h-90v410h90q53 0 53 61l-61 287q0 154 97 251t251 97h287v-430h-103q-61 0 -61 -61l41 -185q0 -46 -14.5 -85t-35.5 -62t-42.5 -39.5t-36.5 -22.5l-14 -6v-20q6 -2 15.5 -6.5t34 -22t43.5 -39.5t34.5 -61.5 t15.5 -85.5l-41 -185q0 -61 61 -61h103v-430z" />
<glyph unicode="|" horiz-adv-x="696" d="M573 1536v-1741h-450v1741h450z" />
<glyph unicode="}" horiz-adv-x="798" d="M328 -307h-287v430h102q62 0 62 61l-41 185q0 46 14.5 85t36 62t42.5 39.5t35 22.5l15 6v20q-6 2 -15.5 6.5t-34 22t-43.5 39.5t-34.5 61.5t-15.5 85.5l41 185q0 61 -62 61h-102v430h287q154 0 251 -97t97 -251l-62 -287q0 -61 54 -61h90v-410h-90q-54 0 -54 -61l62 -287 q0 -154 -97 -251t-251 -97z" />
<glyph unicode="~" horiz-adv-x="962" d="M655 881l287 -185q0 -119 -75.5 -202.5t-170.5 -83.5q-52 0 -101.5 20.5t-90.5 41t-74 20.5q-44 0 -75.5 -27.5t-47.5 -75.5l-287 184q0 120 75.5 203.5t170.5 83.5q52 0 101.5 -20.5t90.5 -41t74 -20.5q44 0 75.5 27.5t47.5 75.5z" />
<glyph unicode="&#xa1;" horiz-adv-x="675" d="M573 143v-553h-471v553l82 328h308zM553 809q0 -85 -65 -150t-150 -65t-150 65t-65 150t65 150t150 65t150 -65t65 -150z" />
<glyph unicode="&#xa2;" horiz-adv-x="1157" d="M819 1188v-215q226 -114 297 -328l-409 -51q-39 61 -113 61q-56 0 -99.5 -48t-43.5 -115t44 -115.5t99 -48.5q93 0 133 82l410 -52q-37 -128 -114.5 -210.5t-203.5 -137.5v-194h-430v184q-152 68 -250 193.5t-98 298.5t98 298t250 191v207h430z" />
<glyph unicode="&#xa3;" d="M758 1004v-82h184v-369h-184v-164h450v-389h-1147v389h226v164h-144v369h144v82q0 227 124 359t326 132q55 0 121.5 -10.5t105.5 -20.5l40 -10l-41 -369q-62 21 -103 21q-46 0 -74 -28t-28 -74z" />
<glyph unicode="&#xa4;" horiz-adv-x="1495" d="M82 532v287h143v615h635q297 0 445.5 -121.5t148.5 -329.5t-148.5 -329.5t-445.5 -121.5h-164v-61h391v-307h-391v-164h-471v164h-143v307h143v61h-143zM860 1106h-164v-246h164q46 0 84.5 38.5t38.5 84.5t-38.5 84.5t-84.5 38.5z" />
<glyph unicode="&#xa5;" horiz-adv-x="1454" d="M-20 1434h512l225 -471h20l226 471h512l-390 -738h123v-245h-245v-62h245v-246h-245v-143h-471v143h-246v246h246v62h-246v245h123z" />
<glyph unicode="&#xa6;" horiz-adv-x="737" d="M594 1536v-758h-451v758h451zM594 553v-758h-451v758h451z" />
<glyph unicode="&#xa7;" horiz-adv-x="1126" d="M502 799v-21q0 -30 48 -56t95 -26v21q0 30 -47.5 56t-95.5 26zM1034 778q0 -34 -12.5 -66t-31 -52.5t-36.5 -36t-30 -22.5l-13 -7v-21q6 -3 15.5 -10t34.5 -31t44 -52t34.5 -74.5t15.5 -98.5q0 -162 -129.5 -265t-372.5 -103q-104 0 -191.5 28t-150 78t-104.5 113.5 t-66 138.5l410 51q39 -61 102 -61q72 0 72 51q0 10 -28 20.5t-73.5 23t-100 28.5t-109 41t-100 57t-73.5 81t-28 107q0 40 12.5 76t30.5 58.5t36.5 39.5t31.5 24l12 7v21q-5 3 -12.5 8.5t-27 26t-34.5 44.5t-27 63.5t-12 82.5q0 147 128.5 247.5t362.5 100.5 q174 0 297.5 -98t173.5 -240l-389 -51q-39 61 -82 61q-23 0 -37 -14t-14 -37q0 -11 35 -23t87 -23.5t113.5 -34.5t113.5 -53t87 -83t35 -121z" />
<glyph unicode="&#xa8;" horiz-adv-x="983" d="M451 1260q0 -76 -59.5 -135.5t-135.5 -59.5t-135.5 59.5t-59.5 135.5t59 135t136 59t136 -59t59 -135zM922 1260q0 -76 -59 -135.5t-136 -59.5t-136 59.5t-59 135.5t59 135t136 59t136 -59t59 -135z" />
<glyph unicode="&#xa9;" horiz-adv-x="1884" d="M963 707q-39 0 -71 -34t-32 -79t32 -79t71 -34q27 0 50 15.5t33 31.5l9 15l276 -41q-41 -124 -135.5 -200.5t-234.5 -76.5q-158 0 -273 110.5t-115 258.5t115 258.5t275 110.5q131 0 223 -74t125 -182l-277 -41q-30 41 -71 41zM61 594q0 242 117 444.5t319.5 319.5 t444.5 117t444.5 -117t319.5 -319.5t117 -444.5t-117 -444.5t-319.5 -319.5t-444.5 -117t-444.5 117t-319.5 319.5t-117 444.5zM1495 594q0 113 -43.5 215.5t-117.5 176.5t-176.5 117.5t-215.5 43.5t-215.5 -43.5t-176.5 -117.5t-117.5 -176.5t-43.5 -215.5t43.5 -215.5 t117.5 -176.5t176.5 -117.5t215.5 -43.5t215.5 43.5t176.5 117.5t117.5 176.5t43.5 215.5z" />
<glyph unicode="&#xaa;" horiz-adv-x="798" d="M307 1167l-225 103q4 7 12 18t37 39t61.5 50t86 39.5t110.5 17.5q151 0 239.5 -80.5t88.5 -206.5v-389h-287v61h-20q-3 -3 -7.5 -8.5t-19.5 -20t-31 -25t-39.5 -19.5t-46.5 -9q-91 0 -148 53.5t-57 131.5q0 96 77 160.5t210 64.5h62q0 15 -13 28t-28 13q-18 0 -33.5 -5 t-21.5 -11zM358 942q14 0 27 15.5t19 30.5l6 16h-41q-41 0 -41 -31t30 -31z" />
<glyph unicode="&#xab;" horiz-adv-x="1187" d="M61 492l226 409h368l-225 -409l225 -410h-368zM532 492l226 409h368l-225 -409l225 -410h-368z" />
<glyph unicode="&#xac;" horiz-adv-x="983" d="M82 492v368h819v-573h-369v205h-450z" />
<glyph unicode="&#xad;" horiz-adv-x="983" d="M901 451h-819v368h819v-368z" />
<glyph unicode="&#xae;" horiz-adv-x="1884" d="M1229 471l143 -225h-307l-102 164h-62v-164h-287v696h379q149 0 243.5 -82t94.5 -194q0 -43 -10.5 -78.5t-25.5 -56t-30 -35t-25 -20.5zM993 707h-92v-82h92q22 0 36.5 12.5t14.5 28.5t-14.5 28.5t-36.5 12.5zM61 594q0 242 117 444.5t319.5 319.5t444.5 117t444.5 -117 t319.5 -319.5t117 -444.5t-117 -444.5t-319.5 -319.5t-444.5 -117t-444.5 117t-319.5 319.5t-117 444.5zM1495 594q0 113 -43.5 215.5t-117.5 176.5t-176.5 117.5t-215.5 43.5t-215.5 -43.5t-176.5 -117.5t-117.5 -176.5t-43.5 -215.5t43.5 -215.5t117.5 -176.5 t176.5 -117.5t215.5 -43.5t215.5 43.5t176.5 117.5t117.5 176.5t43.5 215.5z" />
<glyph unicode="&#xaf;" horiz-adv-x="696" d="M61 1147v287h574v-287h-574z" />
<glyph unicode="&#xb0;" horiz-adv-x="696" d="M451 1167q0 46 -28.5 74.5t-74.5 28.5t-74 -28.5t-28 -74.5t28 -74t74 -28t74.5 28t28.5 74zM635 1167q0 -123 -82 -204.5t-205 -81.5t-205 81.5t-82 204.5t82 205t205 82t205 -82t82 -205z" />
<glyph unicode="&#xb1;" horiz-adv-x="1044" d="M963 0h-881v348h256v154h-256v368h256v277h369v-277h256v-368h-256v-154h256v-348z" />
<glyph unicode="&#xb2;" horiz-adv-x="778" d="M389 983h307v-246h-614v205q0 51 34 91.5t82 64t96 41t82 32.5t34 29q0 29 -31 29q-14 0 -26.5 -10.5t-18.5 -20.5l-6 -10l-267 41q33 114 114.5 180t213.5 66q148 0 238 -75.5t90 -180.5q0 -55 -27.5 -95t-71 -61t-87 -34.5t-85.5 -24.5t-57 -21z" />
<glyph unicode="&#xb3;" horiz-adv-x="761" d="M225 1137l103 61v10h-226v226h553v-185l-163 -92v-10q9 -1 23 -2.5t50 -14t63 -32.5t49 -61t21 -95q-2 -99 -95 -172.5t-249 -73.5q-122 0 -201.5 66.5t-111.5 179.5l266 41q2 -5 6.5 -11.5t17.5 -18t27 -11.5q31 0 31 29q0 33 -31 33h-133v133z" />
<glyph unicode="&#xb4;" horiz-adv-x="573" d="M61 1270l349 164l102 -267l-369 -102z" />
<glyph unicode="&#xb5;" horiz-adv-x="1187" d="M82 -410v1393h410v-553q0 -38 32 -70t70 -32t70 32t32 70v553h410v-983h-389v82h-21q-1 -3 -2.5 -8.5t-9 -20t-17 -25t-26.5 -19.5t-37 -9q-32 0 -55 20.5t-30 41.5l-7 20h-20v-492h-410z" />
<glyph unicode="&#xb6;" d="M41 922q0 107 40.5 201t112.5 162.5t175.5 108.5t224.5 40h594v-430h-184v-1414h-451v820q-215 0 -363.5 148.5t-148.5 363.5z" />
<glyph unicode="&#xb7;" horiz-adv-x="409" d="M420 717q0 -85 -65 -150t-150 -65t-150 65t-65 150t65 150t150 65t150 -65t65 -150z" />
<glyph unicode="&#xb8;" horiz-adv-x="655" d="M440 41l-51 -123q4 -1 11.5 -3t29 -9.5t40.5 -18t43 -29t41 -40.5t28.5 -54.5t11.5 -70.5q0 -118 -82 -192t-225 -74q-40 0 -78 10.5t-63.5 25.5t-45.5 30t-30 25l-9 11l123 143q42 -41 103 -41q37 0 59.5 18.5t22.5 43.5t-22.5 43t-59.5 18h-123l102 287h174z" />
<glyph unicode="&#xb9;" horiz-adv-x="532" d="M164 1434h287v-697h-308v389h-102v205q60 0 91.5 28t31.5 75z" />
<glyph unicode="&#xba;" horiz-adv-x="819" d="M451 1085q0 42 -12 62t-29 20t-29 -20t-12 -62t12 -61.5t29 -19.5t29 19.5t12 61.5zM758 1085q0 -138 -105 -243t-243 -105t-243.5 105t-105.5 243t105.5 243.5t243.5 105.5t243 -105.5t105 -243.5z" />
<glyph unicode="&#xbb;" horiz-adv-x="1187" d="M901 901l225 -409l-225 -410h-369l226 410l-226 409h369zM430 901l225 -409l-225 -410h-369l226 410l-226 409h369z" />
<glyph unicode="&#xbc;" horiz-adv-x="1720" d="M225 1434h287v-697h-307v389h-103v205q60 0 91.5 28t31.5 75zM1413 1434l-819 -1434h-430l819 1434h430zM1556 0h-286v82h-348v246l153 368h307l-153 -368h41v82h286v-82h62v-246h-62v-82z" />
<glyph unicode="&#xbd;" horiz-adv-x="1720" d="M225 1434h287v-697h-307v389h-103v205q60 0 91.5 28t31.5 75zM1413 1434l-819 -1434h-430l819 1434h430zM1290 246h307v-246h-614v205q0 51 34 91.5t82 64t96 41t82 32.5t34 29q0 29 -31 29q-14 0 -26.5 -10t-18.5 -20l-6 -11l-266 41q33 114 114 179.5t213 65.5 q148 0 238 -75.5t90 -180.5q0 -46 -20.5 -82t-51 -56.5t-70 -36.5t-74 -24t-67 -17.5t-45.5 -18.5z" />
<glyph unicode="&#xbe;" horiz-adv-x="1802" d="M246 1137l102 61v10h-225v226h553v-185l-164 -92v-10q9 -1 23 -2.5t50 -14t63.5 -32.5t49.5 -61t21 -95q-2 -99 -95 -172.5t-249 -73.5q-122 0 -202 66.5t-112 179.5l267 41q2 -5 6.5 -11.5t17.5 -18t27 -11.5q31 0 31 29q0 33 -31 33h-133v133zM1495 1434l-819 -1434 h-430l819 1434h430zM1638 0h-286v82h-348v246l153 368h307l-153 -368h41v82h286v-82h62v-246h-62v-82z" />
<glyph unicode="&#xbf;" d="M451 809q0 85 65 150t150 65t150 -65t65 -150t-65 -150t-150 -65t-150 65t-65 150zM471 471h389q0 -72 -24.5 -128t-60.5 -87t-79 -56.5t-79 -40t-60.5 -34.5t-24.5 -43q0 -46 28.5 -74t74.5 -28q44 0 75.5 27.5t47.5 74.5l471 -62q-48 -209 -202.5 -340t-391.5 -131 q-134 0 -248 38.5t-188.5 102.5t-116 144.5t-41.5 165.5q0 82 26.5 143t66.5 93t91 60.5t97.5 48t88 52t60.5 74.5z" />
<glyph unicode="&#xc0;" horiz-adv-x="1536" d="M1188 1434l348 -1434h-471l-51 225h-492l-51 -225h-471l348 1434h840zM911 655l-82 349h-122l-82 -349h286zM655 1987l349 -164l-82 -205l-369 102z" />
<glyph unicode="&#xc1;" horiz-adv-x="1536" d="M1188 1434l348 -1434h-471l-51 225h-492l-51 -225h-471l348 1434h840zM911 655l-82 349h-122l-82 -349h286zM559 1823l348 164l103 -267l-369 -102z" />
<glyph unicode="&#xc2;" horiz-adv-x="1536" d="M1188 1434l348 -1434h-471l-51 225h-492l-51 -225h-471l348 1434h840zM911 655l-82 349h-122l-82 -349h286zM627 1966h286l246 -369h-307l-72 123h-20l-72 -123h-307z" />
<glyph unicode="&#xc3;" horiz-adv-x="1536" d="M1188 1434l348 -1434h-471l-51 225h-492l-51 -225h-471l348 1434h840zM911 655l-82 349h-122l-82 -349h286zM655 1618h-225v143q0 91 53 148t131 57q44 0 86.5 -20.5t73 -41t45.5 -20.5q62 0 62 62h225v-144q0 -91 -53 -148t-131 -57q-44 0 -86.5 20.5t-73 41t-45.5 20.5 q-62 0 -62 -61z" />
<glyph unicode="&#xc4;" horiz-adv-x="1536" d="M1188 1434l348 -1434h-471l-51 225h-492l-51 -225h-471l348 1434h840zM911 655l-82 349h-122l-82 -349h286zM727 1792q0 -76 -59.5 -135.5t-135.5 -59.5t-135 59t-59 136t59 136t135 59t135.5 -59.5t59.5 -135.5zM1198 1792q0 -77 -59 -136t-135 -59t-135.5 59.5 t-59.5 135.5t59.5 135.5t135.5 59.5t135 -59t59 -136z" />
<glyph unicode="&#xc5;" horiz-adv-x="1536" d="M1188 1434l348 -1434h-471l-51 225h-492l-51 -225h-471l348 1434h840zM911 655l-82 349h-122l-82 -349h286zM1024 1782q0 -107 -69.5 -176.5t-176.5 -69.5t-176.5 69.5t-69.5 176.5t69.5 176.5t176.5 69.5t176.5 -69.5t69.5 -176.5zM860 1782q0 31 -25.5 56.5t-56.5 25.5 t-56.5 -25.5t-25.5 -56.5t25.5 -56.5t56.5 -25.5t56.5 25.5t25.5 56.5z" />
<glyph unicode="&#xc6;" horiz-adv-x="2119" d="M1321 410h758v-410h-1229v225h-369l-51 -225h-471l348 1434h1772v-410h-758v-123h594v-369h-594v-122zM666 1004l-82 -349h266v349h-184z" />
<glyph unicode="&#xc7;" horiz-adv-x="1638" d="M840 369q114 0 184.5 48.5t122.5 135.5l471 -61q-22 -96 -81 -188.5t-145.5 -169.5t-207.5 -129t-256 -62l-27 -66q4 -1 11.5 -3t29 -9.5t40.5 -18t43 -29t41 -40.5t28.5 -54.5t11.5 -70.5q0 -118 -82 -192t-225 -74q-40 0 -78 10.5t-63.5 25.5t-45.5 30t-30 26l-9 10 l123 143q42 -41 103 -41q37 0 59.5 18.5t22.5 43.5t-22.5 43t-59.5 18h-123l82 232q-198 25 -363 136.5t-259.5 280t-94.5 355.5q0 151 65 294t174.5 249t262 170.5t317.5 64.5q141 0 263.5 -42t211 -114.5t149.5 -162.5t93 -193l-471 -61q-35 47 -65 75t-81.5 48t-119.5 20 q-125 0 -226.5 -106t-101.5 -242t101.5 -242t226.5 -106z" />
<glyph unicode="&#xc8;" horiz-adv-x="1372" d="M573 410h758v-410h-1229v1434h1229v-410h-758v-123h594v-369h-594v-122zM633 1966l348 -164l-82 -205l-369 103z" />
<glyph unicode="&#xc9;" horiz-adv-x="1372" d="M573 410h758v-410h-1229v1434h1229v-410h-758v-123h594v-369h-594v-122zM514 1802l348 164l103 -266l-369 -103z" />
<glyph unicode="&#xca;" horiz-adv-x="1372" d="M573 410h758v-410h-1229v1434h1229v-410h-758v-123h594v-369h-594v-122zM575 1966h287l246 -369h-307l-72 123h-20l-72 -123h-307z" />
<glyph unicode="&#xcb;" horiz-adv-x="1372" d="M573 410h758v-410h-1229v1434h1229v-410h-758v-123h594v-369h-594v-122zM686 1792q0 -77 -59 -136t-135 -59t-135.5 59.5t-59.5 135.5t59.5 135.5t135.5 59.5t135 -59t59 -136zM1157 1792q0 -77 -59 -136t-135 -59q-77 0 -136 59.5t-59 135.5t59 135.5t136 59.5 q76 0 135 -59t59 -136z" />
<glyph unicode="&#xcc;" horiz-adv-x="677" d="M573 1434v-1434h-471v1434h471zM227 1966l348 -164l-81 -205l-369 103z" />
<glyph unicode="&#xcd;" horiz-adv-x="675" d="M573 1434v-1434h-471v1434h471zM115 1823l348 164l102 -267l-368 -102z" />
<glyph unicode="&#xce;" horiz-adv-x="675" d="M573 1434v-1434h-471v1434h471zM195 1987h286l246 -369h-307l-72 123h-20l-72 -123h-307z" />
<glyph unicode="&#xcf;" horiz-adv-x="737" d="M604 1434v-1434h-471v1434h471zM328 1812q0 -76 -59 -135t-136 -59t-135.5 59t-58.5 135q0 77 59 136t135 59q77 0 136 -59.5t59 -135.5zM799 1812q0 -76 -59 -135t-136 -59q-76 0 -135 59t-59 135q0 77 59 136t135 59t135.5 -59.5t59.5 -135.5z" />
<glyph unicode="&#xd0;" horiz-adv-x="1576" d="M41 532v369h123v533h594q165 0 311 -57.5t247.5 -155t160.5 -229t59 -275.5t-59 -275.5t-160.5 -229t-247.5 -155t-311 -57.5h-594v532h-123zM758 1024h-123v-123h164v-369h-164v-122h123q123 0 215 92t92 215t-92 215t-215 92z" />
<glyph unicode="&#xd1;" horiz-adv-x="1556" d="M965 799h18v635h471v-1434h-512l-348 635h-21v-635h-471v1434h512zM676 1618h-225v143q0 91 53 148t131 57q44 0 86.5 -20.5t73 -41t45.5 -20.5q61 0 61 62h225v-144q0 -91 -53 -148t-131 -57q-44 0 -86.5 20.5t-73 41t-45.5 20.5q-61 0 -61 -61z" />
<glyph unicode="&#xd2;" horiz-adv-x="1720" d="M512 717q0 -138 105 -243t243 -105t243 105t105 243t-105 243t-243 105t-243 -105t-105 -243zM1679 717q0 -151 -65 -294t-174.5 -249t-262 -170.5t-317.5 -64.5t-317.5 64.5t-262 170.5t-174.5 249t-65 294t65 294t174.5 249t262 170.5t317.5 64.5t317.5 -64.5 t262 -170.5t174.5 -249t65 -294zM756 1987l348 -164l-82 -205l-369 102z" />
<glyph unicode="&#xd3;" horiz-adv-x="1720" d="M512 717q0 -138 105 -243t243 -105t243 105t105 243t-105 243t-243 105t-243 -105t-105 -243zM1679 717q0 -151 -65 -294t-174.5 -249t-262 -170.5t-317.5 -64.5t-317.5 64.5t-262 170.5t-174.5 249t-65 294t65 294t174.5 249t262 170.5t317.5 64.5t317.5 -64.5 t262 -170.5t174.5 -249t65 -294zM625 1823l348 164l102 -267l-368 -102z" />
<glyph unicode="&#xd4;" horiz-adv-x="1720" d="M512 717q0 -138 105 -243t243 -105t243 105t105 243t-105 243t-243 105t-243 -105t-105 -243zM1679 717q0 -151 -65 -294t-174.5 -249t-262 -170.5t-317.5 -64.5t-317.5 64.5t-262 170.5t-174.5 249t-65 294t65 294t174.5 249t262 170.5t317.5 64.5t317.5 -64.5 t262 -170.5t174.5 -249t65 -294zM733 1987h287l246 -369h-308l-71 123h-21l-71 -123h-308z" />
<glyph unicode="&#xd5;" horiz-adv-x="1720" d="M512 717q0 -138 105 -243t243 -105t243 105t105 243t-105 243t-243 105t-243 -105t-105 -243zM1679 717q0 -151 -65 -294t-174.5 -249t-262 -170.5t-317.5 -64.5t-317.5 64.5t-262 170.5t-174.5 249t-65 294t65 294t174.5 249t262 170.5t317.5 64.5t317.5 -64.5 t262 -170.5t174.5 -249t65 -294zM766 1638h-225v144q0 91 53 148t131 57q44 0 86.5 -20.5t73 -41t45.5 -20.5q61 0 61 61h226v-143q0 -91 -53.5 -148t-131.5 -57q-44 0 -86.5 20.5t-73 41t-45.5 20.5q-61 0 -61 -62z" />
<glyph unicode="&#xd6;" horiz-adv-x="1720" d="M512 717q0 -138 105 -243t243 -105t243 105t105 243t-105 243t-243 105t-243 -105t-105 -243zM1679 717q0 -151 -65 -294t-174.5 -249t-262 -170.5t-317.5 -64.5t-317.5 64.5t-262 170.5t-174.5 249t-65 294t65 294t174.5 249t262 170.5t317.5 64.5t317.5 -64.5 t262 -170.5t174.5 -249t65 -294zM840 1833q0 -77 -59 -136t-136 -59q-76 0 -135 59t-59 136t59 136t135 59q77 0 136 -59t59 -136zM1311 1833q0 -77 -59.5 -136t-135.5 -59t-135 59t-59 136t59 136t135 59t135.5 -59t59.5 -136z" />
<glyph unicode="&#xd7;" horiz-adv-x="1064" d="M799 635l184 -195l-266 -256l-185 195l-184 -195l-266 256l184 195l-184 194l266 256l184 -194l185 194l266 -256z" />
<glyph unicode="&#xd8;" horiz-adv-x="1802" d="M0 195v286l109 45q-27 92 -27 191q0 151 65 294t174.5 249t262 170.5t317.5 64.5q202 0 379 -93.5t293 -250.5l229 98v-276l-114 -49q32 -109 32 -207q0 -151 -65 -294t-174.5 -249t-262 -170.5t-317.5 -64.5q-208 0 -387.5 95.5t-292.5 256.5zM1249 717v16l-596 -256 q108 -108 248 -108q138 0 243 105t105 243zM553 717l586 250q-105 98 -238 98q-138 0 -243 -105t-105 -243z" />
<glyph unicode="&#xd9;" horiz-adv-x="1556" d="M983 573v861h471v-861q0 -137 -48.5 -254.5t-135.5 -201t-214 -131t-278 -47.5t-278 47.5t-214 131t-135.5 201t-48.5 254.5v861h471v-861q0 -92 56.5 -148t148.5 -56t148.5 56t56.5 148zM645 1987l348 -164l-82 -205l-368 102z" />
<glyph unicode="&#xda;" horiz-adv-x="1556" d="M983 573v861h471v-861q0 -137 -48.5 -254.5t-135.5 -201t-214 -131t-278 -47.5t-278 47.5t-214 131t-135.5 201t-48.5 254.5v861h471v-861q0 -92 56.5 -148t148.5 -56t148.5 56t56.5 148zM573 1823l349 164l102 -267l-369 -102z" />
<glyph unicode="&#xdb;" horiz-adv-x="1556" d="M983 573v861h471v-861q0 -137 -48.5 -254.5t-135.5 -201t-214 -131t-278 -47.5t-278 47.5t-214 131t-135.5 201t-48.5 254.5v861h471v-861q0 -92 56.5 -148t148.5 -56t148.5 56t56.5 148zM645 1987h287l246 -369h-308l-71 123h-21l-71 -123h-308z" />
<glyph unicode="&#xdc;" horiz-adv-x="1556" d="M983 573v861h471v-861q0 -137 -48.5 -254.5t-135.5 -201t-214 -131t-278 -47.5t-278 47.5t-214 131t-135.5 201t-48.5 254.5v861h471v-861q0 -92 56.5 -148t148.5 -56t148.5 56t56.5 148zM727 1812q0 -76 -59 -135t-136 -59q-76 0 -135 59t-59 135q0 77 59 136t135 59 t135.5 -59.5t59.5 -135.5zM1198 1812q0 -76 -59 -135t-135 -59q-77 0 -136 59t-59 135t59.5 135.5t135.5 59.5t135 -59t59 -136z" />
<glyph unicode="&#xdd;" horiz-adv-x="1454" d="M963 1434h512l-512 -963v-471h-471v471l-512 963h512l225 -471h20zM510 1802l348 164l103 -266l-369 -103z" />
<glyph unicode="&#xde;" horiz-adv-x="1392" d="M573 1372h82q158 0 293 -50.5t227.5 -138.5t144.5 -208.5t52 -257.5t-52 -258t-144.5 -208.5t-227.5 -138.5t-293 -51h-82v-102h-471v1516h471v-103zM901 717q0 107 -69.5 176.5t-176.5 69.5h-82v-492h82q107 0 176.5 69.5t69.5 176.5z" />
<glyph unicode="&#xdf;" horiz-adv-x="1187" d="M655 0h-102v369h102q46 0 74.5 28t28.5 74t-28.5 74t-74.5 28h-102v369q38 0 60 22t22 60q0 37 -20.5 59.5t-51.5 22.5t-51 -22t-20 -60v-1024h-410v1024q0 202 130.5 326.5t350.5 124.5q108 0 200 -31.5t152.5 -84t94.5 -118.5t34 -135q0 -52 -17 -96t-41 -70.5 t-47.5 -45.5t-40.5 -26l-17 -8v-20l16.5 -5.5t40 -18.5t56.5 -34t60 -53t56.5 -74t40 -99t16.5 -126q0 -190 -136 -310t-376 -120z" />
<glyph unicode="&#xe0;" d="M451 492q0 -68 45.5 -116t107.5 -48t108 48t46 116t-46 115.5t-108 47.5t-107.5 -47.5t-45.5 -115.5zM41 492q0 112 39 212t103 169.5t147.5 110t171.5 40.5q49 0 91 -12.5t67.5 -31t43.5 -36.5t26 -30l7 -13h21v82h389v-983h-389v82h-21q-2 -5 -7.5 -13.5t-25.5 -29.5 t-44 -37t-66.5 -29.5t-91.5 -13.5q-88 0 -171.5 40.5t-147.5 110t-103 170t-39 212.5zM494 1536l348 -164l-82 -205l-369 103z" />
<glyph unicode="&#xe1;" d="M451 492q0 -68 45.5 -116t107.5 -48t108 48t46 116t-46 115.5t-108 47.5t-107.5 -47.5t-45.5 -115.5zM41 492q0 112 39 212t103 169.5t147.5 110t171.5 40.5q49 0 91 -12.5t67.5 -31t43.5 -36.5t26 -30l7 -13h21v82h389v-983h-389v82h-21q-2 -5 -7.5 -13.5t-25.5 -29.5 t-44 -37t-66.5 -29.5t-91.5 -13.5q-88 0 -171.5 40.5t-147.5 110t-103 170t-39 212.5zM410 1372l348 164l102 -266l-368 -103z" />
<glyph unicode="&#xe2;" d="M451 492q0 -68 45.5 -116t107.5 -48t108 48t46 116t-46 115.5t-108 47.5t-107.5 -47.5t-45.5 -115.5zM41 492q0 112 39 212t103 169.5t147.5 110t171.5 40.5q49 0 91 -12.5t67.5 -31t43.5 -36.5t26 -30l7 -13h21v82h389v-983h-389v82h-21q-2 -5 -7.5 -13.5t-25.5 -29.5 t-44 -37t-66.5 -29.5t-91.5 -13.5q-88 0 -171.5 40.5t-147.5 110t-103 170t-39 212.5zM483 1536h287l246 -369h-307l-72 123h-21l-71 -123h-307z" />
<glyph unicode="&#xe3;" d="M451 492q0 -68 45.5 -116t107.5 -48t108 48t46 116t-46 115.5t-108 47.5t-107.5 -47.5t-45.5 -115.5zM41 492q0 112 39 212t103 169.5t147.5 110t171.5 40.5q49 0 91 -12.5t67.5 -31t43.5 -36.5t26 -30l7 -13h21v82h389v-983h-389v82h-21q-2 -5 -7.5 -13.5t-25.5 -29.5 t-44 -37t-66.5 -29.5t-91.5 -13.5q-88 0 -171.5 40.5t-147.5 110t-103 170t-39 212.5zM520 1167h-225v144q0 91 53 148t131 57q44 0 86.5 -20.5t73 -41t45.5 -20.5q61 0 61 61h226v-143q0 -91 -53.5 -148t-131.5 -57q-44 0 -86 20.5t-72.5 41t-45.5 20.5q-62 0 -62 -62z" />
<glyph unicode="&#xe4;" d="M451 492q0 -68 45.5 -116t107.5 -48t108 48t46 116t-46 115.5t-108 47.5t-107.5 -47.5t-45.5 -115.5zM41 492q0 112 39 212t103 169.5t147.5 110t171.5 40.5q49 0 91 -12.5t67.5 -31t43.5 -36.5t26 -30l7 -13h21v82h389v-983h-389v82h-21q-2 -5 -7.5 -13.5t-25.5 -29.5 t-44 -37t-66.5 -29.5t-91.5 -13.5q-88 0 -171.5 40.5t-147.5 110t-103 170t-39 212.5zM594 1362q0 -76 -59 -135.5t-136 -59.5q-76 0 -135 59t-59 136q0 76 58.5 135t135.5 59t136 -59t59 -135zM1065 1362q0 -76 -59.5 -135.5t-135.5 -59.5t-135 59t-59 136q0 76 59 135 t135 59q77 0 136 -59t59 -135z" />
<glyph unicode="&#xe5;" d="M451 492q0 -68 45.5 -116t107.5 -48t108 48t46 116t-46 115.5t-108 47.5t-107.5 -47.5t-45.5 -115.5zM41 492q0 112 39 212t103 169.5t147.5 110t171.5 40.5q49 0 91 -12.5t67.5 -31t43.5 -36.5t26 -30l7 -13h21v82h389v-983h-389v82h-21q-2 -5 -7.5 -13.5t-25.5 -29.5 t-44 -37t-66.5 -29.5t-91.5 -13.5q-88 0 -171.5 40.5t-147.5 110t-103 170t-39 212.5zM870 1393q0 -107 -69 -176.5t-176 -69.5t-176.5 69.5t-69.5 176.5t69.5 176t176.5 69t176 -69t69 -176zM707 1393q0 31 -25.5 56.5t-56.5 25.5t-56.5 -25.5t-25.5 -56.5t25.5 -56.5 t56.5 -25.5t56.5 25.5t25.5 56.5z" />
<glyph unicode="&#xe6;" horiz-adv-x="1699" d="M1679 492l-102 -103h-594q8 -34 49 -68t84 -34q72 0 133 61l410 -51q-24 -69 -67 -127t-107.5 -106.5t-159.5 -76.5t-209 -28q-55 0 -106.5 12.5t-86.5 30.5t-62 36.5t-39 31.5l-13 12h-21q-5 -5 -15.5 -13.5t-45.5 -29.5t-74 -37t-99.5 -29.5t-123.5 -13.5 q-205 0 -317.5 88t-112.5 219q0 129 122 218t329 89h122q0 37 -21.5 59.5t-59.5 22.5q-27 0 -47.5 -10.5t-27.5 -20.5l-7 -10l-338 144q2 6 5.5 15.5t19 37t35 52.5t55 56t77.5 53t104.5 37t133.5 15q57 0 110 -13t87 -31t60.5 -36.5t38.5 -30.5l11 -12h20l7 7 q6 7 18.5 17.5t30 23.5t42 26.5t52 24t63.5 17.5t74 7q150 0 280.5 -75t206.5 -198t76 -259zM1116 676q-36 0 -65.5 -24t-46.5 -58h225q-17 34 -47 58t-66 24zM453 246q22 0 43 8.5t34.5 20.5t24 24t15.5 21l5 8h-122q-17 0 -30 -13t-13 -28t13 -28t30 -13z" />
<glyph unicode="&#xe7;" horiz-adv-x="1157" d="M594 655q-56 0 -99.5 -48t-43.5 -115t44 -115.5t99 -48.5q93 0 133 82l410 -52q-47 -163 -176 -274.5t-318 -122.5l-25 -63q8 -2 22 -6t49.5 -21t62.5 -40t49 -65t22 -94q0 -118 -82 -192t-225 -74q-40 0 -78 10.5t-63.5 25.5t-45 30t-29.5 26l-9 10l123 144 q5 -5 13.5 -11.5t35 -18t53.5 -11.5q37 0 59.5 18t22.5 43t-22.5 43.5t-59.5 18.5h-123l86 239q-187 43 -312.5 191.5t-125.5 327.5q0 136 76 259t206.5 198t280.5 75q96 0 183 -31.5t150.5 -85t109.5 -120.5t69 -142l-409 -51q-39 61 -113 61z" />
<glyph unicode="&#xe8;" horiz-adv-x="1177" d="M1157 492l-102 -103h-594q8 -34 49 -68t84 -34q72 0 133 61l410 -51q-24 -69 -67 -127t-107.5 -106.5t-159.5 -76.5t-209 -28q-109 0 -211.5 45t-177 118t-119.5 170.5t-45 199.5t45 199.5t119.5 170.5t177 117.5t211.5 44.5q150 0 280.5 -75t206.5 -198t76 -259z M594 676q-36 0 -66 -24t-47 -58h226q-17 34 -47 58t-66 24zM512 1536l348 -164l-82 -205l-368 103z" />
<glyph unicode="&#xe9;" horiz-adv-x="1177" d="M1157 492l-102 -103h-594q8 -34 49 -68t84 -34q72 0 133 61l410 -51q-24 -69 -67 -127t-107.5 -106.5t-159.5 -76.5t-209 -28q-109 0 -211.5 45t-177 118t-119.5 170.5t-45 199.5t45 199.5t119.5 170.5t177 117.5t211.5 44.5q150 0 280.5 -75t206.5 -198t76 -259z M594 676q-36 0 -66 -24t-47 -58h226q-17 34 -47 58t-66 24zM408 1372l348 164l102 -266l-369 -103z" />
<glyph unicode="&#xea;" horiz-adv-x="1177" d="M1157 492l-102 -103h-594q8 -34 49 -68t84 -34q72 0 133 61l410 -51q-24 -69 -67 -127t-107.5 -106.5t-159.5 -76.5t-209 -28q-109 0 -211.5 45t-177 118t-119.5 170.5t-45 199.5t45 199.5t119.5 170.5t177 117.5t211.5 44.5q150 0 280.5 -75t206.5 -198t76 -259z M594 676q-36 0 -66 -24t-47 -58h226q-17 34 -47 58t-66 24zM463 1516h287l245 -369h-307l-72 123h-20l-72 -123h-307z" />
<glyph unicode="&#xeb;" horiz-adv-x="1177" d="M1157 492l-102 -103h-594q8 -34 49 -68t84 -34q72 0 133 61l410 -51q-24 -69 -67 -127t-107.5 -106.5t-159.5 -76.5t-209 -28q-109 0 -211.5 45t-177 118t-119.5 170.5t-45 199.5t45 199.5t119.5 170.5t177 117.5t211.5 44.5q150 0 280.5 -75t206.5 -198t76 -259z M594 676q-36 0 -66 -24t-47 -58h226q-17 34 -47 58t-66 24zM553 1341q0 -76 -59 -135t-136 -59q-76 0 -135 58.5t-59 135.5t59 136t135 59t135.5 -59t59.5 -136zM1024 1341q0 -76 -59 -135t-136 -59t-135.5 58.5t-58.5 135.5t59 136t135 59q77 0 136 -59t59 -136z" />
<glyph unicode="&#xec;" horiz-adv-x="593" d="M92 0v983h410v-983h-410zM184 1516l348 -164l-81 -205l-369 102z" />
<glyph unicode="&#xed;" horiz-adv-x="593" d="M61 1352l349 164l102 -267l-369 -102zM92 0v983h410v-983h-410z" />
<glyph unicode="&#xee;" horiz-adv-x="593" d="M154 1495h286l246 -369h-307l-72 123h-20l-72 -123h-307zM92 0v983h410v-983h-410z" />
<glyph unicode="&#xef;" horiz-adv-x="696" d="M307 1321q0 -77 -59 -136t-135 -59q-77 0 -136 59t-59 136t59 136t136 59q76 0 135 -59t59 -136zM778 1321q0 -77 -59 -136t-135 -59t-135.5 59t-59.5 136t59.5 136t135.5 59t135 -59t59 -136zM164 0v983h409v-983h-409z" />
<glyph unicode="&#xf0;" horiz-adv-x="1167" d="M1055 1331l-113 -82q7 -7 18 -20t39 -60t50 -101.5t39.5 -144t17.5 -186.5v-245q0 -231 -153 -382t-390 -151q-116 0 -218 39.5t-173 106.5t-111.5 157t-40.5 189q0 121 66.5 230t178.5 175t237 66q45 0 91 -10t69 -20l24 -11q0 45 -13 83.5t-25 53.5l-13 16l-113 -82 l-174 236l113 82l-92 102l297 225l102 -112l113 82zM696 451q0 55 -36 88.5t-97 33.5t-97 -33.5t-36 -88.5t36 -89t97 -34t97 34t36 89z" />
<glyph unicode="&#xf1;" horiz-adv-x="1187" d="M1106 553v-553h-410v553q0 38 -32 70t-70 32t-70 -32t-32 -70v-553h-410v983h389v-82h21q2 5 7.5 13.5t24.5 29.5t42.5 37t64 29.5t86.5 13.5q77 0 147.5 -33.5t124 -93.5t85.5 -149.5t32 -194.5zM481 1188h-225v143q0 91 53 148t131 57q44 0 86.5 -20.5t73 -41 t45.5 -20.5q62 0 62 62h225v-144q0 -91 -53 -148t-131 -57q-44 0 -86.5 20.5t-73 41t-45.5 20.5q-62 0 -62 -61z" />
<glyph unicode="&#xf2;" horiz-adv-x="1208" d="M451 492q0 -68 45.5 -116t107.5 -48t108 48t46 116t-46 115.5t-108 47.5t-107.5 -47.5t-45.5 -115.5zM1167 492q0 -136 -76 -259t-206.5 -198.5t-280.5 -75.5t-280.5 75.5t-206.5 198.5t-76 259t76 259t206.5 198t280.5 75t280.5 -75t206.5 -198t76 -259zM492 1516 l348 -164l-82 -205l-369 102z" />
<glyph unicode="&#xf3;" horiz-adv-x="1208" d="M451 492q0 -68 45.5 -116t107.5 -48t108 48t46 116t-46 115.5t-108 47.5t-107.5 -47.5t-45.5 -115.5zM1167 492q0 -136 -76 -259t-206.5 -198.5t-280.5 -75.5t-280.5 75.5t-206.5 198.5t-76 259t76 259t206.5 198t280.5 75t280.5 -75t206.5 -198t76 -259zM387 1372 l348 164l103 -266l-369 -103z" />
<glyph unicode="&#xf4;" horiz-adv-x="1208" d="M451 492q0 -68 45.5 -116t107.5 -48t108 48t46 116t-46 115.5t-108 47.5t-107.5 -47.5t-45.5 -115.5zM1167 492q0 -136 -76 -259t-206.5 -198.5t-280.5 -75.5t-280.5 75.5t-206.5 198.5t-76 259t76 259t206.5 198t280.5 75t280.5 -75t206.5 -198t76 -259zM471 1536h287 l246 -369h-308l-71 123h-21l-72 -123h-307z" />
<glyph unicode="&#xf5;" horiz-adv-x="1208" d="M451 492q0 -68 45.5 -116t107.5 -48t108 48t46 116t-46 115.5t-108 47.5t-107.5 -47.5t-45.5 -115.5zM1167 492q0 -136 -76 -259t-206.5 -198.5t-280.5 -75.5t-280.5 75.5t-206.5 198.5t-76 259t76 259t206.5 198t280.5 75t280.5 -75t206.5 -198t76 -259zM506 1167h-225 v144q0 91 53 148t131 57q44 0 86.5 -20.5t73 -41t45.5 -20.5q61 0 61 61h225v-143q0 -91 -53 -148t-131 -57q-44 0 -86.5 20.5t-73 41t-45.5 20.5q-61 0 -61 -62z" />
<glyph unicode="&#xf6;" horiz-adv-x="1208" d="M451 492q0 -68 45.5 -116t107.5 -48t108 48t46 116t-46 115.5t-108 47.5t-107.5 -47.5t-45.5 -115.5zM1167 492q0 -136 -76 -259t-206.5 -198.5t-280.5 -75.5t-280.5 75.5t-206.5 198.5t-76 259t76 259t206.5 198t280.5 75t280.5 -75t206.5 -198t76 -259zM563 1362 q0 -77 -59 -136t-135 -59q-77 0 -136 59.5t-59 135.5t59 135t136 59t135.5 -59t58.5 -135zM1034 1362q0 -77 -59 -136t-135 -59t-135.5 59.5t-59.5 135.5t59 135t136 59q76 0 135 -59t59 -135z" />
<glyph unicode="&#xf7;" horiz-adv-x="983" d="M82 451v368h819v-368h-819zM492 -20q-85 0 -150.5 65t-65.5 150t65.5 150t150.5 65t150 -65t65 -150t-65 -150t-150 -65zM492 1290q85 0 150 -65t65 -150t-65 -150t-150 -65t-150.5 65t-65.5 150t65.5 150t150.5 65z" />
<glyph unicode="&#xf8;" d="M0 133v195l72 28q-21 64 -21 136q0 136 76 259t206.5 198t280.5 75q139 0 262.5 -67t202.5 -177l150 64v-189l-72 -30q21 -64 21 -133q0 -136 -76 -259t-207 -198.5t-281 -75.5q-139 0 -261 65t-201 173zM614 655q-55 0 -97.5 -38t-53.5 -95l242 101q-43 32 -91 32z M614 328q54 0 97 37t53 94l-238 -103q42 -28 88 -28z" />
<glyph unicode="&#xf9;" horiz-adv-x="1187" d="M82 430v553h410v-553q0 -38 32 -70t70 -32t70 32t32 70v553h410v-983h-389v82h-21q-2 -5 -7.5 -13.5t-24.5 -29.5t-42.5 -37t-64 -29.5t-86.5 -13.5q-77 0 -147.5 33.5t-124 93.5t-85.5 149.5t-32 194.5zM489 1495l349 -164l-82 -205l-369 103z" />
<glyph unicode="&#xfa;" horiz-adv-x="1187" d="M82 430v553h410v-553q0 -38 32 -70t70 -32t70 32t32 70v553h410v-983h-389v82h-21q-2 -5 -7.5 -13.5t-24.5 -29.5t-42.5 -37t-64 -29.5t-86.5 -13.5q-77 0 -147.5 33.5t-124 93.5t-85.5 149.5t-32 194.5zM383 1331l348 164l103 -266l-369 -103z" />
<glyph unicode="&#xfb;" horiz-adv-x="1187" d="M82 430v553h410v-553q0 -38 32 -70t70 -32t70 32t32 70v553h410v-983h-389v82h-21q-2 -5 -7.5 -13.5t-24.5 -29.5t-42.5 -37t-64 -29.5t-86.5 -13.5q-77 0 -147.5 33.5t-124 93.5t-85.5 149.5t-32 194.5zM446 1516h287l246 -369h-307l-72 123h-20l-72 -123h-307z" />
<glyph unicode="&#xfc;" horiz-adv-x="1187" d="M82 430v553h410v-553q0 -38 32 -70t70 -32t70 32t32 70v553h410v-983h-389v82h-21q-2 -5 -7.5 -13.5t-24.5 -29.5t-42.5 -37t-64 -29.5t-86.5 -13.5q-77 0 -147.5 33.5t-124 93.5t-85.5 149.5t-32 194.5zM553 1341q0 -76 -59 -135t-136 -59q-76 0 -135 58.5t-59 135.5 t59 136t135 59t135.5 -59t59.5 -136zM1024 1341q0 -76 -59 -135t-136 -59t-135.5 58.5t-58.5 135.5t59 136t135 59q77 0 136 -59t59 -136z" />
<glyph unicode="&#xfd;" horiz-adv-x="1146" d="M246 0l-226 983h410l133 -614h41l113 614h409l-184 -983q-42 -228 -160.5 -349.5t-289.5 -121.5q-55 0 -111.5 10.5t-85.5 20.5l-29 10l41 348q62 -20 103 -20q44 0 75 27t47 75h-286zM348 1352l348 164l103 -267l-369 -102z" />
<glyph unicode="&#xfe;" horiz-adv-x="1249" d="M102 -410v1844h410v-512h20q3 4 8 11t24 24.5t41.5 31t61 24.5t81.5 11q118 0 223 -68t171 -191.5t66 -272.5q0 -112 -39 -212.5t-102.5 -170t-147 -110t-171.5 -40.5q-43 0 -81 10.5t-62 25.5t-41 30t-24 25l-8 11h-20v-471h-410zM492 492q0 -68 45.5 -116t107.5 -48 t108 48t46 116t-46 115.5t-108 47.5t-107.5 -47.5t-45.5 -115.5z" />
<glyph unicode="&#xff;" horiz-adv-x="1146" d="M246 0l-226 983h410l133 -614h41l113 614h409l-184 -983q-42 -228 -160.5 -349.5t-289.5 -121.5q-55 0 -111.5 10.5t-85.5 20.5l-29 10l41 348q62 -20 103 -20q44 0 75 27t47 75h-286zM512 1362q0 -76 -59 -135.5t-136 -59.5q-76 0 -135 59t-59 136q0 76 58.5 135 t135.5 59t136 -59t59 -135zM983 1362q0 -76 -59.5 -135.5t-135.5 -59.5t-135 59t-59 136q0 76 59 135t135 59q77 0 136 -59t59 -135z" />
<glyph unicode="&#x152;" horiz-adv-x="2211" d="M819 1434h1352v-410h-758v-123h594v-369h-594v-122h758v-410h-1352q-165 0 -311 57.5t-247.5 155t-160.5 229t-59 275.5t59 275.5t160.5 229t247.5 155t311 57.5zM942 1024h-123q-123 0 -215 -92t-92 -215t92 -215t215 -92h123v614z" />
<glyph unicode="&#x153;" horiz-adv-x="1894" d="M1874 492l-102 -103h-594q8 -34 49 -68t84 -34q72 0 133 61l409 -51q-24 -69 -67 -127t-107.5 -106.5t-159 -76.5t-208.5 -28q-55 0 -109.5 14.5t-94 36t-71 42.5t-47.5 36l-16 14h-21q-5 -6 -14.5 -15.5t-43 -34t-71 -43.5t-97 -34.5t-122.5 -15.5q-150 0 -280.5 75.5 t-206.5 198.5t-76 259t76 259t206.5 198t280.5 75q69 0 130 -14.5t99 -36t66.5 -42.5t40.5 -35l12 -15h21l8 8q8 8 22.5 20.5t35.5 27.5t50 30.5t61.5 28t74.5 20.5t86 8q150 0 280.5 -75t206.5 -198t76 -259zM451 492q0 -68 45.5 -116t107.5 -48t108 48t46 116v6 q-3 67 -48 112t-106 45q-62 0 -107.5 -47.5t-45.5 -115.5zM1311 676q-36 0 -66 -24t-47 -58h225q-17 34 -46.5 58t-65.5 24z" />
<glyph unicode="&#x178;" horiz-adv-x="1454" d="M963 1434h512l-512 -963v-471h-471v471l-512 963h512l225 -471h20zM700 1812q0 -76 -59 -135t-135 -59q-77 0 -136 59t-59 135t59.5 135.5t135.5 59.5t135 -59t59 -136zM1171 1812q0 -76 -58.5 -135t-135.5 -59t-136 59t-59 135t59 135.5t136 59.5q76 0 135 -59t59 -136z " />
<glyph unicode="&#x2c6;" horiz-adv-x="901" d="M307 1434h287l246 -369h-308l-71 123h-21l-71 -123h-308z" />
<glyph unicode="&#x2dc;" horiz-adv-x="798" d="M287 1106h-226v143q0 91 53.5 148t131.5 57q44 0 86.5 -20.5t73 -41t45.5 -20.5q61 0 61 62h225v-144q0 -91 -53 -148t-131 -57q-44 0 -86.5 20.5t-73 41t-45.5 20.5q-61 0 -61 -61z" />
<glyph unicode="&#x2000;" horiz-adv-x="1014" />
<glyph unicode="&#x2001;" horiz-adv-x="2028" />
<glyph unicode="&#x2002;" horiz-adv-x="1014" />
<glyph unicode="&#x2003;" horiz-adv-x="2028" />
<glyph unicode="&#x2004;" horiz-adv-x="676" />
<glyph unicode="&#x2005;" horiz-adv-x="507" />
<glyph unicode="&#x2006;" horiz-adv-x="338" />
<glyph unicode="&#x2007;" horiz-adv-x="338" />
<glyph unicode="&#x2008;" horiz-adv-x="253" />
<glyph unicode="&#x2009;" horiz-adv-x="405" />
<glyph unicode="&#x200a;" horiz-adv-x="112" />
<glyph unicode="&#x2010;" horiz-adv-x="942" d="M881 451h-820v368h820v-368z" />
<glyph unicode="&#x2011;" horiz-adv-x="942" d="M881 451h-820v368h820v-368z" />
<glyph unicode="&#x2012;" horiz-adv-x="942" d="M881 451h-820v368h820v-368z" />
<glyph unicode="&#x2013;" horiz-adv-x="1433" d="M1352 410h-1270v368h1270v-368z" />
<glyph unicode="&#x2014;" horiz-adv-x="1761" d="M1679 410h-1597v368h1597v-368z" />
<glyph unicode="&#x2018;" horiz-adv-x="552" d="M451 1475l-82 -205q5 -3 13.5 -7.5t29.5 -22.5t37 -39t29.5 -55t13.5 -71q0 -85 -65.5 -150t-150.5 -65t-150 65t-65 150q0 32 7.5 60.5t15.5 40.5l8 12l195 287h164z" />
<glyph unicode="&#x2019;" horiz-adv-x="552" d="M102 860l82 205q-5 3 -13.5 7.5t-29.5 22.5t-37 39t-29.5 55t-13.5 71q0 85 65 150t150 65t150.5 -65t65.5 -150q0 -32 -8 -60t-16 -40l-7 -13l-195 -287h-164z" />
<glyph unicode="&#x201a;" horiz-adv-x="552" d="M102 -225l82 205q-5 2 -13.5 7t-29.5 23t-37 38.5t-29.5 54.5t-13.5 71q0 85 65 150t150 65t150.5 -65t65.5 -150q0 -32 -8 -60.5t-16 -40.5l-7 -12l-195 -286h-164z" />
<glyph unicode="&#x201c;" horiz-adv-x="1024" d="M922 1475l-82 -205q5 -3 13.5 -7.5t29.5 -22.5t37 -39t29.5 -55t13.5 -71q0 -85 -65 -150t-150 -65t-150.5 65t-65.5 150q0 32 8 60.5t16 40.5l7 12l195 287h164zM451 1475l-82 -205q5 -3 13.5 -7.5t29.5 -22.5t37 -39t29.5 -55t13.5 -71q0 -85 -65.5 -150t-150.5 -65 t-150 65t-65 150q0 32 7.5 60.5t15.5 40.5l8 12l195 287h164z" />
<glyph unicode="&#x201d;" horiz-adv-x="1024" d="M102 860l82 205q-5 3 -13.5 7.5t-29.5 22.5t-37 39t-29.5 55t-13.5 71q0 85 65 150t150 65t150.5 -65t65.5 -150q0 -32 -8 -60t-16 -40l-7 -13l-195 -287h-164zM573 860l82 205q-5 3 -13.5 7.5t-29.5 22.5t-37 39t-29.5 55t-13.5 71q0 85 65.5 150t150.5 65t150 -65 t65 -150q0 -32 -7.5 -60t-15.5 -40l-8 -13l-195 -287h-164z" />
<glyph unicode="&#x201e;" horiz-adv-x="1024" d="M102 -225l82 205q-5 2 -13.5 7t-29.5 23t-37 38.5t-29.5 54.5t-13.5 71q0 85 65 150t150 65t150.5 -65t65.5 -150q0 -32 -8 -60.5t-16 -40.5l-7 -12l-195 -286h-164zM573 -225l82 205q-5 2 -13.5 7t-29.5 23t-37 38.5t-29.5 54.5t-13.5 71q0 85 65.5 150t150.5 65 t150 -65t65 -150q0 -32 -7.5 -60.5t-15.5 -40.5l-8 -12l-195 -286h-164z" />
<glyph unicode="&#x2022;" horiz-adv-x="819" d="M696 614q0 -123 -81.5 -204.5t-204.5 -81.5t-205 81.5t-82 204.5t82 205t205 82t204.5 -82t81.5 -205z" />
<glyph unicode="&#x2026;" horiz-adv-x="1617" d="M492 174q0 -85 -65.5 -150t-150.5 -65t-150 65t-65 150t65 150t150 65t150.5 -65t65.5 -150zM1024 174q0 -85 -65 -150t-150 -65t-150 65t-65 150t65 150t150 65t150 -65t65 -150zM1556 174q0 -85 -65 -150t-150 -65t-150 65t-65 150t65 150t150 65t150 -65t65 -150z" />
<glyph unicode="&#x202f;" horiz-adv-x="405" />
<glyph unicode="&#x2039;" horiz-adv-x="849" d="M553 -41l-512 533l512 532l256 -256l-256 -266v-21l256 -266z" />
<glyph unicode="&#x203a;" horiz-adv-x="849" d="M809 492l-512 -533l-256 256l256 266v21l-256 266l256 256z" />
<glyph unicode="&#x205f;" horiz-adv-x="507" />
<glyph unicode="&#x20ac;" horiz-adv-x="1699" d="M41 748v225h133q36 100 102.5 190.5t161 166t225.5 120.5t279 45q141 0 263.5 -42t211 -114.5t149.5 -162.5t93 -193l-471 -61q-35 47 -65 75t-81.5 48t-119.5 20q-25 0 -47.5 -4t-36.5 -7.5t-35.5 -16t-29 -17t-33.5 -23.5t-33 -24h297v-225h-410v-62h410v-225h-297 q9 -6 28.5 -20.5t28 -20.5t25.5 -16.5t29 -15t29 -10t35.5 -7.5t39.5 -2q114 0 184.5 48.5t122.5 135.5l471 -61q-18 -81 -62 -160t-113.5 -150t-155.5 -125t-197 -86t-230 -32q-148 0 -279 45t-225.5 120.5t-161 166t-102.5 190.5h-133v225h82v62h-82z" />
<glyph unicode="&#x2122;" horiz-adv-x="1699" d="M737 778v656h348l103 -144l102 144h348v-656h-327v266h-21l-102 -143l-103 143h-20v-266h-328zM41 1147v287h655v-287h-164v-369h-327v369h-164z" />
<glyph unicode="&#x25fc;" horiz-adv-x="983" d="M0 983h983v-983h-983v983z" />
</font>
</defs>
</svg>
