<?xml version="1.0" standalone="no"?>
<!DOCTYPE svg PUBLIC "-//W3C//DTD SVG 1.1//EN" "http://www.w3.org/Graphics/SVG/1.1/DTD/svg11.dtd" >
<svg xmlns="http://www.w3.org/2000/svg">
<metadata></metadata>
<defs>
<font id="tt_firsregular" horiz-adv-x="1105" >
<font-face units-per-em="2048" ascent="1638" descent="-410" />
<missing-glyph horiz-adv-x="348" />
<glyph horiz-adv-x="0" />
<glyph horiz-adv-x="0" />
<glyph horiz-adv-x="682" />
<glyph unicode="&#xd;" horiz-adv-x="0" />
<glyph unicode=" "  horiz-adv-x="348" />
<glyph unicode="&#x09;" horiz-adv-x="348" />
<glyph unicode="&#xa0;" horiz-adv-x="348" />
<glyph unicode="!" horiz-adv-x="512" d="M205 676v737h102v-737l-20 -266h-62zM328 51q0 -31 -20.5 -51t-51.5 -20t-51.5 20t-20.5 51t20.5 51.5t51.5 20.5t51.5 -20.5t20.5 -51.5z" />
<glyph unicode="&#x22;" horiz-adv-x="614" d="M410 1126v287h82v-287l-21 -204h-41zM123 1126v287h82v-287l-21 -204h-41z" />
<glyph unicode="#" horiz-adv-x="1310" d="M635 0l123 410h-369l-123 -410h-102l123 410h-246v92h266l123 409h-256v93h277l122 409h103l-123 -409h369l122 409h103l-123 -409h246v-93h-266l-123 -409h256v-92h-277l-123 -410h-102zM532 911l-122 -409h368l123 409h-369z" />
<glyph unicode="$" horiz-adv-x="1116" d="M512 -61v204q-151 7 -255 87.5t-155 199.5l93 21q94 -226 358 -226q169 0 258.5 70t89.5 176q0 51 -32 87.5t-84.5 56t-119.5 36.5t-137.5 29t-137.5 34.5t-119.5 52t-84.5 82.5t-32 124q0 120 97 205t261 92v205h92v-205q144 -7 241.5 -83t147.5 -194l-92 -20 q-42 102 -121.5 158.5t-216.5 56.5q-153 0 -235 -62t-82 -153q0 -62 41 -103.5t107 -63t146 -37t159.5 -34.5t145.5 -47.5t107 -83t41 -133.5q0 -127 -108.5 -224t-280.5 -104v-204h-92z" />
<glyph unicode="%" horiz-adv-x="1454" d="M1219 1413l-871 -1413h-112l870 1413h113zM676 1096q0 -151 -85.5 -244.5t-211.5 -93.5t-211.5 93.5t-85.5 244.5t85.5 244.5t211.5 93.5t211.5 -93.5t85.5 -244.5zM584 1096q0 111 -62.5 183.5t-142.5 72.5t-142.5 -72.5t-62.5 -183.5t62.5 -183.5t142.5 -72.5 t142.5 72.5t62.5 183.5zM1372 317q0 -150 -85.5 -243.5t-211.5 -93.5t-211.5 93.5t-85.5 243.5q0 151 85.5 244.5t211.5 93.5t211.5 -93.5t85.5 -244.5zM1280 317q0 111 -62.5 183.5t-142.5 72.5t-142.5 -72.5t-62.5 -183.5t62.5 -183.5t142.5 -72.5t142.5 72.5t62.5 183.5z " />
<glyph unicode="&#x26;" horiz-adv-x="1228" d="M532 870l-286 441v102h798v-92h-686v-10l850 -1311h-112l-92 143q-6 -8 -18.5 -22t-54 -49t-87.5 -62t-120 -49t-151 -22q-197 0 -323.5 120t-126.5 299q0 75 22.5 144t58.5 119t80 93t87.5 71t79.5 48t59 29zM573 31q63 0 125 20t106 48.5t79 57t52 48.5l17 20l-368 563 q-8 -2 -20.5 -7t-50 -23t-71.5 -39.5t-75.5 -58.5t-71 -78.5t-50 -100t-20.5 -123.5q0 -140 98 -233.5t250 -93.5z" />
<glyph unicode="'" horiz-adv-x="327" d="M205 1413v-287l-21 -204h-41l-20 204v287h82z" />
<glyph unicode="(" horiz-adv-x="696" d="M246 594q0 -113 21.5 -222t56 -193t75.5 -159t82.5 -128t76 -92t56.5 -58l21 -18l-41 -72q-9 7 -25.5 20t-63.5 59t-89.5 98t-94.5 136t-89.5 173.5t-63 210t-25.5 245.5t25 245t64.5 211t88 172t96.5 137t87.5 97t64.5 60l25 20l41 -72q-8 -7 -22 -19.5t-54.5 -56 t-77 -92.5t-81.5 -127t-77.5 -160.5t-54.5 -192t-22 -222.5z" />
<glyph unicode=")" horiz-adv-x="696" d="M451 594q0 113 -21.5 222t-56 193t-76 159t-83 128t-76 92t-56.5 58l-21 18l41 72q9 -7 25.5 -20t63.5 -59t89.5 -98t94.5 -136t89.5 -173.5t63 -210t25.5 -245.5q0 -99 -15.5 -194t-41.5 -172.5t-60 -150t-71 -129t-74.5 -105.5t-71.5 -83.5t-60 -59t-41 -36.5l-16 -12 l-41 72q8 7 22 19.5t54.5 56t77.5 92.5t82 127t77.5 160.5t54.5 192t22 222.5z" />
<glyph unicode="*" horiz-adv-x="778" d="M553 829l-164 236l-164 -236l-61 41l153 226h-215v71h246v246h82v-246h246v-71h-215l153 -226z" />
<glyph unicode="+" horiz-adv-x="911" d="M502 1024v-348h327v-92h-327v-348h-92v348h-328v92h328v348h92z" />
<glyph unicode="," horiz-adv-x="348" d="M102 51q0 31 20.5 51.5t51.5 20.5t51.5 -20.5t20.5 -51.5q0 -14 -8 -31.5t-16 -28.5l-7 -11l-92 -164h-41l61 174q-5 2 -11.5 6.5t-18 20.5t-11.5 34z" />
<glyph unicode="-" horiz-adv-x="880" d="M799 584h-717v92h717v-92z" />
<glyph unicode="." horiz-adv-x="348" d="M102 51q0 31 20.5 51.5t51.5 20.5t51.5 -20.5t20.5 -51.5t-20.5 -51t-51.5 -20t-51.5 20t-20.5 51z" />
<glyph unicode="/" horiz-adv-x="778" d="M61 0l553 1413h103l-553 -1413h-103z" />
<glyph unicode="0" horiz-adv-x="1495" d="M1270 707q0 149 -45.5 278t-119.5 214.5t-167.5 134t-189.5 48.5q-77 0 -152.5 -30.5t-142 -89.5t-118 -139.5t-81 -188.5t-29.5 -227q0 -149 45.5 -278t120 -214.5t168 -134.5t189.5 -49t189.5 49t167.5 134.5t119.5 214.5t45.5 278zM123 707q0 168 53 314t140.5 244 t200 154t231.5 56t231.5 -56t199.5 -154t140 -244t53 -314t-53 -314t-140 -244t-199.5 -154t-231.5 -56t-231.5 56t-200 154t-140.5 244t-53 314z" />
<glyph unicode="1" horiz-adv-x="624" d="M338 0v1188q-3 -5 -9.5 -13.5t-30.5 -29.5t-51 -37t-71.5 -29.5t-93.5 -13.5v82q107 0 186.5 79.5t79.5 186.5h92v-1413h-102z" />
<glyph unicode="2" horiz-adv-x="1198" d="M983 1055q0 140 -99.5 233.5t-258.5 93.5q-314 0 -420 -286l-103 20q50 159 181.5 259t341.5 100q204 0 332 -120t128 -300q0 -77 -30 -143t-81 -115t-117 -93.5t-139 -83.5l-146 -78t-139 -84.5t-117 -96.5t-81 -120t-30 -149h891v-92h-994v72q0 97 30 179.5t81 142.5 t117 112t139.5 93.5t146.5 80t139 78t117 82t81 97t30 118.5z" />
<glyph unicode="3" horiz-adv-x="1208" d="M61 338l103 20q121 -327 450 -327q167 0 278.5 106.5t111.5 261.5t-111.5 262t-278.5 107h-194v82l491 461v10h-737v92h881v-102l-471 -441v-10h30q213 0 352.5 -133.5t139.5 -327.5t-139.5 -327t-352.5 -133q-219 0 -357 109t-196 290z" />
<glyph unicode="4" horiz-adv-x="1239" d="M983 0h-102v338h-799v92l502 983h112l-501 -983h686v410h102v-410h195v-92h-195v-338z" />
<glyph unicode="5" horiz-adv-x="1167" d="M573 768h-368l112 645h687v-92h-594l-82 -461h245q213 0 352.5 -133.5t139.5 -327.5t-139.5 -327t-352.5 -133q-219 0 -357 109t-196 290l103 20q121 -327 450 -327q167 0 278.5 106.5t111.5 261.5t-111.5 262t-278.5 107z" />
<glyph unicode="6" horiz-adv-x="1228" d="M102 440q0 94 31 183.5t61 132.5l31 43l482 614h122l-430 -532h11q8 7 24 17t71.5 27t119.5 17q229 0 375.5 -142.5t146.5 -359.5t-146.5 -359t-375.5 -142t-376 142t-147 359zM205 440q0 -178 118 -293.5t302 -115.5t301.5 115.5t117.5 293.5t-117.5 294t-301.5 116 t-302 -116t-118 -294z" />
<glyph unicode="7" horiz-adv-x="983" d="M328 0h-113l614 1311v10h-788v92h901v-102z" />
<glyph unicode="8" horiz-adv-x="1290" d="M645 717q-200 0 -320 -102t-120 -246q0 -137 120.5 -237.5t319.5 -100.5t319.5 100.5t120.5 237.5q0 144 -120 246t-320 102zM645 1382q-169 0 -274 -86t-105 -200t105 -200.5t274 -86.5t274 86.5t105 200.5t-105 200t-274 86zM645 1475q104 0 195.5 -33.5t153 -87 t97 -121.5t35.5 -137q0 -77 -29.5 -139t-71.5 -95.5t-84 -55.5t-71 -29l-30 -7v-12q7 -1 19.5 -3.5t49 -14.5t69 -28.5t73 -47.5t69 -69.5t48.5 -97.5t20 -128q0 -86 -38 -164t-106.5 -137t-172 -94t-226.5 -35t-226.5 35t-172 94t-106.5 137t-38 164q0 54 12 102t32 83.5 t46.5 65.5t55 50.5t57.5 36.5t55.5 25.5t46.5 15.5t32 8l12 2v12q-6 1 -16.5 3.5t-40 13t-57 24.5t-60.5 40.5t-56.5 59t-40 81t-16.5 104.5q0 69 35.5 137t97 121.5t153 87t195.5 33.5z" />
<glyph unicode="9" horiz-adv-x="1228" d="M1126 973q0 -59 -12.5 -118t-30.5 -100.5t-36 -74.5t-31 -50l-12 -16l-482 -614h-123l430 532h-10q-8 -7 -24 -17t-71.5 -27t-119.5 -17q-229 0 -375.5 142.5t-146.5 359.5t146.5 359.5t375.5 142.5t375.5 -142.5t146.5 -359.5zM1024 973q0 178 -118 293.5t-302 115.5 t-302 -115.5t-118 -293.5t118 -294t302 -116t302 116t118 294z" />
<glyph unicode=":" horiz-adv-x="348" d="M102 51q0 31 20.5 51.5t51.5 20.5t51.5 -20.5t20.5 -51.5t-20.5 -51t-51.5 -20t-51.5 20t-20.5 51zM102 870q0 31 20.5 51.5t51.5 20.5t51.5 -20.5t20.5 -51.5t-20.5 -51t-51.5 -20t-51.5 20t-20.5 51z" />
<glyph unicode=";" horiz-adv-x="348" d="M102 870q0 31 20.5 51.5t51.5 20.5t51.5 -20.5t20.5 -51.5t-20.5 -51t-51.5 -20t-51.5 20t-20.5 51zM102 51q0 31 20.5 51.5t51.5 20.5t51.5 -20.5t20.5 -51.5q0 -14 -8 -31.5t-16 -28.5l-7 -11l-92 -164h-41l61 174q-5 2 -11.5 6.5t-18 20.5t-11.5 34z" />
<glyph unicode="&#x3c;" horiz-adv-x="983" d="M901 41l-819 369v112l819 369v-103l-706 -317v-10l706 -318v-102z" />
<glyph unicode="=" horiz-adv-x="870" d="M788 758h-706v92h706v-92zM788 399h-706v93h706v-93z" />
<glyph unicode="&#x3e;" horiz-adv-x="983" d="M901 410l-819 -369v102l706 318v10l-706 317v103l819 -369v-112z" />
<glyph unicode="?" horiz-adv-x="1085" d="M543 1382q-153 0 -252 -77t-148 -209l-102 20q49 158 177.5 258.5t324.5 100.5q93 0 176 -32t140.5 -83.5t90.5 -118t33 -135.5q0 -79 -25.5 -141t-66 -103t-90 -76.5t-98.5 -70t-89.5 -73.5t-66 -98t-25.5 -134h-82q0 87 24.5 156t63 113.5t85.5 81t94.5 69.5t86 69 t63 88.5t24.5 118.5q0 104 -98.5 190t-239.5 86zM553 51q0 -31 -20.5 -51t-51.5 -20t-51 20t-20 51t20 51.5t51 20.5t51.5 -20.5t20.5 -51.5z" />
<glyph unicode="@" horiz-adv-x="1710" d="M1065 338v82h-10q-3 -4 -8.5 -11t-25 -25t-41.5 -31.5t-57.5 -24.5t-72.5 -11q-132 0 -225 96.5t-93 241.5t93 241.5t225 96.5q37 0 72 -10.5t58 -25.5t41 -30t26 -25l8 -11h10v82h92v-553q154 0 256.5 102t102.5 256q0 111 -47 211.5t-130.5 176.5t-208 120.5 t-270.5 44.5q-136 0 -259 -53t-212 -142.5t-141.5 -215t-52.5 -265.5t52.5 -265t141.5 -215t212 -142.5t259 -52.5q69 0 136.5 11.5t114.5 28t84.5 33t56.5 27.5l18 12v-92q-7 -4 -19.5 -11t-54 -24.5t-86 -31t-113 -24.5t-137.5 -11q-159 0 -299.5 58t-241 158.5t-159 241 t-58.5 299.5t58.5 299.5t159 241t241 159t299.5 58.5q165 0 306.5 -52t237.5 -139t150 -202.5t54 -241.5q0 -187 -135 -313.5t-347 -126.5h-61zM1065 532v246q-3 5 -8.5 14t-26 32t-43 40.5t-60 32t-77.5 14.5q-87 0 -156 -75.5t-69 -180.5t69 -180.5t156 -75.5 q40 0 77 13.5t61 33t42 39.5t26 33z" />
<glyph unicode="A" horiz-adv-x="1372" d="M481 1321l-205 -850h820l-205 850h-410zM1116 379h-860l-92 -379h-103l338 1413h574l338 -1413h-103z" />
<glyph unicode="B" horiz-adv-x="1402" d="M184 1413h594q165 0 277 -103.5t112 -244.5q0 -66 -20 -120t-48.5 -83.5t-57 -50t-48.5 -27.5l-20 -6v-10q7 -1 19.5 -3t49 -13t69 -26t73 -44.5t69 -66t48.5 -93t20 -123.5q0 -164 -125.5 -281.5t-314.5 -117.5h-697v1413zM287 92h594q151 0 244.5 87t93.5 220 t-93.5 220.5t-244.5 87.5h-594v-615zM778 1321h-491v-522h491q129 0 208 74.5t79 191.5q0 109 -79.5 182.5t-207.5 73.5z" />
<glyph unicode="C" horiz-adv-x="1566" d="M819 -61q-136 0 -267 61.5t-230 164t-159.5 245.5t-60.5 297t60.5 297t159.5 245.5t230 164t267 61.5q121 0 230.5 -38t187 -99.5t130.5 -134t77 -148.5l-103 -21q-24 68 -68 128.5t-107.5 110.5t-153 79.5t-193.5 29.5q-114 0 -225.5 -54t-197 -144.5t-138.5 -216 t-53 -260.5t53 -261t138.5 -216t197 -144.5t225.5 -54.5q111 0 205 30t162 83.5t116 119.5t80 146l103 -21q-32 -88 -89.5 -166t-139 -143t-195 -103t-242.5 -38z" />
<glyph unicode="D" horiz-adv-x="1433" d="M1229 707q0 133 -46.5 247t-129 194.5t-201 126.5t-258.5 46h-307v-1229h307q187 0 332 79t224 218.5t79 317.5zM1331 707q0 -152 -53.5 -283t-149.5 -224.5t-234 -146.5t-300 -53h-410v1413h410q162 0 300 -53t234 -146t149.5 -224t53.5 -283z" />
<glyph unicode="E" horiz-adv-x="1228" d="M287 92h880v-92h-983v1413h983v-92h-880v-563h696v-92h-696v-574z" />
<glyph unicode="F" horiz-adv-x="1167" d="M287 625v-625h-103v1413h942v-92h-839v-604h676v-92h-676z" />
<glyph unicode="G" horiz-adv-x="1597" d="M819 31q155 0 288 76t209.5 203.5t76.5 273.5h-482v92h584v-41q0 -202 -87.5 -361t-241.5 -247t-347 -88q-136 0 -267 61.5t-230 164t-159.5 245.5t-60.5 297t60.5 297t159.5 245.5t230 164t267 61.5q121 0 230.5 -38t187 -99.5t130.5 -134t77 -148.5l-103 -21 q-24 68 -68 128.5t-107.5 110.5t-153 79.5t-193.5 29.5q-114 0 -225.5 -54t-197 -144.5t-138.5 -216t-53 -260.5t53 -261t138.5 -216t197 -144.5t225.5 -54.5z" />
<glyph unicode="H" horiz-adv-x="1433" d="M184 0v1413h103v-655h860v655h102v-1413h-102v666h-860v-666h-103z" />
<glyph unicode="I" horiz-adv-x="471" d="M287 1413v-1413h-103v1413h103z" />
<glyph unicode="J" d="M922 1413v-962q0 -234 -129 -373t-332 -139q-151 0 -268.5 94.5t-151.5 212.5l102 20q33 -99 117.5 -167t200.5 -68q158 0 258 112.5t100 307.5v962h103z" />
<glyph unicode="K" horiz-adv-x="1269" d="M604 778h-10l-307 -317v-461h-103v1413h103v-819l788 819h133l-532 -553l553 -860h-123z" />
<glyph unicode="L" horiz-adv-x="1136" d="M287 1413v-1321h829v-92h-932v1413h103z" />
<glyph unicode="M" horiz-adv-x="1761" d="M1464 1260l-583 -717l-584 717h-10v-1260h-103v1413h113l584 -717l583 717h113v-1413h-102v1260h-11z" />
<glyph unicode="N" horiz-adv-x="1454" d="M297 1413l860 -1239h10v1239h103v-1413h-113l-860 1239h-10v-1239h-103v1413h113z" />
<glyph unicode="O" horiz-adv-x="1679" d="M102 707q0 205 103 383t273 281.5t362 103.5q143 0 278.5 -61.5t236 -164.5t161.5 -245.5t61 -296.5t-61 -296.5t-161.5 -245.5t-236 -164.5t-278.5 -61.5q-192 0 -362 103.5t-273 281.5t-103 383zM1475 707q0 135 -53.5 260.5t-141 216t-203.5 144.5t-237 54t-237 -54 t-203.5 -144.5t-141 -216t-53.5 -260.5t53.5 -260.5t141 -216t203.5 -145t237 -54.5t237 54.5t203.5 145t141 216t53.5 260.5z" />
<glyph unicode="P" horiz-adv-x="1392" d="M1188 922q0 171 -120 285t-310 114h-471v-799h471q190 0 310 114.5t120 285.5zM1290 922q0 -137 -66 -249t-188.5 -177.5t-277.5 -65.5h-471v-430h-103v1413h574q117 0 216.5 -38t168.5 -104t108 -156t39 -193z" />
<glyph unicode="Q" horiz-adv-x="1679" d="M1577 707q0 -89 -20 -174.5t-48.5 -143.5t-57.5 -104t-49 -68l-20 -22l215 -226l-71 -71l-215 225q-7 -7 -21.5 -19.5t-61.5 -44.5t-98.5 -56t-130.5 -44t-159 -20q-192 0 -362 103.5t-273 281.5t-103 383t103 383t273 281.5t362 103.5q143 0 278.5 -61.5t236 -164.5 t161.5 -245.5t61 -296.5zM1096 348l71 72l144 -154q7 7 18 19.5t39 56t50 91t39.5 122.5t17.5 152q0 135 -53.5 260.5t-141 216t-203.5 144.5t-237 54t-237 -54t-203.5 -144.5t-141 -216t-53.5 -260.5t53.5 -260.5t141 -216t203.5 -145t237 -54.5q66 0 131.5 17t111.5 41 t83 48t55 41l18 17z" />
<glyph unicode="R" horiz-adv-x="1413" d="M860 512h-573v-512h-103v1413h615q220 0 355.5 -127.5t135.5 -322.5q0 -73 -18 -136.5t-47 -106t-63.5 -77t-69.5 -54.5t-64 -33.5t-47 -18.5l-18 -5l297 -532h-113zM287 604h501q181 0 290.5 101t109.5 258q0 156 -107 257t-282 101h-512v-717z" />
<glyph unicode="S" horiz-adv-x="1269" d="M1065 358q0 67 -31 118.5t-83 84t-119.5 58.5t-142.5 47t-149.5 43t-142 53.5t-119.5 72.5t-83 104.5t-31 145.5q0 73 35.5 143t97 125t153 88.5t195.5 33.5q210 0 341 -100t181 -259l-102 -20q-106 286 -420 286q-162 0 -270.5 -92t-108.5 -205q0 -65 31 -115t83 -82 t119.5 -57t142 -46t149.5 -43.5t142.5 -54.5t119.5 -73.5t83 -107t31 -148.5q0 -85 -36 -160.5t-101.5 -133t-165 -91.5t-219.5 -34q-225 0 -365 108.5t-198 290.5l102 20q58 -156 168 -241.5t293 -85.5q184 0 302 99t118 228z" />
<glyph unicode="T" horiz-adv-x="1208" d="M553 1321h-512v92h1126v-92h-512v-1321h-102v1321z" />
<glyph unicode="U" horiz-adv-x="1454" d="M727 31q195 0 317.5 130.5t122.5 350.5v901h103v-901q0 -259 -151.5 -416t-391.5 -157t-391.5 157t-151.5 416v901h103v-901q0 -220 122.5 -350.5t317.5 -130.5z" />
<glyph unicode="V" horiz-adv-x="1413" d="M184 1413l318 -1321h409l318 1321h102l-338 -1413h-573l-338 1413h102z" />
<glyph unicode="W" horiz-adv-x="1884" d="M1249 0l-286 1321h-41l-287 -1321h-246l-307 1413h102l287 -1321h82l287 1321h204l287 -1321h82l287 1321h102l-307 -1413h-246z" />
<glyph unicode="X" horiz-adv-x="1239" d="M1044 1413h113l-481 -676l522 -737h-113l-460 655h-11l-460 -655h-113l522 737l-481 676h113l419 -594h11z" />
<glyph unicode="Y" horiz-adv-x="1290" d="M594 471l-574 942h113l512 -840l512 840h113l-574 -942v-471h-102v471z" />
<glyph unicode="Z" horiz-adv-x="1228" d="M82 0v102l942 1209v10h-901v92h1024v-102l-942 -1209v-10h942v-92h-1065z" />
<glyph unicode="[" horiz-adv-x="665" d="M604 1382h-317v-1577h317v-92h-420v1762h420v-93z" />
<glyph unicode="\" horiz-adv-x="778" d="M164 1413l553 -1413h-103l-553 1413h103z" />
<glyph unicode="]" horiz-adv-x="645" d="M358 1382h-317v93h420v-1762h-420v92h317v1577z" />
<glyph unicode="^" horiz-adv-x="901" d="M399 1403h103l297 -645h-103l-241 522h-9l-241 -522h-103z" />
<glyph unicode="_" horiz-adv-x="716" d="M717 -358h-717v92h717v-92z" />
<glyph unicode="`" horiz-adv-x="491" d="M61 1321l41 92l328 -184l-31 -62z" />
<glyph unicode="a" d="M870 0v154h-10q-5 -8 -13.5 -21t-40 -46.5t-66.5 -59.5t-91.5 -47t-116.5 -21q-88 0 -170 38.5t-144 105.5t-99 163t-37 205t37 205t99 163t144 105.5t170 38.5q60 0 116 -20t93 -48.5t65 -57.5t41 -49l13 -20h10v154h93v-942h-93zM870 287v368q-5 10 -14 26.5t-40.5 59 t-67.5 75t-94.5 59t-121.5 26.5q-143 0 -250.5 -122t-107.5 -308t107.5 -308t250.5 -122q46 0 89.5 13.5t76 35.5t61.5 48t49 52t34.5 48t21.5 36z" />
<glyph unicode="b" horiz-adv-x="1116" d="M246 154v-154h-92v1413h92v-625h10q5 8 13.5 21t40 46.5t66.5 59.5t91.5 47t116.5 21q88 0 170 -38.5t144 -105.5t99 -163t37 -205t-37 -205t-99 -163t-144 -105.5t-170 -38.5q-60 0 -116 20t-93 48.5t-65 57.5t-41 49l-13 20h-10zM246 655v-368q5 -10 14 -26.5t40.5 -59 t67.5 -75t94.5 -59t121.5 -26.5q143 0 250.5 122t107.5 308t-107.5 308t-250.5 122q-63 0 -121 -25.5t-96 -61.5t-66.5 -72t-41.5 -62z" />
<glyph unicode="c" horiz-adv-x="1044" d="M553 -41q-122 0 -230.5 67.5t-174.5 186t-66 258.5t66 258.5t174.5 186t230.5 67.5q107 0 193 -39.5t135 -98t71 -128.5l-92 -21q-34 93 -109 149t-198 56q-150 0 -264.5 -125t-114.5 -305t114.5 -305t264.5 -125q131 0 218 69.5t120 176.5l92 -21q-16 -59 -52 -113 t-89.5 -98t-128.5 -70t-160 -26z" />
<glyph unicode="d" horiz-adv-x="1116" d="M870 0v154h-10q-5 -8 -13.5 -21t-40 -46.5t-66.5 -59.5t-91.5 -47t-116.5 -21q-88 0 -170 38.5t-144 105.5t-99 163t-37 205t37 205t99 163t144 105.5t170 38.5q60 0 116 -20t93 -48.5t65 -57.5t41 -49l13 -20h10v625h93v-1413h-93zM870 287v368q-5 10 -14 26.5t-40.5 59 t-67.5 75t-94.5 59t-121.5 26.5q-143 0 -250.5 -122t-107.5 -308t107.5 -308t250.5 -122q46 0 89.5 13.5t76 35.5t61.5 48t49 52t34.5 48t21.5 36z" />
<glyph unicode="e" horiz-adv-x="1064" d="M532 983q88 0 170 -38.5t144 -105.5t99.5 -163.5t37.5 -204.5l-41 -41h-768q15 -168 123.5 -278.5t255.5 -110.5q131 0 218 69.5t120 176.5l92 -21q-16 -59 -52 -113t-89.5 -98t-128.5 -70t-160 -26q-122 0 -230.5 67.5t-174.5 186t-66 258.5q0 109 37 205t99 163 t144 105.5t170 38.5zM532 901q-140 0 -245.5 -111.5t-112.5 -277.5h717q-7 166 -113 277.5t-246 111.5z" />
<glyph unicode="f" horiz-adv-x="583" d="M41 860v82h154v205q0 130 76 208.5t200 78.5q41 0 79.5 -10t56.5 -20l18 -11l-21 -82q-61 41 -133 41q-86 0 -135 -53.5t-49 -151.5v-205h266v-82h-266v-860h-92v860h-154z" />
<glyph unicode="g" d="M870 788v154h93v-932q0 -189 -119.5 -314.5t-290.5 -125.5q-107 0 -193 39.5t-135 98t-71 128.5l92 21q34 -93 109 -149t198 -56q133 0 225 100t92 258v185h-10q-5 -8 -13.5 -21t-40 -46.5t-66.5 -59.5t-91.5 -47t-116.5 -21q-87 0 -169.5 38.5t-144 103.5t-99 157 t-37.5 193q0 134 63 248t166.5 178.5t220.5 64.5q60 0 116 -20t93 -48.5t65 -57.5t41 -49l13 -20h10zM870 328v327q-5 10 -14 26.5t-40.5 59t-67.5 75t-94.5 59t-121.5 26.5q-68 0 -133 -31t-115 -84.5t-80 -130.5t-30 -163q0 -173 108 -291.5t250 -118.5q46 0 89.5 13.5 t76 35.5t61.5 48t49 52t34.5 48t21.5 35z" />
<glyph unicode="h" horiz-adv-x="1095" d="M973 553v-553h-92v553q0 165 -81.5 256.5t-215.5 91.5q-63 0 -121 -25.5t-96 -61.5t-66.5 -72t-41.5 -62l-13 -25v-655h-92v1413h92v-614h10q5 7 13.5 19.5t40 44.5t66.5 56t91.5 44t116.5 20q172 0 280.5 -117t108.5 -313z" />
<glyph unicode="i" horiz-adv-x="419" d="M256 942v-942h-92v942h92zM276 1325q0 -26 -19.5 -45.5t-45.5 -19.5q-28 0 -48 19.5t-20 45.5q0 28 20 48t48 20q26 0 45.5 -20t19.5 -48z" />
<glyph unicode="j" horiz-adv-x="430" d="M266 942v-1085q0 -130 -76 -208.5t-200 -78.5q-41 0 -79.5 10t-56.5 20l-18 11l21 82q61 -41 133 -41q86 0 135 53.5t49 151.5v1085h92zM154 1325q0 28 19.5 48t47.5 20q26 0 46 -20t20 -48q0 -26 -20 -45.5t-46 -19.5q-28 0 -47.5 19.5t-19.5 45.5z" />
<glyph unicode="k" horiz-adv-x="972" d="M246 276v-276h-92v1413h92v-1024l542 553h113l-348 -358l399 -584h-102l-358 522z" />
<glyph unicode="l" horiz-adv-x="440" d="M195 0v1331h-175v82h267v-1413h-92z" />
<glyph unicode="m" horiz-adv-x="1607" d="M1485 573v-573h-92v573q0 156 -72 242t-184 86q-126 0 -201.5 -85t-75.5 -243v-573h-92v573q0 156 -72 242t-184 86q-55 0 -103.5 -25.5t-78.5 -61.5t-52.5 -72t-31.5 -62l-10 -25v-655h-93v942h93v-154h10q3 8 10 21t31 46.5t52 59.5t74.5 47t98.5 21q46 0 87.5 -12 t71.5 -31t56 -41.5t42.5 -45.5t28 -42t16.5 -31l5 -12h10q2 4 5.5 12t16.5 30.5t28.5 42.5t42 45t56 43t71.5 30t88 12q150 0 249 -111.5t99 -298.5z" />
<glyph unicode="n" horiz-adv-x="1085" d="M963 553v-553h-93v553q0 165 -81.5 256.5t-215.5 91.5q-63 0 -121 -25.5t-95.5 -61.5t-66 -72t-41.5 -62l-13 -25v-655h-93v942h93v-154h10q5 8 13.5 21t39.5 46.5t66 59.5t91.5 47t116.5 21q172 0 281 -117t109 -313z" />
<glyph unicode="o" horiz-adv-x="1126" d="M1044 471q0 -140 -66.5 -258.5t-177 -186t-237.5 -67.5t-237.5 67.5t-177 186t-66.5 258.5t66.5 258.5t177 186t237.5 67.5t237.5 -67.5t177 -186t66.5 -258.5zM952 471q0 181 -116 305.5t-273 124.5t-273 -124.5t-116 -305.5t116 -305.5t273 -124.5t273 124.5t116 305.5 z" />
<glyph unicode="p" d="M236 942v-154h10q5 8 13.5 21t39.5 46.5t66 59.5t91.5 47t116.5 21q88 0 170 -38.5t144 -105.5t99.5 -163.5t37.5 -204.5t-37.5 -204.5t-99.5 -163.5t-144 -105.5t-170 -38.5q-60 0 -116 20t-92.5 48.5t-64.5 57.5t-41 49l-13 20h-10v-564h-93v1352h93zM236 655v-368 q5 -10 13.5 -26.5t40 -59t67.5 -75t94.5 -59t121.5 -26.5q143 0 251 122t108 308t-108 308t-251 122q-63 0 -121 -25.5t-95.5 -61.5t-66 -72t-41.5 -62z" />
<glyph unicode="q" d="M870 788v154h93v-1352h-93v564h-10q-5 -8 -13.5 -21t-40 -46.5t-66.5 -59.5t-91.5 -47t-116.5 -21q-88 0 -170 38.5t-144 105.5t-99 163t-37 205t37 205t99 163t144 105.5t170 38.5q60 0 116 -20t93 -48.5t65 -57.5t41 -49l13 -20h10zM870 287v368q-5 10 -14 26.5 t-40.5 59t-67.5 75t-94.5 59t-121.5 26.5q-143 0 -250.5 -122t-107.5 -308t107.5 -308t250.5 -122q46 0 89.5 13.5t76 35.5t61.5 48t49 52t34.5 48t21.5 36z" />
<glyph unicode="r" horiz-adv-x="614" d="M594 983v-82h-21q-63 0 -121 -25.5t-95.5 -61.5t-66 -72t-41.5 -62l-13 -25v-655h-93v942h93v-154h10q5 8 13.5 21t39.5 46.5t66 59.5t91.5 47t116.5 21h21z" />
<glyph unicode="s" horiz-adv-x="942" d="M133 717q0 113 94.5 189.5t264.5 76.5q135 0 233 -74t125 -161l-92 -21q-26 70 -96.5 122t-169.5 52q-124 0 -195.5 -55t-71.5 -129q0 -54 35 -90.5t91 -57t123.5 -36.5t135.5 -35.5t124 -47.5t91 -79.5t35 -124.5q0 -122 -102.5 -204.5t-286.5 -82.5q-146 0 -261.5 85 t-148.5 192l93 20q34 -93 114.5 -154t202.5 -61q138 0 217.5 61t79.5 144q0 54 -35 90.5t-91 57t-124 36.5t-135.5 35.5t-123.5 47.5t-91 79.5t-35 124.5z" />
<glyph unicode="t" horiz-adv-x="665" d="M41 860v82h154v266h92v-266h266v-82h-266v-614q0 -98 49 -151.5t135 -53.5q32 0 65.5 10.5t50.5 20.5l17 10l21 -82q-62 -41 -154 -41q-124 0 -200 78.5t-76 208.5v614h-154z" />
<glyph unicode="u" d="M143 389v553h93v-553q0 -165 81 -256.5t215 -91.5q46 0 89.5 13.5t76 35.5t61.5 48t49 52t34.5 48t21.5 36l6 13v655h93v-942h-93v154h-10q-5 -8 -13.5 -21t-40 -46.5t-66.5 -59.5t-91.5 -47t-116.5 -21q-172 0 -280.5 117t-108.5 313z" />
<glyph unicode="v" horiz-adv-x="983" d="M266 0l-205 942h93l184 -860h307l184 860h93l-205 -942h-451z" />
<glyph unicode="w" horiz-adv-x="1392" d="M717 860h-41l-184 -860h-226l-205 942h93l184 -860h82l184 860h184l185 -860h82l184 860h92l-205 -942h-225z" />
<glyph unicode="x" horiz-adv-x="890" d="M440 420l-297 -420h-102l348 492l-328 450h103l276 -379h11l276 379h102l-327 -450l348 -492h-102l-297 420h-11z" />
<glyph unicode="y" horiz-adv-x="983" d="M829 942h93l-205 -942q-52 -238 -130 -334t-198 -96q-41 0 -79 10t-56 20l-18 11l20 82q61 -41 133 -41q82 0 141 79.5t95 268.5h-359l-205 942h93l184 -860h307z" />
<glyph unicode="z" horiz-adv-x="901" d="M819 850l-635 -758v-10h656v-82h-779v92l635 758v10h-614v82h737v-92z" />
<glyph unicode="{" horiz-adv-x="645" d="M287 604v-10q5 -1 12.5 -3t26.5 -13t34 -26t27 -45t12 -67q0 -41 -51 -250.5t-51 -250.5q0 -62 37.5 -98t105.5 -36h123v-92h-123q-121 0 -183 58.5t-62 167.5q0 41 51 250.5t51 250.5q0 47 -35 80t-88 33h-51v92h51q53 0 88 33t35 80q0 41 -51 251t-51 251q0 109 62 167 t183 58h123v-92h-123q-68 0 -105.5 -35.5t-37.5 -97.5q0 -41 51 -251t51 -251q0 -37 -11.5 -66.5t-28 -45.5t-33 -26t-28.5 -13z" />
<glyph unicode="|" horiz-adv-x="512" d="M307 1536v-1741h-102v1741h102z" />
<glyph unicode="}" horiz-adv-x="645" d="M358 594v10q-5 1 -12.5 3t-26.5 13t-34 26t-27 45t-12 67q0 41 51 251t51 251q0 62 -37.5 97.5t-105.5 35.5h-123v92h123q122 0 184 -58t62 -167q0 -41 -51.5 -251t-51.5 -251q0 -47 35 -80t88 -33h51v-92h-51q-53 0 -88 -33t-35 -80q0 -41 51.5 -250.5t51.5 -250.5 q0 -109 -62.5 -167.5t-183.5 -58.5h-123v92h123q68 0 105.5 36t37.5 98q0 41 -51 250.5t-51 250.5q0 37 11.5 66.5t28 45.5t33 26t27.5 13z" />
<glyph unicode="~" horiz-adv-x="829" d="M573 512q-43 0 -80.5 18t-65.5 43.5t-54 51t-56 43.5t-61 18q-41 0 -78.5 -45.5t-44.5 -118.5l-72 31q0 90 58.5 152.5t136.5 62.5q43 0 80.5 -18t65.5 -43.5t54 -51t56 -43.5t61 -18q41 0 78.5 45.5t44.5 118.5l72 -31q0 -90 -58.5 -152.5t-136.5 -62.5z" />
<glyph unicode="&#xa1;" horiz-adv-x="512" d="M205 -410v697l20 266h62l20 -266v-697h-102zM328 911q0 -31 -20.5 -51t-51.5 -20t-51.5 20t-20.5 51t20.5 51.5t51.5 20.5t51.5 -20.5t20.5 -51.5z" />
<glyph unicode="&#xa2;" horiz-adv-x="1044" d="M594 1157v-176q138 -6 231.5 -81t126.5 -183l-92 -21q-34 93 -109 149t-198 56q-150 0 -264.5 -125t-114.5 -305t114.5 -305t264.5 -125q131 0 218 69.5t120 176.5l92 -21q-33 -122 -134 -207t-255 -98v-178h-92v180q-176 21 -298 160.5t-122 347.5t122 347.5t298 160.5 v178h92z" />
<glyph unicode="&#xa3;" horiz-adv-x="1003" d="M420 717v-430q0 -40 -8.5 -74t-20.5 -53.5t-24 -33.5t-21 -19l-8 -5v-10h645v-92h-942v92h82q85 0 139.5 55t54.5 140v430h-153v92h153v338q0 131 78.5 209t208.5 78q41 0 79.5 -10t56.5 -20l18 -11l-21 -93q-6 5 -16.5 11.5t-45.5 18t-71 11.5q-79 0 -131.5 -52 t-52.5 -142v-338h266v-92h-266z" />
<glyph unicode="&#xa4;" horiz-adv-x="1280" d="M236 1413h450q227 0 369.5 -134.5t142.5 -336.5t-142.5 -336.5t-369.5 -134.5h-348v-164h522v-92h-522v-215h-102v215h-154v92h154v164h-154v92h154v850zM686 1321h-348v-758h348q182 0 296 108t114 271t-114 271t-296 108z" />
<glyph unicode="&#xa5;" horiz-adv-x="1208" d="M983 440h-328v-153h328v-92h-328v-195h-102v195h-328v92h328v153h-328v92h277l-482 881h113l471 -860l471 860h113l-481 -881h276v-92z" />
<glyph unicode="&#xa6;" horiz-adv-x="512" d="M307 1536v-737h-102v737h102zM307 532v-737h-102v737h102z" />
<glyph unicode="&#xa7;" horiz-adv-x="1013" d="M236 707q0 -46 31.5 -85t77 -62t90.5 -39.5t77 -22.5l31 -6q5 1 14 3.5t34.5 12t48.5 20.5t51 29.5t48.5 39.5t34.5 50t14 60q0 46 -31.5 85t-77 62t-90.5 39.5t-77 22.5l-31 6q-5 -1 -14 -3.5t-34.5 -12t-48.5 -20.5t-51 -29.5t-48.5 -39.5t-34.5 -50t-14 -60zM881 707 q0 -55 -23.5 -100t-56.5 -71t-66 -44t-57 -24l-23 -7v-10q9 -2 24.5 -6t54.5 -21t68.5 -40t54 -65t24.5 -94q0 -122 -102.5 -204t-286.5 -82q-153 0 -265 85t-145 201l92 21q33 -100 114 -163t204 -63q138 0 217 61t79 144q0 50 -35.5 85t-92.5 56t-126 39t-137.5 40 t-125.5 52.5t-92.5 83.5t-35.5 126q0 55 23.5 101.5t56.5 73.5t66 46.5t57 27.5l23 7v10q-8 2 -21 6.5t-46.5 23.5t-59.5 43t-47 67t-21 95q0 113 94.5 190t263.5 77q135 0 233.5 -74t125.5 -162l-92 -20q-26 70 -97 122t-170 52q-124 0 -195 -55.5t-71 -129.5 q0 -54 34 -92.5t88 -61t119.5 -42t131.5 -42.5t120 -53.5t88 -83.5t34 -126z" />
<glyph unicode="&#xa8;" horiz-adv-x="593" d="M195 1346q0 -26 -20 -46t-46 -20q-28 0 -48 20t-20 46q0 28 20 47.5t48 19.5q27 0 46.5 -19.5t19.5 -47.5zM532 1346q0 -26 -19.5 -46t-45.5 -20q-28 0 -48 20t-20 46q0 28 20 47.5t48 19.5q26 0 45.5 -19.5t19.5 -47.5z" />
<glyph unicode="&#xa9;" horiz-adv-x="1863" d="M932 246q-132 0 -225 96.5t-93 241.5t93 241.5t225 96.5q109 0 181.5 -56.5t105.5 -148.5l-82 -10q-17 52 -72 92.5t-133 40.5q-87 0 -156 -75.5t-69 -180.5t69 -180.5t156 -75.5q93 0 150.5 41.5t74.5 101.5l82 -10q-72 -215 -307 -215zM1761 584q0 -173 -66.5 -331 t-178.5 -271.5t-265 -180.5t-319 -67q-133 0 -259 42.5t-228.5 121.5t-180 183t-120 234t-42.5 269t42.5 269t120 234t180 183t228.5 121.5t259 42.5q166 0 319 -67t265 -180.5t178.5 -271.5t66.5 -331zM1669 584q0 158 -59.5 301t-159 245t-235.5 162t-283 60t-283 -60 t-235.5 -162t-159 -245t-59.5 -301t59.5 -301t159 -245t235.5 -162t283 -60t283 60t235.5 162t159 245t59.5 301z" />
<glyph unicode="&#xaa;" horiz-adv-x="675" d="M276 819q40 0 79 14t66 33.5t48.5 39.5t32.5 34l10 14v90h-174q-184 0 -184 -122q0 -40 35 -71.5t87 -31.5zM338 1413q117 0 186.5 -75.5t69.5 -211.5v-368h-82v102q-4 -5 -11 -13.5t-31 -29.5t-49.5 -37t-65 -29.5t-79.5 -13.5q-97 0 -156 53t-59 132q0 96 68 150 t209 54h174q0 97 -47.5 151t-126.5 54q-64 0 -105.5 -29.5t-58.5 -72.5l-72 20q16 67 79 115.5t157 48.5z" />
<glyph unicode="&#xab;" horiz-adv-x="849" d="M307 82l-225 389l225 389h103l-226 -389l226 -389h-103zM666 82l-226 389l226 389h102l-225 -389l225 -389h-102z" />
<glyph unicode="&#xac;" horiz-adv-x="860" d="M686 430v236h-604v92h696v-328h-92z" />
<glyph unicode="&#xad;" horiz-adv-x="880" d="M799 584h-717v92h717v-92z" />
<glyph unicode="&#xae;" horiz-adv-x="1863" d="M686 911h328q99 0 162 -61t63 -154q0 -43 -14.5 -79t-35.5 -56.5t-42.5 -34.5t-36.5 -19l-14 -5l164 -246h-103l-143 225h-236v-225h-92v655zM1014 829h-236v-266h236q61 0 102 39t41 94t-41 94t-102 39zM1761 584q0 -173 -66.5 -331t-178.5 -271.5t-265 -180.5t-319 -67 q-133 0 -259 42.5t-228.5 121.5t-180 183t-120 234t-42.5 269t42.5 269t120 234t180 183t228.5 121.5t259 42.5q166 0 319 -67t265 -180.5t178.5 -271.5t66.5 -331zM1669 584q0 158 -59.5 301t-159 245t-235.5 162t-283 60t-283 -60t-235.5 -162t-159 -245t-59.5 -301 t59.5 -301t159 -245t235.5 -162t283 -60t283 60t235.5 162t159 245t59.5 301z" />
<glyph unicode="&#xaf;" horiz-adv-x="614" d="M61 1321v92h492v-92h-492z" />
<glyph unicode="&#xb0;" horiz-adv-x="675" d="M594 1147q0 -107 -74.5 -181.5t-181.5 -74.5t-181.5 74.5t-74.5 181.5t74.5 181.5t181.5 74.5t181.5 -74.5t74.5 -181.5zM522 1147q0 77 -54 130.5t-130 53.5t-130 -53.5t-54 -130.5t54 -130.5t130 -53.5t130 53.5t54 130.5z" />
<glyph unicode="&#xb1;" horiz-adv-x="911" d="M82 143v93h328v368h-328v92h328v348h92v-348h327v-92h-327v-368h327v-93h-747z" />
<glyph unicode="&#xb2;" horiz-adv-x="624" d="M461 1208q0 56 -40 89.5t-114 33.5q-138 0 -174 -114l-72 12q16 81 79.5 132.5t166.5 51.5q112 0 179 -58.5t67 -146.5q0 -62 -40 -112t-97.5 -82t-114.5 -60t-97 -62t-40 -73h399v-82h-491v62q0 48 21.5 87.5t56 66.5t75.5 50.5t82.5 45t76 43.5t56 51.5t21.5 64.5z" />
<glyph unicode="&#xb3;" horiz-adv-x="614" d="M307 819q68 0 111 41t43 103t-43 102.5t-111 40.5h-102v61l194 154v10h-307v82h440v-82l-194 -153q100 -8 157.5 -65.5t57.5 -149.5q0 -94 -70 -160t-176 -66q-103 0 -166.5 52t-79.5 133l72 12q37 -115 174 -115z" />
<glyph unicode="&#xb4;" horiz-adv-x="491" d="M389 1413l41 -92l-338 -154l-31 62z" />
<glyph unicode="&#xb5;" d="M143 -410v1352h93v-553q0 -165 81 -256.5t215 -91.5q46 0 89.5 13.5t76 35.5t61.5 48t49 52t34.5 48t21.5 36l6 13v655h93v-942h-93v154h-10q-5 -8 -13.5 -21t-40 -46.5t-66.5 -59.5t-91.5 -47t-116.5 -21q-63 0 -115.5 18t-82.5 43.5t-51.5 51t-28.5 43.5l-8 18h-10 v-543h-93z" />
<glyph unicode="&#xb6;" horiz-adv-x="788" d="M102 1065q0 140 108.5 244t260.5 104h256v-92h-184v-1731h-92v1127q-138 0 -243.5 105t-105.5 243z" />
<glyph unicode="&#xb7;" horiz-adv-x="348" d="M102 717q0 31 20.5 51t51.5 20t51.5 -20t20.5 -51t-20.5 -51.5t-51.5 -20.5t-51.5 20.5t-20.5 51.5z" />
<glyph unicode="&#xb8;" horiz-adv-x="471" d="M307 10l-51 -123q6 -1 16.5 -3t37 -13.5t47 -28.5t37 -51t16.5 -78q0 -77 -55.5 -130.5t-139.5 -53.5q-45 0 -83.5 17.5t-54.5 35.5l-16 17l52 55q5 -5 13.5 -12t35 -19t53.5 -12q46 0 74 28t28 74q0 47 -31 75t-91 28h-41l82 194h71z" />
<glyph unicode="&#xb9;" horiz-adv-x="348" d="M174 737v523q-2 -3 -5.5 -8t-17 -17t-30 -21.5t-43.5 -17.5t-58 -8v61q62 0 108 48t46 116h92v-676h-92z" />
<glyph unicode="&#xba;" horiz-adv-x="716" d="M655 1075q0 -151 -85.5 -244.5t-211.5 -93.5t-211.5 93.5t-85.5 244.5t85.5 244.5t211.5 93.5t211.5 -93.5t85.5 -244.5zM563 1075q0 111 -62.5 183.5t-142.5 72.5t-142 -72.5t-62 -183.5t62 -183.5t142 -72.5t142.5 72.5t62.5 183.5z" />
<glyph unicode="&#xbb;" horiz-adv-x="849" d="M768 471l-225 -389h-103l226 389l-226 389h103zM410 471l-226 -389h-102l225 389l-225 389h102z" />
<glyph unicode="&#xbc;" horiz-adv-x="1341" d="M1096 1413l-871 -1413h-112l870 1413h113zM215 737v523q-2 -3 -5.5 -8t-17 -17t-30 -21.5t-43.5 -17.5t-58 -8v61q62 0 108 48t46 116h92v-676h-92zM1200 0h-92v164h-338v82l213 430h92l-205 -430h238v133h92v-133h82v-82h-82v-164z" />
<glyph unicode="&#xbd;" horiz-adv-x="1361" d="M1096 1413l-871 -1413h-112l870 1413h113zM215 737v523q-2 -3 -5.5 -8t-17 -17t-30 -21.5t-43.5 -17.5t-58 -8v61q62 0 108 48t46 116h92v-676h-92zM1178 471q0 56 -40 89.5t-114 33.5q-137 0 -174 -115l-72 13q16 81 79.5 132.5t166.5 51.5q112 0 179 -58.5t67 -146.5 q0 -53 -29 -97t-72 -72t-93.5 -56t-93.5 -49.5t-72 -51.5t-29 -63h399v-82h-492v61q0 55 29 100t72 72.5t94 55.5t94 50.5t72 57t29 74.5z" />
<glyph unicode="&#xbe;" horiz-adv-x="1454" d="M1208 1413l-870 -1413h-113l871 1413h112zM1313 0h-92v164h-338v82l213 430h92l-205 -430h238v133h92v-133h82v-82h-82v-164zM307 819q68 0 111 41t43 103t-43 102.5t-111 40.5h-102v61l194 154v10h-307v82h440v-82l-194 -153q100 -8 157.5 -65.5t57.5 -149.5 q0 -94 -70 -160t-176 -66q-103 0 -166.5 52t-79.5 133l72 12q37 -115 174 -115z" />
<glyph unicode="&#xbf;" horiz-adv-x="1085" d="M543 -379q153 0 251.5 77.5t147.5 209.5l102 -21q-49 -158 -177 -258t-324 -100q-124 0 -226.5 54t-158.5 138.5t-56 176.5q0 79 25.5 139t66 96.5t89.5 67t98.5 59t90 62t66 87t25.5 123.5h82q0 -83 -24.5 -146.5t-63 -102t-85.5 -69.5t-94 -58.5t-85.5 -59.5t-63 -82 t-24.5 -116q0 -104 98.5 -190.5t239.5 -86.5zM532 891q0 31 20.5 51.5t51.5 20.5t51.5 -20.5t20.5 -51.5t-20.5 -51.5t-51.5 -20.5t-51.5 20.5t-20.5 51.5z" />
<glyph unicode="&#xc0;" horiz-adv-x="1372" d="M481 1321l-205 -850h820l-205 850h-410zM1116 379h-860l-92 -379h-103l338 1413h574l338 -1413h-103zM492 1772l40 92l328 -185l-31 -61z" />
<glyph unicode="&#xc1;" horiz-adv-x="1372" d="M481 1321l-205 -850h820l-205 850h-410zM1116 379h-860l-92 -379h-103l338 1413h574l338 -1413h-103zM829 1864l41 -92l-338 -154l-30 61z" />
<glyph unicode="&#xc2;" horiz-adv-x="1372" d="M481 1321l-205 -850h820l-205 850h-410zM1116 379h-860l-92 -379h-103l338 1413h574l338 -1413h-103zM645 1874h82l236 -307h-103l-174 225l-174 -225h-102z" />
<glyph unicode="&#xc3;" horiz-adv-x="1372" d="M481 1321l-205 -850h820l-205 850h-410zM1116 379h-860l-92 -379h-103l338 1413h574l338 -1413h-103zM799 1618q-38 0 -71 21t-52 45.5t-43.5 45.5t-48.5 21t-43 -21t-19 -51v-51h-82v51q0 68 41 111t103 43q38 0 71 -21t52 -45.5t43.5 -45.5t48.5 -21t42.5 21t18.5 51 v51h82v-51q0 -68 -40.5 -111t-102.5 -43z" />
<glyph unicode="&#xc4;" horiz-adv-x="1372" d="M481 1321l-205 -850h820l-205 850h-410zM1116 379h-860l-92 -379h-103l338 1413h574l338 -1413h-103zM584 1724q0 -26 -20 -45.5t-46 -19.5q-28 0 -47.5 19.5t-19.5 45.5q0 28 19.5 48t47.5 20q26 0 46 -20t20 -48zM922 1724q0 -26 -20 -45.5t-46 -19.5q-28 0 -48 19.5 t-20 45.5q0 28 20 48t48 20q26 0 46 -20t20 -48z" />
<glyph unicode="&#xc5;" horiz-adv-x="1372" d="M481 1321l-205 -850h820l-205 850h-410zM1116 379h-860l-92 -379h-103l338 1413h574l338 -1413h-103zM901 1761q0 -85 -60 -145t-145 -60t-144.5 60t-59.5 145t59.5 145t144.5 60t145 -60t60 -145zM829 1761q0 54 -39.5 93.5t-93.5 39.5t-93.5 -39.5t-39.5 -93.5 t39.5 -93.5t93.5 -39.5t93.5 39.5t39.5 93.5z" />
<glyph unicode="&#xc6;" horiz-adv-x="1976" d="M1075 92h840v-92h-942v379h-717l-92 -379h-103l338 1413h1516v-92h-840v-563h656v-92h-656v-574zM481 1321l-205 -850h697v850h-492z" />
<glyph unicode="&#xc7;" horiz-adv-x="1566" d="M1485 389q-30 -83 -83.5 -158t-129.5 -138.5t-180.5 -104t-223.5 -47.5l-39 -95q6 -1 16.5 -3t37 -13.5t47 -28.5t37 -51t16.5 -78q0 -77 -55.5 -130.5t-139.5 -53.5q-45 0 -83.5 17.5t-54.5 34.5l-15 18l51 55q5 -5 13.5 -12t35 -19t53.5 -12q46 0 74.5 28t28.5 74 q0 47 -31.5 75t-91.5 28h-41l70 166q-178 6 -338 110t-258.5 279.5t-98.5 376.5q0 154 60.5 297t159.5 245.5t230 164t267 61.5q121 0 230.5 -38t187 -99.5t130.5 -134t77 -148.5l-103 -21q-24 68 -68 128.5t-107.5 110.5t-153 79.5t-193.5 29.5q-114 0 -225.5 -54 t-197 -144.5t-138.5 -216t-53 -260.5t53 -261t138.5 -216t197 -144.5t225.5 -54.5q111 0 205 30t162 83.5t116 119.5t80 146z" />
<glyph unicode="&#xc8;" horiz-adv-x="1228" d="M287 92h880v-92h-983v1413h983v-92h-880v-563h696v-92h-696v-574zM481 1772l41 92l328 -185l-31 -61z" />
<glyph unicode="&#xc9;" horiz-adv-x="1228" d="M287 92h880v-92h-983v1413h983v-92h-880v-563h696v-92h-696v-574zM850 1864l41 -92l-338 -154l-31 61z" />
<glyph unicode="&#xca;" horiz-adv-x="1228" d="M287 92h880v-92h-983v1413h983v-92h-880v-563h696v-92h-696v-574zM635 1894h82l235 -307h-102l-174 225l-174 -225h-103z" />
<glyph unicode="&#xcb;" horiz-adv-x="1228" d="M287 92h880v-92h-983v1413h983v-92h-880v-563h696v-92h-696v-574zM573 1724q0 -26 -19.5 -45.5t-45.5 -19.5q-28 0 -48 19.5t-20 45.5q0 28 20 48t48 20q26 0 45.5 -20t19.5 -48zM911 1724q0 -26 -19.5 -45.5t-45.5 -19.5q-28 0 -48 19.5t-20 45.5q0 28 20 48t48 20 q26 0 45.5 -20t19.5 -48z" />
<glyph unicode="&#xcc;" horiz-adv-x="491" d="M307 1413v-1413h-102v1413h102zM-41 1751l41 92l328 -184l-31 -62z" />
<glyph unicode="&#xcd;" horiz-adv-x="491" d="M307 1413v-1413h-102v1413h102zM492 1864l40 -92l-337 -154l-31 61z" />
<glyph unicode="&#xce;" horiz-adv-x="471" d="M287 1413v-1413h-103v1413h103zM195 1905h81l236 -308h-102l-174 226l-175 -226h-102z" />
<glyph unicode="&#xcf;" horiz-adv-x="471" d="M287 1413v-1413h-103v1413h103zM133 1704q0 -26 -19.5 -46t-45.5 -20q-28 0 -48 20t-20 46q0 28 20 48t48 20q26 0 45.5 -20t19.5 -48zM471 1704q0 -26 -19.5 -46t-45.5 -20q-28 0 -48 20t-20 46q0 28 20 48t48 20q26 0 45.5 -20t19.5 -48z" />
<glyph unicode="&#xd0;" horiz-adv-x="1495" d="M82 666v92h164v655h409q162 0 300.5 -53t234 -146t149.5 -224t54 -283q0 -203 -92 -364t-260.5 -252t-385.5 -91h-409v666h-164zM1290 707q0 133 -46.5 247t-129 194.5t-201 126.5t-258.5 46h-307v-563h379v-92h-379v-574h307q187 0 332 79t224 218.5t79 317.5z" />
<glyph unicode="&#xd1;" horiz-adv-x="1454" d="M297 1413l860 -1239h10v1239h103v-1413h-113l-860 1239h-10v-1239h-103v1413h113zM860 1628q-38 0 -71 21t-52 45.5t-43.5 45.5t-48.5 21t-42.5 -20.5t-18.5 -50.5v-52h-82v52q0 68 40.5 110.5t102.5 42.5q38 0 71 -21t52 -45.5t43.5 -45.5t48.5 -21t43 21t19 51v51h82 v-51q0 -68 -41 -111t-103 -43z" />
<glyph unicode="&#xd2;" horiz-adv-x="1679" d="M102 707q0 205 103 383t273 281.5t362 103.5q143 0 278.5 -61.5t236 -164.5t161.5 -245.5t61 -296.5t-61 -296.5t-161.5 -245.5t-236 -164.5t-278.5 -61.5q-192 0 -362 103.5t-273 281.5t-103 383zM1475 707q0 135 -53.5 260.5t-141 216t-203.5 144.5t-237 54t-237 -54 t-203.5 -144.5t-141 -216t-53.5 -260.5t53.5 -260.5t141 -216t203.5 -145t237 -54.5t237 54.5t203.5 145t141 216t53.5 260.5zM625 1802l41 92l327 -184l-30 -61z" />
<glyph unicode="&#xd3;" horiz-adv-x="1679" d="M102 707q0 205 103 383t273 281.5t362 103.5q143 0 278.5 -61.5t236 -164.5t161.5 -245.5t61 -296.5t-61 -296.5t-161.5 -245.5t-236 -164.5t-278.5 -61.5q-192 0 -362 103.5t-273 281.5t-103 383zM1475 707q0 135 -53.5 260.5t-141 216t-203.5 144.5t-237 54t-237 -54 t-203.5 -144.5t-141 -216t-53.5 -260.5t53.5 -260.5t141 -216t203.5 -145t237 -54.5t237 54.5t203.5 145t141 216t53.5 260.5zM1024 1894l41 -92l-338 -153l-31 61z" />
<glyph unicode="&#xd4;" horiz-adv-x="1679" d="M102 707q0 205 103 383t273 281.5t362 103.5q143 0 278.5 -61.5t236 -164.5t161.5 -245.5t61 -296.5t-61 -296.5t-161.5 -245.5t-236 -164.5t-278.5 -61.5q-192 0 -362 103.5t-273 281.5t-103 383zM1475 707q0 135 -53.5 260.5t-141 216t-203.5 144.5t-237 54t-237 -54 t-203.5 -144.5t-141 -216t-53.5 -260.5t53.5 -260.5t141 -216t203.5 -145t237 -54.5t237 54.5t203.5 145t141 216t53.5 260.5zM799 1925h82l235 -307h-102l-174 225l-174 -225h-103z" />
<glyph unicode="&#xd5;" horiz-adv-x="1679" d="M102 707q0 205 103 383t273 281.5t362 103.5q143 0 278.5 -61.5t236 -164.5t161.5 -245.5t61 -296.5t-61 -296.5t-161.5 -245.5t-236 -164.5t-278.5 -61.5q-192 0 -362 103.5t-273 281.5t-103 383zM1475 707q0 135 -53.5 260.5t-141 216t-203.5 144.5t-237 54t-237 -54 t-203.5 -144.5t-141 -216t-53.5 -260.5t53.5 -260.5t141 -216t203.5 -145t237 -54.5t237 54.5t203.5 145t141 216t53.5 260.5zM932 1649q-38 0 -71 21t-52 45.5t-43.5 45.5t-48.5 21t-43 -21t-19 -51v-51h-82v51q0 68 41 111t103 43q38 0 71 -21t52 -45.5t43.5 -45.5 t48.5 -21t42.5 20.5t18.5 50.5v51h82v-51q0 -68 -40.5 -110.5t-102.5 -42.5z" />
<glyph unicode="&#xd6;" horiz-adv-x="1679" d="M102 707q0 205 103 383t273 281.5t362 103.5q143 0 278.5 -61.5t236 -164.5t161.5 -245.5t61 -296.5t-61 -296.5t-161.5 -245.5t-236 -164.5t-278.5 -61.5q-192 0 -362 103.5t-273 281.5t-103 383zM1475 707q0 135 -53.5 260.5t-141 216t-203.5 144.5t-237 54t-237 -54 t-203.5 -144.5t-141 -216t-53.5 -260.5t53.5 -260.5t141 -216t203.5 -145t237 -54.5t237 54.5t203.5 145t141 216t53.5 260.5zM748 1765q0 -26 -20 -45.5t-46 -19.5q-28 0 -48 19.5t-20 45.5q0 28 20 48t48 20q26 0 46 -20t20 -48zM1085 1765q0 -26 -19.5 -45.5t-45.5 -19.5 q-28 0 -48 19.5t-20 45.5q0 28 20 48t48 20q26 0 45.5 -20t19.5 -48z" />
<glyph unicode="&#xd7;" horiz-adv-x="798" d="M399 584l-235 -236l-62 62l236 235l-236 236l62 61l235 -235l236 235l61 -61l-235 -236l235 -235l-61 -62z" />
<glyph unicode="&#xd8;" horiz-adv-x="1740" d="M1464 922l-1157 -512q3 -8 10 -21.5t32 -53t54 -75.5t78 -79.5t103 -75t129.5 -53t156.5 -21.5q121 0 237 54.5t203.5 145t141 216t53.5 260.5q0 50 -10.5 104t-20.5 83zM1608 707q0 -205 -103 -383t-273 -281.5t-362 -103.5q-96 0 -184 23.5t-152 61.5t-119 84t-91 92 t-61.5 84t-36.5 62l-11 23l-215 -93v93l184 82q-6 13 -14.5 35.5t-22.5 89.5t-14 131q0 154 61 296.5t161.5 245.5t236 164.5t278.5 61.5q76 0 146.5 -14.5t126.5 -39.5t106.5 -57.5t88 -68t69.5 -71.5t53.5 -68.5t36.5 -57.5t22 -40l7 -14l215 93v-93l-185 -81 q6 -13 14.5 -35.5t23 -89.5t14.5 -131zM276 492l1158 512q-3 8 -10 21.5t-32 53t-54.5 75t-78.5 79t-103 75t-129.5 53t-156.5 21.5q-121 0 -237 -54t-203 -144.5t-140.5 -216t-53.5 -260.5q0 -50 10 -104t20 -83z" />
<glyph unicode="&#xd9;" horiz-adv-x="1454" d="M727 31q195 0 317.5 130.5t122.5 350.5v901h103v-901q0 -259 -151.5 -416t-391.5 -157t-391.5 157t-151.5 416v901h103v-901q0 -220 122.5 -350.5t317.5 -130.5zM522 1792l41 92l328 -184l-31 -62z" />
<glyph unicode="&#xda;" horiz-adv-x="1454" d="M727 31q195 0 317.5 130.5t122.5 350.5v901h103v-901q0 -259 -151.5 -416t-391.5 -157t-391.5 157t-151.5 416v901h103v-901q0 -220 122.5 -350.5t317.5 -130.5zM911 1884l41 -92l-338 -154l-30 62z" />
<glyph unicode="&#xdb;" horiz-adv-x="1454" d="M727 31q195 0 317.5 130.5t122.5 350.5v901h103v-901q0 -259 -151.5 -416t-391.5 -157t-391.5 157t-151.5 416v901h103v-901q0 -220 122.5 -350.5t317.5 -130.5zM696 1905h82l236 -308h-103l-174 226l-174 -226h-102z" />
<glyph unicode="&#xdc;" horiz-adv-x="1454" d="M727 31q195 0 317.5 130.5t122.5 350.5v901h103v-901q0 -259 -151.5 -416t-391.5 -157t-391.5 157t-151.5 416v901h103v-901q0 -220 122.5 -350.5t317.5 -130.5zM614 1724q0 -26 -19.5 -45.5t-45.5 -19.5q-28 0 -48 19.5t-20 45.5q0 28 20 48t48 20q26 0 45.5 -20 t19.5 -48zM952 1724q0 -26 -19.5 -45.5t-45.5 -19.5q-28 0 -48 19.5t-20 45.5q0 28 20 48t48 20q26 0 45.5 -20t19.5 -48z" />
<glyph unicode="&#xdd;" horiz-adv-x="1290" d="M594 471l-574 942h113l512 -840l512 840h113l-574 -942v-471h-102v471zM840 1864l41 -92l-338 -154l-31 61z" />
<glyph unicode="&#xde;" horiz-adv-x="1290" d="M287 1311h256q191 0 338.5 -78t227 -213t79.5 -303t-79.5 -303t-227 -213t-338.5 -78h-256v-164h-103v1516h103v-164zM543 1219h-256v-1004h256q243 0 392.5 142t149.5 360t-149.5 360t-392.5 142z" />
<glyph unicode="&#xdf;" d="M512 799h20q116 0 196.5 80.5t80.5 195.5q0 129 -80 213t-197 84t-196.5 -84t-79.5 -213v-1075h-92v1075q0 161 107 270t261 109q155 0 262 -109.5t107 -269.5q0 -52 -12 -96.5t-31 -74.5t-41.5 -53.5t-45.5 -36.5t-42 -21.5t-31 -11.5l-12 -3v-10q7 -1 18.5 -2.5 t44.5 -11.5t63 -24.5t66.5 -43.5t63 -66t44.5 -94.5t18 -126.5q0 -166 -115 -282.5t-295 -116.5h-113v82h113q130 0 223.5 93t93.5 224t-93.5 224.5t-223.5 93.5h-82v82z" />
<glyph unicode="&#xe0;" d="M870 0v154h-10q-5 -8 -13.5 -21t-40 -46.5t-66.5 -59.5t-91.5 -47t-116.5 -21q-88 0 -170 38.5t-144 105.5t-99 163t-37 205t37 205t99 163t144 105.5t170 38.5q60 0 116 -20t93 -48.5t65 -57.5t41 -49l13 -20h10v154h93v-942h-93zM870 287v368q-5 10 -14 26.5t-40.5 59 t-67.5 75t-94.5 59t-121.5 26.5q-143 0 -250.5 -122t-107.5 -308t107.5 -308t250.5 -122q46 0 89.5 13.5t76 35.5t61.5 48t49 52t34.5 48t21.5 36zM358 1339l41 93l328 -185l-31 -61z" />
<glyph unicode="&#xe1;" d="M870 0v154h-10q-5 -8 -13.5 -21t-40 -46.5t-66.5 -59.5t-91.5 -47t-116.5 -21q-88 0 -170 38.5t-144 105.5t-99 163t-37 205t37 205t99 163t144 105.5t170 38.5q60 0 116 -20t93 -48.5t65 -57.5t41 -49l13 -20h10v154h93v-942h-93zM870 287v368q-5 10 -14 26.5t-40.5 59 t-67.5 75t-94.5 59t-121.5 26.5q-143 0 -250.5 -122t-107.5 -308t107.5 -308t250.5 -122q46 0 89.5 13.5t76 35.5t61.5 48t49 52t34.5 48t21.5 36zM717 1434l41 -93l-338 -153l-31 61z" />
<glyph unicode="&#xe2;" d="M870 0v154h-10q-5 -8 -13.5 -21t-40 -46.5t-66.5 -59.5t-91.5 -47t-116.5 -21q-88 0 -170 38.5t-144 105.5t-99 163t-37 205t37 205t99 163t144 105.5t170 38.5q60 0 116 -20t93 -48.5t65 -57.5t41 -49l13 -20h10v154h93v-942h-93zM870 287v368q-5 10 -14 26.5t-40.5 59 t-67.5 75t-94.5 59t-121.5 26.5q-143 0 -250.5 -122t-107.5 -308t107.5 -308t250.5 -122q46 0 89.5 13.5t76 35.5t61.5 48t49 52t34.5 48t21.5 36zM512 1464h82l235 -307h-102l-174 225l-174 -225h-103z" />
<glyph unicode="&#xe3;" d="M870 0v154h-10q-5 -8 -13.5 -21t-40 -46.5t-66.5 -59.5t-91.5 -47t-116.5 -21q-88 0 -170 38.5t-144 105.5t-99 163t-37 205t37 205t99 163t144 105.5t170 38.5q60 0 116 -20t93 -48.5t65 -57.5t41 -49l13 -20h10v154h93v-942h-93zM870 287v368q-5 10 -14 26.5t-40.5 59 t-67.5 75t-94.5 59t-121.5 26.5q-143 0 -250.5 -122t-107.5 -308t107.5 -308t250.5 -122q46 0 89.5 13.5t76 35.5t61.5 48t49 52t34.5 48t21.5 36zM666 1188q-38 0 -71 21t-52 45.5t-43.5 45.5t-48.5 21t-43 -21t-19 -51v-51h-82v51q0 68 41 111t103 43q38 0 71 -21 t52 -45.5t43.5 -45.5t48.5 -21t42.5 20.5t18.5 50.5v52h82v-52q0 -68 -40.5 -110.5t-102.5 -42.5z" />
<glyph unicode="&#xe4;" d="M870 0v154h-10q-5 -8 -13.5 -21t-40 -46.5t-66.5 -59.5t-91.5 -47t-116.5 -21q-88 0 -170 38.5t-144 105.5t-99 163t-37 205t37 205t99 163t144 105.5t170 38.5q60 0 116 -20t93 -48.5t65 -57.5t41 -49l13 -20h10v154h93v-942h-93zM870 287v368q-5 10 -14 26.5t-40.5 59 t-67.5 75t-94.5 59t-121.5 26.5q-143 0 -250.5 -122t-107.5 -308t107.5 -308t250.5 -122q46 0 89.5 13.5t76 35.5t61.5 48t49 52t34.5 48t21.5 36zM451 1274q0 -26 -20 -46t-46 -20q-28 0 -48 20t-20 46q0 28 20 47.5t48 19.5q27 0 46.5 -19.5t19.5 -47.5zM788 1274 q0 -26 -19.5 -46t-45.5 -20q-28 0 -48 20t-20 46q0 28 20 47.5t48 19.5q26 0 45.5 -19.5t19.5 -47.5z" />
<glyph unicode="&#xe5;" d="M870 0v154h-10q-5 -8 -13.5 -21t-40 -46.5t-66.5 -59.5t-91.5 -47t-116.5 -21q-88 0 -170 38.5t-144 105.5t-99 163t-37 205t37 205t99 163t144 105.5t170 38.5q60 0 116 -20t93 -48.5t65 -57.5t41 -49l13 -20h10v154h93v-942h-93zM870 287v368q-5 10 -14 26.5t-40.5 59 t-67.5 75t-94.5 59t-121.5 26.5q-143 0 -250.5 -122t-107.5 -308t107.5 -308t250.5 -122q46 0 89.5 13.5t76 35.5t61.5 48t49 52t34.5 48t21.5 36zM758 1352q0 -85 -60 -145t-145 -60t-145 60t-60 145t60 144.5t145 59.5t145 -59.5t60 -144.5zM686 1352q0 54 -39.5 93.5 t-93.5 39.5t-93.5 -39.5t-39.5 -93.5t39.5 -93.5t93.5 -39.5t93.5 39.5t39.5 93.5z" />
<glyph unicode="&#xe6;" horiz-adv-x="1771" d="M881 748q64 100 156.5 167.5t211.5 67.5q84 0 164 -39t141 -105.5t98.5 -163t37.5 -204.5l-41 -41h-748q7 -158 116.5 -273.5t242.5 -115.5q127 0 215.5 70t121.5 176l93 -21q-16 -59 -52 -113t-89.5 -98t-128.5 -70t-160 -26q-142 0 -249.5 80.5t-150.5 185.5h-10 q-2 -6 -6.5 -15.5t-21.5 -37t-37.5 -52.5t-56 -56t-76.5 -53t-99 -37t-123 -15q-155 0 -251.5 82.5t-96.5 194.5t96.5 194t251.5 82h379v61q0 151 -82 239.5t-215 88.5q-55 0 -102.5 -17t-76 -41t-49.5 -48t-30 -41l-8 -17l-82 31q3 9 10.5 23.5t36 51.5t64 65.5t99.5 51.5 t138 23q61 0 113.5 -13t88 -33.5t64 -45.5t45.5 -50.5t28 -46t15 -33.5l4 -13h11zM1249 901q-128 0 -234.5 -113t-113.5 -276h696q-5 104 -57.5 195t-130.5 142.5t-160 51.5zM430 41q162 0 270.5 110.5t108.5 278.5h-379q-126 0 -191 -53t-65 -141t65 -141.5t191 -53.5z" />
<glyph unicode="&#xe7;" horiz-adv-x="1044" d="M983 266q-32 -118 -136 -206.5t-255 -98.5l-39 -94q6 -1 16.5 -3t37 -13.5t47 -28.5t37 -51t16.5 -78q0 -77 -55.5 -131t-139.5 -54q-45 0 -83.5 17.5t-54.5 34.5l-16 18l52 55q5 -5 13.5 -12t35 -19t53.5 -12q46 0 74 28.5t28 74.5q0 47 -31 74.5t-91 27.5h-41l69 166 q-178 14 -308 161t-130 349q0 140 66 258.5t174.5 186t230.5 67.5q107 0 193 -39.5t135 -98t71 -128.5l-92 -21q-34 93 -109 149t-198 56q-150 0 -264.5 -125t-114.5 -305t114.5 -305t264.5 -125q131 0 218 69.5t120 176.5z" />
<glyph unicode="&#xe8;" horiz-adv-x="1064" d="M532 983q88 0 170 -38.5t144 -105.5t99.5 -163.5t37.5 -204.5l-41 -41h-768q15 -168 123.5 -278.5t255.5 -110.5q131 0 218 69.5t120 176.5l92 -21q-16 -59 -52 -113t-89.5 -98t-128.5 -70t-160 -26q-122 0 -230.5 67.5t-174.5 186t-66 258.5q0 109 37 205t99 163 t144 105.5t170 38.5zM532 901q-140 0 -245.5 -111.5t-112.5 -277.5h717q-7 166 -113 277.5t-246 111.5zM358 1341l41 93l328 -185l-31 -61z" />
<glyph unicode="&#xe9;" horiz-adv-x="1064" d="M532 983q88 0 170 -38.5t144 -105.5t99.5 -163.5t37.5 -204.5l-41 -41h-768q15 -168 123.5 -278.5t255.5 -110.5q131 0 218 69.5t120 176.5l92 -21q-16 -59 -52 -113t-89.5 -98t-128.5 -70t-160 -26q-122 0 -230.5 67.5t-174.5 186t-66 258.5q0 109 37 205t99 163 t144 105.5t170 38.5zM532 901q-140 0 -245.5 -111.5t-112.5 -277.5h717q-7 166 -113 277.5t-246 111.5zM696 1434l41 -93l-338 -153l-30 61z" />
<glyph unicode="&#xea;" horiz-adv-x="1064" d="M532 983q88 0 170 -38.5t144 -105.5t99.5 -163.5t37.5 -204.5l-41 -41h-768q15 -168 123.5 -278.5t255.5 -110.5q131 0 218 69.5t120 176.5l92 -21q-16 -59 -52 -113t-89.5 -98t-128.5 -70t-160 -26q-122 0 -230.5 67.5t-174.5 186t-66 258.5q0 109 37 205t99 163 t144 105.5t170 38.5zM532 901q-140 0 -245.5 -111.5t-112.5 -277.5h717q-7 166 -113 277.5t-246 111.5zM502 1444h82l235 -307h-102l-174 225l-174 -225h-103z" />
<glyph unicode="&#xeb;" horiz-adv-x="1064" d="M532 983q88 0 170 -38.5t144 -105.5t99.5 -163.5t37.5 -204.5l-41 -41h-768q15 -168 123.5 -278.5t255.5 -110.5q131 0 218 69.5t120 176.5l92 -21q-16 -59 -52 -113t-89.5 -98t-128.5 -70t-160 -26q-122 0 -230.5 67.5t-174.5 186t-66 258.5q0 109 37 205t99 163 t144 105.5t170 38.5zM532 901q-140 0 -245.5 -111.5t-112.5 -277.5h717q-7 166 -113 277.5t-246 111.5zM430 1274q0 -26 -19.5 -46t-45.5 -20q-28 0 -48 20t-20 46q0 28 20 47.5t48 19.5q26 0 45.5 -19.5t19.5 -47.5zM768 1274q0 -26 -20 -46t-46 -20q-28 0 -47.5 20 t-19.5 46q0 28 19.5 47.5t47.5 19.5q26 0 46 -19.5t20 -47.5z" />
<glyph unicode="&#xec;" horiz-adv-x="409" d="M-82 1341l41 93l328 -185l-31 -61zM154 0v942h92v-942h-92z" />
<glyph unicode="&#xed;" horiz-adv-x="409" d="M410 1413l41 -92l-338 -154l-31 62zM154 0v942h92v-942h-92z" />
<glyph unicode="&#xee;" horiz-adv-x="430" d="M174 1413h82l236 -307h-103l-174 225l-174 -225h-102zM174 0v942h92v-942h-92z" />
<glyph unicode="&#xef;" horiz-adv-x="389" d="M92 1253q0 -26 -19.5 -45.5t-45.5 -19.5q-28 0 -48 19.5t-20 45.5q0 28 20 48t48 20q26 0 45.5 -20t19.5 -48zM430 1253q0 -26 -19.5 -45.5t-45.5 -19.5q-28 0 -48 19.5t-20 45.5q0 28 20 48t48 20q26 0 45.5 -20t19.5 -48zM154 0v942h92v-942h-92z" />
<glyph unicode="&#xf0;" d="M614 1116l-51 62l142 112q-48 58 -152 174l61 52q116 -129 154 -177l143 115l52 -61l-146 -115q166 -224 166 -438v-410q0 -205 -129 -338t-322 -133t-321.5 132.5t-128.5 338.5t128.5 338.5t321.5 132.5q74 0 137.5 -23t101 -56.5t64 -66.5t36.5 -56l10 -23h10v164 q0 202 -137 387zM532 41q156 0 257.5 107t101.5 282t-101.5 282t-257.5 107t-257 -107t-101 -282t101 -282t257 -107z" />
<glyph unicode="&#xf1;" horiz-adv-x="1085" d="M963 553v-553h-93v553q0 165 -81.5 256.5t-215.5 91.5q-63 0 -121 -25.5t-95.5 -61.5t-66 -72t-41.5 -62l-13 -25v-655h-93v942h93v-154h10q5 8 13.5 21t39.5 46.5t66 59.5t91.5 47t116.5 21q172 0 281 -117t109 -313zM645 1198q-38 0 -71 21t-52 45.5t-43.5 45.5 t-48.5 21t-42.5 -20.5t-18.5 -50.5v-52h-82v52q0 68 40.5 110.5t102.5 42.5q38 0 71 -21t52 -45.5t43.5 -45.5t48.5 -21t43 21t19 51v51h81v-51q0 -68 -40.5 -111t-102.5 -43z" />
<glyph unicode="&#xf2;" horiz-adv-x="1126" d="M1044 471q0 -140 -66.5 -258.5t-177 -186t-237.5 -67.5t-237.5 67.5t-177 186t-66.5 258.5t66.5 258.5t177 186t237.5 67.5t237.5 -67.5t177 -186t66.5 -258.5zM952 471q0 181 -116 305.5t-273 124.5t-273 -124.5t-116 -305.5t116 -305.5t273 -124.5t273 124.5t116 305.5 zM369 1321l41 92l327 -184l-30 -62z" />
<glyph unicode="&#xf3;" horiz-adv-x="1126" d="M1044 471q0 -140 -66.5 -258.5t-177 -186t-237.5 -67.5t-237.5 67.5t-177 186t-66.5 258.5t66.5 258.5t177 186t237.5 67.5t237.5 -67.5t177 -186t66.5 -258.5zM952 471q0 181 -116 305.5t-273 124.5t-273 -124.5t-116 -305.5t116 -305.5t273 -124.5t273 124.5t116 305.5 zM727 1434l41 -93l-338 -153l-31 61z" />
<glyph unicode="&#xf4;" horiz-adv-x="1126" d="M1044 471q0 -140 -66.5 -258.5t-177 -186t-237.5 -67.5t-237.5 67.5t-177 186t-66.5 258.5t66.5 258.5t177 186t237.5 67.5t237.5 -67.5t177 -186t66.5 -258.5zM952 471q0 181 -116 305.5t-273 124.5t-273 -124.5t-116 -305.5t116 -305.5t273 -124.5t273 124.5t116 305.5 zM522 1475h82l236 -308h-103l-174 226l-174 -226h-102z" />
<glyph unicode="&#xf5;" horiz-adv-x="1126" d="M1044 471q0 -140 -66.5 -258.5t-177 -186t-237.5 -67.5t-237.5 67.5t-177 186t-66.5 258.5t66.5 258.5t177 186t237.5 67.5t237.5 -67.5t177 -186t66.5 -258.5zM952 471q0 181 -116 305.5t-273 124.5t-273 -124.5t-116 -305.5t116 -305.5t273 -124.5t273 124.5t116 305.5 zM676 1167q-38 0 -71 21t-52 45.5t-43.5 45.5t-48.5 21t-43 -20.5t-19 -50.5v-51h-82v51q0 68 41 110.5t103 42.5q38 0 71 -21t52 -45.5t43.5 -45.5t48.5 -21t42.5 21t18.5 51v51h82v-51q0 -68 -40.5 -111t-102.5 -43z" />
<glyph unicode="&#xf6;" horiz-adv-x="1126" d="M1044 471q0 -140 -66.5 -258.5t-177 -186t-237.5 -67.5t-237.5 67.5t-177 186t-66.5 258.5t66.5 258.5t177 186t237.5 67.5t237.5 -67.5t177 -186t66.5 -258.5zM952 471q0 181 -116 305.5t-273 124.5t-273 -124.5t-116 -305.5t116 -305.5t273 -124.5t273 124.5t116 305.5 zM461 1294q0 -26 -20 -45.5t-46 -19.5q-28 0 -47.5 19.5t-19.5 45.5q0 28 19.5 48t47.5 20q26 0 46 -20t20 -48zM799 1294q0 -26 -20 -45.5t-46 -19.5q-28 0 -47.5 19.5t-19.5 45.5q0 28 19.5 48t47.5 20q26 0 46 -20t20 -48z" />
<glyph unicode="&#xf7;" horiz-adv-x="880" d="M440 174q-31 0 -51 20.5t-20 51.5t20 51t51 20t51.5 -20t20.5 -51t-20.5 -51.5t-51.5 -20.5zM82 584v92h717v-92h-717zM440 1085q31 0 51.5 -20t20.5 -51t-20.5 -51.5t-51.5 -20.5t-51 20.5t-20 51.5t20 51t51 20z" />
<glyph unicode="&#xf8;" horiz-adv-x="1187" d="M1075 471q0 -140 -66.5 -258.5t-177 -186t-237.5 -67.5q-63 0 -120.5 16t-99.5 41t-78 55.5t-59.5 61.5t-40.5 56t-24 41l-8 16l-164 -72v82l133 61q-20 62 -20 154q0 140 66.5 258.5t177 186t237.5 67.5q63 0 120.5 -16t99.5 -41t78 -55.5t59.5 -61.5t40.5 -56t24 -41 l8 -16l164 72v-82l-133 -61q20 -62 20 -154zM983 471q0 32 -2.5 62.5t-4.5 45.5l-3 15l-727 -318q4 -10 12.5 -25.5t39.5 -56t67.5 -71.5t98 -56.5t130.5 -25.5q157 0 273 124.5t116 305.5zM205 471q0 -32 2.5 -62.5t4.5 -45.5l3 -15l727 318q-4 10 -12.5 25.5t-39.5 56 t-67.5 71.5t-98 56.5t-130.5 25.5q-157 0 -273 -124.5t-116 -305.5z" />
<glyph unicode="&#xf9;" d="M143 389v553h93v-553q0 -165 81 -256.5t215 -91.5q46 0 89.5 13.5t76 35.5t61.5 48t49 52t34.5 48t21.5 36l6 13v655h93v-942h-93v154h-10q-5 -8 -13.5 -21t-40 -46.5t-66.5 -59.5t-91.5 -47t-116.5 -21q-172 0 -280.5 117t-108.5 313zM369 1311l41 92l327 -184l-30 -62z " />
<glyph unicode="&#xfa;" d="M143 389v553h93v-553q0 -165 81 -256.5t215 -91.5q46 0 89.5 13.5t76 35.5t61.5 48t49 52t34.5 48t21.5 36l6 13v655h93v-942h-93v154h-10q-5 -8 -13.5 -21t-40 -46.5t-66.5 -59.5t-91.5 -47t-116.5 -21q-172 0 -280.5 117t-108.5 313zM727 1393l41 -93l-338 -153l-31 61 z" />
<glyph unicode="&#xfb;" d="M143 389v553h93v-553q0 -165 81 -256.5t215 -91.5q46 0 89.5 13.5t76 35.5t61.5 48t49 52t34.5 48t21.5 36l6 13v655h93v-942h-93v154h-10q-5 -8 -13.5 -21t-40 -46.5t-66.5 -59.5t-91.5 -47t-116.5 -21q-172 0 -280.5 117t-108.5 313zM512 1454h82l235 -307h-102 l-174 225l-174 -225h-103z" />
<glyph unicode="&#xfc;" d="M143 389v553h93v-553q0 -165 81 -256.5t215 -91.5q46 0 89.5 13.5t76 35.5t61.5 48t49 52t34.5 48t21.5 36l6 13v655h93v-942h-93v154h-10q-5 -8 -13.5 -21t-40 -46.5t-66.5 -59.5t-91.5 -47t-116.5 -21q-172 0 -280.5 117t-108.5 313zM451 1253q0 -26 -20 -45.5 t-46 -19.5q-28 0 -48 19.5t-20 45.5q0 28 20 48t48 20q26 0 46 -20t20 -48zM788 1253q0 -26 -19.5 -45.5t-45.5 -19.5q-28 0 -48 19.5t-20 45.5q0 28 20 48t48 20q26 0 45.5 -20t19.5 -48z" />
<glyph unicode="&#xfd;" horiz-adv-x="983" d="M829 942h93l-205 -942q-52 -238 -130 -334t-198 -96q-41 0 -79 10t-56 20l-18 11l20 82q61 -41 133 -41q82 0 141 79.5t95 268.5h-359l-205 942h93l184 -860h307zM666 1413l41 -92l-338 -154l-31 62z" />
<glyph unicode="&#xfe;" horiz-adv-x="1116" d="M246 1413v-625h10q5 8 13.5 21t40 46.5t66.5 59.5t91.5 47t116.5 21q88 0 170 -38.5t144 -105.5t99 -163t37 -205t-37 -205t-99 -163t-144 -105.5t-170 -38.5q-60 0 -116 20t-93 48.5t-65 57.5t-41 49l-13 20h-10v-564h-92v1823h92zM246 655v-368q5 -10 14 -26.5 t40.5 -59t67.5 -75t94.5 -59t121.5 -26.5q143 0 250.5 122t107.5 308t-107.5 308t-250.5 122q-63 0 -121 -25.5t-96 -61.5t-66.5 -72t-41.5 -62z" />
<glyph unicode="&#xff;" horiz-adv-x="983" d="M829 942h93l-205 -942q-52 -238 -130 -334t-198 -96q-41 0 -79 10t-56 20l-18 11l20 82q61 -41 133 -41q82 0 141 79.5t95 268.5h-359l-205 942h93l184 -860h307zM389 1233q0 -26 -19.5 -46t-45.5 -20q-28 0 -48 20t-20 46q0 28 20 47.5t48 19.5q26 0 45.5 -19.5 t19.5 -47.5zM727 1233q0 -26 -19.5 -46t-45.5 -20q-28 0 -48 20t-20 46q0 28 20 47.5t48 19.5q26 0 45.5 -19.5t19.5 -47.5z" />
<glyph unicode="&#x152;" horiz-adv-x="2058" d="M1157 92h840v-92h-1157q-217 0 -385.5 91t-260.5 252t-92 364q0 152 54 283t149.5 224t234 146t300.5 53h1157v-92h-840v-563h655v-92h-655v-574zM205 707q0 -178 79 -317.5t224 -218.5t332 -79h215v1229h-215q-140 0 -258.5 -46t-201 -126.5t-129 -194.5t-46.5 -247z " />
<glyph unicode="&#x153;" horiz-adv-x="1853" d="M1331 983q84 0 164 -39t141 -105.5t98.5 -163t37.5 -204.5l-41 -41h-748q4 -79 36 -151.5t81.5 -124t113 -82.5t127.5 -31q125 0 215.5 70.5t122.5 175.5l93 -21q-16 -59 -52 -113t-89.5 -98t-129 -70t-160.5 -26q-80 0 -151 27.5t-114.5 66.5t-75 78t-44.5 67l-14 27 h-10q-2 -6 -7 -15.5t-22.5 -37t-38 -52.5t-55 -56t-73 -53t-92 -37t-112.5 -15q-88 0 -170 38.5t-144 105.5t-99 163t-37 205t37 205t99 163t144 105.5t170 38.5q59 0 112.5 -15t92.5 -39.5t72.5 -54t55.5 -59t37.5 -54t22.5 -39.5l7 -15h10q2 6 7 16t22 38.5t37 54.5t54 58 t71 55t89.5 38.5t108.5 15.5zM891 471q0 186 -108 308t-251 122t-250.5 -122t-107.5 -308t107.5 -308t250.5 -122t251 122t108 308zM1331 901q-128 0 -234.5 -113t-113.5 -276h696q-5 104 -57.5 195t-130.5 142.5t-160 51.5z" />
<glyph unicode="&#x178;" horiz-adv-x="1290" d="M594 471l-574 942h113l512 -840l512 840h113l-574 -942v-471h-102v471zM553 1704q0 -26 -20 -46t-46 -20q-27 0 -47 20t-20 46q0 28 19.5 48t47.5 20q26 0 46 -20t20 -48zM891 1704q0 -26 -20 -46t-46 -20q-27 0 -47 20t-20 46q0 28 19.5 48t47.5 20q26 0 46 -20t20 -48z " />
<glyph unicode="&#x2c6;" horiz-adv-x="675" d="M297 1413h82l235 -307h-102l-174 225l-174 -225h-103z" />
<glyph unicode="&#x2dc;" horiz-adv-x="624" d="M420 1188q-38 0 -71 21t-52 45.5t-43.5 45.5t-48.5 21t-43 -21t-19 -51v-51h-82v51q0 68 41 111t103 43q38 0 71 -21t52 -45.5t43.5 -45.5t48.5 -21t42.5 20.5t18.5 50.5v52h82v-52q0 -68 -40.5 -110.5t-102.5 -42.5z" />
<glyph unicode="&#x2000;" horiz-adv-x="983" />
<glyph unicode="&#x2001;" horiz-adv-x="1966" />
<glyph unicode="&#x2002;" horiz-adv-x="983" />
<glyph unicode="&#x2003;" horiz-adv-x="1966" />
<glyph unicode="&#x2004;" horiz-adv-x="655" />
<glyph unicode="&#x2005;" horiz-adv-x="491" />
<glyph unicode="&#x2006;" horiz-adv-x="327" />
<glyph unicode="&#x2007;" horiz-adv-x="327" />
<glyph unicode="&#x2008;" horiz-adv-x="245" />
<glyph unicode="&#x2009;" horiz-adv-x="393" />
<glyph unicode="&#x200a;" horiz-adv-x="109" />
<glyph unicode="&#x2010;" horiz-adv-x="880" d="M799 584h-717v92h717v-92z" />
<glyph unicode="&#x2011;" horiz-adv-x="880" d="M799 584h-717v92h717v-92z" />
<glyph unicode="&#x2012;" horiz-adv-x="880" d="M799 584h-717v92h717v-92z" />
<glyph unicode="&#x2013;" horiz-adv-x="1249" d="M1167 512h-1085v82h1085v-82z" />
<glyph unicode="&#x2014;" horiz-adv-x="1556" d="M1475 512h-1393v82h1393v-82z" />
<glyph unicode="&#x2018;" horiz-adv-x="348" d="M246 1178q0 -31 -20.5 -51.5t-51.5 -20.5t-51.5 20.5t-20.5 51.5q0 14 8 31.5t16 28.5l7 11l92 164h41l-61 -174q5 -2 11.5 -6.5t18 -20.5t11.5 -34z" />
<glyph unicode="&#x2019;" horiz-adv-x="348" d="M102 1341q0 31 20.5 51.5t51.5 20.5t51.5 -20.5t20.5 -51.5q0 -14 -8 -31.5t-16 -28.5l-7 -11l-92 -164h-41l61 174q-5 2 -11.5 6.5t-18 20.5t-11.5 34z" />
<glyph unicode="&#x201a;" horiz-adv-x="348" d="M102 51q0 31 20.5 51.5t51.5 20.5t51.5 -20.5t20.5 -51.5q0 -14 -8 -31.5t-16 -28.5l-7 -11l-92 -164h-41l61 174q-5 2 -11.5 6.5t-18 20.5t-11.5 34z" />
<glyph unicode="&#x201c;" horiz-adv-x="614" d="M512 1178q0 -31 -20.5 -51.5t-51.5 -20.5t-51 20.5t-20 51.5q0 14 7.5 31.5t15.5 28.5l7 11l93 164h40l-61 -174q5 -2 11.5 -6.5t18 -20.5t11.5 -34zM246 1178q0 -31 -20.5 -51.5t-51.5 -20.5t-51.5 20.5t-20.5 51.5q0 14 8 31.5t16 28.5l7 11l92 164h41l-61 -174 q5 -2 11.5 -6.5t18 -20.5t11.5 -34z" />
<glyph unicode="&#x201d;" horiz-adv-x="614" d="M102 1341q0 31 20.5 51.5t51.5 20.5t51.5 -20.5t20.5 -51.5q0 -14 -8 -31.5t-16 -28.5l-7 -11l-92 -164h-41l61 174q-5 2 -11.5 6.5t-18 20.5t-11.5 34zM369 1341q0 31 20 51.5t51 20.5t51.5 -20.5t20.5 -51.5q0 -14 -8 -31.5t-16 -28.5l-7 -11l-92 -164h-41l62 174 q-5 2 -11.5 6.5t-18 20.5t-11.5 34z" />
<glyph unicode="&#x201e;" horiz-adv-x="614" d="M102 51q0 31 20.5 51.5t51.5 20.5t51.5 -20.5t20.5 -51.5q0 -14 -8 -31.5t-16 -28.5l-7 -11l-92 -164h-41l61 174q-5 2 -11.5 6.5t-18 20.5t-11.5 34zM369 51q0 31 20 51.5t51 20.5t51.5 -20.5t20.5 -51.5q0 -14 -8 -31.5t-16 -28.5l-7 -11l-92 -164h-41l62 174 q-5 2 -11.5 6.5t-18 20.5t-11.5 34z" />
<glyph unicode="&#x2022;" horiz-adv-x="512" d="M143 614q0 46 33.5 79.5t79.5 33.5t79.5 -33.5t33.5 -79.5t-33.5 -79t-79.5 -33t-79.5 33t-33.5 79z" />
<glyph unicode="&#x2026;" horiz-adv-x="1126" d="M492 51q0 31 20 51.5t51 20.5t51.5 -20.5t20.5 -51.5t-20.5 -51t-51.5 -20t-51 20t-20 51zM881 51q0 31 20 51.5t51 20.5t51.5 -20.5t20.5 -51.5t-20.5 -51t-51.5 -20t-51 20t-20 51zM102 51q0 31 20.5 51.5t51.5 20.5t51.5 -20.5t20.5 -51.5t-20.5 -51t-51.5 -20 t-51.5 20t-20.5 51z" />
<glyph unicode="&#x202f;" horiz-adv-x="393" />
<glyph unicode="&#x2039;" horiz-adv-x="675" d="M205 471l389 -410l-62 -61l-450 471l450 471l62 -61z" />
<glyph unicode="&#x203a;" horiz-adv-x="675" d="M82 61l389 410l-389 410l61 61l451 -471l-451 -471z" />
<glyph unicode="&#x205f;" horiz-adv-x="491" />
<glyph unicode="&#x20ac;" horiz-adv-x="1628" d="M41 799v82h164q31 119 96.5 226.5t155 189.5t205.5 130t239 48q121 0 230.5 -38t187 -99.5t130.5 -134t77 -148.5l-103 -21q-24 68 -68 128.5t-107.5 110.5t-153 79.5t-193.5 29.5q-101 0 -197.5 -41t-172.5 -110t-133.5 -159.5t-86.5 -190.5h590v-82h-604 q-10 -41 -10 -92q0 -27 2.5 -55.5t4.5 -43.5l3 -14h604v-82h-584q27 -93 83.5 -179t131.5 -153.5t172 -108t197 -40.5q111 0 205 30t162 83.5t116 119.5t80 146l103 -21q-32 -88 -89.5 -166t-139 -143t-195 -103t-242.5 -38q-123 0 -239 47.5t-204.5 127.5t-152 183 t-90.5 215h-174v82h154q-11 52 -11 113q0 23 3 46t5 35l3 11h-154z" />
<glyph unicode="&#x2122;" horiz-adv-x="1443" d="M993 942l-256 348v-512h-92v635h103l245 -338l246 338h102v-635h-92v512zM563 1413v-82h-225v-553h-92v553h-226v82h543z" />
<glyph unicode="&#x25fc;" horiz-adv-x="942" d="M0 942h942v-942h-942v942z" />
</font>
</defs>
</svg>
