<?xml version="1.0" standalone="no"?>
<!DOCTYPE svg PUBLIC "-//W3C//DTD SVG 1.1//EN" "http://www.w3.org/Graphics/SVG/1.1/DTD/svg11.dtd" >
<svg xmlns="http://www.w3.org/2000/svg">
<metadata></metadata>
<defs>
<font id="tt_firsextrabold_italic" horiz-adv-x="1167" >
<font-face units-per-em="2048" ascent="1638" descent="-410" />
<missing-glyph horiz-adv-x="389" />
<glyph horiz-adv-x="0" />
<glyph horiz-adv-x="0" />
<glyph horiz-adv-x="682" />
<glyph unicode="&#xd;" horiz-adv-x="0" />
<glyph unicode=" "  horiz-adv-x="389" />
<glyph unicode="&#x09;" horiz-adv-x="389" />
<glyph unicode="&#xa0;" horiz-adv-x="389" />
<glyph unicode="!" horiz-adv-x="573" d="M539 1434l-95 -666l-100 -307h-192l-15 307l94 666h308zM37 123q9 69 63 116.5t123 47.5t110 -47.5t32 -116.5t-63.5 -116.5t-123.5 -47.5t-109.5 47.5t-31.5 116.5z" />
<glyph unicode="&#x22;" horiz-adv-x="808" d="M436 1434l-37 -267l-73 -225h-154l-8 225l37 267h235zM805 1434l-37 -267l-74 -225h-153l-9 225l37 267h236z" />
<glyph unicode="#" horiz-adv-x="1454" d="M317 0h-286l149 348h-174l35 246h246l94 235h-184l34 246h256l154 359h287l-154 -359h225l154 359h287l-154 -359h154l-35 -246h-225l-95 -235h164l-35 -246h-235l-150 -348h-286l149 348h-225zM668 829l-95 -235h226l94 235h-225z" />
<glyph unicode="$" horiz-adv-x="1105" d="M309 -47l27 190q-141 23 -229 121t-99 238l262 41q13 -75 72 -124.5t160 -49.5q102 0 158.5 37.5t64.5 95.5q4 28 -21 48t-69.5 31.5t-101.5 25.5t-116.5 28t-115 40t-97 59.5t-61.5 89.5t-10 128q17 122 115 209.5t248 118.5l28 195h246l-29 -195q147 -23 230 -108 t104 -220l-262 -41q-32 144 -195 144q-94 0 -143.5 -31.5t-56.5 -81.5q-5 -34 28 -57t88.5 -37t124 -27.5t135 -36t120 -54.5t81.5 -90.5t17 -137.5q-17 -124 -138 -226.5t-292 -132.5l-27 -190h-246z" />
<glyph unicode="%" horiz-adv-x="1546" d="M1450 1434l-1051 -1434h-307l1051 1434h307zM403 983q41 0 77 38.5t46 104.5q9 66 -16 105t-66 39t-77 -39t-45 -105q-10 -66 15 -104.5t66 -38.5zM375 778q-132 0 -216 102t-63 246q20 145 132.5 247t244.5 102t215.5 -102t63.5 -247q-22 -145 -133.5 -246.5 t-243.5 -101.5zM1098 164q41 0 77 38.5t46 104.5q9 66 -17 105t-67 39t-76.5 -39t-44.5 -105q-10 -65 15.5 -104t66.5 -39zM1069 -41q-132 0 -215.5 102t-62.5 246q20 145 131 246.5t243 101.5t216.5 -102t64.5 -246q-22 -145 -133.5 -246.5t-243.5 -101.5z" />
<glyph unicode="&#x26;" horiz-adv-x="1361" d="M434 840l4 20l-155 287l41 287h911l-41 -287h-522l-2 -21l610 -1126h-379l-57 102h-21q-6 -7 -17 -18t-49.5 -39t-82 -49.5t-114 -39t-144.5 -17.5q-201 0 -316 125t-90 305q10 71 39 135.5t67 110.5t81.5 85t85 64.5t75.5 43t55 24.5zM512 225q34 0 68.5 10.5t58.5 25.5 t43.5 30.5t29.5 26.5l9 10l-170 317q-7 -3 -20 -8.5t-45.5 -27t-59 -46t-51.5 -66t-31 -87.5q-11 -78 36.5 -131.5t131.5 -53.5z" />
<glyph unicode="'" horiz-adv-x="440" d="M436 1434l-37 -267l-73 -225h-154l-8 225l37 267h235z" />
<glyph unicode="(" horiz-adv-x="757" d="M379 594q-13 -97 -7 -182t26.5 -157.5t47.5 -132t57 -105.5t55 -77t42 -47l16 -16l-167 -246q-19 14 -50.5 41.5t-108.5 120.5t-131.5 197t-88 268t-9.5 336q14 99 45 194.5t72.5 174.5t91 153t101 132t102 108.5t95 86.5t78.5 62t54 39l19 12l98 -245q-8 -6 -21.5 -16.5 t-53.5 -47t-78 -77t-86 -105t-85.5 -132t-69 -157.5t-44.5 -182z" />
<glyph unicode=")" horiz-adv-x="757" d="M338 594q13 97 7 182t-26.5 157.5t-47.5 132t-57.5 105.5t-55.5 77t-42 47l-16 16l168 245q19 -14 50.5 -41t108.5 -120.5t131 -197t87.5 -267.5t9.5 -336q-18 -125 -63.5 -246t-104.5 -214t-126.5 -176.5t-131.5 -141.5t-116 -101t-83 -63l-32 -21l-98 246 q8 6 21.5 16.5t53.5 47t78 77t86 105t85.5 132t69 157.5t44.5 182z" />
<glyph unicode="*" horiz-adv-x="778" d="M416 922l-150 -185l-147 113l147 174h-164l29 205h225l29 205h205l-29 -205h225l-28 -205h-164l98 -174l-180 -113z" />
<glyph unicode="+" horiz-adv-x="931" d="M598 758h297l-37 -256h-297l-43 -307h-256l43 307h-297l37 256h297l43 307h256z" />
<glyph unicode="," horiz-adv-x="450" d="M-25 123q9 69 63.5 116.5t123.5 47.5t109.5 -47.5t31.5 -116.5q-4 -27 -15 -53t-20 -38l-10 -12l-197 -225h-122l98 185q-3 2 -8 5t-17.5 16t-21 28t-14 40t-1.5 54z" />
<glyph unicode="-" horiz-adv-x="860" d="M786 502h-778l37 256h778z" />
<glyph unicode="." horiz-adv-x="450" d="M-25 123q9 69 63.5 116.5t123.5 47.5t109.5 -47.5t31.5 -116.5t-63 -116.5t-123 -47.5t-110 47.5t-32 116.5z" />
<glyph unicode="/" horiz-adv-x="880" d="M-82 0l723 1434h317l-722 -1434h-318z" />
<glyph unicode="0" horiz-adv-x="1495" d="M377 717q-16 -111 2.5 -205.5t62 -156t104.5 -96t130 -34.5q146 0 276.5 136t161.5 356q16 111 -3 205.5t-62.5 156t-104.5 95.5t-131 34q-146 0 -275.5 -135.5t-160.5 -355.5zM1432 717q-23 -165 -101 -311.5t-187 -247.5t-242.5 -160t-266.5 -59t-249.5 59 t-196.5 160.5t-116.5 247.5t-13.5 311t100.5 311t186.5 247.5t242 160.5t266 59q134 0 251 -59t197 -160.5t116.5 -247.5t13.5 -311z" />
<glyph unicode="1" horiz-adv-x="727" d="M184 0l138 983h-246l30 215q105 0 196.5 74.5t103.5 161.5h296l-200 -1434h-318z" />
<glyph unicode="2" horiz-adv-x="1280" d="M922 1024q9 72 -48 128t-153 56q-207 0 -305 -204l-314 30q33 90 95.5 172t147 147t193.5 103.5t224 38.5q154 0 270.5 -66.5t170 -174t36.5 -230.5q-13 -88 -57 -162t-106 -123.5t-139.5 -93.5t-156.5 -74.5t-157 -63.5t-140.5 -62t-108 -70t-59.5 -88h815l-38 -287 h-1133l33 246q11 79 49 147.5t92.5 119t122.5 94.5t140.5 78.5t145 66t138.5 62t117.5 61.5t85 69t39.5 80z" />
<glyph unicode="3" horiz-adv-x="1249" d="M-47 401l323 50q11 -98 80.5 -162t186.5 -64q112 0 193 63.5t93 151.5q11 88 -52 151.5t-175 63.5h-215l35 236l319 235l2 21h-532l41 287h983l-35 -246l-377 -277l-2 -20q16 -2 42 -8t90 -37.5t110 -77.5t76.5 -138t13.5 -210q-13 -96 -66.5 -183t-137 -153.5 t-200 -105.5t-247.5 -39q-123 0 -224 37t-168 101.5t-107 146.5t-50 177z" />
<glyph unicode="4" horiz-adv-x="1290" d="M993 0h-317l35 256h-738l41 287l576 891h358l-575 -891h379l45 327h317l-45 -327h174l-41 -287h-174z" />
<glyph unicode="5" horiz-adv-x="1239" d="M606 676h-450l229 758h819l-41 -287h-553l-55 -184h92q175 0 299 -68.5t178 -184t33 -259.5q-30 -220 -211 -366t-444 -146q-123 0 -224 37t-168 101.5t-107 146.5t-50 177l323 50q11 -98 80.5 -162t186.5 -64q113 0 193.5 65.5t92.5 160.5q14 94 -48 159.5t-175 65.5z " />
<glyph unicode="6" horiz-adv-x="1269" d="M25 471q11 79 48 161t68 124l31 43l541 635h358l-391 -451q127 0 231.5 -41.5t170 -111t95.5 -163t15 -196.5q-33 -226 -218 -379t-442 -153q-170 0 -294 71t-179 192t-34 269zM352 471q-14 -101 50.5 -173.5t170.5 -72.5q107 0 192 73t99 173q15 105 -48.5 175.5 t-172.5 70.5t-192.5 -70.5t-98.5 -175.5z" />
<glyph unicode="7" horiz-adv-x="1054" d="M379 0h-348l700 1126l2 21h-655l41 287h1014l-41 -287z" />
<glyph unicode="8" horiz-adv-x="1310" d="M584 225q123 0 208 60t95 135q11 74 -56.5 134t-191.5 60q-123 0 -208.5 -59.5t-96.5 -134.5q-10 -75 58.5 -135t191.5 -60zM676 881q96 0 162.5 49t74.5 114q10 65 -43 114.5t-149 49.5q-95 0 -161.5 -49.5t-76.5 -114.5q-8 -65 45 -114t148 -49zM543 -61 q-134 0 -244 40t-177 105.5t-98.5 147.5t-19.5 167q8 59 31 110t52.5 86.5t63 65t65.5 47t58 29.5t42 17l16 4l2 20q-3 1 -7 3t-18.5 8.5t-26.5 15.5t-30.5 23.5t-31.5 31.5t-28 40.5t-21.5 50.5t-11.5 61.5t3 72.5q15 104 91.5 196.5t211.5 153t297 60.5q123 0 222 -35 t159 -93t87.5 -131.5t16.5 -150.5q-9 -66 -39 -122t-66.5 -88.5t-71 -56t-58.5 -32.5l-23 -8l-2 -20q11 -3 28.5 -9.5t61 -34.5t75 -64.5t51.5 -103.5t9 -147q-12 -85 -67 -167t-140.5 -147.5t-206.5 -105.5t-255 -40z" />
<glyph unicode="9" horiz-adv-x="1269" d="M1241 963q-12 -79 -49.5 -161t-68.5 -124l-31 -43l-539 -635h-358l389 451q-127 0 -231.5 41.5t-169.5 111t-94.5 163t-14.5 196.5q31 226 215.5 379t441.5 153q170 0 294.5 -71t180 -192t35.5 -269zM913 963q14 100 -51 172.5t-172 72.5t-191 -72.5t-98 -172.5 q-15 -105 49 -175.5t173 -70.5t192 70t98 176z" />
<glyph unicode=":" horiz-adv-x="450" d="M-25 123q9 69 63.5 116.5t123.5 47.5t109.5 -47.5t31.5 -116.5t-63 -116.5t-123 -47.5t-110 47.5t-32 116.5zM80 860q9 69 63 116.5t123 47.5t110 -47.5t32 -116.5q-10 -69 -65 -116.5t-124 -47.5t-109.5 47.5t-29.5 116.5z" />
<glyph unicode=";" horiz-adv-x="450" d="M-25 123q9 69 63.5 116.5t123.5 47.5t109.5 -47.5t31.5 -116.5q-4 -27 -15 -53t-20 -38l-10 -12l-197 -225h-122l98 185q-3 2 -8 5t-17.5 16t-21 28t-14 40t-1.5 54zM80 860q9 69 63 116.5t123 47.5t110 -47.5t32 -116.5q-10 -69 -65 -116.5t-124 -47.5t-109.5 47.5 t-29.5 116.5z" />
<glyph unicode="&#x3c;" horiz-adv-x="993" d="M926 696q-100 -34 -296 -102t-296 -102l-2 -21q50 -19 239.5 -92.5t294.5 -112.5l-37 -256l-825 318l43 307l916 317z" />
<glyph unicode="=" horiz-adv-x="890" d="M770 307h-768l33 236h768zM823 696h-768l33 236h768z" />
<glyph unicode="&#x3e;" horiz-adv-x="993" d="M55 696l37 256l826 -317l-44 -307l-915 -318l37 256q99 34 296 102.5t296 102.5l2 21q-490 187 -535 204z" />
<glyph unicode="?" horiz-adv-x="1126" d="M629 1208q-89 0 -159 -54t-116 -150l-311 40q68 194 237 322.5t390 128.5q144 0 256.5 -66t165 -169.5t36.5 -215.5q-11 -77 -40.5 -137.5t-69 -99.5t-86.5 -71t-95 -60t-90.5 -57t-78.5 -72t-54 -96h-266q11 77 40.5 139.5t69 103t84.5 74t89.5 60.5t82 54t63.5 63 t32 79q11 78 -39 131t-141 53zM272 123q9 69 63.5 116.5t123.5 47.5t109.5 -47.5t31.5 -116.5t-63 -116.5t-123 -47.5t-110 47.5t-32 116.5z" />
<glyph unicode="@" horiz-adv-x="1679" d="M915 328l9 61h-21q-2 -3 -6 -8.5t-19.5 -20t-33 -25t-47 -19.5t-62.5 -9q-123 0 -204.5 102.5t-61.5 245.5q21 144 130.5 246.5t231.5 102.5q33 0 60 -8.5t42.5 -20.5t26.5 -24t15 -21l4 -8h20l9 61h225l-62 -440q77 16 136 81.5t73 174.5q26 175 -95 292t-359 117 q-113 0 -221.5 -43.5t-192.5 -117.5t-142 -176.5t-75 -215.5q-16 -113 13.5 -215.5t93.5 -176.5t160.5 -117.5t209.5 -43.5q96 0 194 26t148 52l51 25l-35 -236q-20 -10 -55 -25.5t-137.5 -41t-198.5 -25.5q-221 0 -390.5 104.5t-249 283t-50.5 390.5q18 127 74 245.5 t142.5 214.5t194.5 168t236.5 111.5t261.5 39.5q172 0 309 -50.5t220.5 -136.5t120 -201.5t18.5 -246.5q-17 -127 -97.5 -235t-207.5 -172t-272 -64h-134zM954 604l15 103l-5 10t-14 22t-24 28t-34 22t-44 10q-55 0 -100 -41.5t-54 -102.5q-7 -61 26.5 -102t88.5 -41 q36 0 72.5 23t54.5 46z" />
<glyph unicode="A" horiz-adv-x="1464" d="M-82 0l549 1434h727l147 -1434h-327l-31 297h-625l-112 -297h-328zM682 1147l-211 -563h481l-55 563h-215z" />
<glyph unicode="B" horiz-adv-x="1454" d="M221 1434h666q100 0 183 -32t134.5 -83.5t76 -118t15.5 -135.5q-8 -55 -32.5 -100t-54 -71t-57.5 -44t-46 -24l-19 -7l-4 -20q7 -1 19 -3.5t45.5 -14.5t63 -27.5t64.5 -45.5t58 -66t34.5 -91.5t2.5 -120.5q-26 -183 -184.5 -306.5t-397.5 -123.5h-768zM377 287h450 q90 0 149 46.5t68 117.5q11 71 -34.5 117t-135.5 46h-450zM846 1147h-348l-35 -246h348q61 0 102.5 34.5t49.5 88.5q8 55 -24 89t-93 34z" />
<glyph unicode="C" horiz-adv-x="1597" d="M727 -61q-154 0 -289 63t-225 168t-133 249t-21 298t105 298t202.5 249t272.5 168t307 63q108 0 201.5 -26.5t162 -72t120.5 -107t82.5 -131t41.5 -144.5l-323 -41q-36 104 -118 169.5t-218 65.5q-117 0 -229 -64.5t-191 -178t-98 -248.5q-14 -101 10.5 -193t77 -157 t129.5 -103.5t164 -38.5q274 0 446 267l312 -41q-32 -78 -85 -151.5t-127 -139t-161.5 -115t-195 -78t-220.5 -28.5z" />
<glyph unicode="D" horiz-adv-x="1464" d="M1083 717q26 185 -82 307.5t-299 122.5h-204l-121 -860h205q191 0 333 122.5t168 307.5zM1401 717q-21 -148 -96.5 -280t-188 -228.5t-262 -152.5t-311.5 -56h-523l201 1434h522q162 0 295.5 -56t219.5 -152.5t124.5 -228.5t18.5 -280z" />
<glyph unicode="E" horiz-adv-x="1300" d="M377 287h819l-39 -287h-1137l201 1434h1137l-41 -287h-819l-39 -287h645l-41 -287h-645z" />
<glyph unicode="F" horiz-adv-x="1239" d="M410 522l-72 -522h-318l201 1434h1096l-41 -287h-778l-47 -338h624l-41 -287h-624z" />
<glyph unicode="G" horiz-adv-x="1628" d="M758 225q148 0 256.5 69.5t177.5 176.5l2 21h-379l41 286h717l-19 -123q-20 -147 -95 -279.5t-185 -228.5t-253 -152t-294 -56q-154 0 -289 63t-225 168t-133 249t-21 298t105 298t202.5 249t272.5 168t307 63q108 0 201.5 -26.5t162 -72t120.5 -107t82.5 -131 t41.5 -144.5l-323 -41q-36 104 -118 169.5t-218 65.5q-117 0 -229 -64.5t-191 -178t-98 -248.5q-14 -101 10.5 -193t77 -157t129.5 -103.5t164 -38.5z" />
<glyph unicode="H" horiz-adv-x="1484" d="M20 0l201 1434h318l-82 -584h604l82 584h317l-200 -1434h-318l78 563h-604l-78 -563h-318z" />
<glyph unicode="I" horiz-adv-x="563" d="M539 1434l-201 -1434h-318l201 1434h318z" />
<glyph unicode="J" horiz-adv-x="1208" d="M1184 1434l-133 -953q-35 -247 -208 -394.5t-431 -147.5q-105 0 -192.5 33.5t-145.5 90.5t-91 130t-38 155l317 72q12 -88 64.5 -141.5t134.5 -53.5q101 0 178 71t94 185l133 953h318z" />
<glyph unicode="K" horiz-adv-x="1423" d="M952 0l-309 645l-248 -235l-57 -410h-318l201 1434h318l-86 -605l649 605h389l-590 -553l420 -881h-369z" />
<glyph unicode="L" horiz-adv-x="1208" d="M539 1434l-162 -1147h747l-39 -287h-1065l201 1434h318z" />
<glyph unicode="M" horiz-adv-x="1802" d="M860 451l-362 542h-21l-139 -993h-318l201 1434h348l355 -533l506 533h348l-201 -1434h-317l139 993h-21z" />
<glyph unicode="N" horiz-adv-x="1484" d="M569 1434l426 -902h21l127 902h317l-200 -1434h-349l-428 901h-20l-125 -901h-318l201 1434h348z" />
<glyph unicode="O" horiz-adv-x="1699" d="M377 717q-19 -135 29 -248.5t147 -178.5t225 -65q193 0 352.5 143.5t188.5 348.5q14 101 -11 192.5t-80 156.5t-136.5 103.5t-176.5 38.5q-126 0 -243 -64.5t-196.5 -178t-98.5 -248.5zM1636 717q-22 -159 -104.5 -302.5t-202.5 -248t-275 -166t-317 -61.5t-299.5 61.5 t-228 166t-131.5 248t-19 302.5t103.5 302.5t201.5 248t275 166t317 61.5t299.5 -61.5t228 -166t132.5 -248t20 -302.5z" />
<glyph unicode="P" horiz-adv-x="1464" d="M1108 901q14 102 -54 174t-188 72h-368l-70 -492h369q121 0 209 72t102 174zM1425 901q-15 -111 -71.5 -208.5t-142.5 -169t-204 -113t-249 -41.5h-369l-51 -369h-318l201 1434h686q175 0 301.5 -71.5t182 -192.5t34.5 -269z" />
<glyph unicode="Q" horiz-adv-x="1710" d="M1636 717q-11 -77 -37.5 -153t-56.5 -129t-58.5 -95.5t-47.5 -63.5l-19 -20l176 -205l-245 -215l-185 215q-8 -5 -22 -12.5t-59.5 -26.5t-93 -34t-116.5 -27t-135 -12q-162 0 -299.5 61.5t-228 166t-131.5 248t-19 302.5t103.5 302.5t201.5 248t275 166t317 61.5 t299.5 -61.5t228 -166t132.5 -248t20 -302.5zM377 717q-19 -135 29 -248.5t147 -178.5t225 -65q55 0 105 10.5t73 20.5l23 10l-80 92l246 215l80 -92q9 12 22 32.5t38.5 82.5t33.5 121q14 101 -11 192.5t-80 156.5t-136.5 103.5t-176.5 38.5q-126 0 -243 -64.5t-196.5 -178 t-98.5 -248.5z" />
<glyph unicode="R" horiz-adv-x="1464" d="M756 430h-359l-59 -430h-318l201 1434h707q166 0 283 -65.5t167.5 -179.5t30.5 -257q-10 -69 -33.5 -130.5t-54 -105t-65 -79.5t-67.5 -58.5t-59.5 -38t-42.5 -22.5l-16 -6l199 -492h-338q-118 281 -176 430zM438 717h389q106 0 179.5 61t85.5 154q14 94 -42.5 154.5 t-162.5 60.5h-389z" />
<glyph unicode="S" horiz-adv-x="1300" d="M887 410q6 42 -18 75t-69 56t-104.5 43t-125 40.5t-131 44t-123 58.5t-99 79t-60.5 110.5t-7 148.5q11 81 61 158t128.5 137.5t189 97.5t233.5 37t221 -34t162 -94.5t101.5 -139t47.5 -172.5l-323 -41q-43 194 -250 194q-102 0 -170 -49t-78 -115q-6 -39 18.5 -69.5 t69.5 -51.5t104.5 -39.5t125.5 -39t131.5 -44.5t122.5 -60t98.5 -82t60 -115t6.5 -154t-65 -165.5t-136 -144t-202.5 -102t-253.5 -38.5q-135 0 -241 36t-175 101.5t-109 151.5t-53 192l324 41q19 -107 91.5 -171.5t203.5 -64.5q132 0 207 52t86 133z" />
<glyph unicode="T" horiz-adv-x="1259" d="M528 1147h-450l41 287h1218l-41 -287h-450l-160 -1147h-317z" />
<glyph unicode="U" horiz-adv-x="1495" d="M676 225q139 0 234.5 86t117.5 232l125 891h317l-124 -891q-38 -270 -233 -437t-478 -167t-430 167t-109 437l125 891h318l-125 -891q-22 -145 50.5 -231.5t211.5 -86.5z" />
<glyph unicode="V" horiz-adv-x="1464" d="M276 0l-147 1434h328l114 -1147h195l438 1147h328l-549 -1434h-707z" />
<glyph unicode="W" horiz-adv-x="2017" d="M541 358l356 1076h420l53 -1076h31q19 58 356 1076h318q-79 -238 -239 -716.5t-239 -717.5h-471l-61 1024h-31l-348 -1024h-471q-46 818 -76 1434h318q6 -144 53 -1076h31z" />
<glyph unicode="X" horiz-adv-x="1372" d="M645 512l-389 -512h-369l574 737l-311 697h358l201 -471h20l332 471h358l-508 -697l369 -737h-369l-245 512h-21z" />
<glyph unicode="Y" horiz-adv-x="1382" d="M813 471l-65 -471h-318l66 471l-408 963h358l252 -615h11l424 615h358z" />
<glyph unicode="Z" horiz-adv-x="1320" d="M-41 0l39 287l876 839l3 21h-738l41 287h1157l-41 -287l-874 -840l-4 -20h778l-39 -287h-1198z" />
<glyph unicode="[" horiz-adv-x="737" d="M762 1208h-256l-172 -1228h256l-41 -287h-574l254 1802h574z" />
<glyph unicode="\" horiz-adv-x="880" d="M436 1434l322 -1434h-318l-321 1434h317z" />
<glyph unicode="]" horiz-adv-x="737" d="M362 1208h-256l41 287h574l-254 -1802h-571l38 287h256z" />
<glyph unicode="^" horiz-adv-x="880" d="M670 1434l170 -697h-246l-90 379h-21l-196 -379h-246l367 697h262z" />
<glyph unicode="_" horiz-adv-x="778" d="M616 -420h-776l35 246h776z" />
<glyph unicode="`" horiz-adv-x="532" d="M129 1219l121 204l295 -163l-94 -164z" />
<glyph unicode="a" horiz-adv-x="1198" d="M27 492q21 149 104.5 272.5t198.5 191.5t233 68q55 0 100 -14.5t71 -36t44 -42.5t24 -35l7 -15h20l15 102h286l-137 -983h-286l14 102h-21q-4 -6 -11 -15.5t-33.5 -34t-56.5 -43.5t-80 -34.5t-105 -15.5q-182 0 -300 154.5t-87 378.5zM760 389l28 205q-2 7 -7 19 t-22.5 42t-38.5 52.5t-56.5 41.5t-75.5 19q-103 0 -180 -74.5t-95 -201.5t38 -202t159 -75q40 0 80.5 18t69.5 43.5t52.5 51t35.5 43.5z" />
<glyph unicode="b" horiz-adv-x="1208" d="M1112 492q-21 -149 -104 -273t-197.5 -192t-232.5 -68q-55 0 -100 14.5t-71 36t-44 42.5t-25 36l-6 14h-21l-14 -102h-287l201 1434h287l-78 -553h20q4 6 11 15.5t33.5 34t57 43.5t80.5 34.5t105 15.5q88 0 165.5 -40.5t131.5 -110t79 -169.5t9 -212zM379 594l-29 -205 q2 -7 7 -19t22.5 -42t39 -52.5t57 -41.5t75.5 -19q102 0 179 74.5t95 202.5q18 127 -37.5 201.5t-158.5 74.5q-40 0 -80.5 -18t-69.5 -43.5t-52.5 -51t-35.5 -43.5z" />
<glyph unicode="c" horiz-adv-x="1126" d="M475 -41q-102 0 -192 43.5t-150.5 115t-90 170.5t-15.5 204q20 141 110 264t221 195.5t267 72.5q96 0 177 -29.5t134 -78.5t84.5 -108t38.5 -122l-293 -41q-20 53 -64 88t-114 35q-95 0 -176.5 -78t-98.5 -198t42.5 -198.5t154.5 -78.5q80 0 141.5 43.5t96.5 110.5 l280 -41q-26 -75 -75.5 -140.5t-118.5 -117t-162 -81.5t-197 -30z" />
<glyph unicode="d" horiz-adv-x="1208" d="M27 492q21 149 104.5 272.5t198.5 191.5t233 68q55 0 100 -14.5t71 -36t44 -42.5t24 -35l7 -15h20l78 553h287l-201 -1434h-286l14 102h-21q-4 -6 -11 -15.5t-33.5 -34t-56.5 -43.5t-80 -34.5t-105 -15.5q-182 0 -300 154.5t-87 378.5zM760 389l28 205q-2 7 -7 19 t-22.5 42t-38.5 52.5t-56.5 41.5t-75.5 19q-103 0 -180 -74.5t-95 -201.5t38 -202t159 -75q40 0 80.5 18t69.5 43.5t52.5 51t35.5 43.5z" />
<glyph unicode="e" d="M625 1024q146 0 258.5 -70.5t165.5 -193t32 -268.5l-116 -103h-646q13 -80 61 -127t130 -47q91 0 144.5 29.5t97.5 83.5l280 -41q-33 -65 -83 -121t-118.5 -104t-160.5 -75.5t-195 -27.5q-102 0 -192 43.5t-150.5 115t-90 170.5t-15.5 204q20 141 110 264t221 195.5 t267 72.5zM588 768q-82 0 -143.5 -47t-96.5 -127h430q-13 80 -60.5 127t-129.5 47z" />
<glyph unicode="f" horiz-adv-x="665" d="M39 727l37 256h112l13 92q16 115 78.5 207.5t154 142.5t193.5 50q50 0 99.5 -10.5t73.5 -20.5l25 -10l-75 -246q-48 31 -109 31q-62 0 -103 -37.5t-51 -106.5l-12 -92h205l-37 -256h-205l-100 -727h-287l101 727h-113z" />
<glyph unicode="g" horiz-adv-x="1198" d="M31 512q19 139 101.5 258.5t198 186.5t232.5 67q55 0 100 -14.5t71 -36t44 -42.5t24 -35l7 -15h20l15 102h286l-135 -954q-17 -125 -99.5 -236t-207.5 -177.5t-260 -66.5q-100 0 -180.5 26.5t-133 73t-85.5 103.5t-47 125l292 41q51 -113 189 -113q93 0 163 63.5 t85 162.5l14 112h-20q-4 -6 -11 -15.5t-33 -34t-56.5 -43.5t-80 -34.5t-104.5 -15.5q-87 0 -165.5 40t-133 108t-80 163.5t-10.5 200.5zM766 430l22 164q-2 7 -7 19t-22.5 42t-38.5 52.5t-56.5 41.5t-75.5 19q-102 0 -179 -71t-92 -185q-17 -114 40.5 -185t158.5 -71 q40 0 80.5 18t69.5 43.5t52.5 51t35.5 43.5z" />
<glyph unicode="h" d="M1051 563l-78 -563h-287l78 563q13 90 -31 147.5t-115 57.5q-37 0 -75.5 -18t-66.5 -43.5t-51 -51t-35 -43.5l-11 -18l-82 -594h-287l201 1434h287l-78 -553h20q4 6 11.5 15.5t33 34t55.5 43.5t77.5 34.5t99.5 15.5q108 0 190.5 -57t122.5 -163.5t21 -240.5z" />
<glyph unicode="i" horiz-adv-x="512" d="M434 983l-137 -983h-287l137 983h287zM176 1331q9 69 63 116.5t123 47.5t110 -47.5t32 -116.5t-63.5 -116.5t-123.5 -47.5t-109.5 47.5t-31.5 116.5z" />
<glyph unicode="j" horiz-adv-x="512" d="M434 983l-145 -1034q-16 -115 -78 -207.5t-152.5 -142.5t-191.5 -50q-50 0 -100.5 10.5t-75.5 20.5l-25 10l76 246q47 -31 108 -31t102 38t50 106l145 1034h287zM176 1331q9 69 63 116.5t123 47.5t110 -47.5t32 -116.5t-63.5 -116.5t-123.5 -47.5t-109.5 47.5 t-31.5 116.5z" />
<glyph unicode="k" horiz-adv-x="1105" d="M334 266l-37 -266h-287l201 1434h287l-113 -799l377 348h348l-399 -369l293 -614h-318l-199 410z" />
<glyph unicode="l" horiz-adv-x="552" d="M51 0l164 1178h-133l37 256h420l-201 -1434h-287z" />
<glyph unicode="m" horiz-adv-x="1628" d="M944 604l-84 -604h-287l84 604q10 76 -19 120t-91 44q-26 0 -53.5 -16t-48 -38.5t-37.5 -45t-26 -38.5l-9 -16l-86 -614h-287l137 983h287l-14 -102h20q4 6 11 15.5t31 34t50 43.5t67 34.5t83 15.5q34 0 65.5 -8t53.5 -20.5t41.5 -28t31.5 -30.5t21 -27.5t13 -20.5l3 -8 h21q4 6 12 15.5t37 34t61.5 43.5t86 34.5t110.5 15.5q143 0 229.5 -117t59.5 -303l-84 -604h-287l84 604q9 69 -25.5 116.5t-95.5 47.5t-109 -47.5t-57 -116.5z" />
<glyph unicode="n" horiz-adv-x="1157" d="M1040 563l-77 -563h-287l78 563q13 90 -31 147.5t-115 57.5q-37 0 -75.5 -18t-66.5 -43.5t-51 -51t-35 -43.5l-11 -18l-82 -594h-287l137 983h287l-14 -102h20q4 6 11.5 15.5t33 34t55.5 43.5t77.5 34.5t99.5 15.5q165 0 263.5 -129.5t69.5 -331.5z" />
<glyph unicode="o" horiz-adv-x="1208" d="M530 215q102 0 191 81.5t104 195.5q17 114 -49 195t-168 81q-101 0 -189.5 -81t-105.5 -195q-15 -114 50.5 -195.5t166.5 -81.5zM496 -41q-146 0 -261 73t-171 196t-37 264q20 141 110.5 264t226 195.5t281.5 72.5q109 0 203.5 -43t157 -115t92 -170t14.5 -204 q-19 -141 -109 -264t-225.5 -196t-281.5 -73z" />
<glyph unicode="p" horiz-adv-x="1198" d="M1102 492q-16 -112 -69 -212.5t-126.5 -170t-162.5 -110t-177 -40.5q-55 0 -100 14.5t-71 36t-43.5 42.5t-24.5 36l-6 14h-21l-74 -512h-286l196 1393h287l-14 -102h20q4 6 11 15.5t33.5 34t57 43.5t80.5 34.5t105 15.5q88 0 165.5 -40.5t131.5 -110t79 -169.5t9 -212z M369 594l-29 -205q2 -7 7 -19t22.5 -42t39 -52.5t57 -41.5t75.5 -19q102 0 179 74.5t95 202.5q18 127 -38 201.5t-159 74.5q-40 0 -80.5 -18t-69.5 -43.5t-52 -51t-35 -43.5z" />
<glyph unicode="q" horiz-adv-x="1198" d="M27 492q21 149 104.5 272.5t198.5 191.5t233 68q55 0 100 -14.5t71 -36t44 -42.5t24 -35l7 -15h20l15 102h286l-196 -1393h-287l74 512h-21q-4 -6 -11 -15.5t-33.5 -34t-56.5 -43.5t-80 -34.5t-105 -15.5q-182 0 -300 154.5t-87 378.5zM760 389l28 205q-2 7 -7 19 t-22.5 42t-38.5 52.5t-56.5 41.5t-75.5 19q-103 0 -180 -74.5t-95 -201.5t38 -202t159 -75q40 0 80.5 18t69.5 43.5t52.5 51t35.5 43.5z" />
<glyph unicode="r" horiz-adv-x="706" d="M723 1004l-39 -277h-92q-46 0 -86 -16t-64.5 -38.5t-42 -45t-25.5 -38.5l-7 -16l-80 -573h-287l137 983h287l-14 -102h20q4 5 11 13.5t32 29.5t54 37t76 29.5t99 13.5h21z" />
<glyph unicode="s" horiz-adv-x="1013" d="M80 727q8 55 44.5 107t96 95t149 69t193.5 26q88 0 162 -26t123 -69.5t80 -94.5t43 -107l-271 -41q-15 39 -58 70.5t-112 31.5q-58 0 -100 -29t-47 -63q-4 -26 25.5 -45.5t79 -34t110 -30t119 -40.5t105 -60t70.5 -94t13 -136q-8 -55 -44.5 -107t-98 -95t-155 -69 t-204.5 -26q-100 0 -180.5 26t-133.5 71.5t-86 100.5t-48 119l293 41q45 -122 188 -122q71 0 116 28.5t50 63.5q4 26 -25.5 45.5t-79 34t-110 30t-119 40.5t-105 60t-70.5 94t-13 136z" />
<glyph unicode="t" horiz-adv-x="768" d="M39 727l37 256h112l35 246h287l-35 -246h205l-37 -256h-205l-51 -369q-9 -68 21 -105.5t92 -37.5q27 0 56 7.5t44 15.5l16 8l9 -246q-98 -41 -211 -41q-156 0 -247 112.5t-67 286.5l52 369h-113z" />
<glyph unicode="u" d="M57 420l80 563h287l-80 -563q-12 -90 31 -147.5t114 -57.5q37 0 75.5 18t67 43.5t51 51t34.5 43.5l12 18l84 594h287l-137 -983h-287l14 102h-20q-4 -6 -11.5 -15.5t-33 -34t-55.5 -43.5t-77.5 -34.5t-99.5 -15.5q-108 0 -191 57t-123.5 163.5t-21.5 240.5z" />
<glyph unicode="v" horiz-adv-x="1095" d="M143 0l-67 983h286l52 -727h133l258 727h285l-342 -983h-605z" />
<glyph unicode="w" horiz-adv-x="1556" d="M774 635h-20l-201 -635h-430l-47 983h286l19 -676h31l217 676h368l29 -676h31l207 676h286l-321 -983h-430z" />
<glyph unicode="x" horiz-adv-x="1024" d="M604 0l-139 328h-21l-229 -328h-317l378 512l-221 471h307l134 -287h20l215 287h307l-352 -471l236 -512h-318z" />
<glyph unicode="y" horiz-adv-x="1105" d="M813 983h287l-342 -983q-165 -471 -477 -471q-50 0 -100 10.5t-75 20.5l-24 10l76 246q47 -31 108 -31q131 0 205 215h-317l-78 983h286l54 -727h141z" />
<glyph unicode="z" horiz-adv-x="993" d="M956 983l-36 -256l-535 -451l-2 -20h491l-34 -256h-891l35 256l534 451l2 20h-450l36 256h850z" />
<glyph unicode="{" horiz-adv-x="716" d="M381 604l-2 -20q5 -1 13.5 -4t29 -16t35.5 -30.5t25 -50.5t5 -73q-7 -51 -55 -174.5t-55 -174.5q-6 -39 14.5 -60t65.5 -21h112l-41 -287h-122q-211 0 -294 81t-59 246q7 51 60.5 174.5t60.5 174.5q5 38 -14.5 60t-57.5 22h-82l41 286h82q38 0 63.5 22t31.5 60 q7 51 -11.5 174t-11.5 174q22 165 127.5 246.5t316.5 81.5h123l-41 -287h-112q-45 0 -71.5 -21.5t-31.5 -60.5q-7 -51 6.5 -174t6.5 -174q-6 -40 -24 -72.5t-40.5 -50.5t-43.5 -30.5t-35 -16.5z" />
<glyph unicode="|" horiz-adv-x="552" d="M543 1536l-246 -1741h-307l246 1741h307z" />
<glyph unicode="}" horiz-adv-x="716" d="M297 584l2 20q-5 1 -13.5 4t-30 16t-36.5 30.5t-25 50.5t-4 73q7 51 55.5 174t55.5 174q5 39 -16 60.5t-66 21.5h-113l41 287h123q211 0 294 -81.5t61 -246.5q-7 -51 -60.5 -174t-60.5 -174q-6 -38 12.5 -60t56.5 -22h82l-41 -286h-82q-38 0 -63 -22t-29 -60 q-7 -51 11.5 -174.5t11.5 -174.5q-24 -165 -130 -246t-317 -81h-120l38 287h113q92 0 105 81q7 51 -6.5 174.5t-6.5 174.5q5 40 23 72.5t40.5 50.5t44 30.5t35.5 16.5z" />
<glyph unicode="~" horiz-adv-x="921" d="M334 563q-46 0 -75.5 -27.5t-53.5 -95.5l-189 123q15 105 95.5 180.5t167.5 75.5q48 0 91 -17.5t68.5 -38.5t58 -38.5t62.5 -17.5q46 0 75.5 27t53.5 95l189 -122q-15 -105 -95.5 -180.5t-167.5 -75.5q-48 0 -91 17.5t-68.5 38.5t-58 38.5t-62.5 17.5z" />
<glyph unicode="&#xa1;" horiz-adv-x="573" d="M367 215l-88 -625h-308l88 625l101 307h192zM141 860q9 69 63.5 116.5t123.5 47.5t109.5 -47.5t31.5 -116.5q-11 -69 -65 -116.5t-123 -47.5t-109.5 47.5t-30.5 116.5z" />
<glyph unicode="&#xa2;" horiz-adv-x="1126" d="M801 1188l-27 -187q123 -37 197.5 -124.5t87.5 -190.5l-293 -41q-20 53 -64 88t-114 35q-95 0 -176.5 -78t-98.5 -198t42.5 -198.5t154.5 -78.5q80 0 141.5 43.5t96.5 110.5l280 -41q-43 -124 -147.5 -220t-249.5 -131l-25 -172h-287l25 175q-160 46 -250.5 190 t-66.5 322q26 178 157 322t303 190l27 184h287z" />
<glyph unicode="&#xa3;" horiz-adv-x="1124" d="M586 614l-25 -163q-6 -45 -26 -81t-37 -50l-17 -13l-4 -20h563l-39 -287h-1062l38 287h93q67 0 115.5 44.5t58.5 119.5l24 163h-153l39 287h153l27 184q28 195 142.5 302.5t303.5 107.5q45 0 97.5 -10.5t82.5 -20.5l29 -10l-67 -266q-49 20 -123 20q-60 0 -100 -34.5 t-48 -88.5l-26 -184h225l-39 -287h-225z" />
<glyph unicode="&#xa4;" horiz-adv-x="1382" d="M31 512l35 256h143l94 666h553q269 0 398.5 -127.5t99.5 -333.5q-29 -206 -193.5 -333.5t-433.5 -127.5h-235l-15 -92h451l-35 -256h-451l-22 -164h-318l23 164h-143l34 256h144l14 92h-143zM819 1178h-235l-58 -410h236q113 0 188 59t86 146q12 88 -46.5 146.5 t-170.5 58.5z" />
<glyph unicode="&#xa5;" horiz-adv-x="1351" d="M180 338h277l14 102h-276l26 197h187l-320 797h358l232 -615h10l414 615h358l-553 -797h185l-27 -197h-277l-14 -102h277l-29 -195h-277l-18 -143h-317l18 143h-276z" />
<glyph unicode="&#xa6;" horiz-adv-x="552" d="M543 1536l-107 -752h-307l107 752h307zM403 547l-106 -752h-307l106 752h307z" />
<glyph unicode="&#xa7;" horiz-adv-x="1044" d="M379 737q-4 -29 12.5 -53t43.5 -38t54 -24t47 -14l19 -4q4 1 10.5 3.5t24 12.5t31.5 22t27 32t16 43q4 29 -13 53t-43.5 38t-54 24t-47.5 14l-19 4q-4 -1 -10.5 -3.5t-23.5 -12.5t-31 -22t-27 -32t-16 -43zM952 737q-6 -47 -28.5 -86.5t-50 -62t-53.5 -38.5t-44 -22 l-18 -6l-2 -20q6 -2 16.5 -6.5t36 -23t44 -41.5t30 -64.5t4.5 -90.5q-6 -46 -33.5 -94t-75 -91.5t-107 -77.5t-136 -54t-156.5 -20q-85 0 -159.5 29.5t-125 76.5t-81.5 104.5t-38 116.5l283 41q10 -43 52 -77.5t106 -34.5q79 0 125 30t53 72q4 29 -24 52t-75 39.5t-105 34 t-114.5 42t-101.5 55.5t-69 82t-15 115q6 47 28.5 86.5t49.5 62t53.5 38.5t44.5 22l17 6l4 20q-5 2 -13.5 6.5t-29.5 23t-35.5 41.5t-23 64.5t-1.5 90.5q18 123 151.5 220t323.5 97q81 0 151 -26t117.5 -69t78.5 -95t43 -107l-283 -41q-23 38 -54.5 60t-86.5 22 q-64 0 -102.5 -24.5t-43.5 -57.5q-4 -26 16 -47t55.5 -35t81 -31t93.5 -32.5t92 -40.5t77 -55t49.5 -76t8.5 -103z" />
<glyph unicode="&#xa8;" horiz-adv-x="819" d="M139 1290q9 62 56 103t108 41q62 0 97 -41.5t26 -102.5t-55.5 -102t-108.5 -41t-97 41t-26 102zM549 1290q9 62 56 103t108 41q62 0 97 -41.5t26 -102.5t-55.5 -102t-108.5 -41t-97 41t-26 102z" />
<glyph unicode="&#xa9;" horiz-adv-x="1843" d="M872 236q-151 0 -245 106t-74 252q22 147 145 252.5t275 105.5q124 0 199.5 -69t93.5 -176l-219 -31q-5 27 -33 49.5t-70 22.5q-55 0 -100.5 -43t-55.5 -111q-9 -68 24.5 -111t88.5 -43q59 0 95 24t48 58l211 -30q-51 -114 -149.5 -185t-233.5 -71zM41 594 q25 177 116.5 338.5t223.5 277.5t300.5 185t342.5 69t323 -69t248 -185.5t145 -278t21 -337.5q-25 -177 -116 -338.5t-223 -277.5t-300 -185t-342 -69q-116 0 -223 31t-193 87.5t-155.5 136t-110.5 176t-58.5 208t1.5 231.5zM287 594q-17 -124 17 -239.5t105 -200t177 -135 t227 -50.5t241.5 50.5t216 134.5t162 200t83.5 240q23 166 -41.5 310.5t-194.5 229.5t-291 85t-315 -85t-259 -229.5t-128 -310.5z" />
<glyph unicode="&#xaa;" horiz-adv-x="716" d="M340 901q27 0 63.5 20.5t58.5 40.5l23 21l2 21h-133q-71 0 -78 -52q-3 -24 12 -37.5t52 -13.5zM446 1434q135 0 209.5 -79.5t59.5 -197.5l-56 -399h-204l8 61h-21l-8.5 -8.5t-24 -20t-37.5 -25t-48 -19.5t-58 -9q-95 0 -150 67t-44 148q12 96 92.5 155.5t214.5 59.5h133 q5 40 -19.5 71.5t-68.5 31.5q-69 0 -123 -62l-164 62q27 56 112.5 110t196.5 54z" />
<glyph unicode="&#xab;" horiz-adv-x="1044" d="M27 492l282 409h266l-282 -409l168 -410h-266zM457 492l282 409h267l-283 -409l168 -410h-266z" />
<glyph unicode="&#xac;" horiz-adv-x="870" d="M498 348l30 215h-512l37 256h768l-67 -471h-256z" />
<glyph unicode="&#xad;" horiz-adv-x="860" d="M786 502h-778l37 256h778z" />
<glyph unicode="&#xae;" horiz-adv-x="1843" d="M653 942h379q128 0 201.5 -78t58.5 -188q-6 -41 -22 -76.5t-35.5 -56t-38 -35.5t-30.5 -21l-13 -6l109 -235h-246l-78 164h-143l-25 -164h-215zM1006 748h-164l-21 -144h164q37 0 62 20.5t30 51.5t-14.5 51.5t-56.5 20.5zM41 594q25 177 116.5 338.5t223.5 277.5 t300.5 185t342.5 69t323 -69t248 -185.5t145 -278t21 -337.5q-25 -177 -116 -338.5t-223 -277.5t-300 -185t-342 -69q-116 0 -223 31t-193 87.5t-155.5 136t-110.5 176t-58.5 208t1.5 231.5zM287 594q-17 -124 17 -239.5t105 -200t177 -135t227 -50.5t241.5 50.5t216 134.5 t162 200t83.5 240q23 166 -41.5 310.5t-194.5 229.5t-291 85t-315 -85t-259 -229.5t-128 -310.5z" />
<glyph unicode="&#xaf;" horiz-adv-x="675" d="M127 1208l33 226h553l-33 -226h-553z" />
<glyph unicode="&#xb0;" horiz-adv-x="675" d="M438 1444q115 0 184 -80.5t54 -196.5q-17 -116 -109 -196t-207 -80q-118 0 -186 80t-51 196q15 115 107 196t208 81zM381 1044q54 0 94 34.5t47 88.5t-22.5 88.5t-83.5 34.5t-93 -34.5t-47 -88.5t21.5 -88.5t83.5 -34.5z" />
<glyph unicode="&#xb1;" horiz-adv-x="972" d="M623 799h297l-35 -256h-297l-33 -236h287l-35 -246h-830l35 246h287l33 236h-297l35 256h297l43 307h256z" />
<glyph unicode="&#xb2;" horiz-adv-x="675" d="M487 1219q3 25 -16.5 43t-56.5 18q-76 0 -123 -72l-178 31q37 98 123.5 161.5t203.5 63.5q133 0 205.5 -69.5t59.5 -165.5q-9 -63 -53 -110t-100.5 -72.5t-112 -45t-94.5 -38.5t-42 -41h348l-26 -185h-564l21 144q8 58 41 101t76 66.5t92 44t90.5 34.5t71.5 37.5t34 54.5 z" />
<glyph unicode="&#xb3;" horiz-adv-x="655" d="M340 891q44 0 70.5 20t31.5 52q3 32 -18.5 51.5t-65.5 19.5h-122l16 113l137 102l2 11h-246l25 174h512l-20 -144l-170 -123l-3 -10q7 -1 19 -4.5t42 -18t51.5 -35t36 -59.5t7.5 -88q-14 -100 -103.5 -172.5t-228.5 -72.5q-116 0 -184 61.5t-82 163.5l201 31 q7 -72 92 -72z" />
<glyph unicode="&#xb4;" horiz-adv-x="532" d="M475 1423l64 -204l-355 -123l-49 164z" />
<glyph unicode="&#xb5;" d="M-59 -410l196 1393h287l-80 -573q-11 -77 39.5 -136t126.5 -59q77 0 145 59.5t78 135.5l80 573h287l-137 -983h-287l10 82h-20q-3 -4 -8 -11t-23 -25.5t-38.5 -32t-53 -25t-66.5 -11.5t-63.5 11t-46.5 26.5t-29 30.5t-16 26l-5 11h-20l-70 -492h-286z" />
<glyph unicode="&#xb6;" horiz-adv-x="1044" d="M98 993q26 193 169.5 317t340.5 124h494l-41 -287h-184l-220 -1557h-307l135 963q-121 0 -216 60.5t-141 162t-30 217.5z" />
<glyph unicode="&#xb7;" horiz-adv-x="389" d="M29 717q9 69 63 116.5t123 47.5t109.5 -47.5t31.5 -116.5q-11 -69 -65 -116.5t-123 -47.5t-109.5 47.5t-29.5 116.5z" />
<glyph unicode="&#xb8;" horiz-adv-x="583" d="M311 31l-69 -123q7 -1 17.5 -4.5t36.5 -18t45 -35t31 -59.5t5 -88q-15 -109 -97.5 -177.5t-203.5 -68.5q-34 0 -65 9.5t-51 23t-34.5 27t-21.5 23.5l-6 9l104 113q3 -5 10 -11.5t32 -18t54 -11.5q38 0 69 25.5t36 56.5q5 32 -19 57t-61 25h-103l138 246h153z" />
<glyph unicode="&#xb9;" horiz-adv-x="430" d="M164 737l59 420h-123l21 154q61 0 102 34t49 89h195l-98 -697h-205z" />
<glyph unicode="&#xba;" horiz-adv-x="737" d="M541 1085q10 73 -21 118.5t-80 45.5q-48 0 -91.5 -46t-53.5 -118q-10 -73 20.5 -118t79.5 -45t92.5 45t53.5 118zM745 1085q-20 -144 -132 -246t-244 -102t-215.5 101.5t-63.5 246.5t132.5 247t244.5 102t215 -102t63 -247z" />
<glyph unicode="&#xbb;" horiz-adv-x="1044" d="M780 901l168 -409l-282 -410h-267l283 410l-168 409h266zM350 901l168 -409l-282 -410h-267l283 410l-168 409h266z" />
<glyph unicode="&#xbc;" horiz-adv-x="1505" d="M1378 1434l-1050 -1434h-308l1051 1434h307zM205 737l59 420h-123l21 154q61 0 102 34t49 89h195l-98 -697h-205zM1288 0h-205l17 113h-348l24 184l242 399h225l-242 -399h123l17 102h205l-17 -102h72l-25 -184h-71z" />
<glyph unicode="&#xbd;" horiz-adv-x="1546" d="M1378 1434l-1050 -1434h-308l1051 1434h307zM205 737l59 420h-123l21 154q61 0 102 34t49 89h195l-98 -697h-205zM1212 481q3 25 -16.5 43.5t-56.5 18.5q-76 0 -123 -72l-178 31q37 98 123.5 161.5t203.5 63.5q133 0 205.5 -69.5t59.5 -165.5q-9 -63 -53 -110t-100.5 -73 t-112 -45.5t-94.5 -38.5t-42 -41h348l-26 -184h-564l21 143q8 58 41 101t76 66.5t92 44t90.5 34.5t71.5 37.5t34 54.5z" />
<glyph unicode="&#xbe;" horiz-adv-x="1587" d="M1460 1434l-1050 -1434h-308l1051 1434h307zM1370 0h-205l17 113h-348l24 184l242 399h225l-242 -399h123l17 102h204l-16 -102h72l-25 -184h-72zM340 891q44 0 70.5 20t31.5 52q3 32 -18.5 51.5t-65.5 19.5h-122l16 113l137 102l2 11h-246l25 174h512l-20 -144 l-170 -123l-3 -10q7 -1 19 -4.5t42 -18t51.5 -35t36 -59.5t7.5 -88q-14 -100 -103.5 -172.5t-228.5 -72.5q-116 0 -184 61.5t-82 163.5l201 31q7 -72 92 -72z" />
<glyph unicode="&#xbf;" horiz-adv-x="1126" d="M436 -174q89 0 159 54.5t116 150.5l311 -41q-68 -194 -237 -322.5t-390 -128.5q-144 0 -256.5 66t-165 169.5t-36.5 215.5q11 77 40 135t68 92.5t85 60.5t93.5 48.5t89 47.5t76.5 65t53 93h267q-11 -77 -40 -136.5t-67.5 -95.5t-83 -64t-88 -50t-80 -44.5t-62.5 -55.5 t-32 -76q-11 -78 39 -131t141 -53zM786 860q-11 -69 -65 -116.5t-123 -47.5t-109.5 47.5t-29.5 116.5q9 69 63 116.5t123 47.5t109.5 -47.5t31.5 -116.5z" />
<glyph unicode="&#xc0;" horiz-adv-x="1464" d="M-82 0l549 1434h727l147 -1434h-327l-31 297h-625l-112 -297h-328zM682 1147l-211 -563h481l-55 563h-215zM672 1741l121 205l294 -164l-94 -164z" />
<glyph unicode="&#xc1;" horiz-adv-x="1464" d="M-82 0l549 1434h727l147 -1434h-327l-31 297h-625l-112 -297h-328zM682 1147l-211 -563h481l-55 563h-215zM1018 1946l63 -205l-354 -123l-49 164z" />
<glyph unicode="&#xc2;" horiz-adv-x="1464" d="M-82 0l549 1434h727l147 -1434h-327l-31 297h-625l-112 -297h-328zM682 1147l-211 -563h481l-55 563h-215zM803 1933h205l196 -348h-225l-90 154h-21l-135 -154h-225z" />
<glyph unicode="&#xc3;" horiz-adv-x="1464" d="M-82 0l549 1434h727l147 -1434h-327l-31 297h-625l-112 -297h-328zM682 1147l-211 -563h481l-55 563h-215zM791 1700q-23 0 -40 -16.5t-20 -45.5l-4 -20h-174l10 72q17 113 67.5 164t137.5 51q37 0 64 -10.5t42 -25.5t27.5 -30.5t29 -26t38.5 -10.5q23 0 39 16t20 46 l2 20h174l-8 -72q-17 -113 -67.5 -164t-137.5 -51q-46 0 -76.5 16t-43.5 35.5t-33 35.5t-47 16z" />
<glyph unicode="&#xc4;" horiz-adv-x="1464" d="M-82 0l549 1434h727l147 -1434h-327l-31 297h-625l-112 -297h-328zM682 1147l-211 -563h481l-55 563h-215zM530 1751q9 61 55.5 102t108.5 41t97 -41t26 -102t-55.5 -102t-108.5 -41t-97 41t-26 102zM940 1751q9 61 55.5 102t108.5 41t97 -41t26 -102t-55.5 -102 t-108.5 -41t-97 41t-26 102z" />
<glyph unicode="&#xc5;" horiz-adv-x="1464" d="M-82 0l549 1434h727l147 -1434h-327l-31 297h-625l-112 -297h-328zM682 1147l-211 -563h481l-55 563h-215zM655 1772q13 92 89.5 158.5t168.5 66.5t149 -66.5t44 -158.5q-12 -92 -88 -159t-168 -67t-149.5 67t-45.5 159zM788 1772q-6 -45 17 -74t63 -29q38 0 68.5 29 t36.5 74q7 45 -16 73.5t-62 28.5t-69.5 -28.5t-37.5 -73.5z" />
<glyph unicode="&#xc6;" horiz-adv-x="2048" d="M1155 287h789l-39 -287h-1106l41 297h-512l-113 -297h-317l548 1434h1659l-41 -287h-788l-39 -287h614l-41 -287h-614zM651 1147l-211 -563h441l77 563h-307z" />
<glyph unicode="&#xc7;" horiz-adv-x="1597" d="M1516 451q-52 -124 -150 -231.5t-246.5 -185t-316.5 -91.5l-31 -56q7 -1 17.5 -4t36.5 -17.5t45 -35t31 -59.5t5 -88q-15 -109 -97.5 -177.5t-203.5 -68.5q-34 0 -65.5 9.5t-52 23t-35.5 27t-22 23.5l-7 9l108 113q3 -5 10 -11.5t32.5 -18t54.5 -11.5q37 0 68 25t36 57 q5 31 -19.5 56t-62.5 25h-102l100 181q-187 20 -332 129t-215 279.5t-43 363.5q22 154 105 298t202.5 249t272.5 168t307 63q108 0 201.5 -26.5t162 -72t120.5 -107t82.5 -131t41.5 -144.5l-323 -41q-36 104 -118 169.5t-218 65.5q-117 0 -229 -64.5t-191 -178t-98 -248.5 q-14 -101 10.5 -193t77 -157t129.5 -103.5t164 -38.5q274 0 446 267z" />
<glyph unicode="&#xc8;" horiz-adv-x="1300" d="M377 287h819l-39 -287h-1137l201 1434h1137l-41 -287h-819l-39 -287h645l-41 -287h-645zM649 1720l121 205l295 -164l-94 -164z" />
<glyph unicode="&#xc9;" horiz-adv-x="1300" d="M377 287h819l-39 -287h-1137l201 1434h1137l-41 -287h-819l-39 -287h645l-41 -287h-645zM985 1925l64 -205l-355 -123l-49 164z" />
<glyph unicode="&#xca;" horiz-adv-x="1300" d="M377 287h819l-39 -287h-1137l201 1434h1137l-41 -287h-819l-39 -287h645l-41 -287h-645zM754 1946h204l197 -349h-225l-90 154h-21l-135 -154h-225z" />
<glyph unicode="&#xcb;" horiz-adv-x="1300" d="M377 287h819l-39 -287h-1137l201 1434h1137l-41 -287h-819l-39 -287h645l-41 -287h-645zM492 1761q9 62 55.5 103t107.5 41q62 0 97 -41.5t26 -102.5t-55.5 -102t-108.5 -41q-61 0 -96 40.5t-26 102.5zM901 1761q9 62 56 103t108 41q62 0 97 -41.5t26 -102.5t-55.5 -102 t-108.5 -41t-97 41t-26 102z" />
<glyph unicode="&#xcc;" horiz-adv-x="573" d="M539 1434l-201 -1434h-318l201 1434h318zM178 1720l121 205l295 -164l-94 -164z" />
<glyph unicode="&#xcd;" horiz-adv-x="573" d="M539 1434l-201 -1434h-318l201 1434h318zM608 1946l64 -205l-355 -123l-49 164z" />
<glyph unicode="&#xce;" horiz-adv-x="573" d="M539 1434l-201 -1434h-318l201 1434h318zM358 1966h205l197 -348h-225l-91 154h-20l-135 -154h-226z" />
<glyph unicode="&#xcf;" horiz-adv-x="573" d="M539 1434l-201 -1434h-318l201 1434h318zM86 1772q9 61 55.5 102t108.5 41t97 -41t26 -102q-9 -62 -56 -103t-108 -41q-62 0 -97 41.5t-26 102.5zM496 1772q9 62 55.5 102.5t107.5 40.5q62 0 97 -41t26 -102q-9 -62 -56 -103t-108 -41t-96 41t-26 103z" />
<glyph unicode="&#xd0;" horiz-adv-x="1515" d="M1452 717q-21 -148 -96.5 -280t-188 -228.5t-262 -152.5t-311.5 -56h-522l82 584h-154l37 266h153l82 584h523q162 0 295.5 -56t219 -152.5t124 -228.5t18.5 -280zM1135 717q26 185 -82 307.5t-299 122.5h-205l-41 -297h246l-37 -266h-246l-43 -297h205 q191 0 333.5 122.5t168.5 307.5z" />
<glyph unicode="&#xd1;" horiz-adv-x="1484" d="M569 1434l426 -902h21l127 902h317l-200 -1434h-349l-428 901h-20l-125 -901h-318l201 1434h348zM813 1710q-23 0 -39.5 -16t-19.5 -45l-4 -21h-175l11 72q17 113 67.5 164t137.5 51q46 0 76.5 -16t43.5 -35.5t33 -35.5t47 -16q23 0 39.5 16t20.5 46l2 20h174l-8 -71 q-17 -113 -67.5 -164t-137.5 -51q-37 0 -64 10.5t-42 25.5t-27.5 30t-29 25.5t-38.5 10.5z" />
<glyph unicode="&#xd2;" horiz-adv-x="1699" d="M377 717q-19 -135 29 -248.5t147 -178.5t225 -65q193 0 352.5 143.5t188.5 348.5q14 101 -11 192.5t-80 156.5t-136.5 103.5t-176.5 38.5q-126 0 -243 -64.5t-196.5 -178t-98.5 -248.5zM1636 717q-22 -159 -104.5 -302.5t-202.5 -248t-275 -166t-317 -61.5t-299.5 61.5 t-228 166t-131.5 248t-19 302.5t103.5 302.5t201.5 248t275 166t317 61.5t299.5 -61.5t228 -166t132.5 -248t20 -302.5zM795 1741l120 205l295 -164l-94 -164z" />
<glyph unicode="&#xd3;" horiz-adv-x="1699" d="M377 717q-19 -135 29 -248.5t147 -178.5t225 -65q193 0 352.5 143.5t188.5 348.5q14 101 -11 192.5t-80 156.5t-136.5 103.5t-176.5 38.5q-126 0 -243 -64.5t-196.5 -178t-98.5 -248.5zM1636 717q-22 -159 -104.5 -302.5t-202.5 -248t-275 -166t-317 -61.5t-299.5 61.5 t-228 166t-131.5 248t-19 302.5t103.5 302.5t201.5 248t275 166t317 61.5t299.5 -61.5t228 -166t132.5 -248t20 -302.5zM1133 1956l63 -205l-354 -123l-49 164z" />
<glyph unicode="&#xd4;" horiz-adv-x="1699" d="M377 717q-19 -135 29 -248.5t147 -178.5t225 -65q193 0 352.5 143.5t188.5 348.5q14 101 -11 192.5t-80 156.5t-136.5 103.5t-176.5 38.5q-126 0 -243 -64.5t-196.5 -178t-98.5 -248.5zM1636 717q-22 -159 -104.5 -302.5t-202.5 -248t-275 -166t-317 -61.5t-299.5 61.5 t-228 166t-131.5 248t-19 302.5t103.5 302.5t201.5 248t275 166t317 61.5t299.5 -61.5t228 -166t132.5 -248t20 -302.5zM940 1966h205l196 -348h-225l-90 154h-20l-136 -154h-225z" />
<glyph unicode="&#xd5;" horiz-adv-x="1699" d="M377 717q-19 -135 29 -248.5t147 -178.5t225 -65q193 0 352.5 143.5t188.5 348.5q14 101 -11 192.5t-80 156.5t-136.5 103.5t-176.5 38.5q-126 0 -243 -64.5t-196.5 -178t-98.5 -248.5zM1636 717q-22 -159 -104.5 -302.5t-202.5 -248t-275 -166t-317 -61.5t-299.5 61.5 t-228 166t-131.5 248t-19 302.5t103.5 302.5t201.5 248t275 166t317 61.5t299.5 -61.5t228 -166t132.5 -248t20 -302.5zM918 1731q-23 0 -40 -16.5t-20 -45.5l-4 -20h-174l10 71q17 113 67.5 164t137.5 51q37 0 64 -10.5t42 -25.5t27.5 -30t29 -25.5t38.5 -10.5 q23 0 39 15.5t20 45.5l2 21h174l-8 -72q-17 -113 -67.5 -164t-137.5 -51q-46 0 -76.5 16t-43.5 35.5t-33 35.5t-47 16z" />
<glyph unicode="&#xd6;" horiz-adv-x="1699" d="M377 717q-19 -135 29 -248.5t147 -178.5t225 -65q193 0 352.5 143.5t188.5 348.5q14 101 -11 192.5t-80 156.5t-136.5 103.5t-176.5 38.5q-126 0 -243 -64.5t-196.5 -178t-98.5 -248.5zM1636 717q-22 -159 -104.5 -302.5t-202.5 -248t-275 -166t-317 -61.5t-299.5 61.5 t-228 166t-131.5 248t-19 302.5t103.5 302.5t201.5 248t275 166t317 61.5t299.5 -61.5t228 -166t132.5 -248t20 -302.5zM662 1802q9 62 55.5 103t107.5 41q62 0 97 -41.5t26 -102.5t-55.5 -102t-108.5 -41q-61 0 -96 40.5t-26 102.5zM1071 1802q9 62 56 103t108 41 q62 0 97 -41.5t26 -102.5t-55.5 -102t-108.5 -41t-97 41t-26 102z" />
<glyph unicode="&#xd7;" horiz-adv-x="901" d="M610 635l185 -215l-199 -174l-184 215l-246 -215l-150 174l246 215l-184 215l198 174l185 -215l246 215l149 -174z" />
<glyph unicode="&#xd8;" horiz-adv-x="1781" d="M1677 717q-22 -159 -104.5 -302.5t-202.5 -248t-275 -166t-317 -61.5q-210 0 -372 98t-246 264l-234 -96l33 246l139 57q-12 102 2 209q22 159 103.5 302.5t201.5 248t275 166t317 61.5q209 0 372.5 -99t244.5 -266l237 99l-34 -246l-140 -57q13 -113 0 -209zM1360 717 q4 27 4 80l-897 -369q52 -95 144 -149t208 -54q193 0 352.5 143.5t188.5 348.5zM418 717q-6 -44 -6 -80l899 369q-53 94 -146.5 148t-208.5 54q-126 0 -243 -64.5t-196.5 -178t-98.5 -248.5z" />
<glyph unicode="&#xd9;" horiz-adv-x="1495" d="M676 225q139 0 234.5 86t117.5 232l125 891h317l-124 -891q-38 -270 -233 -437t-478 -167t-430 167t-109 437l125 891h318l-125 -891q-22 -145 50.5 -231.5t211.5 -86.5zM672 1741l121 205l294 -164l-94 -164z" />
<glyph unicode="&#xda;" horiz-adv-x="1495" d="M676 225q139 0 234.5 86t117.5 232l125 891h317l-124 -891q-38 -270 -233 -437t-478 -167t-430 167t-109 437l125 891h318l-125 -891q-22 -145 50.5 -231.5t211.5 -86.5zM1049 1946l63 -205l-354 -123l-49 164z" />
<glyph unicode="&#xdb;" horiz-adv-x="1495" d="M676 225q139 0 234.5 86t117.5 232l125 891h317l-124 -891q-38 -270 -233 -437t-478 -167t-430 167t-109 437l125 891h318l-125 -891q-22 -145 50.5 -231.5t211.5 -86.5zM827 1966h205l197 -348h-225l-91 154h-20l-135 -154h-226z" />
<glyph unicode="&#xdc;" horiz-adv-x="1495" d="M676 225q139 0 234.5 86t117.5 232l125 891h317l-124 -891q-38 -270 -233 -437t-478 -167t-430 167t-109 437l125 891h318l-125 -891q-22 -145 50.5 -231.5t211.5 -86.5zM524 1772q9 61 55.5 102t108.5 41t97 -41t26 -102q-9 -62 -56 -103t-108 -41q-62 0 -97 41.5 t-26 102.5zM934 1772q9 61 55.5 102t108.5 41t97 -41t26 -102q-9 -62 -56 -103t-108 -41q-62 0 -97 41.5t-26 102.5z" />
<glyph unicode="&#xdd;" horiz-adv-x="1382" d="M813 471l-65 -471h-318l66 471l-408 963h358l252 -615h11l424 615h358zM995 1925l64 -205l-354 -123l-50 164z" />
<glyph unicode="&#xde;" horiz-adv-x="1341" d="M526 1352h154q206 0 351.5 -81.5t208.5 -225.5t38 -328q-40 -280 -252.5 -457.5t-523.5 -177.5h-154l-16 -123h-318l213 1516h318zM641 1065h-154l-98 -696h154q167 0 281.5 96.5t136.5 251.5t-65.5 251.5t-254.5 96.5z" />
<glyph unicode="&#xdf;" horiz-adv-x="1157" d="M496 625l39 266q83 0 140 46.5t66 117.5q9 70 -25 117t-95 47q-62 0 -115 -48t-62 -116l-147 -1055h-287l150 1065q24 171 165.5 290.5t331.5 119.5q187 0 293 -109.5t84 -259.5q-9 -63 -34 -115.5t-54.5 -83t-58 -52t-47.5 -29.5l-19 -7l-4 -20q12 -3 31 -9t66.5 -34 t81.5 -66t56 -110.5t9 -161.5q-25 -179 -171.5 -298.5t-357.5 -119.5h-122l34 256h123q77 0 139 54t72 130t-36.5 130.5t-123.5 54.5h-122z" />
<glyph unicode="&#xe0;" horiz-adv-x="1198" d="M27 492q21 149 104.5 272.5t198.5 191.5t233 68q55 0 100 -14.5t71 -36t44 -42.5t24 -35l7 -15h20l15 102h286l-137 -983h-286l14 102h-21q-4 -6 -11 -15.5t-33.5 -34t-56.5 -43.5t-80 -34.5t-105 -15.5q-182 0 -300 154.5t-87 378.5zM760 389l28 205q-2 7 -7 19 t-22.5 42t-38.5 52.5t-56.5 41.5t-75.5 19q-103 0 -180 -74.5t-95 -201.5t38 -202t159 -75q40 0 80.5 18t69.5 43.5t52.5 51t35.5 43.5zM465 1290l121 205l295 -164l-95 -164z" />
<glyph unicode="&#xe1;" horiz-adv-x="1198" d="M27 492q21 149 104.5 272.5t198.5 191.5t233 68q55 0 100 -14.5t71 -36t44 -42.5t24 -35l7 -15h20l15 102h286l-137 -983h-286l14 102h-21q-4 -6 -11 -15.5t-33.5 -34t-56.5 -43.5t-80 -34.5t-105 -15.5q-182 0 -300 154.5t-87 378.5zM760 389l28 205q-2 7 -7 19 t-22.5 42t-38.5 52.5t-56.5 41.5t-75.5 19q-103 0 -180 -74.5t-95 -201.5t38 -202t159 -75q40 0 80.5 18t69.5 43.5t52.5 51t35.5 43.5zM831 1495l64 -205l-354 -123l-49 164z" />
<glyph unicode="&#xe2;" horiz-adv-x="1198" d="M27 492q21 149 104.5 272.5t198.5 191.5t233 68q55 0 100 -14.5t71 -36t44 -42.5t24 -35l7 -15h20l15 102h286l-137 -983h-286l14 102h-21q-4 -6 -11 -15.5t-33.5 -34t-56.5 -43.5t-80 -34.5t-105 -15.5q-182 0 -300 154.5t-87 378.5zM760 389l28 205q-2 7 -7 19 t-22.5 42t-38.5 52.5t-56.5 41.5t-75.5 19q-103 0 -180 -74.5t-95 -201.5t38 -202t159 -75q40 0 80.5 18t69.5 43.5t52.5 51t35.5 43.5zM610 1516h205l197 -349h-226l-90 154h-20l-135 -154h-226z" />
<glyph unicode="&#xe3;" horiz-adv-x="1198" d="M27 492q21 149 104.5 272.5t198.5 191.5t233 68q55 0 100 -14.5t71 -36t44 -42.5t24 -35l7 -15h20l15 102h286l-137 -983h-286l14 102h-21q-4 -6 -11 -15.5t-33.5 -34t-56.5 -43.5t-80 -34.5t-105 -15.5q-182 0 -300 154.5t-87 378.5zM760 389l28 205q-2 7 -7 19 t-22.5 42t-38.5 52.5t-56.5 41.5t-75.5 19q-103 0 -180 -74.5t-95 -201.5t38 -202t159 -75q40 0 80.5 18t69.5 43.5t52.5 51t35.5 43.5zM606 1270q-23 0 -39.5 -16t-19.5 -46l-4 -20h-174l10 72q17 113 67.5 164t137.5 51q46 0 76.5 -16t43.5 -35.5t33 -35.5t47 -16 q23 0 39.5 16t20.5 46l2 20h174l-8 -72q-17 -113 -67.5 -164t-137.5 -51q-37 0 -64 10.5t-42 25.5t-27.5 30.5t-29 26t-38.5 10.5z" />
<glyph unicode="&#xe4;" horiz-adv-x="1198" d="M27 492q21 149 104.5 272.5t198.5 191.5t233 68q55 0 100 -14.5t71 -36t44 -42.5t24 -35l7 -15h20l15 102h286l-137 -983h-286l14 102h-21q-4 -6 -11 -15.5t-33.5 -34t-56.5 -43.5t-80 -34.5t-105 -15.5q-182 0 -300 154.5t-87 378.5zM760 389l28 205q-2 7 -7 19 t-22.5 42t-38.5 52.5t-56.5 41.5t-75.5 19q-103 0 -180 -74.5t-95 -201.5t38 -202t159 -75q40 0 80.5 18t69.5 43.5t52.5 51t35.5 43.5zM338 1321q9 61 55.5 102t108.5 41t97 -41t26 -102t-55.5 -102t-108.5 -41t-97 41t-26 102zM748 1321q9 62 55.5 102.5t107.5 40.5 q62 0 97 -41t26 -102t-55.5 -102t-108.5 -41q-61 0 -96 40.5t-26 102.5z" />
<glyph unicode="&#xe5;" horiz-adv-x="1198" d="M27 492q21 149 104.5 272.5t198.5 191.5t233 68q55 0 100 -14.5t71 -36t44 -42.5t24 -35l7 -15h20l15 102h286l-137 -983h-286l14 102h-21q-4 -6 -11 -15.5t-33.5 -34t-56.5 -43.5t-80 -34.5t-105 -15.5q-182 0 -300 154.5t-87 378.5zM760 389l28 205q-2 7 -7 19 t-22.5 42t-38.5 52.5t-56.5 41.5t-75.5 19q-103 0 -180 -74.5t-95 -201.5t38 -202t159 -75q40 0 80.5 18t69.5 43.5t52.5 51t35.5 43.5zM457 1372q13 92 89.5 158.5t168.5 66.5t149 -66.5t43 -158.5q-12 -92 -88 -158.5t-168 -66.5t-149 66.5t-45 158.5zM590 1372 q-6 -45 17 -73.5t63 -28.5q38 0 68 28.5t36 73.5q7 45 -16 74t-62 29t-69 -29t-37 -74z" />
<glyph unicode="&#xe6;" horiz-adv-x="1751" d="M367 215q89 0 160 55t79 119h-215q-59 0 -94.5 -26t-40.5 -66q-6 -39 22 -60.5t89 -21.5zM1182 768q-74 0 -134.5 -47.5t-95.5 -126.5h410q-12 79 -59 126.5t-121 47.5zM723 123q-6 -7 -17 -18t-49.5 -39t-81.5 -50t-111.5 -39.5t-141.5 -17.5q-177 0 -276 92.5 t-81 214.5q21 151 137.5 239.5t317.5 88.5h215q12 83 -24 127.5t-111 44.5q-48 0 -89 -22t-58 -44l-17 -22q-91 37 -223 96q5 10 15 27t48 60t83.5 76t123 60t164.5 27q64 0 116.5 -17t81.5 -41t49 -48t26 -41l7 -17h21q5 7 14 18t43 39t73 50t104 39.5t137 17.5 q106 0 196.5 -41.5t150.5 -112.5t87.5 -170t11.5 -208l-117 -103h-624q12 -79 59 -126.5t121 -47.5q84 0 135.5 29.5t95.5 83.5l281 -41q-33 -64 -83 -121t-117.5 -104.5t-157.5 -75t-189 -27.5q-63 0 -120 17t-93 41t-62.5 48t-38.5 41l-12 17h-20z" />
<glyph unicode="&#xe7;" horiz-adv-x="1126" d="M1028 328q-50 -143 -178 -245t-307 -120l-37 -65q6 -1 17 -4.5t37 -18t45 -35t31 -59.5t5 -88q-14 -109 -95.5 -177.5t-203.5 -68.5q-34 0 -65.5 9.5t-52 23t-35.5 27t-22 23.5l-7 9l108 113q3 -5 10 -11.5t32.5 -18t54.5 -11.5q38 0 68.5 25.5t33.5 56.5q5 32 -19 57 t-61 25h-102l106 192q-178 31 -284 182t-80 343q20 141 110 264t221 195.5t267 72.5q96 0 177 -29.5t134 -78.5t84.5 -108t38.5 -122l-293 -41q-20 53 -64 88t-114 35q-95 0 -176.5 -78t-98.5 -198t42.5 -198.5t154.5 -78.5q80 0 141.5 43.5t96.5 110.5z" />
<glyph unicode="&#xe8;" d="M625 1024q146 0 258.5 -70.5t165.5 -193t32 -268.5l-116 -103h-646q13 -80 61 -127t130 -47q91 0 144.5 29.5t97.5 83.5l280 -41q-33 -65 -83 -121t-118.5 -104t-160.5 -75.5t-195 -27.5q-102 0 -192 43.5t-150.5 115t-90 170.5t-15.5 204q20 141 110 264t221 195.5 t267 72.5zM588 768q-82 0 -143.5 -47t-96.5 -127h430q-13 80 -60.5 127t-129.5 47zM475 1290l121 205l295 -164l-94 -164z" />
<glyph unicode="&#xe9;" d="M625 1024q146 0 258.5 -70.5t165.5 -193t32 -268.5l-116 -103h-646q13 -80 61 -127t130 -47q91 0 144.5 29.5t97.5 83.5l280 -41q-33 -65 -83 -121t-118.5 -104t-160.5 -75.5t-195 -27.5q-102 0 -192 43.5t-150.5 115t-90 170.5t-15.5 204q20 141 110 264t221 195.5 t267 72.5zM588 768q-82 0 -143.5 -47t-96.5 -127h430q-13 80 -60.5 127t-129.5 47zM821 1495l64 -205l-355 -123l-49 164z" />
<glyph unicode="&#xea;" d="M625 1024q146 0 258.5 -70.5t165.5 -193t32 -268.5l-116 -103h-646q13 -80 61 -127t130 -47q91 0 144.5 29.5t97.5 83.5l280 -41q-33 -65 -83 -121t-118.5 -104t-160.5 -75.5t-195 -27.5q-102 0 -192 43.5t-150.5 115t-90 170.5t-15.5 204q20 141 110 264t221 195.5 t267 72.5zM588 768q-82 0 -143.5 -47t-96.5 -127h430q-13 80 -60.5 127t-129.5 47zM588 1505h205l196 -348h-225l-90 154h-21l-135 -154h-225z" />
<glyph unicode="&#xeb;" d="M625 1024q146 0 258.5 -70.5t165.5 -193t32 -268.5l-116 -103h-646q13 -80 61 -127t130 -47q91 0 144.5 29.5t97.5 83.5l280 -41q-33 -65 -83 -121t-118.5 -104t-160.5 -75.5t-195 -27.5q-102 0 -192 43.5t-150.5 115t-90 170.5t-15.5 204q20 141 110 264t221 195.5 t267 72.5zM588 768q-82 0 -143.5 -47t-96.5 -127h430q-13 80 -60.5 127t-129.5 47zM305 1311q9 61 55.5 102t108.5 41t97 -41t26 -102q-9 -62 -56 -103t-108 -41q-62 0 -97 41.5t-26 102.5zM715 1311q9 61 55.5 102t108.5 41q61 0 96 -40.5t26 -102.5t-55.5 -103t-107.5 -41 q-62 0 -97 41.5t-26 102.5z" />
<glyph unicode="&#xec;" horiz-adv-x="532" d="M78 1280l121 205l295 -164l-95 -164zM444 983l-137 -983h-287l138 983h286z" />
<glyph unicode="&#xed;" horiz-adv-x="532" d="M504 1485l63 -205l-354 -123l-49 164zM444 983l-137 -983h-287l138 983h286z" />
<glyph unicode="&#xee;" horiz-adv-x="532" d="M444 983l-137 -983h-287l138 983h286zM268 1475h205l197 -349h-226l-90 154h-20l-135 -154h-226z" />
<glyph unicode="&#xef;" horiz-adv-x="573" d="M16 1290q9 62 56 103t108 41q62 0 97 -41.5t26 -102.5t-55.5 -102t-108.5 -41t-97 41t-26 102zM426 1290q9 62 56 103t108 41q62 0 97 -41.5t26 -102.5t-55.5 -102t-108.5 -41t-97 41t-26 102zM465 983l-137 -983h-287l137 983h287z" />
<glyph unicode="&#xf0;" horiz-adv-x="1146" d="M737 1106l-135 -92l-100 164l137 92l-94 133l217 164l112 -144l138 93l98 -164l-145 -92q3 -3 8.5 -9.5t20 -29.5t27 -50.5t26 -73t21 -95.5t7.5 -120t-10 -145l-41 -286q-29 -216 -188 -354t-381 -138q-221 0 -342.5 136.5t-92.5 344.5q29 206 184 344t355 138 q40 0 76.5 -10.5t60 -26t41 -30.5t25.5 -25l8 -11h21q8 61 5.5 108.5t-12 81t-20 55.5t-18.5 32zM489 215q93 0 164 63t84 162t-39 162.5t-145 63.5t-163 -63t-83 -163q-13 -99 38 -162t144 -63z" />
<glyph unicode="&#xf1;" horiz-adv-x="1157" d="M1040 563l-77 -563h-287l78 563q13 90 -31 147.5t-115 57.5q-37 0 -75.5 -18t-66.5 -43.5t-51 -51t-35 -43.5l-11 -18l-82 -594h-287l137 983h287l-14 -102h20q4 6 11.5 15.5t33 34t55.5 43.5t77.5 34.5t99.5 15.5q165 0 263.5 -129.5t69.5 -331.5zM567 1280 q-23 0 -39.5 -16t-19.5 -45l-4 -21h-174l10 72q17 113 67.5 164t137.5 51q46 0 76.5 -16t43.5 -35.5t33 -35.5t47 -16q23 0 39.5 16t20.5 46l2 20h174l-8 -71q-17 -113 -67.5 -164t-137.5 -51q-37 0 -64 10.5t-42 25.5t-27.5 30t-29 25.5t-38.5 10.5z" />
<glyph unicode="&#xf2;" horiz-adv-x="1208" d="M530 215q102 0 191 81.5t104 195.5q17 114 -49 195t-168 81q-101 0 -189.5 -81t-105.5 -195q-15 -114 50.5 -195.5t166.5 -81.5zM496 -41q-146 0 -261 73t-171 196t-37 264q20 141 110.5 264t226 195.5t281.5 72.5q109 0 203.5 -43t157 -115t92 -170t14.5 -204 q-19 -141 -109 -264t-225.5 -196t-281.5 -73zM463 1270l121 205l295 -164l-95 -164z" />
<glyph unicode="&#xf3;" horiz-adv-x="1208" d="M530 215q102 0 191 81.5t104 195.5q17 114 -49 195t-168 81q-101 0 -189.5 -81t-105.5 -195q-15 -114 50.5 -195.5t166.5 -81.5zM496 -41q-146 0 -261 73t-171 196t-37 264q20 141 110.5 264t226 195.5t281.5 72.5q109 0 203.5 -43t157 -115t92 -170t14.5 -204 q-19 -141 -109 -264t-225.5 -196t-281.5 -73zM811 1495l63 -205l-354 -123l-49 164z" />
<glyph unicode="&#xf4;" horiz-adv-x="1208" d="M530 215q102 0 191 81.5t104 195.5q17 114 -49 195t-168 81q-101 0 -189.5 -81t-105.5 -195q-15 -114 50.5 -195.5t166.5 -81.5zM496 -41q-146 0 -261 73t-171 196t-37 264q20 141 110.5 264t226 195.5t281.5 72.5q109 0 203.5 -43t157 -115t92 -170t14.5 -204 q-19 -141 -109 -264t-225.5 -196t-281.5 -73zM610 1516h205l197 -349h-226l-90 154h-20l-135 -154h-226z" />
<glyph unicode="&#xf5;" horiz-adv-x="1208" d="M530 215q102 0 191 81.5t104 195.5q17 114 -49 195t-168 81q-101 0 -189.5 -81t-105.5 -195q-15 -114 50.5 -195.5t166.5 -81.5zM496 -41q-146 0 -261 73t-171 196t-37 264q20 141 110.5 264t226 195.5t281.5 72.5q109 0 203.5 -43t157 -115t92 -170t14.5 -204 q-19 -141 -109 -264t-225.5 -196t-281.5 -73zM594 1249q-23 0 -39.5 -16t-19.5 -45l-5 -21h-174l11 72q17 113 67 164t137 51q37 0 64 -10.5t42 -25.5t27.5 -30t29 -25.5t38.5 -10.5q23 0 39 15.5t20 45.5l3 21h174l-9 -72q-17 -113 -67 -164t-137 -51q-37 0 -64 10.5 t-42 25.5t-27.5 30t-29 25.5t-38.5 10.5z" />
<glyph unicode="&#xf6;" horiz-adv-x="1208" d="M530 215q102 0 191 81.5t104 195.5q17 114 -49 195t-168 81q-101 0 -189.5 -81t-105.5 -195q-15 -114 50.5 -195.5t166.5 -81.5zM496 -41q-146 0 -261 73t-171 196t-37 264q20 141 110.5 264t226 195.5t281.5 72.5q109 0 203.5 -43t157 -115t92 -170t14.5 -204 q-19 -141 -109 -264t-225.5 -196t-281.5 -73zM317 1331q9 62 56 103t108 41q62 0 97 -41.5t26 -102.5t-55.5 -102t-108.5 -41t-97 41t-26 102zM727 1331q9 62 56 103t108 41q62 0 97 -41.5t26 -102.5t-55.5 -102t-108.5 -41t-97 41t-26 102z" />
<glyph unicode="&#xf7;" horiz-adv-x="860" d="M823 758l-35 -246h-778l35 246h778zM309 1044q11 69 64.5 116.5t122.5 47.5t110 -47.5t31 -116.5q-9 -69 -63 -116t-123 -47t-110 47t-32 116zM10 512l35 246h778l-35 -246h-778zM522 225q-9 -69 -63 -116.5t-123 -47.5t-109.5 47.5t-31.5 116.5t63 116.5t123 47.5 t109.5 -47.5t31.5 -116.5z" />
<glyph unicode="&#xf8;" horiz-adv-x="1208" d="M496 -41q-140 0 -252 67t-170 179l-158 -62l27 185l82 32q-6 69 2 132q20 141 110.5 264t226 195.5t281.5 72.5q138 0 250 -67.5t170 -180.5l158 64l-27 -185l-84 -34q9 -63 0 -129q-19 -141 -109 -264t-225.5 -196t-281.5 -73zM530 215q102 0 191 81.5t104 195.5l2 16 l-479 -193q31 -47 78.5 -73.5t103.5 -26.5zM313 492l-2 -17l477 191q-28 48 -75.5 75t-104.5 27q-101 0 -189.5 -81t-105.5 -195z" />
<glyph unicode="&#xf9;" d="M57 420l80 563h287l-80 -563q-12 -90 31 -147.5t114 -57.5q37 0 75.5 18t67 43.5t51 51t34.5 43.5l12 18l84 594h287l-137 -983h-287l14 102h-20q-4 -6 -11.5 -15.5t-33 -34t-55.5 -43.5t-77.5 -34.5t-99.5 -15.5q-108 0 -191 57t-123.5 163.5t-21.5 240.5zM461 1260 l121 204l295 -164l-95 -163z" />
<glyph unicode="&#xfa;" d="M57 420l80 563h287l-80 -563q-12 -90 31 -147.5t114 -57.5q37 0 75.5 18t67 43.5t51 51t34.5 43.5l12 18l84 594h287l-137 -983h-287l14 102h-20q-4 -6 -11.5 -15.5t-33 -34t-55.5 -43.5t-77.5 -34.5t-99.5 -15.5q-108 0 -191 57t-123.5 163.5t-21.5 240.5zM797 1454 l63 -205l-354 -123l-49 164z" />
<glyph unicode="&#xfb;" d="M57 420l80 563h287l-80 -563q-12 -90 31 -147.5t114 -57.5q37 0 75.5 18t67 43.5t51 51t34.5 43.5l12 18l84 594h287l-137 -983h-287l14 102h-20q-4 -6 -11.5 -15.5t-33 -34t-55.5 -43.5t-77.5 -34.5t-99.5 -15.5q-108 0 -191 57t-123.5 163.5t-21.5 240.5zM578 1495h204 l197 -348h-225l-90 153h-21l-135 -153h-225z" />
<glyph unicode="&#xfc;" d="M57 420l80 563h287l-80 -563q-12 -90 31 -147.5t114 -57.5q37 0 75.5 18t67 43.5t51 51t34.5 43.5l12 18l84 594h287l-137 -983h-287l14 102h-20q-4 -6 -11.5 -15.5t-33 -34t-55.5 -43.5t-77.5 -34.5t-99.5 -15.5q-108 0 -191 57t-123.5 163.5t-21.5 240.5zM293 1300 q9 62 56 103t108 41q62 0 97 -41.5t26 -102.5t-55.5 -102t-108.5 -41t-97 41t-26 102zM702 1300q9 62 56 103t108 41q62 0 97 -41.5t26 -102.5t-55.5 -102t-108.5 -41t-97 41t-26 102z" />
<glyph unicode="&#xfd;" horiz-adv-x="1105" d="M813 983h287l-342 -983q-165 -471 -477 -471q-50 0 -100 10.5t-75 20.5l-24 10l76 246q47 -31 108 -31q131 0 205 215h-317l-78 983h286l54 -727h141zM768 1475l63 -205l-354 -123l-49 164z" />
<glyph unicode="&#xfe;" horiz-adv-x="1208" d="M1112 492q-21 -149 -104 -273t-197.5 -192t-232.5 -68q-55 0 -100 14.5t-71 36t-44 42.5t-25 36l-6 14h-21l-73 -512h-287l260 1844h287l-78 -553h20q4 6 11 15.5t33.5 34t57 43.5t80.5 34.5t105 15.5q88 0 165.5 -40.5t131.5 -110t79 -169.5t9 -212zM379 594l-29 -205 q2 -7 7 -19t22.5 -42t39 -52.5t57 -41.5t75.5 -19q102 0 179 74.5t95 202.5q18 127 -37.5 201.5t-158.5 74.5q-40 0 -80.5 -18t-69.5 -43.5t-52.5 -51t-35.5 -43.5z" />
<glyph unicode="&#xff;" horiz-adv-x="1105" d="M813 983h287l-342 -983q-165 -471 -477 -471q-50 0 -100 10.5t-75 20.5l-24 10l76 246q47 -31 108 -31q131 0 205 215h-317l-78 983h286l54 -727h141zM264 1311q9 61 55.5 102t108.5 41t97 -41t26 -102q-9 -62 -56 -103t-108 -41q-62 0 -97 41.5t-26 102.5zM674 1311 q9 61 55.5 102t108.5 41t97 -41t26 -102q-9 -62 -56 -103t-108 -41q-62 0 -97 41.5t-26 102.5z" />
<glyph unicode="&#x152;" horiz-adv-x="2140" d="M1247 287h789l-39 -287h-1270q-221 0 -384.5 96t-237.5 259.5t-46 361.5q20 148 96 280t189.5 228.5t265.5 152.5t318 56h1270l-41 -287h-789l-39 -287h615l-41 -287h-615zM377 717q-25 -179 87 -304.5t302 -125.5h164l121 860h-164q-190 0 -337.5 -125.5t-172.5 -304.5z " />
<glyph unicode="&#x153;" horiz-adv-x="1914" d="M475 -41q-106 0 -196.5 42t-151 113t-88 170t-12.5 208q21 146 109 268.5t218 193t271 70.5q72 0 134.5 -18t101 -43.5t67 -51t40.5 -43.5l11 -18h20q6 7 17.5 19t49.5 42t79.5 52.5t106 41.5t130.5 19q142 0 252 -70.5t163 -193t32 -268.5l-117 -103h-625 q12 -79 59.5 -126.5t121.5 -47.5q84 0 135.5 29.5t95.5 83.5l281 -41q-33 -64 -83 -121t-117.5 -104.5t-157.5 -75t-189 -27.5q-66 0 -124.5 18t-95.5 43.5t-64 51t-39 43.5l-11 18h-20q-6 -7 -17.5 -19t-51 -42t-83 -52.5t-112 -41.5t-140.5 -19zM510 215q95 0 176 78.5 t98 198.5q16 116 -48.5 196t-147.5 80t-171 -80t-104 -196q-17 -120 42.5 -198.5t154.5 -78.5zM1346 768q-74 0 -134.5 -47.5t-95.5 -126.5h410q-12 79 -59 126.5t-121 47.5z" />
<glyph unicode="&#x178;" horiz-adv-x="1382" d="M813 471l-65 -471h-318l66 471l-408 963h358l252 -615h11l424 615h358zM492 1761q9 62 55.5 103t107.5 41q62 0 97 -41.5t26 -102.5t-55.5 -102t-108.5 -41q-61 0 -96 40.5t-26 102.5zM901 1761q9 62 56 103t108 41q62 0 97 -41.5t26 -102.5t-55.5 -102t-108.5 -41 t-97 41t-26 102z" />
<glyph unicode="&#x2c6;" horiz-adv-x="819" d="M406 1434h204l197 -349h-225l-90 154h-21l-135 -154h-225z" />
<glyph unicode="&#x2dc;" horiz-adv-x="737" d="M356 1229q-23 0 -39.5 -16t-19.5 -46l-4 -20h-174l10 72q17 113 67.5 164t137.5 51q37 0 64 -10.5t42 -26t27.5 -30.5t29 -25.5t38.5 -10.5q23 0 39 16t20 46l2 20h174l-8 -72q-17 -113 -67.5 -164t-137.5 -51q-37 0 -64 10.5t-42 26t-27.5 30.5t-29 25.5t-38.5 10.5z " />
<glyph unicode="&#x2000;" horiz-adv-x="998" />
<glyph unicode="&#x2001;" horiz-adv-x="1997" />
<glyph unicode="&#x2002;" horiz-adv-x="998" />
<glyph unicode="&#x2003;" horiz-adv-x="1997" />
<glyph unicode="&#x2004;" horiz-adv-x="665" />
<glyph unicode="&#x2005;" horiz-adv-x="499" />
<glyph unicode="&#x2006;" horiz-adv-x="332" />
<glyph unicode="&#x2007;" horiz-adv-x="332" />
<glyph unicode="&#x2008;" horiz-adv-x="249" />
<glyph unicode="&#x2009;" horiz-adv-x="399" />
<glyph unicode="&#x200a;" horiz-adv-x="110" />
<glyph unicode="&#x2010;" horiz-adv-x="860" d="M786 502h-778l37 256h778z" />
<glyph unicode="&#x2011;" horiz-adv-x="860" d="M786 502h-778l37 256h778z" />
<glyph unicode="&#x2012;" horiz-adv-x="860" d="M786 502h-778l37 256h778z" />
<glyph unicode="&#x2013;" horiz-adv-x="1280" d="M1198 451h-1198l37 256h1198z" />
<glyph unicode="&#x2014;" horiz-adv-x="1597" d="M1516 451h-1516l37 256h1515z" />
<glyph unicode="&#x2018;" horiz-adv-x="450" d="M444 1126q-11 -69 -64 -116t-122 -47t-110 47t-31 116q4 27 15 53t20 38l10 12l194 225h123l-96 -184q3 -2 8 -5.5t17 -16t20.5 -27.5t14 -40.5t1.5 -54.5z" />
<glyph unicode="&#x2019;" horiz-adv-x="450" d="M139 1290q9 69 63.5 116.5t123.5 47.5t109.5 -47.5t31.5 -116.5q-4 -27 -15 -52.5t-20 -37.5l-10 -12l-195 -225h-123l97 184q-3 2 -8 5t-17.5 16t-21 28t-14 40t-1.5 54z" />
<glyph unicode="&#x201a;" horiz-adv-x="450" d="M-25 123q9 69 63.5 116.5t123.5 47.5t109.5 -47.5t31.5 -116.5q-4 -27 -15 -53t-20 -38l-10 -12l-197 -225h-122l98 185q-3 2 -8 5t-17.5 16t-21 28t-14 40t-1.5 54z" />
<glyph unicode="&#x201c;" horiz-adv-x="839" d="M444 1126q-11 -69 -64 -116t-122 -47t-110 47t-31 116q4 27 15 53t20 38l10 12l194 225h123l-96 -184q3 -2 8 -5.5t17 -16t20.5 -27.5t14 -40.5t1.5 -54.5zM834 1126q-11 -69 -64.5 -116t-122.5 -47t-110 47t-31 116q4 27 15 53t21 38l9 12l194 225h123l-96 -184 q3 -2 8 -5.5t17.5 -16t21 -27.5t14 -40.5t1.5 -54.5z" />
<glyph unicode="&#x201d;" horiz-adv-x="839" d="M139 1290q9 69 63.5 116.5t123.5 47.5t109.5 -47.5t31.5 -116.5q-4 -27 -15 -52.5t-20 -37.5l-10 -12l-195 -225h-123l97 184q-3 2 -8 5t-17.5 16t-21 28t-14 40t-1.5 54zM528 1290q9 69 63.5 116.5t123.5 47.5t109.5 -47.5t31.5 -116.5q-4 -27 -15 -52.5t-21 -37.5 l-9 -12l-195 -225h-122l96 184q-3 2 -8 5t-17.5 16t-21 28t-14 40t-1.5 54z" />
<glyph unicode="&#x201e;" horiz-adv-x="839" d="M-25 123q9 69 63.5 116.5t123.5 47.5t109.5 -47.5t31.5 -116.5q-4 -27 -15 -53t-20 -38l-10 -12l-197 -225h-122l98 185q-3 2 -8 5t-17.5 16t-21 28t-14 40t-1.5 54zM365 123q9 69 63 116.5t123 47.5t109.5 -47.5t31.5 -116.5q-4 -27 -15 -53t-21 -38l-9 -12l-196 -225 h-123l98 185q-3 2 -8 5t-17 16t-20.5 28t-14 40t-1.5 54z" />
<glyph unicode="&#x2022;" horiz-adv-x="593" d="M63 604q12 92 82.5 153.5t163.5 61.5q92 0 144.5 -61.5t40.5 -153.5t-82.5 -153.5t-163.5 -61.5q-92 0 -144.5 61.5t-40.5 153.5z" />
<glyph unicode="&#x2026;" horiz-adv-x="1392" d="M-25 123q9 69 63.5 116.5t123.5 47.5t109.5 -47.5t31.5 -116.5t-63 -116.5t-123 -47.5t-110 47.5t-32 116.5zM918 123q9 69 63 116.5t123 47.5t109.5 -47.5t31.5 -116.5t-63 -116.5t-123 -47.5t-109.5 47.5t-31.5 116.5zM446 123q9 69 63.5 116.5t123.5 47.5t109.5 -47.5 t31.5 -116.5t-63 -116.5t-123 -47.5t-110 47.5t-32 116.5z" />
<glyph unicode="&#x202f;" horiz-adv-x="399" />
<glyph unicode="&#x2039;" horiz-adv-x="747" d="M365 492l-3 -21l263 -317l-199 -174l-420 501l561 502l150 -174z" />
<glyph unicode="&#x203a;" horiz-adv-x="747" d="M311 471l2 21l-262 317l199 174l422 -502l-563 -501l-150 174z" />
<glyph unicode="&#x205f;" horiz-adv-x="499" />
<glyph unicode="&#x20ac;" horiz-adv-x="1679" d="M31 666h102l14 102h-102l27 184h141q110 235 337.5 389t477.5 154q108 0 201.5 -26.5t162 -72t120.5 -107t82.5 -131t41.5 -144.5l-323 -41q-36 104 -118 169.5t-218 65.5q-122 0 -238 -70t-192 -186h446l-26 -184h-502l-14 -102h501l-24 -185h-447q43 -116 140 -186 t219 -70q274 0 446 267l311 -41q-32 -78 -84.5 -151.5t-127 -139t-161.5 -115t-194.5 -78t-220.5 -28.5q-251 0 -435 153t-227 389h-141z" />
<glyph unicode="&#x2122;" horiz-adv-x="1566" d="M1118 901l-125 205h-20l-45 -328h-236l92 656h256l125 -205l183 205h256l-93 -656h-235l45 328h-21zM723 1434l-31 -215h-184l-62 -441h-235l61 441h-184l31 215h604z" />
<glyph unicode="&#x25fc;" horiz-adv-x="983" d="M0 983h983v-983h-983v983z" />
</font>
</defs>
</svg>
