<?xml version="1.0" standalone="no"?>
<!DOCTYPE svg PUBLIC "-//W3C//DTD SVG 1.1//EN" "http://www.w3.org/Graphics/SVG/1.1/DTD/svg11.dtd" >
<svg xmlns="http://www.w3.org/2000/svg">
<metadata></metadata>
<defs>
<font id="tt_firsthin_italic" horiz-adv-x="1116" >
<font-face units-per-em="2048" ascent="1638" descent="-410" />
<missing-glyph horiz-adv-x="317" />
<glyph horiz-adv-x="0" />
<glyph horiz-adv-x="0" />
<glyph horiz-adv-x="682" />
<glyph unicode="&#xd;" horiz-adv-x="0" />
<glyph unicode=" "  horiz-adv-x="317" />
<glyph unicode="&#x09;" horiz-adv-x="317" />
<glyph unicode="&#xa0;" horiz-adv-x="317" />
<glyph unicode="!" horiz-adv-x="501" d="M358 1393l-143 -1024h-31l144 1024h30zM115 25q3 15 14.5 25.5t26.5 10.5t24 -10.5t6 -25.5q-1 -15 -13.5 -25t-27.5 -10t-23.5 10t-6.5 25z" />
<glyph unicode="&#x22;" horiz-adv-x="604" d="M287 1393l-66 -471h-31l66 471h31zM532 1393l-65 -471h-31l66 471h30z" />
<glyph unicode="#" horiz-adv-x="1280" d="M133 0h-31l179 420h-285l4 31h293l205 481h-297l6 31h307l182 430h31l-184 -430h422l182 430h31l-185 -430h279l-6 -31h-287l-205 -481h291l-4 -31h-301l-176 -420h-31l178 420h-422zM528 932l-204 -481h419l205 481h-420z" />
<glyph unicode="$" horiz-adv-x="1085" d="M420 -61l29 204q-164 0 -260.5 78t-131.5 199h31q18 -50 46.5 -91t72.5 -77.5t109.5 -57t146.5 -20.5q183 0 298.5 81.5t129.5 195.5q8 54 -13 94t-62.5 64.5t-97.5 42t-118.5 30.5t-125 26.5t-118.5 33t-97 46.5t-61 71.5t-12 103.5q16 121 128 203.5t290 82.5l33 226 h31l-33 -226q281 0 354 -256h-31q-38 105 -116.5 165.5t-220.5 60.5q-175 0 -282.5 -74.5t-121.5 -181.5q-8 -54 13 -94t62.5 -64.5t97.5 -42t118.5 -30.5t125 -26.5t118.5 -33t97 -46.5t61 -71.5t12 -103.5q-18 -129 -138 -218.5t-305 -89.5l-28 -204h-31z" />
<glyph unicode="%" horiz-adv-x="1454" d="M1270 1393l-1055 -1393h-39l1055 1393h39zM705 1085q-20 -142 -115.5 -234.5t-206.5 -92.5t-181 92.5t-50 234.5t115 235t206 93t181.5 -93t50.5 -235zM674 1085q18 126 -45.5 211.5t-159.5 85.5t-182.5 -85.5t-104.5 -211.5t45.5 -211.5t159.5 -85.5t182.5 85.5 t104.5 211.5zM1292 307q-21 -142 -116.5 -234.5t-206.5 -92.5t-181 92.5t-49 234.5q20 142 115.5 235t206.5 93t181 -93t50 -235zM1262 307q18 126 -45.5 211.5t-159.5 85.5t-182.5 -85.5t-104.5 -211.5t44.5 -211.5t158.5 -85.5t183.5 85.5t105.5 211.5z" />
<glyph unicode="&#x26;" horiz-adv-x="1198" d="M561 860q-41 82 -125 246t-125 246l6 41h768l-4 -31h-737q113 -225 344.5 -681t345.5 -681h-41l-80 164q-8 -9 -22 -24t-60.5 -54t-96 -68.5t-124.5 -54t-149 -24.5q-196 0 -306.5 118.5t-86.5 290.5q10 73 43 141t77 117.5t95 93t100 72t89 49t64 29.5zM465 -31 q69 0 139 23.5t120 56.5t91 66t61 57l21 23l-322 634q-9 -3 -24.5 -9t-61 -27.5t-87.5 -46.5t-95 -67t-93.5 -88t-73 -110t-42.5 -133q-22 -157 82 -268t285 -111z" />
<glyph unicode="'" horiz-adv-x="358" d="M287 1393l-66 -471h-31l66 471h31z" />
<glyph unicode="(" horiz-adv-x="716" d="M195 594q-16 -123 -8 -231t35 -200.5t62.5 -168.5t75 -134t72.5 -98t54 -60l22 -21l-25 -29q-16 14 -42.5 41t-91.5 119t-110 194t-71.5 262t-3.5 326q17 121 58.5 238.5t94 208.5t112.5 172.5t116 139t101.5 100t73.5 63.5l28 20l16 -29q-10 -7 -28 -20.5t-70 -60 t-101 -98.5t-111 -134t-111 -168.5t-90 -200.5t-58 -231z" />
<glyph unicode=")" horiz-adv-x="716" d="M481 594q16 123 8.5 231t-34 200.5t-62 168.5t-75 134t-72.5 98t-54 60l-22 21l25 29q16 -14 42.5 -41t91.5 -119t109.5 -194t71 -262t2.5 -326q-17 -121 -58 -238.5t-93.5 -208.5t-112 -172.5t-115.5 -139t-101.5 -100t-73.5 -63.5l-28 -20l-16 29q10 7 28 20.5t70 60 t100.5 98.5t111 134t111 168.5t89.5 200.5t57 231z" />
<glyph unicode="*" horiz-adv-x="686" d="M393 1106l-178 -225l-29 10l187 235h-236l4 31h246l33 236h31l-33 -236h246l-5 -31h-235l121 -235l-33 -10z" />
<glyph unicode="+" horiz-adv-x="931" d="M438 655l56 389h30l-55 -389h369l-4 -30h-369l-53 -389h-31l53 389h-368l4 30h368z" />
<glyph unicode="," horiz-adv-x="368" d="M55 35q2 15 13 26t26 11t25 -11t8 -26q-1 -6 -4.5 -15t-6.5 -14l-3 -6l-97 -164h-20l86 164q-10 0 -20 9t-7 26z" />
<glyph unicode="-" horiz-adv-x="870" d="M772 625h-706l4 30h706z" />
<glyph unicode="." horiz-adv-x="358" d="M76 0q-15 0 -24.5 10t-6.5 25q2 15 13 26t26 11t25 -11t8 -26q-3 -15 -14.5 -25t-26.5 -10z" />
<glyph unicode="/" horiz-adv-x="727" d="M-41 0l768 1393h31l-768 -1393h-31z" />
<glyph unicode="0" horiz-adv-x="1484" d="M1305 696q17 130 1 241t-60.5 201t-107.5 153t-140 97.5t-158 34.5q-102 0 -211.5 -54t-203.5 -147t-164.5 -231.5t-92.5 -294.5q-21 -156 10 -294t99 -231.5t162 -147.5t196 -54q101 0 210.5 54t203.5 147t164.5 232t91.5 294zM137 696q23 163 96 307.5t171.5 241.5 t214 153t225.5 56q109 0 208 -56t170 -153t103.5 -241.5t9.5 -307.5t-95.5 -307.5t-171 -241t-213.5 -152.5t-224 -56q-88 0 -170 35.5t-148.5 101t-113 159t-63 209.5t0.5 252z" />
<glyph unicode="1" horiz-adv-x="614" d="M266 0l183 1300q-4 -8 -12 -22t-35.5 -49t-59 -62t-82.5 -49t-106 -22l4 30q42 0 81 14.5t68.5 38.5t55.5 52.5t43.5 56.5t30 52t18.5 38l6 15h31l-195 -1393h-31z" />
<glyph unicode="2" horiz-adv-x="1177" d="M1059 1059q22 153 -76 258.5t-272 105.5q-362 0 -514 -307h-31q153 338 549 338q189 0 294 -113.5t81 -281.5q-11 -79 -51.5 -147t-100 -119.5t-133.5 -97.5t-154 -87.5t-161 -83.5t-155.5 -91.5t-134.5 -105.5t-101.5 -132t-53.5 -164h922l-4 -31h-953l4 31 q13 93 55 173t102.5 139t135 110.5t155.5 94t161 83.5t154 85t133 92.5t98.5 112.5t50.5 138z" />
<glyph unicode="3" horiz-adv-x="1167" d="M475 -31q191 0 333 121t167 299q25 179 -83 299.5t-298 120.5h-174l4 31l637 522h-809l4 31h850l-4 -31l-637 -522h133q206 0 321 -129t87 -322q-26 -193 -177.5 -321.5t-357.5 -128.5q-108 0 -193 28.5t-141 80.5t-89 119t-46 150h31q28 -158 137 -253t305 -95z" />
<glyph unicode="4" horiz-adv-x="1187" d="M829 0h-30l51 369h-819l4 30l641 994h37l-641 -994h782l61 441h31l-61 -441h205l-5 -30h-204z" />
<glyph unicode="5" horiz-adv-x="1157" d="M594 809h-328l185 584h634l-4 -31h-608l-166 -522h291q206 0 321 -129t87 -322q-26 -193 -177.5 -321.5t-357.5 -128.5q-205 0 -319 103t-140 275h31q28 -157 135.5 -252.5t296.5 -95.5q191 0 333 121t167 299q25 179 -83 299.5t-298 120.5z" />
<glyph unicode="6" horiz-adv-x="1208" d="M59 430q9 63 31 124t47.5 103.5t50 76t40.5 49.5l16 16l571 594h35l-551 -574h10q5 4 14.5 11t41.5 25t67 31.5t90.5 24.5t112.5 11q218 0 342.5 -142t95.5 -350t-194 -349.5t-383 -141.5q-217 0 -341.5 141.5t-95.5 349.5zM90 430q-18 -126 29 -232t147.5 -167.5 t233.5 -61.5q203 0 358.5 134t183.5 327q18 127 -28.5 232.5t-147.5 167t-235 61.5q-201 0 -357 -134t-184 -327z" />
<glyph unicode="7" horiz-adv-x="966" d="M209 0h-31l805 1362h-854l4 31h885l-6 -41z" />
<glyph unicode="8" horiz-adv-x="1259" d="M631 737q-219 0 -369.5 -114t-171.5 -273q-11 -74 13 -142.5t78 -121.5t142.5 -85t198.5 -32q217 0 367.5 113t173.5 268q10 76 -14.5 146t-78 123.5t-141.5 85.5t-198 32zM727 1423q-188 0 -320.5 -98.5t-150.5 -228.5q-9 -62 12.5 -120.5t69 -105t125 -74.5t172.5 -28 q187 0 319 99t152 229q9 62 -13.5 120.5t-69.5 104.5t-124.5 74t-171.5 28zM731 1454q102 0 185 -30t133.5 -80t73.5 -114.5t14 -133.5q-8 -54 -32 -102t-55.5 -81.5t-68.5 -61t-72 -44.5t-63.5 -28.5t-45.5 -16.5l-18 -4l-2 -10q3 0 20.5 -4.5t50 -17t68 -31t71 -50.5 t62 -71.5t39 -98t3.5 -125.5q-24 -170 -183.5 -290.5t-392.5 -120.5q-118 0 -212 33.5t-151 90.5t-82.5 131t-13.5 156q9 67 37.5 125.5t66.5 98t81.5 71.5t85.5 50.5t76.5 31t55.5 17.5l21 4l2 10q-6 2 -17 5t-41 15.5t-57 28.5t-58.5 44.5t-52.5 61t-31.5 81t-2.5 102.5 q20 145 161 251.5t345 106.5z" />
<glyph unicode="9" horiz-adv-x="1208" d="M1139 963q-9 -63 -32 -124t-48.5 -103.5t-50 -76t-40.5 -49.5l-16 -16l-569 -594h-35l551 573h-10q-5 -4 -14.5 -11t-41.5 -24.5t-67 -31t-90.5 -24.5t-112.5 -11q-218 0 -342.5 142t-95.5 350q14 102 65 193t127 156.5t175.5 103.5t207.5 38q217 0 342.5 -141.5 t96.5 -349.5zM1108 963q17 126 -30.5 231.5t-148 167t-233.5 61.5q-134 0 -252 -61.5t-194.5 -166.5t-93.5 -232q-18 -127 28.5 -232.5t147.5 -167t235 -61.5q201 0 357 134t184 327z" />
<glyph unicode=":" horiz-adv-x="358" d="M76 0q-15 0 -24.5 10t-6.5 25q2 15 13 26t26 11t25 -11t8 -26q-3 -15 -14.5 -25t-26.5 -10zM195 850q-15 0 -24 10t-7 25q3 15 14.5 26t26.5 11t24.5 -11t6.5 -26q-1 -15 -13.5 -25t-27.5 -10z" />
<glyph unicode=";" horiz-adv-x="368" d="M205 850q-15 0 -24 10t-7 25q3 15 14.5 26t26.5 11t24.5 -11t6.5 -26q-1 -15 -13.5 -25t-27.5 -10zM55 35q2 15 13 26t26 11t25 -11t8 -26q-1 -6 -4.5 -15t-6.5 -14l-3 -6l-97 -164h-20l86 164q-10 0 -20 9t-7 26z" />
<glyph unicode="&#x3c;" horiz-adv-x="931" d="M47 492l821 378l-4 -30l-788 -365v-8l686 -365l-6 -30l-715 379z" />
<glyph unicode="=" horiz-adv-x="911" d="M813 768h-707l5 31h706zM762 401h-707l4 29h707z" />
<glyph unicode="&#x3e;" horiz-adv-x="931" d="M100 870l715 -378l-6 -41l-821 -379l6 30l788 365v8l-686 365z" />
<glyph unicode="?" horiz-adv-x="1034" d="M598 1423q-173 0 -299 -86t-195 -221h-30q72 150 206 244t322 94q187 0 293.5 -109t85.5 -260q-12 -83 -45.5 -142.5t-78.5 -93.5t-98 -62t-106.5 -58.5t-99.5 -70.5t-81.5 -111t-49.5 -168h-31q14 102 50 176t82 116t99.5 73.5t106.5 58.5t98 59t78.5 88t44.5 135 q19 135 -80.5 236.5t-271.5 101.5zM358 0q-15 0 -25 10t-7 25q1 15 13.5 26t27.5 11t23.5 -11t6.5 -26q-3 -15 -13.5 -25t-25.5 -10z" />
<glyph unicode="@" horiz-adv-x="1710" d="M1051 338l16 123h-10q-4 -5 -11 -14t-31 -32t-50.5 -40.5t-67.5 -32t-84 -14.5q-124 0 -206.5 98.5t-65.5 228.5q19 130 129.5 229t234.5 99q43 0 80 -13.5t59.5 -33.5t38.5 -39.5t23 -32.5l6 -14h10l17 113h30l-84 -594q196 0 334.5 116.5t163.5 292.5q17 118 -20 228 t-117 193t-207.5 133t-282.5 50q-197 0 -373.5 -94.5t-294.5 -261.5t-147 -371q-21 -153 16 -288.5t119 -231.5t206 -151.5t272 -55.5q102 0 208 26t161 52l55 25l-4 -31q-8 -4 -22.5 -11t-61 -24.5t-94 -31t-116 -24.5t-132.5 -11q-205 0 -361.5 99t-230.5 272.5t-45 385.5 q30 211 153 385.5t307.5 273.5t389.5 99q161 0 293.5 -52.5t216 -140.5t122.5 -203t21 -239q-27 -194 -178.5 -317t-384.5 -123zM571 655q-15 -115 61.5 -206t184.5 -91q46 0 89.5 17.5t73 42t52.5 49t34 41.5l11 18l37 262q-2 7 -6.5 18t-21.5 39t-39 50t-61 39.5t-85 17.5 q-108 0 -210.5 -91t-119.5 -206z" />
<glyph unicode="A" horiz-adv-x="1402" d="M1167 0l-43 410h-938l-155 -410h-31l532 1393h523l143 -1393h-31zM553 1362l-354 -922h921l-94 922h-473z" />
<glyph unicode="B" horiz-adv-x="1413" d="M307 1393h563q166 0 254.5 -93.5t69.5 -234.5q-9 -63 -38 -117t-64 -85.5t-68 -54t-56 -31.5l-22 -9v-4q8 -1 21 -3t49.5 -12.5t69 -26t71 -46t64 -69t38.5 -98t3 -130.5q-24 -158 -160 -268.5t-324 -110.5h-665zM147 31h635q173 0 300.5 103t148.5 245 q21 149 -77.5 253.5t-272.5 104.5h-635zM866 1362h-532l-84 -594h532q150 0 256 85.5t125 211.5q18 126 -64 211.5t-233 85.5z" />
<glyph unicode="C" horiz-adv-x="1556" d="M702 -61q-131 0 -250 61.5t-202.5 163t-124 242t-19.5 290.5t101 291t192 242.5t248.5 163t267.5 61.5q120 0 219.5 -34.5t164.5 -92.5t105 -127t54 -145h-31q-14 68 -53 131.5t-101 117.5t-156 86.5t-206 32.5q-123 0 -253.5 -59.5t-238 -157.5t-185 -233t-97.5 -277 q-19 -142 20.5 -277t119 -233t193.5 -157.5t237 -59.5q97 0 186 22t160 60t133 91t107.5 111.5t80.5 125.5h31q-46 -92 -111 -169t-151.5 -139t-199.5 -97t-241 -35z" />
<glyph unicode="D" horiz-adv-x="1423" d="M1274 696q27 193 -37 344.5t-208.5 236.5t-346.5 85h-348l-187 -1331h349q306 0 522 186t256 479zM1305 696q-43 -309 -267.5 -502.5t-545.5 -193.5h-379l194 1393h379q212 0 363 -88.5t217.5 -247t38.5 -361.5z" />
<glyph unicode="E" horiz-adv-x="1228" d="M147 31h902l-5 -31h-931l194 1393h932l-4 -31h-901l-90 -635h717l-5 -31h-716z" />
<glyph unicode="F" horiz-adv-x="1167" d="M233 655l-90 -655h-30l194 1393h891l-4 -31h-860l-94 -676h696l-6 -31h-697z" />
<glyph unicode="G" horiz-adv-x="1587" d="M707 -31q174 0 329.5 83.5t260 232t130.5 329.5h-512l5 31h542q-29 -206 -139 -368t-273 -250t-348 -88q-131 0 -250 61.5t-202.5 163t-124 242t-19.5 290.5t101 291t192 242.5t248.5 163t267.5 61.5q120 0 219.5 -34.5t164.5 -92.5t105 -127t54 -145h-31 q-14 68 -53 131.5t-101 117.5t-156 86.5t-206 32.5q-123 0 -253.5 -59.5t-238 -157.5t-185 -233t-97.5 -277q-19 -142 20.5 -277t119 -233t193.5 -157.5t237 -59.5z" />
<glyph unicode="H" horiz-adv-x="1423" d="M113 0l194 1393h31l-94 -666h932l94 666h30l-194 -1393h-31l96 696h-931l-97 -696h-30z" />
<glyph unicode="I" horiz-adv-x="460" d="M338 1393l-195 -1393h-30l194 1393h31z" />
<glyph unicode="J" horiz-adv-x="1064" d="M942 1393l-135 -963q-33 -233 -168.5 -362t-331.5 -129q-146 0 -230.5 76t-109.5 200h31q27 -109 105 -177.5t208 -68.5q181 0 308 121.5t157 339.5l135 963h31z" />
<glyph unicode="K" horiz-adv-x="1228" d="M606 829l-397 -358l-66 -471h-30l194 1393h31l-123 -881l983 881h41l-608 -543l434 -850h-41z" />
<glyph unicode="L" horiz-adv-x="1146" d="M338 1393l-191 -1362h861l-4 -31h-891l194 1393h31z" />
<glyph unicode="M" horiz-adv-x="1761" d="M860 584l-528 768l-189 -1352h-30l194 1393h41l516 -768l733 768h41l-194 -1393h-31l189 1352z" />
<glyph unicode="N" horiz-adv-x="1464" d="M348 1393l772 -1352l191 1352h30l-194 -1393h-41l-774 1352l-189 -1352h-30l194 1393h41z" />
<glyph unicode="O" horiz-adv-x="1669" d="M106 696q21 150 101.5 291t194 242.5t254 163t278.5 61.5t262 -61.5t208.5 -163.5t125.5 -242.5t20 -290.5q-17 -120 -72 -235.5t-137 -208.5t-182 -164t-213.5 -110t-224.5 -39q-138 0 -261 61t-208 163t-126 242.5t-20 290.5zM137 696q-19 -142 20.5 -277t121 -233 t199 -157.5t247.5 -59.5t265.5 59.5t245 157.5t187.5 233t97 277q20 142 -19.5 277t-121.5 233t-200.5 157.5t-248.5 59.5t-264.5 -59.5t-243.5 -157.5t-187 -233t-98 -277z" />
<glyph unicode="P" horiz-adv-x="1372" d="M1266 922q27 187 -90.5 313.5t-329.5 126.5h-512l-123 -881h512q212 0 364 126.5t179 314.5zM1296 922q-30 -203 -191 -337t-388 -134h-512l-62 -451h-30l194 1393h543q227 0 350.5 -134.5t95.5 -336.5z" />
<glyph unicode="Q" horiz-adv-x="1669" d="M106 696q21 150 101.5 291t194 242.5t254 163t278.5 61.5t262 -61.5t208.5 -163.5t125.5 -242.5t20 -290.5q-13 -95 -50 -185.5t-80 -152t-84.5 -110t-69.5 -71.5l-27 -23l195 -226l-25 -20l-192 225q-9 -8 -25 -21t-68 -46.5t-106.5 -59t-136 -46.5t-160.5 -21 q-138 0 -261 61t-208 163t-126 242.5t-20 290.5zM137 696q-19 -142 20.5 -277t121 -233t199 -157.5t247.5 -59.5q73 0 149 19t131.5 46.5t100.5 54.5t68 46l24 19l-141 163l24 21l140 -164q10 8 27.5 24t64 68.5t84.5 109t74.5 144t48.5 176.5q20 142 -19.5 277t-121.5 233 t-200.5 157.5t-248.5 59.5t-264.5 -59.5t-243.5 -157.5t-187 -233t-98 -277z" />
<glyph unicode="R" horiz-adv-x="1392" d="M872 532h-655l-74 -532h-30l194 1393h584q212 0 324.5 -121t87.5 -309q-10 -71 -37.5 -132.5t-63 -103t-76.5 -75.5t-80 -53.5t-70.5 -33t-51.5 -17.5l-19 -5l232 -543h-41zM221 563h553q196 0 334.5 114t163.5 286q24 172 -82.5 285.5t-302.5 113.5h-553z" />
<glyph unicode="S" horiz-adv-x="1259" d="M1051 338q11 75 -12.5 132.5t-72 94t-114 64.5t-139 49.5t-146.5 43t-138 51.5t-113 69t-71 101t-12 142q21 152 161 260.5t341 108.5q394 0 455 -338h-31q-65 307 -428 307q-185 0 -316 -101t-151 -237q-11 -75 12.5 -132.5t72 -94t113.5 -64.5t138.5 -49.5l147 -43 t138.5 -51.5t112.5 -69t70.5 -101t12 -142q-23 -160 -178.5 -279.5t-370.5 -119.5q-225 0 -343.5 102t-145.5 276h31q14 -76 46 -137t86.5 -109.5t138.5 -75t192 -26.5q133 0 248 54t183.5 138t82.5 177z" />
<glyph unicode="T" horiz-adv-x="1177" d="M662 1362h-533l4 31h1096l-4 -31h-533l-190 -1362h-31z" />
<glyph unicode="U" horiz-adv-x="1464" d="M623 -31q214 0 371 144t190 379l127 901h30l-127 -901q-35 -251 -200.5 -402t-395.5 -151q-228 0 -350.5 151t-87.5 402l127 901h31l-127 -901q-33 -235 83 -379t329 -144z" />
<glyph unicode="V" horiz-adv-x="1402" d="M840 31l522 1362h31l-533 -1393h-522l-143 1393h30l142 -1362h473z" />
<glyph unicode="W" horiz-adv-x="1873" d="M461 31l512 1362h112l132 -1362h104l512 1362h31l-523 -1393h-153l-131 1362h-64l-512 -1362h-153l-133 1393h30l131 -1362h105z" />
<glyph unicode="X" horiz-adv-x="1280" d="M1198 1393h41l-584 -656l441 -737h-41l-416 696h-10l-609 -696h-40l645 737l-400 656h41l375 -615h10z" />
<glyph unicode="Y" horiz-adv-x="1300" d="M1331 1393l-702 -922l-66 -471h-31l66 471l-444 922h41l419 -881h11l665 881h41z" />
<glyph unicode="Z" horiz-adv-x="1198" d="M-20 0l4 41l1190 1321h-963l4 31h993l-6 -41l-1188 -1321h1004l-4 -31h-1034z" />
<glyph unicode="[" horiz-adv-x="655" d="M694 1444h-348l-240 -1700h349l-4 -31h-379l247 1762h379z" />
<glyph unicode="\" horiz-adv-x="727" d="M184 1393l379 -1393h-31l-378 1393h30z" />
<glyph unicode="]" horiz-adv-x="655" d="M510 1444h-348l4 31h379l-248 -1762h-379l4 31h348z" />
<glyph unicode="^" horiz-adv-x="808" d="M512 1393l221 -615h-31l-206 574h-11l-366 -574h-31l393 615h31z" />
<glyph unicode="_" horiz-adv-x="706" d="M557 -328h-704l4 31h704z" />
<glyph unicode="`" horiz-adv-x="440" d="M174 1393l275 -164l-15 -21l-284 154z" />
<glyph unicode="a" d="M819 0l27 195h-10q-6 -10 -18 -25.5t-51.5 -56.5t-82.5 -72t-108.5 -56.5t-131.5 -25.5q-84 0 -158.5 38.5t-126.5 104.5t-76 160t-9 199q20 139 100 256t190 181.5t222 64.5q66 0 123.5 -24.5t92.5 -59t60.5 -69t35.5 -58.5l11 -25h11l28 195h31l-129 -922h-31zM856 266 l53 389q-3 11 -10.5 30t-35 66.5t-61.5 84t-93.5 66.5t-128.5 30q-102 0 -205 -61.5t-178 -171t-93 -238.5t26.5 -238.5t130.5 -171t188 -61.5q69 0 136 28.5t114 69t84 81t55 69.5z" />
<glyph unicode="b" horiz-adv-x="1126" d="M129 195l-27 -195h-30l194 1393h31l-94 -666h10q6 10 18 25.5t52 56.5t83 72t108.5 56.5t131.5 25.5q84 0 158.5 -38.5t126 -104.5t75.5 -160t9 -199t-65.5 -199t-120.5 -160t-155 -104.5t-169 -38.5q-66 0 -124 24.5t-93.5 59t-61.5 69t-36 58.5l-11 25h-10zM193 655 l-54 -389q2 -6 5.5 -16t17 -38.5t30 -54.5t44.5 -58t60 -55t77.5 -38.5t95.5 -15.5q102 0 204.5 61.5t177.5 171t93 238.5t-26.5 238.5t-130 171t-187.5 61.5q-69 0 -136 -28.5t-114 -69t-84 -81.5t-55 -69z" />
<glyph unicode="c" horiz-adv-x="1075" d="M444 -41q-84 0 -158.5 38.5t-126.5 104.5t-76 160t-9 199q20 139 100 256t190 181.5t222 64.5q158 0 245.5 -73t106.5 -183h-31q-21 95 -102.5 160t-224.5 65q-102 0 -205 -61.5t-178 -171t-93 -238.5t26.5 -238.5t130.5 -171t188 -61.5q151 0 268.5 82t156.5 184h31 q-42 -117 -168.5 -207t-292.5 -90z" />
<glyph unicode="d" horiz-adv-x="1126" d="M819 0l27 195h-10q-6 -10 -18 -25.5t-51.5 -56.5t-82.5 -72t-108.5 -56.5t-131.5 -25.5q-84 0 -158.5 38.5t-126.5 104.5t-76 160t-9 199q20 139 100 256t190 181.5t222 64.5q66 0 123.5 -24.5t92.5 -59t60.5 -69t35.5 -58.5l11 -25h11l94 666h30l-194 -1393h-31z M856 266l53 389q-3 11 -10.5 30t-35 66.5t-61.5 84t-93.5 66.5t-128.5 30q-102 0 -205 -61.5t-178 -171t-93 -238.5t26.5 -238.5t130.5 -171t188 -61.5q69 0 136 28.5t114 69t84 81t55 69.5z" />
<glyph unicode="e" horiz-adv-x="1085" d="M575 963q83 0 158 -38.5t127 -103.5t76 -157t10 -193l-35 -31h-809q-13 -90 11 -174t73 -144t120 -96t149 -36q147 0 263.5 82t155.5 184h31q-42 -117 -167 -207t-287 -90q-86 0 -162 38.5t-128.5 104.5t-77 160t-9.5 199q20 139 99 256t187 181.5t215 64.5zM569 932 q-97 0 -197.5 -61t-174.5 -168.5t-91 -231.5h809q13 93 -10.5 179.5t-72 147.5t-118 97.5t-145.5 36.5z" />
<glyph unicode="f" horiz-adv-x="542" d="M61 881l5 30h163l37 256q15 114 86 180t172 66q41 0 78.5 -10.5t54.5 -20.5l17 -10l-4 -31q-7 5 -19 11.5t-51 18t-80 11.5q-86 0 -148 -58.5t-75 -156.5l-37 -256h287l-4 -30h-287l-123 -881h-31l123 881h-164z" />
<glyph unicode="g" d="M819 10l33 226h-10q-6 -10 -18 -25.5t-51.5 -56.5t-82 -72t-108 -56.5t-131.5 -25.5q-112 0 -204.5 64t-140 176t-28.5 241q14 97 63.5 187t119.5 154t156 102.5t169 38.5q66 0 123.5 -24.5t92.5 -59t60.5 -69t35.5 -58.5l11 -25h11l28 195h31l-129 -912 q-26 -188 -159.5 -314t-291.5 -126q-150 0 -236.5 74t-105.5 182h31q21 -95 100 -160t215 -65q92 0 181.5 51.5t154 146.5t80.5 211zM862 307l47 348q-3 11 -10.5 30t-35 66.5t-61.5 84t-93.5 66.5t-128.5 30q-102 0 -204 -59.5t-176 -165t-91 -226.5q-18 -122 27 -227 t131 -164t188 -59q69 0 136 28.5t114 69t84 81t55 68.5z" />
<glyph unicode="h" d="M936 553l-76 -553h-31l76 553q25 167 -62.5 273t-242.5 106q-69 0 -136 -28.5t-114 -69t-84 -81.5t-55 -69l-18 -29l-91 -655h-30l194 1393h31l-94 -666h10q6 10 18 25.5t52 56.5t83 72t108.5 56.5t131.5 25.5q170 0 263 -113.5t67 -296.5z" />
<glyph unicode="i" horiz-adv-x="399" d="M82 0l129 922h31l-129 -922h-31zM287 1341q15 0 22.5 -10t5.5 -26q-1 -15 -12.5 -25t-26.5 -10t-24 10t-8 25t14.5 25.5t28.5 10.5z" />
<glyph unicode="j" horiz-adv-x="399" d="M242 922l-156 -1106q-17 -114 -87.5 -180t-170.5 -66q-41 0 -77.5 10t-52.5 20l-17 11l4 31q6 -5 18 -11.5t50 -18t79 -11.5q85 0 147.5 58.5t75.5 156.5l156 1106h31zM287 1341q15 0 22.5 -10t5.5 -26q-1 -15 -12.5 -25t-26.5 -10t-24 10t-8 25t14.5 25.5t28.5 10.5z " />
<glyph unicode="k" horiz-adv-x="952" d="M139 276l-37 -276h-30l194 1393h31l-152 -1076l691 605h41l-398 -349l330 -573h-41l-313 553z" />
<glyph unicode="l" horiz-adv-x="409" d="M102 0l191 1362h-184l4 31h215l-195 -1393h-31z" />
<glyph unicode="m" horiz-adv-x="1617" d="M696 0l80 573q23 165 -47.5 262t-200.5 97q-46 0 -90 -16t-77.5 -41t-63 -56t-50 -61.5t-36 -55.5t-22.5 -41l-7 -16l-90 -645h-31l129 922h31l-28 -195h10q5 10 14 25.5t41 56.5t67.5 72t92.5 56.5t117 25.5q54 0 98.5 -14t71.5 -36.5t47.5 -50t30 -55t15 -50t6.5 -36.5 l1 -14h10q4 10 11.5 27.5t37 61.5t66 78t101 61.5t138.5 27.5q148 0 223.5 -104t49.5 -286l-80 -573h-31l80 573q23 166 -46 262.5t-202 96.5q-134 0 -233.5 -97t-122.5 -262l-80 -573h-31z" />
<glyph unicode="n" horiz-adv-x="1105" d="M926 553l-76 -553h-31l76 553q25 167 -62.5 273t-242.5 106q-69 0 -136.5 -28.5t-114 -69t-84 -81.5t-55.5 -69l-18 -29l-90 -655h-31l129 922h31l-28 -195h10q6 10 18 25.5t52 56.5t83 72t108.5 56.5t131.5 25.5q170 0 263 -113.5t67 -296.5z" />
<glyph unicode="o" horiz-adv-x="1157" d="M1006 461q-20 -140 -100 -256t-195.5 -181t-239.5 -65q-192 0 -309.5 145t-87.5 357q20 140 100.5 256t196.5 181t241 65q190 0 307 -145t87 -357zM975 461q14 97 -10 185t-74.5 150.5t-125 99t-159.5 36.5q-115 0 -223.5 -61.5t-184.5 -170.5t-94 -239q-14 -97 10 -185 t75 -150.5t125.5 -99t160.5 -36.5q114 0 222 61.5t184 170.5t94 239z" />
<glyph unicode="p" d="M221 922l-28 -195h10q6 10 18 25.5t52 56.5t83 72t108.5 56.5t131.5 25.5q84 0 158.5 -38.5t126 -104.5t75.5 -160t9 -199t-65.5 -199t-120.5 -160t-155 -104.5t-169 -38.5q-66 0 -124 24.5t-93.5 59t-61.5 69t-36 58.5l-11 25h-10l-86 -605h-31l188 1332h31zM182 655 l-53 -389q2 -6 5.5 -16t17 -38.5t30 -54.5t44.5 -58t60 -55t77.5 -38.5t95.5 -15.5q102 0 204.5 61.5t177.5 171t93 238.5t-26.5 238.5t-130 171t-187.5 61.5q-69 0 -136.5 -28.5t-114 -69t-84 -81.5t-55.5 -69z" />
<glyph unicode="q" d="M920 727l28 195h31l-188 -1332h-31l86 605h-10q-6 -10 -18 -25.5t-51.5 -56.5t-82.5 -72t-108.5 -56.5t-131.5 -25.5q-84 0 -158.5 38.5t-126.5 104.5t-76 160t-9 199q20 139 100 256t190 181.5t222 64.5q66 0 123.5 -24.5t92.5 -59t60.5 -69t35.5 -58.5l11 -25h11z M856 266l53 389q-3 11 -10.5 30t-35 66.5t-61.5 84t-93.5 66.5t-128.5 30q-102 0 -205 -61.5t-178 -171t-93 -238.5t26.5 -238.5t130.5 -171t188 -61.5q69 0 136 28.5t114 69t84 81t55 69.5z" />
<glyph unicode="r" horiz-adv-x="604" d="M616 963l-6 -31h-30q-69 0 -135.5 -28.5t-111.5 -69t-81 -81.5t-53 -69l-17 -29l-90 -655h-31l129 922h31l-28 -195h10q6 10 17.5 25.5t49.5 56.5t79.5 72t106 56.5t130.5 25.5h30z" />
<glyph unicode="s" horiz-adv-x="952" d="M150 707q14 105 116.5 180.5t257.5 75.5q136 0 211 -60.5t96 -154.5h-30q-25 79 -94 131.5t-189 52.5q-139 0 -232 -67.5t-106 -157.5q-10 -68 20.5 -113.5t86.5 -67.5t125 -36.5l138 -29t124.5 -37.5t85.5 -70t20 -117q-18 -122 -124 -199.5t-283 -77.5q-159 0 -252 80 t-109 197h31q19 -102 104.5 -174t229.5 -72q162 0 260.5 70.5t112.5 175.5q9 64 -22 106t-87 62t-125 33.5t-138 29.5t-124 40.5t-84.5 74.5t-19.5 125z" />
<glyph unicode="t" horiz-adv-x="645" d="M61 881l5 30h163l39 277h31l-39 -277h287l-4 -30h-287l-94 -676q-15 -98 31.5 -156.5t132.5 -58.5q41 0 80.5 10t59.5 20l19 11l-4 -31q-67 -41 -159 -41q-101 0 -154.5 66t-36.5 180l94 676h-164z" />
<glyph unicode="u" d="M113 369l77 553h31l-78 -553q-24 -167 63.5 -273t242.5 -106q69 0 136 28.5t114 69t84 81t55 69.5l18 28l92 656h31l-129 -922h-31l27 195h-10q-6 -10 -18 -25.5t-51.5 -56.5t-82.5 -72t-108.5 -56.5t-131.5 -25.5q-170 0 -263.5 113.5t-67.5 296.5z" />
<glyph unicode="v" horiz-adv-x="1013" d="M195 0l-76 922h31l73 -891h371l324 891h30l-334 -922h-419z" />
<glyph unicode="w" horiz-adv-x="1392" d="M745 891h-53l-334 -891h-143l-86 922h31l84 -891h94l334 891h102l84 -891h94l334 891h31l-344 -922h-144z" />
<glyph unicode="x" horiz-adv-x="931" d="M717 0l-287 440h-10l-410 -440h-41l447 481l-287 441h41l260 -400h10l375 400h41l-410 -441l312 -481h-41z" />
<glyph unicode="y" horiz-adv-x="1013" d="M907 922h31l-385 -1065q-106 -287 -297 -287q-39 0 -76 10t-54 20l-17 11l4 31q7 -5 19 -11.5t50.5 -18t77.5 -11.5q79 0 148.5 64.5t113.5 191.5l51 143h-368l-76 922h31l73 -891h351z" />
<glyph unicode="z" horiz-adv-x="890" d="M829 881l-835 -850h737l-4 -31h-768l4 41l838 850h-697l5 31h727z" />
<glyph unicode="{" horiz-adv-x="614" d="M207 604l-2 -10q2 0 5 -1t12.5 -4.5t16.5 -9t17.5 -16t14.5 -26t7.5 -37t-2.5 -49.5q-8 -62 -93.5 -272t-94.5 -271q-8 -62 33.5 -108t109.5 -46h164l-4 -30h-164q-84 0 -132.5 53.5t-37.5 130.5q9 61 95 271t94 272q9 62 -21.5 97.5t-91.5 35.5h-51l4 30h51q61 0 102 36 t50 98q8 61 -18.5 270.5t-18.5 271.5q11 77 74 131t147 54h164l-4 -31h-164q-68 0 -122.5 -46t-63.5 -108q-8 -62 18 -271t18 -271q-5 -37 -18.5 -65.5t-29 -43t-30 -23t-24.5 -10.5z" />
<glyph unicode="|" horiz-adv-x="481" d="M369 1536l-246 -1741h-31l246 1741h31z" />
<glyph unicode="}" horiz-adv-x="614" d="M369 594l2 10q-4 0 -10 2t-20.5 11t-24.5 23t-16 42.5t-1 65.5q8 61 94 270.5t94 271.5q9 62 -32 108t-109 46h-164l4 31h164q84 0 131.5 -53.5t36.5 -131.5q-8 -62 -94 -271.5t-94 -270.5q-9 -62 22 -98t92 -36h52l-4 -30h-52q-62 0 -103 -36t-50 -97q-8 -61 19 -271 t18 -272q-11 -77 -73.5 -130.5t-146.5 -53.5h-163l4 30h164q68 0 122 46t62 108q9 62 -18 272t-19 271q6 37 19.5 65.5t29 42.5t30.5 22.5t25 10.5z" />
<glyph unicode="~" horiz-adv-x="808" d="M242 707q-40 0 -85.5 -45.5t-70.5 -118.5l-29 20q26 76 80 125t109 49q39 0 73 -17t58 -41t47.5 -48t53 -41t63.5 -17q40 0 85 45t70 119l29 -20q-26 -76 -79.5 -125t-108.5 -49q-39 0 -73 17t-58 41t-47.5 48t-53 41t-63.5 17z" />
<glyph unicode="&#xa1;" horiz-adv-x="501" d="M74 -410l135 963h31l-136 -963h-30zM309 897q-2 -15 -13 -26t-26 -11t-24.5 11t-7.5 26q1 15 13.5 25t27.5 10t23.5 -10t6.5 -25z" />
<glyph unicode="&#xa2;" horiz-adv-x="1075" d="M631 1147l-25 -184q147 -6 230 -78t102 -178h-31q-21 95 -102.5 160t-224.5 65q-102 0 -205 -61.5t-178 -171t-93 -238.5t26.5 -238.5t130.5 -171t188 -61.5q151 0 268.5 82t156.5 184h31q-40 -113 -161 -202t-279 -95l-27 -184h-30l26 184q-82 2 -154.5 41.5t-123 105 t-73.5 159t-9 196.5q20 137 97.5 252.5t185 181t218.5 68.5l25 184h31z" />
<glyph unicode="&#xa3;" horiz-adv-x="972" d="M289 246q-6 -43 -20.5 -80t-32 -59t-34 -38t-27.5 -22l-11 -6v-10h690l-4 -31h-911l4 31h92q86 0 148 58.5t75 156.5l72 502h-158l4 30h158l53 379q17 120 91 188t179 68q36 0 71 -10.5t52 -20.5l17 -10l-4 -31q-58 41 -140 41q-93 0 -156.5 -59.5t-78.5 -165.5l-53 -379 h286l-4 -30h-287z" />
<glyph unicode="&#xa4;" horiz-adv-x="1269" d="M348 1393h410q227 0 346.5 -129.5t89.5 -331.5q-28 -202 -183 -331.5t-382 -129.5h-379l-31 -215h553l-4 -31h-553l-31 -225h-30l30 225h-174l4 31h174l31 215h-174l4 31h174zM754 1362h-379l-121 -860h379q212 0 358.5 121.5t171.5 308.5q27 187 -85 308.5t-324 121.5z " />
<glyph unicode="&#xa5;" horiz-adv-x="1228" d="M944 461h-348l-31 -215h348l-4 -31h-348l-29 -215h-30l28 215h-348l4 31h349l30 215h-348l4 31h336l-403 901h41l389 -881h10l625 881h41l-648 -901h336z" />
<glyph unicode="&#xa6;" horiz-adv-x="481" d="M369 1536l-105 -737h-31l105 737h31zM227 532l-104 -737h-31l105 737h30z" />
<glyph unicode="&#xa7;" horiz-adv-x="972" d="M813 696q7 46 -5.5 84t-37 62t-56.5 42.5t-65 28t-60.5 15t-44.5 6.5l-18 2q-6 -1 -17.5 -2t-44 -8t-62.5 -16.5t-67.5 -28.5t-66 -43t-51.5 -61t-29 -81q-6 -46 6.5 -84t37.5 -62.5t57 -43.5t65.5 -28.5t61.5 -15.5t46 -8l17 -1q6 1 17 2.5t43.5 8.5t62.5 17t67 29.5 t65.5 43.5t50.5 61t28 81zM248 1188q16 113 119.5 189.5t265.5 76.5q127 0 206.5 -64t102.5 -151h-31q-24 77 -96 130.5t-186 53.5q-147 0 -242 -69t-108 -166q-9 -62 20.5 -103.5t82.5 -62.5t118 -36.5t130 -34t117.5 -45.5t80 -80t16.5 -130q-8 -60 -43 -108.5t-79.5 -75 t-87.5 -44t-72 -22.5l-30 -6l-2 -10q6 -1 15.5 -2.5t37.5 -8.5t53 -16.5t54.5 -27.5t49 -40t31 -56t5.5 -74q-16 -114 -123.5 -190t-283.5 -76q-151 0 -246.5 83t-114.5 193h31q21 -103 106 -174.5t228 -71.5q160 0 259 68.5t113 167.5q9 62 -21.5 103.5t-85.5 62.5 t-122.5 36.5t-135 33.5t-121.5 45t-83 80t-18 130q6 45 27 83.5t49 64t60.5 45.5t63.5 31.5t56.5 18.5t41.5 10l15 3l2 11q-10 1 -27 4.5t-59 19t-72.5 38t-52.5 65.5t-14 98z" />
<glyph unicode="&#xa8;" horiz-adv-x="501" d="M188 1393q15 0 25 -11t8 -26q-3 -15 -15.5 -25t-27.5 -10t-23 10t-5 25q2 15 12.5 26t25.5 11zM496 1393q15 0 24.5 -11t7.5 -26q-3 -15 -15.5 -25t-27.5 -10t-23 10t-5 25q2 15 13 26t26 11z" />
<glyph unicode="&#xa9;" horiz-adv-x="1853" d="M862 246q-131 0 -210.5 95t-59.5 232t125 232.5t233 95.5q104 0 167.5 -55.5t76.5 -138.5h-31q-32 163 -217 163q-113 0 -209.5 -87.5t-113.5 -209.5t55 -209.5t188 -87.5q196 0 273 185h30q-37 -97 -116.5 -156t-190.5 -59zM1729 573q-24 -173 -111.5 -329t-214 -267.5 t-288 -177t-329.5 -65.5q-169 0 -312 65.5t-237.5 177t-137.5 267.5t-19 329q32 231 169.5 424.5t342.5 304.5t430 111q224 0 398 -111t257.5 -304.5t51.5 -424.5zM1698 573q23 166 -19 316t-134 258t-229.5 171.5t-297.5 63.5q-215 0 -412.5 -107.5t-330.5 -294 t-164 -407.5q-23 -166 19 -316t133.5 -258t229 -171.5t298.5 -63.5q160 0 315.5 63.5t277.5 171.5t206.5 258t107.5 316z" />
<glyph unicode="&#xaa;" horiz-adv-x="665" d="M301 768q46 0 91.5 17t78 41t58 48t38.5 41l13 17l22 153h-205q-118 0 -183 -45t-75 -118q-9 -64 35.5 -109t126.5 -45zM440 1393q110 0 163.5 -71t33.5 -206l-49 -358h-31l16 123q-5 -6 -13.5 -15.5t-36.5 -34.5t-58 -44t-76 -34.5t-92 -15.5q-97 0 -148 53t-40 132 q11 89 85 141.5t207 52.5h205q17 120 -29 183t-141 63q-80 0 -134 -37t-79 -96h-30q26 74 89 119t158 45z" />
<glyph unicode="&#xab;" horiz-adv-x="778" d="M61 451l281 389h31l-283 -389l174 -390h-31zM379 451l280 389h31l-282 -389l174 -390h-31z" />
<glyph unicode="&#xac;" horiz-adv-x="829" d="M653 430l37 256h-614l4 31h645l-41 -287h-31z" />
<glyph unicode="&#xad;" horiz-adv-x="870" d="M772 625h-706l4 30h706z" />
<glyph unicode="&#xae;" horiz-adv-x="1853" d="M719 891h313q86 0 138.5 -58.5t41.5 -136.5q-6 -43 -28.5 -78.5t-51 -55.5t-56 -33.5t-46.5 -18.5l-18 -4l129 -250h-41l-119 246h-287l-35 -246h-30zM1028 860h-283l-47 -328h283q71 0 132 51t69 113q9 63 -37 113.5t-117 50.5zM1729 573q-24 -173 -111.5 -329 t-214 -267.5t-288 -177t-329.5 -65.5q-169 0 -312 65.5t-237.5 177t-137.5 267.5t-19 329q32 231 169.5 424.5t342.5 304.5t430 111q224 0 398 -111t257.5 -304.5t51.5 -424.5zM1698 573q23 166 -19 316t-134 258t-229.5 171.5t-297.5 63.5q-215 0 -412.5 -107.5 t-330.5 -294t-164 -407.5q-23 -166 19 -316t133.5 -258t229 -171.5t298.5 -63.5q160 0 315.5 63.5t277.5 171.5t206.5 258t107.5 316z" />
<glyph unicode="&#xaf;" horiz-adv-x="583" d="M150 1362l4 31h460l-4 -31h-460z" />
<glyph unicode="&#xb0;" horiz-adv-x="655" d="M139 1147q13 100 97 173t184 73t162.5 -73t48.5 -173q-13 -100 -97 -173t-184 -73t-162.5 73t-48.5 173zM170 1147q-12 -93 40 -154t144 -61q93 0 163.5 61.5t82.5 153.5q13 92 -39.5 153.5t-144.5 61.5t-162 -61.5t-84 -153.5z" />
<glyph unicode="&#xb1;" horiz-adv-x="931" d="M770 174h-768l6 31h369l59 432h-368l4 31h368l56 389h30l-55 -389h369l-4 -31h-369l-59 -432h368z" />
<glyph unicode="&#xb2;" horiz-adv-x="624" d="M578 1208q9 64 -37 109t-135 45q-87 0 -143 -37t-81 -96h-30q27 74 91.5 119t166.5 45q104 0 156.5 -52.5t41.5 -132.5q-9 -62 -59 -112.5t-116 -84.5t-132.5 -67.5t-116 -78t-57.5 -97.5h420l-4 -31h-451l4 31q7 46 35.5 85t69.5 67t89.5 54t97 50.5t89 50t68.5 60 t33 73.5z" />
<glyph unicode="&#xb3;" horiz-adv-x="604" d="M291 758q90 0 154 51.5t73 122.5q11 71 -39.5 122.5t-140.5 51.5h-82l6 31l293 225h-385l4 31h430l-4 -31l-291 -225h35q105 0 161 -59t44 -146q-11 -87 -85 -146t-179 -59q-89 0 -141.5 52t-57.5 132h31q6 -64 53 -108.5t121 -44.5z" />
<glyph unicode="&#xb4;" horiz-adv-x="440" d="M131 1229l320 164l16 -31l-330 -154z" />
<glyph unicode="&#xb5;" d="M2 -410l188 1332h31l-78 -553q-25 -175 59 -277t247 -102q69 0 136 28.5t114 69t84 81t55 69.5l18 28l92 656h31l-129 -922h-31l27 195h-10q-7 -10 -19.5 -25.5t-53.5 -56.5t-84 -72t-107.5 -56.5t-127.5 -25.5q-56 0 -104 12.5t-79.5 32.5t-57 43.5t-39 47.5t-22.5 44 t-12 33l-3 12h-10l-84 -594h-31z" />
<glyph unicode="&#xb6;" horiz-adv-x="655" d="M131 1085q18 125 127.5 216.5t253.5 91.5h215l-4 -31h-205l-250 -1772h-30l165 1178q-131 0 -211 93.5t-61 223.5z" />
<glyph unicode="&#xb7;" horiz-adv-x="317" d="M150 680q-15 0 -23.5 11t-5.5 26q1 15 12.5 25t26.5 10t24.5 -10t8.5 -25q-3 -15 -15.5 -26t-27.5 -11z" />
<glyph unicode="&#xb8;" horiz-adv-x="430" d="M143 0l-67 -113q69 0 113.5 -52.5t35.5 -121.5q-11 -69 -70 -121.5t-128 -52.5q-41 0 -72 15.5t-42 31.5l-11 15l22 20q4 -6 12 -14.5t35.5 -22.5t59.5 -14q58 0 106.5 42t57.5 101q8 59 -28 101.5t-95 42.5h-52l93 143h30z" />
<glyph unicode="&#xb9;" horiz-adv-x="337" d="M205 737l78 553q-3 -4 -8 -10t-22 -22t-36 -28t-49 -22t-62 -10l5 31q61 0 119 51t67 113h31l-92 -656h-31z" />
<glyph unicode="&#xba;" horiz-adv-x="727" d="M692 1065q-21 -143 -117 -235.5t-210 -92.5q-116 0 -186.5 93t-49.5 235q20 143 116 235.5t212 92.5q114 0 184.5 -93t50.5 -235zM662 1065q18 126 -46 211.5t-163 85.5q-100 0 -187.5 -85t-105.5 -212t45.5 -212t163.5 -85q99 0 187 85t106 212z" />
<glyph unicode="&#xbb;" horiz-adv-x="778" d="M465 840l170 -389l-279 -390h-30l278 390l-170 389h31zM147 840l170 -389l-278 -390h-31l279 390l-170 389h30z" />
<glyph unicode="&#xbc;" horiz-adv-x="1300" d="M1116 1393l-1055 -1393h-30l1054 1393h31zM246 737l78 553q-3 -4 -8 -10t-22 -22t-36 -28t-49 -22t-62 -10l5 31q61 0 119 51t67 113h31l-93 -656h-30zM1012 0h-31l25 174h-349l5 31l288 450h31l-289 -450h318l22 164h31l-23 -164h82l-4 -31h-82z" />
<glyph unicode="&#xbd;" horiz-adv-x="1351" d="M1137 1393l-1055 -1393h-31l1055 1393h31zM266 737l78 553l-7.5 -10t-21.5 -22t-36 -28t-49 -22t-62 -10l4 31q61 0 119 51t67 113h31l-92 -656h-31zM1180 471q9 64 -37 109t-135 45q-87 0 -143 -37t-81 -96h-30q26 74 91 118.5t167 44.5q104 0 156.5 -52.5t41.5 -131.5 q-9 -62 -59 -112.5t-116 -84.5t-132.5 -67.5t-116 -78t-57.5 -97.5h420l-4 -31h-451l4 31q7 46 35.5 85t69.5 67t89.5 54t97 50.5t89 50t68.5 60t33 73.5z" />
<glyph unicode="&#xbe;" horiz-adv-x="1392" d="M1219 1393l-1055 -1393h-31l1055 1393h31zM1104 0h-31l25 174h-348l4 31l288 450h31l-289 -450h318l22 164h31l-22 -164h81l-4 -31h-82zM311 758q90 0 154.5 51.5t73.5 122.5q11 71 -40 122.5t-141 51.5h-82l7 31l292 225h-385l5 31h430l-4 -31l-291 -225h35 q105 0 160.5 -59t43.5 -146q-11 -87 -85 -146t-179 -59q-89 0 -141.5 52t-57.5 132h31q6 -64 53 -108.5t121 -44.5z" />
<glyph unicode="&#xbf;" horiz-adv-x="1034" d="M369 -430q173 0 298.5 86t194.5 221h31q-72 -150 -206 -244t-322 -94q-187 0 -293.5 109t-85.5 260q9 65 31.5 113.5t53 78t68.5 51t78 37.5t80.5 33t79 42.5t70 61t55.5 93.5t35 135h30q-13 -90 -42 -156t-66 -102t-82.5 -64t-90.5 -43t-90 -37.5t-81 -48.5t-62.5 -75.5 t-36.5 -118.5q-19 -135 81 -236.5t272 -101.5zM600 932q15 0 24.5 -10t8.5 -25t-13.5 -26t-27.5 -11t-24 11t-7 26q1 15 12.5 25t26.5 10z" />
<glyph unicode="&#xc0;" horiz-adv-x="1402" d="M1167 0l-43 410h-938l-155 -410h-31l532 1393h523l143 -1393h-31zM553 1362l-354 -922h921l-94 922h-473zM705 1823l274 -164l-14 -21l-285 154z" />
<glyph unicode="&#xc1;" horiz-adv-x="1402" d="M1167 0l-43 410h-938l-155 -410h-31l532 1393h523l143 -1393h-31zM553 1362l-354 -922h921l-94 922h-473zM723 1659l319 164l17 -31l-330 -154z" />
<glyph unicode="&#xc2;" horiz-adv-x="1402" d="M1167 0l-43 410h-938l-155 -410h-31l532 1393h523l143 -1393h-31zM553 1362l-354 -922h921l-94 922h-473zM840 1843h30l189 -266h-41l-168 235l-232 -235h-40z" />
<glyph unicode="&#xc3;" horiz-adv-x="1402" d="M1167 0l-43 410h-938l-155 -410h-31l532 1393h523l143 -1393h-31zM553 1362l-354 -922h921l-94 922h-473zM739 1772q-40 0 -70.5 -30.5t-37.5 -82.5l-6 -41h-31l6 41q10 68 49 105.5t94 37.5q28 0 51 -16t38.5 -38t30 -44.5t34 -38.5t41.5 -16q40 0 69.5 30t36.5 82l7 41 h30l-6 -41q-9 -67 -48.5 -105t-94.5 -38q-34 0 -61.5 24t-42.5 53t-38.5 53t-50.5 24z" />
<glyph unicode="&#xc4;" horiz-adv-x="1402" d="M1167 0l-43 410h-938l-155 -410h-31l532 1393h523l143 -1393h-31zM553 1362l-354 -922h921l-94 922h-473zM676 1737q15 0 25 -11t8 -26q-3 -15 -15.5 -25t-27.5 -10t-23.5 10t-5.5 25q2 15 13 26t26 11zM983 1737q15 0 25 -11t8 -26q-3 -15 -15.5 -25t-27.5 -10t-23.5 10 t-5.5 25q2 15 13 26t26 11z" />
<glyph unicode="&#xc5;" horiz-adv-x="1402" d="M1167 0l-43 410h-938l-155 -410h-31l532 1393h523l143 -1393h-31zM553 1362l-354 -922h921l-94 922h-473zM991 1761q9 65 -29 109.5t-102 44.5q-66 0 -116.5 -44.5t-59.5 -109.5q-9 -66 29 -109.5t104 -43.5q65 0 115 43.5t59 109.5zM653 1761q10 76 72 130.5t139 54.5 q76 0 122.5 -54t35.5 -131t-72 -130.5t-137 -53.5q-77 0 -123.5 54t-36.5 130z" />
<glyph unicode="&#xc6;" horiz-adv-x="1966" d="M942 399h-778l-154 -399h-30l532 1393h1464l-4 -31h-864l-90 -645h680l-4 -31h-680l-92 -655h864l-4 -31h-895zM535 1362l-361 -932h772l131 932h-542z" />
<glyph unicode="&#xc7;" horiz-adv-x="1556" d="M1405 379q-46 -92 -110.5 -168.5t-150 -138.5t-198 -97t-239.5 -36l-54 -93q69 0 114 -52.5t36 -121.5t-69.5 -121.5t-129.5 -52.5q-41 0 -72 15.5t-42 30.5l-11 16l25 20q4 -6 11 -14.5t34 -22.5t59 -14q59 0 108 42.5t56 100.5q8 59 -28 101.5t-95 42.5h-51l78 125 q-126 6 -240.5 69.5t-194 164t-117.5 238t-18 283.5q21 150 101 291t192 242.5t248.5 163t267.5 61.5q120 0 219.5 -34.5t164.5 -92.5t105 -127t54 -145h-31q-14 68 -53 131.5t-101 117.5t-156 86.5t-206 32.5q-123 0 -253.5 -59.5t-238 -157.5t-185 -233t-97.5 -277 q-19 -142 20.5 -277t119 -233t193.5 -157.5t237 -59.5q97 0 186 22t160 60t133 91t107.5 111.5t80.5 125.5h31z" />
<glyph unicode="&#xc8;" horiz-adv-x="1228" d="M147 31h902l-5 -31h-931l194 1393h932l-4 -31h-901l-90 -635h717l-5 -31h-716zM653 1823l275 -164l-15 -21l-284 154z" />
<glyph unicode="&#xc9;" horiz-adv-x="1228" d="M147 31h902l-5 -31h-931l194 1393h932l-4 -31h-901l-90 -635h717l-5 -31h-716zM682 1659l319 164l17 -31l-330 -154z" />
<glyph unicode="&#xca;" horiz-adv-x="1228" d="M147 31h902l-5 -31h-931l194 1393h932l-4 -31h-901l-90 -635h717l-5 -31h-716zM823 1864h31l188 -267h-41l-167 236l-232 -236h-41z" />
<glyph unicode="&#xcb;" horiz-adv-x="1228" d="M147 31h902l-5 -31h-931l194 1393h932l-4 -31h-901l-90 -635h717l-5 -31h-716zM668 1747q15 0 24.5 -11t7.5 -26q-3 -15 -15.5 -25t-27.5 -10t-23 10t-5 25q2 15 13 26t26 11zM975 1747q15 0 25 -11t8 -26q-3 -15 -15.5 -25t-27.5 -10t-23.5 10t-5.5 25q2 15 13 26t26 11 z" />
<glyph unicode="&#xcc;" horiz-adv-x="481" d="M348 1393l-194 -1393h-31l194 1393h31zM152 1802l274 -164l-14 -20l-285 154z" />
<glyph unicode="&#xcd;" horiz-adv-x="481" d="M348 1393l-194 -1393h-31l194 1393h31zM313 1659l320 164l16 -31l-330 -154z" />
<glyph unicode="&#xce;" horiz-adv-x="481" d="M348 1393l-194 -1393h-31l194 1393h31zM385 1884h31l188 -266h-41l-168 235l-231 -235h-41z" />
<glyph unicode="&#xcf;" horiz-adv-x="460" d="M338 1393l-195 -1393h-30l194 1393h31zM213 1720q15 0 25 -11t8 -26q-3 -15 -15.5 -24.5t-27.5 -9.5t-23.5 9.5t-5.5 24.5q2 15 13 26t26 11zM520 1720q15 0 25 -11t8 -26q-3 -15 -15.5 -24.5t-27.5 -9.5t-23.5 9.5t-5.5 24.5q2 15 13 26t26 11z" />
<glyph unicode="&#xd0;" horiz-adv-x="1464" d="M1346 696q-43 -309 -268 -502.5t-546 -193.5h-378l96 686h-184l4 31h184l94 676h379q212 0 363 -88.5t217.5 -247t38.5 -361.5zM1315 696q27 193 -37 344.5t-208.5 236.5t-346.5 85h-348l-90 -645h374l-4 -31h-374l-93 -655h349q306 0 522 186t256 479z" />
<glyph unicode="&#xd1;" horiz-adv-x="1464" d="M348 1393l772 -1352l191 1352h30l-194 -1393h-41l-774 1352l-189 -1352h-30l194 1393h41zM795 1812q-40 0 -71 -30t-38 -82l-6 -41h-31l6 41q10 68 49.5 105.5t94.5 37.5q34 0 61.5 -24t43 -52.5t39 -52.5t50.5 -24q40 0 70 30t37 82l6 41h31l-7 -41q-9 -67 -48.5 -105 t-94.5 -38q-34 0 -61.5 24t-42 52.5t-38 52.5t-50.5 24z" />
<glyph unicode="&#xd2;" horiz-adv-x="1669" d="M106 696q21 150 101.5 291t194 242.5t254 163t278.5 61.5t262 -61.5t208.5 -163.5t125.5 -242.5t20 -290.5q-17 -120 -72 -235.5t-137 -208.5t-182 -164t-213.5 -110t-224.5 -39q-138 0 -261 61t-208 163t-126 242.5t-20 290.5zM137 696q-19 -142 20.5 -277t121 -233 t199 -157.5t247.5 -59.5t265.5 59.5t245 157.5t187.5 233t97 277q20 142 -19.5 277t-121.5 233t-200.5 157.5t-248.5 59.5t-264.5 -59.5t-243.5 -157.5t-187 -233t-98 -277zM844 1864l274 -164l-14 -21l-285 154z" />
<glyph unicode="&#xd3;" horiz-adv-x="1669" d="M106 696q21 150 101.5 291t194 242.5t254 163t278.5 61.5t262 -61.5t208.5 -163.5t125.5 -242.5t20 -290.5q-17 -120 -72 -235.5t-137 -208.5t-182 -164t-213.5 -110t-224.5 -39q-138 0 -261 61t-208 163t-126 242.5t-20 290.5zM137 696q-19 -142 20.5 -277t121 -233 t199 -157.5t247.5 -59.5t265.5 59.5t245 157.5t187.5 233t97 277q20 142 -19.5 277t-121.5 233t-200.5 157.5t-248.5 59.5t-264.5 -59.5t-243.5 -157.5t-187 -233t-98 -277zM854 1720l320 164l16 -31l-330 -153z" />
<glyph unicode="&#xd4;" horiz-adv-x="1669" d="M106 696q21 150 101.5 291t194 242.5t254 163t278.5 61.5t262 -61.5t208.5 -163.5t125.5 -242.5t20 -290.5q-17 -120 -72 -235.5t-137 -208.5t-182 -164t-213.5 -110t-224.5 -39q-138 0 -261 61t-208 163t-126 242.5t-20 290.5zM137 696q-19 -142 20.5 -277t121 -233 t199 -157.5t247.5 -59.5t265.5 59.5t245 157.5t187.5 233t97 277q20 142 -19.5 277t-121.5 233t-200.5 157.5t-248.5 59.5t-264.5 -59.5t-243.5 -157.5t-187 -233t-98 -277zM983 1905h31l188 -267h-41l-168 236l-231 -236h-41z" />
<glyph unicode="&#xd5;" horiz-adv-x="1669" d="M106 696q21 150 101.5 291t194 242.5t254 163t278.5 61.5t262 -61.5t208.5 -163.5t125.5 -242.5t20 -290.5q-17 -120 -72 -235.5t-137 -208.5t-182 -164t-213.5 -110t-224.5 -39q-138 0 -261 61t-208 163t-126 242.5t-20 290.5zM137 696q-19 -142 20.5 -277t121 -233 t199 -157.5t247.5 -59.5t265.5 59.5t245 157.5t187.5 233t97 277q20 142 -19.5 277t-121.5 233t-200.5 157.5t-248.5 59.5t-264.5 -59.5t-243.5 -157.5t-187 -233t-98 -277zM877 1812q-40 0 -71 -30t-38 -82l-6 -41h-31l6 41q10 68 49.5 105.5t94.5 37.5q34 0 61.5 -24 t43 -52.5t39 -52.5t50.5 -24q40 0 70 30t37 82l6 41h31l-7 -41q-9 -67 -48.5 -105t-94.5 -38q-34 0 -61.5 24t-42 52.5t-38 52.5t-50.5 24z" />
<glyph unicode="&#xd6;" horiz-adv-x="1669" d="M106 696q21 150 101.5 291t194 242.5t254 163t278.5 61.5t262 -61.5t208.5 -163.5t125.5 -242.5t20 -290.5q-17 -120 -72 -235.5t-137 -208.5t-182 -164t-213.5 -110t-224.5 -39q-138 0 -261 61t-208 163t-126 242.5t-20 290.5zM137 696q-19 -142 20.5 -277t121 -233 t199 -157.5t247.5 -59.5t265.5 59.5t245 157.5t187.5 233t97 277q20 142 -19.5 277t-121.5 233t-200.5 157.5t-248.5 59.5t-264.5 -59.5t-243.5 -157.5t-187 -233t-98 -277zM825 1782q15 0 25 -11t8 -26q-3 -15 -15.5 -25t-27.5 -10t-23.5 10t-5.5 25q2 15 13 26t26 11z M1133 1782q15 0 24.5 -11t7.5 -26q-3 -15 -15.5 -25t-27.5 -10t-23 10t-5 25q2 15 13 26t26 11z" />
<glyph unicode="&#xd7;" horiz-adv-x="737" d="M336 655l-211 246l25 21l210 -246l281 246l16 -21l-280 -246l213 -245l-25 -21l-211 246l-280 -246l-17 21z" />
<glyph unicode="&#xd8;" horiz-adv-x="1730" d="M137 696q21 150 101.5 291t194 242.5t254 163t278.5 61.5q202 0 363.5 -124t225.5 -320l228 96l-4 -35l-213 -92q38 -132 16 -283q-17 -120 -72 -235.5t-137 -208.5t-182 -164t-213.5 -110t-224.5 -39q-202 0 -363 123.5t-225 320.5l-227 -96l6 35l213 90 q-39 139 -19 284zM1550 696q21 138 -16 271l-1339 -572q62 -188 216 -307t345 -119q130 0 265.5 59.5t244.5 157.5t187 233t97 277zM168 696q-19 -147 18 -270l1338 569q-62 189 -217 308.5t-346 119.5q-130 0 -264.5 -59.5t-243.5 -157.5t-187 -233t-98 -277z" />
<glyph unicode="&#xd9;" horiz-adv-x="1464" d="M623 -31q214 0 371 144t190 379l127 901h30l-127 -901q-35 -251 -200.5 -402t-395.5 -151q-228 0 -350.5 151t-87.5 402l127 901h31l-127 -901q-33 -235 83 -379t329 -144zM705 1823l274 -164l-14 -21l-285 154z" />
<glyph unicode="&#xda;" horiz-adv-x="1464" d="M623 -31q214 0 371 144t190 379l127 901h30l-127 -901q-35 -251 -200.5 -402t-395.5 -151q-228 0 -350.5 151t-87.5 402l127 901h31l-127 -901q-33 -235 83 -379t329 -144zM743 1659l320 164l16 -31l-329 -154z" />
<glyph unicode="&#xdb;" horiz-adv-x="1464" d="M623 -31q214 0 371 144t190 379l127 901h30l-127 -901q-35 -251 -200.5 -402t-395.5 -151q-228 0 -350.5 151t-87.5 402l127 901h31l-127 -901q-33 -235 83 -379t329 -144zM885 1864h30l189 -267h-41l-168 236l-231 -236h-41z" />
<glyph unicode="&#xdc;" horiz-adv-x="1464" d="M623 -31q214 0 371 144t190 379l127 901h30l-127 -901q-35 -251 -200.5 -402t-395.5 -151q-228 0 -350.5 151t-87.5 402l127 901h31l-127 -901q-33 -235 83 -379t329 -144zM702 1710q15 0 25 -11t8 -26q-3 -15 -15.5 -25t-27.5 -10t-23 10t-5 25q2 15 12.5 26t25.5 11z M1010 1710q15 0 24.5 -11t7.5 -26q-3 -15 -15.5 -25t-27.5 -10t-23 10t-5 25q2 15 13 26t26 11z" />
<glyph unicode="&#xdd;" horiz-adv-x="1300" d="M700 1638l320 164l16 -30l-329 -154zM1331 1393l-702 -922l-66 -471h-31l66 471l-444 922h41l419 -881h11l665 881h41z" />
<glyph unicode="&#xde;" horiz-adv-x="1290" d="M326 1300h266q147 0 264 -45t189.5 -123.5t104.5 -185.5t15 -229q-24 -164 -122 -296.5t-259 -210t-356 -77.5h-266l-25 -174h-31l213 1516h31zM588 1270h-266l-156 -1106h266q185 0 339.5 74.5t248 199.5t115.5 279q16 115 -14.5 216t-100 175.5t-181.5 118t-251 43.5z " />
<glyph unicode="&#xdf;" horiz-adv-x="1126" d="M920 1085q19 131 -62.5 224.5t-214.5 93.5q-134 0 -242 -93.5t-127 -224.5l-151 -1085h-31l152 1085q20 147 136.5 248t266.5 101q149 0 236 -101t67 -248q-10 -74 -41 -135.5t-67 -95.5t-71 -57t-58 -31l-23 -8l-2 -8q13 -1 33.5 -5.5t72 -28.5t88.5 -60t61 -109 t11 -168q-23 -162 -148.5 -270.5t-293.5 -108.5h-133l4 31h133q153 0 269.5 100.5t138.5 247.5q20 147 -69.5 247.5t-242.5 100.5h-112l6 31h51q131 0 237 95t126 232z" />
<glyph unicode="&#xe0;" d="M819 0l27 195h-10q-6 -10 -18 -25.5t-51.5 -56.5t-82.5 -72t-108.5 -56.5t-131.5 -25.5q-84 0 -158.5 38.5t-126.5 104.5t-76 160t-9 199q20 139 100 256t190 181.5t222 64.5q66 0 123.5 -24.5t92.5 -59t60.5 -69t35.5 -58.5l11 -25h11l28 195h31l-129 -922h-31zM856 266 l53 389q-3 11 -10.5 30t-35 66.5t-61.5 84t-93.5 66.5t-128.5 30q-102 0 -205 -61.5t-178 -171t-93 -238.5t26.5 -238.5t130.5 -171t188 -61.5q69 0 136 28.5t114 69t84 81t55 69.5zM508 1372l274 -164l-14 -20l-285 153z" />
<glyph unicode="&#xe1;" d="M819 0l27 195h-10q-6 -10 -18 -25.5t-51.5 -56.5t-82.5 -72t-108.5 -56.5t-131.5 -25.5q-84 0 -158.5 38.5t-126.5 104.5t-76 160t-9 199q20 139 100 256t190 181.5t222 64.5q66 0 123.5 -24.5t92.5 -59t60.5 -69t35.5 -58.5l11 -25h11l28 195h31l-129 -922h-31zM856 266 l53 389q-3 11 -10.5 30t-35 66.5t-61.5 84t-93.5 66.5t-128.5 30q-102 0 -205 -61.5t-178 -171t-93 -238.5t26.5 -238.5t130.5 -171t188 -61.5q69 0 136 28.5t114 69t84 81t55 69.5zM510 1229l319 164l17 -31l-330 -154z" />
<glyph unicode="&#xe2;" d="M819 0l27 195h-10q-6 -10 -18 -25.5t-51.5 -56.5t-82.5 -72t-108.5 -56.5t-131.5 -25.5q-84 0 -158.5 38.5t-126.5 104.5t-76 160t-9 199q20 139 100 256t190 181.5t222 64.5q66 0 123.5 -24.5t92.5 -59t60.5 -69t35.5 -58.5l11 -25h11l28 195h31l-129 -922h-31zM856 266 l53 389q-3 11 -10.5 30t-35 66.5t-61.5 84t-93.5 66.5t-128.5 30q-102 0 -205 -61.5t-178 -171t-93 -238.5t26.5 -238.5t130.5 -171t188 -61.5q69 0 136 28.5t114 69t84 81t55 69.5zM639 1434h31l188 -267h-41l-168 236l-231 -236h-41z" />
<glyph unicode="&#xe3;" d="M819 0l27 195h-10q-6 -10 -18 -25.5t-51.5 -56.5t-82.5 -72t-108.5 -56.5t-131.5 -25.5q-84 0 -158.5 38.5t-126.5 104.5t-76 160t-9 199q20 139 100 256t190 181.5t222 64.5q66 0 123.5 -24.5t92.5 -59t60.5 -69t35.5 -58.5l11 -25h11l28 195h31l-129 -922h-31zM856 266 l53 389q-3 11 -10.5 30t-35 66.5t-61.5 84t-93.5 66.5t-128.5 30q-102 0 -205 -61.5t-178 -171t-93 -238.5t26.5 -238.5t130.5 -171t188 -61.5q69 0 136 28.5t114 69t84 81t55 69.5zM537 1352q-40 0 -71 -30.5t-38 -82.5l-6 -41h-31l6 41q10 68 49.5 105.5t94.5 37.5 q34 0 61.5 -24t43 -52.5t39 -52.5t50.5 -24q40 0 70 30t37 82l6 41h31l-7 -41q-9 -67 -48.5 -105t-94.5 -38q-28 0 -50.5 16t-38 38.5t-29.5 45t-33 38.5t-41 16z" />
<glyph unicode="&#xe4;" d="M819 0l27 195h-10q-6 -10 -18 -25.5t-51.5 -56.5t-82.5 -72t-108.5 -56.5t-131.5 -25.5q-84 0 -158.5 38.5t-126.5 104.5t-76 160t-9 199q20 139 100 256t190 181.5t222 64.5q66 0 123.5 -24.5t92.5 -59t60.5 -69t35.5 -58.5l11 -25h11l28 195h31l-129 -922h-31zM856 266 l53 389q-3 11 -10.5 30t-35 66.5t-61.5 84t-93.5 66.5t-128.5 30q-102 0 -205 -61.5t-178 -171t-93 -238.5t26.5 -238.5t130.5 -171t188 -61.5q69 0 136 28.5t114 69t84 81t55 69.5zM469 1290q15 0 25 -11t8 -26q-3 -15 -15.5 -24.5t-27.5 -9.5t-23.5 9.5t-5.5 24.5 q2 15 13 26t26 11zM776 1290q15 0 25 -11t8 -26q-3 -15 -15.5 -24.5t-27.5 -9.5t-23.5 9.5t-5.5 24.5q2 15 13 26t26 11z" />
<glyph unicode="&#xe5;" d="M819 0l27 195h-10q-6 -10 -18 -25.5t-51.5 -56.5t-82.5 -72t-108.5 -56.5t-131.5 -25.5q-84 0 -158.5 38.5t-126.5 104.5t-76 160t-9 199q20 139 100 256t190 181.5t222 64.5q66 0 123.5 -24.5t92.5 -59t60.5 -69t35.5 -58.5l11 -25h11l28 195h31l-129 -922h-31zM856 266 l53 389q-3 11 -10.5 30t-35 66.5t-61.5 84t-93.5 66.5t-128.5 30q-102 0 -205 -61.5t-178 -171t-93 -238.5t26.5 -238.5t130.5 -171t188 -61.5q69 0 136 28.5t114 69t84 81t55 69.5zM791 1352q9 64 -29 108.5t-103 44.5q-66 0 -116.5 -44t-59.5 -109q-9 -66 29 -110t104 -44 q65 0 115.5 44t59.5 110zM453 1352q10 76 72 130t139 54q76 0 122 -53.5t35 -130.5t-72 -131t-137 -54t-123 54t-36 131z" />
<glyph unicode="&#xe6;" horiz-adv-x="1781" d="M786 287q-3 -7 -8 -18.5t-25 -46t-43.5 -65.5t-63.5 -68.5t-85 -65t-107.5 -46t-131.5 -18.5q-162 0 -245 77t-67 189t120 189.5t265 77.5h410q30 209 -48 324.5t-229 115.5q-67 0 -126 -19t-95 -46t-62 -54t-37 -46l-11 -19h-31q4 9 12.5 23.5t41 51.5t71 65.5 t104.5 51.5t140 23q63 0 113.5 -17t81.5 -44t54.5 -60t34 -66t16.5 -60t7 -44v-17h10q3 6 8.5 17.5t26 43.5t44 61t62 64.5t80.5 61t100 43t119 17.5q107 0 195 -62t132.5 -173t25.5 -243l-31 -24h-783q-27 -195 75 -333t259 -138q137 0 252 82.5t154 183.5h31 q-41 -116 -165.5 -206.5t-275.5 -90.5q-63 0 -117 18t-90 47t-65 64t-45.5 70t-27.5 64t-15 47l-4 18h-11zM326 -10q113 0 213.5 57t171 165.5t90.5 248.5h-410q-147 0 -242 -69t-108 -167t62.5 -166.5t222.5 -68.5zM1286 932q-150 0 -287 -130t-163 -310h778 q13 89 -9.5 172t-69 141t-112 92.5t-137.5 34.5z" />
<glyph unicode="&#xe7;" horiz-adv-x="1075" d="M905 256q-42 -115 -165 -204t-285 -93l-56 -92q69 0 114.5 -52.5t35.5 -121.5q-9 -69 -69.5 -121.5t-129.5 -52.5q-41 0 -71.5 15.5t-40.5 30.5l-11 15l23 21q4 -6 11.5 -14.5t35 -23t59.5 -14.5q58 0 106 42.5t56 101.5q9 59 -27 101t-96 42h-51l80 123 q-166 9 -272 153.5t-78 348.5q20 139 100 256t190 181.5t222 64.5q158 0 245.5 -73t106.5 -183h-31q-21 95 -102.5 160t-224.5 65q-102 0 -205 -61.5t-178 -171t-93 -238.5t26.5 -238.5t130.5 -171t188 -61.5q151 0 268.5 82t156.5 184h31z" />
<glyph unicode="&#xe8;" horiz-adv-x="1085" d="M575 963q83 0 158 -38.5t127 -103.5t76 -157t10 -193l-35 -31h-809q-13 -90 11 -174t73 -144t120 -96t149 -36q147 0 263.5 82t155.5 184h31q-42 -117 -167 -207t-287 -90q-86 0 -162 38.5t-128.5 104.5t-77 160t-9.5 199q20 139 99 256t187 181.5t215 64.5zM569 932 q-97 0 -197.5 -61t-174.5 -168.5t-91 -231.5h809q13 93 -10.5 179.5t-72 147.5t-118 97.5t-145.5 36.5zM512 1393l274 -164l-14 -21l-285 154z" />
<glyph unicode="&#xe9;" horiz-adv-x="1085" d="M575 963q83 0 158 -38.5t127 -103.5t76 -157t10 -193l-35 -31h-809q-13 -90 11 -174t73 -144t120 -96t149 -36q147 0 263.5 82t155.5 184h31q-42 -117 -167 -207t-287 -90q-86 0 -162 38.5t-128.5 104.5t-77 160t-9.5 199q20 139 99 256t187 181.5t215 64.5zM569 932 q-97 0 -197.5 -61t-174.5 -168.5t-91 -231.5h809q13 93 -10.5 179.5t-72 147.5t-118 97.5t-145.5 36.5zM506 1208l319 164l17 -31l-330 -153z" />
<glyph unicode="&#xea;" horiz-adv-x="1085" d="M575 963q83 0 158 -38.5t127 -103.5t76 -157t10 -193l-35 -31h-809q-13 -90 11 -174t73 -144t120 -96t149 -36q147 0 263.5 82t155.5 184h31q-42 -117 -167 -207t-287 -90q-86 0 -162 38.5t-128.5 104.5t-77 160t-9.5 199q20 139 99 256t187 181.5t215 64.5zM569 932 q-97 0 -197.5 -61t-174.5 -168.5t-91 -231.5h809q13 93 -10.5 179.5t-72 147.5t-118 97.5t-145.5 36.5zM627 1413h30l189 -266h-41l-168 235l-231 -235h-41z" />
<glyph unicode="&#xeb;" horiz-adv-x="1085" d="M575 963q83 0 158 -38.5t127 -103.5t76 -157t10 -193l-35 -31h-809q-13 -90 11 -174t73 -144t120 -96t149 -36q147 0 263.5 82t155.5 184h31q-42 -117 -167 -207t-287 -90q-86 0 -162 38.5t-128.5 104.5t-77 160t-9.5 199q20 139 99 256t187 181.5t215 64.5zM569 932 q-97 0 -197.5 -61t-174.5 -168.5t-91 -231.5h809q13 93 -10.5 179.5t-72 147.5t-118 97.5t-145.5 36.5zM469 1290q15 0 25 -11t8 -26q-3 -15 -15.5 -24.5t-27.5 -9.5t-23.5 9.5t-5.5 24.5q2 15 13 26t26 11zM776 1290q15 0 25 -11t8 -26q-3 -15 -15.5 -24.5t-27.5 -9.5 t-23.5 9.5t-5.5 24.5q2 15 13 26t26 11z" />
<glyph unicode="&#xec;" horiz-adv-x="399" d="M72 1393l274 -164l-14 -21l-285 154zM82 0l129 922h31l-129 -922h-31z" />
<glyph unicode="&#xed;" horiz-adv-x="399" d="M188 1208l320 164l16 -31l-329 -153zM82 0l129 922h31l-129 -922h-31z" />
<glyph unicode="&#xee;" horiz-adv-x="419" d="M92 0l129 922h31l-129 -922h-31zM291 1413h31l188 -266h-41l-168 235l-231 -235h-41z" />
<glyph unicode="&#xef;" horiz-adv-x="419" d="M131 1274q15 0 25 -11t8 -26q-3 -15 -15.5 -25t-27.5 -10t-23.5 10t-5.5 25q2 15 13 26t26 11zM438 1274q15 0 25 -11t8 -26q-3 -15 -15.5 -25t-27.5 -10t-23.5 10t-5.5 25q2 15 13 26t26 11zM92 0l129 922h31l-129 -922h-31z" />
<glyph unicode="&#xf0;" d="M694 1157l-18 21l160 112l-138 185l23 20l137 -184l160 112l18 -20l-159 -113q3 -4 8 -11t20 -32.5t26.5 -52.5t27 -71t21.5 -89t10 -105t-7 -120l-55 -389q-29 -205 -169 -333t-329 -128q-191 0 -296.5 128t-76.5 333t170 333t332 128q66 0 121 -14t90.5 -36.5t63.5 -50 t42.5 -55t24 -50t11.5 -36.5l3 -14h11l26 184q10 83 4.5 154t-22 127.5t-34.5 96.5t-32 61l-14 22zM434 -10q174 0 305.5 120t157.5 310q28 194 -68 312t-274 118q-175 0 -307.5 -120t-159.5 -310q-26 -190 72.5 -310t273.5 -120z" />
<glyph unicode="&#xf1;" horiz-adv-x="1105" d="M926 553l-76 -553h-31l76 553q25 167 -62.5 273t-242.5 106q-69 0 -136.5 -28.5t-114 -69t-84 -81.5t-55.5 -69l-18 -29l-90 -655h-31l129 922h31l-28 -195h10q6 10 18 25.5t52 56.5t83 72t108.5 56.5t131.5 25.5q170 0 263 -113.5t67 -296.5zM518 1362 q-40 0 -70.5 -30.5t-37.5 -82.5l-7 -41h-30l6 41q10 68 49 106t94 38q28 0 51 -16t38.5 -38.5t30 -45t34 -38.5t41.5 -16q39 0 69 30t37 83l6 41h31l-6 -41q-9 -67 -48.5 -105.5t-94.5 -38.5q-34 0 -61.5 24t-42.5 53t-38.5 53t-50.5 24z" />
<glyph unicode="&#xf2;" horiz-adv-x="1157" d="M1006 461q-20 -140 -100 -256t-195.5 -181t-239.5 -65q-192 0 -309.5 145t-87.5 357q20 140 100.5 256t196.5 181t241 65q190 0 307 -145t87 -357zM975 461q14 97 -10 185t-74.5 150.5t-125 99t-159.5 36.5q-115 0 -223.5 -61.5t-184.5 -170.5t-94 -239q-14 -97 10 -185 t75 -150.5t125.5 -99t160.5 -36.5q114 0 222 61.5t184 170.5t94 239zM518 1372l275 -164l-15 -20l-284 153z" />
<glyph unicode="&#xf3;" horiz-adv-x="1157" d="M1006 461q-20 -140 -100 -256t-195.5 -181t-239.5 -65q-192 0 -309.5 145t-87.5 357q20 140 100.5 256t196.5 181t241 65q190 0 307 -145t87 -357zM975 461q14 97 -10 185t-74.5 150.5t-125 99t-159.5 36.5q-115 0 -223.5 -61.5t-184.5 -170.5t-94 -239q-14 -97 10 -185 t75 -150.5t125.5 -99t160.5 -36.5q114 0 222 61.5t184 170.5t94 239zM530 1229l320 164l16 -31l-329 -154z" />
<glyph unicode="&#xf4;" horiz-adv-x="1157" d="M1006 461q-20 -140 -100 -256t-195.5 -181t-239.5 -65q-192 0 -309.5 145t-87.5 357q20 140 100.5 256t196.5 181t241 65q190 0 307 -145t87 -357zM975 461q14 97 -10 185t-74.5 150.5t-125 99t-159.5 36.5q-115 0 -223.5 -61.5t-184.5 -170.5t-94 -239q-14 -97 10 -185 t75 -150.5t125.5 -99t160.5 -36.5q114 0 222 61.5t184 170.5t94 239zM670 1434h30l189 -267h-41l-168 236l-231 -236h-41z" />
<glyph unicode="&#xf5;" horiz-adv-x="1157" d="M1006 461q-20 -140 -100 -256t-195.5 -181t-239.5 -65q-192 0 -309.5 145t-87.5 357q20 140 100.5 256t196.5 181t241 65q190 0 307 -145t87 -357zM975 461q14 97 -10 185t-74.5 150.5t-125 99t-159.5 36.5q-115 0 -223.5 -61.5t-184.5 -170.5t-94 -239q-14 -97 10 -185 t75 -150.5t125.5 -99t160.5 -36.5q114 0 222 61.5t184 170.5t94 239zM553 1321q-40 0 -71 -30.5t-38 -82.5l-6 -41h-30l6 41q10 68 49 106t94 38q28 0 51 -16t38.5 -38.5t30 -45t34 -38.5t41.5 -16q39 0 69 30t37 83l6 41h31l-6 -41q-9 -67 -49 -105.5t-95 -38.5 q-28 0 -50.5 16t-38 38.5t-29.5 45t-33 38.5t-41 16z" />
<glyph unicode="&#xf6;" horiz-adv-x="1157" d="M1006 461q-20 -140 -100 -256t-195.5 -181t-239.5 -65q-192 0 -309.5 145t-87.5 357q20 140 100.5 256t196.5 181t241 65q190 0 307 -145t87 -357zM975 461q14 97 -10 185t-74.5 150.5t-125 99t-159.5 36.5q-115 0 -223.5 -61.5t-184.5 -170.5t-94 -239q-14 -97 10 -185 t75 -150.5t125.5 -99t160.5 -36.5q114 0 222 61.5t184 170.5t94 239zM494 1311q15 0 24.5 -11t7.5 -26q-3 -15 -15.5 -25t-27.5 -10t-23 10t-5 25q2 15 13 26t26 11zM801 1311q15 0 25 -11t8 -26q-3 -15 -15.5 -25t-27.5 -10t-23.5 10t-5.5 25q2 15 13 26t26 11z" />
<glyph unicode="&#xf7;" horiz-adv-x="860" d="M762 625h-696l4 30h696zM354 236q-15 0 -23.5 10.5t-6.5 25.5q3 15 14.5 25t26.5 10t24 -10t6 -25q-1 -15 -13.5 -25.5t-27.5 -10.5zM457 973q-15 0 -23.5 11t-5.5 26q1 15 12.5 24.5t26.5 9.5t24.5 -9.5t8.5 -24.5q-3 -15 -15.5 -26t-27.5 -11z" />
<glyph unicode="&#xf8;" horiz-adv-x="1177" d="M1016 461q-20 -140 -100 -256t-195.5 -181t-239.5 -65q-140 0 -245 81.5t-142 215.5l-172 -72l6 35l160 66q-16 85 -4 176q20 140 100.5 256t197 181t241.5 65q139 0 242.5 -81.5t138.5 -217.5l174 73l-4 -35l-162 -67q16 -84 4 -174zM115 461q-13 -92 4 -164l854 354 q-34 126 -132 203.5t-225 77.5q-115 0 -223.5 -61.5t-184 -170.5t-93.5 -239zM985 461q12 84 -4 162l-856 -355q34 -126 132.5 -202t227.5 -76q114 0 222 61.5t184 170.5t94 239z" />
<glyph unicode="&#xf9;" d="M113 369l77 553h31l-78 -553q-24 -167 63.5 -273t242.5 -106q69 0 136 28.5t114 69t84 81t55 69.5l18 28l92 656h31l-129 -922h-31l27 195h-10q-6 -10 -18 -25.5t-51.5 -56.5t-82.5 -72t-108.5 -56.5t-131.5 -25.5q-170 0 -263.5 113.5t-67.5 296.5zM506 1352l274 -164 l-14 -21l-285 154z" />
<glyph unicode="&#xfa;" d="M113 369l77 553h31l-78 -553q-24 -167 63.5 -273t242.5 -106q69 0 136 28.5t114 69t84 81t55 69.5l18 28l92 656h31l-129 -922h-31l27 195h-10q-6 -10 -18 -25.5t-51.5 -56.5t-82.5 -72t-108.5 -56.5t-131.5 -25.5q-170 0 -263.5 113.5t-67.5 296.5zM530 1167l320 164 l16 -31l-329 -153z" />
<glyph unicode="&#xfb;" d="M113 369l77 553h31l-78 -553q-24 -167 63.5 -273t242.5 -106q69 0 136 28.5t114 69t84 81t55 69.5l18 28l92 656h31l-129 -922h-31l27 195h-10q-6 -10 -18 -25.5t-51.5 -56.5t-82.5 -72t-108.5 -56.5t-131.5 -25.5q-170 0 -263.5 113.5t-67.5 296.5zM647 1413h31 l188 -266h-41l-168 235l-231 -235h-41z" />
<glyph unicode="&#xfc;" d="M113 369l77 553h31l-78 -553q-24 -167 63.5 -273t242.5 -106q69 0 136 28.5t114 69t84 81t55 69.5l18 28l92 656h31l-129 -922h-31l27 195h-10q-6 -10 -18 -25.5t-51.5 -56.5t-82.5 -72t-108.5 -56.5t-131.5 -25.5q-170 0 -263.5 113.5t-67.5 296.5zM477 1270 q15 0 25 -11t8 -26q-3 -15 -15.5 -25t-27.5 -10t-23.5 10t-5.5 25q2 15 13 26t26 11zM784 1270q15 0 25 -11t8 -26q-3 -15 -15.5 -25t-27.5 -10t-23.5 10t-5.5 25q2 15 13 26t26 11z" />
<glyph unicode="&#xfd;" horiz-adv-x="1013" d="M907 922h31l-385 -1065q-106 -287 -297 -287q-39 0 -76 10t-54 20l-17 11l4 31q7 -5 19 -11.5t50.5 -18t77.5 -11.5q79 0 148.5 64.5t113.5 191.5l51 143h-368l-76 922h31l73 -891h351zM483 1188l320 164l16 -31l-330 -154z" />
<glyph unicode="&#xfe;" horiz-adv-x="1128" d="M299 1393l-94 -666h10q6 10 18 25.5t52 56.5t83 72t108.5 56.5t131.5 25.5q84 0 158.5 -38.5t126 -104.5t75.5 -160t9 -199t-65.5 -199t-120.5 -160t-155 -104.5t-169 -38.5q-66 0 -124 24.5t-93.5 59t-61.5 69t-36 58.5l-11 25h-10l-86 -605h-31l254 1803h31zM195 655 l-54 -389q2 -6 5.5 -16t17 -38.5t30 -54.5t44.5 -58t60 -55t77.5 -38.5t95.5 -15.5q102 0 204.5 61.5t177.5 171t93 238.5t-26.5 238.5t-130 171t-187.5 61.5q-69 0 -136 -28.5t-114 -69t-84 -81.5t-55 -69z" />
<glyph unicode="&#xff;" horiz-adv-x="1013" d="M907 922h31l-385 -1065q-106 -287 -297 -287q-39 0 -76 10t-54 20l-17 11l4 31q7 -5 19 -11.5t50.5 -18t77.5 -11.5q79 0 148.5 64.5t113.5 191.5l51 143h-368l-76 922h31l73 -891h351zM422 1239q15 0 25 -11t8 -26q-3 -15 -15.5 -25t-27.5 -10t-23.5 10t-5.5 25 q2 15 13 26t26 11zM729 1239q15 0 25 -11t8 -26q-3 -15 -15.5 -25t-27.5 -10t-23.5 10t-5.5 25q2 15 13 26t26 11z" />
<glyph unicode="&#x152;" horiz-adv-x="2048" d="M106 696q43 309 270 503t552 194h1130l-4 -31h-860l-90 -641h676l-4 -31h-676l-92 -659h860l-4 -31h-1131q-161 0 -289.5 51.5t-209.5 142.5t-115 220.5t-13 281.5zM137 696q-26 -193 38.5 -344t210.5 -236t351 -85h240l186 1331h-239q-205 0 -375 -85t-277.5 -236.5 t-134.5 -344.5z" />
<glyph unicode="&#x153;" horiz-adv-x="1884" d="M891 297h-10q-3 -7 -8 -19t-25 -47.5t-43 -67t-62 -70.5t-82.5 -67.5t-104 -47.5t-126.5 -19q-82 0 -154 37t-122 102t-72.5 160t-7.5 203q21 144 98 260.5t182.5 179t216.5 62.5q66 0 121 -18.5t90.5 -48.5t63 -66t42 -72t24 -66t12.5 -48l2 -19h10q3 7 9 19t26.5 47.5 t45 67t64 70.5t83 67.5t103.5 47.5t124 19q81 0 153 -37t122 -100t72.5 -153.5t8.5 -191.5l-25 -20h-798q-28 -201 73.5 -336t259.5 -135q144 0 255.5 77t160.5 183h31q-24 -53 -65.5 -103.5t-98 -93t-131.5 -68.5t-156 -26q-63 0 -117.5 18.5t-90.5 48.5t-65 66t-45 72 t-26.5 66t-14.5 48zM1384 932q-154 0 -292 -129.5t-164 -310.5h788q17 119 -25.5 221.5t-125 160.5t-181.5 58zM893 461q14 100 -7 189.5t-67.5 150t-113 96t-140.5 35.5q-75 0 -151.5 -35.5t-140 -96t-109.5 -150t-60 -189.5q-28 -201 73 -336t257 -135q74 0 150 35t139 95 t109 146.5t59 182.5z" />
<glyph unicode="&#x178;" horiz-adv-x="1300" d="M631 1710q15 0 25 -11t8 -26q-3 -15 -15.5 -25t-27.5 -10t-23.5 10t-5.5 25q2 15 13 26t26 11zM938 1710q15 0 25 -11t8 -26q-3 -15 -15.5 -25t-27.5 -10t-23.5 10t-5.5 25q2 15 13 26t26 11zM1331 1393l-702 -922l-66 -471h-31l66 471l-444 922h41l419 -881h11l665 881 h41z" />
<glyph unicode="&#x2c6;" horiz-adv-x="604" d="M379 1393h31l188 -267h-41l-168 236l-231 -236h-41z" />
<glyph unicode="&#x2dc;" horiz-adv-x="583" d="M272 1362q-40 0 -70.5 -30.5t-37.5 -82.5l-6 -41h-31l6 41q10 68 49 106t94 38q28 0 51 -16t38.5 -38.5t30 -45t34 -38.5t41.5 -16q40 0 70 30.5t37 82.5l6 41h30l-6 -41q-9 -67 -48.5 -105.5t-94.5 -38.5q-34 0 -61.5 24t-42.5 53t-38.5 53t-50.5 24z" />
<glyph unicode="&#x2000;" horiz-adv-x="973" />
<glyph unicode="&#x2001;" horiz-adv-x="1946" />
<glyph unicode="&#x2002;" horiz-adv-x="973" />
<glyph unicode="&#x2003;" horiz-adv-x="1946" />
<glyph unicode="&#x2004;" horiz-adv-x="648" />
<glyph unicode="&#x2005;" horiz-adv-x="486" />
<glyph unicode="&#x2006;" horiz-adv-x="324" />
<glyph unicode="&#x2007;" horiz-adv-x="324" />
<glyph unicode="&#x2008;" horiz-adv-x="243" />
<glyph unicode="&#x2009;" horiz-adv-x="389" />
<glyph unicode="&#x200a;" horiz-adv-x="108" />
<glyph unicode="&#x2010;" horiz-adv-x="870" d="M772 625h-706l4 30h706z" />
<glyph unicode="&#x2011;" horiz-adv-x="870" d="M772 625h-706l4 30h706z" />
<glyph unicode="&#x2012;" horiz-adv-x="870" d="M772 625h-706l4 30h706z" />
<glyph unicode="&#x2013;" horiz-adv-x="1198" d="M1085 522h-1034l4 31h1035z" />
<glyph unicode="&#x2014;" horiz-adv-x="1484" d="M1372 522h-1321l4 31h1321z" />
<glyph unicode="&#x2018;" horiz-adv-x="368" d="M279 1194q-2 -15 -13 -26t-26 -11t-25 11t-8 26q1 6 5 15t8 15l3 5l94 164h21l-84 -164q10 0 19 -9t6 -26z" />
<glyph unicode="&#x2019;" horiz-adv-x="368" d="M242 1356q2 15 13 26t26 11t24.5 -11t7.5 -26q-1 -6 -5 -15t-8 -15l-3 -5l-94 -164h-21l84 164q-10 0 -18.5 9t-5.5 26z" />
<glyph unicode="&#x201a;" horiz-adv-x="368" d="M55 35q2 15 13 26t26 11t25 -11t8 -26q-1 -6 -4.5 -15t-6.5 -14l-3 -6l-97 -164h-20l86 164q-10 0 -20 9t-7 26z" />
<glyph unicode="&#x201c;" horiz-adv-x="583" d="M279 1194q-2 -15 -13 -26t-26 -11t-25 11t-8 26q1 6 5 15t8 15l3 5l94 164h21l-84 -164q10 0 19 -9t6 -26zM494 1194q-2 -15 -13 -26t-26 -11t-25 11t-8 26q1 6 5 15t7 15l4 5l94 164h21l-84 -164q10 0 19 -9t6 -26z" />
<glyph unicode="&#x201d;" horiz-adv-x="583" d="M242 1356q2 15 13 26t26 11t24.5 -11t7.5 -26q-1 -6 -5 -15t-8 -15l-3 -5l-94 -164h-21l84 164q-10 0 -18.5 9t-5.5 26zM457 1356q2 15 13 26t26 11t24.5 -11t7.5 -26q-1 -6 -5 -15t-7 -15l-4 -5l-94 -164h-21l84 164q-10 0 -18.5 9t-5.5 26z" />
<glyph unicode="&#x201e;" horiz-adv-x="583" d="M55 35q2 15 13 26t26 11t25 -11t8 -26q-1 -6 -4.5 -15t-6.5 -14l-3 -6l-97 -164h-20l86 164q-10 0 -20 9t-7 26zM270 35q2 15 13 26t26 11t25 -11t8 -26q-1 -6 -4.5 -15t-6.5 -14l-3 -6l-97 -164h-20l86 164q-10 0 -20 9t-7 26z" />
<glyph unicode="&#x2022;" horiz-adv-x="409" d="M270 614q-6 -38 -31 -60t-63 -22t-57 22t-13 60q4 38 29.5 60t63.5 22t57 -22t14 -60z" />
<glyph unicode="&#x2026;" horiz-adv-x="1054" d="M76 0q-15 0 -24.5 10t-6.5 25q2 15 13 26t26 11t25 -11t8 -26q-3 -15 -14.5 -25t-26.5 -10zM426 0q-16 0 -26 10t-7 25q1 15 13.5 26t27.5 11t24 -11t7 -26q-3 -15 -13.5 -25t-25.5 -10zM772 0q-15 0 -24.5 10t-6.5 25q2 15 13 26t26 11t25 -11t8 -26q-3 -15 -14.5 -25 t-26.5 -10z" />
<glyph unicode="&#x202f;" horiz-adv-x="389" />
<glyph unicode="&#x2039;" horiz-adv-x="655" d="M66 471l493 451l16 -21l-469 -430l349 -430l-23 -21z" />
<glyph unicode="&#x203a;" horiz-adv-x="655" d="M150 922l366 -451l-493 -451l-19 21l471 430l-350 430z" />
<glyph unicode="&#x205f;" horiz-adv-x="486" />
<glyph unicode="&#x20ac;" horiz-adv-x="1669" d="M72 813l4 31h178q63 168 180.5 306t274 221t319.5 83q120 0 219.5 -34.5t164.5 -92.5t105 -127t54 -145h-31q-14 68 -53 131.5t-101 117.5t-156 86.5t-206 32.5q-114 0 -229.5 -46.5t-211.5 -125.5t-173.5 -184.5t-122.5 -222.5h628l-4 -31h-635q-16 -56 -26 -117 q-2 -17 -3.5 -35.5t-2 -32.5t-0.5 -26v-18v-6h635l-5 -31h-630q18 -156 93.5 -287t202.5 -211t279 -80q120 0 227.5 33.5t189.5 91.5t144.5 129.5t106.5 155.5h31q-46 -92 -111 -169t-151.5 -139t-199.5 -97t-241 -35q-122 0 -230 48.5t-185 131t-126 193.5t-61 235h-178 l4 31h174q-2 57 6 118q4 27 11 56.5t12 45.5l4 15h-174z" />
<glyph unicode="&#x2122;" horiz-adv-x="1372" d="M109 1362l4 31h501l-4 -31h-235l-82 -584h-31l82 584h-235zM969 952l-228 400l-79 -574h-31l86 615h41l217 -389l325 389h41l-86 -615h-30l80 574z" />
<glyph unicode="&#x25fc;" horiz-adv-x="921" d="M0 922h922v-922h-922v922z" />
</font>
</defs>
</svg>
